<svg width="1440" height="598" viewBox="0 0 1440 598" fill="none" xmlns="http://www.w3.org/2000/svg">
<path fill-rule="evenodd" clip-rule="evenodd" d="M1244.97 82.4297H1242.97V99.7186H1241.64V109.693H1241.64V114.348H1234.99H1234.99V99.7186H1233.66V82.4297H1231.67V99.7186H1230.34V109.693H1226.35V114.348H1216.37V116.343H1209.72V250H1234.99H1241.64H1266.91V116.343H1260.26V114.348H1250.29V109.693H1246.3V99.7186H1244.97V82.4297Z" fill="#6589AA"/>
<path fill-rule="evenodd" clip-rule="evenodd" d="M1128.74 122.404H1085.51V131.049H1076.87V280H1085.51H1128.74H1137.38V131.049H1128.74V122.404Z" fill="#6589AA"/>
<path fill-rule="evenodd" clip-rule="evenodd" d="M1176.4 95.396V160.859L1185.79 260H1143.75L1153.13 160.863V95.396L1152.96 95.396L1159.58 92.7482L1164.77 37.9028L1169.96 92.7483L1176.57 95.396L1176.4 95.396Z" fill="#6589AA"/>
<path fill-rule="evenodd" clip-rule="evenodd" d="M1289.4 0H1315.58C1320.76 17.2501 1324.1 44.4899 1324.1 75.1406C1324.1 76.2535 1324.09 77.3619 1324.08 78.4654H1324.1V260H1280.88V78.4654H1280.89C1280.88 77.3619 1280.88 76.2535 1280.88 75.1406C1280.88 44.4899 1284.22 17.2501 1289.4 0Z" fill="#6589AA"/>
<path d="M654 231.448L669.333 226.848V270H654V231.448Z" fill="#6589AA"/>
<rect x="669.333" y="224" width="17.9619" height="46" fill="#6589AA"/>
<path d="M687.295 237.581L693.866 235.39L700.438 237.581V270H687.295V237.581Z" fill="#6589AA"/>
<path d="M700.438 225.095L716.648 227.943V270H700.438V225.095Z" fill="#6589AA"/>
<rect x="720.647" y="246.781" width="11.3905" height="23.219" fill="#6589AA"/>
<path d="M732.038 239.771L738.61 235.39L745.181 239.771V270H732.038V239.771Z" fill="#6589AA"/>
<rect x="745.181" y="224" width="14.8952" height="46" fill="#6589AA"/>
<rect x="483.571" y="167" width="16" height="48" fill="#6589AA"/>
<path d="M462.286 181.286L476.571 183.424V215H462.286V181.286Z" fill="#6589AA"/>
<path d="M435.429 185.553L448.857 181.286L462.286 185.553V215H435.429V185.553Z" fill="#6589AA"/>
<path d="M499.571 175.571L510.143 169.857L520.714 175.571V215H499.571V175.571Z" fill="#6589AA"/>
<rect x="413" y="181.286" width="19.4286" height="33.7143" fill="#6589AA"/>
<path d="M578.5 197C627.5 196 664 303.5 755 254C846 204.5 864 267.5 1024.5 268.5C1185 269.5 1206.5 200.5 1288.5 214C1370.5 227.5 1440 200.5 1440 200.5V648H0V178.5C0 178.5 72.5 208 119.5 194C166.5 180 239.5 111.5 291 124C342.5 136.5 394 209.5 454 209.5C514 209.5 529.5 198 578.5 197Z" fill="#6589AA"/>
</svg>
