<svg width="1440" height="636" viewBox="0 0 1440 636" fill="none" xmlns="http://www.w3.org/2000/svg">
<path fill-rule="evenodd" clip-rule="evenodd" d="M356.262 129.974V133.712H360.315C361.494 133.712 362.525 132.858 362.525 132.431V129.974H364.735V212.218L362.525 212.218L362.525 198.611C362.525 195.68 361.297 193.9 360.683 193.9H356.262V212.218H356.262V193.9H351.841C351.227 193.9 349.999 195.68 349.999 198.611L349.999 212.218L347.789 212.218V129.974H349.999V132.431C349.999 132.858 351.031 133.712 352.21 133.712H356.262V129.974H356.262ZM356.262 165.862V152.778H351.841C351.227 152.778 349.999 154.049 349.999 156.143V164.367C349.999 164.865 351.031 165.862 352.21 165.862H356.262ZM356.262 137.451V148.666H352.21C351.031 148.666 349.999 147.811 349.999 147.384V140.335C349.999 138.54 351.227 137.451 351.841 137.451H356.262ZM356.262 152.778V165.862H360.315C361.494 165.862 362.525 164.865 362.525 164.367V156.143C362.525 154.049 361.297 152.778 360.683 152.778H356.262ZM356.262 148.666V137.451H360.683C361.297 137.451 362.525 138.54 362.525 140.335V147.384C362.525 147.811 361.494 148.666 360.315 148.666H356.262ZM356.262 188.293V171.47H360.683C361.297 171.47 362.525 173.104 362.525 175.796V186.37C362.525 187.011 361.494 188.293 360.315 188.293H356.262ZM356.262 171.47V188.293H352.21C351.031 188.293 349.999 187.011 349.999 186.37V175.796C349.999 173.104 351.227 171.47 351.841 171.47H356.262Z" fill="#8CA7BF"/>
<path fill-rule="evenodd" clip-rule="evenodd" d="M373.367 6.5526V0H379.349V219.37L373.367 219.37L373.367 183.074C373.367 175.257 370.043 170.51 368.382 170.51H356.417H356.417H344.453C342.791 170.51 339.468 175.257 339.468 183.074L339.468 219.37L333.485 219.37V0H339.468V6.5526C339.468 7.69219 342.259 9.97136 345.45 9.97136H356.417H356.417H367.385C370.575 9.97136 373.367 7.69219 373.367 6.5526ZM345.45 95.7251H356.417H356.417H367.385C370.575 95.7251 373.367 93.0661 373.367 91.7365V69.7995C373.367 64.2156 370.044 60.8253 368.382 60.8253H356.417H356.417H344.453C342.791 60.8253 339.468 64.2156 339.468 69.7995V91.7365C339.468 93.0661 342.259 95.7251 345.45 95.7251ZM356.417 49.8568H345.45C342.259 49.8568 339.468 47.5776 339.468 46.4381V27.6349C339.468 22.8487 342.791 19.9427 344.453 19.9427H356.417H356.417H368.382C370.044 19.9427 373.367 22.8487 373.367 27.6349V46.4381C373.367 47.5776 370.575 49.8568 367.385 49.8568H356.417H356.417ZM367.385 155.553H356.417H345.45C342.259 155.553 339.468 152.135 339.468 150.425V122.22C339.468 115.041 342.791 110.682 344.453 110.682H356.417H356.417H368.382C370.044 110.682 373.367 115.041 373.367 122.22V150.425C373.367 152.135 370.575 155.553 367.385 155.553Z" fill="#8CA7BF"/>
<path d="M298 287C320.423 226.08 343.868 206.484 349.99 204.3H363.001C369.122 206.484 392.567 226.08 414.99 287H298Z" fill="#8CA7BF"/>
<path d="M377.95 5.28613C378.358 48.0286 380.857 153.95 387.589 235.695" stroke="#8CA7BF" stroke-width="3.10943"/>
<path d="M335.351 5.28613C334.943 48.0286 332.444 153.95 325.712 235.695" stroke="#8CA7BF" stroke-width="3.10943"/>
<path d="M339.549 108.208C342.525 230.724 343.829 243.988 349.188 131.208" stroke="#8CA7BF" stroke-width="0.932828"/>
<path d="M330.065 224.812L330.065 167.598" stroke="#8CA7BF" stroke-width="0.932828"/>
<path d="M332.242 222.635L332.242 118.469" stroke="#8CA7BF" stroke-width="0.932828"/>
<path d="M340.637 213.618L340.637 165.422" stroke="#8CA7BF" stroke-width="0.621885"/>
<path d="M347.167 206.777L347.167 169.464" stroke="#8CA7BF" stroke-width="0.466414"/>
<path d="M345.923 207.71L345.923 189.986" stroke="#8CA7BF" stroke-width="0.466414"/>
<path d="M341.881 211.441L341.881 190.919" stroke="#8CA7BF" stroke-width="0.621885"/>
<path d="M349.033 200.869C343.902 200.869 333.796 205.844 316.073 232.119" stroke="#8CA7BF" stroke-width="1.55471"/>
<path d="M372.975 108.208C369.999 230.724 368.695 243.988 363.336 131.208" stroke="#8CA7BF" stroke-width="0.932828"/>
<path d="M382.459 224.812L382.459 167.598" stroke="#8CA7BF" stroke-width="0.932828"/>
<path d="M380.282 222.635L380.282 118.469" stroke="#8CA7BF" stroke-width="0.932828"/>
<path d="M371.887 213.618L371.887 165.422" stroke="#8CA7BF" stroke-width="0.621885"/>
<path d="M365.357 206.777L365.357 169.464" stroke="#8CA7BF" stroke-width="0.466414"/>
<path d="M366.601 207.71L366.601 189.986" stroke="#8CA7BF" stroke-width="0.466414"/>
<path d="M370.643 211.441L370.643 190.919" stroke="#8CA7BF" stroke-width="0.621885"/>
<path d="M363.491 200.869C368.622 200.869 378.727 205.844 396.451 232.119" stroke="#8CA7BF" stroke-width="1.55471"/>
<path d="M783 256C694 265 618.5 187.5 523 195C427.5 202.5 310 266 216.5 218.5C123 171 0 256 0 256V736H1440V187.5C1440 187.5 1404 148 1316.5 143C1229 138 1128.5 247 1033 187.5C937.5 128 872 247 783 256Z" fill="#8CA7BF"/>
</svg>
