<svg width="352" height="103" viewBox="0 0 352 103" fill="none" xmlns="http://www.w3.org/2000/svg">
<path fill-rule="evenodd" clip-rule="evenodd" d="M267.045 22.9911C267.045 10.2935 256.751 0 244.054 0H72.0804C59.3828 0 49.0894 10.2935 49.0894 22.9911C49.0894 35.6887 59.3828 45.9821 72.0804 45.9821H111.625C111.625 49.9814 112.646 53.7421 114.442 57.0179H23.3393C10.6417 57.0179 0.348267 67.3113 0.348267 80.0089C0.348267 92.7065 10.6417 103 23.3393 103H219.223C231.921 103 242.214 92.7065 242.214 80.0089C242.214 76.0097 241.193 72.249 239.398 68.9732H328.661C341.358 68.9732 351.652 58.6798 351.652 45.9821C351.652 33.2845 341.358 22.9911 328.661 22.9911H267.045Z" fill="white"/>
</svg>
