<svg width="2880" height="889" viewBox="0 0 2880 889" fill="none" xmlns="http://www.w3.org/2000/svg">
<g clip-path="url(#clip0_791_2584)">
<path d="M244 460.654C165 510.555 0 437.664 0 437.664V929H2880V485.646C2880 485.646 2802 460.654 2707 460.654C2612 460.654 2519 606.561 2338.5 570.926C2158 535.292 2179 690.049 2051 678.534C1923 667.018 1930 573.933 1816 606.561C1702 639.188 1636 650.704 1521 584.489C1406 518.274 1385 485.646 1268 523.99C1151 562.335 1047 381.045 960 359.933C873 338.822 776 438.624 716 437.664C656 436.704 547 352.256 448 359.933C349 367.61 323 410.753 244 460.654Z" fill="#507496"/>
<path fill-rule="evenodd" clip-rule="evenodd" d="M-5 390H21V409.165L30.5 406L40 409.165V420.929L67 414V479H40V456H21H-5V390ZM275 406L254 412.609V404.625L230 390V468H254H275V406ZM141 437H116V483H140V497H159H181V484H209V436.835L195 430L181 436.835V418H159V448.962L149.5 442L141 448.229V437ZM1797 569.342L1811.5 562L1826 569.342V620H1797V642H1774V581.734L1785.5 573L1797 581.734V569.342ZM1712 585L1686 592.675V657H1712V650H1742V568H1712V585ZM1401 476.995L1429 469V491.006L1440 483L1452 491.734V509.817L1465 503L1479 510.342V515H1505V586H1478V561H1451V552H1428V544H1401V476.995ZM1220 470L1246 476.716V533H1221H1220H1195V532.824H1170V486.687L1183.21 480L1195 485.972V479.722L1208 472L1220 479.128V470ZM1345.24 519H1383V458.734L1363.5 450L1344 458.734V469H1320.27V485.885L1306.5 483L1292 486.038V476.595L1276 469L1260 476.595V529H1292V531H1320.27V532.944H1345.24V519ZM1655 571.062L1627 554V573.61L1611.5 566L1596 573.61V552H1571V545.405L1555 533L1539 545.405V631H1570V644H1596V630H1627V645H1655V639H1676V582.228L1665 574L1655 581.48V571.062ZM1936 559L1912 574.268V564.481L1896 556L1880 564.481V623H1908V654H1935V668H1959V680H1998V679H2025V680H2055V686H2088V702H2120V617.278L2104 605L2088 617.278V593H2056V584H2025V604.968L2010 595L1998 602.975V596.152L1978.5 584L1960 595.529V571H1936V559ZM2189 570.384L2163 575.375V603.453L2153 598L2140 605.089V654H2166V629H2191V615H2216V594H2242V545.089L2229 538L2216 545.089V541H2189V570.384ZM2354 537L2384 542.039V534.089L2401 527L2417 533.672V517H2437.85V522.335L2454 515L2471 522.722V576H2437.85V593.455H2417V583H2386V596H2354V537ZM2819 435.375L2787 430V420.595L2769.5 413L2752 420.595V473H2787V489H2819V435.375ZM2562 489L2536 493.737V541H2562V537H2589V515H2624V462.595L2606.5 455L2589 462.595V463H2562V489ZM2285.5 519L2294 525.003V506H2314.85V582.455H2294V572H2276V525.709L2285.5 519Z" fill="#507496"/>
<path fill-rule="evenodd" clip-rule="evenodd" d="M446.765 1.54984C446.765 0.693887 446.071 0 445.215 0C444.359 0 443.666 0.693886 443.666 1.54984V93.7652H442.191C441.721 93.7652 441.341 94.1459 441.341 94.6154V108.413C441.341 108.439 441.342 108.464 441.344 108.489H416.543V100.815C416.543 100.345 416.163 99.9646 415.693 99.9646H414.219V12.3987C414.219 11.5427 413.525 10.8489 412.669 10.8489C411.813 10.8489 411.119 11.5428 411.119 12.3987V99.9646H409.644C409.175 99.9646 408.794 100.345 408.794 100.815V108.489H385.543C385.545 108.464 385.547 108.439 385.547 108.413V78.3421C385.547 77.8726 385.166 77.4919 384.696 77.4919H383.222V1.54984C383.222 0.693887 382.528 0 381.672 0C380.816 0 380.122 0.693886 380.122 1.54984V77.4919H378.648C378.178 77.4919 377.797 77.8726 377.797 78.3421V108.413C377.797 108.439 377.799 108.464 377.801 108.489H372.373V100.815C372.373 100.345 371.992 99.9646 371.523 99.9646H370.823V84.4662C370.823 84.0382 370.476 83.6913 370.048 83.6913C369.62 83.6913 369.273 84.0382 369.273 84.4662V99.9646H368.574C368.104 99.9646 367.723 100.345 367.723 100.815V108.489H354.7C353.761 108.489 353 109.25 353 110.189V115.312C353 116.251 353.761 117.013 354.7 117.013H378.463L387.334 156.795L396.793 199.211L368.504 385.584C368.247 387.277 369.41 388.857 371.103 389.114C372.795 389.371 374.376 388.207 374.633 386.515L383.371 328.947C383.586 328.994 383.809 329.019 384.038 329.019H409.488L409.488 413.485C409.488 415.197 410.876 416.585 412.588 416.585C414.3 416.585 415.688 415.197 415.688 413.485L415.687 329.019H440.948C441.081 329.019 441.212 329.01 441.34 328.994L449.313 386.475C449.548 388.171 451.113 389.355 452.809 389.12C454.504 388.884 455.688 387.319 455.453 385.624L429.599 199.21L438.462 156.754L446.757 117.013H470.637C471.576 117.013 472.338 116.251 472.338 115.312V110.189C472.338 109.25 471.576 108.489 470.637 108.489H459.164V105.464C459.164 104.995 458.783 104.614 458.314 104.614H457.614V90.6655C457.614 90.2376 457.267 89.8906 456.839 89.8906C456.411 89.8906 456.064 90.2376 456.064 90.6655V104.614H455.365C454.895 104.614 454.514 104.995 454.514 105.464V108.489H449.087C449.089 108.464 449.09 108.439 449.09 108.413V94.6154C449.09 94.1459 448.709 93.7652 448.24 93.7652H446.765V1.54984ZM384.815 117.013L392.844 153.021H409.488L409.488 117.013H384.815ZM415.687 117.013L415.687 153.021H432.908L440.424 117.013H415.687ZM415.687 159.22H431.614L423.935 196.003H415.687L415.687 159.22ZM415.687 202.203H423.755L432.101 262.376H415.687L415.687 202.203ZM415.687 268.575H432.961L440.484 322.819H415.687L415.687 268.575ZM409.488 268.575L409.488 322.819H384.301L392.535 268.575H409.488ZM409.488 262.376H393.476L402.609 202.203H409.488L409.488 262.376ZM409.488 196.003H402.429L394.227 159.22H409.488L409.488 196.003Z" fill="#507496"/>
</g>
<defs>
<clipPath id="clip0_791_2584">
<rect width="2880" height="889" fill="white"/>
</clipPath>
</defs>
</svg>
