<svg width="2880" height="518" viewBox="0 0 2880 518" fill="none" xmlns="http://www.w3.org/2000/svg">
<path fill-rule="evenodd" clip-rule="evenodd" d="M2259.26 0C2269.1 0 2277.08 7.9788 2277.08 17.8212H2299.18C2309.02 17.8212 2317 25.8 2317 35.6423C2317 45.4847 2309.02 53.4635 2299.18 53.4635H2227.18C2217.34 53.4635 2209.36 45.4847 2209.36 35.6423H2170.15C2170.15 44.5689 2163.59 51.9625 2155.03 53.2612C2156.49 55.8473 2157.32 58.835 2157.32 62.0176H2277.79C2287.64 62.0176 2295.61 69.9964 2295.61 79.8388C2295.61 89.6811 2287.64 97.66 2277.79 97.66H2130.23C2120.39 97.66 2112.41 89.6811 2112.41 79.8388H2051.82C2041.98 79.8388 2034 71.86 2034 62.0176C2034 52.1753 2041.98 44.1965 2051.82 44.1965H2076.82C2075.42 41.6573 2074.63 38.7423 2074.63 35.6423C2074.63 25.8 2082.61 17.8212 2092.45 17.8212H2122.39C2122.39 7.9788 2130.37 0 2140.21 0H2259.26Z" fill="white"/>
</svg>
