<svg width="24" height="25" viewBox="0 0 24 25" fill="none" xmlns="http://www.w3.org/2000/svg">
<g clip-path="url(#clip0_1771_8797)">
<path fill-rule="evenodd" clip-rule="evenodd" d="M24 12.0012C24 18.6286 18.6274 24.0012 12 24.0012C5.37258 24.0012 0 18.6286 0 12.0012C0 5.3738 5.37258 0.0012207 12 0.0012207C18.6274 0.0012207 24 5.3738 24 12.0012ZM9.6 12.0012C9.6 13.3267 10.6745 14.4012 12 14.4012C13.3255 14.4012 14.4 13.3267 14.4 12.0012C14.4 10.6757 13.3255 9.60122 12 9.60122C10.6745 9.60122 9.6 10.6757 9.6 12.0012ZM5.28249 18.7187C5.08722 18.914 4.76962 18.9148 4.58436 18.71C4.10499 18.1802 3.68378 17.6004 3.32797 16.9808C3.19047 16.7413 3.28939 16.4395 3.53544 16.3141L7.54497 14.2712C7.79101 14.1458 8.08985 14.2455 8.24172 14.4762C8.31758 14.5914 8.3987 14.703 8.48481 14.8108C8.65722 15.0265 8.65973 15.3415 8.46447 15.5368L5.28249 18.7187ZM19.4156 5.2924C19.2304 5.08762 18.9128 5.08845 18.7175 5.28371L15.5355 8.46569C15.3403 8.66095 15.3428 8.97598 15.5152 9.19169C15.6013 9.29943 15.6824 9.41108 15.7583 9.52627C15.9101 9.7569 16.209 9.85663 16.455 9.73127L20.4646 7.68831C20.7106 7.56294 20.8095 7.26114 20.672 7.02167C20.3162 6.40202 19.895 5.82228 19.4156 5.2924Z" fill="#333333"/>
</g>
<defs>
<clipPath id="clip0_1771_8797">
<rect width="24" height="24" fill="white" transform="translate(0 0.0012207)"/>
</clipPath>
</defs>
</svg>
