<svg width="24" height="25" viewBox="0 0 24 25" fill="none" xmlns="http://www.w3.org/2000/svg">
<path d="M10.3431 12.0059L18.5733 3.77537C18.7999 3.54929 18.9246 3.24701 18.9246 2.9247C18.9246 2.60221 18.7999 2.30011 18.5733 2.07368L17.8521 1.35286C17.6258 1.12607 17.3234 1.00122 17.0011 1.00122C16.6788 1.00122 16.3767 1.12607 16.1502 1.35286L6.35093 11.152C6.1236 11.3791 5.99911 11.6827 6 12.0053C5.99911 12.3294 6.12342 12.6326 6.35093 12.8599L16.1411 22.6496C16.3676 22.8764 16.6696 23.0012 16.9921 23.0012C17.3144 23.0012 17.6165 22.8764 17.8432 22.6496L18.5642 21.9288C19.0333 21.4596 19.0333 20.6959 18.5642 20.2269L10.3431 12.0059Z" fill="#333333"/>
</svg>
