<svg width="24" height="25" viewBox="0 0 24 25" fill="none" xmlns="http://www.w3.org/2000/svg">
<path fill-rule="evenodd" clip-rule="evenodd" d="M22 12.0012C22 17.5241 17.5228 22.0012 12 22.0012C6.47715 22.0012 2 17.5241 2 12.0012C2 6.47837 6.47715 2.00122 12 2.00122C17.5228 2.00122 22 6.47837 22 12.0012ZM12 5.44567C12.5523 5.44567 13 5.89338 13 6.44567V11.0012H17.5556C18.1078 11.0012 18.5556 11.4489 18.5556 12.0012C18.5556 12.5535 18.1078 13.0012 17.5556 13.0012H13V17.5568C13 18.1091 12.5523 18.5568 12 18.5568C11.4477 18.5568 11 18.1091 11 17.5568V13.0012H6.44444C5.89216 13.0012 5.44444 12.5535 5.44444 12.0012C5.44444 11.4489 5.89216 11.0012 6.44444 11.0012H11V6.44567C11 5.89338 11.4477 5.44567 12 5.44567Z" fill="#333333"/>
</svg>
