<svg width="24" height="25" viewBox="0 0 24 25" fill="none" xmlns="http://www.w3.org/2000/svg">
<g clip-path="url(#clip0_1771_8852)">
<path fill-rule="evenodd" clip-rule="evenodd" d="M12.7708 23.0012L11.2302 23.0012C10.5152 23.0012 9.89953 22.4965 9.7593 21.7953L9.52922 20.6449C9.39142 19.9559 8.89272 19.4067 8.2708 19.0798C8.08804 18.9837 7.90868 18.8804 7.73321 18.77C7.13874 18.3959 6.41399 18.2388 5.74867 18.4638L4.63907 18.8392C3.96175 19.0683 3.21687 18.7875 2.85936 18.1683L2.08906 16.8341C1.73155 16.2149 1.86082 15.4294 2.39791 14.9574L3.27778 14.1841C3.80536 13.7205 4.03165 13.0142 4.00493 12.3124C3.99705 12.1052 3.99726 11.8982 4.00543 11.6919C4.03326 10.9899 3.80696 10.2834 3.27918 9.81953L2.39791 9.04505C1.86082 8.57304 1.73156 7.78755 2.08907 7.16832L2.85937 5.83413C3.21688 5.21491 3.96176 4.93411 4.63908 5.16323L5.751 5.53938C6.41553 5.76419 7.13957 5.608 7.73321 5.23421C7.82089 5.17901 7.90999 5.12525 8.00049 5.073C8.09098 5.02075 8.18207 4.97048 8.2737 4.92216C8.89423 4.59494 9.3915 4.046 9.52908 3.3581L9.7593 2.207C9.89953 1.50586 10.5152 1.00117 11.2302 1.00117L12.7708 1.00117C13.4858 1.00117 14.1014 1.50586 14.2416 2.207L14.4717 3.35747C14.6095 4.04645 15.1082 4.59569 15.7302 4.92262C15.9129 5.0187 16.0923 5.12202 16.2678 5.23244C16.8622 5.6065 17.587 5.76364 18.2523 5.53857L19.3619 5.16321C20.0392 4.93408 20.7841 5.21488 21.1416 5.83411L21.9119 7.16829C22.2694 7.78752 22.1402 8.57301 21.6031 9.04502L20.7232 9.81827C20.1956 10.2819 19.9693 10.9882 19.9961 11.69C20.0039 11.8972 20.0037 12.1042 19.9955 12.3105C19.9677 13.0126 20.194 13.7191 20.7218 14.1829L21.6031 14.9574C22.1402 15.4294 22.2694 16.2149 21.9119 16.8341L21.1416 18.1683C20.7841 18.7875 20.0392 19.0683 19.3619 18.8392L18.2499 18.463C17.5854 18.2382 16.8614 18.3944 16.2677 18.7682C16.1801 18.8234 16.091 18.8772 16.0005 18.9294C15.91 18.9817 15.8189 19.0319 15.7272 19.0803C15.1067 19.4075 14.6094 19.9564 14.4718 20.6443L14.2416 21.7953C14.1014 22.4965 13.4858 23.0012 12.7708 23.0012ZM14.0005 15.4653C15.9137 14.3607 16.5692 11.9144 15.4646 10.0012C14.36 8.08802 11.9137 7.43252 10.0005 8.53709C8.08732 9.64166 7.43182 12.088 8.53638 14.0012C9.64095 15.9144 12.0873 16.5699 14.0005 15.4653Z" fill="#333333"/>
</g>
<defs>
<clipPath id="clip0_1771_8852">
<rect width="24" height="24" fill="white" transform="translate(0 0.0012207)"/>
</clipPath>
</defs>
</svg>
