<svg width="24" height="25" viewBox="0 0 24 25" fill="none" xmlns="http://www.w3.org/2000/svg">
<path d="M11 18.5012C11 18.5012 15.5 11.0012 16.5 11.0012C17.5 11.0012 19 14.0012 19 14.0012V18.5012L11 18.5012Z" fill="#333333"/>
<path fill-rule="evenodd" clip-rule="evenodd" d="M3.84742 2.00122C2.83331 2.03179 2 2.87093 2 3.90234V19.9494C2 21.0002 2.8517 21.8632 3.90251 21.8632H20.8523C21.9015 21.8632 22.7548 20.9984 22.7548 19.9494V3.90234C22.7548 2.87093 21.9215 2.03179 20.9074 2.00122H3.84742ZM19.4691 19.8349C19.9234 19.8349 20.2916 19.4665 20.2916 19.0124L20.2915 5.24004C20.2915 4.78575 19.9233 4.41733 19.469 4.41733H5.24946C4.79513 4.41733 4.42698 4.78575 4.42698 5.24004V19.0124C4.42698 19.4665 4.79517 19.8349 5.24946 19.8349H19.4691Z" fill="#333333"/>
<circle cx="8" cy="8.00122" r="2" fill="#333333"/>
<path d="M5.5 18.5012C5.5 18.5012 10 14.0012 11 14.0012C12 14.0012 16.5 16.0012 16.5 16.0012V18.5012H5.5Z" fill="#333333"/>
</svg>
