<svg width="24" height="25" viewBox="0 0 24 25" fill="none" xmlns="http://www.w3.org/2000/svg">
<g clip-path="url(#clip0_1771_8617)">
<path d="M20.8152 12.011L9.53464 10.0219C8.84241 9.89985 8.17435 10.4072 8.04248 11.155L6.60989 19.2797C6.47802 20.0275 6.93228 20.7327 7.62451 20.8548L18.905 22.8439C19.5973 22.9659 20.2653 22.4586 20.3972 21.7108L21.8298 13.5861C21.9617 12.8382 21.5074 12.133 20.8152 12.011Z" fill="#333333" stroke="#333333" stroke-width="2" stroke-linecap="round" stroke-linejoin="round"/>
<path d="M11.4077 9.33702L12.1023 5.39779C12.4859 3.22221 14.5605 1.76954 16.7361 2.15315V2.15315C18.9117 2.53676 20.3644 4.6114 19.9807 6.78697L19.2862 10.7262" stroke="#333333" stroke-width="2"/>
<circle cx="14.3925" cy="15.4481" r="1" transform="rotate(10 14.3925 15.4481)" fill="white" stroke="white"/>
<path d="M13.9574 17.9101L14.3047 15.9405" stroke="white" stroke-width="2" stroke-linecap="round"/>
<path d="M8.29734 9.71674L6.36427 11.0703L7.94341 13.3255L9.87647 11.972L8.29734 9.71674ZM9.87647 11.972L8.29734 9.71674L9.87647 11.972Z" fill="white"/>
<path d="M10.7788 13.2607L9.87647 11.972M9.87647 11.972L7.94341 13.3255L6.36427 11.0703L8.29734 9.71674M9.87647 11.972L8.29734 9.71674M6.44298 7.06845L8.29734 9.71674" stroke="white" stroke-width="1.11244" stroke-linecap="round" stroke-linejoin="round"/>
<path d="M6.44197 7.06843C6.11303 7.30206 5.74112 7.46831 5.34767 7.55761C4.95421 7.64692 4.54697 7.65751 4.14941 7.58878C3.75184 7.52005 3.37179 7.37336 3.03115 7.15714C2.69051 6.94093 2.396 6.65948 2.16459 6.32898C1.93317 5.99848 1.76941 5.62547 1.68275 5.23142C1.59608 4.83737 1.58822 4.43008 1.65961 4.03298C1.731 3.63588 1.88024 3.25682 2.09872 2.91764C2.31721 2.57845 2.60064 2.28584 2.93268 2.05664C3.59765 1.60804 4.41222 1.43856 5.20093 1.58471C5.98965 1.73086 6.68941 2.18094 7.1495 2.83802C7.60959 3.4951 7.7932 4.30659 7.66078 5.09773C7.52836 5.88887 7.0905 6.59634 6.44152 7.06778L6.44197 7.06843Z" fill="#333333" stroke="#333333" stroke-width="1.11244" stroke-linecap="round" stroke-linejoin="round"/>
</g>
<defs>
<clipPath id="clip0_1771_8617">
<rect width="24" height="24" fill="white" transform="translate(0 0.0012207)"/>
</clipPath>
</defs>
</svg>
