<svg width="24" height="25" viewBox="0 0 24 25" fill="none" xmlns="http://www.w3.org/2000/svg">
<path d="M12.25 14.5012C10.8693 14.5012 9.75 13.3819 9.75 12.0012C9.75 10.6205 10.8693 9.50122 12.25 9.50122C13.6307 9.50122 14.75 10.6205 14.75 12.0012C14.75 13.3819 13.6307 14.5012 12.25 14.5012Z" fill="#333333"/>
<path d="M12.25 22.0012C10.8693 22.0012 9.75 20.8819 9.75 19.5012C9.75 18.1205 10.8693 17.0012 12.25 17.0012C13.6307 17.0012 14.75 18.1205 14.75 19.5012C14.75 20.8819 13.6307 22.0012 12.25 22.0012Z" fill="#333333"/>
<path d="M12.25 7.00122C10.8693 7.00122 9.75 5.88193 9.75 4.50122C9.75 3.12051 10.8693 2.00122 12.25 2.00122C13.6307 2.00122 14.75 3.12051 14.75 4.50122C14.75 5.88193 13.6307 7.00122 12.25 7.00122Z" fill="#333333"/>
</svg>
