<svg width="24" height="25" viewBox="0 0 24 25" fill="none" xmlns="http://www.w3.org/2000/svg">
<path d="M4.54553 2.60449L10.8008 7.15137L0.319737 14.77C0.110018 13.8825 -0.00154495 12.9576 -0.00154495 12.007C-0.00154495 8.20225 1.77699 4.80566 4.54553 2.60449Z" fill="#333333"/>
<path d="M5.76767 1.75176C7.58558 0.641556 9.72009 0.0012207 12.0013 0.0012207C14.453 0.0012207 16.7349 0.741166 18.6367 2.00875L16.2463 9.36863L5.76767 1.75176Z" fill="#333333"/>
<path d="M19.8215 2.9093C22.3784 5.11268 24 8.37378 24 12.0069C24 13.1233 23.8463 14.2043 23.5601 15.2306H15.8196L19.8215 2.9093Z" fill="#333333"/>
<path d="M23.0703 16.6376C21.3171 20.8174 17.2655 23.8022 12.5063 24.0012L10.1149 16.6376H23.0703Z" fill="#333333"/>
<path d="M11.0195 23.9723C6.30164 23.5886 2.34712 20.463 0.754067 16.1946L7.01551 11.6432L11.0195 23.9723Z" fill="#333333"/>
</svg>
