<svg width="24" height="25" viewBox="0 0 24 25" fill="none" xmlns="http://www.w3.org/2000/svg">
<g clip-path="url(#clip0_1771_8661)">
<rect x="8.5" y="3.00122" width="7" height="14" rx="3.5" fill="#333333"/>
<path d="M18 13.5012C18 14.2892 17.8448 15.0694 17.5433 15.7973C17.2417 16.5253 16.7998 17.1867 16.2426 17.7439C15.6855 18.301 15.0241 18.743 14.2961 19.0445C13.5681 19.346 12.7879 19.5012 12 19.5012C11.2121 19.5012 10.4319 19.346 9.7039 19.0445C8.97594 18.743 8.31451 18.301 7.75736 17.7439C7.20021 17.1867 6.75825 16.5253 6.45672 15.7973C6.15519 15.0694 6 14.2891 6 13.5012" stroke="#333333" stroke-width="2" stroke-linecap="round" stroke-linejoin="round"/>
<path d="M12 20.0012V22.5012" stroke="#333333" stroke-width="2"/>
<path d="M9 23.0012H15" stroke="#333333" stroke-width="2" stroke-linecap="round"/>
<path d="M19.1234 4.42828C19.6199 5.11167 19.8873 5.9347 19.8873 6.77942C19.8873 7.62414 19.6199 8.44717 19.1234 9.13056" stroke="#333333" stroke-width="1.5" stroke-linecap="round" stroke-linejoin="round"/>
<path d="M21.4689 2.9588C21.9706 3.47836 22.3651 4.09165 22.6298 4.76366C22.8946 5.43568 23.0243 6.15325 23.0117 6.87541C22.9991 7.59757 22.8444 8.31017 22.5564 8.97254C22.2684 9.6349 21.8527 10.2341 21.3332 10.7358" stroke="#333333" stroke-width="1.5" stroke-linecap="round" stroke-linejoin="round"/>
<path d="M4.87661 4.42828C4.3801 5.11167 4.11268 5.9347 4.11268 6.77942C4.11268 7.62414 4.3801 8.44717 4.87661 9.13056" stroke="#333333" stroke-width="1.5" stroke-linecap="round" stroke-linejoin="round"/>
<path d="M2.53108 2.9588C2.02935 3.47836 1.63487 4.09165 1.37015 4.76366C1.10544 5.43568 0.975683 6.15325 0.988288 6.87541C1.00089 7.59757 1.15562 8.31017 1.44362 8.97254C1.73163 9.6349 2.14727 10.2341 2.66683 10.7358" stroke="#333333" stroke-width="1.5" stroke-linecap="round" stroke-linejoin="round"/>
</g>
<defs>
<clipPath id="clip0_1771_8661">
<rect width="24" height="24" fill="white" transform="translate(0 0.0012207)"/>
</clipPath>
</defs>
</svg>
