<svg width="24" height="25" viewBox="0 0 24 25" fill="none" xmlns="http://www.w3.org/2000/svg">
<path d="M0.4257 3.81228C0.32943 2.71191 1.14341 1.74184 2.24378 1.64557L16.1905 0.425395C17.2909 0.329125 18.2609 1.14311 18.3572 2.24347L18.4271 3.04236C18.4487 3.28904 18.2543 3.50122 18.0066 3.50122H16.5472C16.4976 3.50122 16.4563 3.46335 16.452 3.41398C16.4038 2.8638 15.9188 2.4568 15.3686 2.50494L3.41428 3.55081C2.8641 3.59894 2.45711 4.08398 2.50524 4.63416L3.50154 16.0219L3.50154 19.0455C3.50154 19.3349 3.25229 19.569 2.97915 19.4735C2.25948 19.2219 1.71664 18.5678 1.64588 17.759L0.4257 3.81228Z" fill="#333333"/>
<path fill-rule="evenodd" clip-rule="evenodd" d="M7 5.00122C5.89543 5.00122 5 5.89665 5 7.00122V21.0012C5 22.1058 5.89543 23.0012 7 23.0012L21 23.0012C22.1046 23.0012 23 22.1058 23 21.0012V7.00122C23 5.89665 22.1046 5.00122 21 5.00122H7ZM7 8.00122C7 7.44894 7.44772 7.00122 8 7.00122H20C20.5523 7.00122 21 7.44894 21 8.00122V15.0012C21 15.5535 20.5523 16.0012 20 16.0012H8C7.44772 16.0012 7 15.5535 7 15.0012V8.00122ZM8 17.5012C7.44772 17.5012 7 17.9489 7 18.5012V20.0012C7 20.5535 7.44772 21.0012 8 21.0012H20C20.5523 21.0012 21 20.5535 21 20.0012V18.5012C21 17.9489 20.5523 17.5012 20 17.5012H8Z" fill="#333333"/>
<circle cx="9.75" cy="9.75122" r="1.25" fill="#333333"/>
<circle cx="8.75" cy="19.2512" r="0.75" fill="#333333"/>
<path d="M9.28718 14.5012C9.07979 14.5012 9.01062 14.229 9.19452 14.1331C10.3025 13.5554 12.406 12.5012 13 12.5012C13.8182 12.5012 17.5 13.3901 17.5 13.3901V14.5012H9.28718Z" fill="#333333"/>
<path d="M13.5 14.5012C13.5 14.5012 16.875 10.5012 17.625 10.5012C18.0963 10.5012 18.7157 11.1331 19.111 11.6027C19.3761 11.9177 19.5 12.3222 19.5 12.734V14.0012C19.5 14.2774 19.2761 14.5012 19 14.5012L13.5 14.5012Z" fill="#333333"/>
<rect x="11" y="18.5012" width="8.5" height="1.5" rx="0.75" fill="#333333"/>
</svg>
