<svg width="24" height="24" viewBox="0 0 24 24" fill="none" xmlns="http://www.w3.org/2000/svg">
<path d="M20 22.5H4C2.89543 22.5 2 21.6046 2 20.5V10.5C2 9.39543 2.89543 8.5 4 8.5H6H20C20.5523 8.5 21 8.94772 21 9.5V11.5C21 12.0523 20.5523 12.5 20 12.5H15.5C13.8431 12.5 12.5 13.8431 12.5 15.5C12.5 17.1569 13.8431 18.5 15.5 18.5H20C20.5523 18.5 21 18.9477 21 19.5V21.5C21 22.0523 20.5523 22.5 20 22.5Z" fill="#333333"/>
<path d="M16.5032 3.24838L9.75777 6.62111C9.56901 6.7155 9.63617 7 9.84721 7H18.2114C18.351 7 18.4477 6.86053 18.3987 6.72978L17.195 3.52003C17.0908 3.24208 16.7688 3.11562 16.5032 3.24838Z" fill="#333333"/>
<path d="M6.41296 1.97873L5.54287 6.76422C5.52055 6.88699 5.61486 7 5.73964 7H5.88197C5.95959 7 6.03615 6.98193 6.10557 6.94721L12.7236 3.6382C12.893 3.5535 13 3.38037 13 3.19098V2.92896C13 2.68217 12.8199 2.4723 12.576 2.43477L6.98092 1.57399C6.71323 1.5328 6.46141 1.71225 6.41296 1.97873Z" fill="#333333"/>
<path d="M21.5 14H15.5C14.6716 14 14 14.6716 14 15.5C14 16.3284 14.6716 17 15.5 17H21.5C21.7761 17 22 16.7761 22 16.5V14.5C22 14.2239 21.7761 14 21.5 14Z" fill="#333333"/>
</svg>
