<svg width="1440" height="718" viewBox="0 0 1440 718" fill="none" xmlns="http://www.w3.org/2000/svg">
<path fill-rule="evenodd" clip-rule="evenodd" d="M175.765 1.54984C175.765 0.693887 175.071 0 174.215 0C173.359 0 172.666 0.693886 172.666 1.54984V93.7652H171.191C170.721 93.7652 170.341 94.1459 170.341 94.6154V108.413C170.341 108.439 170.342 108.464 170.344 108.489H145.543V100.815C145.543 100.345 145.163 99.9646 144.693 99.9646H143.219V12.3987C143.219 11.5427 142.525 10.8489 141.669 10.8489C140.813 10.8489 140.119 11.5428 140.119 12.3987V99.9646H138.644C138.175 99.9646 137.794 100.345 137.794 100.815V108.489H114.543C114.545 108.464 114.547 108.439 114.547 108.413V78.3421C114.547 77.8726 114.166 77.4919 113.696 77.4919H112.222V1.54984C112.222 0.693887 111.528 0 110.672 0C109.816 0 109.122 0.693886 109.122 1.54984V77.4919H107.648C107.178 77.4919 106.797 77.8726 106.797 78.3421V108.413C106.797 108.439 106.799 108.464 106.801 108.489H101.373V100.815C101.373 100.345 100.992 99.9646 100.523 99.9646H99.8231V84.4662C99.8231 84.0382 99.4762 83.6913 99.0482 83.6913C98.6202 83.6913 98.2733 84.0382 98.2733 84.4662V99.9646H97.5737C97.1041 99.9646 96.7235 100.345 96.7235 100.815V108.489H83.7005C82.7613 108.489 82 109.25 82 110.189V115.312C82 116.251 82.7613 117.013 83.7005 117.013H107.463L116.334 156.795L125.793 199.211L97.5035 385.584C97.2466 387.277 98.4104 388.857 100.103 389.114C101.795 389.371 103.376 388.207 103.633 386.515L112.371 328.947C112.586 328.994 112.809 329.019 113.038 329.019H138.488L138.488 413.485C138.488 415.197 139.876 416.585 141.588 416.585C143.3 416.585 144.688 415.197 144.688 413.485L144.687 329.019H169.948C170.081 329.019 170.212 329.01 170.34 328.994L178.313 386.475C178.548 388.171 180.113 389.355 181.809 389.12C183.504 388.884 184.688 387.319 184.453 385.624L158.599 199.21L167.462 156.754L175.757 117.013H199.637C200.576 117.013 201.338 116.251 201.338 115.312V110.189C201.338 109.25 200.576 108.489 199.637 108.489H188.164V105.464C188.164 104.995 187.783 104.614 187.314 104.614H186.614V90.6655C186.614 90.2376 186.267 89.8906 185.839 89.8906C185.411 89.8906 185.064 90.2376 185.064 90.6655V104.614H184.365C183.895 104.614 183.514 104.995 183.514 105.464V108.489H178.087C178.089 108.464 178.09 108.439 178.09 108.413V94.6154C178.09 94.1459 177.709 93.7652 177.24 93.7652H175.765V1.54984ZM113.815 117.013L121.844 153.021H138.488L138.488 117.013H113.815ZM144.687 117.013L144.687 153.021H161.908L169.424 117.013H144.687ZM144.687 159.22H160.614L152.935 196.003H144.687L144.687 159.22ZM144.687 202.203H152.755L161.101 262.376H144.687L144.687 202.203ZM144.687 268.575H161.961L169.484 322.819H144.687L144.687 268.575ZM138.488 268.575L138.488 322.819H113.301L121.535 268.575H138.488ZM138.488 262.376H122.476L131.609 202.203H138.488L138.488 262.376ZM138.488 196.003H131.429L123.227 159.22H138.488L138.488 196.003Z" fill="#507496"/>
<path d="M122 372.007C82.5 398.007 0 405.007 0 405.007V816.028H1440V385.028C1440 385.028 1412.5 360.028 1331 374.528C1249.5 389.028 1260.5 428.028 1188.5 436.528C1116.5 445.028 1089.5 491.528 1025.5 485.528C961.5 479.528 965 431.028 908 448.028C851 465.028 818 471.028 760.5 436.528C703 402.028 692.5 385.028 634 405.007C575.5 424.985 523.5 330.528 480 319.528C436.5 308.529 388 360.528 358 360.028C328 359.528 273.5 315.528 224 319.528C174.5 323.528 161.5 346.007 122 372.007Z" fill="#507496"/>
<path d="M960.733 427.175L979.369 421.584V474.031H960.733V427.175Z" fill="#507496"/>
<path d="M833.117 416.052L856.209 410.092V466H833.117V416.052Z" fill="#507496"/>
<rect x="798" y="410" width="21.8306" height="55.9077" fill="#507496"/>
<path d="M818.271 426.598L826.258 423.936L834.245 426.598V466H818.271V426.598Z" fill="#507496"/>
<path d="M942 399L962 411.375V465H942V399Z" fill="#507496"/>
<rect x="867.502" y="425.892" width="20.6615" height="38.8923" fill="#507496"/>
<path d="M887 419.949L895 414L903 419.949V461H887V419.949Z" fill="#507496"/>
<path d="M919.194 413.785L930.74 407.938L942.287 413.785V454.123H919.194V413.785Z" fill="#507496"/>
<path d="M761.41 420.8L772.956 414.954L784.502 420.8V461.139H761.41V420.8Z" fill="#507496"/>
<path d="M742.964 406.077L752.687 399.154L762.41 406.077V453.846H742.964V406.077Z" fill="#507496"/>
<rect x="901.964" y="397.938" width="18.2308" height="66.8462" fill="#507496"/>
</svg>
