<svg width="2880" height="714" viewBox="0 0 2880 714" fill="none" xmlns="http://www.w3.org/2000/svg">
<g clip-path="url(#clip0_800_223)">
<path fill-rule="evenodd" clip-rule="evenodd" d="M1173.44 231.995C1151.49 224.742 1130.23 219.612 1107 219.849C1060.84 220.32 1035.1 229.223 1008.23 238.51C1003.07 240.297 997.862 242.097 992.46 243.854V222.869L979.816 220.172V225.919H971.471V222.573L964 220.172L956.528 222.573V229.368H945.885V223.65L938.414 221.322L930.942 223.65V229.148L924.471 227.069L917 229.47V258.68C906.747 259.439 895.491 259.861 883 259.861C823.297 259.861 775.227 227.098 726.107 193.618C676.499 159.805 625.819 125.262 561 123C484.568 120.333 424.108 149.909 367.974 177.37C331.122 195.398 296.134 212.514 259.714 218.996V190.571L249.143 184.857L239.571 190.031V182H223.571V222.278C220.93 222.332 218.262 222.352 215.571 222.341V198.424L201.285 196.286V200.235L188.857 196.286L175.429 200.553V220.242C174.429 220.148 173.429 220.051 172.429 219.952V186.286H153V217.712C75.3302 207.578 0 184.338 0 184.338V714H2880V219.849C2880 219.849 2865.55 226.266 2841 235.29V171H2810V160H2789V252.866C2782.89 254.757 2776.55 256.66 2770 258.555V176H2749V264.392C2746.69 265.008 2744.35 265.622 2742 266.231V202H2716V171H2685V187H2646V285.747C2607.59 291.266 2567.43 294.061 2528 291.969V220H2500V182H2479V286.607C2467.14 284.579 2455.45 281.998 2444 278.8V195H2417V166H2375V251.131C2345.25 238.474 2317.08 231.252 2290 227.995V180H2261V225.947C2247.45 225.649 2234.13 226.258 2221 227.575V171H2200V182H2180V196H2168V178H2152V240.253C2130.71 245.624 2109.58 251.979 2088.33 258.374C2088.22 258.407 2088.11 258.44 2088 258.473V206H2066V214H2050V227H2034V236.235L2018 240V278.196C2013.62 279.268 2009.22 280.301 2004.8 281.287V254.781H1987.56V263.977H1977.08V258.449L1969.52 255.931L1961.97 258.449V266.506L1950.33 269.191V290.403C1937.15 291.786 1923.73 292.543 1910 292.5C1841.83 292.288 1798.33 278.786 1756.61 265.837C1754.34 265.132 1752.08 264.429 1749.82 263.73V228.061L1737.17 225V231.896H1718.48V225.538L1709.86 218.896L1701.24 225.538V228.748L1693.62 226.69L1686 228.748V223H1674V217H1662.31V201.112L1643.68 197.839V211.857L1637.12 209.673L1629.57 212.19V242.282C1615.89 242.178 1601.14 242.819 1585 244.389V213.044L1569 210V216.266L1558 210L1546 216.835V222.026L1538.5 217L1531.37 221.779V210.483H1514.25V227.944L1507.69 223.575L1500.14 228.611V236.668H1488.05V261.575C1371.67 287.712 1299.15 274.58 1242.45 256.378V215.015L1223.82 211.742V215.76L1217.27 213.575L1210.71 215.76V197.483H1191.07V191.756L1173.44 197.043V231.995Z" fill="#6589AA"/>
<path fill-rule="evenodd" clip-rule="evenodd" d="M576.639 0C577.139 0 577.545 0.405994 577.545 0.906818V36.8772H578.755C579.088 36.8772 579.359 37.1479 579.359 37.4818V45.9454H581.173C581.84 45.9454 582.382 46.4867 582.382 47.1545V49.5727C582.382 50.2404 581.84 50.7818 581.173 50.7818H563.04L564.732 70.1272H581.173C581.84 70.1272 582.382 70.6685 582.382 71.3363V73.7545C582.382 74.4222 581.84 74.9636 581.173 74.9636H565.155L568.435 112.445H581.173C581.84 112.445 582.382 112.987 582.382 113.655V117.282H587.218V133H505V117.282H509.836V113.655C509.836 112.987 510.378 112.445 511.045 112.445H523.179L526.459 74.9636H511.045C510.378 74.9636 509.836 74.4222 509.836 73.7545V71.3363C509.836 70.6685 510.378 70.1272 511.045 70.1272H526.882L528.574 50.7818H511.045C510.378 50.7818 509.836 50.2404 509.836 49.5727V47.1545C509.836 46.4867 510.378 45.9454 511.045 45.9454H514.673V36.8772H515.882V15.4158C515.882 14.915 516.288 14.509 516.789 14.509C517.29 14.509 517.696 14.915 517.696 15.4158V36.8772H518.905V45.9454H522.532V41.1091C522.532 40.7753 522.803 40.5046 523.136 40.5046H524.346V39.2954H526.159V0.906818C526.159 0.405994 526.565 0 527.066 0C527.567 0 527.973 0.405998 527.973 0.906818V39.2954H529.786V40.5046H530.996C531.329 40.5046 531.6 40.7753 531.6 41.1091V45.9454H538.25V42.9228H547.923V45.9454H552.154V15.7182C552.154 15.3843 552.425 15.1136 552.759 15.1136C553.093 15.1136 553.364 15.3843 553.364 15.7182V45.9454H556.386V37.4818H557.596V12.3932C557.596 11.8924 558.002 11.4864 558.502 11.4864C559.003 11.4864 559.409 11.8924 559.409 12.3932V37.4818H560.618V45.9454H573.918V37.4818C573.918 37.1479 574.189 36.8772 574.523 36.8772H575.732V0.906818C575.732 0.405998 576.138 0 576.639 0ZM563.645 99.3181L564.793 112.445H554.287L548.462 108.805L563.645 99.3181ZM561.689 76.9632L563.219 94.4494L548.462 85.2283L561.689 76.9632ZM559.633 53.4615L560.925 68.2295L548.462 60.4418L559.633 53.4615ZM526.821 112.445H538.073L543.899 108.805L528.008 98.8757L526.821 112.445ZM528.352 94.9431L543.899 85.2283L529.964 76.5206L528.352 94.9431ZM530.646 68.7233L543.899 60.4418L532.02 53.0189L530.646 68.7233ZM562.764 97.0168L546.18 107.38L529.596 97.0169L546.181 86.654L562.764 97.0168ZM542.637 112.445L546.18 110.231L549.724 112.445H542.637ZM532.035 74.9636L546.181 83.8026L560.326 74.9636H532.035ZM559.358 50.7818L546.181 59.0161L533.003 50.7818H559.358ZM532.962 70.1272L546.181 61.8676L559.399 70.1272H532.962Z" fill="#6589AA"/>
</g>
<defs>
<clipPath id="clip0_800_223">
<rect width="2880" height="714" fill="white"/>
</clipPath>
</defs>
</svg>
