<svg width="2880" height="295" viewBox="0 0 2880 295" fill="none" xmlns="http://www.w3.org/2000/svg">
<path fill-rule="evenodd" clip-rule="evenodd" d="M2519.5 26L2497 40.0587V29H2450V63.4954L2421.5 52L2392 63.8987V129.315C2289.23 135.304 2213.49 153.476 2138 171.586C2123.51 175.061 2109.04 178.534 2094.38 181.918V121.89L2063.63 110.367L2032.87 121.89V138.121L2000.66 121.439L1968.44 138.121V125.129H1931.3V108.903L1905.47 85.1475L1879.63 108.903V149.894L1848.88 116.219L1819.12 148.801V139.923L1788.37 125.129L1757.61 139.923V214.076C1666.12 210.15 1576.48 197.146 1490 181.03V99H1443V84.3696L1410 62L1378 83.6918V62L1330 70.1242V60.9481L1297 38L1264 60.9481V134.074C1157.18 111.481 1058.14 93 970 93C850.339 93.0001 749.706 119.516 668.611 146.74V77.2507L621.863 69.6833L621.864 97.2154L596.644 84.446L571.425 97.2154V110.755H526.677V196.251C521.245 197.825 516.019 199.217 511 200.401C451.618 214.413 346.385 198.375 255 181.872V104.797L225.5 91L197 104.33V99.7089L172 83L147 99.7089V112.322L121.5 96L95 112.962V124.453L72.5 111L50.439 124.19V104.105L25.2195 89L0 104.105V200.401V208.331V295H2880V200.401C2880 200.401 2760.88 151.055 2584 133.452V62.278L2543 56.1495V40.6835L2519.5 26Z" fill="#405E7A"/>
</svg>
