<svg width="2880" height="771" viewBox="0 0 2880 771" fill="none" xmlns="http://www.w3.org/2000/svg">
<path fill-rule="evenodd" clip-rule="evenodd" d="M1066.37 9.42871C1073.89 9.42871 1079.99 15.5286 1079.99 23.0531C1079.99 30.5776 1073.89 36.6775 1066.37 36.6775H1052.94C1054.2 38.7418 1054.92 41.1672 1054.92 43.7621L1093.62 43.7621C1101.14 43.7621 1107.24 49.8619 1107.24 57.3865C1107.24 64.911 1101.14 71.0109 1093.62 71.0109H1026.59C1019.06 71.0109 1012.96 64.911 1012.96 57.3865L952.197 57.3865C950.934 63.6053 945.436 68.2861 938.845 68.2861H871.813C864.288 68.2861 858.188 62.1862 858.188 54.6617C858.188 47.1371 864.288 41.0373 871.813 41.0373H926.038C927.3 34.8184 932.799 30.1377 939.39 30.1377H987.697C986.438 28.0734 985.713 25.648 985.713 23.0531C985.713 15.5286 991.812 9.42871 999.337 9.42871H1066.37Z" fill="white"/>
<path fill-rule="evenodd" clip-rule="evenodd" d="M1562.3 115.699C1569.82 115.699 1575.92 121.799 1575.92 129.323L1592.81 129.323C1600.34 129.323 1606.44 135.423 1606.44 142.948C1606.44 150.472 1600.34 156.572 1592.81 156.572H1537.77C1530.25 156.572 1524.15 150.472 1524.15 142.948H1494.17C1494.17 149.772 1489.16 155.424 1482.61 156.417C1483.73 158.394 1484.36 160.678 1484.36 163.112L1576.47 163.112C1583.99 163.112 1590.09 169.211 1590.09 176.736C1590.09 184.261 1583.99 190.36 1576.47 190.36H1463.66C1456.13 190.36 1450.03 184.261 1450.03 176.736L1403.71 176.736C1396.18 176.736 1390.08 170.636 1390.08 163.112C1390.08 155.587 1396.18 149.487 1403.71 149.487H1422.82C1421.75 147.546 1421.15 145.317 1421.15 142.948C1421.15 135.423 1427.25 129.323 1434.77 129.323L1457.66 129.323C1457.66 121.799 1463.76 115.699 1471.29 115.699H1562.3Z" fill="white"/>
<path fill-rule="evenodd" clip-rule="evenodd" d="M1725.24 23.053C1732.77 23.053 1738.87 29.1528 1738.87 36.6774L1764.48 36.6774C1772.01 36.6774 1778.11 42.7772 1778.11 50.3018L1785.74 50.3018C1793.26 50.3018 1799.36 56.4016 1799.36 63.9262C1799.36 71.4507 1793.26 77.5506 1785.74 77.5506H1724.7C1724.12 77.5506 1723.54 77.5141 1722.98 77.4433C1720.54 81.1208 1716.36 83.5453 1711.62 83.5453H1650.04C1642.51 83.5453 1636.41 77.4455 1636.41 69.9209L1620.06 69.9209C1612.54 69.9209 1606.44 63.821 1606.44 56.2965C1606.44 48.772 1612.54 42.6721 1620.06 42.6721H1651.42C1650.54 40.8631 1650.04 38.8285 1650.04 36.6774C1650.04 29.1528 1656.14 23.053 1663.66 23.053H1725.24Z" fill="white"/>
<path fill-rule="evenodd" clip-rule="evenodd" d="M685.431 45.9421C692.956 45.9421 699.056 39.8423 699.056 32.3177C699.056 24.7932 692.956 18.6934 685.431 18.6934H579.706H579.706C572.181 18.6934 566.081 24.7932 566.081 32.3177L497.96 32.3178H497.96C490.435 32.3179 484.335 38.4177 484.335 45.9422C484.335 49.259 485.521 52.299 487.491 54.6617L432.018 54.6617C432.018 47.3197 426.21 41.3341 418.938 41.048V41.0373H418.393H356.811H356.811C349.286 41.0373 343.187 47.1371 343.187 54.6617C343.187 62.1862 349.286 68.2861 356.811 68.2861H356.811L382.97 68.2861C382.97 75.8106 389.07 81.9105 396.594 81.9105H396.594H469.072C468.72 83.121 468.531 84.4011 468.531 85.7253C468.531 93.2498 474.631 99.3496 482.155 99.3497H482.155L521.393 99.3498C521.393 101.079 521.716 102.733 522.303 104.254H472.891C472.891 104.254 472.891 104.254 472.891 104.254C465.366 104.254 459.266 110.354 459.266 117.879C459.266 125.403 465.366 131.503 472.891 131.503C472.891 131.503 472.891 131.503 472.891 131.503H556.272C556.272 131.503 556.272 131.503 556.272 131.503C563.796 131.503 569.896 125.403 569.896 117.879C569.896 116.15 569.574 114.496 568.987 112.974H662.542H662.542C670.067 112.974 676.166 106.874 676.166 99.3498C676.166 91.8253 670.067 85.7256 662.542 85.7254H662.542L601.505 85.7253C601.505 78.2008 595.405 72.101 587.88 72.101H544.286C544.639 70.8904 544.827 69.6103 544.827 68.2861C544.827 64.9693 543.642 61.9293 541.672 59.5665H632.569C640.093 59.5665 646.193 53.4667 646.193 45.9422L685.431 45.9421Z" fill="white"/>
<path fill-rule="evenodd" clip-rule="evenodd" d="M824.696 132.593H763.363C763.363 132.593 763.363 132.593 763.363 132.593C755.838 132.593 749.738 126.493 749.738 118.969C749.738 111.444 755.838 105.344 763.363 105.344C763.363 105.344 763.363 105.344 763.363 105.344H865.273H865.818V105.355C873.09 105.641 878.897 111.627 878.897 118.969C878.897 121.12 878.399 123.154 877.511 124.963L898.517 124.963C898.517 117.439 904.616 111.339 912.141 111.339H1004.24C1011.77 111.339 1017.87 117.439 1017.87 124.963C1017.87 132.488 1011.77 138.588 1004.24 138.588L957.374 138.588C957.374 140.525 956.969 142.369 956.24 144.038H983.533C991.057 144.038 997.157 150.137 997.157 157.662C997.157 165.187 991.057 171.286 983.533 171.286H925.765H925.765C918.241 171.286 912.141 165.187 912.141 157.662C912.141 155.724 912.545 153.881 913.274 152.212H891.388C892.117 153.881 892.522 155.724 892.522 157.662C892.522 165.187 886.422 171.286 878.898 171.286H878.897L852.739 171.286C852.739 178.811 846.639 184.911 839.114 184.911H839.114H733.389H733.389C725.864 184.911 719.765 178.811 719.765 171.286C719.765 163.762 725.864 157.662 733.389 157.662H733.389L785.706 157.662C785.706 150.137 791.806 144.038 799.331 144.038H799.331H824.444C823.714 142.369 823.31 140.525 823.31 138.588C823.31 136.437 823.808 134.402 824.696 132.593Z" fill="white"/>
<path fill-rule="evenodd" clip-rule="evenodd" d="M973.177 324.424L941.024 324.424C941.024 331.949 934.924 338.049 927.4 338.049C927.399 338.049 927.399 338.049 927.399 338.049H884.179C884.641 339.418 884.891 340.884 884.891 342.409C884.891 343.933 884.641 345.399 884.179 346.768H891.431H891.431C898.956 346.768 905.055 352.868 905.055 360.393C905.055 367.917 898.956 374.017 891.431 374.017H891.431H836.934H836.933C829.409 374.017 823.309 367.917 823.309 360.393C823.309 358.868 823.559 357.402 824.021 356.033H791.701H791.7C784.176 356.033 778.076 349.933 778.076 342.409C778.076 334.884 784.176 328.784 791.7 328.784H791.701H834.921C834.459 327.415 834.209 325.949 834.209 324.424C834.209 316.9 840.308 310.8 847.833 310.8C847.833 310.8 847.833 310.8 847.833 310.8L905.055 310.8C905.055 303.275 911.155 297.176 918.68 297.176H918.68H973.177H973.177C980.702 297.176 986.802 303.275 986.802 310.8C986.802 318.324 980.702 324.424 973.177 324.424H973.177Z" fill="white"/>
<path fill-rule="evenodd" clip-rule="evenodd" d="M2887.82 31.6694H2839.1H2839.1C2832.37 31.6694 2826.92 37.1227 2826.92 43.8497H2775.76C2769.03 43.8497 2763.58 49.3031 2763.58 56.0301C2763.58 57.3932 2763.8 58.704 2764.22 59.9277H2725.58H2725.58C2718.85 59.9277 2713.4 65.381 2713.4 72.1081C2713.4 78.8351 2718.85 84.2884 2725.58 84.2884H2754.47C2754.06 85.5122 2753.84 86.8231 2753.84 88.1862C2753.84 94.9132 2759.29 100.367 2766.02 100.367H2814.74H2814.74C2821.46 100.366 2826.92 94.9132 2826.92 88.1862C2826.92 81.4593 2821.46 76.006 2814.74 76.0058H2814.74H2808.25C2808.67 74.7821 2808.89 73.4712 2808.89 72.1081C2808.89 70.745 2808.67 69.4342 2808.25 68.2105H2846.89C2846.89 68.2105 2846.89 68.2105 2846.89 68.2105C2853.62 68.2105 2859.07 62.7571 2859.07 56.0301L2887.82 56.0302H2887.82C2894.55 56.03 2900 50.5767 2900 43.8498C2900 37.1229 2894.55 31.6696 2887.82 31.6694H2887.82Z" fill="white"/>
<path fill-rule="evenodd" clip-rule="evenodd" d="M2104.83 37.7672C2104.83 30.2427 2098.73 24.1428 2091.21 24.1428H2015.45C2010.08 24.1428 2005.43 27.2536 2003.22 31.7725H1922.81C1915.28 31.7725 1909.18 37.8724 1909.18 45.3969C1909.18 52.9214 1915.28 59.0213 1922.81 59.0213H1954.69C1955.95 65.2402 1961.45 69.9209 1968.04 69.9209H2079.76C2079.76 72.5158 2080.49 74.9412 2081.75 77.0055H2049.79C2042.26 77.0055 2036.16 83.1054 2036.16 90.6299C2036.16 92.1546 2036.41 93.6208 2036.88 94.9897H1954.96C1947.44 94.9897 1941.34 101.09 1941.34 108.614C1941.34 116.139 1947.44 122.238 1954.96 122.238H2014.36C2014.01 123.449 2013.82 124.729 2013.82 126.053C2013.82 128.204 2014.32 130.239 2015.21 132.048H2005.64C1998.12 132.048 1992.02 138.148 1992.02 145.672C1992.02 153.197 1998.12 159.297 2005.64 159.297H2057.96C2065.49 159.297 2071.59 153.197 2071.59 145.672C2071.59 143.521 2071.09 141.487 2070.2 139.678H2097.74C2099.39 145.345 2104.62 149.487 2110.82 149.487H2178.4C2185.93 149.487 2192.03 143.387 2192.03 135.863C2192.03 128.338 2185.93 122.238 2178.4 122.238H2127.18C2125.53 116.571 2120.29 112.429 2114.09 112.429H2088.48C2088.84 111.218 2089.03 109.938 2089.03 108.614C2089.03 107.089 2088.78 105.623 2088.31 104.254H2142.98C2150.5 104.254 2156.6 98.1544 2156.6 90.6299C2156.6 88.0349 2155.88 85.6094 2154.62 83.5451H2169.14C2176.66 83.5451 2182.76 77.4453 2182.76 69.9207C2182.76 62.3962 2176.66 56.2963 2169.14 56.2963H2141.34C2141.34 48.7719 2135.24 42.6721 2127.72 42.6721H2103.92C2104.51 41.1502 2104.83 39.4963 2104.83 37.7672Z" fill="white"/>
<path fill-rule="evenodd" clip-rule="evenodd" d="M2593.23 97.8262C2600.76 97.8262 2606.86 103.926 2606.86 111.451C2606.86 118.975 2600.76 125.075 2593.23 125.075L2576.34 125.075C2576.34 127.226 2575.84 129.261 2574.95 131.07H2654.82C2662.34 131.07 2668.44 137.17 2668.44 144.694L2688.06 144.694C2695.58 144.694 2701.68 150.794 2701.68 158.319C2701.68 165.843 2695.58 171.943 2688.06 171.943H2660.1C2660.56 173.312 2660.81 174.778 2660.81 176.303C2660.81 183.827 2654.71 189.927 2647.19 189.927H2582.88C2575.35 189.927 2569.25 183.827 2569.25 176.303C2569.25 168.778 2575.35 162.678 2582.88 162.678H2620.65C2620.19 161.309 2619.94 159.843 2619.94 158.319H2551.82C2551.82 165.843 2545.72 171.943 2538.19 171.943H2477.95C2478.84 173.752 2479.33 175.786 2479.33 177.937H2527.29C2534.82 177.937 2540.92 184.037 2540.92 191.562C2540.92 192.495 2540.82 193.406 2540.64 194.287H2556.72C2564.24 194.287 2570.34 200.387 2570.34 207.911C2570.34 215.436 2564.24 221.536 2556.72 221.536H2496.77C2489.25 221.536 2483.15 215.436 2483.15 207.911C2483.15 206.978 2483.24 206.067 2483.42 205.186H2470.86C2471.75 206.995 2472.25 209.03 2472.25 211.181C2472.25 218.706 2466.15 224.805 2458.62 224.805H2389.96C2382.43 224.805 2376.33 218.706 2376.33 211.181C2376.33 203.656 2382.43 197.557 2389.96 197.557H2418.59C2417.71 195.748 2417.21 193.713 2417.21 191.562H2325.65C2318.13 191.562 2312.03 185.462 2312.03 177.938C2312.03 170.413 2318.13 164.313 2325.65 164.313H2429.49C2428.6 162.504 2428.11 160.47 2428.11 158.319C2428.11 150.794 2434.21 144.694 2441.73 144.694L2497.86 144.694C2497.86 142.543 2498.36 140.508 2499.25 138.699H2466.25C2459.86 138.699 2454.49 134.29 2453.03 128.345L2432.47 128.345C2432.47 135.869 2426.37 141.969 2418.84 141.969H2341.46C2333.93 141.969 2327.83 135.869 2327.83 128.345C2327.83 120.82 2333.93 114.721 2341.46 114.721L2398.68 114.72C2398.68 107.196 2404.78 101.096 2412.3 101.096H2480.97C2487.37 101.096 2492.73 105.505 2494.2 111.451L2525.66 111.451C2525.66 103.926 2531.76 97.8262 2539.28 97.8262H2593.23Z" fill="white"/>
<path fill-rule="evenodd" clip-rule="evenodd" d="M50.5352 42.1271C50.5352 34.6025 44.4354 28.5027 36.9108 28.5027H-64.9996C-72.5241 28.5027 -78.624 34.6025 -78.624 42.1271C-78.624 49.6516 -72.5241 55.7515 -64.9996 55.7515L-41.5659 55.7515C-41.5659 58.1214 -40.9608 60.35 -39.8967 62.2911H-93.8834C-101.408 62.2911 -107.508 68.391 -107.508 75.9155C-107.508 83.4401 -101.408 89.5399 -93.8834 89.5399H22.1964C29.7209 89.5399 35.8207 83.4401 35.8207 75.9155C35.8207 73.5456 35.2157 71.3171 34.1515 69.3759H87.0483C94.5728 69.3759 100.673 63.276 100.673 55.7515C100.673 48.2269 94.5728 42.1271 87.0483 42.1271L50.5352 42.1271Z" fill="white"/>
<path fill-rule="evenodd" clip-rule="evenodd" d="M327.382 89.54C334.906 89.54 341.006 95.6399 341.006 103.164C341.006 110.689 334.906 116.789 327.382 116.789H236.881C237.946 118.73 238.551 120.959 238.551 123.328L283.239 123.329C290.763 123.329 296.863 129.428 296.863 136.953C296.863 144.477 290.763 150.577 283.239 150.577H260.53C261.118 152.099 261.44 153.753 261.44 155.482C261.44 163.007 255.34 169.107 247.815 169.107H164.979C157.455 169.107 151.355 163.007 151.355 155.482C151.355 147.958 157.455 141.858 164.979 141.858H210.577C209.989 140.336 209.667 138.682 209.667 136.953L114.296 136.953C106.772 136.953 100.672 130.853 100.672 123.328C100.672 115.804 106.772 109.704 114.296 109.704H165.558C164.494 107.763 163.889 105.534 163.889 103.164C163.889 95.6399 169.989 89.54 177.514 89.54H327.382Z" fill="white"/>
<path fill-rule="evenodd" clip-rule="evenodd" d="M1463.66 35.0425C1471.18 35.0425 1477.28 41.1423 1477.28 48.6669C1477.28 56.1914 1471.18 62.2913 1463.66 62.2913H1444.22C1444.81 63.8131 1445.13 65.4669 1445.13 67.196C1445.13 74.7205 1439.03 80.8203 1431.5 80.8203H1309.58C1309.84 81.8679 1309.97 82.9631 1309.97 84.0903L1320.33 84.0903C1327.85 84.0903 1333.95 90.1902 1333.95 97.7147C1333.95 105.239 1327.85 111.339 1320.33 111.339H1299.87C1300.76 113.148 1301.25 115.183 1301.25 117.334C1301.25 124.858 1295.15 130.958 1287.63 130.958L1218.42 130.958C1218.42 138.483 1212.32 144.583 1204.79 144.583H1135.58C1128.06 144.583 1121.96 138.483 1121.96 130.958C1121.96 123.434 1128.06 117.334 1135.58 117.334L1152.48 117.334C1152.48 109.809 1158.58 103.709 1166.1 103.709H1244.87C1243.98 101.9 1243.49 99.8658 1243.49 97.7147L1229.32 97.7147C1221.79 97.7147 1215.69 91.6148 1215.69 84.0903L1186.26 84.0903C1178.74 84.0903 1172.64 77.9904 1172.64 70.4659C1172.64 62.9413 1178.74 56.8415 1186.26 56.8415H1220.05C1227.58 56.8415 1233.68 62.9413 1233.68 70.4659L1269.5 70.4659C1269.24 69.4184 1269.1 68.3231 1269.1 67.196C1269.1 59.6714 1275.2 53.5716 1282.72 53.5716H1382.82C1382.23 52.0497 1381.91 50.3959 1381.91 48.6669C1381.91 41.1423 1388.01 35.0425 1395.53 35.0425H1463.66Z" fill="white"/>
<path fill-rule="evenodd" clip-rule="evenodd" d="M1073.79 367.018C1080.56 367.018 1086.05 372.505 1086.05 379.273L1109.09 379.273C1115.85 379.273 1121.34 384.76 1121.34 391.528L1128.2 391.528C1134.97 391.528 1140.46 397.015 1140.46 403.783C1140.46 410.551 1134.97 416.038 1128.2 416.038H1073.3C1072.78 416.038 1072.26 416.005 1071.76 415.942C1069.56 419.249 1065.8 421.43 1061.54 421.43H1006.14C999.375 421.43 993.889 415.944 993.889 409.175V409.175H979.183C972.415 409.175 966.928 403.688 966.928 396.92C966.928 390.152 972.415 384.665 979.183 384.665H1007.39C1006.59 383.038 1006.14 381.208 1006.14 379.273C1006.14 372.505 1011.63 367.018 1018.4 367.018H1073.79Z" fill="white"/>
</svg>
