<svg width="24" height="24" viewBox="0 0 24 24" fill="none" xmlns="http://www.w3.org/2000/svg">
<path fill-rule="evenodd" clip-rule="evenodd" d="M15.5372 7.82619L14.9342 8.87071L14.8027 9.09845H17.7408L15.5492 7.83309L15.5372 7.82619ZM20.8315 8.81146L20.8508 8.82262L20.6024 9.25291C20.9885 9.46564 21.25 9.8765 21.25 10.3484V14.3484C21.25 15.0388 20.6904 15.5984 20 15.5984H16.9388L16.1083 17.037L16.2147 17.0984H20C21.5188 17.0984 22.75 15.8672 22.75 14.3484V10.3484C22.75 9.28969 22.1517 8.37068 21.2747 7.9111C21.2275 8.07946 21.1584 8.24518 21.0664 8.40459L20.8315 8.81146ZM19.6702 7.59845H19.7963C19.7877 7.61734 19.7781 7.63607 19.7674 7.65459L19.6702 7.59845ZM10.888 17.0984L10.937 16.1237L12.6253 17.0984H10.888ZM14.79 16.2759L14.8092 16.287L15.2068 15.5984H13.6166L14.79 16.2759ZM4 9.09845H13.0706L13.9367 7.59845H4C2.48122 7.59845 1.25 8.82967 1.25 10.3484V14.3484C1.25 15.8672 2.48122 17.0984 4 17.0984H9.38612L9.45555 15.7177L9.46154 15.5984H4C3.30964 15.5984 2.75 15.0388 2.75 14.3484V10.3484C2.75 9.65809 3.30964 9.09845 4 9.09845Z" fill="black"/>
<path d="M10.956 15.7931L10.8087 18.7219C10.7882 19.129 11.2372 19.3882 11.5795 19.1669L14.0423 17.575L10.956 15.7931Z" fill="black"/>
<path d="M15.6868 7.57168L11.5469 14.7422L14.6645 16.5422L18.8044 9.37166L15.6868 7.57168Z" fill="black"/>
<path d="M19.5504 6.8432L17.4928 5.65526C17.1989 5.48555 16.8512 5.57873 16.6815 5.87267L16.2996 6.53403L19.386 8.31594L19.7678 7.65458C19.9375 7.36064 19.8444 7.0129 19.5504 6.8432Z" fill="black"/>
<path fill-rule="evenodd" clip-rule="evenodd" d="M17.8048 14.0984H19C19.4142 14.0984 19.75 13.7627 19.75 13.3484C19.75 12.9342 19.4142 12.5984 19 12.5984H18.6709L17.8048 14.0984ZM12.782 12.5984H16.9388L16.0728 14.0984H11.9159L12.2942 13.4432L12.782 12.5984ZM11.0499 12.5984H5C4.58579 12.5984 4.25 12.9342 4.25 13.3484C4.25 13.7627 4.58579 14.0984 5 14.0984H10.1839L10.2452 13.9923L11.0499 12.5984Z" fill="black"/>
</svg>
