<svg width="24" height="24" viewBox="0 0 24 24" fill="none" xmlns="http://www.w3.org/2000/svg">
<path d="M13.5 9H4C2.89543 9 2 9.89543 2 11V15C2 16.1046 2.89543 17 4 17H13.5M19.5 9H20C21.1046 9 22 9.89543 22 11V15C22 16.1046 21.1046 17 20 17H19.5" stroke="black" stroke-width="1.5" stroke-linecap="round"/>
<path d="M5 14H12" stroke="black" stroke-width="1.5" stroke-linecap="round"/>
<path d="M16.5 5C16.5 5 16.5 3 13.5 3M16.5 5C16.5 5 16.5 3 19.5 3M16.5 5V12M16.5 19C16.5 19 16.5 21 13.5 21M16.5 19C16.5 19 16.5 21 19.5 21M16.5 19V12M16.5 12H18.5M16.5 12H14.5" stroke="black" stroke-width="2" stroke-linecap="round"/>
</svg>
