<svg width="1440" height="900" viewBox="0 0 1440 900" fill="none" xmlns="http://www.w3.org/2000/svg">
<g clip-path="url(#clip0)">
<path fill-rule="evenodd" clip-rule="evenodd" d="M720 630C775.228 630 820 585.228 820 530C820 525.653 819.723 521.371 819.185 517.171C813.782 553.849 782.179 582 744 582C702.026 582 668 547.974 668 506C668 467.821 696.151 436.218 732.829 430.815C728.629 430.277 724.347 430 720 430C664.772 430 620 474.772 620 530C620 585.228 664.772 630 720 630Z" fill="white"/>
<path d="M542.261 903L542.261 590.813M510.453 624.786L510.429 570M510.453 624.786H574.068M510.453 624.786L542.26 645.904M510.453 624.786H486.556M510.453 624.786L494.514 614.074M510.453 624.786L542.237 645.904M510.453 624.786L529.619 711.097M574.068 624.786L574.091 570M574.068 624.786L542.26 645.904M574.068 624.786L542.237 645.904M574.068 624.786H597.352M574.068 624.786L589.983 614.074M574.068 624.786L556.125 711.097M542.26 645.904L528.158 655.086M542.237 645.904L556.339 655.086M556.125 711.097L542.872 719.36L529.619 711.097M556.125 711.097H529.619M556.125 711.097L582.049 875.454M529.619 711.097L501.247 875.454M542.26 773.718L563.465 760.496H521.055L542.26 773.718ZM542.872 834.196L572.029 816.016H513.716L542.872 834.196Z" stroke="#B8C4E4" stroke-width="6.12132" stroke-linecap="round" stroke-linejoin="round"/>
<path fill-rule="evenodd" clip-rule="evenodd" d="M931.306 640H904.783C899.536 657.477 896.149 685.074 896.149 716.128C896.149 717.255 896.154 718.378 896.163 719.496H896.149V903.415H939.94V719.496H939.926C939.935 718.378 939.94 717.255 939.94 716.128C939.94 685.074 936.553 657.477 931.306 640ZM773.002 736.649L773.002 736.649H766.725V802.973L757.22 903.415H799.811L790.305 802.975V736.649H784.028L784.028 736.649H790.476L783.774 733.966L778.515 678.401L773.256 733.966L766.555 736.649H773.002ZM857.749 733.644H859.77V751.16H861.117V761.265H865.159V765.981H875.265V768.002H882.002V903.415H856.401H849.664H824.064V768.002H830.801V765.981H840.906V761.265H844.948V751.16H846.296V733.644H848.317V751.16H849.664V765.981H856.401V761.265H856.401V751.16H857.749V733.644ZM698.221 743.749H742.011V752.507H750.769V903.415H689.462V752.507H698.221V743.749Z" fill="#B8C4E4"/>
</g>
<defs>
<clipPath id="clip0">
<rect width="1440" height="900" fill="white"/>
</clipPath>
</defs>
</svg>
