<svg width="1440" height="900" viewBox="0 0 1440 900" fill="none" xmlns="http://www.w3.org/2000/svg">
<g clip-path="url(#clip0)">
<rect width="1440" height="900" fill="#5167A0"/>
<path fill-rule="evenodd" clip-rule="evenodd" d="M336 611C391.228 611 436 566.228 436 511C436 506.653 435.723 502.371 435.185 498.171C429.782 534.849 398.179 563 360 563C318.026 563 284 528.974 284 487C284 448.821 312.151 417.218 348.829 411.815C344.629 411.277 340.347 411 336 411C280.772 411 236 455.772 236 511C236 566.228 280.772 611 336 611Z" fill="#F2EBCD"/>
<circle cx="177" cy="120" r="25" fill="#7E92BA"/>
<circle cx="290" cy="120" r="25" fill="#7E92BA"/>
<circle cx="436" cy="104" r="25" fill="#7E92BA"/>
<circle cx="407" cy="177" r="25" fill="#7E92BA"/>
<circle cx="504" cy="202" r="25" fill="#7E92BA"/>
<circle cx="601" cy="177" r="25" fill="#7E92BA"/>
<circle cx="738" cy="202" r="25" fill="#7E92BA"/>
<circle cx="390" cy="236" r="25" fill="#7E92BA"/>
<circle cx="543" cy="236" r="25" fill="#7E92BA"/>
<circle cx="683" cy="104" r="25" fill="#7E92BA"/>
<circle cx="780" cy="79" r="25" fill="#7E92BA"/>
<circle cx="586" cy="79" r="25" fill="#7E92BA"/>
<circle cx="250" cy="145" r="25" fill="#7E92BA"/>
<circle cx="497" cy="145" r="25" fill="#7E92BA"/>
<rect x="504" y="177" width="234" height="50" fill="#7E92BA"/>
<rect x="407" y="152" width="194" height="50" fill="#7E92BA"/>
<rect x="250" y="120" width="247" height="50" fill="#7E92BA"/>
<rect x="436" y="79" width="247" height="50" fill="#7E92BA"/>
<rect x="586" y="54" width="194" height="50" fill="#7E92BA"/>
<rect x="177" y="95" width="114" height="50" fill="#7E92BA"/>
<rect x="390" y="211" width="153" height="50" fill="#7E92BA"/>
<circle r="25" transform="matrix(-1 0 0 1 991 351)" fill="#7E92BA"/>
<circle r="25" transform="matrix(-1 0 0 1 1185 351)" fill="#7E92BA"/>
<circle r="25" transform="matrix(-1 0 0 1 1258 326)" fill="#7E92BA"/>
<circle r="25" transform="matrix(-1 0 0 1 1377 291)" fill="#7E92BA"/>
<circle r="25" transform="matrix(-1 0 0 1 1233 255)" fill="#7E92BA"/>
<circle r="25" transform="matrix(-1 0 0 1 1319 266)" fill="#7E92BA"/>
<circle r="25" transform="matrix(-1 0 0 1 1344 326)" fill="#7E92BA"/>
<circle r="25" transform="matrix(-1 0 0 1 1450 326)" fill="#7E92BA"/>
<circle r="25" transform="matrix(-1 0 0 1 1046 255)" fill="#7E92BA"/>
<circle r="25" transform="matrix(-1 0 0 1 1181 291)" fill="#7E92BA"/>
<circle r="25" transform="matrix(-1 0 0 1 1112 326)" fill="#7E92BA"/>
<rect width="196" height="50" transform="matrix(-1 0 0 1 1377 266)" fill="#7E92BA"/>
<rect width="106" height="50" transform="matrix(-1 0 0 1 1450 301)" fill="#7E92BA"/>
<rect width="169" height="50" transform="matrix(-1 0 0 1 1488 241)" fill="#7E92BA"/>
<rect width="146" height="50" transform="matrix(-1 0 0 1 1258 301)" fill="#7E92BA"/>
<rect width="194" height="50" transform="matrix(-1 0 0 1 1185 326)" fill="#7E92BA"/>
<rect width="188" height="50" transform="matrix(-1 0 0 1 1234 230)" fill="#7E92BA"/>
<circle cx="157" cy="517" r="25" fill="#7E92BA"/>
<circle cx="7" cy="426" r="25" fill="#7E92BA"/>
<circle cx="194" cy="484" r="25" fill="#7E92BA"/>
<circle cx="257" cy="517" r="25" fill="#7E92BA"/>
<circle cx="107" cy="426" r="25" fill="#7E92BA"/>
<circle cx="340" cy="484" r="25" fill="#7E92BA"/>
<circle cx="237" cy="451" r="25" fill="#7E92BA"/>
<circle cx="91" cy="451" r="25" fill="#7E92BA"/>
<rect x="157" y="492" width="100" height="50" fill="#7E92BA"/>
<rect x="7" y="401" width="100" height="50" fill="#7E92BA"/>
<rect x="194" y="459" width="146" height="50" fill="#7E92BA"/>
<rect x="91" y="426" width="146" height="50" fill="#7E92BA"/>
<path d="M120.5 698L120.5 443M94.5192 470.75L94.5 426M94.5192 470.75H146.481M94.5192 470.75L120.5 488M94.5192 470.75H75M94.5192 470.75L81.5 462M94.5192 470.75L120.481 488M94.5192 470.75L110.175 541.25M146.481 470.75L146.5 426M146.481 470.75L120.5 488M146.481 470.75L120.481 488M146.481 470.75H165.5M146.481 470.75L159.481 462M146.481 470.75L131.825 541.25M120.5 488L108.981 495.5M120.481 488L132 495.5M131.825 541.25L121 548L110.175 541.25M131.825 541.25H110.175M131.825 541.25L153 675.5M110.175 541.25L87 675.5M120.5 592.4L137.821 581.6H103.179L120.5 592.4ZM121 641.8L144.816 626.95H97.1843L121 641.8Z" stroke="#3A518E" stroke-width="5" stroke-linecap="round" stroke-linejoin="round"/>
<path fill-rule="evenodd" clip-rule="evenodd" d="M1251.4 566.097H1249.52V582.389H1248.27V591.788H1248.27V596.174H1242L1242 582.389H1240.75V566.097H1238.87V582.389H1237.62V591.788H1233.86V596.174H1224.46V598.054H1218.19V724H1242H1248.27H1272.08V598.054H1265.81V596.174H1256.41V591.788H1252.65V582.389H1251.4V566.097Z" fill="#445A93"/>
<path fill-rule="evenodd" clip-rule="evenodd" d="M1141.87 575.496H1101.15V583.642H1093V724L1101.15 724H1141.87L1150.02 724V583.642H1141.87V575.496Z" fill="#445A93"/>
<path fill-rule="evenodd" clip-rule="evenodd" d="M1186.79 568.892V630.58L1195.63 724H1156.02L1164.86 630.581V568.892L1164.7 568.892L1170.94 566.397L1175.83 514.716L1180.72 566.397L1186.95 568.892L1186.79 568.892Z" fill="#445A93"/>
<path fill-rule="evenodd" clip-rule="evenodd" d="M1293.27 479H1317.94C1322.82 495.255 1325.97 520.923 1325.97 549.806C1325.97 550.854 1325.96 551.899 1325.95 552.939H1325.97V724H1285.24V552.939H1285.25C1285.24 551.899 1285.24 550.854 1285.24 549.806C1285.24 520.923 1288.39 495.255 1293.27 479Z" fill="#445A93"/>
<path d="M877.5 679C828.5 678 731.5 722.5 731.5 722.5L489.5 793H0V900H1440V750.5C1440 750.5 1297.5 750 1250.5 736C1203.5 722 1130.5 673.5 1079 686C1027.5 698.5 1013.5 710.5 983.5 705C953.5 699.5 926.5 680 877.5 679Z" fill="#445A93"/>
<path d="M122 655.979C82.5 681.978 0 688.979 0 688.979V900H1440V669C1440 669 1412.5 644 1331 658.5C1249.5 673 1260.5 712 1188.5 720.5C1116.5 729 1089.5 775.5 1025.5 769.5C961.5 763.5 965 715 908 732C851 749 818 755 760.5 720.5C703 686 692.5 669 634 688.979C575.5 708.957 523.5 614.5 480 603.5C436.5 592.5 388 644.5 358 644C328 643.5 273.5 599.5 224 603.5C174.5 607.5 161.5 629.979 122 655.979Z" fill="#3A518E"/>
<path d="M276 740.901C144.5 731.901 0 797.901 0 797.901V900H1440V797.901C1440 797.901 1425 783.5 1378 797.901C1331 812.302 1247.5 766.501 1203 745.5C1158.5 724.5 1121.5 700.5 1013.5 700.5C905.5 700.5 706.5 771.901 556 782.401C405.5 792.901 407.5 749.901 276 740.901Z" fill="#324A86"/>
</g>
<defs>
<clipPath id="clip0">
<rect width="1440" height="900" fill="white"/>
</clipPath>
</defs>
</svg>
