<svg width="1440" height="1024" viewBox="0 0 1440 1024" fill="none" xmlns="http://www.w3.org/2000/svg">
<g clip-path="url(#clip0)">
<rect width="1440" height="1024" fill="#F0E6E7"/>
<path fill-rule="evenodd" clip-rule="evenodd" d="M1290.42 172.78C1299.05 172.78 1306.06 179.782 1306.06 188.419C1306.06 197.056 1299.05 204.058 1290.42 204.058H1275C1276.45 206.427 1277.28 209.211 1277.28 212.19L1321.7 212.19C1330.33 212.19 1337.33 219.192 1337.33 227.829C1337.33 236.466 1330.33 243.468 1321.7 243.468H1244.75C1236.12 243.468 1229.11 236.466 1229.11 227.829L1159.36 227.829C1157.91 234.967 1151.6 240.34 1144.04 240.34H1067.09C1058.46 240.34 1051.46 233.338 1051.46 224.701C1051.46 216.064 1058.46 209.062 1067.09 209.062H1129.34C1130.79 201.924 1137.1 196.551 1144.66 196.551H1200.11C1198.67 194.182 1197.84 191.398 1197.84 188.419C1197.84 179.782 1204.84 172.78 1213.47 172.78H1290.42Z" fill="white"/>
<path fill-rule="evenodd" clip-rule="evenodd" d="M853.155 214.692C861.792 214.692 868.793 207.69 868.793 199.053C868.793 190.416 861.792 183.414 853.155 183.414H731.797C723.16 183.414 716.158 190.416 716.158 199.053L637.963 199.053C629.326 199.053 622.325 206.055 622.325 214.692C622.325 218.5 623.685 221.989 625.946 224.701L562.271 224.701C562.271 216.274 555.605 209.403 547.258 209.075V209.062H546.632H475.945C467.307 209.062 460.306 216.064 460.306 224.701C460.306 233.338 467.307 240.34 475.945 240.34L505.971 240.34C505.971 248.977 512.973 255.979 521.61 255.979H604.805C604.4 257.368 604.183 258.838 604.183 260.358C604.183 268.995 611.185 275.997 619.822 275.997L664.862 275.997C664.862 277.981 665.232 279.88 665.906 281.627H609.188C600.551 281.627 593.549 288.628 593.549 297.266C593.549 305.903 600.551 312.904 609.188 312.904H704.898C713.535 312.904 720.537 305.903 720.537 297.266C720.537 295.281 720.167 293.382 719.493 291.636H826.881C835.518 291.636 842.52 284.634 842.52 275.997C842.52 267.36 835.518 260.358 826.881 260.358H756.819C756.819 251.721 749.817 244.719 741.18 244.719H691.14C691.544 243.329 691.761 241.86 691.761 240.34C691.761 236.533 690.401 233.043 688.139 230.331H792.476C801.113 230.331 808.115 223.329 808.115 214.692L853.155 214.692Z" fill="white"/>
<path fill-rule="evenodd" clip-rule="evenodd" d="M1013.01 314.156H942.609C942.609 314.156 942.609 314.156 942.609 314.156C933.972 314.156 926.97 307.154 926.97 298.517C926.97 289.88 933.972 282.878 942.609 282.878C942.609 282.878 942.609 282.878 942.609 282.878H1059.59H1060.21V282.89C1068.56 283.218 1075.23 290.089 1075.23 298.517C1075.23 300.986 1074.65 303.321 1073.64 305.398L1097.75 305.398C1097.75 296.761 1104.75 289.759 1113.39 289.759H1219.1C1227.74 289.759 1234.74 296.761 1234.74 305.398C1234.74 314.035 1227.74 321.037 1219.1 321.037L1165.31 321.037C1165.31 323.261 1164.84 325.377 1164.01 327.292H1195.33C1203.97 327.292 1210.97 334.294 1210.97 342.931C1210.97 351.568 1203.97 358.57 1195.33 358.57H1129.02C1120.39 358.57 1113.39 351.568 1113.39 342.931C1113.39 340.707 1113.85 338.591 1114.69 336.676H1089.56C1090.4 338.591 1090.87 340.707 1090.87 342.931C1090.87 351.568 1083.86 358.57 1075.23 358.57L1045.2 358.57C1045.2 367.207 1038.2 374.209 1029.56 374.209H908.203C899.566 374.209 892.564 367.207 892.564 358.57C892.564 349.933 899.566 342.931 908.203 342.931H908.203L968.257 342.931C968.257 334.294 975.258 327.292 983.896 327.292H1012.72C1011.88 325.377 1011.42 323.261 1011.42 321.037C1011.42 318.568 1011.99 316.232 1013.01 314.156Z" fill="white"/>
<path fill-rule="evenodd" clip-rule="evenodd" d="M1183.45 534.351L1146.54 534.351C1146.54 542.988 1139.54 549.99 1130.9 549.99H1081.29C1081.82 551.561 1082.11 553.244 1082.11 554.994C1082.11 556.745 1081.82 558.428 1081.29 559.999H1089.61C1098.25 559.999 1105.25 567.001 1105.25 575.638C1105.25 584.275 1098.25 591.277 1089.61 591.277H1027.06C1018.42 591.277 1011.42 584.275 1011.42 575.638C1011.42 573.888 1011.71 572.205 1012.24 570.633H975.138C966.501 570.633 959.499 563.632 959.499 554.994C959.499 546.357 966.501 539.356 975.138 539.356H1024.75C1024.22 537.784 1023.93 536.101 1023.93 534.351C1023.93 525.714 1030.93 518.712 1039.57 518.712L1105.25 518.712C1105.25 510.075 1112.26 503.073 1120.89 503.073H1183.45C1192.09 503.073 1199.09 510.075 1199.09 518.712C1199.09 527.349 1192.09 534.351 1183.45 534.351Z" fill="white"/>
<path fill-rule="evenodd" clip-rule="evenodd" d="M563.074 461.161H563.074C577.653 461.161 589.472 472.98 589.472 487.559C589.472 502.138 577.653 513.956 563.074 513.956H563.074L500.776 513.956C500.776 528.535 488.957 540.354 474.379 540.354H390.638C391.533 543.006 392.018 545.847 392.018 548.801C392.018 551.755 391.533 554.596 390.638 557.248H404.689C419.268 557.248 431.086 569.067 431.086 583.646C431.086 598.225 419.268 610.043 404.689 610.043H299.099C284.52 610.043 272.701 598.225 272.701 583.646C272.701 580.692 273.186 577.851 274.082 575.198H211.459C196.88 575.198 185.061 563.38 185.061 548.801C185.061 534.222 196.88 522.403 211.459 522.403H211.459H295.199C294.304 519.751 293.819 516.91 293.819 513.956C293.819 499.377 305.638 487.559 320.217 487.559L431.086 487.559C431.086 472.98 442.905 461.161 457.484 461.161H457.484H563.074Z" fill="white"/>
<path fill-rule="evenodd" clip-rule="evenodd" d="M161.916 366.077C170.553 366.077 177.554 373.078 177.554 381.716C177.554 390.353 170.553 397.354 161.916 397.354L142.523 397.354C142.523 399.824 141.951 402.159 140.932 404.236H232.603C241.24 404.236 248.242 411.237 248.242 419.874L270.762 419.874C279.399 419.874 286.401 426.876 286.401 435.513C286.401 444.15 279.399 451.152 270.762 451.152H238.667C239.197 452.723 239.484 454.406 239.484 456.157C239.484 464.794 232.483 471.796 223.846 471.796H150.03C141.393 471.796 134.391 464.794 134.391 456.157C134.391 447.52 141.393 440.518 150.03 440.518H193.386C192.855 438.947 192.568 437.264 192.568 435.513H114.373C114.373 444.15 107.372 451.152 98.7344 451.152H29.5832C30.6022 453.229 31.1745 455.564 31.1745 458.033H86.2233C94.8605 458.033 101.862 465.035 101.862 473.672C101.862 474.743 101.755 475.789 101.549 476.8H120.003C128.641 476.8 135.642 483.802 135.642 492.439C135.642 501.076 128.641 508.078 120.003 508.078H51.1923C42.5551 508.078 35.5534 501.076 35.5534 492.439C35.5534 491.368 35.6611 490.322 35.8662 489.311H21.451C22.47 491.388 23.0422 493.723 23.0422 496.192C23.0422 504.829 16.0405 511.831 7.40334 511.831H-71.4167C-80.0538 511.831 -87.0555 504.829 -87.0555 496.192C-87.0555 487.555 -80.0538 480.553 -71.4166 480.553H-38.5476C-39.5667 478.477 -40.1389 476.141 -40.1389 473.672L-145.232 473.672C-153.869 473.672 -160.871 466.67 -160.871 458.033C-160.871 449.396 -153.869 442.394 -145.232 442.394H-26.0365C-27.0556 440.318 -27.6278 437.982 -27.6278 435.513C-27.6278 426.876 -20.626 419.874 -11.9889 419.874L52.4433 419.874C52.4433 417.405 53.0156 415.07 54.0346 412.993H16.1611C8.81781 412.993 2.65662 407.932 0.975525 401.108L-22.6233 401.108C-22.6233 409.745 -29.6251 416.747 -38.2622 416.747H-127.091C-135.728 416.747 -142.73 409.745 -142.73 401.108C-142.73 392.471 -135.728 385.469 -127.091 385.469L-61.4077 385.469C-61.4077 376.832 -54.406 369.83 -45.7688 369.83H33.0511C40.3944 369.83 46.5556 374.891 48.2367 381.716L84.3467 381.716C84.3467 373.078 91.3484 366.077 99.9856 366.077H161.916Z" fill="white"/>
<path fill-rule="evenodd" clip-rule="evenodd" d="M124.382 210.313C124.382 201.676 117.381 194.674 108.743 194.674H-8.23549C-16.8726 194.674 -23.8744 201.676 -23.8744 210.313C-23.8744 218.95 -16.8726 225.952 -8.23547 225.952L18.6634 225.952C18.6634 228.673 19.358 231.231 20.5794 233.459H-41.3899C-50.027 233.459 -57.0288 240.461 -57.0288 249.098C-57.0288 257.735 -50.027 264.737 -41.3899 264.737H91.8534C100.491 264.737 107.492 257.735 107.492 249.098C107.492 246.377 106.798 243.819 105.576 241.591H166.295C174.932 241.591 181.933 234.589 181.933 225.952C181.933 217.315 174.932 210.313 166.295 210.313L124.382 210.313Z" fill="white"/>
<path fill-rule="evenodd" clip-rule="evenodd" d="M442.164 264.737C450.802 264.737 457.803 271.738 457.803 280.376C457.803 289.013 450.802 296.014 442.164 296.014H338.283C339.504 298.243 340.199 300.801 340.199 303.521L391.494 303.521C400.132 303.521 407.133 310.523 407.133 319.16C407.133 327.797 400.132 334.799 391.494 334.799H365.428C366.103 336.546 366.472 338.444 366.472 340.429C366.472 349.066 359.471 356.068 350.833 356.068H255.749C247.112 356.068 240.11 349.066 240.11 340.429C240.11 331.792 247.112 324.79 255.749 324.79H308.089C307.414 323.043 307.044 321.145 307.044 319.16H197.572C188.935 319.16 181.933 312.158 181.933 303.521C181.933 294.884 188.935 287.882 197.572 287.882H256.414C255.192 285.654 254.498 283.096 254.498 280.376C254.498 271.738 261.5 264.737 270.137 264.737H442.164Z" fill="white"/>
<path fill-rule="evenodd" clip-rule="evenodd" d="M1746.45 202.181C1755.08 202.181 1762.09 209.183 1762.09 217.82C1762.09 226.457 1755.08 233.459 1746.45 233.459H1724.13C1724.81 235.206 1725.18 237.104 1725.18 239.089C1725.18 247.726 1718.18 254.728 1709.54 254.728H1569.59C1569.88 255.93 1570.04 257.187 1570.04 258.481L1581.93 258.481C1590.56 258.481 1597.57 265.483 1597.57 274.12C1597.57 282.757 1590.56 289.759 1581.93 289.759H1558.44C1559.46 291.835 1560.03 294.171 1560.03 296.64C1560.03 305.277 1553.03 312.279 1544.39 312.279L1464.95 312.279C1464.95 320.916 1457.95 327.918 1449.31 327.918H1369.86C1361.23 327.918 1354.22 320.916 1354.22 312.279C1354.22 303.642 1361.23 296.64 1369.86 296.64H1389.26C1389.26 288.003 1396.26 281.001 1404.89 281.001H1495.31C1494.3 278.925 1493.72 276.589 1493.72 274.12L1477.46 274.12C1468.82 274.12 1461.82 267.118 1461.82 258.481L1428.04 258.481C1419.4 258.481 1412.4 251.479 1412.4 242.842C1412.4 234.205 1419.4 227.203 1428.04 227.203H1466.82C1475.46 227.203 1482.46 234.205 1482.46 242.842L1523.58 242.842C1523.28 241.64 1523.12 240.383 1523.12 239.089C1523.12 230.452 1530.13 223.45 1538.76 223.45H1653.66C1652.98 221.703 1652.61 219.805 1652.61 217.82C1652.61 209.183 1659.62 202.181 1668.25 202.181H1746.45Z" fill="white"/>
<path fill-rule="evenodd" clip-rule="evenodd" d="M1298.94 583.242C1306.71 583.242 1313.01 589.54 1313.01 597.309L1339.45 597.309C1347.22 597.309 1353.52 603.607 1353.52 611.376L1361.4 611.376C1369.17 611.376 1375.46 617.674 1375.46 625.443C1375.46 633.212 1369.17 639.51 1361.4 639.51H1298.38C1297.77 639.51 1297.18 639.473 1296.6 639.4C1294.08 643.197 1289.77 645.7 1284.87 645.7H1221.29C1213.52 645.7 1207.22 639.402 1207.22 631.633L1190.34 631.633C1182.57 631.633 1176.27 625.335 1176.27 617.566C1176.27 609.797 1182.57 603.499 1190.34 603.499H1222.72C1221.8 601.631 1221.29 599.53 1221.29 597.309C1221.29 589.54 1227.59 583.242 1235.36 583.242H1298.94Z" fill="white"/>
<circle cx="720" cy="632" r="128" fill="#FFC0C0"/>
<path fill-rule="evenodd" clip-rule="evenodd" d="M356.262 517.974V521.712H360.315C361.494 521.712 362.525 520.858 362.525 520.431V517.974H364.735V600.218L362.525 600.218L362.525 586.611C362.525 583.68 361.297 581.9 360.683 581.9H356.262V600.218H356.262V581.9H351.841C351.227 581.9 349.999 583.68 349.999 586.611L349.999 600.218L347.789 600.218V517.974H349.999V520.431C349.999 520.858 351.031 521.712 352.21 521.712H356.262V517.974H356.262ZM356.262 553.862V540.778H351.841C351.227 540.778 349.999 542.049 349.999 544.143V552.367C349.999 552.866 351.031 553.862 352.21 553.862H356.262ZM356.262 525.451V536.666H352.21C351.031 536.666 349.999 535.811 349.999 535.384V528.335C349.999 526.54 351.227 525.451 351.841 525.451H356.262ZM356.262 540.778V553.862H360.315C361.494 553.862 362.525 552.866 362.525 552.367V544.143C362.525 542.049 361.297 540.778 360.683 540.778H356.262ZM356.262 536.666V525.451H360.683C361.297 525.451 362.525 526.54 362.525 528.335V535.384C362.525 535.811 361.494 536.666 360.315 536.666H356.262ZM356.262 576.293V559.47H360.683C361.297 559.47 362.525 561.104 362.525 563.796V574.37C362.525 575.011 361.494 576.293 360.315 576.293H356.262ZM356.262 559.47V576.293H352.21C351.031 576.293 349.999 575.011 349.999 574.37V563.796C349.999 561.104 351.227 559.47 351.841 559.47H356.262Z" fill="#8CA7BF"/>
<path fill-rule="evenodd" clip-rule="evenodd" d="M373.367 394.553V388H379.35V607.37L373.367 607.37L373.367 571.074C373.367 563.257 370.044 558.51 368.382 558.51H356.418H356.417H344.453C342.791 558.51 339.468 563.257 339.468 571.074L339.468 607.37L333.486 607.37V388H339.468V394.553C339.468 395.692 342.26 397.971 345.45 397.971H356.417H356.418H367.385C370.576 397.971 373.367 395.692 373.367 394.553ZM345.45 483.725H356.417H356.418H367.385C370.576 483.725 373.367 481.066 373.367 479.737V457.8C373.367 452.216 370.044 448.825 368.382 448.825H356.418H356.417H344.453C342.791 448.825 339.468 452.216 339.468 457.8V479.737C339.468 481.066 342.26 483.725 345.45 483.725ZM356.417 437.857H345.45C342.26 437.857 339.468 435.578 339.468 434.438V415.635C339.468 410.849 342.791 407.943 344.453 407.943H356.417H356.418H368.382C370.044 407.943 373.367 410.849 373.367 415.635V434.438C373.367 435.578 370.576 437.857 367.385 437.857H356.418H356.417ZM367.385 543.553H356.417H345.45C342.26 543.553 339.468 540.135 339.468 538.425V510.22C339.468 503.041 342.791 498.682 344.453 498.682H356.417H356.418H368.382C370.044 498.682 373.367 503.041 373.367 510.22V538.425C373.367 540.135 370.576 543.553 367.385 543.553Z" fill="#8CA7BF"/>
<path d="M298 675C320.423 614.08 343.868 594.484 349.99 592.3H363.001C369.122 594.484 392.567 614.08 414.99 675H298Z" fill="#8CA7BF"/>
<path d="M377.95 393.286C378.358 436.028 380.857 541.95 387.589 623.694" stroke="#8CA7BF" stroke-width="3.10943"/>
<path d="M335.351 393.286C334.943 436.028 332.444 541.95 325.712 623.694" stroke="#8CA7BF" stroke-width="3.10943"/>
<path d="M339.549 496.208C342.526 618.723 343.83 631.988 349.188 519.208" stroke="#8CA7BF" stroke-width="0.932828"/>
<path d="M330.065 612.811L330.065 555.598" stroke="#8CA7BF" stroke-width="0.932828"/>
<path d="M332.242 610.635L332.242 506.469" stroke="#8CA7BF" stroke-width="0.932828"/>
<path d="M340.637 601.618L340.637 553.421" stroke="#8CA7BF" stroke-width="0.621885"/>
<path d="M347.167 594.777L347.167 557.464" stroke="#8CA7BF" stroke-width="0.466414"/>
<path d="M345.923 595.71L345.923 577.986" stroke="#8CA7BF" stroke-width="0.466414"/>
<path d="M341.881 599.441L341.881 578.919" stroke="#8CA7BF" stroke-width="0.621885"/>
<path d="M349.033 588.869C343.902 588.869 333.796 593.844 316.073 620.119" stroke="#8CA7BF" stroke-width="1.55471"/>
<path d="M372.975 496.208C369.999 618.723 368.695 631.988 363.336 519.208" stroke="#8CA7BF" stroke-width="0.932828"/>
<path d="M382.459 612.811L382.459 555.598" stroke="#8CA7BF" stroke-width="0.932828"/>
<path d="M380.282 610.635L380.282 506.469" stroke="#8CA7BF" stroke-width="0.932828"/>
<path d="M371.887 601.618L371.887 553.421" stroke="#8CA7BF" stroke-width="0.621885"/>
<path d="M365.357 594.777L365.357 557.464" stroke="#8CA7BF" stroke-width="0.466414"/>
<path d="M366.601 595.71L366.601 577.986" stroke="#8CA7BF" stroke-width="0.466414"/>
<path d="M370.643 599.441L370.643 578.919" stroke="#8CA7BF" stroke-width="0.621885"/>
<path d="M363.492 588.869C368.622 588.869 378.728 593.844 396.451 620.119" stroke="#8CA7BF" stroke-width="1.55471"/>
<path d="M783 644C694 653 618.5 575.5 523 583C427.5 590.5 310 654 216.5 606.5C123 559 0 644 0 644V784H1440V575.5C1440 575.5 1404 536 1316.5 531C1229 526 1128.5 635 1033 575.5C937.5 516 872 635 783 644Z" fill="#8CA7BF"/>
<path fill-rule="evenodd" clip-rule="evenodd" d="M894.259 576C904.102 576 912.081 583.979 912.081 593.821H934.179C944.021 593.821 952 601.8 952 611.642C952 621.485 944.021 629.463 934.179 629.463H862.181C852.339 629.463 844.36 621.485 844.36 611.642H805.154C805.154 620.569 798.59 627.963 790.026 629.261C791.488 631.847 792.322 634.835 792.322 638.018H912.793C922.636 638.018 930.615 645.996 930.615 655.839C930.615 665.681 922.636 673.66 912.793 673.66H765.234C755.392 673.66 747.413 665.681 747.413 655.839H686.821C676.979 655.839 669 647.86 669 638.018C669 628.175 676.979 620.196 686.821 620.196H711.816C710.424 617.657 709.632 614.742 709.632 611.642C709.632 601.8 717.611 593.821 727.453 593.821H757.393C757.393 583.979 765.372 576 775.214 576H894.259Z" fill="white"/>
<path fill-rule="evenodd" clip-rule="evenodd" d="M1244.97 508.43H1242.97V525.719H1241.64V535.693H1241.64V540.348H1234.99H1234.99V525.719H1233.66V508.43H1231.67V525.719H1230.34V535.693H1226.35V540.348H1216.37V542.343H1209.72V676H1234.99H1241.64H1266.91V542.343H1260.26V540.348H1250.29V535.693H1246.3V525.719H1244.97V508.43Z" fill="#6589AA"/>
<path fill-rule="evenodd" clip-rule="evenodd" d="M1128.74 548.404H1085.51V557.049H1076.87V706H1085.51H1128.74H1137.38V557.049H1128.74V548.404Z" fill="#6589AA"/>
<path fill-rule="evenodd" clip-rule="evenodd" d="M1176.4 521.396V586.859L1185.79 686H1143.75L1153.13 586.863V521.396L1152.96 521.396L1159.58 518.748L1164.77 463.903L1169.96 518.748L1176.57 521.396L1176.4 521.396Z" fill="#6589AA"/>
<path fill-rule="evenodd" clip-rule="evenodd" d="M1289.4 426H1315.58C1320.76 443.25 1324.1 470.49 1324.1 501.141C1324.1 502.253 1324.09 503.362 1324.08 504.465H1324.1V686H1280.88V504.465H1280.89C1280.88 503.362 1280.88 502.253 1280.88 501.141C1280.88 470.49 1284.22 443.25 1289.4 426Z" fill="#6589AA"/>
<path d="M654 657.448L669.333 652.848V696H654V657.448Z" fill="#6589AA"/>
<rect x="669.333" y="650" width="17.9619" height="46" fill="#6589AA"/>
<path d="M687.295 663.581L693.867 661.39L700.438 663.581V696H687.295V663.581Z" fill="#6589AA"/>
<path d="M700.438 651.095L716.648 653.943V696H700.438V651.095Z" fill="#6589AA"/>
<rect x="720.647" y="672.781" width="11.3905" height="23.219" fill="#6589AA"/>
<path d="M732.038 665.771L738.61 661.39L745.181 665.771V696H732.038V665.771Z" fill="#6589AA"/>
<rect x="745.181" y="650" width="14.8952" height="46" fill="#6589AA"/>
<rect x="483.572" y="593" width="16" height="48" fill="#6589AA"/>
<path d="M462.286 607.286L476.571 609.424V641H462.286V607.286Z" fill="#6589AA"/>
<path d="M435.429 611.553L448.857 607.286L462.286 611.553V641H435.429V611.553Z" fill="#6589AA"/>
<path d="M499.572 601.571L510.143 595.857L520.714 601.571V641H499.572V601.571Z" fill="#6589AA"/>
<rect x="413" y="607.286" width="19.4286" height="33.7143" fill="#6589AA"/>
<path d="M578.5 623C627.5 622 664 729.5 755 680C846 630.5 864 693.5 1024.5 694.5C1185 695.5 1206.5 626.5 1288.5 640C1370.5 653.5 1440 626.5 1440 626.5V844H0V604.5C0 604.5 72.5 634 119.5 620C166.5 606 239.5 537.5 291 550C342.5 562.5 394 635.5 454 635.5C514 635.5 529.5 624 578.5 623Z" fill="#6589AA"/>
<path fill-rule="evenodd" clip-rule="evenodd" d="M1476.04 611.991C1476.04 599.293 1465.75 589 1453.05 589H1281.08C1268.38 589 1258.09 599.293 1258.09 611.991C1258.09 624.689 1268.38 634.982 1281.08 634.982H1320.62C1320.62 638.981 1321.65 642.742 1323.44 646.018H1232.34C1219.64 646.018 1209.35 656.311 1209.35 669.009C1209.35 681.707 1219.64 692 1232.34 692H1428.22C1440.92 692 1451.21 681.707 1451.21 669.009C1451.21 665.01 1450.19 661.249 1448.4 657.973H1537.66C1550.36 657.973 1560.65 647.68 1560.65 634.982C1560.65 622.285 1550.36 611.991 1537.66 611.991H1476.04Z" fill="white"/>
<path d="M140.635 729.232L140.635 327.765M99.7307 371.454L99.7005 301M99.7307 371.454H181.538M99.7307 371.454L140.634 385.612M99.7307 371.454H69M99.7307 371.454L79.2335 363.678M99.7307 371.454L140.604 385.612M99.7307 371.454L124.378 482.448M181.538 371.454L181.568 301M181.538 371.454L140.634 385.612M181.538 371.454L140.604 385.612M181.538 371.454H211.482M181.538 371.454L202.005 363.678M181.538 371.454L158.465 482.448M140.634 385.612L122.499 392.42M140.604 385.612L158.74 392.42M158.465 482.448L140.422 489.075L124.378 482.448M158.465 482.448H124.378M158.465 482.448L191.803 693.808M124.378 482.448L87.8926 693.808M140.634 554.977L167.904 545.974H113.365L140.634 554.977ZM141.422 632.752L178.917 617.372H103.927L141.422 632.752Z" stroke="#507496" stroke-width="7.87191" stroke-linecap="round" stroke-linejoin="round"/>
<path d="M122 678.007C82.5 704.007 0 711.007 0 711.007V922.028H1440V691.028C1440 691.028 1412.5 666.028 1331 680.528C1249.5 695.028 1260.5 734.028 1188.5 742.528C1116.5 751.028 1089.5 797.528 1025.5 791.528C961.5 785.528 965 737.028 908 754.028C851 771.028 818 777.028 760.5 742.528C703 708.028 692.5 691.028 634 711.007C575.5 730.985 523.5 636.528 480 625.528C436.5 614.529 388 666.528 358 666.028C328 665.528 273.5 621.528 224 625.528C174.5 629.528 161.5 652.007 122 678.007Z" fill="#507496"/>
<path d="M961.733 733.175L980.369 727.585V780.031H961.733V733.175Z" fill="#507496"/>
<path d="M834.118 722.052L857.21 716.092V772H834.118V722.052Z" fill="#507496"/>
<rect x="796.441" y="716.092" width="21.8306" height="55.9077" fill="#507496"/>
<path d="M818.272 732.598L826.259 729.936L834.245 732.598V772H818.272V732.598Z" fill="#507496"/>
<path d="M942 705L962 717.375V771H942V705Z" fill="#507496"/>
<rect x="864.503" y="731.892" width="20.6615" height="38.8923" fill="#507496"/>
<path d="M885 725.949L893 720L901 725.949V767H885V725.949Z" fill="#507496"/>
<path d="M919.195 719.785L930.741 713.938L942.287 719.785V760.123H919.195V719.785Z" fill="#507496"/>
<path d="M762.41 726.8L773.956 720.954L785.502 726.8V767.138H762.41V726.8Z" fill="#507496"/>
<path d="M742.964 712.077L752.687 705.154L762.41 712.077V759.846H742.964V712.077Z" fill="#507496"/>
<rect x="900.964" y="703.938" width="18.2308" height="66.8462" fill="#507496"/>
<path fill-rule="evenodd" clip-rule="evenodd" d="M675.914 685C686.936 685 695.871 693.935 695.871 704.957C695.871 715.979 686.936 724.914 675.914 724.914H651.167C651.167 728.065 650.437 731.045 649.137 733.695H766.12C777.142 733.695 786.077 742.63 786.077 753.652H814.815C825.837 753.652 834.772 762.587 834.772 773.609C834.772 784.631 825.837 793.567 814.815 793.567H773.858C774.534 795.572 774.901 797.719 774.901 799.953C774.901 810.975 765.966 819.91 754.944 819.91H660.747C649.725 819.91 640.79 810.975 640.79 799.953C640.79 788.931 649.725 779.996 660.747 779.996H716.074C715.397 777.991 715.03 775.843 715.03 773.609H615.245C615.245 784.631 606.31 793.567 595.288 793.567H507.042C508.343 796.216 509.073 799.197 509.073 802.348H579.322C590.344 802.348 599.279 811.283 599.279 822.305C599.279 823.672 599.142 825.006 598.88 826.296H622.429C633.451 826.296 642.386 835.231 642.386 846.253C642.386 857.275 633.451 866.21 622.429 866.21H534.618C523.596 866.21 514.661 857.275 514.661 846.253C514.661 844.886 514.798 843.551 515.06 842.262H496.665C497.965 844.912 498.695 847.892 498.695 851.043C498.695 862.065 489.76 871 478.738 871H378.154C367.132 871 358.197 862.065 358.197 851.043C358.197 840.021 367.132 831.086 378.154 831.086H420.099C418.799 828.436 418.069 825.456 418.069 822.305H283.957C272.935 822.305 264 813.37 264 802.348C264 791.326 272.935 782.391 283.957 782.391H436.065C434.765 779.741 434.034 776.76 434.034 773.609C434.034 762.587 442.969 753.652 453.991 753.652H536.215C536.215 750.501 536.945 747.521 538.245 744.871H489.914C480.543 744.871 472.681 738.413 470.536 729.704H440.421C440.421 740.726 431.485 749.661 420.463 749.661H307.107C296.085 749.661 287.15 740.726 287.15 729.704C287.15 718.682 296.085 709.747 307.107 709.747L390.927 709.747C390.927 698.725 399.862 689.79 410.884 689.79H511.468C520.839 689.79 528.701 696.248 530.846 704.957L576.927 704.957C576.927 693.935 585.862 685 596.884 685H675.914Z" fill="white"/>
<path fill-rule="evenodd" clip-rule="evenodd" d="M347.014 570C356.395 570 364 577.605 364 586.986C364 596.367 356.395 603.972 347.014 603.972H322.779C323.511 605.87 323.913 607.932 323.913 610.087C323.913 619.469 316.308 627.074 306.926 627.074H154.917C155.239 628.38 155.41 629.745 155.41 631.15L168.319 631.15C177.7 631.15 185.305 638.755 185.305 648.136C185.305 657.518 177.7 665.123 168.319 665.123H142.81C143.917 667.378 144.538 669.915 144.538 672.597C144.538 681.978 136.933 689.583 127.552 689.583H41.2623C41.2623 698.964 33.6573 706.569 24.2761 706.569H-62.0138C-71.395 706.569 -79 698.964 -79 689.583C-79 680.202 -71.395 672.597 -62.0138 672.597H-40.9509C-40.9509 663.215 -33.3459 655.61 -23.9647 655.61H74.2452C73.1384 653.355 72.5169 650.818 72.5169 648.136L54.8512 648.137C45.47 648.137 37.865 640.532 37.865 631.15H1.17484C-8.20638 631.15 -15.8114 623.545 -15.8114 614.164C-15.8114 604.783 -8.20638 597.178 1.17484 597.178H43.3006C52.6818 597.178 60.2868 604.783 60.2868 614.164H104.943C104.622 612.858 104.451 611.493 104.451 610.087C104.451 600.706 112.056 593.101 121.437 593.101H246.231C245.498 591.204 245.097 589.142 245.097 586.986C245.097 577.605 252.702 570 262.083 570H347.014Z" fill="white"/>
<path d="M987 790L1005.5 780L1024 790V859H987V790Z" fill="#456684"/>
<path d="M1040 782.392L1064 771L1088 782.392V861H1040V782.392Z" fill="#456684"/>
<path d="M1088 767.633L1109 757L1130 767.633V841H1088V767.633Z" fill="#456684"/>
<path d="M1130 747.392L1152 736L1174 747.392V826H1130V747.392Z" fill="#456684"/>
<path d="M1189 711.633L1207.5 701L1226 711.633V785H1189V711.633Z" fill="#456684"/>
<path d="M1226 699.633L1244.5 689L1263 699.633V773H1226V699.633Z" fill="#456684"/>
<path d="M273 722L235 728.151V819H273V722Z" fill="#456684"/>
<path d="M437 700L403 705.644V789H437V700Z" fill="#456684"/>
<path d="M403 714.278L382.5 702L362 714.278V799H403V714.278Z" fill="#456684"/>
<path d="M314 754.38L293.5 744L273 754.38V826H314V754.38Z" fill="#456684"/>
<path d="M235 722.025L210 710L185 722.025V805H235V722.025Z" fill="#456684"/>
<rect width="38" height="70" transform="matrix(-1 0 0 1 352 739)" fill="#456684"/>
<path d="M610 802.5C659 801.5 717.5 728 796.5 775C875.5 822 905 780.5 960 814.5C1015 848.5 1083.5 832 1124.5 814.5C1165.5 797 1215.84 731.458 1266 726.5C1352 718 1440 756 1440 756V1004H0V764.5C0 764.5 74.5 760.5 121.5 746.5C168.5 732.5 212 799.5 263.5 812C315 824.5 402.5 764.5 462.5 764.5C522.5 764.5 561 803.5 610 802.5Z" fill="#456684"/>
<path d="M1164 862.401C1295.5 853.401 1440 919.401 1440 919.401V1382H0V919.401C0 919.401 15 905 62 919.401C109 933.802 192.5 888.001 237 867C281.5 846 318.5 822 426.5 822C534.5 822 733.5 893.401 884 903.901C1034.5 914.401 1032.5 871.401 1164 862.401Z" fill="#405E7A"/>
<g clip-path="url(#clip1)">
<path fill-rule="evenodd" clip-rule="evenodd" d="M825.676 935.191H958.101C976.386 935.191 991.208 950.014 991.208 968.298L1130.26 968.298C1148.54 968.298 1163.36 983.12 1163.36 1001.4C1163.36 1005.11 1162.75 1008.67 1161.63 1012H1266.65C1284.94 1012 1299.76 1026.82 1299.76 1045.1C1299.76 1063.39 1284.94 1078.21 1266.65 1078.21H1188.12C1189.24 1081.54 1189.85 1085.1 1189.85 1088.81C1189.85 1107.09 1175.02 1121.91 1156.74 1121.91H1024.31C1006.03 1121.91 991.208 1107.09 991.208 1088.81C991.208 1070.52 1006.03 1055.7 1024.31 1055.7H1041.94C1040.81 1052.37 1040.21 1048.81 1040.21 1045.1C1040.21 1041.4 1040.81 1037.84 1041.94 1034.51H936.913C918.629 1034.51 903.807 1019.69 903.807 1001.4L825.676 1001.4C807.391 1001.4 792.569 986.582 792.569 968.298C792.569 950.014 807.391 935.191 825.676 935.191Z" fill="white"/>
<path fill-rule="evenodd" clip-rule="evenodd" d="M1656.4 987.5H1597.71C1596.26 987.717 1594.77 987.83 1593.25 987.83C1576.7 987.83 1563.29 974.416 1563.29 957.869C1563.29 941.377 1576.61 927.997 1593.08 927.908V927.908H1593.25H1742.34C1743.4 927.796 1744.47 927.738 1745.55 927.738C1762.09 927.738 1775.51 941.152 1775.51 957.699C1775.51 962.43 1774.41 966.904 1772.46 970.882L1818.65 970.882C1818.65 954.335 1832.07 940.921 1848.61 940.921H2051.15C2067.7 940.921 2081.11 954.335 2081.11 970.882C2081.11 987.429 2067.7 1000.84 2051.15 1000.84L1948.08 1000.84C1948.08 1005.1 1947.19 1009.16 1945.59 1012.83H2005.61C2022.16 1012.83 2035.57 1026.24 2035.57 1042.79C2035.57 1059.34 2022.16 1072.75 2005.61 1072.75H1878.57H1878.57C1862.03 1072.75 1848.61 1059.34 1848.61 1042.79C1848.61 1038.53 1849.5 1034.47 1851.11 1030.8H1802.98C1804.58 1034.47 1805.47 1038.53 1805.47 1042.79C1805.47 1059.23 1792.23 1072.57 1775.83 1072.75V1072.91H1717.98C1717.89 1089.39 1704.52 1102.71 1688.02 1102.71H1455.53H1455.53C1438.98 1102.71 1425.57 1089.3 1425.57 1072.75C1425.57 1056.2 1438.98 1042.79 1455.53 1042.79H1455.53L1458.01 1042.79C1458.01 1026.97 1470.28 1014.01 1485.82 1012.9V1012.66H1655.69C1654.13 1009.03 1653.27 1005.04 1653.27 1000.84C1653.27 996.049 1654.39 991.518 1656.4 987.5Z" fill="white"/>
<path fill-rule="evenodd" clip-rule="evenodd" d="M1501.58 921.981C1514.39 921.981 1524.77 911.598 1524.77 898.79C1524.77 885.982 1514.39 875.6 1501.58 875.6H1321.62C1308.82 875.6 1298.43 885.982 1298.43 898.79L1182.48 898.79C1169.67 898.79 1159.29 909.173 1159.29 921.981C1159.29 927.626 1161.31 932.801 1164.66 936.823L1070.24 936.823C1070.24 924.326 1060.35 914.137 1047.98 913.65V913.632H1047.05H942.226H942.226C929.419 913.632 919.036 924.015 919.036 936.823C919.036 949.63 929.419 960.013 942.226 960.013H942.226L986.752 960.013C986.752 972.821 997.135 983.204 1009.94 983.204H1009.94H1133.31C1132.71 985.264 1132.39 987.443 1132.39 989.697C1132.39 1002.5 1142.77 1012.89 1155.58 1012.89L1222.37 1012.89C1222.37 1015.83 1222.92 1018.65 1223.92 1021.24H1139.81C1139.81 1021.24 1139.81 1021.24 1139.81 1021.24C1127 1021.24 1116.62 1031.62 1116.62 1044.43C1116.62 1057.23 1127 1067.62 1139.81 1067.62C1139.81 1067.62 1139.81 1067.62 1139.81 1067.62H1281.74C1281.74 1067.62 1281.74 1067.62 1281.74 1067.62C1294.54 1067.62 1304.93 1057.23 1304.93 1044.43C1304.93 1041.48 1304.38 1038.67 1303.38 1036.08H1462.62C1475.43 1036.08 1485.81 1025.7 1485.81 1012.89C1485.81 1000.08 1475.43 989.697 1462.62 989.697L1358.73 989.697C1358.73 976.889 1348.35 966.506 1335.54 966.506H1261.33C1261.93 964.446 1262.26 962.267 1262.26 960.013C1262.26 954.367 1260.24 949.193 1256.88 945.171H1411.6C1424.41 945.171 1434.79 934.788 1434.79 921.981L1501.58 921.981Z" fill="white"/>
<path fill-rule="evenodd" clip-rule="evenodd" d="M1085.89 726.62L1085.89 726.62C1076.75 726.62 1069.34 719.209 1069.34 710.067C1069.34 700.925 1076.75 693.514 1085.89 693.514L1085.91 693.514H1152.11C1161.25 693.514 1168.66 700.925 1168.66 710.067L1238.18 710.067C1247.32 710.067 1254.74 717.478 1254.74 726.62C1254.74 728.473 1254.43 730.254 1253.87 731.917H1306.38C1315.52 731.917 1322.93 739.329 1322.93 748.471C1322.93 757.613 1315.52 765.024 1306.38 765.024H1267.11C1267.67 766.687 1267.98 768.468 1267.98 770.321C1267.98 779.463 1260.57 786.874 1251.43 786.874H1185.21H1185.21C1176.07 786.874 1168.66 779.463 1168.66 770.321C1168.66 761.179 1176.07 753.768 1185.21 753.768H1185.21H1194.02C1193.46 752.105 1193.16 750.323 1193.16 748.471C1193.16 746.618 1193.46 744.837 1194.02 743.174H1141.51C1141.51 743.174 1141.51 743.174 1141.51 743.174C1132.37 743.174 1124.96 735.763 1124.96 726.62L1085.89 726.62Z" fill="white"/>
<path fill-rule="evenodd" clip-rule="evenodd" d="M1014.91 947.946C1014.91 930.662 1000.9 916.652 983.615 916.652H762.053C744.77 916.652 730.759 930.662 730.759 947.946C730.759 949.65 730.895 951.322 731.158 952.953H621.856C606.277 952.953 593.357 964.337 590.96 979.24H517.959C500.676 979.24 486.665 993.251 486.665 1010.53C486.665 1027.82 500.676 1041.83 517.959 1041.83H594.396C591.952 1046.29 590.562 1051.41 590.562 1056.85C590.562 1074.13 604.572 1088.14 621.856 1088.14H788.34C803.919 1088.14 816.839 1076.76 819.236 1061.86H903.503C920.786 1061.86 934.797 1047.85 934.797 1030.56C934.797 1013.28 920.786 999.268 903.503 999.268H839.584C842.028 994.809 843.418 989.69 843.418 984.247C843.418 982.543 843.282 980.87 843.02 979.24H983.615C1000.9 979.24 1014.91 965.229 1014.91 947.946Z" fill="white"/>
<path fill-rule="evenodd" clip-rule="evenodd" d="M243.727 1027.89C228.699 1027.89 216.516 1015.71 216.516 1000.68C216.516 985.65 228.699 973.468 243.727 973.468H424.476C422.35 969.591 421.142 965.14 421.142 960.407L331.89 960.407C316.862 960.407 304.679 948.224 304.679 933.196C304.679 918.168 316.862 905.985 331.89 905.985H377.244C376.071 902.946 375.428 899.642 375.428 896.189C375.428 881.161 387.61 868.978 402.638 868.978H568.08C583.108 868.978 595.291 881.161 595.291 896.189C595.291 911.217 583.108 923.4 568.08 923.4H477.012C478.185 926.439 478.829 929.743 478.829 933.196L669.304 933.196C684.332 933.196 696.515 945.378 696.515 960.407C696.515 975.435 684.332 987.617 669.304 987.617H566.923C569.048 991.494 570.257 995.945 570.257 1000.68C570.257 1015.71 558.074 1027.89 543.046 1027.89H243.727Z" fill="white"/>
<path fill-rule="evenodd" clip-rule="evenodd" d="M0 1085V962.324H177.548C175.718 958.595 174.691 954.401 174.691 949.966C174.691 948.043 174.884 946.164 175.252 944.35H96.0534C80.5426 944.35 67.9687 931.776 67.9687 916.265C67.9687 900.754 80.5427 888.18 96.0534 888.18H301.633C317.144 888.18 329.718 900.754 329.718 916.265C329.718 918.188 329.525 920.067 329.156 921.882H408.355C423.866 921.882 436.44 934.456 436.44 949.966C436.44 965.477 423.866 978.051 408.355 978.051H335.848C337.678 981.78 338.705 985.974 338.705 990.408C338.705 992.332 338.512 994.211 338.143 996.025H481.376C496.886 996.025 509.46 1008.6 509.46 1024.11C509.46 1039.62 496.886 1052.19 481.376 1052.19H351.07C351.797 1054.69 352.186 1057.33 352.186 1060.06C352.186 1075.57 339.612 1088.14 324.101 1088.14H12.9227C8.26298 1088.14 3.86832 1087.01 0 1085Z" fill="white"/>
<path fill-rule="evenodd" clip-rule="evenodd" d="M0 1096.09H72.9037C89.206 1096.09 102.422 1082.87 102.422 1066.57C102.422 1050.27 89.206 1037.05 72.9037 1037.05L0 1037.05V1096.09ZM0 1027.61V927.246H229.939C246.242 927.246 259.457 940.461 259.457 956.764C259.457 973.066 246.242 986.282 229.939 986.282H62.1824C63.7622 989.897 64.6385 993.891 64.6385 998.089C64.6385 1014.39 51.4229 1027.61 35.1205 1027.61H0Z" fill="white"/>
<path fill-rule="evenodd" clip-rule="evenodd" d="M0 814.684H43.034C42.6059 813.213 42.3764 811.658 42.3764 810.049C42.3764 800.907 49.7875 793.495 58.9296 793.495H102.841C102.702 792.633 102.63 791.748 102.63 790.847C102.63 789.478 102.796 788.147 103.11 786.874H0V737.214L32.4443 737.214C41.5865 737.214 48.9976 744.626 48.9976 753.768L213.206 753.768C222.348 753.768 229.759 761.179 229.759 770.321C229.759 779.463 222.348 786.874 213.206 786.874H176.971C177.284 788.147 177.451 789.478 177.451 790.847C177.451 799.989 170.04 807.4 160.898 807.4H127.58C127.719 808.263 127.791 809.147 127.791 810.049C127.791 811.658 127.562 813.213 127.133 814.684H154.938C164.08 814.684 171.492 822.095 171.492 831.237C171.492 840.379 164.08 847.79 154.938 847.79H0V814.684ZM0 729.256V696.175C8.83515 696.523 15.8911 703.795 15.8911 712.716C15.8911 721.636 8.83517 728.908 0 729.256Z" fill="white"/>
</g>
</g>
<defs>
<clipPath id="clip0">
<rect width="1440" height="1024" fill="white"/>
</clipPath>
<clipPath id="clip1">
<rect width="2860.4" height="596" fill="white" transform="translate(0 428)"/>
</clipPath>
</defs>
</svg>
