<svg width="414" height="900" viewBox="0 0 414 900" fill="none" xmlns="http://www.w3.org/2000/svg">
<g clip-path="url(#clip0)">
<rect width="414" height="900" fill="#0057FF" fill-opacity="0.1"/>
<circle cx="177" cy="50" r="25" fill="white"/>
<circle cx="290" cy="50" r="25" fill="white"/>
<circle cx="436" cy="34" r="25" fill="white"/>
<circle cx="407" cy="107" r="25" fill="white"/>
<circle cx="390" cy="166" r="25" fill="white"/>
<circle cx="250" cy="75" r="25" fill="white"/>
<rect x="407" y="82" width="194" height="50" fill="white"/>
<rect x="250" y="50" width="247" height="50" fill="white"/>
<rect x="177" y="25" width="114" height="50" fill="white"/>
<rect x="390" y="141" width="153" height="50" fill="white"/>
<circle r="42.1986" transform="matrix(-1 0 0 1 56.0922 710.801)" fill="white"/>
<circle r="42.1986" transform="matrix(-1 0 0 1 309.284 557.199)" fill="white"/>
<circle r="42.1986" transform="matrix(-1 0 0 1 -6.36167 655.099)" fill="white"/>
<circle r="42.1986" transform="matrix(-1 0 0 1 140.489 557.199)" fill="white"/>
<circle r="42.1986" transform="matrix(-1 0 0 1 167.496 599.397)" fill="white"/>
<rect width="168.794" height="84.3972" transform="matrix(-1 0 0 1 56.0923 668.603)" fill="white"/>
<rect width="168.794" height="84.3972" transform="matrix(-1 0 0 1 309.284 515)" fill="white"/>
<rect width="246.44" height="84.3972" transform="matrix(-1 0 0 1 167.497 557.198)" fill="white"/>
<g filter="url(#filter0_d)">
<path fill-rule="evenodd" clip-rule="evenodd" d="M207 350C262.228 350 307 305.228 307 250C307 245.653 306.723 241.371 306.185 237.171C300.782 273.849 269.179 302 231 302C189.026 302 155 267.974 155 226C155 187.821 183.151 156.218 219.829 150.815C215.629 150.277 211.347 150 207 150C151.772 150 107 194.772 107 250C107 305.228 151.772 350 207 350Z" fill="white"/>
<path d="M288.905 823L288.905 459.25M251.844 498.835L251.816 435M251.844 498.835H325.965M251.844 498.835L288.904 523.441M251.844 498.835H224M251.844 498.835L233.272 486.353M251.844 498.835L288.877 523.441M251.844 498.835L274.176 599.401M325.965 498.835L325.993 435M325.965 498.835L288.904 523.441M325.965 498.835L288.877 523.441M325.965 498.835H353.096M325.965 498.835L344.509 486.353M325.965 498.835L305.06 599.401M288.904 523.441L272.473 534.14M288.877 523.441L305.309 534.14M305.06 599.401L289.618 609.029L274.176 599.401M305.06 599.401H274.176M305.06 599.401L335.265 790.904M274.176 599.401L241.118 790.904M288.904 672.365L313.612 656.959H264.197L288.904 672.365ZM289.618 742.832L323.59 721.649H255.645L289.618 742.832Z" stroke="#B8C4E4" stroke-width="7.13235" stroke-linecap="round" stroke-linejoin="round"/>
</g>
<circle cx="-16.9758" cy="768.464" r="35.0242" fill="white"/>
<circle cx="141.333" cy="768.464" r="35.0242" fill="white"/>
<circle cx="345.875" cy="746.048" r="35.0242" fill="white"/>
<circle cx="305.246" cy="848.319" r="35.0242" fill="white"/>
<circle cx="441.14" cy="883.343" r="35.0242" fill="white"/>
<circle cx="281.43" cy="930.976" r="35.0242" fill="white"/>
<circle cx="85.2947" cy="803.488" r="35.0242" fill="white"/>
<circle cx="431.333" cy="803.488" r="35.0242" fill="white"/>
<rect x="305.246" y="813.295" width="271.787" height="70.0483" fill="white"/>
<rect x="85.2947" y="768.464" width="346.039" height="70.0483" fill="white"/>
<rect x="345.875" y="711.024" width="346.039" height="70.0483" fill="white"/>
<rect x="-16.9758" y="733.44" width="159.71" height="70.0483" fill="white"/>
<rect x="281.43" y="895.952" width="214.348" height="70.0483" fill="white"/>
<circle cx="350" cy="517" r="25" fill="white"/>
<circle cx="200" cy="426" r="25" fill="white"/>
<circle cx="387" cy="484" r="25" fill="white"/>
<circle cx="300" cy="426" r="25" fill="white"/>
<circle cx="430" cy="451" r="25" fill="white"/>
<circle cx="284" cy="451" r="25" fill="white"/>
<rect x="350" y="492" width="100" height="50" fill="white"/>
<rect x="200" y="401" width="100" height="50" fill="white"/>
<rect x="387" y="459" width="146" height="50" fill="white"/>
<rect x="284" y="426" width="146" height="50" fill="white"/>
<circle cx="181" cy="932" r="50" fill="white"/>
<circle cx="7" cy="816" r="50" fill="white"/>
<circle cx="267" cy="866" r="50" fill="white"/>
<circle cx="-25" cy="866" r="50" fill="white"/>
<rect x="-193" y="766" width="200" height="100" fill="white"/>
<rect x="181" y="882" width="292" height="100" fill="white"/>
<rect x="-25" y="816" width="292" height="100" fill="white"/>
</g>
<defs>
<filter id="filter0_d" x="43" y="86" width="377.662" height="804.566" filterUnits="userSpaceOnUse" color-interpolation-filters="sRGB">
<feFlood flood-opacity="0" result="BackgroundImageFix"/>
<feColorMatrix in="SourceAlpha" type="matrix" values="0 0 0 0 0 0 0 0 0 0 0 0 0 0 0 0 0 0 127 0"/>
<feOffset/>
<feGaussianBlur stdDeviation="32"/>
<feColorMatrix type="matrix" values="0 0 0 0 0 0 0 0 0 0 0 0 0 0 0 0 0 0 0.1 0"/>
<feBlend mode="normal" in2="BackgroundImageFix" result="effect1_dropShadow"/>
<feBlend mode="normal" in="SourceGraphic" in2="effect1_dropShadow" result="shape"/>
</filter>
<clipPath id="clip0">
<rect width="414" height="900" fill="white"/>
</clipPath>
</defs>
</svg>
