<svg width="24" height="24" viewBox="0 0 24 24" fill="none" xmlns="http://www.w3.org/2000/svg">
<path d="M6.25 14.5C7.492 14.5 8.5 13.492 8.5 12.25V10H6.25C5.008 10 4 11.008 4 12.25C4 13.492 5.008 14.5 6.25 14.5Z" fill="#444444"/>
<path d="M4 7.75C4 6.508 5.008 5.5 6.25 5.5H8.5V10H6.25C5.008 10 4 8.992 4 7.75Z" fill="#444444"/>
<path d="M4 3.25C4 2.008 5.008 1 6.25 1H8.5V5.5H6.25C5.008 5.5 4 4.492 4 3.25Z" fill="#444444"/>
<path d="M8.5 1H10.75C11.992 1 13 2.008 13 3.25C13 4.492 11.992 5.5 10.75 5.5H8.5V1Z" fill="#444444"/>
<path d="M13 7.75C13 8.992 11.992 10 10.75 10C9.508 10 8.5 8.992 8.5 7.75C8.5 6.508 9.508 5.5 10.75 5.5C11.992 5.5 13 6.508 13 7.75Z" fill="#444444"/>
<path d="M11.8647 21C11.6887 21 11.5407 20.94 11.4207 20.82C11.3087 20.7 11.2527 20.556 11.2527 20.388C11.2527 20.212 11.3087 20.068 11.4207 19.956L14.8287 15.972C15.0687 15.692 15.2527 15.428 15.3807 15.18C15.5167 14.932 15.5847 14.696 15.5847 14.472C15.5847 13.952 15.4487 13.536 15.1767 13.224C14.9127 12.912 14.5487 12.756 14.0847 12.756C13.7807 12.756 13.5047 12.836 13.2567 12.996C13.0167 13.148 12.8247 13.356 12.6807 13.62C12.5447 13.876 12.4767 14.16 12.4767 14.472C12.4767 14.632 12.4167 14.772 12.2967 14.892C12.1847 15.012 12.0407 15.072 11.8647 15.072C11.6967 15.072 11.5527 15.012 11.4327 14.892C11.3127 14.772 11.2527 14.632 11.2527 14.472C11.2527 13.928 11.3767 13.444 11.6247 13.02C11.8727 12.588 12.2087 12.248 12.6327 12C13.0647 11.752 13.5487 11.628 14.0847 11.628C14.6287 11.628 15.1007 11.744 15.5007 11.976C15.9007 12.208 16.2087 12.536 16.4247 12.96C16.6487 13.384 16.7607 13.888 16.7607 14.472C16.7607 14.728 16.7047 14.988 16.5927 15.252C16.4887 15.516 16.3527 15.768 16.1847 16.008C16.0247 16.248 15.8607 16.464 15.6927 16.656L12.9447 19.776H16.3047C16.4807 19.776 16.6287 19.84 16.7487 19.968C16.8687 20.088 16.9287 20.228 16.9287 20.388C16.9287 20.556 16.8687 20.7 16.7487 20.82C16.6287 20.94 16.4807 21 16.3047 21H11.8647Z" fill="#444444"/>
<path d="M11.4207 20.82L11.0551 21.1612L11.061 21.1675L11.0671 21.1736L11.4207 20.82ZM11.4207 19.956L11.7742 20.3096L11.788 20.2958L11.8006 20.281L11.4207 19.956ZM14.8287 15.972L14.449 15.6466L14.4487 15.647L14.8287 15.972ZM15.3807 15.18L14.9421 14.9395L14.9363 14.9507L15.3807 15.18ZM15.1767 13.224L14.7949 13.547L14.7998 13.5526L15.1767 13.224ZM13.2567 12.996L13.5242 13.4184L13.5277 13.4161L13.2567 12.996ZM12.6807 13.62L12.2417 13.3806L12.2391 13.3854L12.6807 13.62ZM12.2967 14.892L11.9431 14.5384L11.937 14.5445L11.9311 14.5508L12.2967 14.892ZM11.4327 14.892L11.0791 15.2456L11.0791 15.2456L11.4327 14.892ZM11.6247 13.02L12.0563 13.2724L12.0583 13.2689L11.6247 13.02ZM12.6327 12L12.3837 11.5664L12.3802 11.5684L12.6327 12ZM15.5007 11.976L15.7515 11.5435L15.7515 11.5435L15.5007 11.976ZM16.4247 12.96L15.9791 13.187L15.9826 13.1936L16.4247 12.96ZM16.5927 15.252L16.1322 15.0567L16.1275 15.0687L16.5927 15.252ZM16.1847 16.008L15.7749 15.7212L15.7686 15.7306L16.1847 16.008ZM15.6927 16.656L16.0679 16.9865L16.0689 16.9853L15.6927 16.656ZM12.9447 19.776L12.5694 19.4455L11.838 20.276H12.9447V19.776ZM16.7487 19.968L16.3839 20.31L16.3894 20.3159L16.3951 20.3216L16.7487 19.968ZM16.7487 20.82L16.3951 20.4664L16.3951 20.4664L16.7487 20.82ZM11.8647 20.5C11.8158 20.5 11.7966 20.4889 11.7742 20.4664L11.0671 21.1736C11.2847 21.3911 11.5615 21.5 11.8647 21.5V20.5ZM11.7862 20.4788C11.7628 20.4538 11.7527 20.4326 11.7527 20.388H10.7527C10.7527 20.6793 10.8545 20.9462 11.0551 21.1612L11.7862 20.4788ZM11.7527 20.388C11.7527 20.3285 11.7668 20.317 11.7742 20.3096L11.0671 19.6024C10.8505 19.819 10.7527 20.0955 10.7527 20.388H11.7527ZM11.8006 20.281L15.2086 16.297L14.4487 15.647L11.0407 19.631L11.8006 20.281ZM15.2083 16.2974C15.466 15.9968 15.6746 15.7007 15.825 15.4093L14.9363 14.9507C14.8307 15.1553 14.6714 15.3872 14.449 15.6466L15.2083 16.2974ZM15.8191 15.4204C15.9851 15.1177 16.0847 14.7993 16.0847 14.472H15.0847C15.0847 14.5927 15.0482 14.7463 14.9423 14.9396L15.8191 15.4204ZM16.0847 14.472C16.0847 13.8632 15.9237 13.32 15.5535 12.8954L14.7998 13.5526C14.9736 13.752 15.0847 14.0408 15.0847 14.472H16.0847ZM15.5583 12.901C15.1858 12.4608 14.6735 12.256 14.0847 12.256V13.256C14.4239 13.256 14.6395 13.3632 14.795 13.547L15.5583 12.901ZM14.0847 12.256C13.6876 12.256 13.3169 12.3621 12.9856 12.5759L13.5277 13.4161C13.6924 13.3099 13.8738 13.256 14.0847 13.256V12.256ZM12.9891 12.5736C12.6731 12.7737 12.4239 13.0465 12.2417 13.3806L13.1196 13.8594C13.2254 13.6655 13.3602 13.5223 13.5242 13.4184L12.9891 12.5736ZM12.2391 13.3854C12.0618 13.7191 11.9767 14.0846 11.9767 14.472H12.9767C12.9767 14.2354 13.0275 14.0329 13.1222 13.8546L12.2391 13.3854ZM11.9767 14.472C11.9767 14.4907 11.9756 14.5059 11.9431 14.5384L12.6502 15.2456C12.8577 15.0381 12.9767 14.7733 12.9767 14.472H11.9767ZM11.9311 14.5508C11.9211 14.5616 11.9153 14.5642 11.9123 14.5655C11.9086 14.567 11.8951 14.572 11.8647 14.572V15.572C12.168 15.572 12.4482 15.4624 12.6622 15.2332L11.9311 14.5508ZM11.8647 14.572C11.8308 14.572 11.8135 14.5657 11.7862 14.5384L11.0791 15.2456C11.2918 15.4583 11.5625 15.572 11.8647 15.572V14.572ZM11.7862 14.5384C11.7537 14.5059 11.7527 14.4907 11.7527 14.472H10.7527C10.7527 14.7733 10.8716 15.0381 11.0791 15.2456L11.7862 14.5384ZM11.7527 14.472C11.7527 14.0069 11.8577 13.6118 12.0563 13.2724L11.1931 12.7676C10.8956 13.2762 10.7527 13.8491 10.7527 14.472H11.7527ZM12.0583 13.2689C12.2635 12.9115 12.5375 12.6349 12.8851 12.4316L12.3802 11.5684C11.8798 11.8611 11.4818 12.2645 11.191 12.7711L12.0583 13.2689ZM12.8816 12.4336C13.2321 12.2324 13.6291 12.128 14.0847 12.128V11.128C13.4682 11.128 12.8972 11.2716 12.3837 11.5664L12.8816 12.4336ZM14.0847 12.128C14.5562 12.128 14.9385 12.228 15.2498 12.4085L15.7515 11.5435C15.2628 11.26 14.7011 11.128 14.0847 11.128V12.128ZM15.2498 12.4085C15.5639 12.5907 15.8055 12.8462 15.9791 13.187L16.8702 12.733C16.6118 12.2258 16.2374 11.8253 15.7515 11.5435L15.2498 12.4085ZM15.9826 13.1936C16.1611 13.5315 16.2607 13.9519 16.2607 14.472H17.2607C17.2607 13.8241 17.1362 13.2365 16.8668 12.7264L15.9826 13.1936ZM16.2607 14.472C16.2607 14.6533 16.2213 14.8471 16.1324 15.0567L17.0529 15.4473C17.188 15.1289 17.2607 14.8027 17.2607 14.472H16.2607ZM16.1275 15.0687C16.0383 15.295 15.9212 15.5124 15.775 15.7213L16.5943 16.2947C16.7841 16.0236 16.939 15.737 17.0579 15.4353L16.1275 15.0687ZM15.7686 15.7306C15.6192 15.9548 15.4683 16.1531 15.3164 16.3267L16.0689 16.9853C16.253 16.7749 16.4301 16.5412 16.6007 16.2853L15.7686 15.7306ZM15.3174 16.3255L12.5694 19.4455L13.3199 20.1065L16.0679 16.9865L15.3174 16.3255ZM12.9447 20.276H16.3047V19.276H12.9447V20.276ZM16.3047 20.276C16.3429 20.276 16.3587 20.2832 16.3839 20.31L17.1134 19.626C16.8986 19.3968 16.6184 19.276 16.3047 19.276V20.276ZM16.3951 20.3216C16.4276 20.3541 16.4287 20.3693 16.4287 20.388H17.4287C17.4287 20.0867 17.3097 19.8219 17.1022 19.6144L16.3951 20.3216ZM16.4287 20.388C16.4287 20.4219 16.4224 20.4391 16.3951 20.4664L17.1022 21.1736C17.3149 20.9609 17.4287 20.6901 17.4287 20.388H16.4287ZM16.3951 20.4664C16.3727 20.4889 16.3535 20.5 16.3047 20.5V21.5C16.6078 21.5 16.8846 21.3911 17.1022 21.1736L16.3951 20.4664ZM16.3047 20.5H11.8647V21.5H16.3047V20.5Z" fill="#444444"/>
</svg>
