<svg width="24" height="24" viewBox="0 0 24 24" fill="none" xmlns="http://www.w3.org/2000/svg">
<path d="M15 6V5C15 4.44772 14.5523 4 14 4H8C7.44772 4 7 4.44772 7 5V19C7 19.5523 7.44772 20 8 20H9" stroke="#444444" stroke-width="2" stroke-linecap="round" stroke-linejoin="round"/>
<path d="M13.25 21.5C14.492 21.5 15.5 20.492 15.5 19.25V17H13.25C12.008 17 11 18.008 11 19.25C11 20.492 12.008 21.5 13.25 21.5Z" fill="#0ACF83"/>
<path d="M11 14.75C11 13.508 12.008 12.5 13.25 12.5H15.5V17H13.25C12.008 17 11 15.992 11 14.75Z" fill="#A259FF"/>
<path d="M11 10.25C11 9.008 12.008 8 13.25 8H15.5V12.5H13.25C12.008 12.5 11 11.492 11 10.25Z" fill="#F24E1E"/>
<path d="M15.5 8H17.75C18.992 8 20 9.008 20 10.25C20 11.492 18.992 12.5 17.75 12.5H15.5V8Z" fill="#FF7262"/>
<path d="M20 14.75C20 15.992 18.992 17 17.75 17C16.508 17 15.5 15.992 15.5 14.75C15.5 13.508 16.508 12.5 17.75 12.5C18.992 12.5 20 13.508 20 14.75Z" fill="#1ABCFE"/>
</svg>
