<svg width="24" height="24" viewBox="0 0 24 24" fill="none" xmlns="http://www.w3.org/2000/svg">
<path d="M6.25 14.5C7.492 14.5 8.5 13.492 8.5 12.25V10H6.25C5.008 10 4 11.008 4 12.25C4 13.492 5.008 14.5 6.25 14.5Z" fill="#444444"/>
<path d="M4 7.75C4 6.508 5.008 5.5 6.25 5.5H8.5V10H6.25C5.008 10 4 8.992 4 7.75Z" fill="#444444"/>
<path d="M4 3.25C4 2.008 5.008 1 6.25 1H8.5V5.5H6.25C5.008 5.5 4 4.492 4 3.25Z" fill="#444444"/>
<path d="M8.5 1H10.75C11.992 1 13 2.008 13 3.25C13 4.492 11.992 5.5 10.75 5.5H8.5V1Z" fill="#444444"/>
<path d="M13 7.75C13 8.992 11.992 10 10.75 10C9.508 10 8.5 8.992 8.5 7.75C8.5 6.508 9.508 5.5 10.75 5.5C11.992 5.5 13 6.508 13 7.75Z" fill="#444444"/>
<path d="M10.6093 21C10.3853 21 10.2133 20.904 10.0933 20.712C9.97325 20.52 9.96125 20.316 10.0573 20.1L13.4293 12.048C13.5493 11.768 13.7453 11.628 14.0173 11.628C14.3053 11.628 14.5013 11.768 14.6053 12.048L17.9893 20.124C18.0773 20.348 18.0613 20.552 17.9413 20.736C17.8293 20.912 17.6573 21 17.4253 21C17.3053 21 17.1893 20.968 17.0773 20.904C16.9733 20.832 16.8973 20.736 16.8493 20.616L16.1773 18.936H11.8693L11.1853 20.616C11.1293 20.744 11.0453 20.84 10.9333 20.904C10.8293 20.968 10.7213 21 10.6093 21ZM12.2893 17.904H15.7573L14.0413 13.632L12.2893 17.904Z" fill="#444444"/>
<path d="M10.0933 20.712L9.66925 20.977L9.66925 20.977L10.0933 20.712ZM10.0573 20.1L10.5143 20.3031L10.5184 20.2931L10.0573 20.1ZM13.4293 12.048L12.9697 11.851L12.9681 11.8549L13.4293 12.048ZM14.6053 12.048L14.1365 12.2221L14.1401 12.2317L14.1441 12.2412L14.6053 12.048ZM17.9893 20.124L18.4547 19.9411L18.4504 19.9308L17.9893 20.124ZM17.9413 20.736L17.5224 20.4628L17.5194 20.4676L17.9413 20.736ZM17.0773 20.904L16.7926 21.3151L16.8104 21.3274L16.8292 21.3381L17.0773 20.904ZM16.8493 20.616L17.3135 20.4303L17.3135 20.4303L16.8493 20.616ZM16.1773 18.936L16.6415 18.7503L16.5158 18.436H16.1773V18.936ZM11.8693 18.936V18.436H11.533L11.4062 18.7475L11.8693 18.936ZM11.1853 20.616L11.6435 20.8165L11.6483 20.8045L11.1853 20.616ZM10.9333 20.904L10.6852 20.4699L10.6781 20.4739L10.6712 20.4782L10.9333 20.904ZM12.2893 17.904L11.8266 17.7143L11.5438 18.404H12.2893V17.904ZM15.7573 17.904V18.404H16.4969L16.2212 17.7176L15.7573 17.904ZM14.0413 13.632L14.5052 13.4456L14.0461 12.3025L13.5786 13.4423L14.0413 13.632ZM10.6093 20.5C10.5707 20.5 10.5577 20.4924 10.5559 20.4914C10.5539 20.4903 10.5393 20.4823 10.5172 20.447L9.66925 20.977C9.87942 21.3133 10.2106 21.5 10.6093 21.5V20.5ZM10.5172 20.447C10.4967 20.4142 10.494 20.3953 10.4934 20.3856C10.4928 20.375 10.4935 20.3496 10.5142 20.3031L9.60034 19.8969C9.44042 20.2568 9.45668 20.6369 9.66925 20.977L10.5172 20.447ZM10.5184 20.2931L13.8904 12.2411L12.9681 11.8549L9.59606 19.9069L10.5184 20.2931ZM13.8888 12.245C13.9222 12.1671 13.9507 12.1443 13.9569 12.1399C13.9593 12.1381 13.9714 12.128 14.0173 12.128V11.128C13.7911 11.128 13.5692 11.1879 13.3756 11.3261C13.1858 11.4617 13.0563 11.6489 12.9697 11.851L13.8888 12.245ZM14.0173 12.128C14.0488 12.128 14.0676 12.1318 14.0771 12.1346C14.0857 12.1371 14.0888 12.1392 14.0896 12.1399C14.0906 12.1406 14.0954 12.1441 14.1031 12.1549C14.1113 12.1663 14.1236 12.1872 14.1365 12.2221L15.074 11.8739C14.9956 11.6629 14.8678 11.4668 14.6709 11.3261C14.4725 11.1845 14.2446 11.128 14.0173 11.128V12.128ZM14.1441 12.2412L17.5281 20.3172L18.4504 19.9308L15.0664 11.8548L14.1441 12.2412ZM17.5239 20.3068C17.5593 20.397 17.5447 20.4288 17.5224 20.4629L18.3601 21.0091C18.5778 20.6752 18.5952 20.299 18.4546 19.9412L17.5239 20.3068ZM17.5194 20.4676C17.5126 20.4783 17.5076 20.4834 17.5056 20.4853C17.5037 20.487 17.5023 20.4879 17.5005 20.4889C17.4978 20.4903 17.4778 20.5 17.4253 20.5V21.5C17.8055 21.5 18.1477 21.3429 18.3631 21.0044L17.5194 20.4676ZM17.4253 20.5C17.3988 20.5 17.3676 20.4941 17.3253 20.4699L16.8292 21.3381C17.0109 21.4419 17.2117 21.5 17.4253 21.5V20.5ZM17.3619 20.4929C17.3404 20.4781 17.3259 20.4613 17.3135 20.4303L16.385 20.8017C16.4686 21.0107 16.6061 21.1859 16.7926 21.3151L17.3619 20.4929ZM17.3135 20.4303L16.6415 18.7503L15.713 19.1217L16.385 20.8017L17.3135 20.4303ZM16.1773 18.436H11.8693V19.436H16.1773V18.436ZM11.4062 18.7475L10.7222 20.4275L11.6483 20.8045L12.3323 19.1245L11.4062 18.7475ZM10.7272 20.4156C10.7105 20.4538 10.696 20.4637 10.6852 20.4699L11.1813 21.3381C11.3945 21.2163 11.548 21.0342 11.6433 20.8164L10.7272 20.4156ZM10.6712 20.4782C10.6386 20.4982 10.6204 20.5 10.6093 20.5V21.5C10.8221 21.5 11.0199 21.4378 11.1953 21.3298L10.6712 20.4782ZM12.2893 18.404H15.7573V17.404H12.2893V18.404ZM16.2212 17.7176L14.5052 13.4456L13.5773 13.8184L15.2933 18.0904L16.2212 17.7176ZM13.5786 13.4423L11.8266 17.7143L12.7519 18.0937L14.5039 13.8217L13.5786 13.4423Z" fill="#444444"/>
</svg>
