<svg width="24" height="24" viewBox="0 0 24 24" fill="none" xmlns="http://www.w3.org/2000/svg">
<path d="M6.25 14.5C7.492 14.5 8.5 13.492 8.5 12.25V10H6.25C5.008 10 4 11.008 4 12.25C4 13.492 5.008 14.5 6.25 14.5Z" fill="#444444"/>
<path d="M4 7.75C4 6.508 5.008 5.5 6.25 5.5H8.5V10H6.25C5.008 10 4 8.992 4 7.75Z" fill="#444444"/>
<path d="M4 3.25C4 2.008 5.008 1 6.25 1H8.5V5.5H6.25C5.008 5.5 4 4.492 4 3.25Z" fill="#444444"/>
<path d="M8.5 1H10.75C11.992 1 13 2.008 13 3.25C13 4.492 11.992 5.5 10.75 5.5H8.5V1Z" fill="#444444"/>
<path d="M13 7.75C13 8.992 11.992 10 10.75 10C9.508 10 8.5 8.992 8.5 7.75C8.5 6.508 9.508 5.5 10.75 5.5C11.992 5.5 13 6.508 13 7.75Z" fill="#444444"/>
<path d="M14.5365 21C14.3765 21 14.2365 20.94 14.1165 20.82C13.9965 20.7 13.9365 20.556 13.9365 20.388V13.068L13.0605 13.44C12.9245 13.496 12.7965 13.524 12.6765 13.524C12.5005 13.524 12.3525 13.468 12.2325 13.356C12.1205 13.244 12.0645 13.1 12.0645 12.924C12.0645 12.796 12.0965 12.68 12.1605 12.576C12.2245 12.472 12.3245 12.396 12.4605 12.348L14.3325 11.676C14.3725 11.66 14.4125 11.648 14.4525 11.64C14.4925 11.632 14.5285 11.628 14.5605 11.628C14.7445 11.628 14.8885 11.688 14.9925 11.808C15.1045 11.92 15.1605 12.068 15.1605 12.252V20.388C15.1605 20.556 15.1005 20.7 14.9805 20.82C14.8605 20.94 14.7125 21 14.5365 21Z" fill="#444444"/>
<path d="M13.9365 13.068H14.4365V12.3125L13.7411 12.6078L13.9365 13.068ZM13.0605 13.44L13.2509 13.9024L13.256 13.9002L13.0605 13.44ZM12.2325 13.356L11.879 13.7096L11.8851 13.7156L11.8914 13.7215L12.2325 13.356ZM12.4605 12.348L12.6269 12.8195L12.6295 12.8186L12.4605 12.348ZM14.3325 11.676L14.5015 12.1466L14.5099 12.1436L14.5182 12.1402L14.3325 11.676ZM14.9925 11.808L14.6147 12.1355L14.6264 12.1489L14.639 12.1616L14.9925 11.808ZM14.9805 20.82L15.3341 21.1736L15.3341 21.1736L14.9805 20.82ZM14.5365 20.5C14.5178 20.5 14.5026 20.499 14.4701 20.4664L13.763 21.1736C13.9704 21.381 14.2353 21.5 14.5365 21.5V20.5ZM14.4701 20.4664C14.4428 20.4391 14.4365 20.4219 14.4365 20.388H13.4365C13.4365 20.6901 13.5503 20.9609 13.763 21.1736L14.4701 20.4664ZM14.4365 20.388V13.068H13.4365V20.388H14.4365ZM13.7411 12.6078L12.8651 12.9798L13.256 13.9002L14.132 13.5282L13.7411 12.6078ZM12.8702 12.9777C12.7813 13.0142 12.7183 13.024 12.6765 13.024V14.024C12.8748 14.024 13.0678 13.9778 13.2509 13.9023L12.8702 12.9777ZM12.6765 13.024C12.6172 13.024 12.594 13.0095 12.5737 12.9905L11.8914 13.7215C12.111 13.9265 12.3839 14.024 12.6765 14.024V13.024ZM12.5861 13.0024C12.5787 12.995 12.5645 12.9835 12.5645 12.924H11.5645C11.5645 13.2165 11.6624 13.493 11.879 13.7096L12.5861 13.0024ZM12.5645 12.924C12.5645 12.8839 12.5732 12.8594 12.5864 12.838L11.7347 12.314C11.6198 12.5006 11.5645 12.7081 11.5645 12.924H12.5645ZM12.5864 12.838C12.5851 12.8401 12.5838 12.8408 12.5861 12.8391C12.5892 12.8367 12.6007 12.8287 12.6269 12.8195L12.2941 11.8765C12.0706 11.9554 11.8691 12.0956 11.7347 12.314L12.5864 12.838ZM12.6295 12.8186L14.5015 12.1466L14.1636 11.2054L12.2916 11.8774L12.6295 12.8186ZM14.5182 12.1402C14.5315 12.1349 14.5422 12.132 14.5506 12.1303L14.3545 11.1497C14.2829 11.164 14.2136 11.1851 14.1468 11.2118L14.5182 12.1402ZM14.5506 12.1303C14.5581 12.1288 14.5628 12.1282 14.5647 12.1279C14.5668 12.1277 14.5652 12.128 14.5605 12.128V11.128C14.4881 11.128 14.4184 11.1369 14.3545 11.1497L14.5506 12.1303ZM14.5605 12.128C14.5982 12.128 14.6131 12.1341 14.6142 12.1345C14.615 12.1349 14.6144 12.1347 14.6133 12.1339C14.6123 12.1332 14.6128 12.1333 14.6147 12.1355L15.3704 11.4805C15.1559 11.2331 14.864 11.128 14.5605 11.128V12.128ZM14.639 12.1616C14.642 12.1646 14.6605 12.1774 14.6605 12.252H15.6605C15.6605 11.9586 15.5671 11.6754 15.3461 11.4544L14.639 12.1616ZM14.6605 12.252V20.388H15.6605V12.252H14.6605ZM14.6605 20.388C14.6605 20.4219 14.6543 20.4391 14.627 20.4664L15.3341 21.1736C15.5468 20.9609 15.6605 20.6901 15.6605 20.388H14.6605ZM14.627 20.4664C14.6046 20.4889 14.5854 20.5 14.5365 20.5V21.5C14.8396 21.5 15.1165 21.3911 15.3341 21.1736L14.627 20.4664Z" fill="#444444"/>
</svg>
