<svg width="15" height="21" viewBox="0 0 15 21" fill="none" xmlns="http://www.w3.org/2000/svg">
<path d="M2.25 13.5C3.492 13.5 4.5 12.492 4.5 11.25V9H2.25C1.008 9 0 10.008 0 11.25C0 12.492 1.008 13.5 2.25 13.5Z" fill="#444444"/>
<path d="M0 6.75C0 5.508 1.008 4.5 2.25 4.5H4.5V9H2.25C1.008 9 0 7.992 0 6.75Z" fill="#444444"/>
<path d="M0 2.25C0 1.008 1.008 0 2.25 0H4.5V4.5H2.25C1.008 4.5 0 3.492 0 2.25Z" fill="#444444"/>
<path d="M4.5 0H6.75C7.992 0 9 1.008 9 2.25C9 3.492 7.992 4.5 6.75 4.5H4.5V0Z" fill="#444444"/>
<path d="M9 6.75C9 7.992 7.992 9 6.75 9C5.508 9 4.5 7.992 4.5 6.75C4.5 5.508 5.508 4.5 6.75 4.5C7.992 4.5 9 5.508 9 6.75Z" fill="#444444"/>
<path d="M7.48806 20C7.31206 20 7.16406 19.94 7.04406 19.82C6.92406 19.7 6.86406 19.552 6.86406 19.376V11.252C6.86406 11.068 6.92406 10.92 7.04406 10.808C7.16406 10.688 7.31206 10.628 7.48806 10.628H10.3561C10.9001 10.628 11.3761 10.736 11.7841 10.952C12.2001 11.16 12.5241 11.452 12.7561 11.828C12.9961 12.204 13.1161 12.636 13.1161 13.124C13.1161 13.516 13.0081 13.872 12.7921 14.192C12.5841 14.504 12.2961 14.752 11.9281 14.936C12.4561 15.064 12.8801 15.316 13.2001 15.692C13.5201 16.068 13.6801 16.56 13.6801 17.168C13.6801 17.72 13.5481 18.208 13.2841 18.632C13.0281 19.056 12.6681 19.392 12.2041 19.64C11.7401 19.88 11.2081 20 10.6081 20H7.48806ZM8.11206 14.48H10.3561C10.8121 14.48 11.1841 14.368 11.4721 14.144C11.7681 13.92 11.9161 13.58 11.9161 13.124C11.9161 12.668 11.7681 12.332 11.4721 12.116C11.1841 11.892 10.8121 11.78 10.3561 11.78H8.11206V14.48ZM8.11206 18.848H10.6081C11.1521 18.848 11.6001 18.708 11.9521 18.428C12.3041 18.14 12.4801 17.72 12.4801 17.168C12.4801 16.656 12.3041 16.272 11.9521 16.016C11.6001 15.76 11.1521 15.632 10.6081 15.632H8.11206V18.848Z" fill="#444444"/>
<path d="M7.04406 19.82L6.69051 20.1736L6.69051 20.1736L7.04406 19.82ZM7.04406 10.808L7.38522 11.1735L7.39152 11.1676L7.39762 11.1616L7.04406 10.808ZM11.7841 10.952L11.5501 11.394L11.5605 11.3992L11.7841 10.952ZM12.7561 11.828L12.3305 12.0906L12.3346 12.097L12.7561 11.828ZM12.7921 14.192L12.3776 13.9123L12.376 13.9146L12.7921 14.192ZM11.9281 14.936L11.7045 14.4888L10.4821 15.1L11.8103 15.4219L11.9281 14.936ZM13.2001 15.692L13.5808 15.3679L13.5808 15.3679L13.2001 15.692ZM13.2841 18.632L12.8596 18.3677L12.856 18.3736L13.2841 18.632ZM12.2041 19.64L12.4338 20.0841L12.4398 20.081L12.2041 19.64ZM8.11206 14.48H7.61206V14.98H8.11206V14.48ZM11.4721 14.144L11.1703 13.7453L11.1651 13.7493L11.4721 14.144ZM11.4721 12.116L11.1651 12.5107L11.1711 12.5154L11.1773 12.5199L11.4721 12.116ZM8.11206 11.78V11.28H7.61206V11.78H8.11206ZM8.11206 18.848H7.61206V19.348H8.11206V18.848ZM11.9521 18.428L12.2634 18.8193L12.2687 18.815L11.9521 18.428ZM11.9521 16.016L12.2461 15.6116L12.2461 15.6116L11.9521 16.016ZM8.11206 15.632V15.132H7.61206V15.632H8.11206ZM7.48806 19.5C7.43918 19.5 7.42003 19.4889 7.39762 19.4664L6.69051 20.1736C6.90809 20.3911 7.18495 20.5 7.48806 20.5V19.5ZM7.39762 19.4664C7.3752 19.444 7.36406 19.4249 7.36406 19.376H6.36406C6.36406 19.6791 6.47293 19.956 6.69051 20.1736L7.39762 19.4664ZM7.36406 19.376V11.252H6.36406V19.376H7.36406ZM7.36406 11.252C7.36406 11.2147 7.37002 11.1968 7.37243 11.1909C7.37433 11.1862 7.37687 11.1813 7.38522 11.1735L6.7029 10.4425C6.4688 10.661 6.36406 10.9479 6.36406 11.252H7.36406ZM7.39762 11.1616C7.42003 11.1391 7.43918 11.128 7.48806 11.128V10.128C7.18495 10.128 6.90809 10.2369 6.69051 10.4544L7.39762 11.1616ZM7.48806 11.128H10.3561V10.128H7.48806V11.128ZM10.3561 11.128C10.8331 11.128 11.226 11.2223 11.5501 11.3939L12.018 10.5101C11.5261 10.2497 10.9671 10.128 10.3561 10.128V11.128ZM11.5605 11.3992C11.8979 11.5679 12.15 11.7979 12.3305 12.0906L13.1816 11.5654C12.8981 11.1061 12.5022 10.7521 12.0077 10.5048L11.5605 11.3992ZM12.3346 12.097C12.5185 12.3852 12.6161 12.722 12.6161 13.124H13.6161C13.6161 12.55 13.4736 12.0228 13.1775 11.559L12.3346 12.097ZM12.6161 13.124C12.6161 13.4179 12.537 13.6762 12.3776 13.9123L13.2065 14.4717C13.4792 14.0678 13.6161 13.6141 13.6161 13.124H12.6161ZM12.376 13.9146C12.2209 14.1473 12.0024 14.3398 11.7045 14.4888L12.1517 15.3832C12.5897 15.1642 12.9472 14.8607 13.2081 14.4693L12.376 13.9146ZM11.8103 15.4219C12.2465 15.5277 12.5746 15.7285 12.8193 16.0161L13.5808 15.3679C13.1856 14.9035 12.6656 14.6003 12.0459 14.4501L11.8103 15.4219ZM12.8193 16.0161C13.0457 16.2821 13.1801 16.6503 13.1801 17.168H14.1801C14.1801 16.4697 13.9944 15.8539 13.5808 15.3679L12.8193 16.0161ZM13.1801 17.168C13.1801 17.6367 13.0691 18.0312 12.8596 18.3677L13.7085 18.8963C14.027 18.3848 14.1801 17.8033 14.1801 17.168H13.1801ZM12.856 18.3736C12.6495 18.7157 12.3581 18.9907 11.9684 19.199L12.4398 20.081C12.978 19.7933 13.4067 19.3963 13.7121 18.8904L12.856 18.3736ZM11.9744 19.1959C11.5912 19.394 11.1401 19.5 10.6081 19.5V20.5C11.2761 20.5 11.8889 20.366 12.4338 20.0841L11.9744 19.1959ZM10.6081 19.5H7.48806V20.5H10.6081V19.5ZM8.11206 14.98H10.3561V13.98H8.11206V14.98ZM10.3561 14.98C10.8949 14.98 11.3833 14.8465 11.779 14.5387L11.1651 13.7493C10.9849 13.8895 10.7292 13.98 10.3561 13.98V14.98ZM11.7738 14.5427C12.2234 14.2025 12.4161 13.6968 12.4161 13.124H11.4161C11.4161 13.4632 11.3128 13.6375 11.1703 13.7453L11.7738 14.5427ZM12.4161 13.124C12.4161 12.5519 12.2234 12.0453 11.7668 11.7121L11.1773 12.5199C11.3128 12.6187 11.4161 12.7841 11.4161 13.124H12.4161ZM11.779 11.7213C11.3833 11.4135 10.8949 11.28 10.3561 11.28V12.28C10.7292 12.28 10.9849 12.3705 11.1651 12.5107L11.779 11.7213ZM10.3561 11.28H8.11206V12.28H10.3561V11.28ZM7.61206 11.78V14.48H8.61206V11.78H7.61206ZM8.11206 19.348H10.6081V18.348H8.11206V19.348ZM10.6081 19.348C11.2406 19.348 11.8054 19.1835 12.2633 18.8193L11.6408 18.0367C11.3947 18.2325 11.0635 18.348 10.6081 18.348V19.348ZM12.2687 18.815C12.7616 18.4117 12.9801 17.8346 12.9801 17.168H11.9801C11.9801 17.6054 11.8465 17.8683 11.6354 18.041L12.2687 18.815ZM12.9801 17.168C12.9801 16.5281 12.7515 15.9791 12.2461 15.6116L11.658 16.4204C11.8567 16.5649 11.9801 16.7839 11.9801 17.168H12.9801ZM12.2461 15.6116C11.7894 15.2794 11.231 15.132 10.6081 15.132V16.132C11.0731 16.132 11.4108 16.2406 11.658 16.4204L12.2461 15.6116ZM10.6081 15.132H8.11206V16.132H10.6081V15.132ZM7.61206 15.632V18.848H8.61206V15.632H7.61206Z" fill="#444444"/>
</svg>
