<svg width="24" height="24" viewBox="0 0 24 24" fill="none" xmlns="http://www.w3.org/2000/svg">
<path d="M22 7V5C22 4.44772 21.5523 4 21 4H3C2.44772 4 2 4.44772 2 5V15C2 15.5523 2.44772 16 3 16H10" stroke="#444444" stroke-width="2" stroke-linecap="round" stroke-linejoin="round"/>
<path d="M14.25 21.5C15.492 21.5 16.5 20.492 16.5 19.25V17H14.25C13.008 17 12 18.008 12 19.25C12 20.492 13.008 21.5 14.25 21.5Z" fill="#0ACF83"/>
<path d="M12 14.75C12 13.508 13.008 12.5 14.25 12.5H16.5V17H14.25C13.008 17 12 15.992 12 14.75Z" fill="#A259FF"/>
<path d="M12 10.25C12 9.008 13.008 8 14.25 8H16.5V12.5H14.25C13.008 12.5 12 11.492 12 10.25Z" fill="#F24E1E"/>
<path d="M16.5 8H18.75C19.992 8 21 9.008 21 10.25C21 11.492 19.992 12.5 18.75 12.5H16.5V8Z" fill="#FF7262"/>
<path d="M21 14.75C21 15.992 19.992 17 18.75 17C17.508 17 16.5 15.992 16.5 14.75C16.5 13.508 17.508 12.5 18.75 12.5C19.992 12.5 21 13.508 21 14.75Z" fill="#1ABCFE"/>
</svg>
