<svg width="24" height="24" viewBox="0 0 24 24" fill="none" xmlns="http://www.w3.org/2000/svg">
<path d="M22 5V3C22 2.44772 21.5523 2 21 2H3C2.44772 2 2 2.44772 2 3V13C2 13.5523 2.44772 14 3 14H10" stroke="#444444" stroke-width="2" stroke-linecap="round" stroke-linejoin="round"/>
<path d="M14.25 19.5C15.492 19.5 16.5 18.492 16.5 17.25V15H14.25C13.008 15 12 16.008 12 17.25C12 18.492 13.008 19.5 14.25 19.5Z" fill="#444444"/>
<path d="M12 12.75C12 11.508 13.008 10.5 14.25 10.5H16.5V15H14.25C13.008 15 12 13.992 12 12.75Z" fill="#444444"/>
<path d="M12 8.25C12 7.008 13.008 6 14.25 6H16.5V10.5H14.25C13.008 10.5 12 9.492 12 8.25Z" fill="#444444"/>
<path d="M16.5 6H18.75C19.992 6 21 7.008 21 8.25C21 9.492 19.992 10.5 18.75 10.5H16.5V6Z" fill="#444444"/>
<path d="M21 12.75C21 13.992 19.992 15 18.75 15C17.508 15 16.5 13.992 16.5 12.75C16.5 11.508 17.508 10.5 18.75 10.5C19.992 10.5 21 11.508 21 12.75Z" fill="#444444"/>
</svg>
