<svg width="50" height="50" viewBox="0 0 50 50" fill="none" xmlns="http://www.w3.org/2000/svg">
<path fill-rule="evenodd" clip-rule="evenodd" d="M25 0C38.8071 0 50 11.1929 50 25C50 38.8071 38.8071 50 25 50C11.1929 50 0 38.8071 0 25C0 11.1929 11.1929 0 25 0ZM23.5 46.9497V26.5H13.1643L6.85004 37.4367C10.5498 42.8257 16.5873 46.4842 23.5 46.9497ZM35.1036 23.5L25 6L14.8964 23.5H35.1036ZM26.5 26.5V46.9497C33.4127 46.4842 39.4502 42.8257 43.15 37.4366L36.8357 26.5H26.5ZM44.8804 34.4338L26.7727 3.07038C38.094 3.97306 47 13.4465 47 25C47 28.3762 46.2395 31.5748 44.8804 34.4338ZM23.2273 3.07038L5.11962 34.4338C3.76053 31.5748 3 28.3762 3 25C3 13.4465 11.906 3.97306 23.2273 3.07038Z" fill="#444444"/>
</svg>
