<svg width="40" height="40" viewBox="0 0 40 40" fill="none" xmlns="http://www.w3.org/2000/svg">
<path fill-rule="evenodd" clip-rule="evenodd" d="M20 0C31.0457 0 40 8.9543 40 20C40 31.0457 31.0457 40 20 40C8.9543 40 0 31.0457 0 20C0 8.9543 8.9543 0 20 0ZM18.8 37.5597V21.2H10.5315L5.48003 29.9493C8.43982 34.2605 13.2698 37.1874 18.8 37.5597ZM28.0829 18.8L20 4.8L11.9171 18.8H28.0829ZM21.2 21.2V37.5597C26.7302 37.1874 31.5602 34.2605 34.52 29.9493L29.4685 21.2H21.2ZM35.9043 27.5471L21.4181 2.45631C30.4752 3.17845 37.6 10.7572 37.6 20C37.6 22.701 36.9916 25.2599 35.9043 27.5471ZM18.5819 2.45631L4.0957 27.5471C3.00843 25.2599 2.4 22.701 2.4 20C2.4 10.7572 9.52479 3.17845 18.5819 2.45631Z" fill="black"/>
</svg>
