<svg width="52" height="52" viewBox="0 0 52 52" fill="none" xmlns="http://www.w3.org/2000/svg">
<path fill-rule="evenodd" clip-rule="evenodd" d="M26 1C39.8071 1 51 12.1929 51 26C51 39.8071 39.8071 51 26 51C12.1929 51 1 39.8071 1 26C1 12.1929 12.1929 1 26 1ZM24.5 47.9497V27.5H14.1643L7.85004 38.4367C11.5498 43.8257 17.5873 47.4842 24.5 47.9497ZM36.1036 24.5L26 7L15.8964 24.5H36.1036ZM27.5 27.5V47.9497C34.4127 47.4842 40.4502 43.8257 44.15 38.4366L37.8357 27.5H27.5ZM45.8804 35.4338L27.7727 4.07038C39.094 4.97306 48 14.4465 48 26C48 29.3762 47.2395 32.5748 45.8804 35.4338ZM24.2273 4.07038L6.11962 35.4338C4.76053 32.5748 4 29.3762 4 26C4 14.4465 12.906 4.97306 24.2273 4.07038Z" fill="#999999" stroke="#999999"/>
</svg>
