<svg width="24" height="24" viewBox="0 0 24 24" fill="none" xmlns="http://www.w3.org/2000/svg">
<path fill-rule="evenodd" clip-rule="evenodd" d="M4.32074 2.0295L5.19016 1.95344C5.88161 1.89294 6.42288 2.53801 6.24324 3.20845C6.13443 3.61453 5.78327 3.90919 5.36447 3.94583L4.49506 4.02189C3.94487 4.07003 3.53788 4.55506 3.58602 5.10524L4.09961 10.9756C4.10977 11.0918 4.09953 11.2089 4.06934 11.3216L3.77891 12.4055C3.68495 12.7561 3.36716 13 3.0041 13C2.58819 13 2.24127 12.6821 2.20502 12.2678L1.59363 5.27955C1.44922 3.629 2.6702 2.17391 4.32074 2.0295Z" fill="black"/>
<rect x="2" y="15.5" width="20" height="6.5" rx="1.5" stroke="black" stroke-width="2"/>
<circle cx="12.2306" cy="6.51135" r="1.25" transform="rotate(15 12.2306 6.51135)" stroke="black" stroke-width="1.5"/>
<path fill-rule="evenodd" clip-rule="evenodd" d="M11.2422 0.551698C9.64182 0.122872 7.99681 1.07262 7.56798 2.67302L4.97979 12.3323C4.9661 12.3834 4.95381 12.4345 4.9429 12.4857C4.88381 12.7629 5.11438 13 5.39781 13H6.7305C6.81751 13 6.88912 12.934 6.91164 12.8499L9.49983 3.19066C9.64277 2.65719 10.1911 2.34061 10.7246 2.48355L20.3838 5.07174C20.9173 5.21468 21.2339 5.76302 21.0909 6.29648L19.4634 12.3706C19.3783 12.6881 19.6176 13 19.9464 13H20.9816C21.2079 13 21.406 12.848 21.4646 12.6294L23.0228 6.81412C23.4516 5.21372 22.5019 3.56871 20.9015 3.13989L11.2422 0.551698Z" fill="black"/>
<path fill-rule="evenodd" clip-rule="evenodd" d="M13.1896 11.4295C14.1116 11.0255 15.1898 11.2831 15.8296 12.0603L16.6031 12.9999H18.4348C18.4109 12.8846 18.3594 12.7733 18.2794 12.6761L16.9877 11.107C15.9213 9.81166 14.1243 9.38227 12.5876 10.0556L8.80077 11.7147C8.42138 11.8809 8.24857 12.3232 8.41479 12.7026C8.46819 12.8245 8.55009 12.9251 8.64923 12.9999H9.60515L13.1896 11.4295Z" fill="black"/>
<path d="M8 18.75H16" stroke="black" stroke-width="1.5" stroke-linecap="round"/>
</svg>
