<svg width="24" height="24" viewBox="0 0 24 24" fill="none" xmlns="http://www.w3.org/2000/svg">
<path fill-rule="evenodd" clip-rule="evenodd" d="M10.3281 5C10.052 5 9.82812 5.22386 9.82812 5.5V6C9.82812 6.27614 9.60427 6.5 9.32812 6.5H8.32812C8.05198 6.5 7.82812 6.27614 7.82812 6V5.5C7.82812 4.11929 8.94741 3 10.3281 3H17.3281C18.7088 3 19.8281 4.11929 19.8281 5.5V10.7741C19.8281 11.188 19.3303 11.4469 18.9359 11.3213C18.7468 11.2611 18.5524 11.2197 18.356 11.1971C18.0707 11.1643 17.8281 10.9401 17.8281 10.653V5.5C17.8281 5.22386 17.6043 5 17.3281 5H10.3281Z" fill="black"/>
<path d="M5 10.5C5 10.2239 5.22386 10 5.5 10H12.5C12.7761 10 13 10.2239 13 10.5V14.7841C13 14.9636 13.2121 15.1145 13.3892 15.0847C13.4068 15.0817 13.4022 15.0807 13.4187 15.074C13.9733 14.8495 14.4435 14.4663 14.7745 13.9791C14.9422 13.7324 15 13.4316 15 13.1333V10.5C15 9.11929 13.8807 8 12.5 8H5.5C4.11929 8 3 9.11929 3 10.5V19.5C3 20.8807 4.11929 22 5.5 22H12.5C12.8199 22 13.1258 21.9399 13.4069 21.8304C13.8439 21.6602 13.83 21.0881 13.3938 20.9161L13.0761 20.7908C12.9121 20.7261 12.7588 20.6506 12.616 20.5656C12.1268 20.2745 11.6018 20 11.0325 20H5.5C5.22386 20 5 19.7761 5 19.5V10.5Z" fill="black"/>
<path d="M17.5116 14.2383C17.6864 13.7951 18.3136 13.7951 18.4884 14.2383L19.3306 16.3737C19.3839 16.509 19.491 16.6161 19.6263 16.6694L21.7617 17.5116C22.2049 17.6864 22.2049 18.3136 21.7617 18.4884L19.6263 19.3306C19.491 19.3839 19.3839 19.491 19.3306 19.6263L18.4884 21.7617C18.3136 22.2049 17.6864 22.2049 17.5116 21.7617L16.6694 19.6263C16.6161 19.491 16.509 19.3839 16.3737 19.3306L14.2383 18.4884C13.7951 18.3136 13.7951 17.6864 14.2383 17.5116L16.3737 16.6694C16.509 16.6161 16.6161 16.509 16.6694 16.3737L17.5116 14.2383Z" stroke="black" stroke-width="1.5"/>
</svg>
