<svg width="24" height="24" viewBox="0 0 24 24" fill="none" xmlns="http://www.w3.org/2000/svg">
<circle cx="17" cy="12" r="2.25" stroke="black" stroke-width="1.5"/>
<path fill-rule="evenodd" clip-rule="evenodd" d="M19.8293 13C19.9398 12.6872 20 12.3506 20 12C20 11.6494 19.9398 11.3128 19.8293 11H21C21.5523 11 22 11.4477 22 12C22 12.5523 21.5523 13 21 13H19.8293ZM14.1707 13H3C2.44772 13 2 12.5523 2 12C2 11.4477 2.44772 11 3 11H14.1707C14.0602 11.3128 14 11.6494 14 12C14 12.3506 14.0602 12.6872 14.1707 13Z" fill="black"/>
<circle cx="7" cy="19" r="2.25" stroke="black" stroke-width="1.5"/>
<path fill-rule="evenodd" clip-rule="evenodd" d="M9.82929 20C9.93985 19.6872 10 19.3506 10 19C10 18.6494 9.93985 18.3128 9.82929 18H21C21.5523 18 22 18.4477 22 19C22 19.5523 21.5523 20 21 20H9.82929ZM4.17071 20H3C2.44772 20 2 19.5523 2 19C2 18.4477 2.44772 18 3 18H4.17071C4.06015 18.3128 4 18.6494 4 19C4 19.3506 4.06015 19.6872 4.17071 20Z" fill="black"/>
<circle cx="11" cy="5" r="2.25" stroke="black" stroke-width="1.5"/>
<path fill-rule="evenodd" clip-rule="evenodd" d="M13.8293 6C13.9398 5.68722 14 5.35064 14 5C14 4.64936 13.9398 4.31278 13.8293 4H21C21.5523 4 22 4.44772 22 5C22 5.55228 21.5523 6 21 6H13.8293ZM8.17071 6H3C2.44772 6 2 5.55228 2 5C2 4.44772 2.44772 4 3 4H8.17071C8.06015 4.31278 8 4.64936 8 5C8 5.35064 8.06015 5.68722 8.17071 6Z" fill="black"/>
</svg>
