<svg width="1440" height="771" viewBox="0 0 1440 771" fill="none" xmlns="http://www.w3.org/2000/svg">
<path fill-rule="evenodd" clip-rule="evenodd" d="M1066.37 9.42871C1073.89 9.42871 1079.99 15.5286 1079.99 23.0531C1079.99 30.5776 1073.89 36.6775 1066.37 36.6775H1052.94C1054.2 38.7418 1054.92 41.1672 1054.92 43.7621L1093.62 43.7621C1101.14 43.7621 1107.24 49.8619 1107.24 57.3865C1107.24 64.911 1101.14 71.0109 1093.62 71.0109H1026.59C1019.06 71.0109 1012.96 64.911 1012.96 57.3865L952.196 57.3865C950.934 63.6053 945.436 68.2861 938.844 68.2861H871.812C864.288 68.2861 858.188 62.1862 858.188 54.6617C858.188 47.1371 864.288 41.0373 871.812 41.0373H926.038C927.3 34.8184 932.798 30.1377 939.389 30.1377H987.697C986.438 28.0734 985.712 25.648 985.712 23.0531C985.712 15.5286 991.812 9.42871 999.336 9.42871H1066.37Z" fill="white"/>
<path fill-rule="evenodd" clip-rule="evenodd" d="M1562.3 115.699C1569.82 115.699 1575.92 121.799 1575.92 129.323L1592.82 129.323C1600.34 129.323 1606.44 135.423 1606.44 142.948C1606.44 150.472 1600.34 156.572 1592.82 156.572H1537.77C1530.25 156.572 1524.15 150.472 1524.15 142.948H1494.17C1494.17 149.772 1489.16 155.424 1482.61 156.417C1483.73 158.394 1484.37 160.678 1484.37 163.112L1576.47 163.112C1583.99 163.112 1590.09 169.211 1590.09 176.736C1590.09 184.261 1583.99 190.36 1576.47 190.36H1463.66C1456.13 190.36 1450.03 184.261 1450.03 176.736L1403.71 176.736C1396.18 176.736 1390.08 170.636 1390.08 163.112C1390.08 155.587 1396.18 149.487 1403.71 149.487H1422.82C1421.75 147.546 1421.15 145.317 1421.15 142.948C1421.15 135.423 1427.25 129.323 1434.77 129.323L1457.66 129.323C1457.66 121.799 1463.76 115.699 1471.29 115.699H1562.3Z" fill="white"/>
<path fill-rule="evenodd" clip-rule="evenodd" d="M685.431 45.9421C692.956 45.9421 699.056 39.8423 699.056 32.3177C699.056 24.7932 692.956 18.6934 685.431 18.6934H579.706H579.706C572.181 18.6934 566.081 24.7932 566.081 32.3177L497.96 32.3178H497.96C490.435 32.3179 484.335 38.4177 484.335 45.9422C484.335 49.259 485.521 52.299 487.491 54.6617L432.018 54.6617C432.018 47.3197 426.21 41.3341 418.938 41.048V41.0373H418.393H356.811H356.811C349.286 41.0373 343.187 47.1371 343.187 54.6617C343.187 62.1862 349.286 68.2861 356.811 68.2861H356.811L382.97 68.2861C382.97 75.8106 389.07 81.9105 396.594 81.9105H396.594H469.072C468.72 83.121 468.531 84.4011 468.531 85.7253C468.531 93.2498 474.631 99.3496 482.155 99.3497H482.155L521.393 99.3498C521.393 101.079 521.716 102.733 522.303 104.254H472.891C472.891 104.254 472.891 104.254 472.891 104.254C465.366 104.254 459.266 110.354 459.266 117.879C459.266 125.403 465.366 131.503 472.891 131.503C472.891 131.503 472.891 131.503 472.891 131.503H556.272C556.272 131.503 556.272 131.503 556.272 131.503C563.796 131.503 569.896 125.403 569.896 117.879C569.896 116.15 569.574 114.496 568.987 112.974H662.542H662.542C670.067 112.974 676.166 106.874 676.166 99.3498C676.166 91.8253 670.067 85.7256 662.542 85.7254H662.542L601.505 85.7253C601.505 78.2008 595.405 72.101 587.88 72.101H544.286C544.639 70.8904 544.827 69.6103 544.827 68.2861C544.827 64.9693 543.642 61.9293 541.672 59.5665H632.569C640.093 59.5665 646.193 53.4667 646.193 45.9422L685.431 45.9421Z" fill="white"/>
<path fill-rule="evenodd" clip-rule="evenodd" d="M824.696 132.593H763.363C763.363 132.593 763.363 132.593 763.363 132.593C755.838 132.593 749.738 126.493 749.738 118.969C749.738 111.444 755.838 105.344 763.363 105.344C763.363 105.344 763.363 105.344 763.363 105.344H865.273H865.818V105.355C873.09 105.641 878.897 111.627 878.897 118.969C878.897 121.12 878.399 123.154 877.511 124.963L898.517 124.963C898.517 117.439 904.616 111.339 912.141 111.339H1004.24C1011.77 111.339 1017.87 117.439 1017.87 124.963C1017.87 132.488 1011.77 138.588 1004.24 138.588L957.374 138.588C957.374 140.525 956.969 142.369 956.24 144.038H983.533C991.057 144.038 997.157 150.137 997.157 157.662C997.157 165.187 991.057 171.286 983.533 171.286H925.765H925.765C918.241 171.286 912.141 165.187 912.141 157.662C912.141 155.724 912.545 153.881 913.274 152.212H891.388C892.117 153.881 892.522 155.724 892.522 157.662C892.522 165.187 886.422 171.286 878.898 171.286H878.897L852.739 171.286C852.739 178.811 846.639 184.911 839.114 184.911H839.114H733.389H733.389C725.864 184.911 719.765 178.811 719.765 171.286C719.765 163.762 725.864 157.662 733.389 157.662H733.389L785.706 157.662C785.706 150.137 791.806 144.038 799.331 144.038H799.331H824.444C823.714 142.369 823.31 140.525 823.31 138.588C823.31 136.437 823.808 134.402 824.696 132.593Z" fill="white"/>
<path fill-rule="evenodd" clip-rule="evenodd" d="M973.178 324.424L941.024 324.424C941.024 331.949 934.924 338.049 927.4 338.049C927.4 338.049 927.4 338.049 927.4 338.049H884.179C884.641 339.418 884.892 340.884 884.892 342.409C884.892 343.933 884.641 345.399 884.179 346.768H891.431H891.432C898.956 346.768 905.056 352.868 905.056 360.393C905.056 367.917 898.956 374.017 891.432 374.017H891.431H836.934H836.934C829.409 374.017 823.309 367.917 823.309 360.393C823.309 358.868 823.56 357.402 824.022 356.033H791.701H791.701C784.176 356.033 778.077 349.933 778.077 342.409C778.077 334.884 784.176 328.784 791.701 328.784H791.701H834.922C834.46 327.415 834.209 325.949 834.209 324.424C834.209 316.9 840.309 310.8 847.833 310.8C847.833 310.8 847.834 310.8 847.834 310.8L905.056 310.8C905.056 303.275 911.156 297.176 918.68 297.176H918.68H973.178H973.178C980.703 297.176 986.802 303.275 986.802 310.8C986.802 318.324 980.703 324.424 973.178 324.424H973.178Z" fill="white"/>
<path fill-rule="evenodd" clip-rule="evenodd" d="M432.717 260.663H340.728H340.728C328.027 260.663 317.731 270.959 317.731 283.66C317.731 283.66 317.731 283.66 317.731 283.66H221.142C208.441 283.66 198.145 293.956 198.145 306.657C198.145 309.231 198.568 311.706 199.348 314.016H126.394C113.693 314.016 103.397 324.312 103.397 337.013C103.397 349.714 113.693 360.01 126.394 360.01H180.951C180.171 362.321 179.748 364.796 179.748 367.369C179.748 380.07 190.044 390.366 202.745 390.367H202.745H294.734C307.435 390.367 317.731 380.07 317.731 367.369C317.731 354.668 307.435 344.372 294.734 344.372H294.734H282.492C283.272 342.062 283.695 339.587 283.695 337.013C283.695 334.44 283.272 331.965 282.492 329.654H355.446C355.446 329.654 355.446 329.654 355.446 329.654C368.147 329.654 378.444 319.358 378.444 306.657L432.717 306.657C445.418 306.657 455.714 296.361 455.714 283.66C455.714 270.959 445.418 260.663 432.717 260.663Z" fill="white"/>
<path fill-rule="evenodd" clip-rule="evenodd" d="M83.2332 177.826C90.7577 177.826 96.8575 183.926 96.8575 191.451C96.8575 198.975 90.7577 205.075 83.2332 205.075L66.3392 205.075C66.3392 207.226 65.8407 209.261 64.9529 211.07H144.816C152.34 211.07 158.44 217.17 158.44 224.694L178.059 224.694C185.583 224.694 191.683 230.794 191.683 238.319C191.683 245.843 185.583 251.943 178.059 251.943H150.098C150.56 253.312 150.81 254.778 150.81 256.303C150.81 263.827 144.71 269.927 137.186 269.927H72.8788C65.3543 269.927 59.2544 263.827 59.2544 256.303C59.2544 248.778 65.3542 242.678 72.8788 242.678H110.65C110.187 241.309 109.937 239.843 109.937 238.319H41.8154C41.8154 245.843 35.7156 251.943 28.191 251.943H-32.0529C-31.1652 253.752 -30.6667 255.786 -30.6666 257.937H17.2914C24.8159 257.937 30.9158 264.037 30.9158 271.562C30.9158 272.495 30.8219 273.406 30.6432 274.287H46.7198C54.2444 274.287 60.3442 280.387 60.3442 287.911C60.3442 295.436 54.2444 301.536 46.7198 301.536H-13.2275C-20.752 301.536 -26.8518 295.436 -26.8518 287.911C-26.8518 286.978 -26.758 286.067 -26.5793 285.186H-39.1378C-38.25 286.995 -37.7515 289.03 -37.7515 291.181C-37.7515 298.706 -43.8513 304.805 -51.3759 304.805H-120.043C-127.567 304.805 -133.667 298.706 -133.667 291.181C-133.667 283.656 -127.567 277.557 -120.043 277.557H-91.4074C-92.2952 275.748 -92.7937 273.713 -92.7937 271.562H-184.35C-191.874 271.562 -197.974 265.462 -197.974 257.938C-197.974 250.413 -191.874 244.313 -184.35 244.313H-80.5077C-81.3955 242.504 -81.894 240.47 -81.894 238.319C-81.894 230.794 -75.7942 224.694 -68.2696 224.694L-12.1374 224.694C-12.1374 222.543 -11.6389 220.508 -10.7511 218.699H-43.7458C-50.1432 218.699 -55.5107 214.29 -56.9753 208.345L-77.5346 208.345C-77.5346 215.869 -83.6344 221.969 -91.159 221.969H-168.545C-176.07 221.969 -182.17 215.869 -182.17 208.345C-182.17 200.82 -176.07 194.721 -168.545 194.721L-111.323 194.72C-111.323 187.196 -105.223 181.096 -97.6986 181.096H-29.0316C-22.6343 181.096 -17.2667 185.505 -15.8022 191.451L15.6562 191.451C15.6562 183.926 21.756 177.826 29.2806 177.826H83.2332Z" fill="white"/>
<path fill-rule="evenodd" clip-rule="evenodd" d="M50.5347 42.1271C50.5347 34.6025 44.4349 28.5027 36.9103 28.5027H-65.0001C-72.5246 28.5027 -78.6245 34.6025 -78.6245 42.1271C-78.6245 49.6516 -72.5246 55.7515 -65.0001 55.7515L-41.5664 55.7515C-41.5664 58.1214 -40.9613 60.35 -39.8972 62.2911H-93.8839C-101.408 62.2911 -107.508 68.391 -107.508 75.9155C-107.508 83.4401 -101.408 89.5399 -93.8839 89.5399H22.1959C29.7204 89.5399 35.8203 83.4401 35.8203 75.9155C35.8203 73.5456 35.2152 71.3171 34.151 69.3759H87.0478C94.5724 69.3759 100.672 63.276 100.672 55.7515C100.672 48.2269 94.5723 42.1271 87.0478 42.1271L50.5347 42.1271Z" fill="white"/>
<path fill-rule="evenodd" clip-rule="evenodd" d="M327.382 89.54C334.907 89.54 341.006 95.6399 341.006 103.164C341.006 110.689 334.907 116.789 327.382 116.789H236.882C237.946 118.73 238.551 120.959 238.551 123.328L283.239 123.329C290.764 123.329 296.863 129.428 296.863 136.953C296.863 144.477 290.764 150.577 283.239 150.577H260.53C261.118 152.099 261.44 153.753 261.44 155.482C261.44 163.007 255.34 169.107 247.816 169.107H164.979C157.455 169.107 151.355 163.007 151.355 155.482C151.355 147.958 157.455 141.858 164.979 141.858H210.577C209.989 140.336 209.667 138.682 209.667 136.953L114.297 136.953C106.772 136.953 100.672 130.853 100.672 123.328C100.672 115.804 106.772 109.704 114.297 109.704H165.559C164.494 107.763 163.889 105.534 163.889 103.164C163.889 95.6399 169.989 89.54 177.514 89.54H327.382Z" fill="white"/>
<path fill-rule="evenodd" clip-rule="evenodd" d="M1463.66 35.0425C1471.18 35.0425 1477.28 41.1423 1477.28 48.6669C1477.28 56.1914 1471.18 62.2913 1463.66 62.2913H1444.22C1444.8 63.8131 1445.13 65.4669 1445.13 67.196C1445.13 74.7205 1439.03 80.8203 1431.5 80.8203H1309.58C1309.84 81.8679 1309.97 82.9631 1309.97 84.0903L1320.33 84.0903C1327.85 84.0903 1333.95 90.1902 1333.95 97.7147C1333.95 105.239 1327.85 111.339 1320.33 111.339H1299.87C1300.75 113.148 1301.25 115.183 1301.25 117.334C1301.25 124.858 1295.15 130.958 1287.63 130.958L1218.42 130.958C1218.42 138.483 1212.32 144.583 1204.79 144.583H1135.58C1128.06 144.583 1121.96 138.483 1121.96 130.958C1121.96 123.434 1128.06 117.334 1135.58 117.334L1152.47 117.334C1152.47 109.809 1158.57 103.709 1166.1 103.709H1244.87C1243.98 101.9 1243.49 99.8658 1243.49 97.7147L1229.32 97.7147C1221.79 97.7147 1215.69 91.6148 1215.69 84.0903L1186.26 84.0903C1178.74 84.0903 1172.64 77.9904 1172.64 70.4659C1172.64 62.9413 1178.74 56.8415 1186.26 56.8415H1220.05C1227.58 56.8415 1233.68 62.9413 1233.68 70.4659L1269.49 70.4659C1269.24 69.4184 1269.1 68.3231 1269.1 67.196C1269.1 59.6714 1275.2 53.5716 1282.72 53.5716H1382.82C1382.23 52.0497 1381.91 50.3959 1381.91 48.6669C1381.91 41.1423 1388.01 35.0425 1395.53 35.0425H1463.66Z" fill="white"/>
<path fill-rule="evenodd" clip-rule="evenodd" d="M1073.79 367.018C1080.56 367.018 1086.05 372.505 1086.05 379.273L1109.09 379.273C1115.85 379.273 1121.34 384.76 1121.34 391.528L1128.2 391.528C1134.97 391.528 1140.46 397.015 1140.46 403.783C1140.46 410.551 1134.97 416.038 1128.2 416.038H1073.3C1072.78 416.038 1072.26 416.005 1071.76 415.942C1069.56 419.249 1065.8 421.43 1061.54 421.43H1006.14C999.376 421.43 993.889 415.944 993.889 409.175V409.175H979.183C972.415 409.175 966.928 403.688 966.928 396.92C966.928 390.152 972.415 384.665 979.183 384.665H1007.39C1006.59 383.038 1006.14 381.208 1006.14 379.273C1006.14 372.505 1011.63 367.018 1018.4 367.018H1073.79Z" fill="white"/>
</svg>
