<svg width="1440" height="663" viewBox="0 0 1440 663" fill="none" xmlns="http://www.w3.org/2000/svg">
<path d="M613.442 156.043L631.067 150.756V200.356H613.442V156.043Z" fill="#6589AA"/>
<rect x="630.067" y="156.483" width="20.6459" height="52.8736" fill="#6589AA"/>
<path d="M649.713 175.093L657.266 172.575L664.819 175.093V212.356H649.713V175.093Z" fill="#6589AA"/>
<path d="M859.569 171.19L867.122 168.673L874.676 171.19V208.454H859.569V171.19Z" fill="#6589AA"/>
<path d="M1153.97 175.449L1161.52 172.931L1169.08 175.449V212.712H1153.97V175.449Z" fill="#6589AA"/>
<path d="M1034.58 193.65L1042.05 191.322L1049.52 193.65V228.103H1034.58V193.65Z" fill="#6589AA"/>
<path d="M1020.64 199.47L1028.11 197.069L1035.58 199.47V235H1020.64V199.47Z" fill="#6589AA"/>
<path d="M1060.17 192.573L1067.64 190.172L1075.11 192.573V228.103H1060.17V192.573Z" fill="#6589AA"/>
<path d="M915 188.018L923.621 185.69L932.241 188.018V222.471H915V188.018Z" fill="#6589AA"/>
<path d="M931.241 184.538L939.862 177.896L948.483 184.538V223.299H931.241V184.538Z" fill="#6589AA"/>
<path d="M663.819 170.742L682.451 174.015V222.356H663.819V170.742Z" fill="#6589AA"/>
<path d="M769 169L785 172.044V217H769V169Z" fill="#6589AA"/>
<path d="M873.676 156.839L892.307 160.112V208.454H873.676V156.839Z" fill="#6589AA"/>
<path d="M967.172 184L979.816 187.061V232.276H967.172V184Z" fill="#6589AA"/>
<path d="M1154.97 183.276L1142.33 186.191V229.253H1154.97V183.276Z" fill="#6589AA"/>
<path d="M1083.45 190.172L1096.1 192.869V232.701H1083.45V190.172Z" fill="#6589AA"/>
<rect x="688.049" y="195.668" width="13.0925" height="26.6886" fill="#6589AA"/>
<rect x="891" y="176" width="13" height="34" fill="#6589AA"/>
<rect x="903" y="182" width="13" height="34" fill="#6589AA"/>
<rect x="1074.11" y="195.919" width="10.3448" height="26.4368" fill="#6589AA"/>
<rect x="1048.52" y="199.368" width="13.0925" height="26.6886" fill="#6589AA"/>
<rect x="1167.91" y="180.977" width="13.0925" height="26.6886" fill="#6589AA"/>
<rect x="1179.56" y="171.781" width="17.2414" height="29.8851" fill="#6589AA"/>
<rect x="947.483" y="190.896" width="20.6897" height="32.1839" fill="#6589AA"/>
<rect x="1371" y="119" width="29" height="60" fill="#6589AA"/>
<rect x="1340" y="100" width="21" height="79" fill="#6589AA"/>
<rect x="1320" y="111" width="21" height="76" fill="#6589AA"/>
<rect x="1307" y="125" width="14" height="76" fill="#6589AA"/>
<rect x="1292" y="107" width="16" height="76" fill="#6589AA"/>
<rect x="1255" y="115" width="22" height="72" fill="#6589AA"/>
<rect x="1239" y="123" width="17" height="64" fill="#6589AA"/>
<rect x="1223" y="136" width="17" height="59" fill="#6589AA"/>
<path d="M1207 149L1224 145V202H1207V149Z" fill="#6589AA"/>
<path d="M700.141 187.611L707.695 182.575L715.248 187.611V222.356H700.141V187.611Z" fill="#6589AA"/>
<path d="M730 181.696L738.5 176L747 181.696V221H730V181.696Z" fill="#6589AA"/>
<path d="M746 175.835L758 169L770 175.835V223H746V175.835Z" fill="#6589AA"/>
<rect x="714.248" y="169.483" width="17.121" height="52.8736" fill="#6589AA"/>
<rect x="1399" y="98" width="21" height="72" fill="#6589AA"/>
<rect x="1419" y="108" width="21" height="66" fill="#6589AA"/>
<rect x="483.572" y="122" width="16" height="48" fill="#6589AA"/>
<path d="M461.286 136.286L475.571 138.424V170H461.286V136.286Z" fill="#6589AA"/>
<path d="M435.429 140.553L448.857 136.286L462.286 140.553V170H435.429V140.553Z" fill="#6589AA"/>
<path d="M498.572 130.571L509.143 124.857L519.714 130.571V170H498.572V130.571Z" fill="#6589AA"/>
<rect x="413" y="136.286" width="19.4286" height="33.7143" fill="#6589AA"/>
<path d="M578.5 152C627.5 151 664 258.5 755 209C846 159.5 864 222.5 1024.5 223.5C1185 224.5 1206.5 155.5 1288.5 169C1370.5 182.5 1440 155.5 1440 155.5V663H0V133.5C0 133.5 72.5 163 119.5 149C166.5 135 208 120.5 272.5 125C337 129.5 394 164.5 454 164.5C514 164.5 529.5 153 578.5 152Z" fill="#6589AA"/>
<path fill-rule="evenodd" clip-rule="evenodd" d="M286.639 0C287.139 0 287.545 0.405995 287.545 0.906817V36.8772H288.755C289.088 36.8772 289.359 37.1479 289.359 37.4818V45.9454H291.173C291.84 45.9454 292.382 46.4867 292.382 47.1545V49.5727C292.382 50.2404 291.84 50.7818 291.173 50.7818H273.04L274.732 70.1272H291.173C291.84 70.1272 292.382 70.6685 292.382 71.3363V73.7545C292.382 74.4222 291.84 74.9636 291.173 74.9636H275.155L278.435 112.445H291.173C291.84 112.445 292.382 112.987 292.382 113.655V117.282H297.218V133H215V117.282H219.836V113.655C219.836 112.987 220.378 112.445 221.045 112.445H233.179L236.459 74.9636H221.045C220.378 74.9636 219.836 74.4222 219.836 73.7545V71.3363C219.836 70.6685 220.378 70.1272 221.045 70.1272H236.882L238.574 50.7818H221.045C220.378 50.7818 219.836 50.2404 219.836 49.5727V47.1545C219.836 46.4867 220.378 45.9454 221.045 45.9454H224.673V36.8772H225.882V15.4158C225.882 14.915 226.288 14.509 226.789 14.509C227.29 14.509 227.696 14.915 227.696 15.4158V36.8772H228.905V45.9454H232.532V41.1091C232.532 40.7753 232.803 40.5046 233.136 40.5046H234.346V39.2954H236.159V0.906817C236.159 0.405995 236.565 0 237.066 0C237.567 0 237.973 0.405996 237.973 0.906818V39.2954H239.786V40.5046H240.996C241.329 40.5046 241.6 40.7753 241.6 41.1091V45.9454H248.25V42.9228H257.923V45.9454H262.154V15.7182C262.154 15.3843 262.425 15.1136 262.759 15.1136C263.093 15.1136 263.364 15.3843 263.364 15.7182V45.9454H266.386V37.4818H267.596V12.3932C267.596 11.8924 268.002 11.4864 268.502 11.4864C269.003 11.4864 269.409 11.8924 269.409 12.3932V37.4818H270.618V45.9454H283.918V37.4818C283.918 37.1479 284.189 36.8772 284.523 36.8772H285.732V0.906818C285.732 0.405996 286.138 0 286.639 0ZM273.645 99.3181L274.793 112.445H264.287L258.462 108.805L273.645 99.3181ZM271.689 76.9632L273.219 94.4494L258.462 85.2283L271.689 76.9632ZM269.633 53.4615L270.925 68.2295L258.462 60.4418L269.633 53.4615ZM236.821 112.445H248.073L253.899 108.805L238.008 98.8756L236.821 112.445ZM238.352 94.9431L253.899 85.2283L239.964 76.5206L238.352 94.9431ZM240.646 68.7233L253.899 60.4418L242.02 53.0189L240.646 68.7233ZM272.764 97.0168L256.18 107.38L239.596 97.0169L256.181 86.654L272.764 97.0168ZM252.637 112.445L256.18 110.231L259.724 112.445H252.637ZM242.035 74.9636L256.181 83.8025L270.326 74.9636H242.035ZM269.358 50.7818L256.181 59.0161L243.003 50.7818H269.358ZM242.962 70.1272L256.181 61.8676L269.399 70.1272H242.962Z" fill="#6589AA"/>
</svg>
