<svg width="1440" height="295" viewBox="0 0 1440 295" fill="none" xmlns="http://www.w3.org/2000/svg">
<path d="M1164 143.401C1295.5 134.401 1440 200.401 1440 200.401V295H0V200.401C0 200.401 15 186 62 200.401C109 214.802 192.5 169.001 237 148C281.5 127 318.5 103 426.5 103C534.5 103 733.5 174.401 884 184.901C1034.5 195.401 1032.5 152.401 1164 143.401Z" fill="#405E7A"/>
<path d="M771.864 59.6833L818.612 67.2507V179.014H771.864V59.6833Z" fill="#405E7A"/>
<path d="M482 35L524 41.278V134H482V35Z" fill="#405E7A"/>
<path d="M0 104.105L25.2194 89L50.4389 104.105V208.331H0V104.105Z" fill="#405E7A"/>
<path d="M49 125.051L72.5 111L96 125.051V222H49V125.051Z" fill="#405E7A"/>
<path d="M95 112.962L121.5 96L148 112.962V230H95V112.962Z" fill="#405E7A"/>
<path d="M147 99.7089L172 83L197 99.7089V215H147V99.7089Z" fill="#405E7A"/>
<path d="M196 84.7975L225.5 71L255 84.7975V180H196V84.7975Z" fill="#405E7A"/>
<path d="M332 42.8987L361.5 31L391 42.8987V125H332V42.8987Z" fill="#405E7A"/>
<path d="M436 19.6835L459.5 5L483 19.6835V121H436V19.6835Z" fill="#405E7A"/>
<path d="M721.425 87.2154L746.644 74.446L771.863 87.2154V175.324H721.425V87.2154Z" fill="#405E7A"/>
<path d="M817.612 108.923L848.367 94.1294L879.123 108.923V211H817.612V108.923Z" fill="#405E7A"/>
<path d="M878.123 118.895L908.878 85.2195L939.633 118.895V202.705H878.123V118.895Z" fill="#405E7A"/>
<path d="M939.633 77.9031L965.468 54.1475L991.302 77.9031V203.619H939.633V77.9031Z" fill="#405E7A"/>
<path d="M1027.44 107.639L1060.65 90.439L1093.87 107.639V179.63H1027.44V107.639Z" fill="#405E7A"/>
<path d="M1327 94.3696L1360 72L1393 94.3696V188H1327V94.3696Z" fill="#405E7A"/>
<path d="M1214 70.9481L1247 48L1280 70.9481V167H1214V70.9481Z" fill="#405E7A"/>
<path d="M1092.87 90.8905L1123.63 79.3669L1154.38 90.8905V170.403H1092.87V90.8905Z" fill="#405E7A"/>
<rect x="676.677" y="70.7554" width="46.7482" height="86.1151" fill="#405E7A"/>
<rect x="1393" y="109" width="47" height="98" fill="#405E7A"/>
<rect x="390" y="8" width="47" height="103" fill="#405E7A"/>
<rect x="990.302" y="94.1294" width="38.1367" height="91.036" fill="#405E7A"/>
<path d="M1279 80.2935L1328 72V181H1279V80.2935Z" fill="#405E7A"/>
</svg>
