<svg width="24" height="24" viewBox="0 0 24 24" fill="none" xmlns="http://www.w3.org/2000/svg">
<path fill-rule="evenodd" clip-rule="evenodd" d="M12.4061 2.08619C12.1476 1.97127 11.8524 1.97127 11.5939 2.08619L2.59386 6.08619C2.22488 6.25018 1.99073 6.61999 2.00028 7.02366C2.00984 7.42734 2.26123 7.78565 2.63756 7.932L11.6376 11.432C11.8707 11.5227 12.1293 11.5227 12.3624 11.432L21.3624 7.932C21.7388 7.78565 21.9902 7.42734 21.9997 7.02366C22.0093 6.61999 21.7751 6.25018 21.4061 6.08619L12.4061 2.08619ZM12.3624 9.28609C12.1293 9.37675 11.8707 9.37675 11.6376 9.28609L5.82456 7.02548C5.74169 6.99326 5.73894 6.87701 5.82019 6.8409L11.5939 4.27482C11.8524 4.15991 12.1476 4.15991 12.4061 4.27482L18.1798 6.8409C18.2611 6.87701 18.2583 6.99326 18.1754 7.02548L12.3624 9.28609Z" fill="black"/>
<path d="M5.0749 10.3069C4.82652 10.2103 4.54985 10.2169 4.30632 10.3251L2.59386 11.0862C2.22488 11.2502 1.99073 11.62 2.00028 12.0237C2.00984 12.4274 2.26123 12.7857 2.63756 12.932L11.6376 16.432C11.8707 16.5227 12.1293 16.5227 12.3624 16.432L21.3624 12.932C21.7388 12.7857 21.9902 12.4274 21.9997 12.0237C22.0093 11.62 21.7751 11.2502 21.4061 11.0862L19.6937 10.3251C19.4502 10.2169 19.1735 10.2103 18.9251 10.3069L16.9106 11.0903C16.8278 11.1226 16.825 11.2388 16.9063 11.2749L18.1798 11.8409C18.2611 11.877 18.2583 11.9933 18.1754 12.0255L12.3624 14.2861C12.1293 14.3768 11.8707 14.3768 11.6376 14.2861L5.82456 12.0255C5.74169 11.9933 5.73894 11.877 5.82019 11.8409L7.09372 11.2749C7.17497 11.2388 7.17222 11.1226 7.08935 11.0903L5.0749 10.3069Z" fill="black"/>
<path d="M5.0749 15.3069C4.82652 15.2103 4.54985 15.2169 4.30632 15.3251L2.59386 16.0862C2.22488 16.2502 1.99073 16.62 2.00028 17.0237C2.00984 17.4274 2.26123 17.7857 2.63756 17.932L11.6376 21.432C11.8707 21.5227 12.1293 21.5227 12.3624 21.432L21.3624 17.932C21.7388 17.7857 21.9902 17.4274 21.9997 17.0237C22.0093 16.62 21.7751 16.2502 21.4061 16.0862L19.6937 15.3251C19.4502 15.2169 19.1735 15.2103 18.9251 15.3069L16.9106 16.0903C16.8278 16.1226 16.825 16.2388 16.9063 16.2749L18.1798 16.8409C18.2611 16.877 18.2583 16.9933 18.1754 17.0255L12.3624 19.2861C12.1293 19.3768 11.8707 19.3768 11.6376 19.2861L5.82456 17.0255C5.74169 16.9933 5.73894 16.877 5.82019 16.8409L7.09372 16.2749C7.17497 16.2388 7.17222 16.1226 7.08935 16.0903L5.0749 15.3069Z" fill="black"/>
</svg>
