<svg width="24" height="24" viewBox="0 0 24 24" fill="none" xmlns="http://www.w3.org/2000/svg">
<g clip-path="url(#clip0_1771_10323)">
<path d="M16 17H8C6.89543 17 6 16.1046 6 15V9C6 7.89543 6.89543 7 8 7H16C17.1046 7 18 7.89543 18 9V15C18 16.1046 17.1046 17 16 17Z" stroke="black" stroke-width="2" stroke-linecap="round" stroke-linejoin="round"/>
<path d="M0 17H-8C-9.10457 17 -10 16.1046 -10 15V9C-10 7.89543 -9.10457 7 -8 7H0C1.10457 7 2 7.89543 2 9V15C2 16.1046 1.10457 17 0 17Z" stroke="black" stroke-width="2" stroke-linecap="round" stroke-linejoin="round"/>
<path d="M32 17H24C22.8954 17 22 16.1046 22 15V9C22 7.89543 22.8954 7 24 7H32C33.1046 7 34 7.89543 34 9V15C34 16.1046 33.1046 17 32 17Z" stroke="black" stroke-width="2" stroke-linecap="round" stroke-linejoin="round"/>
</g>
<defs>
<clipPath id="clip0_1771_10323">
<rect width="24" height="24" fill="white"/>
</clipPath>
</defs>
</svg>
