<svg width="24" height="25" viewBox="0 0 24 25" fill="none" xmlns="http://www.w3.org/2000/svg">
<g clip-path="url(#clip0_1771_8789)">
<path fill-rule="evenodd" clip-rule="evenodd" d="M24 12.0012C24 12.8304 23.9159 13.6399 23.7558 14.4216C23.7255 14.3859 23.6937 14.3513 23.6606 14.3181C23.3799 14.0361 22.9607 13.8012 22.4395 13.8012L22.4332 13.8012C22.3956 13.801 22.2823 13.8005 22.1357 13.8317L18.062 14.4482C17.6289 14.5052 17.2576 14.7101 16.988 14.981C16.674 15.2963 16.4757 15.7333 16.4757 16.2271V18.016V19.3688C15.8555 19.3858 15.2557 19.5818 14.7756 19.938C14.2379 20.3327 13.8 20.9818 13.8 21.7844C13.8 22.569 14.2122 23.2265 14.7823 23.6357C14.7965 23.6462 14.8108 23.6565 14.8252 23.6667C13.9192 23.8854 12.9731 24.0012 12 24.0012C5.37258 24.0012 0 18.6286 0 12.0012C0 5.3738 5.37258 0.0012207 12 0.0012207C18.6274 0.0012207 24 5.3738 24 12.0012ZM22.991 16.375V16.8253C22.8531 17.1389 22.7022 17.4455 22.539 17.7444V17.6437L21.8414 17.7341L21.8 17.7395L21.339 17.7993L18.8757 18.1187L18.1277 18.2157V19.7882V19.8059V20.0219V20.2487V20.9218V21.7481V21.7844C18.1277 22.0025 18.0519 22.2097 17.9207 22.3877C17.8954 22.4221 17.868 22.4554 17.8386 22.4875C17.5178 22.6665 17.1879 22.8312 16.8499 22.9808C16.7571 22.9942 16.6614 23.0012 16.5638 23.0012C16.148 23.0012 15.7684 22.8741 15.4881 22.6652C15.1808 22.4473 15 22.1295 15 21.7844C15 21.4394 15.1898 21.1215 15.4881 20.9036C15.7484 20.7096 16.0945 20.5861 16.4757 20.5695C16.5049 20.5683 16.5343 20.5676 16.5638 20.5676C16.689 20.5676 16.8108 20.5791 16.9277 20.6009C17.1992 20.6515 17.4436 20.7576 17.6395 20.9036C17.6451 20.9036 17.6507 20.9071 17.6584 20.9119C17.6632 20.9148 17.6688 20.9183 17.6757 20.9218V20.8551V19.7041V19.5694V18.2157V18.016V17.0643V16.2271C17.6757 16.0637 17.739 15.9274 17.8384 15.8276C17.9379 15.7277 18.0734 15.655 18.2271 15.6369L22.3672 15.0103C22.3944 15.0012 22.4124 15.0012 22.4395 15.0012C22.5842 15.0012 22.7107 15.0648 22.8102 15.1647C22.9006 15.2555 22.9638 15.3826 22.9819 15.5097C22.991 15.537 22.991 15.5733 22.991 15.6005V16.375ZM20.3605 20.277C20.5246 20.1547 20.7229 20.0604 20.9426 20.0033C20.6099 20.3748 20.2543 20.7256 19.8782 21.0532C19.9122 20.749 20.0926 20.4728 20.3605 20.277ZM9.6 12.0012C9.6 13.3267 10.6745 14.4012 12 14.4012C13.3255 14.4012 14.4 13.3267 14.4 12.0012C14.4 10.6757 13.3255 9.60122 12 9.60122C10.6745 9.60122 9.6 10.6757 9.6 12.0012ZM4.58436 18.71C4.76962 18.9148 5.08722 18.914 5.28249 18.7187L8.46447 15.5368C8.65973 15.3415 8.65722 15.0265 8.48481 14.8108C8.3987 14.703 8.31758 14.5914 8.24172 14.4762C8.08985 14.2455 7.79101 14.1458 7.54497 14.2712L3.53544 16.3141C3.28939 16.4395 3.19047 16.7413 3.32797 16.9808C3.68378 17.6004 4.10499 18.1802 4.58436 18.71ZM18.7175 5.28371C18.9128 5.08845 19.2304 5.08762 19.4156 5.2924C19.895 5.82228 20.3162 6.40202 20.672 7.02167C20.8095 7.26114 20.7106 7.56294 20.4646 7.68831L16.455 9.73127C16.209 9.85663 15.9101 9.7569 15.7583 9.52627C15.6824 9.41108 15.6013 9.29943 15.5152 9.19169C15.3428 8.97598 15.3403 8.66095 15.5355 8.46569L18.7175 5.28371Z" fill="#333333"/>
<path d="M22.991 17.3803V15.6005C22.991 15.5733 22.991 15.537 22.9819 15.5097C22.9638 15.3826 22.9006 15.2555 22.8102 15.1647C22.7107 15.0648 22.5842 15.0012 22.4395 15.0012C22.4124 15.0012 22.3944 15.0012 22.3672 15.0103L18.2271 15.6369C18.0734 15.655 17.9379 15.7277 17.8384 15.8276C17.739 15.9274 17.6757 16.0636 17.6757 16.2271V18.016V20.9218C17.6576 20.9127 17.6486 20.9036 17.6395 20.9036C17.3593 20.6948 16.9797 20.5676 16.5638 20.5676C16.148 20.5676 15.7684 20.6948 15.4881 20.9036C15.1898 21.1215 15 21.4394 15 21.7844C15 22.1295 15.1808 22.4473 15.4881 22.6652C15.7684 22.8741 16.148 23.0012 16.5638 23.0012C16.9797 23.0012 17.3593 22.8741 17.6395 22.6652C17.9379 22.4473 18.1277 22.1295 18.1277 21.7844C18.1277 21.7753 18.1277 21.7572 18.1277 21.7481V18.2157L22.539 17.6437V20.2952C22.5299 20.2861 22.5209 20.2861 22.5119 20.277C22.2316 20.0682 21.852 19.9411 21.4362 19.9411C21.0203 19.9411 20.6407 20.0682 20.3605 20.277C20.0621 20.495 19.8723 20.8128 19.8723 21.1579C19.8723 21.5029 20.0531 21.8207 20.3605 22.0387C20.6407 22.2475 21.0203 22.3747 21.4362 22.3747C21.852 22.3747 22.2316 22.2475 22.5119 22.0387C22.8102 21.8207 23 21.5029 23 21.1579C23 21.1488 23 21.1306 23 21.1215V17.4076C22.991 17.3985 22.991 17.3894 22.991 17.3803Z" fill="#333333"/>
</g>
<defs>
<clipPath id="clip0_1771_8789">
<rect width="24" height="24" fill="white" transform="translate(0 0.0012207)"/>
</clipPath>
</defs>
</svg>
