<svg width="1440" height="700" viewBox="0 0 1440 700" fill="none" xmlns="http://www.w3.org/2000/svg">
<g clip-path="url(#clip0)">
<rect width="1440" height="700" fill="#F0E6E7"/>
<path fill-rule="evenodd" clip-rule="evenodd" d="M1290.42 33.78C1299.05 33.78 1306.06 40.7818 1306.06 49.4189C1306.06 58.056 1299.05 65.0578 1290.42 65.0578H1275C1276.45 67.4273 1277.28 70.2114 1277.28 73.19L1321.7 73.19C1330.33 73.19 1337.33 80.1918 1337.33 88.8289C1337.33 97.466 1330.33 104.468 1321.7 104.468H1244.75C1236.12 104.468 1229.11 97.466 1229.11 88.8289L1159.36 88.8289C1157.91 95.9672 1151.6 101.34 1144.04 101.34H1067.09C1058.46 101.34 1051.46 94.3382 1051.46 85.7011C1051.46 77.064 1058.46 70.0622 1067.09 70.0622H1129.34C1130.79 62.9239 1137.1 57.5511 1144.66 57.5511H1200.11C1198.67 55.1816 1197.84 52.3975 1197.84 49.4189C1197.84 40.7818 1204.84 33.78 1213.47 33.78H1290.42Z" fill="white"/>
<path fill-rule="evenodd" clip-rule="evenodd" d="M853.155 75.6922C861.792 75.6922 868.793 68.6904 868.793 60.0533C868.793 51.4162 861.792 44.4144 853.155 44.4144H731.797C723.16 44.4144 716.158 51.4162 716.158 60.0533L637.963 60.0533C629.326 60.0533 622.325 67.0551 622.325 75.6922C622.325 79.4995 623.685 82.989 625.946 85.7011L562.271 85.7011C562.271 77.2735 555.605 70.4028 547.258 70.0745V70.0622H546.632H475.945C467.307 70.0622 460.306 77.064 460.306 85.7011C460.306 94.3382 467.307 101.34 475.945 101.34L505.971 101.34C505.971 109.977 512.973 116.979 521.61 116.979H604.805C604.4 118.368 604.183 119.838 604.183 121.358C604.183 129.995 611.185 136.997 619.822 136.997L664.862 136.997C664.862 138.981 665.232 140.88 665.906 142.627H609.188C600.551 142.627 593.549 149.628 593.549 158.266C593.549 166.903 600.551 173.904 609.188 173.904H704.898C713.535 173.904 720.537 166.903 720.537 158.266C720.537 156.281 720.167 154.382 719.493 152.636H826.881C835.518 152.636 842.52 145.634 842.52 136.997C842.52 128.36 835.518 121.358 826.881 121.358H756.819C756.819 112.721 749.817 105.719 741.18 105.719H691.14C691.544 104.329 691.761 102.86 691.761 101.34C691.761 97.5327 690.401 94.0432 688.139 91.3311H792.476C801.113 91.3311 808.115 84.3293 808.115 75.6922L853.155 75.6922Z" fill="white"/>
<path fill-rule="evenodd" clip-rule="evenodd" d="M1013.01 175.156H942.609C942.609 175.156 942.609 175.156 942.609 175.156C933.972 175.156 926.97 168.154 926.97 159.517C926.97 150.88 933.972 143.878 942.609 143.878C942.609 143.878 942.609 143.878 942.609 143.878H1059.59H1060.21V143.89C1068.56 144.218 1075.23 151.089 1075.23 159.517C1075.23 161.986 1074.65 164.321 1073.64 166.398L1097.75 166.398C1097.75 157.761 1104.75 150.759 1113.39 150.759H1219.1C1227.74 150.759 1234.74 157.761 1234.74 166.398C1234.74 175.035 1227.74 182.037 1219.1 182.037L1165.31 182.037C1165.31 184.261 1164.84 186.377 1164.01 188.292H1195.33C1203.97 188.292 1210.97 195.294 1210.97 203.931C1210.97 212.568 1203.97 219.57 1195.33 219.57H1129.02C1120.39 219.57 1113.39 212.568 1113.39 203.931C1113.39 201.707 1113.85 199.591 1114.69 197.676H1089.56C1090.4 199.591 1090.87 201.707 1090.87 203.931C1090.87 212.568 1083.86 219.57 1075.23 219.57L1045.2 219.57C1045.2 228.207 1038.2 235.209 1029.56 235.209H908.203C899.566 235.209 892.564 228.207 892.564 219.57C892.564 210.933 899.566 203.931 908.203 203.931H908.203L968.257 203.931C968.257 195.294 975.258 188.292 983.896 188.292H1012.72C1011.88 186.377 1011.42 184.261 1011.42 182.037C1011.42 179.568 1011.99 177.232 1013.01 175.156Z" fill="white"/>
<path fill-rule="evenodd" clip-rule="evenodd" d="M1183.45 395.351L1146.54 395.351C1146.54 403.988 1139.54 410.99 1130.9 410.99H1081.29C1081.82 412.561 1082.11 414.244 1082.11 415.994C1082.11 417.745 1081.82 419.428 1081.29 420.999H1089.61C1098.25 420.999 1105.25 428.001 1105.25 436.638C1105.25 445.275 1098.25 452.277 1089.61 452.277H1027.06C1018.42 452.277 1011.42 445.275 1011.42 436.638C1011.42 434.888 1011.71 433.205 1012.24 431.633H975.138C966.501 431.633 959.499 424.632 959.499 415.994C959.499 407.357 966.501 400.356 975.138 400.356H1024.75C1024.22 398.784 1023.93 397.101 1023.93 395.351C1023.93 386.714 1030.93 379.712 1039.57 379.712L1105.25 379.712C1105.25 371.075 1112.26 364.073 1120.89 364.073H1183.45C1192.09 364.073 1199.09 371.075 1199.09 379.712C1199.09 388.349 1192.09 395.351 1183.45 395.351Z" fill="white"/>
<path fill-rule="evenodd" clip-rule="evenodd" d="M563.074 322.161H563.074C577.653 322.161 589.472 333.98 589.472 348.559C589.472 363.138 577.653 374.956 563.074 374.956H563.074L500.776 374.956C500.776 389.535 488.957 401.354 474.379 401.354H390.638C391.533 404.006 392.018 406.847 392.018 409.801C392.018 412.755 391.533 415.596 390.638 418.248H404.689C419.268 418.248 431.086 430.067 431.086 444.646C431.086 459.225 419.268 471.043 404.689 471.043H299.099C284.52 471.043 272.701 459.225 272.701 444.646C272.701 441.692 273.186 438.851 274.082 436.198H211.459C196.88 436.198 185.061 424.38 185.061 409.801C185.061 395.222 196.88 383.403 211.459 383.403H211.459H295.199C294.304 380.751 293.819 377.91 293.819 374.956C293.819 360.377 305.638 348.559 320.217 348.559L431.086 348.559C431.086 333.98 442.905 322.161 457.484 322.161H457.484H563.074Z" fill="white"/>
<path fill-rule="evenodd" clip-rule="evenodd" d="M161.916 227.077C170.553 227.077 177.554 234.078 177.554 242.716C177.554 251.353 170.553 258.354 161.916 258.354L142.523 258.354C142.523 260.824 141.951 263.159 140.932 265.236H232.603C241.24 265.236 248.242 272.237 248.242 280.874L270.762 280.874C279.399 280.874 286.401 287.876 286.401 296.513C286.401 305.15 279.399 312.152 270.762 312.152H238.667C239.197 313.723 239.484 315.406 239.484 317.157C239.484 325.794 232.483 332.796 223.846 332.796H150.03C141.393 332.796 134.391 325.794 134.391 317.157C134.391 308.52 141.393 301.518 150.03 301.518H193.386C192.855 299.947 192.568 298.264 192.568 296.513H114.373C114.373 305.15 107.372 312.152 98.7345 312.152H29.5832C30.6022 314.229 31.1745 316.564 31.1745 319.033H86.2233C94.8605 319.033 101.862 326.035 101.862 334.672C101.862 335.743 101.755 336.789 101.549 337.8H120.003C128.64 337.8 135.642 344.802 135.642 353.439C135.642 362.076 128.64 369.078 120.003 369.078H51.1923C42.5551 369.078 35.5534 362.076 35.5534 353.439C35.5534 352.368 35.6611 351.322 35.8662 350.311H21.451C22.47 352.388 23.0422 354.723 23.0422 357.192C23.0422 365.829 16.0405 372.831 7.40334 372.831H-71.4167C-80.0538 372.831 -87.0555 365.829 -87.0555 357.192C-87.0555 348.555 -80.0538 341.553 -71.4166 341.553H-38.5476C-39.5667 339.477 -40.1389 337.141 -40.1389 334.672L-145.232 334.672C-153.869 334.672 -160.871 327.67 -160.871 319.033C-160.871 310.396 -153.869 303.394 -145.232 303.394H-26.0365C-27.0556 301.318 -27.6278 298.982 -27.6278 296.513C-27.6278 287.876 -20.626 280.874 -11.9889 280.874L52.4433 280.874C52.4433 278.405 53.0156 276.07 54.0346 273.993H16.1611C8.81781 273.993 2.65662 268.932 0.975525 262.108L-22.6233 262.108C-22.6233 270.745 -29.6251 277.747 -38.2622 277.747H-127.091C-135.728 277.747 -142.73 270.745 -142.73 262.108C-142.73 253.471 -135.728 246.469 -127.091 246.469L-61.4077 246.469C-61.4077 237.832 -54.406 230.83 -45.7688 230.83H33.0511C40.3944 230.83 46.5556 235.891 48.2367 242.716L84.3467 242.716C84.3467 234.078 91.3484 227.077 99.9856 227.077H161.916Z" fill="white"/>
<path fill-rule="evenodd" clip-rule="evenodd" d="M124.382 71.3133C124.382 62.6762 117.381 55.6744 108.743 55.6744H-8.23549C-16.8726 55.6744 -23.8744 62.6762 -23.8744 71.3133C-23.8744 79.9504 -16.8726 86.9522 -8.23547 86.9522L18.6634 86.9522C18.6634 89.6726 19.358 92.2307 20.5794 94.4589H-41.3899C-50.027 94.4589 -57.0288 101.461 -57.0288 110.098C-57.0288 118.735 -50.027 125.737 -41.3899 125.737H91.8534C100.491 125.737 107.492 118.735 107.492 110.098C107.492 107.377 106.798 104.819 105.576 102.591H166.295C174.932 102.591 181.933 95.5894 181.933 86.9522C181.933 78.3151 174.932 71.3133 166.295 71.3133L124.382 71.3133Z" fill="white"/>
<path fill-rule="evenodd" clip-rule="evenodd" d="M442.164 125.737C450.802 125.737 457.803 132.738 457.803 141.376C457.803 150.013 450.802 157.014 442.164 157.014H338.283C339.504 159.243 340.199 161.801 340.199 164.521L391.494 164.521C400.132 164.521 407.133 171.523 407.133 180.16C407.133 188.797 400.132 195.799 391.494 195.799H365.428C366.103 197.546 366.472 199.444 366.472 201.429C366.472 210.066 359.471 217.068 350.833 217.068H255.749C247.112 217.068 240.11 210.066 240.11 201.429C240.11 192.792 247.112 185.79 255.749 185.79H308.089C307.414 184.043 307.044 182.145 307.044 180.16L197.572 180.16C188.935 180.16 181.933 173.158 181.933 164.521C181.933 155.884 188.935 148.882 197.572 148.882H256.414C255.192 146.654 254.498 144.096 254.498 141.376C254.498 132.738 261.5 125.737 270.137 125.737H442.164Z" fill="white"/>
<path fill-rule="evenodd" clip-rule="evenodd" d="M1746.45 63.1812C1755.09 63.1812 1762.09 70.1829 1762.09 78.82C1762.09 87.4572 1755.09 94.4589 1746.45 94.4589H1724.14C1724.81 96.2058 1725.18 98.1042 1725.18 100.089C1725.18 108.726 1718.18 115.728 1709.54 115.728H1569.59C1569.88 116.93 1570.04 118.187 1570.04 119.481L1581.93 119.481C1590.56 119.481 1597.57 126.483 1597.57 135.12C1597.57 143.757 1590.56 150.759 1581.93 150.759H1558.44C1559.46 152.835 1560.03 155.171 1560.03 157.64C1560.03 166.277 1553.03 173.279 1544.39 173.279L1464.95 173.279C1464.95 181.916 1457.95 188.918 1449.31 188.918H1369.86C1361.23 188.918 1354.22 181.916 1354.22 173.279C1354.22 164.642 1361.23 157.64 1369.86 157.64H1389.26C1389.26 149.003 1396.26 142.001 1404.89 142.001H1495.31C1494.3 139.925 1493.72 137.589 1493.72 135.12L1477.46 135.12C1468.82 135.12 1461.82 128.118 1461.82 119.481L1428.04 119.481C1419.4 119.481 1412.4 112.479 1412.4 103.842C1412.4 95.2051 1419.4 88.2034 1428.04 88.2034H1466.82C1475.46 88.2034 1482.46 95.2051 1482.46 103.842L1523.58 103.842C1523.28 102.64 1523.12 101.383 1523.12 100.089C1523.12 91.4518 1530.13 84.45 1538.76 84.45H1653.66C1652.98 82.7031 1652.61 80.8048 1652.61 78.82C1652.61 70.1829 1659.62 63.1812 1668.25 63.1812H1746.45Z" fill="white"/>
<path fill-rule="evenodd" clip-rule="evenodd" d="M1298.94 444.242C1306.71 444.242 1313.01 450.54 1313.01 458.309L1339.45 458.309C1347.22 458.309 1353.52 464.607 1353.52 472.376L1361.4 472.376C1369.17 472.376 1375.46 478.674 1375.46 486.443C1375.46 494.212 1369.17 500.51 1361.4 500.51H1298.38C1297.77 500.51 1297.18 500.473 1296.6 500.4C1294.08 504.197 1289.77 506.7 1284.87 506.7H1221.29C1213.52 506.7 1207.22 500.402 1207.22 492.633L1190.34 492.633C1182.57 492.633 1176.27 486.335 1176.27 478.566C1176.27 470.797 1182.57 464.499 1190.34 464.499H1222.72C1221.8 462.631 1221.29 460.53 1221.29 458.309C1221.29 450.54 1227.59 444.242 1235.36 444.242H1298.94Z" fill="white"/>
<circle cx="720" cy="462" r="128" fill="#FFC0C0"/>
<path fill-rule="evenodd" clip-rule="evenodd" d="M356.262 347.974V351.712H360.315C361.494 351.712 362.525 350.858 362.525 350.431V347.974H364.735V430.218L362.525 430.218L362.525 416.611C362.525 413.68 361.297 411.9 360.683 411.9H356.262V430.218H356.262V411.9H351.841C351.227 411.9 349.999 413.68 349.999 416.611L349.999 430.218L347.789 430.218V347.974H349.999V350.431C349.999 350.858 351.031 351.712 352.21 351.712H356.262V347.974H356.262ZM356.262 383.862V370.778H351.841C351.227 370.778 349.999 372.049 349.999 374.143V382.367C349.999 382.866 351.031 383.862 352.21 383.862H356.262ZM356.262 355.451V366.666H352.21C351.031 366.666 349.999 365.811 349.999 365.384V358.335C349.999 356.54 351.227 355.451 351.841 355.451H356.262ZM356.262 370.778V383.862H360.315C361.494 383.862 362.525 382.866 362.525 382.367V374.143C362.525 372.049 361.297 370.778 360.683 370.778H356.262ZM356.262 366.666V355.451H360.683C361.297 355.451 362.525 356.54 362.525 358.335V365.384C362.525 365.811 361.494 366.666 360.315 366.666H356.262ZM356.262 406.293V389.47H360.683C361.297 389.47 362.525 391.104 362.525 393.796V404.37C362.525 405.011 361.494 406.293 360.315 406.293H356.262ZM356.262 389.47V406.293H352.21C351.031 406.293 349.999 405.011 349.999 404.37V393.796C349.999 391.104 351.227 389.47 351.841 389.47H356.262Z" fill="#8CA7BF"/>
<path fill-rule="evenodd" clip-rule="evenodd" d="M373.367 224.553V218H379.35V437.37L373.367 437.37L373.367 401.074C373.367 393.257 370.044 388.51 368.382 388.51H356.418H356.417H344.453C342.791 388.51 339.468 393.257 339.468 401.074L339.468 437.37L333.486 437.37V218H339.468V224.553C339.468 225.692 342.26 227.971 345.45 227.971H356.417H356.418H367.385C370.576 227.971 373.367 225.692 373.367 224.553ZM345.45 313.725H356.417H356.418H367.385C370.576 313.725 373.367 311.066 373.367 309.737V287.8C373.367 282.216 370.044 278.825 368.382 278.825H356.418H356.417H344.453C342.791 278.825 339.468 282.216 339.468 287.8V309.737C339.468 311.066 342.26 313.725 345.45 313.725ZM356.417 267.857H345.45C342.26 267.857 339.468 265.578 339.468 264.438V245.635C339.468 240.849 342.791 237.943 344.453 237.943H356.417H356.418H368.382C370.044 237.943 373.367 240.849 373.367 245.635V264.438C373.367 265.578 370.576 267.857 367.385 267.857H356.418H356.417ZM367.385 373.553H356.417H345.45C342.26 373.553 339.468 370.135 339.468 368.425V340.22C339.468 333.041 342.791 328.682 344.453 328.682H356.417H356.418H368.382C370.044 328.682 373.367 333.041 373.367 340.22V368.425C373.367 370.135 370.576 373.553 367.385 373.553Z" fill="#8CA7BF"/>
<path d="M298 505C320.423 444.08 343.868 424.484 349.99 422.3H363.001C369.122 424.484 392.567 444.08 414.99 505H298Z" fill="#8CA7BF"/>
<path d="M377.95 223.286C378.358 266.028 380.857 371.95 387.589 453.694" stroke="#8CA7BF" stroke-width="3.10943"/>
<path d="M335.351 223.286C334.943 266.028 332.444 371.95 325.712 453.694" stroke="#8CA7BF" stroke-width="3.10943"/>
<path d="M339.549 326.208C342.526 448.723 343.83 461.988 349.188 349.208" stroke="#8CA7BF" stroke-width="0.932828"/>
<path d="M330.065 442.811L330.065 385.598" stroke="#8CA7BF" stroke-width="0.932828"/>
<path d="M332.242 440.635L332.242 336.469" stroke="#8CA7BF" stroke-width="0.932828"/>
<path d="M340.637 431.618L340.637 383.421" stroke="#8CA7BF" stroke-width="0.621885"/>
<path d="M347.167 424.777L347.167 387.464" stroke="#8CA7BF" stroke-width="0.466414"/>
<path d="M345.923 425.71L345.923 407.986" stroke="#8CA7BF" stroke-width="0.466414"/>
<path d="M341.881 429.441L341.881 408.919" stroke="#8CA7BF" stroke-width="0.621885"/>
<path d="M349.033 418.869C343.902 418.869 333.796 423.844 316.073 450.119" stroke="#8CA7BF" stroke-width="1.55471"/>
<path d="M372.975 326.208C369.999 448.723 368.695 461.988 363.336 349.208" stroke="#8CA7BF" stroke-width="0.932828"/>
<path d="M382.459 442.811L382.459 385.598" stroke="#8CA7BF" stroke-width="0.932828"/>
<path d="M380.282 440.635L380.282 336.469" stroke="#8CA7BF" stroke-width="0.932828"/>
<path d="M371.887 431.618L371.887 383.421" stroke="#8CA7BF" stroke-width="0.621885"/>
<path d="M365.357 424.777L365.357 387.464" stroke="#8CA7BF" stroke-width="0.466414"/>
<path d="M366.601 425.71L366.601 407.986" stroke="#8CA7BF" stroke-width="0.466414"/>
<path d="M370.643 429.441L370.643 408.919" stroke="#8CA7BF" stroke-width="0.621885"/>
<path d="M363.492 418.869C368.622 418.869 378.728 423.844 396.451 450.119" stroke="#8CA7BF" stroke-width="1.55471"/>
<path d="M783 474C694 483 618.5 405.5 523 413C427.5 420.5 310 484 216.5 436.5C123 389 0 474 0 474V614H1440V405.5C1440 405.5 1404 366 1316.5 361C1229 356 1128.5 465 1033 405.5C937.5 346 872 465 783 474Z" fill="#8CA7BF"/>
<path fill-rule="evenodd" clip-rule="evenodd" d="M954.259 386C964.102 386 972.081 393.979 972.081 403.821H994.179C1004.02 403.821 1012 411.8 1012 421.642C1012 431.485 1004.02 439.463 994.179 439.463H922.181C912.339 439.463 904.36 431.485 904.36 421.642H865.154C865.154 430.569 858.59 437.963 850.026 439.261C851.488 441.847 852.322 444.835 852.322 448.018H972.793C982.636 448.018 990.615 455.996 990.615 465.839C990.615 475.681 982.636 483.66 972.793 483.66H825.234C815.392 483.66 807.413 475.681 807.413 465.839H746.821C736.979 465.839 729 457.86 729 448.018C729 438.175 736.979 430.196 746.821 430.196H771.816C770.424 427.657 769.632 424.742 769.632 421.642C769.632 411.8 777.611 403.821 787.453 403.821H817.393C817.393 393.979 825.372 386 835.214 386H954.259Z" fill="white"/>
<path fill-rule="evenodd" clip-rule="evenodd" d="M1244.97 318.43H1242.97V335.719H1241.64V345.693H1241.64V350.348H1234.99H1234.99V335.719H1233.66V318.43H1231.67V335.719H1230.34V345.693H1226.35V350.348H1216.37V352.343H1209.72V486H1234.99H1241.64H1266.91V352.343H1260.26V350.348H1250.29V345.693H1246.3V335.719H1244.97V318.43Z" fill="#6589AA"/>
<path fill-rule="evenodd" clip-rule="evenodd" d="M1128.74 358.404H1085.51V367.049H1076.87V516H1085.51H1128.74H1137.38V367.049H1128.74V358.404Z" fill="#6589AA"/>
<path fill-rule="evenodd" clip-rule="evenodd" d="M1176.4 331.396V396.859L1185.79 496H1143.75L1153.13 396.863V331.396L1152.96 331.396L1159.58 328.748L1164.77 273.903L1169.96 328.748L1176.57 331.396L1176.4 331.396Z" fill="#6589AA"/>
<path fill-rule="evenodd" clip-rule="evenodd" d="M1289.4 236H1315.58C1320.76 253.25 1324.1 280.49 1324.1 311.141C1324.1 312.253 1324.09 313.362 1324.08 314.465H1324.1V496H1280.88V314.465H1280.89C1280.88 313.362 1280.88 312.253 1280.88 311.141C1280.88 280.49 1284.22 253.25 1289.4 236Z" fill="#6589AA"/>
<path d="M654 467.448L669.333 462.848V506H654V467.448Z" fill="#6589AA"/>
<rect x="669.333" y="460" width="17.9619" height="46" fill="#6589AA"/>
<path d="M687.295 473.581L693.867 471.39L700.438 473.581V506H687.295V473.581Z" fill="#6589AA"/>
<path d="M700.438 461.095L716.648 463.943V506H700.438V461.095Z" fill="#6589AA"/>
<rect x="720.647" y="482.781" width="11.3905" height="23.219" fill="#6589AA"/>
<path d="M732.038 475.771L738.61 471.39L745.181 475.771V506H732.038V475.771Z" fill="#6589AA"/>
<rect x="745.181" y="460" width="14.8952" height="46" fill="#6589AA"/>
<rect x="483.572" y="403" width="16" height="48" fill="#6589AA"/>
<path d="M462.286 417.286L476.571 419.424V451H462.286V417.286Z" fill="#6589AA"/>
<path d="M435.429 421.553L448.857 417.286L462.286 421.553V451H435.429V421.553Z" fill="#6589AA"/>
<path d="M499.572 411.571L510.143 405.857L520.714 411.571V451H499.572V411.571Z" fill="#6589AA"/>
<rect x="413" y="417.286" width="19.4286" height="33.7143" fill="#6589AA"/>
<path d="M578.5 433C627.5 432 664 539.5 755 490C846 440.5 864 503.5 1024.5 504.5C1185 505.5 1206.5 436.5 1288.5 450C1370.5 463.5 1440 436.5 1440 436.5V654H-0.000244141V414.5C-0.000244141 414.5 72.4998 444 119.5 430C166.5 416 239.5 347.5 291 360C342.5 372.5 394 445.5 454 445.5C514 445.5 529.5 434 578.5 433Z" fill="#6589AA"/>
<path fill-rule="evenodd" clip-rule="evenodd" d="M1476.04 401.991C1476.04 389.293 1465.75 379 1453.05 379H1281.08C1268.38 379 1258.09 389.293 1258.09 401.991C1258.09 414.689 1268.38 424.982 1281.08 424.982H1320.62C1320.62 428.981 1321.65 432.742 1323.44 436.018H1232.34C1219.64 436.018 1209.35 446.311 1209.35 459.009C1209.35 471.707 1219.64 482 1232.34 482H1428.22C1440.92 482 1451.21 471.707 1451.21 459.009C1451.21 455.01 1450.19 451.249 1448.4 447.973H1537.66C1550.36 447.973 1560.65 437.68 1560.65 424.982C1560.65 412.285 1550.36 401.991 1537.66 401.991H1476.04Z" fill="white"/>
<path d="M140.635 519.232L140.635 117.765M99.7307 161.454L99.7005 91M99.7307 161.454H181.538M99.7307 161.454L140.634 175.612M99.7307 161.454H69M99.7307 161.454L79.2335 153.678M99.7307 161.454L140.604 175.612M99.7307 161.454L124.378 272.448M181.538 161.454L181.568 91M181.538 161.454L140.634 175.612M181.538 161.454L140.604 175.612M181.538 161.454H211.482M181.538 161.454L202.005 153.678M181.538 161.454L158.465 272.448M140.634 175.612L122.499 182.42M140.604 175.612L158.74 182.42M158.465 272.448L140.422 279.075L124.378 272.448M158.465 272.448H124.378M158.465 272.448L191.803 483.808M124.378 272.448L87.8926 483.808M140.634 344.977L167.904 335.974H113.365L140.634 344.977ZM141.422 422.752L178.917 407.372H103.927L141.422 422.752Z" stroke="#507496" stroke-width="7.87191" stroke-linecap="round" stroke-linejoin="round"/>
<path d="M122 468.007C82.5 494.007 0 501.007 0 501.007V712.028H1440V481.028C1440 481.028 1412.5 456.028 1331 470.528C1249.5 485.028 1260.5 524.028 1188.5 532.528C1116.5 541.028 1089.5 587.528 1025.5 581.528C961.5 575.528 965 527.028 908 544.028C851 561.028 818 567.028 760.5 532.528C703 498.028 692.5 481.028 634 501.007C575.5 520.985 523.5 426.528 480 415.528C436.5 404.529 388 456.528 358 456.028C328 455.528 273.5 411.528 224 415.528C174.5 419.528 161.5 442.007 122 468.007Z" fill="#507496"/>
<path d="M961.733 523.175L980.369 517.585V570.031H961.733V523.175Z" fill="#507496"/>
<path d="M834.118 512.052L857.21 506.092V562H834.118V512.052Z" fill="#507496"/>
<rect x="796.441" y="506.092" width="21.8306" height="55.9077" fill="#507496"/>
<path d="M818.272 522.598L826.259 519.936L834.245 522.598V562H818.272V522.598Z" fill="#507496"/>
<path d="M942 495L962 507.375V561H942V495Z" fill="#507496"/>
<rect x="864.503" y="521.892" width="20.6615" height="38.8923" fill="#507496"/>
<path d="M885 515.949L893 510L901 515.949V557H885V515.949Z" fill="#507496"/>
<path d="M919.195 509.785L930.741 503.938L942.287 509.785V550.123H919.195V509.785Z" fill="#507496"/>
<path d="M762.41 516.8L773.956 510.954L785.502 516.8V557.138H762.41V516.8Z" fill="#507496"/>
<path d="M742.964 502.077L752.687 495.154L762.41 502.077V549.846H742.964V502.077Z" fill="#507496"/>
<rect x="900.964" y="493.938" width="18.2308" height="66.8462" fill="#507496"/>
<path fill-rule="evenodd" clip-rule="evenodd" d="M675.914 435C686.936 435 695.871 443.935 695.871 454.957C695.871 465.979 686.936 474.914 675.914 474.914H651.167C651.167 478.065 650.437 481.045 649.137 483.695H766.12C777.142 483.695 786.077 492.63 786.077 503.652H814.815C825.837 503.652 834.772 512.587 834.772 523.609C834.772 534.631 825.837 543.567 814.815 543.567H773.858C774.534 545.572 774.901 547.719 774.901 549.953C774.901 560.975 765.966 569.91 754.944 569.91H660.747C649.725 569.91 640.79 560.975 640.79 549.953C640.79 538.931 649.725 529.996 660.747 529.996H716.074C715.397 527.991 715.03 525.843 715.03 523.609H615.245C615.245 534.631 606.31 543.567 595.288 543.567H507.042C508.343 546.216 509.073 549.197 509.073 552.348H579.322C590.344 552.348 599.279 561.283 599.279 572.305C599.279 573.672 599.142 575.006 598.88 576.296H622.429C633.451 576.296 642.386 585.231 642.386 596.253C642.386 607.275 633.451 616.21 622.429 616.21H534.618C523.596 616.21 514.661 607.275 514.661 596.253C514.661 594.886 514.798 593.551 515.06 592.262H496.665C497.965 594.912 498.695 597.892 498.695 601.043C498.695 612.065 489.76 621 478.738 621H378.154C367.132 621 358.197 612.065 358.197 601.043C358.197 590.021 367.132 581.086 378.154 581.086H420.099C418.799 578.436 418.069 575.456 418.069 572.305H283.957C272.935 572.305 264 563.37 264 552.348C264 541.326 272.935 532.391 283.957 532.391H436.065C434.765 529.741 434.034 526.76 434.034 523.609C434.034 512.587 442.969 503.652 453.991 503.652H536.215C536.215 500.501 536.945 497.521 538.245 494.871H489.914C480.543 494.871 472.681 488.413 470.536 479.704H440.421C440.421 490.726 431.485 499.661 420.463 499.661H307.107C296.085 499.661 287.15 490.726 287.15 479.704C287.15 468.682 296.085 459.747 307.107 459.747L390.927 459.747C390.927 448.725 399.862 439.79 410.884 439.79H511.468C520.839 439.79 528.701 446.248 530.846 454.957L576.927 454.957C576.927 443.935 585.862 435 596.884 435H675.914Z" fill="white"/>
<path fill-rule="evenodd" clip-rule="evenodd" d="M347.014 350C356.395 350 364 357.605 364 366.986C364 376.367 356.395 383.972 347.014 383.972H322.779C323.511 385.87 323.913 387.932 323.913 390.087C323.913 399.469 316.308 407.074 306.926 407.074H154.917C155.239 408.38 155.41 409.745 155.41 411.15L168.319 411.15C177.7 411.15 185.305 418.755 185.305 428.137C185.305 437.518 177.7 445.123 168.319 445.123H142.81C143.917 447.378 144.538 449.915 144.538 452.597C144.538 461.978 136.933 469.583 127.552 469.583H41.2623C41.2623 478.964 33.6573 486.569 24.2761 486.569H-62.0138C-71.395 486.569 -79 478.964 -79 469.583C-79 460.202 -71.395 452.597 -62.0138 452.597H-40.9509C-40.9509 443.215 -33.3459 435.61 -23.9647 435.61H74.2452C73.1384 433.355 72.5169 430.818 72.5169 428.137L54.8512 428.137C45.47 428.137 37.865 420.532 37.865 411.15H1.17484C-8.20638 411.15 -15.8114 403.545 -15.8114 394.164C-15.8114 384.783 -8.20638 377.178 1.17484 377.178H43.3006C52.6818 377.178 60.2868 384.783 60.2868 394.164H104.943C104.622 392.858 104.451 391.493 104.451 390.087C104.451 380.706 112.056 373.101 121.437 373.101H246.231C245.498 371.204 245.097 369.142 245.097 366.986C245.097 357.605 252.702 350 262.083 350H347.014Z" fill="white"/>
<path d="M987 540L1005.5 530L1024 540V609H987V540Z" fill="#456684"/>
<path d="M1040 532.392L1064 521L1088 532.392V611H1040V532.392Z" fill="#456684"/>
<path d="M1088 517.633L1109 507L1130 517.633V591H1088V517.633Z" fill="#456684"/>
<path d="M1130 497.392L1152 486L1174 497.392V576H1130V497.392Z" fill="#456684"/>
<path d="M1189 461.633L1207.5 451L1226 461.633V535H1189V461.633Z" fill="#456684"/>
<path d="M1226 449.633L1244.5 439L1263 449.633V523H1226V449.633Z" fill="#456684"/>
<path d="M273 472L235 478.151V569H273V472Z" fill="#456684"/>
<path d="M437 450L403 455.644V539H437V450Z" fill="#456684"/>
<path d="M403 464.278L382.5 452L362 464.278V549H403V464.278Z" fill="#456684"/>
<path d="M314 504.38L293.5 494L273 504.38V576H314V504.38Z" fill="#456684"/>
<path d="M235 472.025L210 460L185 472.025V555H235V472.025Z" fill="#456684"/>
<rect width="38" height="70" transform="matrix(-1 0 0 1 352 489)" fill="#456684"/>
<path d="M610 552.5C659 551.5 717.5 478 796.5 525C875.5 572 905 530.5 960 564.5C1015 598.5 1083.5 582 1124.5 564.5C1165.5 547 1215.84 481.458 1266 476.5C1352 468 1440 506 1440 506V754H-0.000244141V514.5C-0.000244141 514.5 74.4998 510.5 121.5 496.5C168.5 482.5 212 549.5 263.5 562C315 574.5 402.5 514.5 462.5 514.5C522.5 514.5 561 553.5 610 552.5Z" fill="#456684"/>
<path d="M1164 582.401C1295.5 573.401 1440 639.401 1440 639.401V1102H0V639.401C0 639.401 15 625 62 639.401C109 653.802 192.5 608.001 237 587C281.5 566 318.5 542 426.5 542C534.5 542 733.5 613.401 884 623.901C1034.5 634.401 1032.5 591.401 1164 582.401Z" fill="#405E7A"/>
<g clip-path="url(#clip1)">
<path fill-rule="evenodd" clip-rule="evenodd" d="M825.676 611.191H958.101C976.386 611.191 991.208 626.014 991.208 644.298L1130.26 644.298C1148.54 644.298 1163.36 659.12 1163.36 677.404C1163.36 681.109 1162.75 684.672 1161.63 687.998H1266.65C1284.94 687.998 1299.76 702.821 1299.76 721.105C1299.76 739.389 1284.94 754.211 1266.65 754.211H1188.12C1189.24 757.537 1189.85 761.1 1189.85 764.805C1189.85 783.09 1175.02 797.912 1156.74 797.912H1024.31C1006.03 797.912 991.208 783.09 991.208 764.805C991.208 746.521 1006.03 731.699 1024.31 731.699H1041.94C1040.81 728.373 1040.21 724.81 1040.21 721.105C1040.21 717.4 1040.81 713.837 1041.94 710.511H936.913C918.629 710.511 903.807 695.688 903.807 677.404L825.676 677.404C807.391 677.404 792.569 662.582 792.569 644.298C792.569 626.014 807.391 611.191 825.676 611.191Z" fill="white"/>
<path fill-rule="evenodd" clip-rule="evenodd" d="M1656.4 663.5H1597.71C1596.26 663.717 1594.77 663.83 1593.25 663.83C1576.7 663.83 1563.29 650.416 1563.29 633.869C1563.29 617.377 1576.61 603.997 1593.08 603.908V603.908H1593.25H1742.34C1743.4 603.796 1744.47 603.738 1745.55 603.738C1762.09 603.738 1775.51 617.152 1775.51 633.699C1775.51 638.43 1774.41 642.904 1772.46 646.882L1818.65 646.882C1818.65 630.335 1832.07 616.921 1848.61 616.921H2051.15C2067.7 616.921 2081.11 630.335 2081.11 646.882C2081.11 663.429 2067.7 676.843 2051.15 676.843L1948.08 676.843C1948.08 681.104 1947.19 685.157 1945.59 688.827H2005.61C2022.16 688.827 2035.57 702.241 2035.57 718.788C2035.57 735.335 2022.16 748.749 2005.61 748.749H1878.57H1878.57C1862.03 748.749 1848.61 735.335 1848.61 718.788C1848.61 714.527 1849.5 710.474 1851.11 706.804H1802.98C1804.58 710.474 1805.47 714.527 1805.47 718.788C1805.47 735.227 1792.23 748.574 1775.83 748.748V748.914H1717.98C1717.89 765.385 1704.52 778.71 1688.02 778.71H1455.53H1455.53C1438.98 778.71 1425.57 765.296 1425.57 748.749C1425.57 732.202 1438.98 718.788 1455.53 718.788H1455.53L1458.01 718.788C1458.01 702.966 1470.28 690.009 1485.82 688.904V688.66H1655.69C1654.13 685.035 1653.27 681.04 1653.27 676.843C1653.27 672.049 1654.39 667.518 1656.4 663.5Z" fill="white"/>
<path fill-rule="evenodd" clip-rule="evenodd" d="M1501.58 597.981C1514.39 597.981 1524.77 587.598 1524.77 574.79C1524.77 561.982 1514.39 551.6 1501.58 551.6H1321.62C1308.82 551.6 1298.43 561.982 1298.43 574.79L1182.48 574.79C1169.67 574.79 1159.29 585.173 1159.29 597.981C1159.29 603.626 1161.31 608.801 1164.66 612.823L1070.24 612.823C1070.24 600.326 1060.35 590.137 1047.98 589.65V589.632H1047.05H942.226H942.226C929.419 589.632 919.036 600.015 919.036 612.823C919.036 625.63 929.419 636.013 942.226 636.013H942.226L986.752 636.013C986.752 648.821 997.135 659.204 1009.94 659.204H1009.94H1133.31C1132.71 661.264 1132.39 663.443 1132.39 665.697C1132.39 678.505 1142.77 688.887 1155.58 688.887L1222.37 688.888C1222.37 691.831 1222.92 694.646 1223.92 697.236H1139.81C1139.81 697.236 1139.81 697.236 1139.81 697.236C1127 697.236 1116.62 707.619 1116.62 720.427C1116.62 733.234 1127 743.617 1139.81 743.617C1139.81 743.617 1139.81 743.617 1139.81 743.617H1281.74C1281.74 743.617 1281.74 743.617 1281.74 743.617C1294.54 743.617 1304.93 733.234 1304.93 720.427C1304.93 717.484 1304.38 714.669 1303.38 712.078H1462.62C1475.43 712.078 1485.81 701.695 1485.81 688.888C1485.81 676.08 1475.43 665.697 1462.62 665.697L1358.73 665.697C1358.73 652.889 1348.35 642.506 1335.54 642.506H1261.33C1261.93 640.446 1262.26 638.267 1262.26 636.013C1262.26 630.367 1260.24 625.193 1256.88 621.171H1411.6C1424.41 621.171 1434.79 610.788 1434.79 597.981L1501.58 597.981Z" fill="white"/>
<path fill-rule="evenodd" clip-rule="evenodd" d="M1085.89 402.62L1085.89 402.62C1076.75 402.62 1069.34 395.209 1069.34 386.067C1069.34 376.925 1076.75 369.514 1085.89 369.514L1085.91 369.514H1152.11C1161.25 369.514 1168.66 376.925 1168.66 386.067L1238.18 386.067C1247.32 386.067 1254.74 393.478 1254.74 402.62C1254.74 404.473 1254.43 406.254 1253.87 407.917H1306.38C1315.52 407.917 1322.93 415.329 1322.93 424.471C1322.93 433.613 1315.52 441.024 1306.38 441.024H1267.11C1267.67 442.687 1267.98 444.468 1267.98 446.321C1267.98 455.463 1260.57 462.874 1251.43 462.874H1185.21H1185.21C1176.07 462.874 1168.66 455.463 1168.66 446.321C1168.66 437.179 1176.07 429.768 1185.21 429.768H1185.21H1194.02C1193.46 428.105 1193.16 426.323 1193.16 424.471C1193.16 422.618 1193.46 420.837 1194.02 419.174H1141.51C1141.51 419.174 1141.51 419.174 1141.51 419.174C1132.37 419.174 1124.96 411.763 1124.96 402.62L1085.89 402.62Z" fill="white"/>
<path fill-rule="evenodd" clip-rule="evenodd" d="M1014.91 623.946C1014.91 606.662 1000.9 592.652 983.615 592.652H762.053C744.77 592.652 730.759 606.662 730.759 623.946C730.759 625.65 730.895 627.322 731.158 628.953H621.856C606.277 628.953 593.357 640.337 590.96 655.24H517.959C500.676 655.24 486.665 669.251 486.665 686.534C486.665 703.817 500.676 717.828 517.959 717.828H594.396C591.952 722.287 590.562 727.406 590.562 732.849C590.562 750.132 604.572 764.143 621.856 764.143H788.34C803.919 764.143 816.839 752.759 819.236 737.856H903.503C920.786 737.856 934.797 723.845 934.797 706.562C934.797 689.279 920.786 675.268 903.503 675.268H839.584C842.028 670.809 843.418 665.69 843.418 660.247C843.418 658.543 843.282 656.87 843.02 655.24H983.615C1000.9 655.24 1014.91 641.229 1014.91 623.946Z" fill="white"/>
<path fill-rule="evenodd" clip-rule="evenodd" d="M243.727 703.889C228.699 703.889 216.516 691.707 216.516 676.679C216.516 661.65 228.699 649.468 243.727 649.468H424.476C422.35 645.591 421.142 641.14 421.142 636.407L331.89 636.407C316.862 636.407 304.679 624.224 304.679 609.196C304.679 594.168 316.862 581.985 331.89 581.985H377.244C376.071 578.946 375.428 575.642 375.428 572.189C375.428 557.161 387.61 544.978 402.638 544.978H568.08C583.108 544.978 595.291 557.161 595.291 572.189C595.291 587.217 583.108 599.4 568.08 599.4H477.012C478.185 602.439 478.829 605.743 478.829 609.196L669.304 609.196C684.332 609.196 696.515 621.378 696.515 636.407C696.515 651.435 684.332 663.617 669.304 663.617H566.923C569.048 667.494 570.257 671.945 570.257 676.679C570.257 691.707 558.074 703.889 543.046 703.889H243.727Z" fill="white"/>
<path fill-rule="evenodd" clip-rule="evenodd" d="M0 761V638.324H177.548C175.718 634.595 174.691 630.401 174.691 625.966C174.691 624.043 174.884 622.164 175.252 620.35H96.0534C80.5426 620.35 67.9687 607.776 67.9687 592.265C67.9687 576.754 80.5427 564.18 96.0534 564.18H301.633C317.144 564.18 329.718 576.754 329.718 592.265C329.718 594.188 329.525 596.067 329.156 597.882H408.355C423.866 597.882 436.44 610.456 436.44 625.966C436.44 641.477 423.866 654.051 408.355 654.051H335.848C337.678 657.78 338.705 661.974 338.705 666.408C338.705 668.332 338.512 670.211 338.143 672.025H481.376C496.886 672.025 509.46 684.599 509.46 700.11C509.46 715.621 496.886 728.195 481.376 728.195H351.07C351.797 730.69 352.186 733.329 352.186 736.058C352.186 751.569 339.612 764.143 324.101 764.143H12.9227C8.26298 764.143 3.86832 763.008 0 761Z" fill="white"/>
<path fill-rule="evenodd" clip-rule="evenodd" d="M0 772.089H72.9037C89.206 772.089 102.422 758.873 102.422 742.571C102.422 726.268 89.206 713.053 72.9037 713.053L0 713.053V772.089ZM0 703.607V603.246H229.939C246.242 603.246 259.457 616.461 259.457 632.764C259.457 649.066 246.242 662.282 229.939 662.282H62.1824C63.7622 665.897 64.6385 669.891 64.6385 674.089C64.6385 690.391 51.4229 703.607 35.1205 703.607H0Z" fill="white"/>
<path fill-rule="evenodd" clip-rule="evenodd" d="M0 490.684H43.034C42.6059 489.213 42.3764 487.658 42.3764 486.049C42.3764 476.907 49.7875 469.495 58.9296 469.495H102.841C102.702 468.633 102.63 467.748 102.63 466.847C102.63 465.477 102.796 464.147 103.11 462.874H0V413.214L32.4443 413.214C41.5865 413.214 48.9976 420.626 48.9976 429.768L213.206 429.768C222.348 429.768 229.759 437.179 229.759 446.321C229.759 455.463 222.348 462.874 213.206 462.874H176.971C177.284 464.147 177.451 465.477 177.451 466.847C177.451 475.989 170.04 483.4 160.898 483.4H127.58C127.719 484.263 127.791 485.147 127.791 486.049C127.791 487.658 127.562 489.213 127.133 490.684H154.938C164.08 490.684 171.492 498.095 171.492 507.237C171.492 516.379 164.08 523.79 154.938 523.79H0V490.684ZM0 405.256V372.175C8.83515 372.523 15.8911 379.795 15.8911 388.716C15.8911 397.636 8.83517 404.908 0 405.256Z" fill="white"/>
</g>
</g>
<defs>
<clipPath id="clip0">
<rect width="1440" height="700" fill="white"/>
</clipPath>
<clipPath id="clip1">
<rect width="2860.4" height="595.917" fill="white" transform="translate(0 104)"/>
</clipPath>
</defs>
</svg>
