<svg width="4320" height="900" viewBox="0 0 4320 900" fill="none" xmlns="http://www.w3.org/2000/svg">
<path fill-rule="evenodd" clip-rule="evenodd" d="M2912 54C2925.81 54 2937 65.1929 2937 79C2937 92.8071 2925.81 104 2912 104H2887.36C2889.67 107.788 2891 112.238 2891 117H2962C2975.81 117 2987 128.193 2987 142C2987 155.807 2975.81 167 2962 167H2839C2825.19 167 2814 155.807 2814 142H2702.5C2700.18 153.411 2690.09 162 2678 162H2555C2541.19 162 2530 150.807 2530 137C2530 123.193 2541.19 112 2555 112H2654.5C2656.82 100.589 2666.91 92 2679 92H2767.64C2765.33 88.2121 2764 83.7615 2764 79C2764 65.1929 2775.19 54 2789 54H2912Z" fill="white"/>
<path fill-rule="evenodd" clip-rule="evenodd" d="M3822 249C3835.81 249 3847 260.193 3847 274H3878C3891.81 274 3903 285.193 3903 299C3903 312.807 3891.81 324 3878 324H3777C3763.19 324 3752 312.807 3752 299H3697C3697 311.522 3687.79 321.895 3675.78 323.716C3677.83 327.344 3679 331.535 3679 336H3848C3861.81 336 3873 347.193 3873 361C3873 374.807 3861.81 386 3848 386H3641C3627.19 386 3616 374.807 3616 361H3531C3517.19 361 3506 349.807 3506 336C3506 322.193 3517.19 311 3531 311H3566.06C3564.11 307.438 3563 303.349 3563 299C3563 285.193 3574.19 274 3588 274H3630C3630 260.193 3641.19 249 3655 249H3822Z" fill="white"/>
<path fill-rule="evenodd" clip-rule="evenodd" d="M4121 79C4134.81 79 4146 90.1929 4146 104H4193C4206.81 104 4218 115.193 4218 129H4232C4245.81 129 4257 140.193 4257 154C4257 167.807 4245.81 179 4232 179H4120C4118.93 179 4117.88 178.933 4116.85 178.803C4112.37 185.551 4104.7 190 4096 190H3983C3969.19 190 3958 178.807 3958 165H3928C3914.19 165 3903 153.807 3903 140C3903 126.193 3914.19 115 3928 115H3985.54C3983.91 111.681 3983 107.947 3983 104C3983 90.1929 3994.19 79 4008 79H4121Z" fill="white"/>
<path fill-rule="evenodd" clip-rule="evenodd" d="M2213 121C2226.81 121 2238 109.807 2238 96C2238 82.1929 2226.81 71 2213 71H2019C2005.19 71 1994 82.1929 1994 96H1869C1855.19 96 1844 107.193 1844 121C1844 127.086 1846.17 132.664 1849.79 137H1748C1748 123.528 1737.34 112.545 1724 112.02V112H1723H1610C1596.19 112 1585 123.193 1585 137C1585 150.807 1596.19 162 1610 162H1658C1658 175.807 1669.19 187 1683 187H1815.99C1815.35 189.221 1815 191.57 1815 194C1815 207.807 1826.19 219 1840 219H1912C1912 222.173 1912.59 225.207 1913.67 228H1823C1809.19 228 1798 239.193 1798 253C1798 266.807 1809.19 278 1823 278H1976C1989.81 278 2001 266.807 2001 253C2001 249.827 2000.41 246.793 1999.33 244H2171C2184.81 244 2196 232.807 2196 219C2196 205.193 2184.81 194 2171 194H2059C2059 180.193 2047.81 169 2034 169H1954.01C1954.65 166.779 1955 164.43 1955 162C1955 155.914 1952.83 150.336 1949.21 146H2116C2129.81 146 2141 134.807 2141 121H2213Z" fill="white"/>
<path fill-rule="evenodd" clip-rule="evenodd" d="M2468.54 280H2356C2342.19 280 2331 268.807 2331 255C2331 241.193 2342.19 230 2356 230H2543H2544V230.02C2557.34 230.545 2568 241.528 2568 255C2568 258.947 2567.09 262.681 2565.46 266H2604C2604 252.193 2615.19 241 2629 241H2798C2811.81 241 2823 252.193 2823 266C2823 279.807 2811.81 291 2798 291H2712C2712 294.556 2711.26 297.938 2709.92 301H2760C2773.81 301 2785 312.193 2785 326C2785 339.807 2773.81 351 2760 351H2654C2640.19 351 2629 339.807 2629 326C2629 322.444 2629.74 319.062 2631.08 316H2590.92C2592.26 319.062 2593 322.444 2593 326C2593 339.807 2581.81 351 2568 351H2520C2520 364.807 2508.81 376 2495 376H2301C2287.19 376 2276 364.807 2276 351C2276 337.193 2287.19 326 2301 326H2397C2397 312.193 2408.19 301 2422 301H2468.08C2466.74 297.938 2466 294.556 2466 291C2466 287.053 2466.91 283.319 2468.54 280Z" fill="white"/>
<path fill-rule="evenodd" clip-rule="evenodd" d="M2741 582H2641C2627.19 582 2616 593.193 2616 607H2511C2497.19 607 2486 618.193 2486 632C2486 634.798 2486.46 637.488 2487.31 640H2408C2394.19 640 2383 651.193 2383 665C2383 678.807 2394.19 690 2408 690H2467.31C2466.46 692.512 2466 695.202 2466 698C2466 711.807 2477.19 723 2491 723H2591C2604.81 723 2616 711.807 2616 698C2616 684.193 2604.81 673 2591 673H2577.69C2578.54 670.488 2579 667.798 2579 665C2579 662.202 2578.54 659.512 2577.69 657H2657C2670.81 657 2682 645.807 2682 632H2741C2754.81 632 2766 620.807 2766 607C2766 593.193 2754.81 582 2741 582Z" fill="white"/>
<path fill-rule="evenodd" clip-rule="evenodd" d="M1749.28 599.397C1772.59 599.397 1791.48 580.504 1791.48 557.199C1791.48 533.893 1772.59 515 1749.28 515H1580.49H1580.49C1557.18 515 1538.29 533.893 1538.29 557.199L1361.06 557.199C1337.75 557.199 1318.86 576.092 1318.86 599.397C1318.86 604.12 1319.63 608.661 1321.06 612.901H1187.2H1187.2C1163.89 612.901 1145 631.794 1145 655.099C1145 678.405 1163.89 697.298 1187.2 697.298H1287.31C1285.88 701.537 1285.1 706.079 1285.1 710.801C1285.1 734.107 1303.99 753 1327.3 753H1496.09C1519.4 753 1538.29 734.107 1538.29 710.801C1538.29 687.496 1519.4 668.603 1496.09 668.603H1473.63C1475.06 664.363 1475.84 659.822 1475.84 655.099C1475.84 650.377 1475.06 645.835 1473.63 641.596H1607.5C1630.8 641.596 1649.7 622.703 1649.7 599.397L1749.28 599.397Z" fill="white"/>
<path fill-rule="evenodd" clip-rule="evenodd" d="M432 106C432 92.1929 420.807 81 407 81H268C258.14 81 249.613 86.7081 245.544 95H98C84.1929 95 73 106.193 73 120C73 133.807 84.1929 145 98 145H156.5C158.816 156.411 168.905 165 181 165H386C386 169.762 387.331 174.212 389.642 178H331C317.193 178 306 189.193 306 203C306 205.798 306.46 208.488 307.307 211H157C143.193 211 132 222.193 132 236C132 249.807 143.193 261 157 261H265.993C265.347 263.221 265 265.57 265 268C265 271.947 265.915 275.681 267.544 279H250C236.193 279 225 290.193 225 304C225 317.807 236.193 329 250 329H346C359.807 329 371 317.807 371 304C371 300.053 370.085 296.319 368.456 293H418.993C422.021 303.4 431.623 311 443 311H567C580.807 311 592 299.807 592 286C592 272.193 580.807 261 567 261H473.007C469.979 250.6 460.377 243 449 243H402.007C402.653 240.779 403 238.43 403 236C403 233.202 402.54 230.512 401.693 228H502C515.807 228 527 216.807 527 203C527 198.238 525.669 193.788 523.358 190H550C563.807 190 575 178.807 575 165C575 151.193 563.807 140 550 140H499C499 126.193 487.807 115 474 115H430.331C431.409 112.207 432 109.173 432 106Z" fill="white"/>
<path fill-rule="evenodd" clip-rule="evenodd" d="M1108 363C1121.81 363 1133 374.193 1133 388C1133 401.807 1121.81 413 1108 413H1077C1077 416.947 1076.09 420.681 1074.46 424H1221C1234.81 424 1246 435.193 1246 449H1282C1295.81 449 1307 460.193 1307 474C1307 487.807 1295.81 499 1282 499H1230.69C1231.54 501.512 1232 504.202 1232 507C1232 520.807 1220.81 532 1207 532H1089C1075.19 532 1064 520.807 1064 507C1064 493.193 1075.19 482 1089 482H1158.31C1157.46 479.488 1157 476.798 1157 474H1032C1032 487.807 1020.81 499 1007 499H896.456C898.085 502.319 899 506.053 899 510H987C1000.81 510 1012 521.193 1012 535C1012 536.712 1011.83 538.384 1011.5 540H1041C1054.81 540 1066 551.193 1066 565C1066 578.807 1054.81 590 1041 590H931C917.193 590 906 578.807 906 565C906 563.288 906.172 561.616 906.5 560H883.456C885.085 563.319 886 567.053 886 571C886 584.807 874.807 596 861 596H735C721.193 596 710 584.807 710 571C710 557.193 721.193 546 735 546H787.544C785.915 542.681 785 538.947 785 535H617C603.193 535 592 523.807 592 510C592 496.193 603.193 485 617 485H807.544C805.915 481.681 805 477.947 805 474C805 460.193 816.193 449 830 449H933C933 445.053 933.915 441.319 935.544 438H875C863.261 438 853.412 429.909 850.725 419H813C813 432.807 801.807 444 788 444H646C632.193 444 621 432.807 621 419C621 405.193 632.193 394 646 394H751C751 380.193 762.193 369 776 369H902C913.739 369 923.588 377.091 926.275 388H984C984 374.193 995.193 363 1009 363H1108Z" fill="white"/>
<path fill-rule="evenodd" clip-rule="evenodd" d="M1048 114C1048 100.193 1036.81 89 1023 89H836C822.193 89 811 100.193 811 114C811 127.807 822.193 139 836 139H879C879 143.349 880.11 147.438 882.063 151H783C769.193 151 758 162.193 758 176C758 189.807 769.193 201 783 201H996C1009.81 201 1021 189.807 1021 176C1021 171.651 1019.89 167.562 1017.94 164H1115C1128.81 164 1140 152.807 1140 139C1140 125.193 1128.81 114 1115 114H1048Z" fill="white"/>
<path fill-rule="evenodd" clip-rule="evenodd" d="M1556 201C1569.81 201 1581 212.193 1581 226C1581 239.807 1569.81 251 1556 251H1389.94C1391.89 254.562 1393 258.651 1393 263H1475C1488.81 263 1500 274.193 1500 288C1500 301.807 1488.81 313 1475 313H1433.33C1434.41 315.793 1435 318.827 1435 322C1435 335.807 1423.81 347 1410 347H1258C1244.19 347 1233 335.807 1233 322C1233 308.193 1244.19 297 1258 297H1341.67C1340.59 294.207 1340 291.173 1340 288H1165C1151.19 288 1140 276.807 1140 263C1140 249.193 1151.19 238 1165 238H1259.06C1257.11 234.438 1256 230.349 1256 226C1256 212.193 1267.19 201 1281 201H1556Z" fill="white"/>
<path fill-rule="evenodd" clip-rule="evenodd" d="M3641 101C3654.81 101 3666 112.193 3666 126C3666 139.807 3654.81 151 3641 151H3605.33C3606.41 153.793 3607 156.827 3607 160C3607 173.807 3595.81 185 3582 185H3358.28C3358.75 186.922 3359 188.932 3359 191H3378C3391.81 191 3403 202.193 3403 216C3403 229.807 3391.81 241 3378 241H3340.46C3342.09 244.319 3343 248.053 3343 252C3343 265.807 3331.81 277 3318 277H3191C3191 290.807 3179.81 302 3166 302H3039C3025.19 302 3014 290.807 3014 277C3014 263.193 3025.19 252 3039 252H3070C3070 238.193 3081.19 227 3095 227H3239.54C3237.91 223.681 3237 219.947 3237 216H3211C3197.19 216 3186 204.807 3186 191H3132C3118.19 191 3107 179.807 3107 166C3107 152.193 3118.19 141 3132 141H3194C3207.81 141 3219 152.193 3219 166H3284.72C3284.25 164.078 3284 162.068 3284 160C3284 146.193 3295.19 135 3309 135H3492.67C3491.59 132.207 3491 129.173 3491 126C3491 112.193 3502.19 101 3516 101H3641Z" fill="white"/>
<path fill-rule="evenodd" clip-rule="evenodd" d="M752 785C765.807 785 777 773.807 777 760C777 746.193 765.807 735 752 735H716.331C717.409 732.207 718 729.173 718 726C718 712.193 706.807 701 693 701H469.275C469.749 699.078 470 697.068 470 695H489C502.807 695 514 683.807 514 670C514 656.193 502.807 645 489 645H451.456C453.085 641.681 454 637.947 454 634C454 620.193 442.807 609 429 609H302C302 595.193 290.807 584 277 584H150C136.193 584 125 595.193 125 609C125 622.807 136.193 634 150 634H181C181 647.807 192.193 659 206 659H350.544C348.915 662.319 348 666.053 348 670H322C308.193 670 297 681.193 297 695H243C229.193 695 218 706.193 218 720C218 733.807 229.193 745 243 745H305C318.807 745 330 733.807 330 720H395.725C395.251 721.922 395 723.932 395 726C395 739.807 406.193 751 420 751H603.669C602.591 753.793 602 756.827 602 760C602 773.807 613.193 785 627 785H752Z" fill="white"/>
</svg>
