<svg width="1440" height="700" viewBox="0 0 1440 700" fill="none" xmlns="http://www.w3.org/2000/svg">
<g clip-path="url(#clip0)">
<rect width="1440" height="700" fill="#F0E6E7"/>
<circle cx="720" cy="432" r="128" fill="#FFC0C0"/>
<path fill-rule="evenodd" clip-rule="evenodd" d="M356.262 317.974V321.712H360.315C361.494 321.712 362.525 320.858 362.525 320.431V317.974H364.735V400.218L362.525 400.218L362.525 386.611C362.525 383.68 361.297 381.9 360.683 381.9H356.262V400.218H356.262V381.9H351.841C351.227 381.9 349.999 383.68 349.999 386.611L349.999 400.218L347.789 400.218V317.974H349.999V320.431C349.999 320.858 351.031 321.712 352.21 321.712H356.262V317.974H356.262ZM356.262 353.862V340.778H351.841C351.227 340.778 349.999 342.049 349.999 344.143V352.367C349.999 352.866 351.031 353.862 352.21 353.862H356.262ZM356.262 325.451V336.666H352.21C351.031 336.666 349.999 335.811 349.999 335.384V328.335C349.999 326.54 351.227 325.451 351.841 325.451H356.262ZM356.262 340.778V353.862H360.315C361.494 353.862 362.525 352.866 362.525 352.367V344.143C362.525 342.049 361.297 340.778 360.683 340.778H356.262ZM356.262 336.666V325.451H360.683C361.297 325.451 362.525 326.54 362.525 328.335V335.384C362.525 335.811 361.494 336.666 360.315 336.666H356.262ZM356.262 376.293V359.47H360.683C361.297 359.47 362.525 361.104 362.525 363.796V374.37C362.525 375.011 361.494 376.293 360.315 376.293H356.262ZM356.262 359.47V376.293H352.21C351.031 376.293 349.999 375.011 349.999 374.37V363.796C349.999 361.104 351.227 359.47 351.841 359.47H356.262Z" fill="#8CA7BF"/>
<path fill-rule="evenodd" clip-rule="evenodd" d="M373.367 194.553V188H379.35V407.37L373.367 407.37L373.367 371.074C373.367 363.257 370.044 358.51 368.382 358.51H356.418H356.417H344.453C342.791 358.51 339.468 363.257 339.468 371.074L339.468 407.37L333.486 407.37V188H339.468V194.553C339.468 195.692 342.26 197.971 345.45 197.971H356.417H356.418H367.385C370.576 197.971 373.367 195.692 373.367 194.553ZM345.45 283.725H356.417H356.418H367.385C370.576 283.725 373.367 281.066 373.367 279.737V257.8C373.367 252.216 370.044 248.825 368.382 248.825H356.418H356.417H344.453C342.791 248.825 339.468 252.216 339.468 257.8V279.737C339.468 281.066 342.26 283.725 345.45 283.725ZM356.417 237.857H345.45C342.26 237.857 339.468 235.578 339.468 234.438V215.635C339.468 210.849 342.791 207.943 344.453 207.943H356.417H356.418H368.382C370.044 207.943 373.367 210.849 373.367 215.635V234.438C373.367 235.578 370.576 237.857 367.385 237.857H356.418H356.417ZM367.385 343.553H356.417H345.45C342.26 343.553 339.468 340.135 339.468 338.425V310.22C339.468 303.041 342.791 298.682 344.453 298.682H356.417H356.418H368.382C370.044 298.682 373.367 303.041 373.367 310.22V338.425C373.367 340.135 370.576 343.553 367.385 343.553Z" fill="#8CA7BF"/>
<path d="M298 475C320.423 414.08 343.869 394.484 349.99 392.3H363.001C369.122 394.484 392.567 414.08 414.99 475H298Z" fill="#8CA7BF"/>
<path d="M377.95 193.286C378.358 236.028 380.857 341.95 387.589 423.694" stroke="#8CA7BF" stroke-width="3.10943"/>
<path d="M335.351 193.286C334.943 236.028 332.444 341.95 325.712 423.694" stroke="#8CA7BF" stroke-width="3.10943"/>
<path d="M339.549 296.208C342.525 418.723 343.83 431.988 349.188 319.208" stroke="#8CA7BF" stroke-width="0.932828"/>
<path d="M330.065 412.812L330.065 355.598" stroke="#8CA7BF" stroke-width="0.932828"/>
<path d="M332.242 410.635L332.242 306.469" stroke="#8CA7BF" stroke-width="0.932828"/>
<path d="M340.637 401.618L340.637 353.421" stroke="#8CA7BF" stroke-width="0.621885"/>
<path d="M347.167 394.777L347.167 357.464" stroke="#8CA7BF" stroke-width="0.466414"/>
<path d="M345.923 395.71L345.923 377.986" stroke="#8CA7BF" stroke-width="0.466414"/>
<path d="M341.881 399.441L341.881 378.919" stroke="#8CA7BF" stroke-width="0.621885"/>
<path d="M349.033 388.869C343.902 388.869 333.796 393.844 316.073 420.119" stroke="#8CA7BF" stroke-width="1.55471"/>
<path d="M372.975 296.208C369.999 418.723 368.695 431.988 363.336 319.208" stroke="#8CA7BF" stroke-width="0.932828"/>
<path d="M382.459 412.812L382.459 355.598" stroke="#8CA7BF" stroke-width="0.932828"/>
<path d="M380.282 410.635L380.282 306.469" stroke="#8CA7BF" stroke-width="0.932828"/>
<path d="M371.887 401.618L371.887 353.421" stroke="#8CA7BF" stroke-width="0.621885"/>
<path d="M365.357 394.777L365.357 357.464" stroke="#8CA7BF" stroke-width="0.466414"/>
<path d="M366.601 395.71L366.601 377.986" stroke="#8CA7BF" stroke-width="0.466414"/>
<path d="M370.643 399.441L370.643 378.919" stroke="#8CA7BF" stroke-width="0.621885"/>
<path d="M363.492 388.869C368.622 388.869 378.728 393.844 396.451 420.119" stroke="#8CA7BF" stroke-width="1.55471"/>
<path d="M783 444C694 453 618.5 375.5 523 383C427.5 390.5 310 454 216.5 406.5C123 359 0 444 0 444V584H1440V375.5C1440 375.5 1404 336 1316.5 331C1229 326 1128.5 435 1033 375.5C937.5 316 872 435 783 444Z" fill="#8CA7BF"/>
<path fill-rule="evenodd" clip-rule="evenodd" d="M1244.97 298.43H1242.97V315.719H1241.64V325.693H1241.64V330.348H1234.99H1234.99V315.719H1233.66V298.43H1231.67V315.719H1230.34V325.693H1226.35V330.348H1216.37V332.343H1209.72V466H1234.99H1241.64H1266.91V332.343H1260.26V330.348H1250.29V325.693H1246.3V315.719H1244.97V298.43Z" fill="#6589AA"/>
<path fill-rule="evenodd" clip-rule="evenodd" d="M1128.74 338.404H1085.51V347.049H1076.87V496H1085.51H1128.74H1137.38V347.049H1128.74V338.404Z" fill="#6589AA"/>
<path fill-rule="evenodd" clip-rule="evenodd" d="M1176.4 311.396V376.859L1185.79 476H1143.75L1153.13 376.863V311.396L1152.96 311.396L1159.58 308.748L1164.77 253.903L1169.96 308.748L1176.57 311.396L1176.4 311.396Z" fill="#6589AA"/>
<path fill-rule="evenodd" clip-rule="evenodd" d="M1289.4 216H1315.58C1320.76 233.25 1324.1 260.49 1324.1 291.141C1324.1 292.253 1324.09 293.362 1324.08 294.465H1324.1V476H1280.88V294.465H1280.89C1280.88 293.362 1280.88 292.253 1280.88 291.141C1280.88 260.49 1284.22 233.25 1289.4 216Z" fill="#6589AA"/>
<path d="M654 447.448L669.333 442.848V486H654V447.448Z" fill="#6589AA"/>
<rect x="669.333" y="440" width="17.9619" height="46" fill="#6589AA"/>
<path d="M687.295 453.581L693.867 451.39L700.438 453.581V486H687.295V453.581Z" fill="#6589AA"/>
<path d="M700.438 441.095L716.648 443.943V486H700.438V441.095Z" fill="#6589AA"/>
<rect x="720.647" y="462.781" width="11.3905" height="23.219" fill="#6589AA"/>
<path d="M732.038 455.771L738.61 451.39L745.181 455.771V486H732.038V455.771Z" fill="#6589AA"/>
<rect x="745.181" y="440" width="14.8952" height="46" fill="#6589AA"/>
<rect x="483.572" y="383" width="16" height="48" fill="#6589AA"/>
<path d="M462.286 397.286L476.571 399.424V431H462.286V397.286Z" fill="#6589AA"/>
<path d="M435.429 401.553L448.857 397.286L462.286 401.553V431H435.429V401.553Z" fill="#6589AA"/>
<path d="M499.572 391.571L510.143 385.857L520.714 391.571V431H499.572V391.571Z" fill="#6589AA"/>
<rect x="413" y="397.286" width="19.4286" height="33.7143" fill="#6589AA"/>
<path d="M578.5 413C627.5 412 664 519.5 755 470C846 420.5 864 483.5 1024.5 484.5C1185 485.5 1206.5 416.5 1288.5 430C1370.5 443.5 1440 416.5 1440 416.5V634H0V394.5C0 394.5 72.5 424 119.5 410C166.5 396 239.5 327.5 291 340C342.5 352.5 394 425.5 454 425.5C514 425.5 529.5 414 578.5 413Z" fill="#6589AA"/>
<path d="M140.635 499.232L140.635 97.7645M99.7307 141.454L99.7005 71M99.7307 141.454H181.538M99.7307 141.454L140.634 155.612M99.7307 141.454H69M99.7307 141.454L79.2335 133.678M99.7307 141.454L140.604 155.612M99.7307 141.454L124.378 252.448M181.538 141.454L181.568 71M181.538 141.454L140.634 155.612M181.538 141.454L140.604 155.612M181.538 141.454H211.482M181.538 141.454L202.005 133.678M181.538 141.454L158.465 252.448M140.634 155.612L122.499 162.42M140.604 155.612L158.74 162.42M158.465 252.448L140.422 259.075L124.378 252.448M158.465 252.448H124.378M158.465 252.448L191.803 463.808M124.378 252.448L87.8926 463.808M140.634 324.977L167.904 315.974H113.365L140.634 324.977ZM141.422 402.752L178.917 387.372H103.927L141.422 402.752Z" stroke="#507496" stroke-width="7.87191" stroke-linecap="round" stroke-linejoin="round"/>
<path d="M122 448.007C82.5 474.007 0 481.007 0 481.007V692.028H1440V461.028C1440 461.028 1412.5 436.028 1331 450.528C1249.5 465.028 1260.5 504.028 1188.5 512.528C1116.5 521.028 1089.5 567.528 1025.5 561.528C961.5 555.528 965 507.028 908 524.028C851 541.028 818 547.028 760.5 512.528C703 478.028 692.5 461.028 634 481.007C575.5 500.985 523.5 406.528 480 395.528C436.5 384.529 388 436.528 358 436.028C328 435.528 273.5 391.528 224 395.528C174.5 399.528 161.5 422.007 122 448.007Z" fill="#507496"/>
<path d="M961.733 503.175L980.369 497.585V550.031H961.733V503.175Z" fill="#507496"/>
<path d="M834.118 492.052L857.21 486.092V542H834.118V492.052Z" fill="#507496"/>
<rect x="796.441" y="486.092" width="21.8306" height="55.9077" fill="#507496"/>
<path d="M818.272 502.598L826.259 499.936L834.245 502.598V542H818.272V502.598Z" fill="#507496"/>
<path d="M942 475L962 487.375V541H942V475Z" fill="#507496"/>
<rect x="864.503" y="501.892" width="20.6615" height="38.8923" fill="#507496"/>
<path d="M885 495.949L893 490L901 495.949V537H885V495.949Z" fill="#507496"/>
<path d="M919.195 489.785L930.741 483.938L942.287 489.785V530.123H919.195V489.785Z" fill="#507496"/>
<path d="M762.41 496.8L773.956 490.954L785.502 496.8V537.138H762.41V496.8Z" fill="#507496"/>
<path d="M742.964 482.077L752.687 475.154L762.41 482.077V529.846H742.964V482.077Z" fill="#507496"/>
<rect x="900.964" y="473.938" width="18.2308" height="66.8462" fill="#507496"/>
<path d="M987 520L1005.5 510L1024 520V589H987V520Z" fill="#456684"/>
<path d="M1040 512.392L1064 501L1088 512.392V591H1040V512.392Z" fill="#456684"/>
<path d="M1088 497.633L1109 487L1130 497.633V571H1088V497.633Z" fill="#456684"/>
<path d="M1130 477.392L1152 466L1174 477.392V556H1130V477.392Z" fill="#456684"/>
<path d="M1189 441.633L1207.5 431L1226 441.633V515H1189V441.633Z" fill="#456684"/>
<path d="M1226 429.633L1244.5 419L1263 429.633V503H1226V429.633Z" fill="#456684"/>
<path d="M273 452L235 458.151V549H273V452Z" fill="#456684"/>
<path d="M437 430L403 435.644V519H437V430Z" fill="#456684"/>
<path d="M403 444.278L382.5 432L362 444.278V529H403V444.278Z" fill="#456684"/>
<path d="M314 484.38L293.5 474L273 484.38V556H314V484.38Z" fill="#456684"/>
<path d="M235 452.025L210 440L185 452.025V535H235V452.025Z" fill="#456684"/>
<rect width="38" height="70" transform="matrix(-1 0 0 1 352 469)" fill="#456684"/>
<path d="M610 532.5C659 531.5 717.5 458 796.5 505C875.5 552 905 510.5 960 544.5C1015 578.5 1083.5 562 1124.5 544.5C1165.5 527 1215.84 461.458 1266 456.5C1352 448 1440 486 1440 486V734H0V494.5C0 494.5 74.5 490.5 121.5 476.5C168.5 462.5 212 529.5 263.5 542C315 554.5 402.5 494.5 462.5 494.5C522.5 494.5 561 533.5 610 532.5Z" fill="#456684"/>
<path d="M1164 562.401C1295.5 553.401 1440 619.401 1440 619.401V1082H0V619.401C0 619.401 15 605 62 619.401C109 633.802 192.5 588.001 237 567C281.5 546 318.5 522 426.5 522C534.5 522 733.5 593.401 884 603.901C1034.5 614.401 1032.5 571.401 1164 562.401Z" fill="#405E7A"/>
</g>
<defs>
<clipPath id="clip0">
<rect width="1440" height="700" fill="white"/>
</clipPath>
</defs>
</svg>
