<svg width="4320" height="900" viewBox="0 0 4320 900" fill="none" xmlns="http://www.w3.org/2000/svg">
<g clip-path="url(#clip0)">
<path fill-rule="evenodd" clip-rule="evenodd" d="M1247 766H1447C1474.61 766 1497 788.386 1497 816H1707C1734.61 816 1757 838.386 1757 866C1757 871.596 1756.08 876.977 1754.39 882H1913C1940.61 882 1963 904.386 1963 932C1963 959.614 1940.61 982 1913 982H1794.39C1796.08 987.023 1797 992.404 1797 998C1797 1025.61 1774.61 1048 1747 1048H1547C1519.39 1048 1497 1025.61 1497 998C1497 970.386 1519.39 948 1547 948H1573.61C1571.92 942.977 1571 937.596 1571 932C1571 926.404 1571.92 921.023 1573.61 916H1415C1387.39 916 1365 893.614 1365 866H1247C1219.39 866 1197 843.614 1197 816C1197 788.386 1219.39 766 1247 766Z" fill="white"/>
<path fill-rule="evenodd" clip-rule="evenodd" d="M2966.82 693.971C2966.82 669.686 2947.13 650 2922.85 650H2806.76C2782.48 650 2762.79 669.686 2762.79 693.971C2762.79 718.255 2782.48 737.941 2806.76 737.941H2872.38C2870.89 742.359 2870.08 747.091 2870.08 752.012C2870.08 776.296 2889.77 795.982 2914.05 795.982H3072.91C3072.54 798.273 3072.35 800.623 3072.35 803.018C3072.35 807.938 3073.16 812.671 3074.65 817.088H2797.97C2773.69 817.088 2754 836.775 2754 861.059C2754 885.343 2773.69 905.029 2797.97 905.029H2819.08C2819.08 929.314 2838.76 949 2863.05 949H3070.59C3094.87 949 3114.56 929.314 3114.56 905.029H3130.39C3134.7 905.029 3138.86 904.409 3142.8 903.253C3150.27 916.889 3164.75 926.135 3181.39 926.135H3482.15C3506.44 926.135 3526.12 906.449 3526.12 882.165C3526.12 857.88 3506.44 838.194 3482.15 838.194H3381.9C3392.58 830.172 3399.49 817.401 3399.49 803.018H3445.22C3469.5 803.018 3489.19 783.331 3489.19 759.047C3489.19 734.763 3469.5 715.076 3445.22 715.076H3329.14C3304.85 715.076 3285.16 734.763 3285.16 759.047H3196.66C3197.03 756.756 3197.22 754.406 3197.22 752.012C3197.22 727.727 3177.54 708.041 3153.25 708.041H2964.52C2966.01 703.623 2966.82 698.891 2966.82 693.971Z" fill="white"/>
<path fill-rule="evenodd" clip-rule="evenodd" d="M3567.45 600H3733.25C3756.14 600 3774.69 618.557 3774.69 641.449H3948.78C3971.67 641.449 3990.23 660.006 3990.23 682.898C3990.23 687.537 3989.47 691.998 3988.06 696.162H4119.55C4142.44 696.162 4161 714.719 4161 737.611C4161 760.503 4142.44 779.06 4119.55 779.06H4021.22C4022.63 783.224 4023.39 787.685 4023.39 792.324C4023.39 815.215 4004.83 833.773 3981.94 833.773H3816.14C3793.25 833.773 3774.69 815.215 3774.69 792.324C3774.69 769.432 3793.25 750.875 3816.14 750.875H3838.21C3836.8 746.71 3836.04 742.25 3836.04 737.611C3836.04 732.972 3836.8 728.512 3838.21 724.347H3706.72C3683.83 724.347 3665.27 705.79 3665.27 682.898H3567.45C3544.56 682.898 3526 664.341 3526 641.449C3526 618.557 3544.56 600 3567.45 600Z" fill="white"/>
<path fill-rule="evenodd" clip-rule="evenodd" d="M2501.62 845H2412.99C2410.79 845.328 2408.54 845.499 2406.25 845.499C2381.26 845.499 2361 825.24 2361 800.249C2361 775.342 2381.12 755.135 2406 755.001V755H2406.25H2631.42C2633.01 754.831 2634.63 754.744 2636.26 754.744C2661.25 754.744 2681.51 775.003 2681.51 799.993C2681.51 807.138 2679.86 813.895 2676.91 819.903L2746.67 819.903C2746.67 794.913 2766.93 774.654 2791.92 774.654H3097.81C3122.8 774.654 3143.05 794.913 3143.05 819.903C3143.05 844.894 3122.8 865.152 3097.81 865.152L2942.15 865.152C2942.15 871.588 2940.8 877.709 2938.38 883.252H3029.03C3054.02 883.252 3074.28 903.511 3074.28 928.501C3074.28 953.492 3054.02 973.751 3029.03 973.751H2837.17C2812.18 973.751 2791.92 953.492 2791.92 928.501C2791.92 922.066 2793.26 915.944 2795.69 910.402H2723C2725.42 915.944 2726.76 922.066 2726.76 928.501C2726.76 953.329 2706.77 973.486 2682 973.748V974H2594.63C2594.5 998.876 2574.29 1019 2549.38 1019H2198.25C2173.26 1019 2153 998.741 2153 973.751C2153 948.76 2173.26 928.501 2198.25 928.501L2202.01 928.501C2202.01 904.606 2220.53 885.036 2244 883.368V883H2500.55C2498.2 877.524 2496.9 871.49 2496.9 865.152C2496.9 857.912 2498.6 851.068 2501.62 845Z" fill="white"/>
<path fill-rule="evenodd" clip-rule="evenodd" d="M2267.81 746.048C2287.15 746.048 2302.83 730.367 2302.83 711.024C2302.83 691.681 2287.15 676 2267.81 676H1996.02C1976.68 676 1961 691.681 1961 711.024L1785.87 711.024H1785.87C1766.53 711.024 1750.85 726.705 1750.85 746.048C1750.85 754.575 1753.9 762.39 1758.96 768.464L1616.36 768.464C1616.36 749.59 1601.43 734.203 1582.73 733.467V733.44H1581.33H1423.02H1423.02C1403.68 733.44 1388 749.121 1388 768.464C1388 787.807 1403.68 803.488 1423.02 803.488H1423.02L1490.27 803.488C1490.27 822.831 1505.95 838.512 1525.29 838.512H1525.29H1711.61C1710.71 841.624 1710.22 844.915 1710.22 848.319C1710.22 867.662 1725.9 883.343 1745.25 883.343H1745.25L1846.12 883.343C1846.12 887.788 1846.94 892.039 1848.45 895.952H1721.43C1721.43 895.952 1721.43 895.952 1721.43 895.952C1702.09 895.952 1686.41 911.633 1686.41 930.976C1686.41 950.319 1702.09 966 1721.43 966C1721.43 966 1721.43 966 1721.43 966H1935.78C1955.12 966 1970.8 950.319 1970.8 930.976C1970.8 926.531 1969.97 922.279 1968.46 918.367H2208.97C2228.31 918.367 2243.99 902.686 2243.99 883.343C2243.99 864 2228.31 848.319 2208.97 848.319L2052.06 848.319C2052.06 828.976 2036.38 813.295 2017.03 813.295H1904.97C1905.87 810.183 1906.36 806.892 1906.36 803.488C1906.36 794.961 1903.31 787.146 1898.25 781.072H2131.91C2151.26 781.072 2166.94 765.392 2166.94 746.048L2267.81 746.048Z" fill="white"/>
<path fill-rule="evenodd" clip-rule="evenodd" d="M1640 401H1740C1753.81 401 1765 412.193 1765 426H1870C1883.81 426 1895 437.193 1895 451C1895 453.798 1894.54 456.488 1893.69 459H1973C1986.81 459 1998 470.193 1998 484C1998 497.807 1986.81 509 1973 509H1913.69C1914.54 511.512 1915 514.202 1915 517C1915 530.807 1903.81 542 1890 542H1790C1776.19 542 1765 530.807 1765 517C1765 503.193 1776.19 492 1790 492H1803.31C1802.46 489.488 1802 486.798 1802 484C1802 481.202 1802.46 478.512 1803.31 476H1724C1710.19 476 1699 464.807 1699 451H1640C1626.19 451 1615 439.807 1615 426C1615 412.193 1626.19 401 1640 401Z" fill="white"/>
<path fill-rule="evenodd" clip-rule="evenodd" d="M4320 919.839V1009H3659.76C3635.13 1009 3615.17 989.041 3615.17 964.42C3615.17 959.43 3615.99 954.633 3617.51 950.154H3529.58C3504.96 950.154 3485 930.195 3485 905.573C3485 880.952 3504.96 860.993 3529.58 860.993L3674.02 860.993C3674.02 854.653 3675.34 848.622 3677.73 843.161H3604.48C3579.85 843.161 3559.9 823.202 3559.9 798.58C3559.9 773.959 3579.85 754 3604.48 754H3788.15C3812.77 754 3832.73 773.959 3832.73 798.58C3832.73 804.921 3831.4 810.952 3829.02 816.413H4052.06C4076.68 816.413 4096.64 836.372 4096.64 860.993C4096.64 865.982 4095.82 870.78 4094.31 875.259H4145.34C4143.83 870.78 4143.01 865.982 4143.01 860.993C4143.01 836.372 4162.97 816.413 4187.59 816.413H4239.44C4237.06 810.952 4235.73 804.921 4235.73 798.58C4235.73 773.959 4255.69 754 4280.31 754H4320V905.573H4253.02C4254.53 910.052 4255.35 914.85 4255.35 919.839H4320Z" fill="white"/>
<path fill-rule="evenodd" clip-rule="evenodd" d="M1532.8 785.263C1532.8 759.16 1511.64 738 1485.53 738H1150.91C1124.81 738 1103.65 759.16 1103.65 785.263C1103.65 787.837 1103.86 790.363 1104.25 792.825H939.175C915.647 792.825 896.134 810.018 892.514 832.526H782.263C756.16 832.526 735 853.686 735 879.788C735 905.891 756.16 927.051 782.263 927.051H897.703C894.011 933.785 891.912 941.516 891.912 949.737C891.912 975.84 913.073 997 939.175 997H1190.61C1214.14 997 1233.65 979.807 1237.27 957.299H1364.54C1390.64 957.299 1411.8 936.139 1411.8 910.036C1411.8 883.934 1390.64 862.774 1364.54 862.774H1268.01C1271.7 856.04 1273.8 848.309 1273.8 840.088C1273.8 837.514 1273.59 834.988 1273.19 832.526H1485.53C1511.64 832.526 1532.8 811.365 1532.8 785.263Z" fill="white"/>
<path fill-rule="evenodd" clip-rule="evenodd" d="M368.096 906C345.399 906 327 887.601 327 864.904C327 842.207 345.399 823.808 368.096 823.808H641.076C637.866 817.953 636.041 811.231 636.041 804.082H501.247C478.55 804.082 460.151 785.683 460.151 762.986C460.151 740.29 478.55 721.89 501.247 721.89H569.744C567.972 717.3 567 712.311 567 707.096C567 684.399 585.399 666 608.096 666H857.959C880.656 666 899.055 684.399 899.055 707.096C899.055 729.793 880.656 748.192 857.959 748.192H720.421C722.193 752.782 723.165 757.771 723.165 762.986H1010.84C1033.53 762.986 1051.93 781.386 1051.93 804.082C1051.93 826.779 1033.53 845.178 1010.84 845.178H856.212C859.422 851.033 861.247 857.756 861.247 864.904C861.247 887.601 842.847 906 820.151 906H368.096Z" fill="white"/>
<path fill-rule="evenodd" clip-rule="evenodd" d="M0 992.253V806.978H268.147C265.383 801.346 263.831 795.011 263.831 788.315C263.831 785.409 264.123 782.572 264.68 779.831H145.067C121.642 779.831 102.652 760.841 102.652 737.416C102.652 713.99 121.642 695 145.067 695H455.551C478.976 695 497.966 713.99 497.966 737.416C497.966 740.321 497.674 743.158 497.118 745.899H616.73C640.156 745.899 659.146 764.889 659.146 788.315C659.146 811.74 640.156 830.73 616.73 830.73H507.223C509.987 836.362 511.539 842.696 511.539 849.393C511.539 852.298 511.247 855.135 510.691 857.876H727.011C750.437 857.876 769.427 876.867 769.427 900.292C769.427 923.718 750.437 942.708 727.011 942.708H530.214C531.311 946.476 531.899 950.462 531.899 954.584C531.899 978.01 512.909 997 489.483 997H19.5169C12.4794 997 5.84224 995.286 0 992.253Z" fill="white"/>
<path fill-rule="evenodd" clip-rule="evenodd" d="M0 1009H110.105C134.726 1009 154.685 989.041 154.685 964.42C154.685 939.798 134.726 919.839 110.105 919.839L0 919.839V1009ZM0 905.573V754H347.273C371.894 754 391.853 773.959 391.853 798.58C391.853 823.202 371.894 843.161 347.273 843.161H93.9128C96.2987 848.622 97.6223 854.653 97.6223 860.993C97.6223 885.614 77.6629 905.573 53.0418 905.573H0Z" fill="white"/>
<path fill-rule="evenodd" clip-rule="evenodd" d="M4320 806.978V992.253C4306.4 985.19 4297.1 970.972 4297.1 954.584C4297.1 953.442 4297.15 952.31 4297.23 951.191H4088.42C4064.99 951.191 4046 932.201 4046 908.775C4046 885.35 4064.99 866.36 4088.42 866.36H4280.27C4278 861.164 4276.74 855.426 4276.74 849.393C4276.74 825.968 4295.73 806.978 4319.16 806.978H4320Z" fill="white"/>
<path fill-rule="evenodd" clip-rule="evenodd" d="M0 584H64.9932C64.3466 581.779 64 579.43 64 577C64 563.193 75.1929 552 89 552H155.318C155.109 550.697 155 549.361 155 548C155 545.932 155.251 543.922 155.725 542H0V467H49C62.8071 467 74 478.193 74 492H322C335.807 492 347 503.193 347 517C347 530.807 335.807 542 322 542H267.275C267.749 543.922 268 545.932 268 548C268 561.807 256.807 573 243 573H192.682C192.891 574.302 193 575.638 193 577C193 579.43 192.653 581.779 192.007 584H234C247.807 584 259 595.193 259 609C259 622.807 247.807 634 234 634H0V584ZM0 454.98V405.02C13.3435 405.544 24 416.528 24 430C24 443.472 13.3435 454.455 0 454.98Z" fill="white"/>
<path fill-rule="evenodd" clip-rule="evenodd" d="M4320 454.98C4319.67 454.994 4319.33 455 4319 455H4240.94C4242.89 458.562 4244 462.651 4244 467H4320V542H4286C4272.19 542 4261 530.807 4261 517H4158C4144.19 517 4133 505.807 4133 492H3998C3984.19 492 3973 480.807 3973 467C3973 453.193 3984.19 442 3998 442H4105.06C4103.11 438.438 4102 434.349 4102 430C4102 416.193 4113.19 405 4127 405H4319C4319.33 405 4319.67 405.006 4320 405.02V454.98ZM4320 584V634H4277C4263.19 634 4252 622.807 4252 609C4252 595.193 4263.19 584 4277 584H4320Z" fill="white"/>
<path fill-rule="evenodd" clip-rule="evenodd" d="M3361 444C3361 430.193 3349.81 419 3336 419H3179C3165.19 419 3154 430.193 3154 444C3154 457.807 3165.19 469 3179 469H3278.67C3277.59 471.793 3277 474.827 3277 478C3277 481.173 3277.59 484.207 3278.67 487H3169C3159.54 487 3151.31 492.253 3147.06 500H2939C2925.19 500 2914 511.193 2914 525C2914 538.807 2925.19 550 2939 550H3072C3072 563.807 3083.19 575 3097 575H3206C3206 588.807 3217.19 600 3231 600H3418C3431.81 600 3443 588.807 3443 575C3443 572.932 3442.75 570.922 3442.28 569H3501C3514.81 569 3526 557.807 3526 544C3526 530.193 3514.81 519 3501 519H3416C3402.19 519 3391 530.193 3391 544C3391 546.068 3391.25 548.078 3391.72 550H3309C3309 545.238 3307.67 540.788 3305.36 537H3356C3369.81 537 3381 525.807 3381 512C3381 508.827 3380.41 505.793 3379.33 503H3474C3487.81 503 3499 491.807 3499 478C3499 464.193 3487.81 453 3474 453H3359.33C3360.41 450.207 3361 447.173 3361 444Z" fill="white"/>
</g>
<defs>
<clipPath id="clip0">
<rect width="4320" height="900" fill="white"/>
</clipPath>
</defs>
</svg>
