<svg width="1440" height="900" viewBox="0 0 1440 900" fill="none" xmlns="http://www.w3.org/2000/svg">
<g clip-path="url(#clip0)">
<path fill-rule="evenodd" clip-rule="evenodd" d="M720 630C775.228 630 820 585.228 820 530C820 525.653 819.723 521.371 819.185 517.171C813.782 553.849 782.179 582 744 582C702.026 582 668 547.974 668 506C668 467.821 696.151 436.218 732.829 430.815C728.629 430.277 724.347 430 720 430C664.772 430 620 474.772 620 530C620 585.228 664.772 630 720 630Z" fill="white"/>
<path d="M199.705 963L199.705 440.812M146.501 497.639L146.461 406M146.501 497.639H252.907M146.501 497.639L199.704 532.963M146.501 497.639H106.529M146.501 497.639L119.84 479.721M146.501 497.639L199.665 532.963M146.501 497.639L178.56 642.008M252.907 497.639L252.947 406M252.907 497.639L199.704 532.963M252.907 497.639L199.665 532.963M252.907 497.639H291.855M252.907 497.639L279.529 479.721M252.907 497.639L222.896 642.008M199.704 532.963L176.115 548.322M199.665 532.963L223.254 548.322M222.896 642.008L200.728 655.831L178.56 642.008M222.896 642.008H178.56M222.896 642.008L266.258 916.925M178.56 642.008L131.103 916.925M199.704 746.753L235.173 724.637H164.235L199.704 746.753ZM200.728 847.914L249.497 817.504H151.958L200.728 847.914Z" stroke="#B8C4E4" stroke-width="10.239" stroke-linecap="round" stroke-linejoin="round"/>
<path fill-rule="evenodd" clip-rule="evenodd" d="M1335.53 459H1291.16C1282.38 488.233 1276.72 534.395 1276.72 586.337C1276.72 588.223 1276.73 590.101 1276.74 591.971H1276.72V899.607H1349.97V591.971H1349.94C1349.96 590.101 1349.97 588.223 1349.97 586.337C1349.97 534.395 1344.3 488.233 1335.53 459ZM1088.75 616.175L1099.96 620.662L1099.68 620.662V731.604L1115.58 899.607H1044.34L1060.24 731.6V620.662L1059.95 620.662L1071.16 616.175L1079.96 523.231L1088.75 616.175ZM1212.49 615.635H1215.87V644.934H1218.12V661.837H1224.88V669.725H1241.79V673.106H1253.05V899.607H1210.23H1198.96H1156.14V673.106H1167.41V669.725H1184.32V661.837H1191.08V644.934H1193.33V615.635H1196.71V644.934H1198.96V669.725H1210.23V661.837H1210.23V644.934H1212.49V615.635ZM945.65 632.538H1018.9V647.187H1033.55V899.607L1018.9 899.607H945.65L931 899.607V647.187H945.65V632.538Z" fill="#B8C4E4"/>
</g>
<defs>
<clipPath id="clip0">
<rect width="1440" height="900" fill="white"/>
</clipPath>
</defs>
</svg>
