<svg width="24" height="25" viewBox="0 0 24 25" fill="none" xmlns="http://www.w3.org/2000/svg">
<path d="M22.0019 22.0012V20.9867C22.0019 20.4486 21.7957 19.9325 21.4288 19.552C21.0619 19.1715 20.5642 18.9578 20.0453 18.9578H16.1323C15.6134 18.9578 15.1158 19.1715 14.7488 19.552C14.3819 19.9325 14.1758 20.4486 14.1758 20.9867V22.0012" fill="#333333"/>
<path fill-rule="evenodd" clip-rule="evenodd" d="M2.90857 7.90492H21.0746H21.0835C21.5859 7.90492 21.9921 7.49828 21.9921 6.99636C21.9921 6.59738 21.7352 6.25922 21.3783 6.13672L12.365 2.08097C12.1281 1.97464 11.8572 1.97464 11.6198 2.08097L2.53596 6.1682C2.14506 6.3443 1.93026 6.7688 2.02043 7.18735C2.11018 7.6059 2.48024 7.90492 2.90857 7.90492ZM3.13536 18.7132C3.13536 18.2113 3.542 17.8047 4.04392 17.8047V17.8042H4.27105V9.62937H4.04392C3.79338 9.62937 3.59006 9.42606 3.59006 9.17552C3.59006 8.92499 3.79296 8.72167 4.04392 8.72167H19.9394C20.1899 8.72167 20.3932 8.92499 20.3932 9.17552C20.3932 9.42606 20.1908 9.62937 19.9394 9.62937H19.7127V12.8003C19.2281 12.5668 18.6847 12.436 18.1107 12.436C18.0385 12.436 17.9668 12.4381 17.8956 12.4422V9.62937H15.1707V13.8921C14.6966 14.5135 14.4151 15.2897 14.4151 16.1317C14.4151 16.6827 14.5357 17.2055 14.7519 17.6752C14.0914 17.757 13.4724 18.0662 12.9972 18.559C12.7026 18.8645 12.4761 19.2273 12.3276 19.6222H4.04392C3.542 19.6222 3.13536 19.2151 3.13536 18.7132ZM12.1767 20.1666H2.90856C2.40664 20.1666 2 20.5732 2 21.0755C2 21.577 2.40664 21.9837 2.90856 21.9837H12.124V20.7453C12.124 20.5497 12.1419 20.356 12.1767 20.1666ZM13.3536 17.8042V9.62937H10.6288V17.8042H13.3536ZM8.81213 9.62937H6.08732V17.8042H8.81213V9.62937Z" fill="#333333"/>
<path d="M18.1089 18.0882C19.1894 18.0882 20.0654 17.2122 20.0654 16.1316C20.0654 15.0511 19.1894 14.1751 18.1089 14.1751C17.0283 14.1751 16.1523 15.0511 16.1523 16.1316C16.1523 17.2122 17.0283 18.0882 18.1089 18.0882Z" fill="#333333"/>
</svg>
