<svg width="24" height="25" viewBox="0 0 24 25" fill="none" xmlns="http://www.w3.org/2000/svg">
<path fill-rule="evenodd" clip-rule="evenodd" d="M21.0746 7.90492H2.90857C2.48024 7.90492 2.11018 7.6059 2.02043 7.18735C1.93026 6.7688 2.14506 6.3443 2.53596 6.1682L11.6198 2.08097C11.8572 1.97464 12.1281 1.97464 12.365 2.08097L21.3783 6.13672C21.7352 6.25922 21.9921 6.59738 21.9921 6.99636C21.9921 7.49828 21.5859 7.90492 21.0835 7.90492H21.0746ZM4.04392 17.8047C3.542 17.8047 3.13536 18.2113 3.13536 18.7132C3.13536 19.2151 3.542 19.6222 4.04392 19.6222H19.9394C20.4413 19.6222 20.8479 19.2151 20.8479 18.7132C20.8479 18.2113 20.4413 17.8047 19.9394 17.8047H19.7127V9.62937H19.9394C20.1908 9.62937 20.3932 9.42606 20.3932 9.17552C20.3932 8.92499 20.1899 8.72167 19.9394 8.72167H4.04392C3.79296 8.72167 3.59006 8.92499 3.59006 9.17552C3.59006 9.42606 3.79338 9.62937 4.04392 9.62937H4.27105V17.8042H4.04392V17.8047ZM17.8956 9.62937V17.8042H15.1707V9.62937H17.8956ZM13.3536 9.62937V17.8042H10.6288V9.62937H13.3536ZM6.08732 9.62937H8.81213V17.8042H6.08732V9.62937ZM21.075 20.1666H2.90856C2.40664 20.1666 2 20.5732 2 21.0755C2 21.577 2.40664 21.9837 2.90856 21.9837H21.0746C21.5765 21.9837 21.9831 21.577 21.9831 21.0755C21.9827 20.5732 21.5761 20.1666 21.075 20.1666Z" fill="#333333"/>
</svg>
