<svg width="2000" height="900" viewBox="0 0 2000 900" fill="none" xmlns="http://www.w3.org/2000/svg">
<g clip-path="url(#clip0)">
<rect width="2000" height="900" fill="#CFD8E8"/>
<g filter="url(#filter0_d)">
<path fill-rule="evenodd" clip-rule="evenodd" d="M1752 54C1765.81 54 1777 65.1929 1777 79C1777 92.8071 1765.81 104 1752 104H1727.36C1729.67 107.788 1731 112.238 1731 117H1802C1815.81 117 1827 128.193 1827 142C1827 155.807 1815.81 167 1802 167H1679C1665.19 167 1654 155.807 1654 142H1542.5C1540.18 153.411 1530.09 162 1518 162H1395C1381.19 162 1370 150.807 1370 137C1370 123.193 1381.19 112 1395 112H1494.5C1496.82 100.589 1506.91 92 1519 92H1607.64C1605.33 88.2121 1604 83.7615 1604 79C1604 65.1929 1615.19 54 1629 54H1752Z" fill="white"/>
<path fill-rule="evenodd" clip-rule="evenodd" d="M1053 121C1066.81 121 1078 109.807 1078 96C1078 82.1929 1066.81 71 1053 71H859C845.193 71 834 82.1929 834 96H709C695.193 96 684 107.193 684 121C684 127.086 686.175 132.664 689.79 137H588C588 123.528 577.344 112.545 564 112.02V112H563H450C436.193 112 425 123.193 425 137C425 150.807 436.193 162 450 162H498C498 175.807 509.193 187 523 187H655.993C655.347 189.221 655 191.57 655 194C655 207.807 666.193 219 680 219H752C752 222.173 752.591 225.207 753.669 228H663C649.193 228 638 239.193 638 253C638 266.807 649.193 278 663 278H816C829.807 278 841 266.807 841 253C841 249.827 840.409 246.793 839.331 244H1011C1024.81 244 1036 232.807 1036 219C1036 205.193 1024.81 194 1011 194H899C899 180.193 887.807 169 874 169H794.007C794.653 166.779 795 164.43 795 162C795 155.914 792.825 150.336 789.21 146H956C969.807 146 981 134.807 981 121H1053Z" fill="white"/>
<path fill-rule="evenodd" clip-rule="evenodd" d="M1308.54 280H1196C1182.19 280 1171 268.807 1171 255C1171 241.193 1182.19 230 1196 230H1383H1384V230.02C1397.34 230.545 1408 241.528 1408 255C1408 258.947 1407.09 262.681 1405.46 266H1444C1444 252.193 1455.19 241 1469 241H1638C1651.81 241 1663 252.193 1663 266C1663 279.807 1651.81 291 1638 291H1552C1552 294.556 1551.26 297.938 1549.92 301H1600C1613.81 301 1625 312.193 1625 326C1625 339.807 1613.81 351 1600 351H1494C1480.19 351 1469 339.807 1469 326C1469 322.444 1469.74 319.062 1471.08 316H1430.92C1432.26 319.062 1433 322.444 1433 326C1433 339.807 1421.81 351 1408 351H1360C1360 364.807 1348.81 376 1335 376H1141C1127.19 376 1116 364.807 1116 351C1116 337.193 1127.19 326 1141 326H1237C1237 312.193 1248.19 301 1262 301H1308.08C1306.74 297.938 1306 294.556 1306 291C1306 287.053 1306.91 283.319 1308.54 280Z" fill="white"/>
<path fill-rule="evenodd" clip-rule="evenodd" d="M1581 582H1481C1467.19 582 1456 593.193 1456 607H1351C1337.19 607 1326 618.193 1326 632C1326 634.798 1326.46 637.488 1327.31 640H1248C1234.19 640 1223 651.193 1223 665C1223 678.807 1234.19 690 1248 690H1307.31C1306.46 692.512 1306 695.202 1306 698C1306 711.807 1317.19 723 1331 723H1431C1444.81 723 1456 711.807 1456 698C1456 684.193 1444.81 673 1431 673H1417.69C1418.54 670.488 1419 667.798 1419 665C1419 662.202 1418.54 659.512 1417.69 657H1497C1510.81 657 1522 645.807 1522 632H1581C1594.81 632 1606 620.807 1606 607C1606 593.193 1594.81 582 1581 582Z" fill="white"/>
<path fill-rule="evenodd" clip-rule="evenodd" d="M589.284 599.397C612.589 599.397 631.482 580.504 631.482 557.199C631.482 533.893 612.589 515 589.284 515H420.49H420.489C397.184 515 378.291 533.893 378.291 557.199L201.057 557.199C177.751 557.199 158.858 576.092 158.858 599.397C158.858 604.12 159.634 608.661 161.065 612.901H27.1989H27.1988C3.89319 612.901 -14.9998 631.794 -14.9998 655.099C-14.9998 678.405 3.89319 697.298 27.1988 697.298H127.306C125.875 701.537 125.099 706.079 125.099 710.801C125.099 734.107 143.992 753 167.298 753H336.092C359.398 753 378.291 734.107 378.291 710.801C378.291 687.496 359.398 668.603 336.092 668.603H313.63C315.061 664.363 315.837 659.822 315.837 655.099C315.837 650.377 315.061 645.835 313.63 641.596H447.497C470.802 641.596 489.695 622.703 489.695 599.397L589.284 599.397Z" fill="white"/>
<path fill-rule="evenodd" clip-rule="evenodd" d="M-52 363C-38.1929 363 -27 374.193 -27 388C-27 401.807 -38.1929 413 -52 413H-83C-83 416.947 -83.9147 420.681 -85.5438 424H61C74.8071 424 86 435.193 86 449H122C135.807 449 147 460.193 147 474C147 487.807 135.807 499 122 499H70.6926C71.5404 501.512 72 504.202 72 507C72 520.807 60.8071 532 47 532H-71C-84.8071 532 -96 520.807 -96 507C-96 493.193 -84.8071 482 -71 482H-1.69263C-2.54041 479.488 -3 476.798 -3 474H-128C-128 487.807 -139.193 499 -153 499H-263.544C-261.915 502.319 -261 506.053 -261 510H-173C-159.193 510 -148 521.193 -148 535C-148 536.712 -148.172 538.384 -148.5 540H-119C-105.193 540 -94 551.193 -94 565C-94 578.807 -105.193 590 -119 590H-229C-242.807 590 -254 578.807 -254 565C-254 563.288 -253.828 561.616 -253.5 560H-276.544C-274.915 563.319 -274 567.053 -274 571C-274 584.807 -285.193 596 -299 596H-425C-438.807 596 -450 584.807 -450 571C-450 557.193 -438.807 546 -425 546H-372.456C-374.085 542.681 -375 538.947 -375 535H-543C-556.807 535 -568 523.807 -568 510C-568 496.193 -556.807 485 -543 485H-352.456C-354.085 481.681 -355 477.947 -355 474C-355 460.193 -343.807 449 -330 449H-227C-227 445.053 -226.085 441.319 -224.456 438H-285C-296.739 438 -306.588 429.909 -309.275 419H-347C-347 432.807 -358.193 444 -372 444H-514C-527.807 444 -539 432.807 -539 419C-539 405.193 -527.807 394 -514 394H-409C-409 380.193 -397.807 369 -384 369H-258C-246.261 369 -236.412 377.091 -233.725 388H-176C-176 374.193 -164.807 363 -151 363H-52Z" fill="white"/>
<path fill-rule="evenodd" clip-rule="evenodd" d="M396 201C409.807 201 421 212.193 421 226C421 239.807 409.807 251 396 251H229.937C231.89 254.562 233 258.651 233 263H315C328.807 263 340 274.193 340 288C340 301.807 328.807 313 315 313H273.331C274.409 315.793 275 318.827 275 322C275 335.807 263.807 347 250 347H98C84.1929 347 73 335.807 73 322C73 308.193 84.1929 297 98 297H181.669C180.591 294.207 180 291.173 180 288H5C-8.80712 288 -20 276.807 -20 263C-20 249.193 -8.80711 238 5.00001 238H99.0629C97.1103 234.438 96 230.349 96 226C96 212.193 107.193 201 121 201H396Z" fill="white"/>
<path fill-rule="evenodd" clip-rule="evenodd" d="M2481 101C2494.81 101 2506 112.193 2506 126C2506 139.807 2494.81 151 2481 151H2445.33C2446.41 153.793 2447 156.827 2447 160C2447 173.807 2435.81 185 2422 185H2198.28C2198.75 186.922 2199 188.932 2199 191H2218C2231.81 191 2243 202.193 2243 216C2243 229.807 2231.81 241 2218 241H2180.46C2182.09 244.319 2183 248.053 2183 252C2183 265.807 2171.81 277 2158 277H2031C2031 290.807 2019.81 302 2006 302H1879C1865.19 302 1854 290.807 1854 277C1854 263.193 1865.19 252 1879 252H1910C1910 238.193 1921.19 227 1935 227H2079.54C2077.91 223.681 2077 219.947 2077 216H2051C2037.19 216 2026 204.807 2026 191H1972C1958.19 191 1947 179.807 1947 166C1947 152.193 1958.19 141 1972 141H2034C2047.81 141 2059 152.193 2059 166H2124.72C2124.25 164.078 2124 162.068 2124 160C2124 146.193 2135.19 135 2149 135H2332.67C2331.59 132.207 2331 129.173 2331 126C2331 112.193 2342.19 101 2356 101H2481Z" fill="white"/>
</g>
<g clip-path="url(#clip1)" filter="url(#filter1_d)">
<path fill-rule="evenodd" clip-rule="evenodd" d="M1000 630C1055.23 630 1100 585.228 1100 530C1100 525.653 1099.72 521.371 1099.18 517.171C1093.78 553.849 1062.18 582 1024 582C982.026 582 948 547.974 948 506C948 467.821 976.151 436.218 1012.83 430.815C1008.63 430.277 1004.35 430 1000 430C944.772 430 900 474.772 900 530C900 585.228 944.772 630 1000 630Z" fill="white"/>
<path d="M479.705 963L479.705 440.812M426.501 497.639L426.461 406M426.501 497.639H532.907M426.501 497.639L479.704 532.963M426.501 497.639H386.529M426.501 497.639L399.84 479.721M426.501 497.639L479.665 532.963M426.501 497.639L458.56 642.008M532.907 497.639L532.947 406M532.907 497.639L479.704 532.963M532.907 497.639L479.665 532.963M532.907 497.639H571.855M532.907 497.639L559.529 479.721M532.907 497.639L502.896 642.008M479.704 532.963L456.115 548.322M479.665 532.963L503.254 548.322M502.896 642.008L480.728 655.831L458.56 642.008M502.896 642.008H458.56M502.896 642.008L546.258 916.925M458.56 642.008L411.103 916.925M479.704 746.753L515.173 724.637H444.235L479.704 746.753ZM480.728 847.914L529.497 817.504H431.958L480.728 847.914Z" stroke="#B8C4E4" stroke-width="10.239" stroke-linecap="round" stroke-linejoin="round"/>
<path fill-rule="evenodd" clip-rule="evenodd" d="M1615.53 459H1571.16C1562.38 488.233 1556.72 534.395 1556.72 586.337C1556.72 588.223 1556.73 590.101 1556.74 591.971H1556.72V899.607H1629.97V591.971H1629.94C1629.96 590.101 1629.97 588.223 1629.97 586.337C1629.97 534.395 1624.3 488.233 1615.53 459ZM1368.75 616.175L1379.96 620.662L1379.68 620.662V731.604L1395.58 899.607H1324.34L1340.24 731.6V620.662L1339.95 620.662L1351.16 616.175L1359.96 523.231L1368.75 616.175ZM1492.49 615.635H1495.87V644.934H1498.12V661.837H1504.88V669.725H1521.79V673.106H1533.05V899.607H1490.23H1478.96H1436.14V673.106H1447.41V669.725H1464.32V661.837H1471.08V644.934H1473.33V615.635H1476.71V644.934H1478.97V669.725H1490.23V661.837H1490.23V644.934H1492.49V615.635ZM1225.65 632.538H1298.9V647.187H1313.55V899.607L1298.9 899.607H1225.65L1211 899.607V647.187H1225.65V632.538Z" fill="#B8C4E4"/>
</g>
<g clip-path="url(#clip2)" filter="url(#filter2_d)">
<path fill-rule="evenodd" clip-rule="evenodd" d="M87 766H287C314.614 766 337 788.386 337 816H547C574.614 816 597 838.386 597 866C597 871.596 596.081 876.977 594.385 882H753C780.614 882 803 904.386 803 932C803 959.614 780.614 982 753 982H634.385C636.081 987.023 637 992.404 637 998C637 1025.61 614.614 1048 587 1048H387C359.386 1048 337 1025.61 337 998C337 970.386 359.386 948 387 948H413.615C411.919 942.977 411 937.596 411 932C411 926.404 411.919 921.023 413.615 916H255C227.386 916 205 893.614 205 866H87C59.3858 866 37 843.614 37 816C37 788.386 59.3858 766 87 766Z" fill="white"/>
<path fill-rule="evenodd" clip-rule="evenodd" d="M1806.82 693.971C1806.82 669.686 1787.13 650 1762.85 650H1646.76C1622.48 650 1602.79 669.686 1602.79 693.971C1602.79 718.255 1622.48 737.941 1646.76 737.941H1712.38C1710.89 742.359 1710.08 747.091 1710.08 752.012C1710.08 776.296 1729.77 795.982 1754.05 795.982H1912.91C1912.54 798.273 1912.35 800.623 1912.35 803.018C1912.35 807.938 1913.16 812.671 1914.65 817.088H1637.97C1613.69 817.088 1594 836.775 1594 861.059C1594 885.343 1613.69 905.029 1637.97 905.029H1659.08C1659.08 929.314 1678.76 949 1703.05 949H1910.59C1934.87 949 1954.56 929.314 1954.56 905.029H1970.39C1974.7 905.029 1978.86 904.409 1982.8 903.253C1990.27 916.889 2004.75 926.135 2021.39 926.135H2322.15C2346.44 926.135 2366.12 906.449 2366.12 882.165C2366.12 857.88 2346.44 838.194 2322.15 838.194H2221.9C2232.58 830.172 2239.49 817.401 2239.49 803.018H2285.22C2309.5 803.018 2329.19 783.331 2329.19 759.047C2329.19 734.763 2309.5 715.076 2285.22 715.076H2169.14C2144.85 715.076 2125.16 734.763 2125.16 759.047H2036.66C2037.03 756.756 2037.22 754.406 2037.22 752.012C2037.22 727.727 2017.54 708.041 1993.25 708.041H1804.52C1806.01 703.623 1806.82 698.891 1806.82 693.971Z" fill="white"/>
<path fill-rule="evenodd" clip-rule="evenodd" d="M1341.62 845H1252.99C1250.79 845.328 1248.54 845.499 1246.25 845.499C1221.26 845.499 1201 825.24 1201 800.249C1201 775.342 1221.12 755.135 1246 755.001V755H1246.25H1471.42C1473.01 754.831 1474.63 754.744 1476.26 754.744C1501.25 754.744 1521.51 775.003 1521.51 799.993C1521.51 807.138 1519.86 813.895 1516.91 819.903L1586.67 819.903C1586.67 794.913 1606.93 774.654 1631.92 774.654H1937.81C1962.8 774.654 1983.05 794.913 1983.05 819.903C1983.05 844.894 1962.8 865.152 1937.81 865.152L1782.15 865.152C1782.15 871.588 1780.8 877.709 1778.38 883.252H1869.03C1894.02 883.252 1914.28 903.511 1914.28 928.501C1914.28 953.492 1894.02 973.751 1869.03 973.751H1677.17C1652.18 973.751 1631.92 953.492 1631.92 928.501C1631.92 922.066 1633.26 915.944 1635.69 910.402H1563C1565.42 915.944 1566.76 922.066 1566.76 928.501C1566.76 953.329 1546.77 973.486 1522 973.748V974H1434.63C1434.5 998.876 1414.29 1019 1389.38 1019H1038.25C1013.26 1019 993 998.741 993 973.751C993 948.76 1013.26 928.501 1038.25 928.501L1042.01 928.501C1042.01 904.606 1060.53 885.036 1084 883.368V883H1340.55C1338.2 877.524 1336.9 871.49 1336.9 865.152C1336.9 857.912 1338.6 851.068 1341.62 845Z" fill="white"/>
<path fill-rule="evenodd" clip-rule="evenodd" d="M1107.81 746.048C1127.15 746.048 1142.83 730.367 1142.83 711.024C1142.83 691.681 1127.15 676 1107.81 676H836.019C816.676 676 800.995 691.681 800.995 711.024L625.875 711.024H625.874C606.531 711.024 590.85 726.705 590.85 746.048C590.85 754.575 593.897 762.39 598.961 768.464L456.357 768.464C456.357 749.59 441.428 734.203 422.734 733.467V733.44H421.333H263.024H263.024C243.681 733.44 228 749.121 228 768.464C228 787.807 243.681 803.488 263.024 803.488H263.024L330.271 803.488C330.271 822.831 345.951 838.512 365.295 838.512H365.295H551.614C550.708 841.624 550.222 844.915 550.222 848.319C550.222 867.662 565.903 883.343 585.246 883.343H585.247L686.116 883.343C686.116 887.788 686.944 892.039 688.454 895.952H561.43C561.43 895.952 561.43 895.952 561.43 895.952C542.087 895.952 526.406 911.633 526.406 930.976C526.406 950.319 542.087 966 561.43 966C561.43 966 561.43 966 561.43 966H775.778C795.121 966 810.802 950.319 810.802 930.976C810.802 926.531 809.974 922.279 808.464 918.367H1048.97C1068.31 918.367 1083.99 902.686 1083.99 883.343C1083.99 864 1068.31 848.319 1048.97 848.319L892.058 848.319C892.058 828.976 876.377 813.295 857.034 813.295H744.966C745.872 810.183 746.357 806.892 746.357 803.488C746.357 794.961 743.31 787.146 738.246 781.072H971.913C991.256 781.072 1006.94 765.392 1006.94 746.048L1107.81 746.048Z" fill="white"/>
<path fill-rule="evenodd" clip-rule="evenodd" d="M480 401H580C593.807 401 605 412.193 605 426H710C723.807 426 735 437.193 735 451C735 453.798 734.54 456.488 733.693 459H813C826.807 459 838 470.193 838 484C838 497.807 826.807 509 813 509H753.693C754.54 511.512 755 514.202 755 517C755 530.807 743.807 542 730 542H630C616.193 542 605 530.807 605 517C605 503.193 616.193 492 630 492H643.307C642.46 489.488 642 486.798 642 484C642 481.202 642.46 478.512 643.307 476H564C550.193 476 539 464.807 539 451H480C466.193 451 455 439.807 455 426C455 412.193 466.193 401 480 401Z" fill="white"/>
<path fill-rule="evenodd" clip-rule="evenodd" d="M372.796 785.263C372.796 759.16 351.635 738 325.533 738H-9.08768C-35.1902 738 -56.3504 759.16 -56.3504 785.263C-56.3504 787.837 -56.1447 790.363 -55.7487 792.825H-220.825C-244.353 792.825 -263.866 810.018 -267.486 832.526H-377.737C-403.84 832.526 -425 853.686 -425 879.788C-425 905.891 -403.84 927.051 -377.737 927.051H-262.297C-265.989 933.785 -268.088 941.516 -268.088 949.737C-268.088 975.84 -246.927 997 -220.825 997H30.6132C54.1418 997 73.6547 979.807 77.2742 957.299H204.54C230.643 957.299 251.803 936.139 251.803 910.036C251.803 883.934 230.643 862.774 204.54 862.774H108.005C111.697 856.04 113.796 848.309 113.796 840.088C113.796 837.514 113.59 834.988 113.194 832.526H325.533C351.635 832.526 372.796 811.365 372.796 785.263Z" fill="white"/>
<path fill-rule="evenodd" clip-rule="evenodd" d="M2201 444C2201 430.193 2189.81 419 2176 419H2019C2005.19 419 1994 430.193 1994 444C1994 457.807 2005.19 469 2019 469H2118.67C2117.59 471.793 2117 474.827 2117 478C2117 481.173 2117.59 484.207 2118.67 487H2009C1999.54 487 1991.31 492.253 1987.06 500H1779C1765.19 500 1754 511.193 1754 525C1754 538.807 1765.19 550 1779 550H1912C1912 563.807 1923.19 575 1937 575H2046C2046 588.807 2057.19 600 2071 600H2258C2271.81 600 2283 588.807 2283 575C2283 572.932 2282.75 570.922 2282.28 569H2341C2354.81 569 2366 557.807 2366 544C2366 530.193 2354.81 519 2341 519H2256C2242.19 519 2231 530.193 2231 544C2231 546.068 2231.25 548.078 2231.72 550H2149C2149 545.238 2147.67 540.788 2145.36 537H2196C2209.81 537 2221 525.807 2221 512C2221 508.827 2220.41 505.793 2219.33 503H2314C2327.81 503 2339 491.807 2339 478C2339 464.193 2327.81 453 2314 453H2199.33C2200.41 450.207 2201 447.173 2201 444Z" fill="white"/>
</g>
</g>
<defs>
<filter id="filter0_d" x="-1224" y="-64" width="4448" height="1028" filterUnits="userSpaceOnUse" color-interpolation-filters="sRGB">
<feFlood flood-opacity="0" result="BackgroundImageFix"/>
<feColorMatrix in="SourceAlpha" type="matrix" values="0 0 0 0 0 0 0 0 0 0 0 0 0 0 0 0 0 0 127 0"/>
<feOffset/>
<feGaussianBlur stdDeviation="32"/>
<feColorMatrix type="matrix" values="0 0 0 0 0 0 0 0 0 0 0 0 0 0 0 0 0 0 0.1 0"/>
<feBlend mode="normal" in2="BackgroundImageFix" result="effect1_dropShadow"/>
<feBlend mode="normal" in="SourceGraphic" in2="effect1_dropShadow" result="shape"/>
</filter>
<filter id="filter1_d" x="216" y="-64" width="1568" height="1028" filterUnits="userSpaceOnUse" color-interpolation-filters="sRGB">
<feFlood flood-opacity="0" result="BackgroundImageFix"/>
<feColorMatrix in="SourceAlpha" type="matrix" values="0 0 0 0 0 0 0 0 0 0 0 0 0 0 0 0 0 0 127 0"/>
<feOffset/>
<feGaussianBlur stdDeviation="32"/>
<feColorMatrix type="matrix" values="0 0 0 0 0 0 0 0 0 0 0 0 0 0 0 0 0 0 0.1 0"/>
<feBlend mode="normal" in2="BackgroundImageFix" result="effect1_dropShadow"/>
<feBlend mode="normal" in="SourceGraphic" in2="effect1_dropShadow" result="shape"/>
</filter>
<filter id="filter2_d" x="-1224" y="-64" width="4448" height="1028" filterUnits="userSpaceOnUse" color-interpolation-filters="sRGB">
<feFlood flood-opacity="0" result="BackgroundImageFix"/>
<feColorMatrix in="SourceAlpha" type="matrix" values="0 0 0 0 0 0 0 0 0 0 0 0 0 0 0 0 0 0 127 0"/>
<feOffset/>
<feGaussianBlur stdDeviation="32"/>
<feColorMatrix type="matrix" values="0 0 0 0 0 0 0 0 0 0 0 0 0 0 0 0 0 0 0.1 0"/>
<feBlend mode="normal" in2="BackgroundImageFix" result="effect1_dropShadow"/>
<feBlend mode="normal" in="SourceGraphic" in2="effect1_dropShadow" result="shape"/>
</filter>
<clipPath id="clip0">
<rect width="2000" height="900" fill="white"/>
</clipPath>
<clipPath id="clip1">
<rect width="1440" height="900" fill="white" transform="translate(280)"/>
</clipPath>
<clipPath id="clip2">
<rect width="4320" height="900" fill="white" transform="translate(-1160)"/>
</clipPath>
</defs>
</svg>
