<svg width="4320" height="900" viewBox="0 0 4320 900" fill="none" xmlns="http://www.w3.org/2000/svg">
<g clip-path="url(#clip0)">
<rect width="4320" height="900" fill="#CFD8E8"/>
<g filter="url(#filter0_d)">
<path fill-rule="evenodd" clip-rule="evenodd" d="M2912 54C2925.81 54 2937 65.1929 2937 79C2937 92.8071 2925.81 104 2912 104H2887.36C2889.67 107.788 2891 112.238 2891 117H2962C2975.81 117 2987 128.193 2987 142C2987 155.807 2975.81 167 2962 167H2839C2825.19 167 2814 155.807 2814 142H2702.5C2700.18 153.411 2690.09 162 2678 162H2555C2541.19 162 2530 150.807 2530 137C2530 123.193 2541.19 112 2555 112H2654.5C2656.82 100.589 2666.91 92 2679 92H2767.64C2765.33 88.2121 2764 83.7615 2764 79C2764 65.1929 2775.19 54 2789 54H2912Z" fill="white"/>
<path fill-rule="evenodd" clip-rule="evenodd" d="M3822 249C3835.81 249 3847 260.193 3847 274H3878C3891.81 274 3903 285.193 3903 299C3903 312.807 3891.81 324 3878 324H3777C3763.19 324 3752 312.807 3752 299H3697C3697 311.522 3687.79 321.895 3675.78 323.716C3677.83 327.344 3679 331.535 3679 336H3848C3861.81 336 3873 347.193 3873 361C3873 374.807 3861.81 386 3848 386H3641C3627.19 386 3616 374.807 3616 361H3531C3517.19 361 3506 349.807 3506 336C3506 322.193 3517.19 311 3531 311H3566.06C3564.11 307.438 3563 303.349 3563 299C3563 285.193 3574.19 274 3588 274H3630C3630 260.193 3641.19 249 3655 249H3822Z" fill="white"/>
<path fill-rule="evenodd" clip-rule="evenodd" d="M4121 79C4134.81 79 4146 90.1929 4146 104H4193C4206.81 104 4218 115.193 4218 129H4232C4245.81 129 4257 140.193 4257 154C4257 167.807 4245.81 179 4232 179H4120C4118.93 179 4117.88 178.933 4116.85 178.803C4112.37 185.551 4104.7 190 4096 190H3983C3969.19 190 3958 178.807 3958 165H3928C3914.19 165 3903 153.807 3903 140C3903 126.193 3914.19 115 3928 115H3985.54C3983.91 111.681 3983 107.947 3983 104C3983 90.1929 3994.19 79 4008 79H4121Z" fill="white"/>
<path fill-rule="evenodd" clip-rule="evenodd" d="M2213 121C2226.81 121 2238 109.807 2238 96C2238 82.1929 2226.81 71 2213 71H2019C2005.19 71 1994 82.1929 1994 96H1869C1855.19 96 1844 107.193 1844 121C1844 127.086 1846.17 132.664 1849.79 137H1748C1748 123.528 1737.34 112.545 1724 112.02V112H1723H1610C1596.19 112 1585 123.193 1585 137C1585 150.807 1596.19 162 1610 162H1658C1658 175.807 1669.19 187 1683 187H1815.99C1815.35 189.221 1815 191.57 1815 194C1815 207.807 1826.19 219 1840 219H1912C1912 222.173 1912.59 225.207 1913.67 228H1823C1809.19 228 1798 239.193 1798 253C1798 266.807 1809.19 278 1823 278H1976C1989.81 278 2001 266.807 2001 253C2001 249.827 2000.41 246.793 1999.33 244H2171C2184.81 244 2196 232.807 2196 219C2196 205.193 2184.81 194 2171 194H2059C2059 180.193 2047.81 169 2034 169H1954.01C1954.65 166.779 1955 164.43 1955 162C1955 155.914 1952.83 150.336 1949.21 146H2116C2129.81 146 2141 134.807 2141 121H2213Z" fill="white"/>
<path fill-rule="evenodd" clip-rule="evenodd" d="M2468.54 280H2356C2342.19 280 2331 268.807 2331 255C2331 241.193 2342.19 230 2356 230H2543H2544V230.02C2557.34 230.545 2568 241.528 2568 255C2568 258.947 2567.09 262.681 2565.46 266H2604C2604 252.193 2615.19 241 2629 241H2798C2811.81 241 2823 252.193 2823 266C2823 279.807 2811.81 291 2798 291H2712C2712 294.556 2711.26 297.938 2709.92 301H2760C2773.81 301 2785 312.193 2785 326C2785 339.807 2773.81 351 2760 351H2654C2640.19 351 2629 339.807 2629 326C2629 322.444 2629.74 319.062 2631.08 316H2590.92C2592.26 319.062 2593 322.444 2593 326C2593 339.807 2581.81 351 2568 351H2520C2520 364.807 2508.81 376 2495 376H2301C2287.19 376 2276 364.807 2276 351C2276 337.193 2287.19 326 2301 326H2397C2397 312.193 2408.19 301 2422 301H2468.08C2466.74 297.938 2466 294.556 2466 291C2466 287.053 2466.91 283.319 2468.54 280Z" fill="white"/>
<path fill-rule="evenodd" clip-rule="evenodd" d="M2741 582H2641C2627.19 582 2616 593.193 2616 607H2511C2497.19 607 2486 618.193 2486 632C2486 634.798 2486.46 637.488 2487.31 640H2408C2394.19 640 2383 651.193 2383 665C2383 678.807 2394.19 690 2408 690H2467.31C2466.46 692.512 2466 695.202 2466 698C2466 711.807 2477.19 723 2491 723H2591C2604.81 723 2616 711.807 2616 698C2616 684.193 2604.81 673 2591 673H2577.69C2578.54 670.488 2579 667.798 2579 665C2579 662.202 2578.54 659.512 2577.69 657H2657C2670.81 657 2682 645.807 2682 632H2741C2754.81 632 2766 620.807 2766 607C2766 593.193 2754.81 582 2741 582Z" fill="white"/>
<path fill-rule="evenodd" clip-rule="evenodd" d="M1749.28 599.397C1772.59 599.397 1791.48 580.504 1791.48 557.199C1791.48 533.893 1772.59 515 1749.28 515H1580.49H1580.49C1557.18 515 1538.29 533.893 1538.29 557.199L1361.06 557.199C1337.75 557.199 1318.86 576.092 1318.86 599.397C1318.86 604.12 1319.63 608.661 1321.06 612.901H1187.2H1187.2C1163.89 612.901 1145 631.794 1145 655.099C1145 678.405 1163.89 697.298 1187.2 697.298H1287.31C1285.88 701.537 1285.1 706.079 1285.1 710.801C1285.1 734.107 1303.99 753 1327.3 753H1496.09C1519.4 753 1538.29 734.107 1538.29 710.801C1538.29 687.496 1519.4 668.603 1496.09 668.603H1473.63C1475.06 664.363 1475.84 659.822 1475.84 655.099C1475.84 650.377 1475.06 645.835 1473.63 641.596H1607.5C1630.8 641.596 1649.7 622.703 1649.7 599.397L1749.28 599.397Z" fill="white"/>
<path fill-rule="evenodd" clip-rule="evenodd" d="M432 106C432 92.1929 420.807 81 407 81H268C258.14 81 249.613 86.7081 245.544 95H98C84.1929 95 73 106.193 73 120C73 133.807 84.1929 145 98 145H156.5C158.816 156.411 168.905 165 181 165H386C386 169.762 387.331 174.212 389.642 178H331C317.193 178 306 189.193 306 203C306 205.798 306.46 208.488 307.307 211H157C143.193 211 132 222.193 132 236C132 249.807 143.193 261 157 261H265.993C265.347 263.221 265 265.57 265 268C265 271.947 265.915 275.681 267.544 279H250C236.193 279 225 290.193 225 304C225 317.807 236.193 329 250 329H346C359.807 329 371 317.807 371 304C371 300.053 370.085 296.319 368.456 293H418.993C422.021 303.4 431.623 311 443 311H567C580.807 311 592 299.807 592 286C592 272.193 580.807 261 567 261H473.007C469.979 250.6 460.377 243 449 243H402.007C402.653 240.779 403 238.43 403 236C403 233.202 402.54 230.512 401.693 228H502C515.807 228 527 216.807 527 203C527 198.238 525.669 193.788 523.358 190H550C563.807 190 575 178.807 575 165C575 151.193 563.807 140 550 140H499C499 126.193 487.807 115 474 115H430.331C431.409 112.207 432 109.173 432 106Z" fill="white"/>
<path fill-rule="evenodd" clip-rule="evenodd" d="M1108 363C1121.81 363 1133 374.193 1133 388C1133 401.807 1121.81 413 1108 413H1077C1077 416.947 1076.09 420.681 1074.46 424H1221C1234.81 424 1246 435.193 1246 449H1282C1295.81 449 1307 460.193 1307 474C1307 487.807 1295.81 499 1282 499H1230.69C1231.54 501.512 1232 504.202 1232 507C1232 520.807 1220.81 532 1207 532H1089C1075.19 532 1064 520.807 1064 507C1064 493.193 1075.19 482 1089 482H1158.31C1157.46 479.488 1157 476.798 1157 474H1032C1032 487.807 1020.81 499 1007 499H896.456C898.085 502.319 899 506.053 899 510H987C1000.81 510 1012 521.193 1012 535C1012 536.712 1011.83 538.384 1011.5 540H1041C1054.81 540 1066 551.193 1066 565C1066 578.807 1054.81 590 1041 590H931C917.193 590 906 578.807 906 565C906 563.288 906.172 561.616 906.5 560H883.456C885.085 563.319 886 567.053 886 571C886 584.807 874.807 596 861 596H735C721.193 596 710 584.807 710 571C710 557.193 721.193 546 735 546H787.544C785.915 542.681 785 538.947 785 535H617C603.193 535 592 523.807 592 510C592 496.193 603.193 485 617 485H807.544C805.915 481.681 805 477.947 805 474C805 460.193 816.193 449 830 449H933C933 445.053 933.915 441.319 935.544 438H875C863.261 438 853.412 429.909 850.725 419H813C813 432.807 801.807 444 788 444H646C632.193 444 621 432.807 621 419C621 405.193 632.193 394 646 394H751C751 380.193 762.193 369 776 369H902C913.739 369 923.588 377.091 926.275 388H984C984 374.193 995.193 363 1009 363H1108Z" fill="white"/>
<path fill-rule="evenodd" clip-rule="evenodd" d="M1048 114C1048 100.193 1036.81 89 1023 89H836C822.193 89 811 100.193 811 114C811 127.807 822.193 139 836 139H879C879 143.349 880.11 147.438 882.063 151H783C769.193 151 758 162.193 758 176C758 189.807 769.193 201 783 201H996C1009.81 201 1021 189.807 1021 176C1021 171.651 1019.89 167.562 1017.94 164H1115C1128.81 164 1140 152.807 1140 139C1140 125.193 1128.81 114 1115 114H1048Z" fill="white"/>
<path fill-rule="evenodd" clip-rule="evenodd" d="M1556 201C1569.81 201 1581 212.193 1581 226C1581 239.807 1569.81 251 1556 251H1389.94C1391.89 254.562 1393 258.651 1393 263H1475C1488.81 263 1500 274.193 1500 288C1500 301.807 1488.81 313 1475 313H1433.33C1434.41 315.793 1435 318.827 1435 322C1435 335.807 1423.81 347 1410 347H1258C1244.19 347 1233 335.807 1233 322C1233 308.193 1244.19 297 1258 297H1341.67C1340.59 294.207 1340 291.173 1340 288H1165C1151.19 288 1140 276.807 1140 263C1140 249.193 1151.19 238 1165 238H1259.06C1257.11 234.438 1256 230.349 1256 226C1256 212.193 1267.19 201 1281 201H1556Z" fill="white"/>
<path fill-rule="evenodd" clip-rule="evenodd" d="M3641 101C3654.81 101 3666 112.193 3666 126C3666 139.807 3654.81 151 3641 151H3605.33C3606.41 153.793 3607 156.827 3607 160C3607 173.807 3595.81 185 3582 185H3358.28C3358.75 186.922 3359 188.932 3359 191H3378C3391.81 191 3403 202.193 3403 216C3403 229.807 3391.81 241 3378 241H3340.46C3342.09 244.319 3343 248.053 3343 252C3343 265.807 3331.81 277 3318 277H3191C3191 290.807 3179.81 302 3166 302H3039C3025.19 302 3014 290.807 3014 277C3014 263.193 3025.19 252 3039 252H3070C3070 238.193 3081.19 227 3095 227H3239.54C3237.91 223.681 3237 219.947 3237 216H3211C3197.19 216 3186 204.807 3186 191H3132C3118.19 191 3107 179.807 3107 166C3107 152.193 3118.19 141 3132 141H3194C3207.81 141 3219 152.193 3219 166H3284.72C3284.25 164.078 3284 162.068 3284 160C3284 146.193 3295.19 135 3309 135H3492.67C3491.59 132.207 3491 129.173 3491 126C3491 112.193 3502.19 101 3516 101H3641Z" fill="white"/>
<path fill-rule="evenodd" clip-rule="evenodd" d="M752 785C765.807 785 777 773.807 777 760C777 746.193 765.807 735 752 735H716.331C717.409 732.207 718 729.173 718 726C718 712.193 706.807 701 693 701H469.275C469.749 699.078 470 697.068 470 695H489C502.807 695 514 683.807 514 670C514 656.193 502.807 645 489 645H451.456C453.085 641.681 454 637.947 454 634C454 620.193 442.807 609 429 609H302C302 595.193 290.807 584 277 584H150C136.193 584 125 595.193 125 609C125 622.807 136.193 634 150 634H181C181 647.807 192.193 659 206 659H350.544C348.915 662.319 348 666.053 348 670H322C308.193 670 297 681.193 297 695H243C229.193 695 218 706.193 218 720C218 733.807 229.193 745 243 745H305C318.807 745 330 733.807 330 720H395.725C395.251 721.922 395 723.932 395 726C395 739.807 406.193 751 420 751H603.669C602.591 753.793 602 756.827 602 760C602 773.807 613.193 785 627 785H752Z" fill="white"/>
</g>
<g clip-path="url(#clip1)" filter="url(#filter1_d)">
<path fill-rule="evenodd" clip-rule="evenodd" d="M2160 630C2215.23 630 2260 585.228 2260 530C2260 525.653 2259.72 521.371 2259.18 517.171C2253.78 553.849 2222.18 582 2184 582C2142.03 582 2108 547.974 2108 506C2108 467.821 2136.15 436.218 2172.83 430.815C2168.63 430.277 2164.35 430 2160 430C2104.77 430 2060 474.772 2060 530C2060 585.228 2104.77 630 2160 630Z" fill="white"/>
<path d="M1639.7 963L1639.7 440.812M1586.5 497.639L1586.46 406M1586.5 497.639H1692.91M1586.5 497.639L1639.7 532.963M1586.5 497.639H1546.53M1586.5 497.639L1559.84 479.721M1586.5 497.639L1639.66 532.963M1586.5 497.639L1618.56 642.008M1692.91 497.639L1692.95 406M1692.91 497.639L1639.7 532.963M1692.91 497.639L1639.66 532.963M1692.91 497.639H1731.85M1692.91 497.639L1719.53 479.721M1692.91 497.639L1662.9 642.008M1639.7 532.963L1616.11 548.322M1639.66 532.963L1663.25 548.322M1662.9 642.008L1640.73 655.831L1618.56 642.008M1662.9 642.008H1618.56M1662.9 642.008L1706.26 916.925M1618.56 642.008L1571.1 916.925M1639.7 746.753L1675.17 724.637H1604.24L1639.7 746.753ZM1640.73 847.914L1689.5 817.504H1591.96L1640.73 847.914Z" stroke="#B8C4E4" stroke-width="10.239" stroke-linecap="round" stroke-linejoin="round"/>
<path fill-rule="evenodd" clip-rule="evenodd" d="M2775.53 459H2731.16C2722.38 488.233 2716.72 534.395 2716.72 586.337C2716.72 588.223 2716.73 590.101 2716.74 591.971H2716.72V899.607H2789.97V591.971H2789.94C2789.96 590.101 2789.97 588.223 2789.97 586.337C2789.97 534.395 2784.3 488.233 2775.53 459ZM2528.75 616.175L2539.96 620.662L2539.68 620.662V731.604L2555.58 899.607H2484.34L2500.24 731.6V620.662L2499.95 620.662L2511.16 616.175L2519.96 523.231L2528.75 616.175ZM2652.49 615.635H2655.87V644.934H2658.12V661.837H2664.88V669.725H2681.79V673.106H2693.05V899.607H2650.23H2638.96H2596.14V673.106H2607.41V669.725H2624.32V661.837H2631.08V644.934H2633.33V615.635H2636.71V644.934H2638.96V669.725H2650.23V661.837H2650.23V644.934H2652.49V615.635ZM2385.65 632.538H2458.9V647.187H2473.55V899.607L2458.9 899.607H2385.65L2371 899.607V647.187H2385.65V632.538Z" fill="#B8C4E4"/>
</g>
<g clip-path="url(#clip2)" filter="url(#filter2_d)">
<path fill-rule="evenodd" clip-rule="evenodd" d="M1247 766H1447C1474.61 766 1497 788.386 1497 816H1707C1734.61 816 1757 838.386 1757 866C1757 871.596 1756.08 876.977 1754.39 882H1913C1940.61 882 1963 904.386 1963 932C1963 959.614 1940.61 982 1913 982H1794.39C1796.08 987.023 1797 992.404 1797 998C1797 1025.61 1774.61 1048 1747 1048H1547C1519.39 1048 1497 1025.61 1497 998C1497 970.386 1519.39 948 1547 948H1573.61C1571.92 942.977 1571 937.596 1571 932C1571 926.404 1571.92 921.023 1573.61 916H1415C1387.39 916 1365 893.614 1365 866H1247C1219.39 866 1197 843.614 1197 816C1197 788.386 1219.39 766 1247 766Z" fill="white"/>
<path fill-rule="evenodd" clip-rule="evenodd" d="M2966.82 693.971C2966.82 669.686 2947.13 650 2922.85 650H2806.76C2782.48 650 2762.79 669.686 2762.79 693.971C2762.79 718.255 2782.48 737.941 2806.76 737.941H2872.38C2870.89 742.359 2870.08 747.091 2870.08 752.012C2870.08 776.296 2889.77 795.982 2914.05 795.982H3072.91C3072.54 798.273 3072.35 800.623 3072.35 803.018C3072.35 807.938 3073.16 812.671 3074.65 817.088H2797.97C2773.69 817.088 2754 836.775 2754 861.059C2754 885.343 2773.69 905.029 2797.97 905.029H2819.08C2819.08 929.314 2838.76 949 2863.05 949H3070.59C3094.87 949 3114.56 929.314 3114.56 905.029H3130.39C3134.7 905.029 3138.86 904.409 3142.8 903.253C3150.27 916.889 3164.75 926.135 3181.39 926.135H3482.15C3506.44 926.135 3526.12 906.449 3526.12 882.165C3526.12 857.88 3506.44 838.194 3482.15 838.194H3381.9C3392.58 830.172 3399.49 817.401 3399.49 803.018H3445.22C3469.5 803.018 3489.19 783.331 3489.19 759.047C3489.19 734.763 3469.5 715.076 3445.22 715.076H3329.14C3304.85 715.076 3285.16 734.763 3285.16 759.047H3196.66C3197.03 756.756 3197.22 754.406 3197.22 752.012C3197.22 727.727 3177.54 708.041 3153.25 708.041H2964.52C2966.01 703.623 2966.82 698.891 2966.82 693.971Z" fill="white"/>
<path fill-rule="evenodd" clip-rule="evenodd" d="M3567.45 600H3733.25C3756.14 600 3774.69 618.557 3774.69 641.449H3948.78C3971.67 641.449 3990.23 660.006 3990.23 682.898C3990.23 687.537 3989.47 691.998 3988.06 696.162H4119.55C4142.44 696.162 4161 714.719 4161 737.611C4161 760.503 4142.44 779.06 4119.55 779.06H4021.22C4022.63 783.224 4023.39 787.685 4023.39 792.324C4023.39 815.215 4004.83 833.773 3981.94 833.773H3816.14C3793.25 833.773 3774.69 815.215 3774.69 792.324C3774.69 769.432 3793.25 750.875 3816.14 750.875H3838.21C3836.8 746.71 3836.04 742.25 3836.04 737.611C3836.04 732.972 3836.8 728.512 3838.21 724.347H3706.72C3683.83 724.347 3665.27 705.79 3665.27 682.898H3567.45C3544.56 682.898 3526 664.341 3526 641.449C3526 618.557 3544.56 600 3567.45 600Z" fill="white"/>
<path fill-rule="evenodd" clip-rule="evenodd" d="M2501.62 845H2412.99C2410.79 845.328 2408.54 845.499 2406.25 845.499C2381.26 845.499 2361 825.24 2361 800.249C2361 775.342 2381.12 755.135 2406 755.001V755H2406.25H2631.42C2633.01 754.831 2634.63 754.744 2636.26 754.744C2661.25 754.744 2681.51 775.003 2681.51 799.993C2681.51 807.138 2679.86 813.895 2676.91 819.903L2746.67 819.903C2746.67 794.913 2766.93 774.654 2791.92 774.654H3097.81C3122.8 774.654 3143.05 794.913 3143.05 819.903C3143.05 844.894 3122.8 865.152 3097.81 865.152L2942.15 865.152C2942.15 871.588 2940.8 877.709 2938.38 883.252H3029.03C3054.02 883.252 3074.28 903.511 3074.28 928.501C3074.28 953.492 3054.02 973.751 3029.03 973.751H2837.17C2812.18 973.751 2791.92 953.492 2791.92 928.501C2791.92 922.066 2793.26 915.944 2795.69 910.402H2723C2725.42 915.944 2726.76 922.066 2726.76 928.501C2726.76 953.329 2706.77 973.486 2682 973.748V974H2594.63C2594.5 998.876 2574.29 1019 2549.38 1019H2198.25C2173.26 1019 2153 998.741 2153 973.751C2153 948.76 2173.26 928.501 2198.25 928.501L2202.01 928.501C2202.01 904.606 2220.53 885.036 2244 883.368V883H2500.55C2498.2 877.524 2496.9 871.49 2496.9 865.152C2496.9 857.912 2498.6 851.068 2501.62 845Z" fill="white"/>
<path fill-rule="evenodd" clip-rule="evenodd" d="M2267.81 746.048C2287.15 746.048 2302.83 730.367 2302.83 711.024C2302.83 691.681 2287.15 676 2267.81 676H1996.02C1976.68 676 1961 691.681 1961 711.024L1785.87 711.024H1785.87C1766.53 711.024 1750.85 726.705 1750.85 746.048C1750.85 754.575 1753.9 762.39 1758.96 768.464L1616.36 768.464C1616.36 749.59 1601.43 734.203 1582.73 733.467V733.44H1581.33H1423.02H1423.02C1403.68 733.44 1388 749.121 1388 768.464C1388 787.807 1403.68 803.488 1423.02 803.488H1423.02L1490.27 803.488C1490.27 822.831 1505.95 838.512 1525.29 838.512H1525.29H1711.61C1710.71 841.624 1710.22 844.915 1710.22 848.319C1710.22 867.662 1725.9 883.343 1745.25 883.343H1745.25L1846.12 883.343C1846.12 887.788 1846.94 892.039 1848.45 895.952H1721.43C1721.43 895.952 1721.43 895.952 1721.43 895.952C1702.09 895.952 1686.41 911.633 1686.41 930.976C1686.41 950.319 1702.09 966 1721.43 966C1721.43 966 1721.43 966 1721.43 966H1935.78C1955.12 966 1970.8 950.319 1970.8 930.976C1970.8 926.531 1969.97 922.279 1968.46 918.367H2208.97C2228.31 918.367 2243.99 902.686 2243.99 883.343C2243.99 864 2228.31 848.319 2208.97 848.319L2052.06 848.319C2052.06 828.976 2036.38 813.295 2017.03 813.295H1904.97C1905.87 810.183 1906.36 806.892 1906.36 803.488C1906.36 794.961 1903.31 787.146 1898.25 781.072H2131.91C2151.26 781.072 2166.94 765.392 2166.94 746.048L2267.81 746.048Z" fill="white"/>
<path fill-rule="evenodd" clip-rule="evenodd" d="M1640 401H1740C1753.81 401 1765 412.193 1765 426H1870C1883.81 426 1895 437.193 1895 451C1895 453.798 1894.54 456.488 1893.69 459H1973C1986.81 459 1998 470.193 1998 484C1998 497.807 1986.81 509 1973 509H1913.69C1914.54 511.512 1915 514.202 1915 517C1915 530.807 1903.81 542 1890 542H1790C1776.19 542 1765 530.807 1765 517C1765 503.193 1776.19 492 1790 492H1803.31C1802.46 489.488 1802 486.798 1802 484C1802 481.202 1802.46 478.512 1803.31 476H1724C1710.19 476 1699 464.807 1699 451H1640C1626.19 451 1615 439.807 1615 426C1615 412.193 1626.19 401 1640 401Z" fill="white"/>
<path fill-rule="evenodd" clip-rule="evenodd" d="M4320 919.839V1009H3659.76C3635.13 1009 3615.17 989.041 3615.17 964.42C3615.17 959.43 3615.99 954.633 3617.51 950.154H3529.58C3504.96 950.154 3485 930.195 3485 905.573C3485 880.952 3504.96 860.993 3529.58 860.993L3674.02 860.993C3674.02 854.653 3675.34 848.622 3677.73 843.161H3604.48C3579.85 843.161 3559.9 823.202 3559.9 798.58C3559.9 773.959 3579.85 754 3604.48 754H3788.15C3812.77 754 3832.73 773.959 3832.73 798.58C3832.73 804.921 3831.4 810.952 3829.02 816.413H4052.06C4076.68 816.413 4096.64 836.372 4096.64 860.993C4096.64 865.982 4095.82 870.78 4094.31 875.259H4145.34C4143.83 870.78 4143.01 865.982 4143.01 860.993C4143.01 836.372 4162.97 816.413 4187.59 816.413H4239.44C4237.06 810.952 4235.73 804.921 4235.73 798.58C4235.73 773.959 4255.69 754 4280.31 754H4320V905.573H4253.02C4254.53 910.052 4255.35 914.85 4255.35 919.839H4320Z" fill="white"/>
<path fill-rule="evenodd" clip-rule="evenodd" d="M1532.8 785.263C1532.8 759.16 1511.64 738 1485.53 738H1150.91C1124.81 738 1103.65 759.16 1103.65 785.263C1103.65 787.837 1103.86 790.363 1104.25 792.825H939.175C915.647 792.825 896.134 810.018 892.514 832.526H782.263C756.16 832.526 735 853.686 735 879.788C735 905.891 756.16 927.051 782.263 927.051H897.703C894.011 933.785 891.912 941.516 891.912 949.737C891.912 975.84 913.073 997 939.175 997H1190.61C1214.14 997 1233.65 979.807 1237.27 957.299H1364.54C1390.64 957.299 1411.8 936.139 1411.8 910.036C1411.8 883.934 1390.64 862.774 1364.54 862.774H1268.01C1271.7 856.04 1273.8 848.309 1273.8 840.088C1273.8 837.514 1273.59 834.988 1273.19 832.526H1485.53C1511.64 832.526 1532.8 811.365 1532.8 785.263Z" fill="white"/>
<path fill-rule="evenodd" clip-rule="evenodd" d="M368.096 906C345.399 906 327 887.601 327 864.904C327 842.207 345.399 823.808 368.096 823.808H641.076C637.866 817.953 636.041 811.231 636.041 804.082H501.247C478.55 804.082 460.151 785.683 460.151 762.986C460.151 740.29 478.55 721.89 501.247 721.89H569.744C567.972 717.3 567 712.311 567 707.096C567 684.399 585.399 666 608.096 666H857.959C880.656 666 899.055 684.399 899.055 707.096C899.055 729.793 880.656 748.192 857.959 748.192H720.421C722.193 752.782 723.165 757.771 723.165 762.986H1010.84C1033.53 762.986 1051.93 781.386 1051.93 804.082C1051.93 826.779 1033.53 845.178 1010.84 845.178H856.212C859.422 851.033 861.247 857.756 861.247 864.904C861.247 887.601 842.847 906 820.151 906H368.096Z" fill="white"/>
<path fill-rule="evenodd" clip-rule="evenodd" d="M0 992.253V806.978H268.147C265.383 801.346 263.831 795.011 263.831 788.315C263.831 785.409 264.123 782.572 264.68 779.831H145.067C121.642 779.831 102.652 760.841 102.652 737.416C102.652 713.99 121.642 695 145.067 695H455.551C478.976 695 497.966 713.99 497.966 737.416C497.966 740.321 497.674 743.158 497.118 745.899H616.73C640.156 745.899 659.146 764.889 659.146 788.315C659.146 811.74 640.156 830.73 616.73 830.73H507.223C509.987 836.362 511.539 842.696 511.539 849.393C511.539 852.298 511.247 855.135 510.691 857.876H727.011C750.437 857.876 769.427 876.867 769.427 900.292C769.427 923.718 750.437 942.708 727.011 942.708H530.214C531.311 946.476 531.899 950.462 531.899 954.584C531.899 978.01 512.909 997 489.483 997H19.5169C12.4794 997 5.84224 995.286 0 992.253Z" fill="white"/>
<path fill-rule="evenodd" clip-rule="evenodd" d="M0 1009H110.105C134.726 1009 154.685 989.041 154.685 964.42C154.685 939.798 134.726 919.839 110.105 919.839L0 919.839V1009ZM0 905.573V754H347.273C371.894 754 391.853 773.959 391.853 798.58C391.853 823.202 371.894 843.161 347.273 843.161H93.9128C96.2987 848.622 97.6223 854.653 97.6223 860.993C97.6223 885.614 77.6629 905.573 53.0418 905.573H0Z" fill="white"/>
<path fill-rule="evenodd" clip-rule="evenodd" d="M4320 806.978V992.253C4306.4 985.19 4297.1 970.972 4297.1 954.584C4297.1 953.442 4297.15 952.31 4297.23 951.191H4088.42C4064.99 951.191 4046 932.201 4046 908.775C4046 885.35 4064.99 866.36 4088.42 866.36H4280.27C4278 861.164 4276.74 855.426 4276.74 849.393C4276.74 825.968 4295.73 806.978 4319.16 806.978H4320Z" fill="white"/>
<path fill-rule="evenodd" clip-rule="evenodd" d="M0 584H64.9932C64.3466 581.779 64 579.43 64 577C64 563.193 75.1929 552 89 552H155.318C155.109 550.697 155 549.361 155 548C155 545.932 155.251 543.922 155.725 542H0V467H49C62.8071 467 74 478.193 74 492H322C335.807 492 347 503.193 347 517C347 530.807 335.807 542 322 542H267.275C267.749 543.922 268 545.932 268 548C268 561.807 256.807 573 243 573H192.682C192.891 574.302 193 575.638 193 577C193 579.43 192.653 581.779 192.007 584H234C247.807 584 259 595.193 259 609C259 622.807 247.807 634 234 634H0V584ZM0 454.98V405.02C13.3435 405.544 24 416.528 24 430C24 443.472 13.3435 454.455 0 454.98Z" fill="white"/>
<path fill-rule="evenodd" clip-rule="evenodd" d="M4320 454.98C4319.67 454.994 4319.33 455 4319 455H4240.94C4242.89 458.562 4244 462.651 4244 467H4320V542H4286C4272.19 542 4261 530.807 4261 517H4158C4144.19 517 4133 505.807 4133 492H3998C3984.19 492 3973 480.807 3973 467C3973 453.193 3984.19 442 3998 442H4105.06C4103.11 438.438 4102 434.349 4102 430C4102 416.193 4113.19 405 4127 405H4319C4319.33 405 4319.67 405.006 4320 405.02V454.98ZM4320 584V634H4277C4263.19 634 4252 622.807 4252 609C4252 595.193 4263.19 584 4277 584H4320Z" fill="white"/>
<path fill-rule="evenodd" clip-rule="evenodd" d="M3361 444C3361 430.193 3349.81 419 3336 419H3179C3165.19 419 3154 430.193 3154 444C3154 457.807 3165.19 469 3179 469H3278.67C3277.59 471.793 3277 474.827 3277 478C3277 481.173 3277.59 484.207 3278.67 487H3169C3159.54 487 3151.31 492.253 3147.06 500H2939C2925.19 500 2914 511.193 2914 525C2914 538.807 2925.19 550 2939 550H3072C3072 563.807 3083.19 575 3097 575H3206C3206 588.807 3217.19 600 3231 600H3418C3431.81 600 3443 588.807 3443 575C3443 572.932 3442.75 570.922 3442.28 569H3501C3514.81 569 3526 557.807 3526 544C3526 530.193 3514.81 519 3501 519H3416C3402.19 519 3391 530.193 3391 544C3391 546.068 3391.25 548.078 3391.72 550H3309C3309 545.238 3307.67 540.788 3305.36 537H3356C3369.81 537 3381 525.807 3381 512C3381 508.827 3380.41 505.793 3379.33 503H3474C3487.81 503 3499 491.807 3499 478C3499 464.193 3487.81 453 3474 453H3359.33C3360.41 450.207 3361 447.173 3361 444Z" fill="white"/>
</g>
</g>
<defs>
<filter id="filter0_d" x="-64" y="-64" width="4448" height="1028" filterUnits="userSpaceOnUse" color-interpolation-filters="sRGB">
<feFlood flood-opacity="0" result="BackgroundImageFix"/>
<feColorMatrix in="SourceAlpha" type="matrix" values="0 0 0 0 0 0 0 0 0 0 0 0 0 0 0 0 0 0 127 0"/>
<feOffset/>
<feGaussianBlur stdDeviation="32"/>
<feColorMatrix type="matrix" values="0 0 0 0 0 0 0 0 0 0 0 0 0 0 0 0 0 0 0.1 0"/>
<feBlend mode="normal" in2="BackgroundImageFix" result="effect1_dropShadow"/>
<feBlend mode="normal" in="SourceGraphic" in2="effect1_dropShadow" result="shape"/>
</filter>
<filter id="filter1_d" x="1376" y="-64" width="1568" height="1028" filterUnits="userSpaceOnUse" color-interpolation-filters="sRGB">
<feFlood flood-opacity="0" result="BackgroundImageFix"/>
<feColorMatrix in="SourceAlpha" type="matrix" values="0 0 0 0 0 0 0 0 0 0 0 0 0 0 0 0 0 0 127 0"/>
<feOffset/>
<feGaussianBlur stdDeviation="32"/>
<feColorMatrix type="matrix" values="0 0 0 0 0 0 0 0 0 0 0 0 0 0 0 0 0 0 0.1 0"/>
<feBlend mode="normal" in2="BackgroundImageFix" result="effect1_dropShadow"/>
<feBlend mode="normal" in="SourceGraphic" in2="effect1_dropShadow" result="shape"/>
</filter>
<filter id="filter2_d" x="-64" y="-64" width="4448" height="1028" filterUnits="userSpaceOnUse" color-interpolation-filters="sRGB">
<feFlood flood-opacity="0" result="BackgroundImageFix"/>
<feColorMatrix in="SourceAlpha" type="matrix" values="0 0 0 0 0 0 0 0 0 0 0 0 0 0 0 0 0 0 127 0"/>
<feOffset/>
<feGaussianBlur stdDeviation="32"/>
<feColorMatrix type="matrix" values="0 0 0 0 0 0 0 0 0 0 0 0 0 0 0 0 0 0 0.1 0"/>
<feBlend mode="normal" in2="BackgroundImageFix" result="effect1_dropShadow"/>
<feBlend mode="normal" in="SourceGraphic" in2="effect1_dropShadow" result="shape"/>
</filter>
<clipPath id="clip0">
<rect width="4320" height="900" fill="white"/>
</clipPath>
<clipPath id="clip1">
<rect width="1440" height="900" fill="white" transform="translate(1440)"/>
</clipPath>
<clipPath id="clip2">
<rect width="4320" height="900" fill="white"/>
</clipPath>
</defs>
</svg>
