<svg width="24" height="25" viewBox="0 0 24 25" fill="none" xmlns="http://www.w3.org/2000/svg">
<path fill-rule="evenodd" clip-rule="evenodd" d="M12 20.5012H10.9142C10.649 20.5012 10.3946 20.3958 10.2071 20.2083L10.0276 20.0287C9.6873 19.6885 9.23579 19.4823 8.75582 19.448L3.42876 19.0676C2.90545 19.0302 2.5 18.5948 2.5 18.0701V3.06421C1.63739 3.28623 1 4.06928 1 5.0012V19.0012C1 20.1058 1.89543 21.0012 3 21.0012H8.29289C8.74565 21.0012 9.17986 21.1811 9.5 21.5012C9.82014 21.8213 10.2544 22.0012 10.7071 22.0012H13.2929C13.7456 22.0012 14.1799 21.8213 14.5 21.5012C14.8201 21.1811 15.2544 21.0012 15.7071 21.0012H21C22.1046 21.0012 23 20.1058 23 19.0012V5.0012C23 4.06928 22.3626 3.28623 21.5 3.06421V18.0701C21.5 18.5947 21.0946 19.0301 20.5712 19.0675L15.2442 19.448C14.7642 19.4823 14.3127 19.6885 13.9725 20.0287L13.7929 20.2083C13.6054 20.3958 13.351 20.5012 13.0858 20.5012H12Z" fill="#333333"/>
<path fill-rule="evenodd" clip-rule="evenodd" d="M3.5 2.12574C3.5 1.52715 4.02235 1.06265 4.61684 1.13259L12 2.0012V19.5012H11.3429C11.0851 19.5012 10.8373 19.4017 10.6511 19.2233L10.3997 18.9825C10.0652 18.6621 9.62986 18.4677 9.16798 18.4325L4.42412 18.0715C3.90278 18.0319 3.5 17.5973 3.5 17.0744V2.12574ZM5.50386 4.93918C5.53811 4.66517 5.78801 4.47081 6.06202 4.50506L10.062 5.00506C10.336 5.03931 10.5304 5.28921 10.4961 5.56322C10.4619 5.83723 10.212 6.03159 9.93798 5.99734L5.93798 5.49734C5.66397 5.46309 5.46961 5.21319 5.50386 4.93918ZM6.06202 7.50506C5.78801 7.47081 5.53811 7.66517 5.50386 7.93918C5.46961 8.21319 5.66397 8.46309 5.93798 8.49734L9.93798 8.99734C10.212 9.03159 10.4619 8.83723 10.4961 8.56322C10.5304 8.28921 10.336 8.03931 10.062 8.00506L6.06202 7.50506ZM5.50386 10.9392C5.53811 10.6652 5.78801 10.4708 6.06202 10.5051L10.062 11.0051C10.336 11.0393 10.5304 11.2892 10.4961 11.5632C10.4619 11.8372 10.212 12.0316 9.93798 11.9973L5.93798 11.4973C5.66397 11.4631 5.46961 11.2132 5.50386 10.9392ZM6.06202 13.5051C5.78801 13.4708 5.53811 13.6652 5.50386 13.9392C5.46961 14.2132 5.66397 14.4631 5.93798 14.4973L9.93798 14.9973C10.212 15.0316 10.4619 14.8372 10.4961 14.5632C10.5304 14.2892 10.336 14.0393 10.062 14.0051L6.06202 13.5051Z" fill="#333333"/>
<path fill-rule="evenodd" clip-rule="evenodd" d="M20.5 2.12574C20.5 1.52715 19.9777 1.06265 19.3832 1.13259L12 2.0012V19.5012H12.6571C12.9149 19.5012 13.1627 19.4017 13.3489 19.2233L13.6003 18.9825C13.9348 18.6621 14.3701 18.4677 14.832 18.4325L19.5759 18.0715C20.0972 18.0319 20.5 17.5973 20.5 17.0744V2.12574ZM18.4961 4.93918C18.4619 4.66517 18.212 4.47081 17.938 4.50506L13.938 5.00506C13.664 5.03931 13.4696 5.28921 13.5039 5.56322C13.5381 5.83723 13.788 6.03159 14.062 5.99734L18.062 5.49734C18.336 5.46309 18.5304 5.21319 18.4961 4.93918ZM17.938 7.50506C18.212 7.47081 18.4619 7.66517 18.4961 7.93918C18.5304 8.21319 18.336 8.46309 18.062 8.49734L14.062 8.99734C13.788 9.03159 13.5381 8.83723 13.5039 8.56322C13.4696 8.28921 13.664 8.03931 13.938 8.00506L17.938 7.50506ZM18.4961 10.9392C18.4619 10.6652 18.212 10.4708 17.938 10.5051L13.938 11.0051C13.664 11.0393 13.4696 11.2892 13.5039 11.5632C13.5381 11.8372 13.788 12.0316 14.062 11.9973L18.062 11.4973C18.336 11.4631 18.5304 11.2132 18.4961 10.9392ZM17.938 13.5051C18.212 13.4708 18.4619 13.6652 18.4961 13.9392C18.5304 14.2132 18.336 14.4631 18.062 14.4973L14.062 14.9973C13.788 15.0316 13.5381 14.8372 13.5039 14.5632C13.4696 14.2892 13.664 14.0393 13.938 14.0051L17.938 13.5051Z" fill="#333333"/>
</svg>
