<svg width="24" height="24" viewBox="0 0 24 24" fill="none" xmlns="http://www.w3.org/2000/svg">
<path fill-rule="evenodd" clip-rule="evenodd" d="M0 5C0 3.34315 1.34315 2 3 2H21C22.6569 2 24 3.34315 24 5V13C24 14.6569 22.6569 16 21 16H16.5369L16.1257 15.4244C15.3178 14.2933 13.7765 13.9728 12.5846 14.6879L12.4507 14.7683L11.836 14.1535C10.9087 13.2262 9.4052 13.2262 8.4779 14.1535C7.97163 14.6598 7.74176 15.3378 7.78829 16H3C1.34315 16 0 14.6569 0 13V5ZM14.5978 16C14.2334 15.7602 13.7511 15.7373 13.3564 15.9741L13.3133 16H14.5978ZM11.5611 16H9.29851C9.24498 15.7243 9.325 15.4277 9.53856 15.2142C9.88008 14.8727 10.4338 14.8727 10.7753 15.2142L11.5611 16ZM7.75537 9.12C8.08071 9.18933 8.34204 9.352 8.53938 9.608C8.73671 9.85867 8.83537 10.1467 8.83537 10.472C8.83537 10.9413 8.67004 11.3147 8.33937 11.592C8.01404 11.864 7.55804 12 6.97138 12H4.35537V6.384H6.88338C7.45404 6.384 7.89937 6.51467 8.21938 6.776C8.54471 7.03733 8.70737 7.392 8.70737 7.84C8.70737 8.17067 8.61938 8.44533 8.44337 8.664C8.27271 8.88267 8.04338 9.03467 7.75537 9.12ZM5.72338 8.656H6.61938C6.84338 8.656 7.01404 8.608 7.13138 8.512C7.25404 8.41067 7.31538 8.264 7.31538 8.072C7.31538 7.88 7.25404 7.73333 7.13138 7.632C7.01404 7.53067 6.84338 7.48 6.61938 7.48H5.72338V8.656ZM6.73138 10.896C6.96071 10.896 7.13671 10.8453 7.25938 10.744C7.38738 10.6373 7.45138 10.4853 7.45138 10.288C7.45138 10.0907 7.38471 9.936 7.25138 9.824C7.12337 9.712 6.94471 9.656 6.71537 9.656H5.72338V10.896H6.73138ZM10.9728 6.384V9.744C10.9728 10.08 11.0555 10.3387 11.2208 10.52C11.3861 10.7013 11.6288 10.792 11.9488 10.792C12.2688 10.792 12.5141 10.7013 12.6848 10.52C12.8555 10.3387 12.9408 10.08 12.9408 9.744V6.384H14.3088V9.736C14.3088 10.2373 14.2021 10.6613 13.9888 11.008C13.7755 11.3547 13.4875 11.616 13.1248 11.792C12.7675 11.968 12.3675 12.056 11.9248 12.056C11.4821 12.056 11.0848 11.9707 10.7328 11.8C10.3861 11.624 10.1115 11.3627 9.90881 11.016C9.70615 10.664 9.60481 10.2373 9.60481 9.736V6.384H10.9728ZM20.0854 6.384L18.1414 10.144V12H16.7734V10.144L14.8294 6.384H16.3814L17.4694 8.736L18.5494 6.384H20.0854Z" fill="#333333"/>
<path fill-rule="evenodd" clip-rule="evenodd" d="M14.2814 21.1958C14.0548 21.4224 14.0548 21.7898 14.2814 22.0164C14.5091 22.244 14.8782 22.244 15.1059 22.0164L17.1671 19.9551C17.3948 19.7274 17.3948 19.3583 17.1671 19.1306C16.9406 18.904 16.5732 18.904 16.3466 19.1306L14.2814 21.1958ZM12.8071 21.1919C12.9617 21.1919 13.11 21.1304 13.2194 21.0211L15.8233 18.4172C16.0248 18.2156 16.0511 17.898 15.8855 17.666L14.9071 16.2963C14.5537 15.8016 13.8796 15.6614 13.3583 15.9742L12.6105 16.4229C12.3811 16.5605 12.0874 16.5244 11.8982 16.3352L10.7772 15.2142C10.4357 14.8727 9.88201 14.8727 9.54049 15.2142C9.19897 15.5557 9.19897 16.1094 9.54049 16.451L11.7477 18.6582C12.0171 18.9276 11.8414 19.3899 11.4619 19.4244C10.8412 19.4808 10.46 20.1452 10.7388 20.7026C10.8887 21.0025 11.1951 21.1919 11.5303 21.1919L12.8071 21.1919Z" fill="#333333"/>
</svg>
