<svg width="24" height="25" viewBox="0 0 24 25" fill="none" xmlns="http://www.w3.org/2000/svg">
<path d="M4.64447 13.4825C4.64447 13.2166 4.4288 13.0012 4.1627 13.0012H2.48151C2.21571 13.0012 2 13.2166 2 13.4825V15.1635C2 15.4297 2.21571 15.6452 2.48151 15.6452H4.1627C4.4288 15.6452 4.64447 15.4297 4.64447 15.1635V13.4825Z" fill="#333333"/>
<path d="M4.64447 18.4825C4.64447 18.2166 4.4288 18.0012 4.1627 18.0012H2.48151C2.21571 18.0012 2 18.2166 2 18.4825V20.1635C2 20.4297 2.21571 20.6452 2.48151 20.6452H4.1627C4.4288 20.6452 4.64447 20.4297 4.64447 20.1635V18.4825Z" fill="#333333"/>
<path d="M22.84 13.4825C22.84 13.2166 22.6261 13.0012 22.36 13.0012H7.48151C7.21571 13.0012 7 13.2166 7 13.4825V15.1635C7 15.4297 7.21571 15.6452 7.48151 15.6452H22.36C22.6261 15.6452 22.84 15.4297 22.84 15.1635V13.4825Z" fill="#333333"/>
<path d="M22.84 18.4825C22.84 18.2166 22.6261 18.0012 22.36 18.0012H7.48151C7.21571 18.0012 7 18.2166 7 18.4825V20.1635C7 20.4297 7.21571 20.6452 7.48151 20.6452H22.36C22.6261 20.6452 22.84 20.4297 22.84 20.1635V18.4825Z" fill="#333333"/>
<path d="M9.64423 8.48251C9.64423 8.21662 9.42852 8.00122 9.16293 8.00122H7.48151C7.21571 8.00122 7 8.21662 7 8.48251V10.1635C7 10.4297 7.21571 10.6452 7.48151 10.6452H9.16293C9.42852 10.6452 9.64423 10.4297 9.64423 10.1635V8.48251Z" fill="#333333"/>
<path d="M5.94348 6.6514H7.25495C7.65301 6.6514 7.97577 6.32911 7.97577 5.93104V1.72184C7.97577 1.32372 7.65301 1.00122 7.25495 1.00122H5.94348C5.54537 1.00122 5.22266 1.32372 5.22266 1.72184V5.93104C5.22266 6.32911 5.54537 6.6514 5.94348 6.6514Z" fill="#333333"/>
<path d="M17.463 6.6514H18.7744C19.1722 6.6514 19.495 6.32911 19.495 5.93104V1.72184C19.495 1.32372 19.1723 1.00122 18.7744 1.00122H17.463C17.0649 1.00122 16.7422 1.32372 16.7422 1.72184V5.93104C16.7422 6.32911 17.0649 6.6514 17.463 6.6514Z" fill="#333333"/>
<path d="M20.9074 3.36456V5.93212C20.9074 7.09262 19.9659 8.02781 18.8056 8.02781H17.4797C16.3193 8.02781 15.3654 7.09262 15.3654 5.93212V3.35535H9.38937V5.93212C9.38937 7.09262 8.43548 8.02781 7.27524 8.02781H5.94911C4.78882 8.02781 3.84742 7.09262 3.84742 5.93212V3.36456C2.83331 3.39513 2 4.23427 2 5.26568V8.78068C2 9.88525 2.89543 10.7807 4 10.7807H20.7548C21.8593 10.7807 22.7548 9.88525 22.7548 8.78068V5.26568C22.7548 4.23427 21.9215 3.39513 20.9074 3.36456Z" fill="#333333"/>
</svg>
