<svg width="24" height="25" viewBox="0 0 24 25" fill="none" xmlns="http://www.w3.org/2000/svg">
<path d="M9.49994 12.7111C9.49994 12.4453 9.28427 12.2299 9.01817 12.2299H7.33698C7.07118 12.2299 6.85547 12.4453 6.85547 12.7111V14.3921C6.85547 14.6584 7.07118 14.8738 7.33698 14.8738H9.01817C9.28427 14.8738 9.49994 14.6584 9.49994 14.3921V12.7111Z" fill="#333333"/>
<path d="M13.6989 12.7111C13.6989 12.4453 13.4832 12.2299 13.2176 12.2299H11.5362C11.2704 12.2299 11.0547 12.4453 11.0547 12.7111V14.3921C11.0547 14.6584 11.2704 14.8738 11.5362 14.8738H13.2176C13.4832 14.8738 13.6989 14.6584 13.6989 14.3921V12.7111Z" fill="#333333"/>
<path d="M17.9023 12.7111C17.9023 12.4453 17.6866 12.2299 17.4208 12.2299H15.7396C15.4735 12.2299 15.2578 12.4453 15.2578 12.7111V14.3921C15.2578 14.6584 15.4735 14.8738 15.7396 14.8738H17.4208C17.6866 14.8738 17.9023 14.6584 17.9023 14.3921V12.7111Z" fill="#333333"/>
<path d="M9.49994 16.9131C9.49994 16.6468 9.28427 16.4316 9.01817 16.4316H7.33698C7.07118 16.4316 6.85547 16.6468 6.85547 16.9131V18.5938C6.85547 18.8598 7.07118 19.0753 7.33698 19.0753H9.01817C9.28427 19.0753 9.49994 18.8598 9.49994 18.5938V16.9131Z" fill="#333333"/>
<path d="M13.6989 16.9131C13.6989 16.6468 13.4832 16.4316 13.2176 16.4316H11.5362C11.2704 16.4316 11.0547 16.6468 11.0547 16.9131V18.5938C11.0547 18.8598 11.2704 19.0753 11.5362 19.0753H13.2176C13.4832 19.0753 13.6989 18.8598 13.6989 18.5938V16.9131Z" fill="#333333"/>
<path d="M17.9023 16.9131C17.9023 16.6468 17.6866 16.4316 17.421 16.4316H15.7396C15.4735 16.4316 15.2578 16.6468 15.2578 16.9131V18.5938C15.2578 18.8598 15.4735 19.0753 15.7396 19.0753H17.421C17.6866 19.0753 17.9023 18.8598 17.9023 18.5938V16.9131Z" fill="#333333"/>
<path d="M20.9074 3.36456V5.93212C20.9074 7.09262 19.9659 8.02781 18.8056 8.02781H17.4797C16.3193 8.02781 15.3654 7.09262 15.3654 5.93212V3.35535H9.38937V5.93212C9.38937 7.09262 8.43548 8.02781 7.27524 8.02781H5.94911C4.78882 8.02781 3.84742 7.09262 3.84742 5.93212V3.36456C2.83331 3.39513 2 4.23427 2 5.26568V20.3127C2 21.3636 2.8517 22.2266 3.90251 22.2266H20.8523C21.9015 22.2266 22.7548 21.3618 22.7548 20.3127V5.26568C22.7548 4.23427 21.9215 3.39513 20.9074 3.36456ZM20.2916 19.3757C20.2916 19.8298 19.9234 20.1983 19.4691 20.1983H5.24946C4.79517 20.1983 4.42698 19.8298 4.42698 19.3757V11.6034C4.42698 11.1491 4.79513 10.7807 5.24946 10.7807H19.469C19.9233 10.7807 20.2915 11.1491 20.2915 11.6034L20.2916 19.3757Z" fill="#333333"/>
<path d="M5.94348 6.6514H7.25495C7.65301 6.6514 7.97577 6.32911 7.97577 5.93104V1.72184C7.97577 1.32372 7.65301 1.00122 7.25495 1.00122H5.94348C5.54537 1.00122 5.22266 1.32372 5.22266 1.72184V5.93104C5.22266 6.32911 5.54537 6.6514 5.94348 6.6514Z" fill="#333333"/>
<path d="M17.463 6.6514H18.7744C19.1722 6.6514 19.495 6.32911 19.495 5.93104V1.72184C19.495 1.32372 19.1723 1.00122 18.7744 1.00122H17.463C17.0649 1.00122 16.7422 1.32372 16.7422 1.72184V5.93104C16.7422 6.32911 17.0649 6.6514 17.463 6.6514Z" fill="#333333"/>
</svg>
