<svg width="24" height="24" viewBox="0 0 24 24" fill="none" xmlns="http://www.w3.org/2000/svg">
<path d="M5.5 9.5V16.5" stroke="black" stroke-width="1.5" stroke-linecap="round"/>
<path d="M5 3.5H6.5" stroke="black" stroke-width="1.5" stroke-linecap="round"/>
<circle cx="14" cy="13" r="4" stroke="black" stroke-width="2"/>
<path d="M20 6C21.1046 6 22 6.89543 22 8V18C22 19.1046 21.1046 20 20 20H4C2.89543 20 2 19.1046 2 18V8C2 6.89543 2.89543 6 4 6H8.53533C9.14484 6 9.72109 5.72205 10.1005 5.24505L10.4904 4.75495C10.8698 4.27795 11.4461 4 12.0556 4H15.527C16.1669 4 16.7681 4.30617 17.1445 4.82366L17.401 5.17634C17.7773 5.69383 18.3786 6 19.0184 6H20Z" stroke="black" stroke-width="2"/>
</svg>
