<svg width="24" height="24" viewBox="0 0 24 24" fill="none" xmlns="http://www.w3.org/2000/svg">
<path d="M3 13V18C3 19.1046 3.89543 20 5 20H19C20.1046 20 21 19.1046 21 18V17.5M3 13L5 15M3 13L1 15M21 13V8C21 6.89543 20.1046 6 19 6H17.0184C16.3786 6 15.7773 5.69383 15.401 5.17634L15.1445 4.82366C14.7681 4.30617 14.1669 4 13.527 4H10.0556C9.44607 4 8.86982 4.27795 8.49038 4.75495L8.10053 5.24505C7.72109 5.72205 7.14484 6 6.53533 6H5C3.89543 6 3 6.89543 3 8V8.5M21 13L19 11M21 13L23 11" stroke="black" stroke-width="2" stroke-linecap="round"/>
<circle cx="12" cy="13" r="3" stroke="black" stroke-width="2"/>
</svg>
