<svg width="24" height="24" viewBox="0 0 24 24" fill="none" xmlns="http://www.w3.org/2000/svg">
<path d="M21.9999 9.06534V8.06818C21.9999 6.92595 20.9715 6 19.703 6H3.29686C2.02834 6 1 6.92595 1 8.06818V9.06534C1 9.16731 1.09183 9.25 1.20508 9.25H21.7948C21.908 9.25 21.9999 9.16731 21.9999 9.06534Z" fill="#333333"/>
<path d="M1 11.6164V16.9317C1 18.074 2.02834 18.9999 3.29686 18.9999H19.703C20.9715 18.9999 21.9999 18.074 21.9999 16.9317V11.6164C21.9999 11.5144 21.908 11.4317 21.7948 11.4317H1.20508C1.09183 11.4317 1 11.5144 1 11.6164ZM6.24997 15.4545C6.24997 15.7808 5.95613 16.0454 5.59372 16.0454H4.93748C4.57506 16.0454 4.28123 15.7808 4.28123 15.4545V14.8636C4.28123 14.5372 4.57506 14.2726 4.93748 14.2726H5.59372C5.95613 14.2726 6.24997 14.5372 6.24997 14.8636V15.4545Z" fill="#333333"/>
</svg>
