<svg width="24" height="24" viewBox="0 0 24 24" fill="none" xmlns="http://www.w3.org/2000/svg">
<path fill-rule="evenodd" clip-rule="evenodd" d="M4.49462 6.18177L10.2257 11.9131L4.50097 17.6378C4.17427 17.9643 4.17427 18.4962 4.50097 18.8229L5.00303 19.3248C5.16084 19.4827 5.3712 19.5697 5.59564 19.5697C5.8202 19.5697 6.03057 19.4827 6.18825 19.3248L11.8999 13.6135L17.6116 19.3248C17.7692 19.4827 17.9796 19.5697 18.2042 19.5697C18.4286 19.5697 18.639 19.4827 18.7968 19.3248L19.2988 18.8229C19.6255 18.4962 19.6255 17.9643 19.2988 17.6378L13.5741 11.9131L19.3052 6.18177C19.463 6.02434 19.5498 5.81385 19.5498 5.58941C19.5498 5.36485 19.463 5.15448 19.3052 4.9968L18.803 4.49487C18.6454 4.33694 18.4348 4.25 18.2104 4.25C17.986 4.25 17.7756 4.33694 17.6179 4.49487L11.8999 10.2128L6.1819 4.49487C6.02422 4.33694 5.81385 4.25 5.58941 4.25C5.36497 4.25 5.15436 4.33694 4.9968 4.49487L4.49462 4.9968C4.33681 5.15448 4.25 5.36485 4.25 5.58941C4.25 5.81385 4.33681 6.02434 4.49462 6.18177Z" fill="black"/>
</svg>
