<svg width="24" height="24" viewBox="0 0 24 24" fill="none" xmlns="http://www.w3.org/2000/svg">
<path d="M10.0243 11.6631L15.7554 5.93179C15.9132 5.77436 16 5.56387 16 5.33943C16 5.11486 15.9132 4.9045 15.7554 4.74682L15.2532 4.24488C15.0956 4.08695 14.885 4.00002 14.6606 4.00002C14.4361 4.00002 14.2258 4.08695 14.0681 4.24488L7.24437 11.0685C7.08607 11.2267 6.99938 11.438 7 11.6627C6.99938 11.8884 7.08594 12.0995 7.24437 12.2578L14.0618 19.0748C14.2194 19.2328 14.4298 19.3197 14.6544 19.3197C14.8788 19.3197 15.0892 19.2328 15.247 19.0748L15.749 18.5729C16.0757 18.2462 16.0757 17.7144 15.749 17.3878L10.0243 11.6631Z" fill="black"/>
</svg>
