<svg width="24" height="23" viewBox="0 0 24 23" fill="none" xmlns="http://www.w3.org/2000/svg">
<path fill-rule="evenodd" clip-rule="evenodd" d="M3.57541 1.33265C2.98963 0.746864 2.03988 0.746864 1.45409 1.33265C0.868306 1.91844 0.868306 2.86818 1.45409 3.45397L9.8788 11.8787L1.33277 20.4247C0.746986 21.0105 0.746986 21.9602 1.33277 22.546C1.91856 23.1318 2.86831 23.1318 3.45409 22.546L12.0001 14L20.546 22.5459C21.1318 23.1316 22.0815 23.1316 22.6673 22.5459C23.2531 21.9601 23.2531 21.0103 22.6673 20.4245L14.1214 11.8787L22.546 3.45415C23.1318 2.86836 23.1318 1.91861 22.546 1.33283C21.9602 0.74704 21.0104 0.74704 20.4247 1.33283L12.0001 9.75736L3.57541 1.33265Z" fill="black"/>
</svg>
