<svg width="1923" height="168" viewBox="0 0 1923 168" fill="none" xmlns="http://www.w3.org/2000/svg">
<g clip-path="url(#clip0_1088_2)">
<path fill-rule="evenodd" clip-rule="evenodd" d="M1561.58 99.0193C1574.39 99.0193 1584.77 109.402 1584.77 122.21C1584.77 135.018 1574.39 145.4 1561.58 145.4L1381.62 145.4C1368.82 145.4 1358.43 135.018 1358.43 122.21L1242.48 122.21C1229.67 122.21 1219.29 111.827 1219.29 99.0193C1219.29 93.3735 1221.31 88.199 1224.66 84.1773H1127.98C1124.37 91.7166 1116.81 97.0023 1107.98 97.3496V97.3678H1107.05L1021.3 97.3678C1017.12 103.41 1010.13 107.368 1002.23 107.368C989.419 107.368 979.036 96.9851 979.036 84.1773C979.036 71.3695 989.419 60.9868 1002.23 60.9868V50.9867L1049.01 50.9867C1052.75 43.1848 1060.72 37.7962 1069.94 37.7962H1069.94L1193.31 37.7962C1192.71 35.7358 1192.39 33.557 1192.39 31.303C1192.39 18.4952 1202.77 8.11246 1215.58 8.11246H1215.58L1282.37 8.11239C1282.37 5.16931 1282.92 2.35428 1283.92 -0.236145L1199.81 -0.236145C1199.81 -0.236145 1199.81 -0.236145 1199.81 -0.236145C1187 -0.236145 1176.62 -10.6189 1176.62 -23.4267C1176.62 -36.2344 1187 -46.6172 1199.81 -46.6172C1199.81 -46.6172 1199.81 -46.6172 1199.81 -46.6172L1341.74 -46.6172C1341.74 -46.6172 1341.74 -46.6172 1341.74 -46.6172C1354.54 -46.617 1364.93 -36.2343 1364.93 -23.4267C1364.93 -20.4836 1364.38 -17.6686 1363.38 -15.0781H1522.62C1535.43 -15.0781 1545.81 -4.69539 1545.81 8.11239C1545.81 20.9202 1535.43 31.3029 1522.62 31.3029L1418.73 31.303C1418.73 44.1108 1408.35 54.4935 1395.54 54.4935L1321.33 54.4935C1321.93 56.5539 1322.26 58.7328 1322.26 60.9868C1322.26 66.6325 1320.24 71.807 1316.89 75.8287L1471.6 75.8287C1484.41 75.8287 1494.79 86.2115 1494.79 99.0193L1561.58 99.0193Z" fill="white"/>
<path fill-rule="evenodd" clip-rule="evenodd" d="M1039 96C1039 108.15 1029.15 118 1017 118L793 118C781.185 118 771.545 108.686 771.022 97L702 97C684.879 97 671 83.1208 671 66C671 64.2978 671.137 62.6277 671.401 61L562.5 61C550.639 61 540.31 54.445 534.937 44.7602L457.959 44.7602C440.676 44.7602 426.665 30.7493 426.665 13.4661C426.665 -3.81714 440.676 -17.828 457.959 -17.828H534.395C531.951 -22.2868 530.561 -27.4056 530.561 -32.8492C530.561 -50.1324 544.572 -64.1432 561.855 -64.1432H728.34C743.869 -64.1432 756.756 -52.8325 759.212 -38L1298.5 -38C1315.9 -38 1330 -23.897 1330 -6.5C1330 10.897 1315.9 25 1298.5 25L1247.68 25C1247.89 26.4697 1248 27.9722 1248 29.5C1248 46.897 1233.9 61 1216.5 61L1055.6 61C1055.86 62.6277 1056 64.2978 1056 66C1056 78.1295 1049.03 88.632 1038.88 93.7247C1038.96 94.4727 1039 95.2318 1039 96ZM1963 57C1980.12 57 1994 43.1208 1994 26C1994 8.87917 1980.12 -5 1963 -5L1542 -5C1524.88 -5 1511 8.87917 1511 26C1511 43.1208 1524.88 57 1542 57L1963 57Z" fill="white"/>
<rect x="1978" y="80" width="345" height="62" rx="31" transform="rotate(180 1978 80)" fill="white"/>
<rect x="1894" y="168" width="223" height="40" rx="20" transform="rotate(180 1894 168)" fill="white"/>
<rect x="1951" y="155" width="223" height="40" rx="20" transform="rotate(180 1951 155)" fill="white"/>
<rect x="1939" y="97" width="223" height="40" rx="20" transform="rotate(180 1939 97)" fill="white"/>
<rect x="2028" y="125" width="223" height="40" rx="20" transform="rotate(180 2028 125)" fill="white"/>
<path fill-rule="evenodd" clip-rule="evenodd" d="M134.727 -6.8894C119.699 -6.8894 107.516 5.29329 107.516 20.3214C107.516 35.3495 119.699 47.5322 134.727 47.5322L315.476 47.5322C313.35 51.4092 312.142 55.8602 312.142 60.5934L222.89 60.5934C207.862 60.5934 195.679 72.7761 195.679 87.8042C195.679 102.832 207.862 115.015 222.89 115.015H267.229C263.595 119.64 261.428 125.473 261.428 131.811C261.428 146.839 273.61 159.022 288.639 159.022H454.08C469.108 159.022 481.291 146.839 481.291 131.811C481.291 116.783 469.108 104.6 454.08 104.6L364.028 104.6C367.662 99.9746 369.829 94.1425 369.829 87.8042L560.304 87.8042C575.332 87.8042 587.515 75.6215 587.515 60.5934C587.515 45.5653 575.332 33.3826 560.304 33.3826L457.923 33.3826C460.048 29.5056 461.257 25.0546 461.257 20.3214C461.257 5.29329 449.074 -6.8894 434.046 -6.8894L134.727 -6.8894Z" fill="white"/>
<path fill-rule="evenodd" clip-rule="evenodd" d="M-100 -71.0001L-100 51.6762L77.5483 51.6762C75.7182 55.4052 74.6906 59.5993 74.6906 64.0335C74.6906 70.7046 77.0166 76.8325 80.9019 81.6504L-15.9467 81.6504C-31.4574 81.6504 -44.0314 94.2244 -44.0314 109.735C-44.0314 125.246 -31.4574 137.82 -15.9467 137.82L189.633 137.82C205.144 137.82 217.718 125.246 217.718 109.735C217.718 103.064 215.392 96.9361 211.507 92.1182L308.355 92.1182C323.866 92.1182 336.44 79.5442 336.44 64.0335C336.44 48.5227 323.866 35.9488 308.355 35.9488L235.848 35.9488C237.678 32.2198 238.705 28.0256 238.705 23.5915C238.705 21.6679 238.512 19.7894 238.143 17.9745L381.376 17.9745C396.886 17.9745 409.46 5.40055 409.46 -10.1102C409.46 -25.621 396.886 -38.1949 381.376 -38.1949H251.07C251.797 -40.6902 252.186 -43.3289 252.186 -46.0586C252.186 -61.5693 239.612 -74.1433 224.101 -74.1433L-87.0773 -74.1433C-91.737 -74.1433 -96.1317 -73.0085 -100 -71.0001Z" fill="white"/>
<path fill-rule="evenodd" clip-rule="evenodd" d="M0 -82.0887H72.9036C89.206 -82.0887 102.422 -68.873 102.422 -52.5707C102.422 -36.2683 89.206 -23.0527 72.9036 -23.0527L0 -23.0527L0 -82.0887ZM0 -13.6069L0 86.7544L229.939 86.7544C246.242 86.7544 259.457 73.5387 259.457 57.2364C259.457 40.934 246.242 27.7184 229.939 27.7184L62.1824 27.7184C63.7621 24.1026 64.6385 20.1092 64.6385 15.9111C64.6385 -0.391197 51.4229 -13.6069 35.1205 -13.6069H0Z" fill="white"/>
</g>
<defs>
<clipPath id="clip0_1088_2">
<rect width="1923" height="168" fill="white" transform="matrix(1 0 0 -1 0 168)"/>
</clipPath>
</defs>
</svg>
