<svg width="24" height="25" viewBox="0 0 24 25" fill="none" xmlns="http://www.w3.org/2000/svg">
<path fill-rule="evenodd" clip-rule="evenodd" d="M3 15.0012C1.89543 15.0012 1 15.8967 1 17.0012V22.0012C1 23.1058 1.89543 24.0012 3 24.0012H21C22.1046 24.0012 23 23.1058 23 22.0012V17.0012C23 15.8967 22.1046 15.0012 21 15.0012H3ZM8 17.0012C7.44772 17.0012 7 17.4489 7 18.0012C7 18.5535 7.44772 19.0012 8 19.0012H16C16.5523 19.0012 17 18.5535 17 18.0012C17 17.4489 16.5523 17.0012 16 17.0012H8Z" fill="#333333"/>
<path d="M4.14278 6.24347C4.23905 5.14311 5.20912 4.32913 6.30949 4.42539L20.2562 5.64557C21.3566 5.74184 22.1706 6.71191 22.0743 7.81228L21.6165 13.0448C21.5939 13.3031 21.3777 13.5012 21.1184 13.5012H20.1146C19.8212 13.5012 19.5909 13.2499 19.6165 12.9576L19.9947 8.63416C20.0429 8.08398 19.6359 7.59894 19.0857 7.55081L7.13137 6.50494C6.58118 6.4568 6.09615 6.8638 6.04802 7.41398L5.55538 13.0448C5.53279 13.3031 5.31654 13.5012 5.05729 13.5012H4.05347C3.76013 13.5012 3.5298 13.2499 3.55537 12.9576L4.14278 6.24347Z" fill="#333333"/>
<path d="M18.0632 13.5012H8.21871C9.41683 13.017 11.1213 12.375 11.633 12.4198C11.9649 12.4488 12.7571 12.6661 13.5796 12.9135C14.6777 11.9105 16.0008 10.7943 16.4147 10.8305C16.8842 10.8716 17.4462 11.555 17.799 12.0573C18.0357 12.3942 18.1239 12.808 18.088 13.2182L18.0632 13.5012Z" fill="#333333"/>
<path d="M8.52608 10.6422C9.21381 10.7024 9.8201 10.1937 9.88027 9.50594C9.94044 8.81821 9.4317 8.21192 8.74397 8.15175C8.05625 8.09159 7.44995 8.60032 7.38979 9.28805C7.32962 9.97578 7.83836 10.5821 8.52608 10.6422Z" fill="#333333"/>
<path fill-rule="evenodd" clip-rule="evenodd" d="M3.50159 1.54701C2.40122 1.64328 1.58724 2.61334 1.68351 3.71371L2.38076 11.6833C2.38785 11.7644 2.47993 11.7586 2.48703 11.6775L3.07028 5.01083C3.16655 3.91046 4.13662 3.09648 5.23699 3.19275L17.2016 4.23952C17.5113 4.26661 17.7703 4.00753 17.7432 3.69784L17.6226 2.31922C17.5264 1.21885 16.5563 0.40487 15.4559 0.501139L3.50159 1.54701Z" fill="#333333"/>
</svg>
