<svg width="24" height="24" viewBox="0 0 24 24" fill="none" xmlns="http://www.w3.org/2000/svg">
<rect x="7" y="7" width="14" height="14" rx="2" stroke="black" stroke-width="2"/>
<circle cx="11.5" cy="11.5" r="1.25" stroke="black" stroke-width="1.5"/>
<path d="M10 18L13.2284 15.4173C14.2765 14.5788 15.754 14.5386 16.8462 15.3187L18.5 16.5" stroke="black" stroke-width="1.5" stroke-linecap="round"/>
<path fill-rule="evenodd" clip-rule="evenodd" d="M4.32074 2.02949C2.6702 2.17389 1.44922 3.62899 1.59363 5.27954L2.46519 15.2415C2.52898 15.9707 2.84862 16.6161 3.32793 17.0969C3.81057 17.5811 4.49902 17.1173 4.49902 16.4337V15.4301C4.49902 15.3294 4.48009 15.2298 4.46507 15.1301C4.46193 15.1094 4.45943 15.0884 4.45757 15.0672L3.58602 5.10523C3.53788 4.55504 3.94487 4.07001 4.49506 4.02188L14.457 3.15032C15.0072 3.10218 15.4922 3.50917 15.5404 4.05936C15.5622 4.30869 15.7709 4.49999 16.0212 4.49999H16.9693C17.3011 4.49999 17.5617 4.21563 17.5327 3.88505C17.3883 2.2345 15.9332 1.01352 14.2827 1.15793L4.32074 2.02949Z" fill="black"/>
</svg>
