<svg width="24" height="24" viewBox="0 0 24 24" fill="none" xmlns="http://www.w3.org/2000/svg">
<path fill-rule="evenodd" clip-rule="evenodd" d="M5 7C3.89543 7 3 7.89543 3 9L3 14C3 15.1046 3.89543 16 5 16H10L11.2929 14.7071C11.6834 14.3166 12.3166 14.3166 12.7071 14.7071L14 16H19C20.1046 16 21 15.1046 21 14V9C21 7.89543 20.1046 7 19 7L5 7ZM16 14C17.1046 14 18 13.1046 18 12C18 10.8954 17.1046 10 16 10C14.8954 10 14 10.8954 14 12C14 13.1046 14.8954 14 16 14ZM10 12C10 13.1046 9.10457 14 8 14C6.89543 14 6 13.1046 6 12C6 10.8954 6.89543 10 8 10C9.10457 10 10 10.8954 10 12Z" fill="black"/>
</svg>
