<svg width="24" height="25" viewBox="0 0 24 25" fill="none" xmlns="http://www.w3.org/2000/svg">
<path d="M19.8587 4.12353C17.8204 2.06062 15.0207 0.930936 12.1228 1.00461C6.35159 1.17652 1.83284 5.96541 2.00475 11.7366C2.02931 12.94 2.27489 14.1188 2.71694 15.2239C3.08532 16.1572 3.57649 17.0167 4.19045 17.8026L3.3309 19.8409C2.98708 20.6268 3.35546 21.5355 4.14133 21.8793C4.41147 22.0021 4.73073 22.0266 5.02543 21.9775L9.0039 21.2899C10.4283 21.781 11.9263 21.9529 13.4244 21.8056C18.5571 21.2899 22.5601 17.0904 22.8303 11.9331C22.9776 9.01066 21.8971 6.18644 19.8587 4.12353ZM11.6562 15.5923H8.93022C8.51273 15.5923 8.14435 15.2485 8.14435 14.8064C8.14435 14.389 8.48817 14.0206 8.93022 14.0206H11.6562C12.0737 14.0206 12.4421 14.3644 12.4421 14.8064C12.4421 15.2485 12.0983 15.5923 11.6562 15.5923ZM15.9048 12.3997H8.93022C8.51273 12.3997 8.14435 12.0559 8.14435 11.6139C8.14435 11.1718 8.48817 10.828 8.93022 10.828H15.9048C16.3223 10.828 16.6907 11.1718 16.6907 11.6139C16.6907 12.0559 16.3223 12.3997 15.9048 12.3997ZM15.9048 9.18257H8.93022C8.51273 9.18257 8.14435 8.83875 8.14435 8.3967C8.14435 7.9792 8.48817 7.61083 8.93022 7.61083H15.9048C16.3223 7.61083 16.6907 7.95465 16.6907 8.3967C16.6907 8.81419 16.3223 9.18257 15.9048 9.18257Z" fill="#333333"/>
</svg>
