<svg width="24" height="24" viewBox="0 0 24 24" fill="none" xmlns="http://www.w3.org/2000/svg">
<path d="M12.5 21H5.5C4.67157 21 4 20.3284 4 19.5V10.5C4 9.67157 4.67157 9 5.5 9H12.5C13.3284 9 14 9.67157 14 10.5V19.5C14 20.3284 13.3284 21 12.5 21Z" stroke="black" stroke-width="2"/>
<path fill-rule="evenodd" clip-rule="evenodd" d="M9.82812 5.5C9.82812 5.22386 10.052 5 10.3281 5H17.3281C17.6043 5 17.8281 5.22386 17.8281 5.5V14.9778C17.8281 15.2539 17.6043 15.4778 17.3281 15.4778H17.0015C16.7253 15.4778 16.5015 15.7016 16.5015 15.9778V16.9778C16.5015 17.2539 16.7253 17.4778 17.0015 17.4778H17.3281C18.7088 17.4778 19.8281 16.3585 19.8281 14.9778V5.5C19.8281 4.11929 18.7088 3 17.3281 3H10.3281C8.94741 3 7.82812 4.11929 7.82812 5.5V6C7.82812 6.27614 8.05198 6.5 8.32812 6.5H9.32812C9.60427 6.5 9.82812 6.27614 9.82812 6V5.5Z" fill="black"/>
</svg>
