<svg width="24" height="24" viewBox="0 0 24 24" fill="none" xmlns="http://www.w3.org/2000/svg">
<path fill-rule="evenodd" clip-rule="evenodd" d="M11 4C10.4477 4 10 4.44772 10 5V6.25391C10 6.39071 9.88679 6.5 9.75 6.5C9.57947 6.5 9.41024 6.50551 9.24245 6.51635C8.60069 6.55784 8 6.0844 8 5.4413V5C8 3.34315 9.34315 2 11 2H19C20.6569 2 22 3.34315 22 5V13C22 13.4899 21.8826 13.9523 21.6743 14.3608C21.5931 14.5202 21.3761 14.5603 21.3104 14.3938L20.0697 11.248C20.0237 11.1311 20 11.0067 20 10.8811V5C20 4.44772 19.5523 4 19 4H11Z" fill="black"/>
<path fill-rule="evenodd" clip-rule="evenodd" d="M15.3416 12.7405C15.4358 12.5015 15.4374 12.2339 15.3272 12.0018C14.2041 9.63588 11.7931 8 9 8C5.13401 8 2 11.134 2 15C2 18.866 5.13401 22 9 22C9.81551 22 10.5984 21.8605 11.3263 21.6042C12.0798 21.3388 11.9897 20.3623 11.2465 20.0692L10.8233 19.9023C10.6107 19.8185 10.3767 19.8135 10.1543 19.8661C9.78378 19.9537 9.3973 20 9 20C6.23858 20 4 17.7614 4 15C4 12.2386 6.23858 10 9 10C11.5656 10 13.6798 11.9323 13.9668 14.4209C13.9906 14.6269 14.2009 14.7656 14.3937 14.6895C14.529 14.6362 14.6362 14.5291 14.6895 14.3938L15.3416 12.7405Z" fill="black"/>
<path d="M17.5116 14.2383C17.6864 13.7951 18.3136 13.7951 18.4884 14.2383L19.3306 16.3737C19.3839 16.509 19.491 16.6161 19.6263 16.6694L21.7617 17.5116C22.2049 17.6864 22.2049 18.3136 21.7617 18.4884L19.6263 19.3306C19.491 19.3839 19.3839 19.491 19.3306 19.6263L18.4884 21.7617C18.3136 22.2049 17.6864 22.2049 17.5116 21.7617L16.6694 19.6263C16.6161 19.491 16.509 19.3839 16.3737 19.3306L14.2383 18.4884C13.7951 18.3136 13.7951 17.6864 14.2383 17.5116L16.3737 16.6694C16.509 16.6161 16.6161 16.509 16.6694 16.3737L17.5116 14.2383Z" stroke="black" stroke-width="1.5"/>
</svg>
