<svg width="24" height="24" viewBox="0 0 24 24" fill="none" xmlns="http://www.w3.org/2000/svg">
<path fill-rule="evenodd" clip-rule="evenodd" d="M11 4C10.4477 4 10 4.44772 10 5V6.25391C10 6.39071 9.88679 6.5 9.75 6.5C9.57947 6.5 9.41024 6.50551 9.24245 6.51635C8.60069 6.55784 8 6.0844 8 5.4413V5C8 3.34315 9.34315 2 11 2H19C20.6569 2 22 3.34315 22 5V13C22 13.7454 21.7281 14.4274 21.2781 14.9521C21.2472 14.9881 21.2011 15.0063 21.1537 15.0039C21.0691 14.9996 21.0004 14.9312 20.9961 14.8466C20.9625 14.1787 20.7104 13.5683 20.3098 13.0856C20.1282 12.8666 20 12.6013 20 12.3169V5C20 4.44772 19.5523 4 19 4H11Z" fill="black"/>
<path fill-rule="evenodd" clip-rule="evenodd" d="M4 15C4 12.2386 6.23858 10 9 10C11.7614 10 14 12.2386 14 15C14 15.0825 14.0813 15.1421 14.1606 15.119C14.2988 15.0788 14.4412 15.0483 14.5869 15.0282C14.8136 14.997 14.997 14.8136 15.0282 14.5869C15.0829 14.1898 15.2153 13.8175 15.4096 13.4859C15.5803 13.1945 15.6717 12.8484 15.5527 12.5324C14.5549 9.884 11.9975 8 9 8C5.13401 8 2 11.134 2 15C2 18.866 5.13401 22 9 22C10.2839 22 11.487 21.6544 12.5214 21.0511C12.942 20.8058 12.919 20.2148 12.6219 19.8291C12.3132 19.4283 11.7034 19.2372 11.2519 19.4654C10.5751 19.8074 9.81007 20 9 20C6.23858 20 4 17.7614 4 15Z" fill="black"/>
<path d="M18 15V21M15 18H21" stroke="black" stroke-width="2" stroke-linecap="round"/>
</svg>
