<svg width="24" height="24" viewBox="0 0 24 24" fill="none" xmlns="http://www.w3.org/2000/svg">
<path d="M9 9C5.68629 9 3 11.6863 3 15C3 18.3137 5.68629 21 9 21C12.3137 21 15 18.3137 15 15C15 11.6863 12.3137 9 9 9Z" stroke="black" stroke-width="2"/>
<path fill-rule="evenodd" clip-rule="evenodd" d="M10 5C10 4.44772 10.4477 4 11 4H19C19.5523 4 20 4.44772 20 5V13C20 13.5523 19.5523 14 19 14H17.7461C17.6093 14 17.5 14.1132 17.5 14.25C17.5 14.6347 17.472 15.0128 17.4178 15.3825C17.3713 15.7006 17.6086 16 17.9301 16H19C20.6569 16 22 14.6569 22 13V5C22 3.34315 20.6569 2 19 2H11C9.34315 2 8 3.34315 8 5V6.06985C8 6.3914 8.29936 6.62873 8.61752 6.58215C8.98718 6.52803 9.36532 6.5 9.75 6.5C9.88679 6.5 10 6.39071 10 6.25391V5Z" fill="black"/>
</svg>
