<svg width="24" height="24" viewBox="0 0 24 24" fill="none" xmlns="http://www.w3.org/2000/svg">
<g clip-path="url(#clip0_1771_9949)">
<path d="M16.5 4.20575C18.146 5.15606 19.4489 6.60305 20.2219 8.33935M16.5 4.20575L16.549 7.12083M16.5 4.20575L19.6651 3.72372" stroke="black" stroke-width="2" stroke-linecap="round" stroke-linejoin="round"/>
<path d="M7.49999 19.7942C5.85401 18.8439 4.55113 17.3969 3.77808 15.6606M7.49999 19.7942L7.45096 16.8792M7.49999 19.7942L4.33494 20.2763" stroke="black" stroke-width="2" stroke-linecap="round" stroke-linejoin="round"/>
<path fill-rule="evenodd" clip-rule="evenodd" d="M7 11C9.20914 11 11 9.20914 11 7C11 4.79086 9.20914 3 7 3C4.79086 3 3 4.79086 3 7C3 9.20914 4.79086 11 7 11ZM7 13C10.3137 13 13 10.3137 13 7C13 3.68629 10.3137 1 7 1C3.68629 1 1 3.68629 1 7C1 10.3137 3.68629 13 7 13Z" fill="black"/>
<path d="M6.908 9.096C6.556 9.096 6.216 9.056 5.888 8.976C5.56 8.896 5.29 8.792 5.078 8.664L5.534 7.632C5.734 7.748 5.956 7.842 6.2 7.914C6.448 7.982 6.688 8.016 6.92 8.016C7.056 8.016 7.162 8.008 7.238 7.992C7.318 7.972 7.376 7.946 7.412 7.914C7.448 7.878 7.466 7.836 7.466 7.788C7.466 7.712 7.424 7.652 7.34 7.608C7.256 7.564 7.144 7.528 7.004 7.5C6.868 7.468 6.718 7.436 6.554 7.404C6.39 7.368 6.224 7.322 6.056 7.266C5.892 7.21 5.74 7.136 5.6 7.044C5.464 6.952 5.354 6.832 5.27 6.684C5.186 6.532 5.144 6.344 5.144 6.12C5.144 5.86 5.216 5.624 5.36 5.412C5.508 5.196 5.726 5.024 6.014 4.896C6.306 4.768 6.668 4.704 7.1 4.704C7.384 4.704 7.664 4.734 7.94 4.794C8.216 4.854 8.464 4.946 8.684 5.07L8.258 6.096C8.05 5.992 7.848 5.914 7.652 5.862C7.46 5.81 7.272 5.784 7.088 5.784C6.952 5.784 6.844 5.796 6.764 5.82C6.684 5.844 6.626 5.876 6.59 5.916C6.558 5.956 6.542 6 6.542 6.048C6.542 6.12 6.584 6.178 6.668 6.222C6.752 6.262 6.862 6.296 6.998 6.324C7.138 6.352 7.29 6.382 7.454 6.414C7.622 6.446 7.788 6.49 7.952 6.546C8.116 6.602 8.266 6.676 8.402 6.768C8.542 6.86 8.654 6.98 8.738 7.128C8.822 7.276 8.864 7.46 8.864 7.68C8.864 7.936 8.79 8.172 8.642 8.388C8.498 8.6 8.282 8.772 7.994 8.904C7.706 9.032 7.344 9.096 6.908 9.096ZM6.62 9.72V8.94H7.466V9.72H6.62ZM6.62 4.86V4.08H7.466V4.86H6.62Z" fill="black"/>
<path fill-rule="evenodd" clip-rule="evenodd" d="M17 21C19.2091 21 21 19.2091 21 17C21 14.7909 19.2091 13 17 13C14.7909 13 13 14.7909 13 17C13 19.2091 14.7909 21 17 21ZM17 23C20.3137 23 23 20.3137 23 17C23 13.6863 20.3137 11 17 11C13.6863 11 11 13.6863 11 17C11 20.3137 13.6863 23 17 23Z" fill="black"/>
<path d="M18.69 18.01V19.036H15.378L15.216 18.412C15.4 18.268 15.538 18.114 15.63 17.95C15.726 17.786 15.784 17.588 15.804 17.356H15.186V16.474H15.648C15.58 16.186 15.546 15.932 15.546 15.712C15.546 15.432 15.61 15.192 15.738 14.992C15.87 14.792 16.05 14.64 16.278 14.536C16.51 14.428 16.776 14.374 17.076 14.374C17.572 14.374 17.956 14.506 18.228 14.77C18.5 15.034 18.65 15.382 18.678 15.814H17.454C17.426 15.574 17.316 15.454 17.124 15.454C16.916 15.454 16.812 15.592 16.812 15.868C16.812 15.936 16.826 16.026 16.854 16.138C16.882 16.246 16.912 16.358 16.944 16.474H17.952V17.356H17.052C16.992 17.64 16.868 17.858 16.68 18.01H18.69Z" fill="black"/>
</g>
<defs>
<clipPath id="clip0_1771_9949">
<rect width="24" height="24" fill="white"/>
</clipPath>
</defs>
</svg>
