<svg width="1919" height="468" viewBox="0 0 1919 468" fill="none" xmlns="http://www.w3.org/2000/svg">
<path d="M72.572 237.795V246.212C72.572 247.213 72.8317 247.966 73.351 248.473C73.883 248.98 74.6177 249.233 75.555 249.233C76.505 249.233 77.2397 248.98 77.759 248.473C78.291 247.966 78.557 247.213 78.557 246.212V237.795H80.723V246.174C80.723 247.251 80.4887 248.163 80.02 248.91C79.5513 249.657 78.9243 250.215 78.139 250.582C77.3537 250.949 76.486 251.133 75.536 251.133C74.586 251.133 73.7183 250.949 72.933 250.582C72.1603 250.215 71.546 249.657 71.09 248.91C70.634 248.163 70.406 247.251 70.406 246.174V237.795H72.572ZM88.8252 240.36C89.6485 240.36 90.3832 240.531 91.0292 240.873C91.6878 241.215 92.2008 241.722 92.5682 242.393C92.9355 243.064 93.1192 243.875 93.1192 244.825V251H90.9722V245.148C90.9722 244.211 90.7378 243.495 90.2692 243.001C89.8005 242.494 89.1608 242.241 88.3502 242.241C87.5395 242.241 86.8935 242.494 86.4122 243.001C85.9435 243.495 85.7092 244.211 85.7092 245.148V251H83.5432V240.531H85.7092V241.728C86.0638 241.297 86.5135 240.962 87.0582 240.721C87.6155 240.48 88.2045 240.36 88.8252 240.36ZM95.16 245.718C95.16 244.667 95.3754 243.736 95.806 242.925C96.2494 242.114 96.8447 241.487 97.592 241.044C98.352 240.588 99.1944 240.36 100.119 240.36C100.803 240.36 101.474 240.512 102.133 240.816C102.804 241.107 103.336 241.5 103.729 241.994V236.94H105.914V251H103.729V249.423C103.374 249.93 102.88 250.348 102.247 250.677C101.626 251.006 100.911 251.171 100.1 251.171C99.188 251.171 98.352 250.943 97.592 250.487C96.8447 250.018 96.2494 249.372 95.806 248.549C95.3754 247.713 95.16 246.769 95.16 245.718ZM103.729 245.756C103.729 245.034 103.577 244.407 103.273 243.875C102.982 243.343 102.595 242.938 102.114 242.659C101.633 242.38 101.113 242.241 100.556 242.241C99.9987 242.241 99.4794 242.38 98.998 242.659C98.5167 242.925 98.124 243.324 97.82 243.856C97.5287 244.375 97.383 244.996 97.383 245.718C97.383 246.44 97.5287 247.073 97.82 247.618C98.124 248.163 98.5167 248.581 98.998 248.872C99.492 249.151 100.011 249.29 100.556 249.29C101.113 249.29 101.633 249.151 102.114 248.872C102.595 248.593 102.982 248.188 103.273 247.656C103.577 247.111 103.729 246.478 103.729 245.756ZM118.354 245.509C118.354 245.902 118.329 246.256 118.278 246.573H110.279C110.342 247.409 110.653 248.08 111.21 248.587C111.767 249.094 112.451 249.347 113.262 249.347C114.427 249.347 115.251 248.859 115.732 247.884H118.069C117.752 248.847 117.176 249.638 116.34 250.259C115.517 250.867 114.491 251.171 113.262 251.171C112.261 251.171 111.362 250.949 110.564 250.506C109.779 250.05 109.158 249.417 108.702 248.606C108.259 247.783 108.037 246.833 108.037 245.756C108.037 244.679 108.252 243.736 108.683 242.925C109.126 242.102 109.741 241.468 110.526 241.025C111.324 240.582 112.236 240.36 113.262 240.36C114.25 240.36 115.13 240.575 115.903 241.006C116.676 241.437 117.277 242.045 117.708 242.83C118.139 243.603 118.354 244.496 118.354 245.509ZM116.093 244.825C116.08 244.027 115.795 243.387 115.238 242.906C114.681 242.425 113.99 242.184 113.167 242.184C112.42 242.184 111.78 242.425 111.248 242.906C110.716 243.375 110.399 244.014 110.298 244.825H116.093ZM122.652 242.051C122.968 241.519 123.386 241.107 123.906 240.816C124.438 240.512 125.065 240.36 125.787 240.36V242.602H125.236C124.387 242.602 123.741 242.817 123.298 243.248C122.867 243.679 122.652 244.426 122.652 245.49V251H120.486V240.531H122.652V242.051ZM131.578 251.171C130.754 251.171 130.013 251.025 129.355 250.734C128.709 250.43 128.196 250.025 127.816 249.518C127.436 248.999 127.233 248.422 127.208 247.789H129.45C129.488 248.232 129.697 248.606 130.077 248.91C130.469 249.201 130.957 249.347 131.54 249.347C132.148 249.347 132.616 249.233 132.946 249.005C133.288 248.764 133.459 248.46 133.459 248.093C133.459 247.7 133.269 247.409 132.889 247.219C132.521 247.029 131.932 246.82 131.122 246.592C130.336 246.377 129.697 246.168 129.203 245.965C128.709 245.762 128.278 245.452 127.911 245.034C127.556 244.616 127.379 244.065 127.379 243.381C127.379 242.824 127.543 242.317 127.873 241.861C128.202 241.392 128.671 241.025 129.279 240.759C129.899 240.493 130.609 240.36 131.407 240.36C132.597 240.36 133.554 240.664 134.276 241.272C135.01 241.867 135.403 242.684 135.454 243.723H133.288C133.25 243.254 133.06 242.881 132.718 242.602C132.376 242.323 131.913 242.184 131.331 242.184C130.761 242.184 130.324 242.292 130.02 242.507C129.716 242.722 129.564 243.007 129.564 243.362C129.564 243.641 129.665 243.875 129.868 244.065C130.07 244.255 130.317 244.407 130.609 244.521C130.9 244.622 131.331 244.755 131.901 244.92C132.661 245.123 133.281 245.332 133.763 245.547C134.257 245.75 134.681 246.054 135.036 246.459C135.39 246.864 135.574 247.403 135.587 248.074C135.587 248.669 135.422 249.201 135.093 249.67C134.763 250.139 134.295 250.506 133.687 250.772C133.091 251.038 132.388 251.171 131.578 251.171ZM140.454 242.298V248.093C140.454 248.486 140.543 248.771 140.72 248.948C140.91 249.113 141.227 249.195 141.67 249.195H143V251H141.29C140.315 251 139.567 250.772 139.048 250.316C138.529 249.86 138.269 249.119 138.269 248.093V242.298H137.034V240.531H138.269V237.928H140.454V240.531H143V242.298H140.454ZM144.274 245.718C144.274 244.667 144.49 243.736 144.92 242.925C145.364 242.114 145.959 241.487 146.706 241.044C147.466 240.588 148.302 240.36 149.214 240.36C150.038 240.36 150.753 240.525 151.361 240.854C151.982 241.171 152.476 241.57 152.843 242.051V240.531H155.028V251H152.843V249.442C152.476 249.936 151.976 250.348 151.342 250.677C150.709 251.006 149.987 251.171 149.176 251.171C148.277 251.171 147.454 250.943 146.706 250.487C145.959 250.018 145.364 249.372 144.92 248.549C144.49 247.713 144.274 246.769 144.274 245.718ZM152.843 245.756C152.843 245.034 152.691 244.407 152.387 243.875C152.096 243.343 151.71 242.938 151.228 242.659C150.747 242.38 150.228 242.241 149.67 242.241C149.113 242.241 148.594 242.38 148.112 242.659C147.631 242.925 147.238 243.324 146.934 243.856C146.643 244.375 146.497 244.996 146.497 245.718C146.497 246.44 146.643 247.073 146.934 247.618C147.238 248.163 147.631 248.581 148.112 248.872C148.606 249.151 149.126 249.29 149.67 249.29C150.228 249.29 150.747 249.151 151.228 248.872C151.71 248.593 152.096 248.188 152.387 247.656C152.691 247.111 152.843 246.478 152.843 245.756ZM163.155 240.36C163.979 240.36 164.713 240.531 165.359 240.873C166.018 241.215 166.531 241.722 166.898 242.393C167.266 243.064 167.449 243.875 167.449 244.825V251H165.302V245.148C165.302 244.211 165.068 243.495 164.599 243.001C164.131 242.494 163.491 242.241 162.68 242.241C161.87 242.241 161.224 242.494 160.742 243.001C160.274 243.495 160.039 244.211 160.039 245.148V251H157.873V240.531H160.039V241.728C160.394 241.297 160.844 240.962 161.388 240.721C161.946 240.48 162.535 240.36 163.155 240.36ZM169.49 245.718C169.49 244.667 169.705 243.736 170.136 242.925C170.579 242.114 171.175 241.487 171.922 241.044C172.682 240.588 173.524 240.36 174.449 240.36C175.133 240.36 175.804 240.512 176.463 240.816C177.134 241.107 177.666 241.5 178.059 241.994V236.94H180.244V251H178.059V249.423C177.704 249.93 177.21 250.348 176.577 250.677C175.956 251.006 175.241 251.171 174.43 251.171C173.518 251.171 172.682 250.943 171.922 250.487C171.175 250.018 170.579 249.372 170.136 248.549C169.705 247.713 169.49 246.769 169.49 245.718ZM178.059 245.756C178.059 245.034 177.907 244.407 177.603 243.875C177.312 243.343 176.925 242.938 176.444 242.659C175.963 242.38 175.443 242.241 174.886 242.241C174.329 242.241 173.809 242.38 173.328 242.659C172.847 242.925 172.454 243.324 172.15 243.856C171.859 244.375 171.713 244.996 171.713 245.718C171.713 246.44 171.859 247.073 172.15 247.618C172.454 248.163 172.847 248.581 173.328 248.872C173.822 249.151 174.341 249.29 174.886 249.29C175.443 249.29 175.963 249.151 176.444 248.872C176.925 248.593 177.312 248.188 177.603 247.656C177.907 247.111 178.059 246.478 178.059 245.756Z" fill="#444444"/>
<rect x="10" y="208" width="231" height="73" rx="22" stroke="#444444" stroke-width="4"/>
<path d="M267 244.5H317.5M317.5 244.5L309.526 236.526M317.5 244.5L309.526 252.474" stroke="#444444" stroke-width="4" stroke-linecap="round" stroke-linejoin="round"/>
<rect x="341.5" y="206" width="235" height="77" rx="24" fill="#688CD0"/>
<path d="M431.971 237.738V251H429.311V237.738H431.971ZM433.915 245.699C433.915 244.635 434.124 243.691 434.542 242.868C434.973 242.045 435.555 241.411 436.29 240.968C437.025 240.525 437.842 240.303 438.741 240.303C439.425 240.303 440.077 240.455 440.698 240.759C441.319 241.05 441.813 241.443 442.18 241.937V236.94H444.878V251H442.18V249.442C441.851 249.961 441.388 250.379 440.793 250.696C440.198 251.013 439.507 251.171 438.722 251.171C437.835 251.171 437.025 250.943 436.29 250.487C435.555 250.031 434.973 249.391 434.542 248.568C434.124 247.732 433.915 246.776 433.915 245.699ZM442.199 245.737C442.199 245.091 442.072 244.54 441.819 244.084C441.566 243.615 441.224 243.261 440.793 243.02C440.362 242.767 439.9 242.64 439.406 242.64C438.912 242.64 438.456 242.76 438.038 243.001C437.62 243.242 437.278 243.596 437.012 244.065C436.759 244.521 436.632 245.066 436.632 245.699C436.632 246.332 436.759 246.89 437.012 247.371C437.278 247.84 437.62 248.201 438.038 248.454C438.469 248.707 438.925 248.834 439.406 248.834C439.9 248.834 440.362 248.714 440.793 248.473C441.224 248.22 441.566 247.865 441.819 247.409C442.072 246.94 442.199 246.383 442.199 245.737ZM457.261 245.509C457.261 245.889 457.236 246.231 457.185 246.535H449.49C449.553 247.295 449.819 247.89 450.288 248.321C450.757 248.752 451.333 248.967 452.017 248.967C453.005 248.967 453.708 248.543 454.126 247.694H456.995C456.691 248.707 456.108 249.543 455.247 250.202C454.386 250.848 453.328 251.171 452.074 251.171C451.061 251.171 450.149 250.949 449.338 250.506C448.54 250.05 447.913 249.41 447.457 248.587C447.014 247.764 446.792 246.814 446.792 245.737C446.792 244.648 447.014 243.691 447.457 242.868C447.9 242.045 448.521 241.411 449.319 240.968C450.117 240.525 451.035 240.303 452.074 240.303C453.075 240.303 453.968 240.518 454.753 240.949C455.551 241.38 456.165 241.994 456.596 242.792C457.039 243.577 457.261 244.483 457.261 245.509ZM454.506 244.749C454.493 244.065 454.246 243.52 453.765 243.115C453.284 242.697 452.695 242.488 451.998 242.488C451.339 242.488 450.782 242.691 450.326 243.096C449.883 243.489 449.61 244.04 449.509 244.749H454.506ZM458.519 245.699C458.519 244.635 458.728 243.691 459.146 242.868C459.576 242.045 460.153 241.411 460.875 240.968C461.609 240.525 462.426 240.303 463.326 240.303C464.111 240.303 464.795 240.461 465.378 240.778C465.973 241.095 466.448 241.494 466.803 241.975V240.474H469.482V251H466.803V249.461C466.461 249.955 465.986 250.367 465.378 250.696C464.782 251.013 464.092 251.171 463.307 251.171C462.42 251.171 461.609 250.943 460.875 250.487C460.153 250.031 459.576 249.391 459.146 248.568C458.728 247.732 458.519 246.776 458.519 245.699ZM466.803 245.737C466.803 245.091 466.676 244.54 466.423 244.084C466.169 243.615 465.827 243.261 465.397 243.02C464.966 242.767 464.504 242.64 464.01 242.64C463.516 242.64 463.06 242.76 462.642 243.001C462.224 243.242 461.882 243.596 461.616 244.065C461.362 244.521 461.236 245.066 461.236 245.699C461.236 246.332 461.362 246.89 461.616 247.371C461.882 247.84 462.224 248.201 462.642 248.454C463.072 248.707 463.528 248.834 464.01 248.834C464.504 248.834 464.966 248.714 465.397 248.473C465.827 248.22 466.169 247.865 466.423 247.409C466.676 246.94 466.803 246.383 466.803 245.737ZM475.177 242.659V247.751C475.177 248.106 475.259 248.365 475.424 248.53C475.601 248.682 475.892 248.758 476.298 248.758H477.533V251H475.861C473.619 251 472.498 249.911 472.498 247.732V242.659H471.244V240.474H472.498V237.871H475.177V240.474H477.533V242.659H475.177ZM489.231 245.509C489.231 245.889 489.205 246.231 489.155 246.535H481.46C481.523 247.295 481.789 247.89 482.258 248.321C482.726 248.752 483.303 248.967 483.987 248.967C484.975 248.967 485.678 248.543 486.096 247.694H488.965C488.661 248.707 488.078 249.543 487.217 250.202C486.355 250.848 485.298 251.171 484.044 251.171C483.03 251.171 482.118 250.949 481.308 250.506C480.51 250.05 479.883 249.41 479.427 248.587C478.983 247.764 478.762 246.814 478.762 245.737C478.762 244.648 478.983 243.691 479.427 242.868C479.87 242.045 480.491 241.411 481.289 240.968C482.087 240.525 483.005 240.303 484.044 240.303C485.044 240.303 485.937 240.518 486.723 240.949C487.521 241.38 488.135 241.994 488.566 242.792C489.009 243.577 489.231 244.483 489.231 245.509ZM486.476 244.749C486.463 244.065 486.216 243.52 485.735 243.115C485.253 242.697 484.664 242.488 483.968 242.488C483.309 242.488 482.752 242.691 482.296 243.096C481.852 243.489 481.58 244.04 481.479 244.749H486.476Z" fill="white"/>
<path d="M600.5 244.5H651M651 244.5L643.026 236.526M651 244.5L643.026 252.474" stroke="#444444" stroke-width="4" stroke-linecap="round" stroke-linejoin="round"/>
<rect x="675" y="206" width="235" height="77" rx="24" fill="#688CD0"/>
<path d="M755.982 241.842C755.982 242.551 755.811 243.216 755.469 243.837C755.14 244.458 754.614 244.958 753.892 245.338C753.183 245.718 752.283 245.908 751.194 245.908H748.971V251H746.311V237.738H751.194C752.22 237.738 753.094 237.915 753.816 238.27C754.538 238.625 755.076 239.112 755.431 239.733C755.798 240.354 755.982 241.057 755.982 241.842ZM751.08 243.761C751.815 243.761 752.359 243.596 752.714 243.267C753.069 242.925 753.246 242.45 753.246 241.842C753.246 240.55 752.524 239.904 751.08 239.904H748.971V243.761H751.08ZM760.531 242.108C760.873 241.551 761.316 241.114 761.861 240.797C762.418 240.48 763.051 240.322 763.761 240.322V243.115H763.058C762.222 243.115 761.588 243.311 761.158 243.704C760.74 244.097 760.531 244.781 760.531 245.756V251H757.871V240.474H760.531V242.108ZM770.226 251.171C769.213 251.171 768.301 250.949 767.49 250.506C766.68 250.05 766.04 249.41 765.571 248.587C765.115 247.764 764.887 246.814 764.887 245.737C764.887 244.66 765.122 243.71 765.59 242.887C766.072 242.064 766.724 241.43 767.547 240.987C768.371 240.531 769.289 240.303 770.302 240.303C771.316 240.303 772.234 240.531 773.057 240.987C773.881 241.43 774.527 242.064 774.995 242.887C775.477 243.71 775.717 244.66 775.717 245.737C775.717 246.814 775.47 247.764 774.976 248.587C774.495 249.41 773.836 250.05 773 250.506C772.177 250.949 771.252 251.171 770.226 251.171ZM770.226 248.853C770.708 248.853 771.157 248.739 771.575 248.511C772.006 248.27 772.348 247.916 772.601 247.447C772.855 246.978 772.981 246.408 772.981 245.737C772.981 244.736 772.715 243.97 772.183 243.438C771.664 242.893 771.024 242.621 770.264 242.621C769.504 242.621 768.865 242.893 768.345 243.438C767.839 243.97 767.585 244.736 767.585 245.737C767.585 246.738 767.832 247.51 768.326 248.055C768.833 248.587 769.466 248.853 770.226 248.853ZM780.765 242.659V247.751C780.765 248.106 780.848 248.365 781.012 248.53C781.19 248.682 781.481 248.758 781.886 248.758H783.121V251H781.449C779.207 251 778.086 249.911 778.086 247.732V242.659H776.832V240.474H778.086V237.871H780.765V240.474H783.121V242.659H780.765ZM789.709 251.171C788.695 251.171 787.783 250.949 786.973 250.506C786.162 250.05 785.522 249.41 785.054 248.587C784.598 247.764 784.37 246.814 784.37 245.737C784.37 244.66 784.604 243.71 785.073 242.887C785.554 242.064 786.206 241.43 787.03 240.987C787.853 240.531 788.771 240.303 789.785 240.303C790.798 240.303 791.716 240.531 792.54 240.987C793.363 241.43 794.009 242.064 794.478 242.887C794.959 243.71 795.2 244.66 795.2 245.737C795.2 246.814 794.953 247.764 794.459 248.587C793.977 249.41 793.319 250.05 792.483 250.506C791.659 250.949 790.735 251.171 789.709 251.171ZM789.709 248.853C790.19 248.853 790.64 248.739 791.058 248.511C791.488 248.27 791.83 247.916 792.084 247.447C792.337 246.978 792.464 246.408 792.464 245.737C792.464 244.736 792.198 243.97 791.666 243.438C791.146 242.893 790.507 242.621 789.747 242.621C788.987 242.621 788.347 242.893 787.828 243.438C787.321 243.97 787.068 244.736 787.068 245.737C787.068 246.738 787.315 247.51 787.809 248.055C788.315 248.587 788.949 248.853 789.709 248.853ZM800.248 242.659V247.751C800.248 248.106 800.33 248.365 800.495 248.53C800.672 248.682 800.964 248.758 801.369 248.758H802.604V251H800.932C798.69 251 797.569 249.911 797.569 247.732V242.659H796.315V240.474H797.569V237.871H800.248V240.474H802.604V242.659H800.248ZM814.587 240.474L808.07 255.978H805.239L807.519 250.734L803.301 240.474H806.284L809.001 247.827L811.756 240.474H814.587ZM818.681 241.994C819.023 241.513 819.492 241.114 820.087 240.797C820.695 240.468 821.385 240.303 822.158 240.303C823.057 240.303 823.868 240.525 824.59 240.968C825.325 241.411 825.901 242.045 826.319 242.868C826.75 243.679 826.965 244.622 826.965 245.699C826.965 246.776 826.75 247.732 826.319 248.568C825.901 249.391 825.325 250.031 824.59 250.487C823.868 250.943 823.057 251.171 822.158 251.171C821.385 251.171 820.701 251.013 820.106 250.696C819.523 250.379 819.048 249.98 818.681 249.499V256.016H816.021V240.474H818.681V241.994ZM824.248 245.699C824.248 245.066 824.115 244.521 823.849 244.065C823.596 243.596 823.254 243.242 822.823 243.001C822.405 242.76 821.949 242.64 821.455 242.64C820.974 242.64 820.518 242.767 820.087 243.02C819.669 243.261 819.327 243.615 819.061 244.084C818.808 244.553 818.681 245.104 818.681 245.737C818.681 246.37 818.808 246.921 819.061 247.39C819.327 247.859 819.669 248.22 820.087 248.473C820.518 248.714 820.974 248.834 821.455 248.834C821.949 248.834 822.405 248.707 822.823 248.454C823.254 248.201 823.596 247.84 823.849 247.371C824.115 246.902 824.248 246.345 824.248 245.699ZM838.683 245.509C838.683 245.889 838.658 246.231 838.607 246.535H830.912C830.975 247.295 831.241 247.89 831.71 248.321C832.179 248.752 832.755 248.967 833.439 248.967C834.427 248.967 835.13 248.543 835.548 247.694H838.417C838.113 248.707 837.53 249.543 836.669 250.202C835.808 250.848 834.75 251.171 833.496 251.171C832.483 251.171 831.571 250.949 830.76 250.506C829.962 250.05 829.335 249.41 828.879 248.587C828.436 247.764 828.214 246.814 828.214 245.737C828.214 244.648 828.436 243.691 828.879 242.868C829.322 242.045 829.943 241.411 830.741 240.968C831.539 240.525 832.457 240.303 833.496 240.303C834.497 240.303 835.39 240.518 836.175 240.949C836.973 241.38 837.587 241.994 838.018 242.792C838.461 243.577 838.683 244.483 838.683 245.509ZM835.928 244.749C835.915 244.065 835.668 243.52 835.187 243.115C834.706 242.697 834.117 242.488 833.42 242.488C832.761 242.488 832.204 242.691 831.748 243.096C831.305 243.489 831.032 244.04 830.931 244.749H835.928Z" fill="white"/>
<path d="M934 244.5H984.5M984.5 244.5L976.526 236.526M984.5 244.5L976.526 252.474" stroke="#444444" stroke-width="4" stroke-linecap="round" stroke-linejoin="round"/>
<rect x="1008.5" y="206" width="235" height="77" rx="24" fill="#688CD0"/>
<path d="M1070.43 237.738V245.946C1070.43 246.845 1070.67 247.536 1071.14 248.017C1071.6 248.486 1072.26 248.72 1073.11 248.72C1073.97 248.72 1074.64 248.486 1075.11 248.017C1075.58 247.536 1075.81 246.845 1075.81 245.946V237.738H1078.49V245.927C1078.49 247.054 1078.24 248.011 1077.75 248.796C1077.27 249.569 1076.61 250.151 1075.79 250.544C1074.98 250.937 1074.07 251.133 1073.07 251.133C1072.09 251.133 1071.19 250.937 1070.38 250.544C1069.58 250.151 1068.94 249.569 1068.48 248.796C1068.01 248.011 1067.77 247.054 1067.77 245.927V237.738H1070.43ZM1085.09 251.171C1084.23 251.171 1083.45 251.019 1082.77 250.715C1082.09 250.398 1081.54 249.974 1081.14 249.442C1080.74 248.91 1080.53 248.321 1080.49 247.675H1083.17C1083.22 248.08 1083.42 248.416 1083.76 248.682C1084.11 248.948 1084.55 249.081 1085.07 249.081C1085.57 249.081 1085.97 248.98 1086.25 248.777C1086.54 248.574 1086.68 248.315 1086.68 247.998C1086.68 247.656 1086.51 247.403 1086.15 247.238C1085.81 247.061 1085.26 246.871 1084.5 246.668C1083.71 246.478 1083.07 246.282 1082.56 246.079C1082.07 245.876 1081.64 245.566 1081.27 245.148C1080.91 244.73 1080.74 244.166 1080.74 243.457C1080.74 242.874 1080.9 242.342 1081.23 241.861C1081.57 241.38 1082.05 241 1082.67 240.721C1083.31 240.442 1084.05 240.303 1084.9 240.303C1086.15 240.303 1087.15 240.62 1087.9 241.253C1088.65 241.874 1089.06 242.716 1089.13 243.78H1086.59C1086.55 243.362 1086.37 243.033 1086.06 242.792C1085.75 242.539 1085.34 242.412 1084.82 242.412C1084.34 242.412 1083.97 242.501 1083.7 242.678C1083.45 242.855 1083.32 243.102 1083.32 243.419C1083.32 243.774 1083.5 244.046 1083.85 244.236C1084.21 244.413 1084.76 244.597 1085.51 244.787C1086.27 244.977 1086.89 245.173 1087.39 245.376C1087.88 245.579 1088.3 245.895 1088.66 246.326C1089.03 246.744 1089.22 247.301 1089.23 247.998C1089.23 248.606 1089.06 249.151 1088.72 249.632C1088.39 250.113 1087.91 250.493 1087.27 250.772C1086.65 251.038 1085.92 251.171 1085.09 251.171ZM1101.2 245.509C1101.2 245.889 1101.17 246.231 1101.12 246.535H1093.43C1093.49 247.295 1093.76 247.89 1094.22 248.321C1094.69 248.752 1095.27 248.967 1095.95 248.967C1096.94 248.967 1097.64 248.543 1098.06 247.694H1100.93C1100.63 248.707 1100.04 249.543 1099.18 250.202C1098.32 250.848 1097.26 251.171 1096.01 251.171C1095 251.171 1094.09 250.949 1093.27 250.506C1092.48 250.05 1091.85 249.41 1091.39 248.587C1090.95 247.764 1090.73 246.814 1090.73 245.737C1090.73 244.648 1090.95 243.691 1091.39 242.868C1091.84 242.045 1092.46 241.411 1093.26 240.968C1094.05 240.525 1094.97 240.303 1096.01 240.303C1097.01 240.303 1097.9 240.518 1098.69 240.949C1099.49 241.38 1100.1 241.994 1100.53 242.792C1100.98 243.577 1101.2 244.483 1101.2 245.509ZM1098.44 244.749C1098.43 244.065 1098.18 243.52 1097.7 243.115C1097.22 242.697 1096.63 242.488 1095.93 242.488C1095.28 242.488 1094.72 242.691 1094.26 243.096C1093.82 243.489 1093.55 244.04 1093.45 244.749H1098.44ZM1105.8 242.108C1106.14 241.551 1106.58 241.114 1107.13 240.797C1107.69 240.48 1108.32 240.322 1109.03 240.322V243.115H1108.33C1107.49 243.115 1106.86 243.311 1106.43 243.704C1106.01 244.097 1105.8 244.781 1105.8 245.756V251H1103.14V240.474H1105.8V242.108ZM1124.37 237.738V239.885H1120.84V251H1118.18V239.885H1114.65V237.738H1124.37ZM1136.1 245.509C1136.1 245.889 1136.07 246.231 1136.02 246.535H1128.33C1128.39 247.295 1128.66 247.89 1129.13 248.321C1129.59 248.752 1130.17 248.967 1130.85 248.967C1131.84 248.967 1132.55 248.543 1132.96 247.694H1135.83C1135.53 248.707 1134.95 249.543 1134.08 250.202C1133.22 250.848 1132.17 251.171 1130.91 251.171C1129.9 251.171 1128.99 250.949 1128.18 250.506C1127.38 250.05 1126.75 249.41 1126.29 248.587C1125.85 247.764 1125.63 246.814 1125.63 245.737C1125.63 244.648 1125.85 243.691 1126.29 242.868C1126.74 242.045 1127.36 241.411 1128.16 240.968C1128.95 240.525 1129.87 240.303 1130.91 240.303C1131.91 240.303 1132.81 240.518 1133.59 240.949C1134.39 241.38 1135 241.994 1135.43 242.792C1135.88 243.577 1136.1 244.483 1136.1 245.509ZM1133.34 244.749C1133.33 244.065 1133.08 243.52 1132.6 243.115C1132.12 242.697 1131.53 242.488 1130.84 242.488C1130.18 242.488 1129.62 242.691 1129.16 243.096C1128.72 243.489 1128.45 244.04 1128.35 244.749H1133.34ZM1142.07 251.171C1141.21 251.171 1140.43 251.019 1139.75 250.715C1139.07 250.398 1138.52 249.974 1138.12 249.442C1137.72 248.91 1137.51 248.321 1137.47 247.675H1140.15C1140.2 248.08 1140.4 248.416 1140.74 248.682C1141.09 248.948 1141.53 249.081 1142.05 249.081C1142.56 249.081 1142.95 248.98 1143.23 248.777C1143.52 248.574 1143.66 248.315 1143.66 247.998C1143.66 247.656 1143.49 247.403 1143.13 247.238C1142.79 247.061 1142.24 246.871 1141.48 246.668C1140.69 246.478 1140.05 246.282 1139.54 246.079C1139.05 245.876 1138.62 245.566 1138.25 245.148C1137.89 244.73 1137.72 244.166 1137.72 243.457C1137.72 242.874 1137.88 242.342 1138.21 241.861C1138.55 241.38 1139.03 241 1139.66 240.721C1140.29 240.442 1141.03 240.303 1141.88 240.303C1143.13 240.303 1144.13 240.62 1144.88 241.253C1145.63 241.874 1146.04 242.716 1146.12 243.78H1143.57C1143.53 243.362 1143.35 243.033 1143.04 242.792C1142.73 242.539 1142.32 242.412 1141.8 242.412C1141.32 242.412 1140.95 242.501 1140.68 242.678C1140.43 242.855 1140.3 243.102 1140.3 243.419C1140.3 243.774 1140.48 244.046 1140.83 244.236C1141.19 244.413 1141.74 244.597 1142.49 244.787C1143.25 244.977 1143.87 245.173 1144.37 245.376C1144.86 245.579 1145.29 245.895 1145.64 246.326C1146.01 246.744 1146.2 247.301 1146.21 247.998C1146.21 248.606 1146.04 249.151 1145.7 249.632C1145.37 250.113 1144.89 250.493 1144.25 250.772C1143.63 251.038 1142.9 251.171 1142.07 251.171ZM1151.49 242.659V247.751C1151.49 248.106 1151.57 248.365 1151.74 248.53C1151.92 248.682 1152.21 248.758 1152.61 248.758H1153.85V251H1152.18C1149.93 251 1148.81 249.911 1148.81 247.732V242.659H1147.56V240.474H1148.81V237.871H1151.49V240.474H1153.85V242.659H1151.49ZM1157.11 239.22C1156.64 239.22 1156.25 239.074 1155.93 238.783C1155.63 238.479 1155.48 238.105 1155.48 237.662C1155.48 237.219 1155.63 236.851 1155.93 236.56C1156.25 236.256 1156.64 236.104 1157.11 236.104C1157.58 236.104 1157.96 236.256 1158.27 236.56C1158.58 236.851 1158.74 237.219 1158.74 237.662C1158.74 238.105 1158.58 238.479 1158.27 238.783C1157.96 239.074 1157.58 239.22 1157.11 239.22ZM1158.42 240.474V251H1155.76V240.474H1158.42ZM1166.88 240.322C1168.14 240.322 1169.15 240.721 1169.92 241.519C1170.69 242.304 1171.08 243.406 1171.08 244.825V251H1168.42V245.186C1168.42 244.35 1168.21 243.71 1167.79 243.267C1167.38 242.811 1166.81 242.583 1166.08 242.583C1165.35 242.583 1164.77 242.811 1164.34 243.267C1163.92 243.71 1163.71 244.35 1163.71 245.186V251H1161.05V240.474H1163.71V241.785C1164.06 241.329 1164.51 240.974 1165.06 240.721C1165.61 240.455 1166.22 240.322 1166.88 240.322ZM1177.73 240.303C1178.52 240.303 1179.21 240.461 1179.8 240.778C1180.4 241.082 1180.87 241.481 1181.21 241.975V240.474H1183.89V251.076C1183.89 252.051 1183.69 252.919 1183.3 253.679C1182.91 254.452 1182.32 255.06 1181.53 255.503C1180.75 255.959 1179.8 256.187 1178.68 256.187C1177.19 256.187 1175.96 255.839 1175 255.142C1174.05 254.445 1173.51 253.495 1173.38 252.292H1176.02C1176.16 252.773 1176.46 253.153 1176.92 253.432C1177.38 253.723 1177.95 253.869 1178.61 253.869C1179.38 253.869 1180.01 253.635 1180.49 253.166C1180.97 252.71 1181.21 252.013 1181.21 251.076V249.442C1180.87 249.936 1180.39 250.348 1179.78 250.677C1179.19 251.006 1178.51 251.171 1177.73 251.171C1176.85 251.171 1176.04 250.943 1175.3 250.487C1174.57 250.031 1173.98 249.391 1173.55 248.568C1173.13 247.732 1172.93 246.776 1172.93 245.699C1172.93 244.635 1173.13 243.691 1173.55 242.868C1173.98 242.045 1174.56 241.411 1175.28 240.968C1176.02 240.525 1176.83 240.303 1177.73 240.303ZM1181.21 245.737C1181.21 245.091 1181.08 244.54 1180.83 244.084C1180.58 243.615 1180.23 243.261 1179.8 243.02C1179.37 242.767 1178.91 242.64 1178.42 242.64C1177.92 242.64 1177.47 242.76 1177.05 243.001C1176.63 243.242 1176.29 243.596 1176.02 244.065C1175.77 244.521 1175.64 245.066 1175.64 245.699C1175.64 246.332 1175.77 246.89 1176.02 247.371C1176.29 247.84 1176.63 248.201 1177.05 248.454C1177.48 248.707 1177.94 248.834 1178.42 248.834C1178.91 248.834 1179.37 248.714 1179.8 248.473C1180.23 248.22 1180.58 247.865 1180.83 247.409C1181.08 246.94 1181.21 246.383 1181.21 245.737Z" fill="white"/>
<path d="M1267.5 244.5H1318M1318 244.5L1310.03 236.526M1318 244.5L1310.03 252.474" stroke="#444444" stroke-width="4" stroke-linecap="round" stroke-linejoin="round"/>
<path d="M1409.16 241.728C1409.16 242.399 1409 243.033 1408.68 243.628C1408.37 244.223 1407.86 244.711 1407.16 245.091C1406.47 245.458 1405.57 245.642 1404.49 245.642H1402.09V251H1399.93V237.795H1404.49C1405.5 237.795 1406.35 237.972 1407.05 238.327C1407.76 238.669 1408.29 239.138 1408.63 239.733C1408.98 240.328 1409.16 240.993 1409.16 241.728ZM1404.49 243.875C1405.31 243.875 1405.92 243.691 1406.33 243.324C1406.73 242.944 1406.94 242.412 1406.94 241.728C1406.94 240.284 1406.12 239.562 1404.49 239.562H1402.09V243.875H1404.49ZM1413.39 242.051C1413.71 241.519 1414.13 241.107 1414.64 240.816C1415.18 240.512 1415.8 240.36 1416.53 240.36V242.602H1415.97C1415.13 242.602 1414.48 242.817 1414.04 243.248C1413.61 243.679 1413.39 244.426 1413.39 245.49V251H1411.22V240.531H1413.39V242.051ZM1428.11 245.509C1428.11 245.902 1428.09 246.256 1428.04 246.573H1420.04C1420.1 247.409 1420.41 248.08 1420.97 248.587C1421.53 249.094 1422.21 249.347 1423.02 249.347C1424.19 249.347 1425.01 248.859 1425.49 247.884H1427.83C1427.51 248.847 1426.93 249.638 1426.1 250.259C1425.27 250.867 1424.25 251.171 1423.02 251.171C1422.02 251.171 1421.12 250.949 1420.32 250.506C1419.54 250.05 1418.92 249.417 1418.46 248.606C1418.02 247.783 1417.79 246.833 1417.79 245.756C1417.79 244.679 1418.01 243.736 1418.44 242.925C1418.88 242.102 1419.5 241.468 1420.28 241.025C1421.08 240.582 1421.99 240.36 1423.02 240.36C1424.01 240.36 1424.89 240.575 1425.66 241.006C1426.43 241.437 1427.04 242.045 1427.47 242.83C1427.9 243.603 1428.11 244.496 1428.11 245.509ZM1425.85 244.825C1425.84 244.027 1425.55 243.387 1425 242.906C1424.44 242.425 1423.75 242.184 1422.92 242.184C1422.18 242.184 1421.54 242.425 1421.01 242.906C1420.47 243.375 1420.16 244.014 1420.06 244.825H1425.85ZM1434.04 251.171C1433.22 251.171 1432.48 251.025 1431.82 250.734C1431.17 250.43 1430.66 250.025 1430.28 249.518C1429.9 248.999 1429.7 248.422 1429.67 247.789H1431.92C1431.95 248.232 1432.16 248.606 1432.54 248.91C1432.94 249.201 1433.42 249.347 1434.01 249.347C1434.61 249.347 1435.08 249.233 1435.41 249.005C1435.75 248.764 1435.92 248.46 1435.92 248.093C1435.92 247.7 1435.73 247.409 1435.35 247.219C1434.99 247.029 1434.4 246.82 1433.59 246.592C1432.8 246.377 1432.16 246.168 1431.67 245.965C1431.17 245.762 1430.74 245.452 1430.38 245.034C1430.02 244.616 1429.84 244.065 1429.84 243.381C1429.84 242.824 1430.01 242.317 1430.34 241.861C1430.67 241.392 1431.14 241.025 1431.74 240.759C1432.37 240.493 1433.07 240.36 1433.87 240.36C1435.06 240.36 1436.02 240.664 1436.74 241.272C1437.48 241.867 1437.87 242.684 1437.92 243.723H1435.75C1435.72 243.254 1435.53 242.881 1435.18 242.602C1434.84 242.323 1434.38 242.184 1433.8 242.184C1433.23 242.184 1432.79 242.292 1432.49 242.507C1432.18 242.722 1432.03 243.007 1432.03 243.362C1432.03 243.641 1432.13 243.875 1432.33 244.065C1432.54 244.255 1432.78 244.407 1433.07 244.521C1433.37 244.622 1433.8 244.755 1434.37 244.92C1435.13 245.123 1435.75 245.332 1436.23 245.547C1436.72 245.75 1437.15 246.054 1437.5 246.459C1437.86 246.864 1438.04 247.403 1438.05 248.074C1438.05 248.669 1437.89 249.201 1437.56 249.67C1437.23 250.139 1436.76 250.506 1436.15 250.772C1435.56 251.038 1434.85 251.171 1434.04 251.171ZM1449.99 245.509C1449.99 245.902 1449.96 246.256 1449.91 246.573H1441.91C1441.98 247.409 1442.29 248.08 1442.84 248.587C1443.4 249.094 1444.09 249.347 1444.9 249.347C1446.06 249.347 1446.88 248.859 1447.37 247.884H1449.7C1449.39 248.847 1448.81 249.638 1447.97 250.259C1447.15 250.867 1446.12 251.171 1444.9 251.171C1443.9 251.171 1443 250.949 1442.2 250.506C1441.41 250.05 1440.79 249.417 1440.34 248.606C1439.89 247.783 1439.67 246.833 1439.67 245.756C1439.67 244.679 1439.89 243.736 1440.32 242.925C1440.76 242.102 1441.37 241.468 1442.16 241.025C1442.96 240.582 1443.87 240.36 1444.9 240.36C1445.88 240.36 1446.76 240.575 1447.54 241.006C1448.31 241.437 1448.91 242.045 1449.34 242.83C1449.77 243.603 1449.99 244.496 1449.99 245.509ZM1447.73 244.825C1447.71 244.027 1447.43 243.387 1446.87 242.906C1446.31 242.425 1445.62 242.184 1444.8 242.184C1444.05 242.184 1443.41 242.425 1442.88 242.906C1442.35 243.375 1442.03 244.014 1441.93 244.825H1447.73ZM1457.4 240.36C1458.22 240.36 1458.96 240.531 1459.61 240.873C1460.26 241.215 1460.78 241.722 1461.14 242.393C1461.51 243.064 1461.7 243.875 1461.7 244.825V251H1459.55V245.148C1459.55 244.211 1459.31 243.495 1458.85 243.001C1458.38 242.494 1457.74 242.241 1456.93 242.241C1456.12 242.241 1455.47 242.494 1454.99 243.001C1454.52 243.495 1454.29 244.211 1454.29 245.148V251H1452.12V240.531H1454.29V241.728C1454.64 241.297 1455.09 240.962 1455.63 240.721C1456.19 240.48 1456.78 240.36 1457.4 240.36ZM1466.99 242.298V248.093C1466.99 248.486 1467.07 248.771 1467.25 248.948C1467.44 249.113 1467.76 249.195 1468.2 249.195H1469.53V251H1467.82C1466.85 251 1466.1 250.772 1465.58 250.316C1465.06 249.86 1464.8 249.119 1464.8 248.093V242.298H1463.57V240.531H1464.8V237.928H1466.99V240.531H1469.53V242.298H1466.99ZM1470.81 245.718C1470.81 244.667 1471.02 243.736 1471.45 242.925C1471.89 242.114 1472.49 241.487 1473.24 241.044C1474 240.588 1474.83 240.36 1475.75 240.36C1476.57 240.36 1477.28 240.525 1477.89 240.854C1478.51 241.171 1479.01 241.57 1479.37 242.051V240.531H1481.56V251H1479.37V249.442C1479.01 249.936 1478.51 250.348 1477.87 250.677C1477.24 251.006 1476.52 251.171 1475.71 251.171C1474.81 251.171 1473.98 250.943 1473.24 250.487C1472.49 250.018 1471.89 249.372 1471.45 248.549C1471.02 247.713 1470.81 246.769 1470.81 245.718ZM1479.37 245.756C1479.37 245.034 1479.22 244.407 1478.92 243.875C1478.63 243.343 1478.24 242.938 1477.76 242.659C1477.28 242.38 1476.76 242.241 1476.2 242.241C1475.64 242.241 1475.12 242.38 1474.64 242.659C1474.16 242.925 1473.77 243.324 1473.47 243.856C1473.17 244.375 1473.03 244.996 1473.03 245.718C1473.03 246.44 1473.17 247.073 1473.47 247.618C1473.77 248.163 1474.16 248.581 1474.64 248.872C1475.14 249.151 1475.66 249.29 1476.2 249.29C1476.76 249.29 1477.28 249.151 1477.76 248.872C1478.24 248.593 1478.63 248.188 1478.92 247.656C1479.22 247.111 1479.37 246.478 1479.37 245.756ZM1486.93 242.298V248.093C1486.93 248.486 1487.02 248.771 1487.2 248.948C1487.39 249.113 1487.7 249.195 1488.15 249.195H1489.48V251H1487.77C1486.79 251 1486.04 250.772 1485.53 250.316C1485.01 249.86 1484.75 249.119 1484.75 248.093V242.298H1483.51V240.531H1484.75V237.928H1486.93V240.531H1489.48V242.298H1486.93ZM1492.58 239.144C1492.18 239.144 1491.85 239.011 1491.59 238.745C1491.32 238.479 1491.19 238.15 1491.19 237.757C1491.19 237.364 1491.32 237.035 1491.59 236.769C1491.85 236.503 1492.18 236.37 1492.58 236.37C1492.96 236.37 1493.28 236.503 1493.54 236.769C1493.81 237.035 1493.94 237.364 1493.94 237.757C1493.94 238.15 1493.81 238.479 1493.54 238.745C1493.28 239.011 1492.96 239.144 1492.58 239.144ZM1493.64 240.531V251H1491.47V240.531H1493.64ZM1501.02 251.171C1500.04 251.171 1499.14 250.949 1498.35 250.506C1497.55 250.05 1496.92 249.417 1496.46 248.606C1496.01 247.783 1495.78 246.833 1495.78 245.756C1495.78 244.692 1496.01 243.748 1496.48 242.925C1496.95 242.102 1497.59 241.468 1498.4 241.025C1499.21 240.582 1500.12 240.36 1501.12 240.36C1502.12 240.36 1503.03 240.582 1503.84 241.025C1504.65 241.468 1505.29 242.102 1505.76 242.925C1506.22 243.748 1506.46 244.692 1506.46 245.756C1506.46 246.82 1506.22 247.764 1505.74 248.587C1505.26 249.41 1504.6 250.05 1503.76 250.506C1502.94 250.949 1502.03 251.171 1501.02 251.171ZM1501.02 249.29C1501.58 249.29 1502.1 249.157 1502.58 248.891C1503.08 248.625 1503.48 248.226 1503.78 247.694C1504.08 247.162 1504.24 246.516 1504.24 245.756C1504.24 244.996 1504.09 244.356 1503.8 243.837C1503.51 243.305 1503.12 242.906 1502.64 242.64C1502.16 242.374 1501.64 242.241 1501.08 242.241C1500.52 242.241 1500 242.374 1499.52 242.64C1499.05 242.906 1498.68 243.305 1498.4 243.837C1498.12 244.356 1497.98 244.996 1497.98 245.756C1497.98 246.883 1498.27 247.757 1498.84 248.378C1499.42 248.986 1500.15 249.29 1501.02 249.29ZM1513.88 240.36C1514.71 240.36 1515.44 240.531 1516.09 240.873C1516.74 241.215 1517.26 241.722 1517.62 242.393C1517.99 243.064 1518.18 243.875 1518.18 244.825V251H1516.03V245.148C1516.03 244.211 1515.79 243.495 1515.33 243.001C1514.86 242.494 1514.22 242.241 1513.41 242.241C1512.6 242.241 1511.95 242.494 1511.47 243.001C1511 243.495 1510.77 244.211 1510.77 245.148V251H1508.6V240.531H1510.77V241.728C1511.12 241.297 1511.57 240.962 1512.11 240.721C1512.67 240.48 1513.26 240.36 1513.88 240.36Z" fill="#444444"/>
<rect x="1344" y="208" width="231" height="73" rx="22" stroke="#444444" stroke-width="4"/>
<path d="M1601 244.5H1651.5M1651.5 244.5L1643.53 236.526M1651.5 244.5L1643.53 252.474" stroke="#444444" stroke-width="4" stroke-linecap="round" stroke-linejoin="round"/>
<path d="M1719.09 237.795V251H1716.93V237.795H1719.09ZM1734.61 240.36C1735.43 240.36 1736.17 240.531 1736.81 240.873C1737.47 241.215 1737.98 241.722 1738.35 242.393C1738.73 243.064 1738.92 243.875 1738.92 244.825V251H1736.77V245.148C1736.77 244.211 1736.54 243.495 1736.07 243.001C1735.6 242.494 1734.96 242.241 1734.15 242.241C1733.34 242.241 1732.7 242.494 1732.21 243.001C1731.75 243.495 1731.51 244.211 1731.51 245.148V251H1729.36V245.148C1729.36 244.211 1729.13 243.495 1728.66 243.001C1728.19 242.494 1727.55 242.241 1726.74 242.241C1725.93 242.241 1725.29 242.494 1724.8 243.001C1724.34 243.495 1724.1 244.211 1724.1 245.148V251H1721.93V240.531H1724.1V241.728C1724.46 241.297 1724.91 240.962 1725.45 240.721C1725.99 240.48 1726.58 240.36 1727.2 240.36C1728.03 240.36 1728.78 240.537 1729.44 240.892C1730.1 241.247 1730.61 241.76 1730.96 242.431C1731.28 241.798 1731.77 241.297 1732.44 240.93C1733.11 240.55 1733.84 240.36 1734.61 240.36ZM1743.84 242.07C1744.21 241.589 1744.71 241.183 1745.34 240.854C1745.98 240.525 1746.69 240.36 1747.49 240.36C1748.4 240.36 1749.23 240.588 1749.98 241.044C1750.74 241.487 1751.34 242.114 1751.77 242.925C1752.2 243.736 1752.41 244.667 1752.41 245.718C1752.41 246.769 1752.2 247.713 1751.77 248.549C1751.34 249.372 1750.74 250.018 1749.98 250.487C1749.23 250.943 1748.4 251.171 1747.49 251.171C1746.69 251.171 1745.98 251.013 1745.36 250.696C1744.74 250.367 1744.24 249.961 1743.84 249.48V255.978H1741.68V240.531H1743.84V242.07ZM1750.21 245.718C1750.21 244.996 1750.06 244.375 1749.75 243.856C1749.46 243.324 1749.07 242.925 1748.57 242.659C1748.09 242.38 1747.57 242.241 1747.02 242.241C1746.47 242.241 1745.95 242.38 1745.46 242.659C1744.98 242.938 1744.58 243.343 1744.28 243.875C1743.99 244.407 1743.84 245.034 1743.84 245.756C1743.84 246.478 1743.99 247.111 1744.28 247.656C1744.58 248.188 1744.98 248.593 1745.46 248.872C1745.95 249.151 1746.47 249.29 1747.02 249.29C1747.57 249.29 1748.09 249.151 1748.57 248.872C1749.07 248.581 1749.46 248.163 1749.75 247.618C1750.06 247.073 1750.21 246.44 1750.21 245.718ZM1756.72 236.94V251H1754.55V236.94H1756.72ZM1769.16 245.509C1769.16 245.902 1769.13 246.256 1769.08 246.573H1761.08C1761.15 247.409 1761.46 248.08 1762.01 248.587C1762.57 249.094 1763.26 249.347 1764.07 249.347C1765.23 249.347 1766.06 248.859 1766.54 247.884H1768.87C1768.56 248.847 1767.98 249.638 1767.14 250.259C1766.32 250.867 1765.3 251.171 1764.07 251.171C1763.07 251.171 1762.17 250.949 1761.37 250.506C1760.58 250.05 1759.96 249.417 1759.51 248.606C1759.06 247.783 1758.84 246.833 1758.84 245.756C1758.84 244.679 1759.06 243.736 1759.49 242.925C1759.93 242.102 1760.55 241.468 1761.33 241.025C1762.13 240.582 1763.04 240.36 1764.07 240.36C1765.05 240.36 1765.94 240.575 1766.71 241.006C1767.48 241.437 1768.08 242.045 1768.51 242.83C1768.94 243.603 1769.16 244.496 1769.16 245.509ZM1766.9 244.825C1766.89 244.027 1766.6 243.387 1766.04 242.906C1765.49 242.425 1764.8 242.184 1763.97 242.184C1763.22 242.184 1762.58 242.425 1762.05 242.906C1761.52 243.375 1761.2 244.014 1761.1 244.825H1766.9ZM1783.96 240.36C1784.79 240.36 1785.52 240.531 1786.17 240.873C1786.83 241.215 1787.34 241.722 1787.71 242.393C1788.09 243.064 1788.28 243.875 1788.28 244.825V251H1786.13V245.148C1786.13 244.211 1785.89 243.495 1785.43 243.001C1784.96 242.494 1784.32 242.241 1783.51 242.241C1782.7 242.241 1782.05 242.494 1781.57 243.001C1781.1 243.495 1780.87 244.211 1780.87 245.148V251H1778.72V245.148C1778.72 244.211 1778.48 243.495 1778.02 243.001C1777.55 242.494 1776.91 242.241 1776.1 242.241C1775.29 242.241 1774.64 242.494 1774.16 243.001C1773.69 243.495 1773.46 244.211 1773.46 245.148V251H1771.29V240.531H1773.46V241.728C1773.81 241.297 1774.26 240.962 1774.81 240.721C1775.35 240.48 1775.93 240.36 1776.55 240.36C1777.39 240.36 1778.14 240.537 1778.8 240.892C1779.45 241.247 1779.96 241.76 1780.32 242.431C1780.63 241.798 1781.13 241.297 1781.8 240.93C1782.47 240.55 1783.19 240.36 1783.96 240.36ZM1800.63 245.509C1800.63 245.902 1800.6 246.256 1800.55 246.573H1792.55C1792.62 247.409 1792.93 248.08 1793.48 248.587C1794.04 249.094 1794.72 249.347 1795.54 249.347C1796.7 249.347 1797.52 248.859 1798.01 247.884H1800.34C1800.03 248.847 1799.45 249.638 1798.61 250.259C1797.79 250.867 1796.76 251.171 1795.54 251.171C1794.53 251.171 1793.64 250.949 1792.84 250.506C1792.05 250.05 1791.43 249.417 1790.98 248.606C1790.53 247.783 1790.31 246.833 1790.31 245.756C1790.31 244.679 1790.53 243.736 1790.96 242.925C1791.4 242.102 1792.01 241.468 1792.8 241.025C1793.6 240.582 1794.51 240.36 1795.54 240.36C1796.52 240.36 1797.4 240.575 1798.18 241.006C1798.95 241.437 1799.55 242.045 1799.98 242.83C1800.41 243.603 1800.63 244.496 1800.63 245.509ZM1798.37 244.825C1798.35 244.027 1798.07 243.387 1797.51 242.906C1796.95 242.425 1796.26 242.184 1795.44 242.184C1794.69 242.184 1794.05 242.425 1793.52 242.906C1792.99 243.375 1792.67 244.014 1792.57 244.825H1798.37ZM1808.04 240.36C1808.86 240.36 1809.6 240.531 1810.24 240.873C1810.9 241.215 1811.42 241.722 1811.78 242.393C1812.15 243.064 1812.33 243.875 1812.33 244.825V251H1810.19V245.148C1810.19 244.211 1809.95 243.495 1809.48 243.001C1809.02 242.494 1808.38 242.241 1807.57 242.241C1806.76 242.241 1806.11 242.494 1805.63 243.001C1805.16 243.495 1804.92 244.211 1804.92 245.148V251H1802.76V240.531H1804.92V241.728C1805.28 241.297 1805.73 240.962 1806.27 240.721C1806.83 240.48 1807.42 240.36 1808.04 240.36ZM1817.62 242.298V248.093C1817.62 248.486 1817.71 248.771 1817.89 248.948C1818.08 249.113 1818.4 249.195 1818.84 249.195H1820.17V251H1818.46C1817.49 251 1816.74 250.772 1816.22 250.316C1815.7 249.86 1815.44 249.119 1815.44 248.093V242.298H1814.2V240.531H1815.44V237.928H1817.62V240.531H1820.17V242.298H1817.62ZM1821.45 245.718C1821.45 244.667 1821.66 243.736 1822.09 242.925C1822.53 242.114 1823.13 241.487 1823.88 241.044C1824.64 240.588 1825.47 240.36 1826.39 240.36C1827.21 240.36 1827.92 240.525 1828.53 240.854C1829.15 241.171 1829.65 241.57 1830.01 242.051V240.531H1832.2V251H1830.01V249.442C1829.65 249.936 1829.15 250.348 1828.51 250.677C1827.88 251.006 1827.16 251.171 1826.35 251.171C1825.45 251.171 1824.62 250.943 1823.88 250.487C1823.13 250.018 1822.53 249.372 1822.09 248.549C1821.66 247.713 1821.45 246.769 1821.45 245.718ZM1830.01 245.756C1830.01 245.034 1829.86 244.407 1829.56 243.875C1829.27 243.343 1828.88 242.938 1828.4 242.659C1827.92 242.38 1827.4 242.241 1826.84 242.241C1826.28 242.241 1825.76 242.38 1825.28 242.659C1824.8 242.925 1824.41 243.324 1824.11 243.856C1823.81 244.375 1823.67 244.996 1823.67 245.718C1823.67 246.44 1823.81 247.073 1824.11 247.618C1824.41 248.163 1824.8 248.581 1825.28 248.872C1825.78 249.151 1826.3 249.29 1826.84 249.29C1827.4 249.29 1827.92 249.151 1828.4 248.872C1828.88 248.593 1829.27 248.188 1829.56 247.656C1829.86 247.111 1830.01 246.478 1830.01 245.756ZM1837.57 242.298V248.093C1837.57 248.486 1837.66 248.771 1837.84 248.948C1838.03 249.113 1838.34 249.195 1838.79 249.195H1840.12V251H1838.41C1837.43 251 1836.68 250.772 1836.17 250.316C1835.65 249.86 1835.39 249.119 1835.39 248.093V242.298H1834.15V240.531H1835.39V237.928H1837.57V240.531H1840.12V242.298H1837.57ZM1843.22 239.144C1842.82 239.144 1842.49 239.011 1842.23 238.745C1841.96 238.479 1841.83 238.15 1841.83 237.757C1841.83 237.364 1841.96 237.035 1842.23 236.769C1842.49 236.503 1842.82 236.37 1843.22 236.37C1843.6 236.37 1843.92 236.503 1844.18 236.769C1844.45 237.035 1844.58 237.364 1844.58 237.757C1844.58 238.15 1844.45 238.479 1844.18 238.745C1843.92 239.011 1843.6 239.144 1843.22 239.144ZM1844.28 240.531V251H1842.11V240.531H1844.28ZM1851.66 251.171C1850.68 251.171 1849.78 250.949 1848.99 250.506C1848.19 250.05 1847.56 249.417 1847.1 248.606C1846.65 247.783 1846.42 246.833 1846.42 245.756C1846.42 244.692 1846.65 243.748 1847.12 242.925C1847.59 242.102 1848.23 241.468 1849.04 241.025C1849.85 240.582 1850.76 240.36 1851.76 240.36C1852.76 240.36 1853.67 240.582 1854.48 241.025C1855.29 241.468 1855.93 242.102 1856.4 242.925C1856.86 243.748 1857.1 244.692 1857.1 245.756C1857.1 246.82 1856.86 247.764 1856.38 248.587C1855.89 249.41 1855.24 250.05 1854.4 250.506C1853.58 250.949 1852.66 251.171 1851.66 251.171ZM1851.66 249.29C1852.22 249.29 1852.74 249.157 1853.22 248.891C1853.72 248.625 1854.12 248.226 1854.42 247.694C1854.72 247.162 1854.88 246.516 1854.88 245.756C1854.88 244.996 1854.73 244.356 1854.44 243.837C1854.15 243.305 1853.76 242.906 1853.28 242.64C1852.8 242.374 1852.28 242.241 1851.72 242.241C1851.16 242.241 1850.64 242.374 1850.16 242.64C1849.69 242.906 1849.32 243.305 1849.04 243.837C1848.76 244.356 1848.62 244.996 1848.62 245.756C1848.62 246.883 1848.91 247.757 1849.48 248.378C1850.06 248.986 1850.79 249.29 1851.66 249.29ZM1864.52 240.36C1865.34 240.36 1866.08 240.531 1866.73 240.873C1867.38 241.215 1867.9 241.722 1868.26 242.393C1868.63 243.064 1868.82 243.875 1868.82 244.825V251H1866.67V245.148C1866.67 244.211 1866.43 243.495 1865.97 243.001C1865.5 242.494 1864.86 242.241 1864.05 242.241C1863.24 242.241 1862.59 242.494 1862.11 243.001C1861.64 243.495 1861.41 244.211 1861.41 245.148V251H1859.24V240.531H1861.41V241.728C1861.76 241.297 1862.21 240.962 1862.75 240.721C1863.31 240.48 1863.9 240.36 1864.52 240.36Z" fill="#444444"/>
<rect x="1677.5" y="208" width="231" height="73" rx="22" stroke="#444444" stroke-width="4"/>
<path d="M1049.59 34.055C1050.8 33.0037 1051.76 32.1423 1052.46 31.471C1053.17 30.787 1053.75 30.0777 1054.22 29.343C1054.69 28.6083 1054.93 27.8737 1054.93 27.139C1054.93 26.379 1054.74 25.7837 1054.38 25.353C1054.02 24.9223 1053.46 24.707 1052.68 24.707C1051.94 24.707 1051.35 24.9477 1050.94 25.429C1050.53 25.8977 1050.32 26.531 1050.29 27.329H1048.2C1048.24 25.885 1048.67 24.783 1049.49 24.023C1050.33 23.2503 1051.39 22.864 1052.67 22.864C1054.05 22.864 1055.12 23.244 1055.9 24.004C1056.68 24.764 1057.07 25.7773 1057.07 27.044C1057.07 27.956 1056.84 28.8363 1056.37 29.685C1055.91 30.521 1055.36 31.2747 1054.72 31.946C1054.08 32.6047 1053.27 33.371 1052.29 34.245L1051.43 35.005H1057.45V36.81H1048.22V35.233L1049.59 34.055ZM1081.77 23.795L1077.86 37H1075.41L1072.63 27.006L1069.69 37L1067.26 37.019L1063.51 23.795H1065.81L1068.55 34.549L1071.51 23.795H1073.94L1076.7 34.492L1079.45 23.795H1081.77ZM1093.15 31.509C1093.15 31.9017 1093.13 32.2563 1093.08 32.573H1085.08C1085.14 33.409 1085.45 34.0803 1086.01 34.587C1086.57 35.0937 1087.25 35.347 1088.06 35.347C1089.23 35.347 1090.05 34.8593 1090.53 33.884H1092.87C1092.55 34.8467 1091.97 35.6383 1091.14 36.259C1090.32 36.867 1089.29 37.171 1088.06 37.171C1087.06 37.171 1086.16 36.9493 1085.36 36.506C1084.58 36.05 1083.96 35.4167 1083.5 34.606C1083.06 33.7827 1082.84 32.8327 1082.84 31.756C1082.84 30.6793 1083.05 29.7357 1083.48 28.925C1083.93 28.1017 1084.54 27.4683 1085.32 27.025C1086.12 26.5817 1087.03 26.36 1088.06 26.36C1089.05 26.36 1089.93 26.5753 1090.7 27.006C1091.47 27.4367 1092.08 28.0447 1092.51 28.83C1092.94 29.6027 1093.15 30.4957 1093.15 31.509ZM1090.89 30.825C1090.88 30.027 1090.59 29.3873 1090.04 28.906C1089.48 28.4247 1088.79 28.184 1087.97 28.184C1087.22 28.184 1086.58 28.4247 1086.05 28.906C1085.51 29.3747 1085.2 30.0143 1085.1 30.825H1090.89ZM1104.88 31.509C1104.88 31.9017 1104.85 32.2563 1104.8 32.573H1096.8C1096.87 33.409 1097.18 34.0803 1097.74 34.587C1098.29 35.0937 1098.98 35.347 1099.79 35.347C1100.95 35.347 1101.78 34.8593 1102.26 33.884H1104.59C1104.28 34.8467 1103.7 35.6383 1102.87 36.259C1102.04 36.867 1101.02 37.171 1099.79 37.171C1098.79 37.171 1097.89 36.9493 1097.09 36.506C1096.3 36.05 1095.68 35.4167 1095.23 34.606C1094.78 33.7827 1094.56 32.8327 1094.56 31.756C1094.56 30.6793 1094.78 29.7357 1095.21 28.925C1095.65 28.1017 1096.27 27.4683 1097.05 27.025C1097.85 26.5817 1098.76 26.36 1099.79 26.36C1100.78 26.36 1101.66 26.5753 1102.43 27.006C1103.2 27.4367 1103.8 28.0447 1104.23 28.83C1104.66 29.6027 1104.88 30.4957 1104.88 31.509ZM1102.62 30.825C1102.61 30.027 1102.32 29.3873 1101.76 28.906C1101.21 28.4247 1100.52 28.184 1099.69 28.184C1098.95 28.184 1098.31 28.4247 1097.77 28.906C1097.24 29.3747 1096.92 30.0143 1096.82 30.825H1102.62ZM1111.15 31.775L1115.98 37H1113.05L1109.18 32.497V37H1107.01V22.94H1109.18V31.11L1112.98 26.531H1115.98L1111.15 31.775ZM1131 23.795V25.562H1127.48V37H1125.32V25.562H1121.78V23.795H1131ZM1142.79 31.509C1142.79 31.9017 1142.76 32.2563 1142.71 32.573H1134.71C1134.77 33.409 1135.09 34.0803 1135.64 34.587C1136.2 35.0937 1136.88 35.347 1137.69 35.347C1138.86 35.347 1139.68 34.8593 1140.16 33.884H1142.5C1142.18 34.8467 1141.61 35.6383 1140.77 36.259C1139.95 36.867 1138.92 37.171 1137.69 37.171C1136.69 37.171 1135.79 36.9493 1135 36.506C1134.21 36.05 1133.59 35.4167 1133.13 34.606C1132.69 33.7827 1132.47 32.8327 1132.47 31.756C1132.47 30.6793 1132.68 29.7357 1133.12 28.925C1133.56 28.1017 1134.17 27.4683 1134.96 27.025C1135.76 26.5817 1136.67 26.36 1137.69 26.36C1138.68 26.36 1139.56 26.5753 1140.34 27.006C1141.11 27.4367 1141.71 28.0447 1142.14 28.83C1142.57 29.6027 1142.79 30.4957 1142.79 31.509ZM1140.53 30.825C1140.51 30.027 1140.23 29.3873 1139.67 28.906C1139.11 28.4247 1138.42 28.184 1137.6 28.184C1136.85 28.184 1136.21 28.4247 1135.68 28.906C1135.15 29.3747 1134.83 30.0143 1134.73 30.825H1140.53ZM1148.72 37.171C1147.89 37.171 1147.15 37.0253 1146.5 36.734C1145.85 36.43 1145.34 36.0247 1144.96 35.518C1144.58 34.9987 1144.37 34.4223 1144.35 33.789H1146.59C1146.63 34.2323 1146.84 34.606 1147.22 34.91C1147.61 35.2013 1148.1 35.347 1148.68 35.347C1149.29 35.347 1149.76 35.233 1150.09 35.005C1150.43 34.7643 1150.6 34.4603 1150.6 34.093C1150.6 33.7003 1150.41 33.409 1150.03 33.219C1149.66 33.029 1149.07 32.82 1148.26 32.592C1147.48 32.3767 1146.84 32.1677 1146.34 31.965C1145.85 31.7623 1145.42 31.452 1145.05 31.034C1144.7 30.616 1144.52 30.065 1144.52 29.381C1144.52 28.8237 1144.68 28.317 1145.01 27.861C1145.34 27.3923 1145.81 27.025 1146.42 26.759C1147.04 26.493 1147.75 26.36 1148.55 26.36C1149.74 26.36 1150.69 26.664 1151.42 27.272C1152.15 27.8673 1152.54 28.6843 1152.59 29.723H1150.43C1150.39 29.2543 1150.2 28.8807 1149.86 28.602C1149.52 28.3233 1149.05 28.184 1148.47 28.184C1147.9 28.184 1147.46 28.2917 1147.16 28.507C1146.86 28.7223 1146.7 29.0073 1146.7 29.362C1146.7 29.6407 1146.81 29.875 1147.01 30.065C1147.21 30.255 1147.46 30.407 1147.75 30.521C1148.04 30.6223 1148.47 30.7553 1149.04 30.92C1149.8 31.1227 1150.42 31.3317 1150.9 31.547C1151.4 31.7497 1151.82 32.0537 1152.18 32.459C1152.53 32.8643 1152.71 33.4027 1152.73 34.074C1152.73 34.6693 1152.56 35.2013 1152.23 35.67C1151.9 36.1387 1151.44 36.506 1150.83 36.772C1150.23 37.038 1149.53 37.171 1148.72 37.171ZM1157.59 28.298V34.093C1157.59 34.4857 1157.68 34.7707 1157.86 34.948C1158.05 35.1127 1158.37 35.195 1158.81 35.195H1160.14V37H1158.43C1157.46 37 1156.71 36.772 1156.19 36.316C1155.67 35.86 1155.41 35.119 1155.41 34.093V28.298H1154.17V26.531H1155.41V23.928H1157.59V26.531H1160.14V28.298H1157.59ZM1173.93 37L1170.89 31.718H1169.24V37H1167.07V23.795H1171.63C1172.65 23.795 1173.5 23.9723 1174.2 24.327C1174.91 24.6817 1175.43 25.1567 1175.77 25.752C1176.13 26.3473 1176.31 27.0123 1176.31 27.747C1176.31 28.6083 1176.05 29.3937 1175.55 30.103C1175.05 30.7997 1174.29 31.2747 1173.25 31.528L1176.52 37H1173.93ZM1169.24 29.989H1171.63C1172.44 29.989 1173.05 29.7863 1173.46 29.381C1173.87 28.9757 1174.08 28.431 1174.08 27.747C1174.08 27.063 1173.88 26.531 1173.48 26.151C1173.07 25.7583 1172.46 25.562 1171.63 25.562H1169.24V29.989ZM1188.56 26.531V37H1186.39V35.765C1186.05 36.1957 1185.6 36.5377 1185.04 36.791C1184.5 37.0317 1183.92 37.152 1183.3 37.152C1182.47 37.152 1181.73 36.981 1181.07 36.639C1180.43 36.297 1179.91 35.7903 1179.53 35.119C1179.17 34.4477 1178.98 33.637 1178.98 32.687V26.531H1181.13V32.364C1181.13 33.3013 1181.36 34.0233 1181.83 34.53C1182.3 35.024 1182.94 35.271 1183.75 35.271C1184.56 35.271 1185.2 35.024 1185.67 34.53C1186.15 34.0233 1186.39 33.3013 1186.39 32.364V26.531H1188.56ZM1196.7 26.36C1197.52 26.36 1198.26 26.531 1198.9 26.873C1199.56 27.215 1200.07 27.7217 1200.44 28.393C1200.81 29.0643 1200.99 29.875 1200.99 30.825V37H1198.85V31.148C1198.85 30.2107 1198.61 29.495 1198.14 29.001C1197.67 28.4943 1197.03 28.241 1196.22 28.241C1195.41 28.241 1194.77 28.4943 1194.29 29.001C1193.82 29.495 1193.58 30.2107 1193.58 31.148V37H1191.42V26.531H1193.58V27.728C1193.94 27.2973 1194.39 26.9617 1194.93 26.721C1195.49 26.4803 1196.08 26.36 1196.7 26.36Z" fill="#444444"/>
<rect x="1007.75" y="8" width="235" height="45" rx="22.5" stroke="#444444" stroke-width="4" stroke-linecap="round"/>
<path d="M1792.75 173.973C1792.75 173.973 1760.75 50.251 1261.75 31.3965M464.25 173.973L476.25 168.5M464.25 173.973L459.25 162M464.25 173.973C464.25 173.973 495.932 51.4934 987.75 31.6891" stroke="#444444" stroke-width="4" stroke-linecap="round" stroke-linejoin="round"/>
<path d="M1125.75 315C1125.75 315 1107.09 460 795.25 460C483.408 460 464.75 315 464.75 315M464.75 315L456.25 326M464.75 315L476.25 321" stroke="#444444" stroke-width="4" stroke-linecap="round" stroke-linejoin="round"/>
</svg>
