<svg width="24" height="25" viewBox="0 0 24 25" fill="none" xmlns="http://www.w3.org/2000/svg">
<g clip-path="url(#clip0_1763_8815)">
<path d="M7 23.0012H17" stroke="#333333" stroke-width="2" stroke-linecap="round"/>
<path d="M13 13.0012L20 13.0012" stroke="#333333" stroke-width="2" stroke-linecap="round"/>
<rect x="10" y="20.0012" width="4" height="3" rx="0.5" fill="#333333"/>
<path fill-rule="evenodd" clip-rule="evenodd" d="M2 2.00122C0.895431 2.00122 0 2.89665 0 4.00122V17.0012C0 18.1058 0.89543 19.0012 2 19.0012H22C23.1046 19.0012 24 18.1058 24 17.0012V4.00122C24 2.89665 23.1046 2.00122 22 2.00122H2ZM3 4.00122C2.44772 4.00122 2 4.44894 2 5.00122V15.0012C2 15.5535 2.44772 16.0012 3 16.0012H21C21.5523 16.0012 22 15.5535 22 15.0012V5.00122C22 4.44894 21.5523 4.00122 21 4.00122H3Z" fill="#333333"/>
<path d="M12 13.0012C11.1892 12.5865 10.7514 12.6014 10 13.0012" stroke="#333333" stroke-width="1.5" stroke-linecap="round"/>
<path d="M12 13.5012C11 14.0012 9.50984 14.195 8.5 13.0012" stroke="#333333" stroke-width="1.5" stroke-linecap="round"/>
</g>
<defs>
<clipPath id="clip0_1763_8815">
<rect width="24" height="24" fill="white" transform="translate(0 0.0012207)"/>
</clipPath>
</defs>
</svg>
