<svg width="24" height="24" viewBox="0 0 24 24" fill="none" xmlns="http://www.w3.org/2000/svg">
<path d="M2.31086 21.3846L2.00257 17.0686C1.96581 16.554 2.32667 16.0958 2.83563 16.011L3.56256 15.8899C4.14384 15.793 4.68243 16.2172 4.72442 16.805L5.0327 21.1209C5.06946 21.6356 4.70861 22.0938 4.19964 22.1786L3.47271 22.2997C2.89143 22.3966 2.35284 21.9724 2.31086 21.3846Z" fill="#333333"/>
<path d="M10.8459 21.9437L7.30047 21.6483C6.81134 21.6075 6.4241 21.2178 6.38646 20.7284L6.0567 16.4416C6.02318 16.0058 6.27656 15.5988 6.68237 15.4365L7.23707 15.2146C7.89588 14.951 8.62678 14.9296 9.29993 15.154L12.6319 16.2646C13.1569 16.4396 13.3718 17.0658 13.0648 17.5262C12.8856 17.7951 12.5678 17.9372 12.2479 17.8915L10.6668 17.6656C10.182 17.5964 9.79381 18.0615 9.94867 18.526C10.0199 18.7397 10.1953 18.9022 10.4138 18.9568L11.5861 19.2499C11.7706 19.296 11.9645 19.2886 12.1449 19.2284L18.303 17.1757C19.1349 16.8984 19.9939 17.5176 19.9939 18.3945C19.9939 18.9475 19.6401 19.4384 19.1155 19.6133L12.8423 21.7044C12.1999 21.9185 11.5207 21.9999 10.8459 21.9437Z" fill="#333333"/>
<path d="M20.0079 3.22329C19.2684 2.43445 18.2537 2 17.1505 2C16.3258 2 15.5706 2.25641 14.9058 2.76204C14.5703 3.01726 14.2663 3.32952 13.9983 3.69397C13.7304 3.32962 13.4263 3.01726 13.0908 2.76204C12.426 2.25641 11.6708 2 10.8462 2C9.74298 2 8.72816 2.43445 7.98865 3.22329C7.25797 4.0029 6.85547 5.06797 6.85547 6.22244C6.85547 7.41068 7.30571 8.49837 8.27236 9.64555C9.13709 10.6717 10.3799 11.7134 11.8192 12.9197C12.3106 13.3316 12.8676 13.7985 13.4461 14.2959C13.5989 14.4275 13.7949 14.5 13.9983 14.5C14.2016 14.5 14.3978 14.4275 14.5504 14.2961C15.1288 13.7986 15.6862 13.3315 16.1778 12.9193C17.6168 11.7133 18.8597 10.6717 19.7244 9.64544C20.691 8.49837 21.1412 7.41068 21.1412 6.22234C21.1412 5.06797 20.7387 4.0029 20.0079 3.22329Z" fill="#333333"/>
</svg>
