<svg width="24" height="25" viewBox="0 0 24 25" fill="none" xmlns="http://www.w3.org/2000/svg">
<path fill-rule="evenodd" clip-rule="evenodd" d="M22 12.0012C22 6.47876 17.5225 2.00122 12 2.00122C6.47754 2.00122 2 6.47876 2 12.0012C2 17.5237 6.47754 22.0012 12 22.0012C17.5225 22.0012 22 17.5237 22 12.0012ZM17.8165 7.86122L16.1365 6.18122C15.8965 5.94122 15.5365 5.94122 15.2965 6.18122L14.7565 6.72122L17.2765 9.24122L17.8165 8.70122C18.0565 8.46122 18.0565 8.10122 17.8165 7.86122ZM8.04166 13.4191L13.8964 7.56432L16.4419 10.1099L10.5872 15.9646L8.04166 13.4191ZM6.29839 17.0722L7.19869 14.2812L9.7187 16.8013L6.92774 17.7016C6.53986 17.8267 6.17326 17.4601 6.29839 17.0722Z" fill="#333333"/>
</svg>
