<svg width="24" height="24" viewBox="0 0 24 24" fill="none" xmlns="http://www.w3.org/2000/svg">
<path d="M6.25 14.5C7.492 14.5 8.5 13.492 8.5 12.25V10H6.25C5.008 10 4 11.008 4 12.25C4 13.492 5.008 14.5 6.25 14.5Z" fill="#444444"/>
<path d="M4 7.75C4 6.508 5.008 5.5 6.25 5.5H8.5V10H6.25C5.008 10 4 8.992 4 7.75Z" fill="#444444"/>
<path d="M4 3.25C4 2.008 5.008 1 6.25 1H8.5V5.5H6.25C5.008 5.5 4 4.492 4 3.25Z" fill="#444444"/>
<path d="M8.5 1H10.75C11.992 1 13 2.008 13 3.25C13 4.492 11.992 5.5 10.75 5.5H8.5V1Z" fill="#444444"/>
<path d="M13 7.75C13 8.992 11.992 10 10.75 10C9.508 10 8.5 8.992 8.5 7.75C8.5 6.508 9.508 5.5 10.75 5.5C11.992 5.5 13 6.508 13 7.75Z" fill="#444444"/>
<path d="M11.4881 21C11.3121 21 11.1641 20.94 11.0441 20.82C10.9241 20.7 10.8641 20.552 10.8641 20.376V12.252C10.8641 12.068 10.9241 11.92 11.0441 11.808C11.1641 11.688 11.3121 11.628 11.4881 11.628H14.3561C14.9001 11.628 15.3761 11.736 15.7841 11.952C16.2001 12.16 16.5241 12.452 16.7561 12.828C16.9961 13.204 17.1161 13.636 17.1161 14.124C17.1161 14.516 17.0081 14.872 16.7921 15.192C16.5841 15.504 16.2961 15.752 15.9281 15.936C16.4561 16.064 16.8801 16.316 17.2001 16.692C17.5201 17.068 17.6801 17.56 17.6801 18.168C17.6801 18.72 17.5481 19.208 17.2841 19.632C17.0281 20.056 16.6681 20.392 16.2041 20.64C15.7401 20.88 15.2081 21 14.6081 21H11.4881ZM12.1121 15.48H14.3561C14.8121 15.48 15.1841 15.368 15.4721 15.144C15.7681 14.92 15.9161 14.58 15.9161 14.124C15.9161 13.668 15.7681 13.332 15.4721 13.116C15.1841 12.892 14.8121 12.78 14.3561 12.78H12.1121V15.48ZM12.1121 19.848H14.6081C15.1521 19.848 15.6001 19.708 15.9521 19.428C16.3041 19.14 16.4801 18.72 16.4801 18.168C16.4801 17.656 16.3041 17.272 15.9521 17.016C15.6001 16.76 15.1521 16.632 14.6081 16.632H12.1121V19.848Z" fill="#444444"/>
<path d="M11.0441 20.82L10.6905 21.1736L10.6905 21.1736L11.0441 20.82ZM11.0441 11.808L11.3852 12.1735L11.3915 12.1676L11.3976 12.1616L11.0441 11.808ZM15.7841 11.952L15.5501 12.394L15.5605 12.3992L15.7841 11.952ZM16.7561 12.828L16.3305 13.0906L16.3346 13.097L16.7561 12.828ZM16.7921 15.192L16.3776 14.9123L16.376 14.9146L16.7921 15.192ZM15.9281 15.936L15.7045 15.4888L14.4821 16.1L15.8103 16.4219L15.9281 15.936ZM17.2001 16.692L17.5808 16.3679L17.5808 16.3679L17.2001 16.692ZM17.2841 19.632L16.8596 19.3677L16.856 19.3736L17.2841 19.632ZM16.2041 20.64L16.4338 21.0841L16.4398 21.081L16.2041 20.64ZM12.1121 15.48H11.6121V15.98H12.1121V15.48ZM15.4721 15.144L15.1703 14.7453L15.1651 14.7493L15.4721 15.144ZM15.4721 13.116L15.1651 13.5107L15.1711 13.5154L15.1773 13.5199L15.4721 13.116ZM12.1121 12.78V12.28H11.6121V12.78H12.1121ZM12.1121 19.848H11.6121V20.348H12.1121V19.848ZM15.9521 19.428L16.2634 19.8193L16.2687 19.815L15.9521 19.428ZM15.9521 17.016L16.2461 16.6116L16.2461 16.6116L15.9521 17.016ZM12.1121 16.632V16.132H11.6121V16.632H12.1121ZM11.4881 20.5C11.4392 20.5 11.42 20.4889 11.3976 20.4664L10.6905 21.1736C10.9081 21.3911 11.1849 21.5 11.4881 21.5V20.5ZM11.3976 20.4664C11.3752 20.444 11.3641 20.4249 11.3641 20.376H10.3641C10.3641 20.6791 10.4729 20.956 10.6905 21.1736L11.3976 20.4664ZM11.3641 20.376V12.252H10.3641V20.376H11.3641ZM11.3641 12.252C11.3641 12.2147 11.37 12.1968 11.3724 12.1909C11.3743 12.1862 11.3769 12.1813 11.3852 12.1735L10.7029 11.4425C10.4688 11.661 10.3641 11.9479 10.3641 12.252H11.3641ZM11.3976 12.1616C11.42 12.1391 11.4392 12.128 11.4881 12.128V11.128C11.1849 11.128 10.9081 11.2369 10.6905 11.4544L11.3976 12.1616ZM11.4881 12.128H14.3561V11.128H11.4881V12.128ZM14.3561 12.128C14.8331 12.128 15.226 12.2223 15.5501 12.3939L16.018 11.5101C15.5261 11.2497 14.9671 11.128 14.3561 11.128V12.128ZM15.5605 12.3992C15.8979 12.5679 16.15 12.7979 16.3305 13.0906L17.1816 12.5654C16.8981 12.1061 16.5022 11.7521 16.0077 11.5048L15.5605 12.3992ZM16.3346 13.097C16.5185 13.3852 16.6161 13.722 16.6161 14.124H17.6161C17.6161 13.55 17.4736 13.0228 17.1775 12.559L16.3346 13.097ZM16.6161 14.124C16.6161 14.4179 16.537 14.6762 16.3776 14.9123L17.2065 15.4717C17.4792 15.0678 17.6161 14.6141 17.6161 14.124H16.6161ZM16.376 14.9146C16.2209 15.1473 16.0024 15.3398 15.7045 15.4888L16.1517 16.3832C16.5897 16.1642 16.9472 15.8607 17.2081 15.4693L16.376 14.9146ZM15.8103 16.4219C16.2465 16.5277 16.5746 16.7285 16.8193 17.0161L17.5808 16.3679C17.1856 15.9035 16.6656 15.6003 16.0459 15.4501L15.8103 16.4219ZM16.8193 17.0161C17.0457 17.2821 17.1801 17.6503 17.1801 18.168H18.1801C18.1801 17.4697 17.9944 16.8539 17.5808 16.3679L16.8193 17.0161ZM17.1801 18.168C17.1801 18.6367 17.0691 19.0312 16.8596 19.3677L17.7085 19.8963C18.027 19.3848 18.1801 18.8033 18.1801 18.168H17.1801ZM16.856 19.3736C16.6495 19.7157 16.3581 19.9907 15.9684 20.199L16.4398 21.081C16.978 20.7933 17.4067 20.3963 17.7121 19.8904L16.856 19.3736ZM15.9744 20.1959C15.5912 20.394 15.1401 20.5 14.6081 20.5V21.5C15.2761 21.5 15.8889 21.366 16.4338 21.0841L15.9744 20.1959ZM14.6081 20.5H11.4881V21.5H14.6081V20.5ZM12.1121 15.98H14.3561V14.98H12.1121V15.98ZM14.3561 15.98C14.8949 15.98 15.3833 15.8465 15.779 15.5387L15.1651 14.7493C14.9849 14.8895 14.7292 14.98 14.3561 14.98V15.98ZM15.7738 15.5427C16.2234 15.2025 16.4161 14.6968 16.4161 14.124H15.4161C15.4161 14.4632 15.3128 14.6375 15.1703 14.7453L15.7738 15.5427ZM16.4161 14.124C16.4161 13.5519 16.2234 13.0453 15.7668 12.7121L15.1773 13.5199C15.3128 13.6187 15.4161 13.7841 15.4161 14.124H16.4161ZM15.779 12.7213C15.3833 12.4135 14.8949 12.28 14.3561 12.28V13.28C14.7292 13.28 14.9849 13.3705 15.1651 13.5107L15.779 12.7213ZM14.3561 12.28H12.1121V13.28H14.3561V12.28ZM11.6121 12.78V15.48H12.6121V12.78H11.6121ZM12.1121 20.348H14.6081V19.348H12.1121V20.348ZM14.6081 20.348C15.2406 20.348 15.8054 20.1835 16.2633 19.8193L15.6408 19.0367C15.3947 19.2325 15.0635 19.348 14.6081 19.348V20.348ZM16.2687 19.815C16.7616 19.4117 16.9801 18.8346 16.9801 18.168H15.9801C15.9801 18.6054 15.8465 18.8683 15.6354 19.041L16.2687 19.815ZM16.9801 18.168C16.9801 17.5281 16.7515 16.9791 16.2461 16.6116L15.658 17.4204C15.8567 17.5649 15.9801 17.7839 15.9801 18.168H16.9801ZM16.2461 16.6116C15.7894 16.2794 15.231 16.132 14.6081 16.132V17.132C15.0731 17.132 15.4108 17.2406 15.658 17.4204L16.2461 16.6116ZM14.6081 16.132H12.1121V17.132H14.6081V16.132ZM11.6121 16.632V19.848H12.6121V16.632H11.6121Z" fill="#444444"/>
</svg>
