<svg width="24" height="24" viewBox="0 0 24 24" fill="none" xmlns="http://www.w3.org/2000/svg">
<path d="M13 4V3C13 2.44772 12.5523 2 12 2H6C5.44772 2 5 2.44772 5 3V17C5 17.5523 5.44772 18 6 18H7" stroke="#444444" stroke-width="2" stroke-linecap="round" stroke-linejoin="round"/>
<path d="M11.25 19.5C12.492 19.5 13.5 18.492 13.5 17.25V15H11.25C10.008 15 9 16.008 9 17.25C9 18.492 10.008 19.5 11.25 19.5Z" fill="#444444"/>
<path d="M9 12.75C9 11.508 10.008 10.5 11.25 10.5H13.5V15H11.25C10.008 15 9 13.992 9 12.75Z" fill="#444444"/>
<path d="M9 8.25C9 7.008 10.008 6 11.25 6H13.5V10.5H11.25C10.008 10.5 9 9.492 9 8.25Z" fill="#444444"/>
<path d="M13.5 6H15.75C16.992 6 18 7.008 18 8.25C18 9.492 16.992 10.5 15.75 10.5H13.5V6Z" fill="#444444"/>
<path d="M18 12.75C18 13.992 16.992 15 15.75 15C14.508 15 13.5 13.992 13.5 12.75C13.5 11.508 14.508 10.5 15.75 10.5C16.992 10.5 18 11.508 18 12.75Z" fill="#444444"/>
</svg>
