<svg width="24" height="24" viewBox="0 0 24 24" fill="none" xmlns="http://www.w3.org/2000/svg">
<path d="M9.15 21.9C10.8888 21.9 12.3 20.4888 12.3 18.75V15.6H9.15C7.4112 15.6 6 17.0112 6 18.75C6 20.4888 7.4112 21.9 9.15 21.9Z" fill="#0ACF83"/>
<path d="M6 12.45C6 10.7112 7.4112 9.29999 9.15 9.29999H12.3V15.6H9.15C7.4112 15.6 6 14.1888 6 12.45Z" fill="#A259FF"/>
<path d="M6 6.15C6 4.4112 7.4112 3 9.15 3H12.3V9.3H9.15C7.4112 9.3 6 7.8888 6 6.15Z" fill="#F24E1E"/>
<path d="M12.3 3H15.45C17.1888 3 18.6 4.4112 18.6 6.15C18.6 7.8888 17.1888 9.3 15.45 9.3H12.3V3Z" fill="#FF7262"/>
<path d="M18.6 12.45C18.6 14.1888 17.1888 15.6 15.45 15.6C13.7112 15.6 12.3 14.1888 12.3 12.45C12.3 10.7112 13.7112 9.29999 15.45 9.29999C17.1888 9.29999 18.6 10.7112 18.6 12.45Z" fill="#1ABCFE"/>
</svg>
