<svg width="24" height="25" viewBox="0 0 24 25" fill="none" xmlns="http://www.w3.org/2000/svg">
<g clip-path="url(#clip0_1771_8686)">
<path d="M16 11.5012L6.94489 13.2234C5.8752 13.2234 5 14.2476 5 15.4994V20.7252C5 21.977 5.8752 23.0012 6.94489 23.0012H16.0551C17.1248 23.0012 18 21.977 18 20.7252V13.5012C18 12.2267 17.0697 11.5012 16 11.5012Z" fill="#333333"/>
<path d="M21.8016 13.035C21.7045 13.056 21.6073 13.119 21.5263 13.1819L19.4013 14.7705C19.1487 14.9593 19 15.2561 19 15.5714V19.4357C19 19.7521 19.1497 20.0498 19.4037 20.2385L21.5425 21.8271C22.0121 22.1838 22.5951 21.974 22.8704 21.3655C22.9514 21.1766 23 20.9668 23 20.736V14.2521C23 13.4757 22.4332 12.8462 21.8016 13.035Z" fill="#333333"/>
<path fill-rule="evenodd" clip-rule="evenodd" d="M21 5.00122C21 7.76264 18.7614 10.0012 16 10.0012C13.2386 10.0012 11 7.76264 11 5.00122C11 2.2398 13.2386 0.0012207 16 0.0012207C18.7614 0.0012207 21 2.2398 21 5.00122ZM14.75 5.00122C14.75 5.69158 15.3096 6.25122 16 6.25122C16.6904 6.25122 17.25 5.69158 17.25 5.00122C17.25 4.31086 16.6904 3.75122 16 3.75122C15.3096 3.75122 14.75 4.31086 14.75 5.00122ZM19.7 5.00122C19.8657 5.00122 20.0012 5.13574 19.9888 5.30096C19.928 6.11004 19.6224 6.88182 19.1129 7.51322C19.0088 7.64215 18.818 7.64746 18.6972 7.53405L17.9682 6.8495C17.8474 6.73608 17.8432 6.54716 17.9407 6.41319C18.1791 6.08548 18.3308 5.70256 18.3813 5.30046C18.4019 5.13606 18.5343 5.00122 18.7 5.00122H19.7ZM17.7348 8.60546C17.8841 8.5336 17.9328 8.349 17.85 8.20551L17.35 7.33949C17.2672 7.196 17.0842 7.14878 16.9315 7.21309C16.558 7.37038 16.1506 7.43055 15.7476 7.38792C15.5828 7.37049 15.4213 7.46858 15.3835 7.62988L15.1551 8.60346C15.1173 8.76477 15.2173 8.92739 15.381 8.95304C16.1826 9.07863 17.0037 8.95737 17.7348 8.60546ZM14.15 8.20551C14.0672 8.349 13.8829 8.39908 13.746 8.30572C13.0757 7.84855 12.5601 7.19803 12.2681 6.44104C12.2085 6.28646 12.2993 6.11853 12.4579 6.07064L13.4152 5.78161C13.5739 5.73372 13.7396 5.82454 13.8068 5.97595C13.9714 6.34628 14.2272 6.66905 14.5502 6.91385C14.6823 7.01394 14.7328 7.196 14.65 7.33949L14.15 8.20551ZM12.0112 4.70148C11.9988 4.8667 12.1343 5.00122 12.3 5.00122L13.3 5.00122C13.4657 5.00122 13.5981 4.86638 13.6187 4.70199C13.6692 4.29989 13.8209 3.91696 14.0593 3.58925C14.1568 3.45528 14.1526 3.26636 14.0318 3.15294L13.3028 2.4684C13.182 2.35498 12.9912 2.36029 12.8871 2.48922C12.3776 3.12062 12.072 3.8924 12.0112 4.70148ZM14.15 1.79693C14.0672 1.65344 14.1159 1.46885 14.2652 1.39698C14.9963 1.04507 15.8174 0.923815 16.619 1.0494C16.7827 1.07505 16.8827 1.23767 16.8449 1.39898L16.6165 2.37256C16.5787 2.53387 16.4172 2.63196 16.2524 2.61453C15.8494 2.57189 15.442 2.63206 15.0685 2.78935C14.9158 2.85366 14.7328 2.80644 14.65 2.66295L14.15 1.79693ZM18.254 1.69672C18.1171 1.60336 17.9328 1.65344 17.85 1.79693L17.35 2.66295C17.2672 2.80644 17.3177 2.9885 17.4498 3.08859C17.7728 3.33339 18.0286 3.65616 18.1932 4.02649C18.2604 4.1779 18.4261 4.26872 18.5848 4.22083L19.5421 3.9318C19.7007 3.88391 19.7915 3.71598 19.7319 3.5614C19.4399 2.80441 18.9243 2.15389 18.254 1.69672Z" fill="#333333"/>
<path fill-rule="evenodd" clip-rule="evenodd" d="M10 7.00122C10 9.76264 7.76142 12.0012 5 12.0012C2.23858 12.0012 0 9.76264 0 7.00122C0 4.2398 2.23858 2.00122 5 2.00122C7.76142 2.00122 10 4.2398 10 7.00122ZM3.75 7.00122C3.75 7.69158 4.30964 8.25122 5 8.25122C5.69036 8.25122 6.25 7.69158 6.25 7.00122C6.25 6.31086 5.69036 5.75122 5 5.75122C4.30964 5.75122 3.75 6.31086 3.75 7.00122ZM8.7 7.00122C8.86569 7.00122 9.00117 7.13574 8.98876 7.30096C8.92799 8.11004 8.62242 8.88182 8.11287 9.51322C8.00881 9.64215 7.81796 9.64746 7.69718 9.53405L6.96822 8.8495C6.84744 8.73608 6.84324 8.54716 6.94072 8.41319C7.17915 8.08548 7.33076 7.70256 7.38128 7.30046C7.40194 7.13606 7.53431 7.00122 7.7 7.00122H8.7ZM6.7348 10.6055C6.88409 10.5336 6.93284 10.349 6.85 10.2055L6.35 9.33949C6.26716 9.196 6.08419 9.14878 5.93149 9.21309C5.55801 9.37038 5.15057 9.43055 4.74756 9.38792C4.5828 9.37049 4.42129 9.46858 4.38345 9.62988L4.1551 10.6035C4.11727 10.7648 4.21729 10.9274 4.38098 10.953C5.18256 11.0786 6.00373 10.9574 6.7348 10.6055ZM3.15 10.2055C3.06716 10.349 2.88292 10.3991 2.74604 10.3057C2.07574 9.84855 1.56014 9.19803 1.26811 8.44104C1.20848 8.28646 1.2993 8.11853 1.45792 8.07064L2.41524 7.78161C2.57385 7.73372 2.73955 7.82454 2.80684 7.97595C2.97143 8.34628 3.22725 8.66905 3.55021 8.91385C3.68226 9.01394 3.73284 9.196 3.65 9.33949L3.15 10.2055ZM1.01124 6.70148C0.998828 6.8667 1.13431 7.00122 1.3 7.00122L2.3 7.00122C2.46569 7.00122 2.59806 6.86638 2.61872 6.70199C2.66924 6.29989 2.82085 5.91696 3.05928 5.58925C3.15676 5.45528 3.15256 5.26636 3.03178 5.15294L2.30282 4.4684C2.18204 4.35498 1.99119 4.36029 1.88713 4.48922C1.37758 5.12062 1.07201 5.8924 1.01124 6.70148ZM3.15 3.79693C3.06716 3.65344 3.11591 3.46885 3.2652 3.39698C3.99627 3.04507 4.81744 2.92381 5.61902 3.0494C5.78271 3.07505 5.88273 3.23767 5.8449 3.39898L5.61655 4.37256C5.57871 4.53387 5.4172 4.63196 5.25244 4.61453C4.84943 4.57189 4.44199 4.63206 4.06851 4.78935C3.91581 4.85366 3.73284 4.80644 3.65 4.66295L3.15 3.79693ZM7.25396 3.69672C7.11708 3.60336 6.93284 3.65344 6.85 3.79693L6.35 4.66295C6.26716 4.80644 6.31774 4.9885 6.44978 5.08859C6.77275 5.33339 7.02857 5.65616 7.19316 6.02649C7.26045 6.1779 7.42615 6.26872 7.58476 6.22083L8.54208 5.9318C8.7007 5.88391 8.79152 5.71598 8.73188 5.5614C8.43986 4.80441 7.92426 4.15389 7.25396 3.69672Z" fill="#333333"/>
<path d="M8.85284 11.5778L10.8849 9.13928C10.9504 9.06076 11.0645 9.04421 11.1495 9.10091L13.5881 10.7266C13.7377 10.8264 13.6899 11.0576 13.5129 11.0898L9.04226 11.9026C8.85836 11.9361 8.73318 11.7214 8.85284 11.5778Z" fill="#333333"/>
</g>
<defs>
<clipPath id="clip0_1771_8686">
<rect width="24" height="24" fill="white" transform="translate(0 0.0012207)"/>
</clipPath>
</defs>
</svg>
