<svg width="24" height="24" viewBox="0 0 24 24" fill="none" xmlns="http://www.w3.org/2000/svg">
<path d="M13 5V4C13 2.89543 12.1046 2 11 2H4C2.89543 2 2 2.89543 2 4V20C2 21.1046 2.89405 22 3.99862 22C5.77897 22 8.35053 22 10 22" stroke="black" stroke-width="2" stroke-linecap="round"/>
<path d="M7.5 18C7.77614 18 8 18.2239 8 18.5C8 18.7761 7.77614 19 7.5 19C7.22386 19 7 18.7761 7 18.5C7 18.2239 7.22386 18 7.5 18Z" stroke="black" stroke-width="2"/>
<path d="M14.5981 19.6491L15.5981 21.3811C15.8742 21.8594 16.4858 22.0233 16.9641 21.7471L21.2942 19.2471C21.7725 18.971 21.9364 18.3594 21.6603 17.8811L20.6603 16.1491M14.5981 19.6491L20.6603 16.1491M14.5981 19.6491L11.4062 18.7938C10.8508 18.645 10.4272 18.1952 10.3119 17.6319V17.6319C10.0976 16.5845 11.024 15.653 12.0775 15.8351V15.8351C12.7216 15.9464 13.2179 15.2586 12.8911 14.6925L10.2141 10.0558C9.79989 9.33836 10.0457 8.42097 10.7631 8.00676V8.00676C11.4806 7.59255 12.398 7.83836 12.8122 8.5558L14.1718 10.9107C14.4012 11.3081 14.8717 11.4984 15.3128 11.3722L16.7511 10.9607C17.7536 10.6739 18.8082 11.2055 19.174 12.1819L20.6603 16.1491" stroke="black" stroke-width="2"/>
</svg>
