<svg width="24" height="24" viewBox="0 0 24 24" fill="none" xmlns="http://www.w3.org/2000/svg">
<path d="M17.1722 14.8284L14.3438 12M14.3438 12L17.1722 9.17157M14.3438 12H19.8438" stroke="black" stroke-width="2" stroke-linecap="round"/>
<path d="M6.82782 14.8284L9.65625 12M9.65625 12L6.82782 9.17157M9.65625 12H4.15625" stroke="black" stroke-width="2" stroke-linecap="round"/>
<path d="M4 7V6C4 4.89543 4.89543 4 6 4H15.5" stroke="black" stroke-width="2" stroke-linecap="round"/>
<path d="M12 20H6C4.89543 20 4 19.1046 4 18V17" stroke="black" stroke-width="2" stroke-linecap="round"/>
<path d="M20 17V18C20 19.1046 19.1046 20 18 20H12" stroke="black" stroke-width="2" stroke-linecap="round"/>
<path d="M20 7V6C20 4.89543 19.1046 4 18 4L15 4" stroke="black" stroke-width="2" stroke-linecap="round"/>
</svg>
