<svg width="24" height="24" viewBox="0 0 24 24" fill="none" xmlns="http://www.w3.org/2000/svg">
<path d="M9.17157 17.1716L12 14.3431M12 14.3431L14.8284 17.1716M12 14.3431L12 19.8431" stroke="black" stroke-width="2" stroke-linecap="round"/>
<path d="M9.17157 6.82843L12 9.65686M12 9.65686L14.8284 6.82843M12 9.65686L12 4.15686" stroke="black" stroke-width="2" stroke-linecap="round"/>
<path d="M17 4L18 4C19.1046 4 20 4.89543 20 6L20 15.5" stroke="black" stroke-width="2" stroke-linecap="round"/>
<path d="M4 12L4 6C4 4.89543 4.89543 4 6 4L7 4" stroke="black" stroke-width="2" stroke-linecap="round"/>
<path d="M7 20L6 20C4.89543 20 4 19.1046 4 18L4 12" stroke="black" stroke-width="2" stroke-linecap="round"/>
<path d="M17 20L18 20C19.1046 20 20 19.1046 20 18L20 15" stroke="black" stroke-width="2" stroke-linecap="round"/>
</svg>
