<svg width="24" height="24" viewBox="0 0 24 24" fill="none" xmlns="http://www.w3.org/2000/svg">
<path d="M4 4L20 20" stroke="black" stroke-width="1.5" stroke-linecap="round"/>
<path fill-rule="evenodd" clip-rule="evenodd" d="M7.29609 9.76916C7.09422 9.5673 6.7646 9.57514 6.57256 9.78638L4.27029 12.3189C4.02684 12.5867 3.9453 12.9667 4.05707 13.3126C4.16884 13.6585 4.45648 13.9164 4.80926 13.9869L8.44355 14.7138C8.70045 14.7652 8.87413 15.0061 8.84163 15.2661L8.01569 21.8736C7.96141 22.3079 8.19085 22.7279 8.58315 22.9123C8.97545 23.0968 9.44053 23.0033 9.73337 22.6812L14.4007 17.5472C14.5802 17.3497 14.573 17.046 14.3842 16.8573L13.677 16.1501C13.4752 15.9482 13.1455 15.9561 12.9535 16.1673L11.4408 17.8314C11.1124 18.1926 10.5141 17.9174 10.5746 17.433L10.988 14.1265C11.0535 13.602 10.7068 13.1157 10.1944 13.0132L7.79952 12.5342C7.41842 12.458 7.26617 11.9951 7.5276 11.7076L8.01971 11.1663C8.19924 10.9688 8.19202 10.6651 8.00329 10.4764L7.29609 9.76916ZM16.0004 13.5237C15.8117 13.335 15.8044 13.0313 15.984 12.8338L16.476 12.2925C16.7375 12.005 16.5852 11.5421 16.2041 11.4659L13.8093 10.9869C13.2968 10.8845 12.9501 10.3981 13.0157 9.87366L13.429 6.5671C13.4896 6.08271 12.8913 5.80754 12.5629 6.16874L11.0502 7.83275C10.8581 8.04399 10.5285 8.05184 10.3266 7.84997L9.61944 7.14277C9.43071 6.95404 9.42349 6.65036 9.60302 6.45288L14.2703 1.31889C14.5631 0.996763 15.0282 0.903301 15.4205 1.08774C15.8128 1.27218 16.0422 1.69217 15.988 2.12645L15.162 8.73401C15.1295 8.99397 15.3032 9.23494 15.5601 9.28632L19.1944 10.0132C19.5472 10.0837 19.8348 10.3416 19.9466 10.6875C20.0584 11.0334 19.9768 11.4134 19.7334 11.6812L17.4311 14.2137C17.2391 14.4249 16.9095 14.4328 16.7076 14.2309L16.0004 13.5237Z" fill="black"/>
</svg>
