<svg width="24" height="24" viewBox="0 0 24 24" fill="none" xmlns="http://www.w3.org/2000/svg">
<path d="M19 8.5C19 9.05228 19.4477 9.5 20 9.5C20.5523 9.5 21 9.05228 21 8.5H19ZM22.3837 13.4517L21.4301 13.1506L22.3837 13.4517ZM9.74808 5.83205L9.19338 6.6641L9.74808 5.83205ZM20.4414 19.6023L21.395 19.9034L20.4414 19.6023ZM4 22H18.5342V20H4V22ZM3 19V6H1V19H3ZM4 5H6.39445V3H4V5ZM10.3028 7H18V5H10.3028V7ZM6.94915 5.16795L9.19338 6.6641L10.3028 5L8.05855 3.50385L6.94915 5.16795ZM21.4301 13.1506L19.4878 19.3011L21.395 19.9034L23.3373 13.7528L21.4301 13.1506ZM6.98979 12.5H14V10.5H6.98979V12.5ZM14 12.5H20.9533V10.5H14V12.5ZM3.28304 20.3933L6.53009 12.8033L4.69129 12.0167L1.44424 19.6067L3.28304 20.3933ZM21 8.5V8H19V8.5H21ZM23.3373 13.7528C23.8461 12.1415 22.643 10.5 20.9533 10.5V12.5C21.2912 12.5 21.5319 12.8283 21.4301 13.1506L23.3373 13.7528ZM6.98979 10.5C5.98913 10.5 5.08488 11.0967 4.69129 12.0167L6.53009 12.8033C6.60881 12.6193 6.78966 12.5 6.98979 12.5V10.5ZM10.3028 5L9.19338 6.6641C9.52191 6.88312 9.90793 7 10.3028 7V5ZM3 6C3 5.44772 3.44772 5 4 5V3C2.34315 3 1 4.34315 1 6H3ZM18 7C18.5523 7 19 7.44772 19 8H21C21 6.34315 19.6569 5 18 5V7ZM18.5342 22C19.8431 22 21.0008 21.1515 21.395 19.9034L19.4878 19.3011C19.3564 19.7172 18.9705 20 18.5342 20V22ZM6.39445 5C6.59187 5 6.78488 5.05844 6.94915 5.16795L8.05855 3.50385C7.56575 3.17531 6.98672 3 6.39445 3V5ZM4 20C3.44772 20 3 19.5523 3 19H1C1 20.6569 2.34315 22 4 22V20Z" fill="black"/>
</svg>
