<svg width="24" height="24" viewBox="0 0 24 24" fill="none" xmlns="http://www.w3.org/2000/svg">
<path fill-rule="evenodd" clip-rule="evenodd" d="M19.2929 8.94975C19.6834 9.34028 19.6834 9.97344 19.2929 10.364L9.3934 20.2635C9.00287 20.654 8.36971 20.654 7.97918 20.2635L3.73654 16.0208C3.34602 15.6303 3.34602 14.9971 3.73654 14.6066L13.636 4.70711C14.0266 4.31659 14.6597 4.31659 15.0503 4.70711L19.2929 8.94975ZM12.5751 13.5507C13.1609 12.9649 13.1609 12.0151 12.5751 11.4293C11.9893 10.8436 11.0396 10.8436 10.4538 11.4293C9.86801 12.0151 9.86801 12.9649 10.4538 13.5507C11.0396 14.1364 11.9893 14.1364 12.5751 13.5507ZM13.2822 10.7222C14.2585 11.6985 14.2585 13.2815 13.2822 14.2578C12.3059 15.2341 10.723 15.2341 9.74669 14.2578C8.77038 13.2815 8.77038 11.6985 9.74669 10.7222C10.723 9.74592 12.3059 9.74592 13.2822 10.7222ZM9.52357 17.6636C9.71883 17.4683 9.71883 17.1517 9.52357 16.9564L7.04869 14.4816C6.85343 14.2863 6.53685 14.2863 6.34159 14.4816C6.14632 14.6768 6.14632 14.9934 6.34159 15.1887L8.81646 17.6636C9.01172 17.8588 9.32831 17.8588 9.52357 17.6636ZM16.6915 9.78341C16.8868 9.97867 16.8868 10.2953 16.6915 10.4905C16.4962 10.6858 16.1797 10.6858 15.9844 10.4905L13.5095 8.01564C13.3143 7.82038 13.3143 7.5038 13.5095 7.30854C13.7048 7.11327 14.0214 7.11327 14.2166 7.30854L16.6915 9.78341Z" fill="#333333"/>
<path d="M2.5 7.5L6.99999 2.99998M6.99999 2.99998L3 3M6.99999 2.99998L6.99999 6.99998" stroke="#333333" stroke-width="2" stroke-linecap="round" stroke-linejoin="round"/>
<path d="M19.8284 13C19.3966 13 19.2923 12.4859 19.5976 12.1806L20.2322 11.546C21.2085 10.5697 21.2085 8.98674 20.2322 8.01043L15.9896 3.76779C15.0133 2.79148 13.4304 2.79148 12.4541 3.76779L11.8195 4.40237C11.5141 4.70774 11 4.60343 11 4.17157V3.12132C11 2.7235 11.158 2.34196 11.4393 2.06066L12.0607 1.43934C12.342 1.15804 12.7235 1 13.1213 1H15.1716C15.702 1 16.2107 1.21071 16.5858 1.58579L22.4142 7.41421C22.7893 7.78929 23 8.29799 23 8.82843V10.8787C23 11.2765 22.842 11.658 22.5607 11.9393L21.9393 12.5607C21.658 12.842 21.2765 13 20.8787 13H19.8284Z" fill="#333333"/>
</svg>
