<svg width="24" height="24" viewBox="0 0 24 24" fill="none" xmlns="http://www.w3.org/2000/svg">
<path d="M21.073 16.2822L20.2442 17.7178C19.9 18.3139 19.1943 18.5992 18.5326 18.4099L17.649 18.1572C17.0295 17.98 16.3712 18.1274 15.8165 18.4554C15.7939 18.4687 15.7712 18.482 15.7483 18.4952C15.7255 18.5084 15.7027 18.5214 15.6798 18.5343C15.1184 18.8507 14.6616 19.3471 14.5053 19.9722L14.2824 20.8638C14.1155 21.5316 13.5155 22 12.8272 22H11.1695C10.4812 22 9.88123 21.5316 9.7143 20.8638L9.49175 19.9736C9.33516 19.3472 8.87662 18.8506 8.31393 18.534C8.26901 18.5087 8.22432 18.4829 8.17988 18.4567C7.62431 18.1288 6.96543 17.9805 6.3452 18.1579L5.46409 18.4099C4.80233 18.5992 4.09666 18.3139 3.75251 17.7178L2.92367 16.2822C2.57952 15.6861 2.68522 14.9323 3.18004 14.4539L3.83889 13.8168C4.30265 13.3684 4.50359 12.7236 4.49743 12.0785C4.49694 12.0269 4.49698 11.9754 4.49756 11.9238C4.50472 11.2782 4.30386 10.6328 3.8397 10.184L3.18003 9.54613C2.68521 9.06769 2.57951 8.31387 2.92366 7.71778L3.7525 6.2822C4.09665 5.68611 4.80232 5.40074 5.46408 5.59004L6.3477 5.84281C6.9672 6.02003 7.6255 5.87255 8.18017 5.54464C8.2028 5.53126 8.22553 5.51798 8.24835 5.50481C8.27117 5.49163 8.29403 5.47859 8.31693 5.46568C8.87825 5.14928 9.33512 4.65291 9.4914 4.0278L9.7143 3.1362C9.88123 2.46844 10.4812 2 11.1695 2L12.8272 2C13.5155 2 14.1155 2.46845 14.2824 3.1362L14.5049 4.02639C14.6615 4.65276 15.1201 5.14944 15.6828 5.46603C15.7277 5.4913 15.7724 5.51705 15.8168 5.54328C16.3724 5.87115 17.0312 6.01952 17.6515 5.8421L18.5326 5.59005C19.1944 5.40074 19.9 5.68611 20.2442 6.2822L21.073 7.71779C21.4172 8.31387 21.3115 9.06769 20.8166 9.54614L20.1578 10.1832C19.694 10.6316 19.4931 11.2764 19.4993 11.9215C19.4998 11.9731 19.4997 12.0246 19.4991 12.0762C19.492 12.7218 19.6928 13.3672 20.157 13.816L20.8166 14.4538C21.3115 14.9323 21.4172 15.6861 21.073 16.2822Z" stroke="black" stroke-width="2" stroke-linecap="round" stroke-linejoin="round"/>
<circle cx="12" cy="12" r="3" stroke="black" stroke-width="2"/>
</svg>
