<svg width="24" height="25" viewBox="0 0 24 25" fill="none" xmlns="http://www.w3.org/2000/svg">
<path fill-rule="evenodd" clip-rule="evenodd" d="M5.30239 7.61318C4.02906 8.72251 2.89804 10.1852 2 12.0012C5.09503 18.2601 10.9574 20.3218 15.8756 18.1864L13.8111 16.1219C13.257 16.3658 12.6443 16.5012 12 16.5012C9.51472 16.5012 7.5 14.4865 7.5 12.0012C7.5 11.3569 7.63541 10.7442 7.87931 10.1901L5.30239 7.61318ZM15.9989 14.067C16.3191 13.4484 16.5 12.7459 16.5 12.0012C16.5 9.51594 14.4853 7.50122 12 7.50122C11.2553 7.50122 10.5529 7.68211 9.93421 8.00236L7.86489 5.93304C12.8348 3.60918 18.8503 5.63191 22 12.0012C21.0544 13.9134 19.8506 15.4338 18.4943 16.5624L15.9989 14.067Z" fill="#333333"/>
<path fill-rule="evenodd" clip-rule="evenodd" d="M9.28037 11.5912C9.26036 11.7249 9.25 11.8619 9.25 12.0012C9.25 13.52 10.4812 14.7512 12 14.7512C12.1394 14.7512 12.2763 14.7409 12.4101 14.7209L9.28037 11.5912ZM14.6544 12.7226C14.7167 12.4927 14.75 12.2508 14.75 12.0012C14.75 10.4824 13.5188 9.25122 12 9.25122C11.7504 9.25122 11.5085 9.28448 11.2787 9.3468L14.6544 12.7226Z" fill="#333333"/>
<rect x="2.94141" y="5.25122" width="1.5" height="22" rx="0.75" transform="rotate(-45 2.94141 5.25122)" fill="#333333"/>
</svg>
