<svg width="24" height="24" viewBox="0 0 24 24" fill="none" xmlns="http://www.w3.org/2000/svg">
<path d="M3.5 6L3.23435 6.11008C2.48715 6.41972 2 7.14891 2 7.95773V19C2 20.1045 2.89543 21 4 21H20C21.1046 21 22 20.1045 22 19V7.79303C22 7.06955 21.6093 6.40248 20.9783 6.04861L20 5.5" stroke="black" stroke-width="2" stroke-linecap="round"/>
<path d="M2.40072 11C2.46592 11 2.53014 11.0159 2.58779 11.0463L11.0663 15.522C11.6506 15.8304 12.3494 15.8304 12.9337 15.522L21.4122 11.0463C21.4699 11.0159 21.5341 11 21.5993 11V11C21.8206 11 22 11.1794 22 11.4007V20C22 20.5523 21.5523 21 21 21H3C2.44772 21 2 20.5523 2 20V11.4007C2 11.1794 2.17941 11 2.40072 11V11Z" stroke="black" stroke-width="2"/>
<path fill-rule="evenodd" clip-rule="evenodd" d="M18.4164 2.51866C18.8751 1.30954 17.6911 0.125556 16.482 0.584183L6.49166 4.37361C5.33721 4.8115 5.17666 6.37872 6.21833 7.0416L9.63279 9.21444C9.69453 9.25373 9.7469 9.3061 9.78619 9.36784L11.7979 12.5291C11.8868 12.6688 12.0396 12.7598 12.2043 12.7429C12.4561 12.7172 12.7042 12.6436 12.9344 12.522L14.8775 11.4963C14.9852 11.4395 15.0684 11.3453 15.1116 11.2315L18.4164 2.51866ZM13.4646 9.93429C13.3186 10.3191 12.7962 10.3726 12.5753 10.0254L11.9406 9.02801C11.8147 8.83029 11.8431 8.57173 12.0088 8.40602L13.6329 6.78197C14.0234 6.39145 14.0234 5.75828 13.6329 5.36776C13.2423 4.97724 12.6092 4.97724 12.2187 5.36776L10.5946 6.9918C10.4289 7.15751 10.1703 7.1859 9.97262 7.06008L8.97524 6.42538C8.62801 6.20442 8.68153 5.68201 9.06635 5.53605L15.1135 3.2423C15.5165 3.08942 15.9112 3.48409 15.7583 3.88712L13.4646 9.93429Z" fill="black"/>
</svg>
