<svg width="24" height="24" viewBox="0 0 24 24" fill="none" xmlns="http://www.w3.org/2000/svg">
<path fill-rule="evenodd" clip-rule="evenodd" d="M3.5 5.998C3.5 5.63978 3.13281 5.39899 2.80428 5.54177C1.7087 6.01789 1 7.09862 1 8.29318V19.5021C1 20.6067 1.89543 21.5021 3 21.5021H21C22.1046 21.5021 23 20.6067 23 19.5021V8.29318C23 7.09862 22.2913 6.01789 21.1957 5.54177C20.8672 5.39899 20.5 5.63978 20.5 5.998V7.13835C20.5 7.31703 20.6031 7.47564 20.7259 7.60537C20.8986 7.78767 21 8.03228 21 8.29318V19.0021C21 19.2782 20.7761 19.5021 20.5 19.5021H3.5C3.22386 19.5021 3 19.2782 3 19.0021V8.29318C3 8.03228 3.10141 7.78767 3.27407 7.60537C3.39694 7.47564 3.5 7.31703 3.5 7.13835V5.998Z" fill="black"/>
<path d="M2.40072 10.5C2.46592 10.5 2.53014 10.5159 2.58779 10.5463L11.0663 15.022C11.6506 15.3304 12.3494 15.3304 12.9337 15.022L21.4122 10.5463C21.4699 10.5159 21.5341 10.5 21.5993 10.5V10.5C21.8206 10.5 22 10.6794 22 10.9007V19.5C22 20.0523 21.5523 20.5 21 20.5H3C2.44772 20.5 2 20.0523 2 19.5V10.9007C2 10.6794 2.17941 10.5 2.40072 10.5V10.5Z" stroke="black" stroke-width="2"/>
<path fill-rule="evenodd" clip-rule="evenodd" d="M6.26659 9.48831C6.59956 9.66408 7 9.42266 7 9.04613V4.5C7 4.22386 7.22386 4 7.5 4H16.5C16.7761 4 17 4.22386 17 4.5V9.04614C17 9.42266 17.4004 9.66408 17.7334 9.48831L18.7334 8.96043C18.8974 8.87387 19 8.70367 19 8.51825V3C19 2.44772 18.5523 2 18 2H6C5.44772 2 5 2.44772 5 3V8.51825C5 8.70367 5.10261 8.87387 5.26658 8.96043L6.26659 9.48831Z" fill="black"/>
<path d="M9 6H15" stroke="black" stroke-width="1.5" stroke-linecap="round"/>
<path d="M10 9H14" stroke="black" stroke-width="1.5" stroke-linecap="round"/>
</svg>
