<svg width="283" height="98" viewBox="0 0 283 98" fill="none" xmlns="http://www.w3.org/2000/svg">
<path fill-rule="evenodd" clip-rule="evenodd" d="M225.259 0C235.102 0 243.081 7.9788 243.081 17.8212H265.179C275.021 17.8212 283 25.8 283 35.6423C283 45.4847 275.021 53.4635 265.179 53.4635H193.181C183.339 53.4635 175.36 45.4847 175.36 35.6423H136.154C136.154 44.5689 129.59 51.9626 121.026 53.2612C122.488 55.8473 123.322 58.835 123.322 62.0176H243.793C253.636 62.0176 261.615 69.9964 261.615 79.8388C261.615 89.6811 253.636 97.66 243.793 97.66H96.2343C86.3919 97.66 78.4131 89.6811 78.4131 79.8388H17.8212C7.97881 79.8388 0 71.86 0 62.0176C0 52.1753 7.97879 44.1965 17.8211 44.1965H42.8157C41.4237 41.6573 40.6322 38.7423 40.6322 35.6423C40.6322 25.8 48.611 17.8212 58.4534 17.8212H88.3929C88.3929 7.9788 96.3718 0 106.214 0H225.259Z" fill="white"/>
</svg>
