<svg width="1440" height="732" viewBox="0 0 1440 732" fill="none" xmlns="http://www.w3.org/2000/svg">
<g clip-path="url(#clip0)">
<path d="M818.5 208.5C729.5 217.5 618.5 153.5 523 161C427.5 168.5 299 223 205.5 175.5C112 128 0 152.5 0 152.5V732H1440V153.5C1440 153.5 1400 144 1312.5 139C1225 134 1173 214.5 1066.5 196.5C960 178.5 907.5 199.5 818.5 208.5Z" fill="#8CA7BF"/>
<path fill-rule="evenodd" clip-rule="evenodd" d="M1323.54 46.9907H1322.4V56.8467H1321.64V62.5329H1321.64V65.1864H1317.85H1317.85V62.5329H1317.85V56.8467H1317.09V46.9907H1315.96V56.8467H1315.2V62.5329H1312.92V65.1864H1307.24V66.3237H1303.45V142.518H1317.85H1321.64H1336.05V66.3237H1332.26V65.1864H1326.57V62.5329H1324.3V56.8467H1323.54V46.9907Z" fill="#8CA7BF"/>
<path fill-rule="evenodd" clip-rule="evenodd" d="M1257.28 69.7793H1232.64V74.7072H1227.71V159.62H1232.64V159.62H1257.28V159.62H1262.21V74.7072H1257.28V69.7793Z" fill="#8CA7BF"/>
<path fill-rule="evenodd" clip-rule="evenodd" d="M1284.45 54.3825V91.7021L1289.8 148.219H1265.84L1271.18 91.7026V54.3825L1271.09 54.3825L1274.86 52.8731L1277.82 21.6074L1280.78 52.8731L1284.55 54.3825L1284.45 54.3825Z" fill="#8CA7BF"/>
<path fill-rule="evenodd" clip-rule="evenodd" d="M1348.87 0.000244141H1363.79C1366.74 9.83403 1368.65 25.3626 1368.65 42.8356C1368.65 43.4699 1368.65 44.1018 1368.64 44.7308H1368.65V148.218H1344.01V44.7308H1344.02C1344.01 44.1018 1344.01 43.4699 1344.01 42.8356C1344.01 25.3626 1345.91 9.83403 1348.87 0.000244141Z" fill="#8CA7BF"/>
<rect x="1195.6" y="123.843" width="24.7686" height="70.6364" fill="#8CA7BF"/>
<rect x="1380.07" y="85.3142" width="24.7686" height="75.2231" fill="#8CA7BF"/>
<rect x="1171.75" y="115.587" width="24.7686" height="89.9008" fill="#8CA7BF"/>
<rect x="1138.73" y="111" width="24.7686" height="102.744" fill="#8CA7BF"/>
<rect x="1114.96" y="123.843" width="24.7686" height="98.157" fill="#8CA7BF"/>
<rect x="1403.84" y="76.1406" width="24.7686" height="75.2231" fill="#8CA7BF"/>
<rect x="1421" y="81" width="25" height="79" fill="#8CA7BF"/>
<path d="M172.086 145.629L166.107 141.771L160.129 145.629V172.243H172.086V145.629Z" fill="#8CA7BF"/>
<path d="M213.057 158.06L204.957 154.3L196.857 158.06V184H213.057V158.06Z" fill="#8CA7BF"/>
<path d="M197.857 148.987L189.757 144.886L181.657 148.987V177.286H197.857V148.987Z" fill="#8CA7BF"/>
<path d="M116.086 126.394L107.6 122L99.1143 126.394V156.714H116.086V126.394Z" fill="#8CA7BF"/>
<path d="M129.357 133.43L122.221 129.329L115.086 133.43V161.729H129.357V133.43Z" fill="#8CA7BF"/>
<path d="M142.629 140.758L135.493 136.657L128.357 140.758V169.057H142.629V140.758Z" fill="#8CA7BF"/>
<rect x="171.086" y="141.8" width="11.5714" height="27" fill="#8CA7BF"/>
<rect x="87" y="132.029" width="13.1143" height="27" fill="#8CA7BF"/>
<path d="M212 154.089L219.5 152L227 154.089V185H212V154.089Z" fill="#8CA7BF"/>
<path d="M266 166.025L273.5 164L281 166.025V196H266V166.025Z" fill="#8CA7BF"/>
<path d="M300 161.144L306.5 155L313 161.144V197H300V161.144Z" fill="#8CA7BF"/>
<path d="M226 147L243 150.234V198H226V147Z" fill="#8CA7BF"/>
<path d="M312 164L325 166.537V204H312V164Z" fill="#8CA7BF"/>
<rect x="257" y="159" width="11" height="40" fill="#8CA7BF"/>
<rect x="248" y="163" width="10" height="32" fill="#8CA7BF"/>
<rect x="279" y="163" width="13" height="34" fill="#8CA7BF"/>
<rect x="289" y="166" width="13" height="34" fill="#8CA7BF"/>
<rect width="10.3333" height="31" transform="matrix(-1 0 0 1 480.333 143)" fill="#8CA7BF"/>
<rect width="10" height="25" transform="matrix(-1 0 0 1 370 165)" fill="#8CA7BF"/>
<rect width="13" height="25" transform="matrix(-1 0 0 1 361 168)" fill="#8CA7BF"/>
<rect width="13" height="38" transform="matrix(-1 0 0 1 337 164)" fill="#8CA7BF"/>
<path d="M488.226 151L479 152.381V172.774H488.226V151Z" fill="#8CA7BF"/>
<path d="M369 158L383 159.966V189H369V158Z" fill="#8CA7BF"/>
<path d="M417 165.785L412 163L407 165.785V185H417V165.785Z" fill="#8CA7BF"/>
<path d="M518 145.291L511.5 142L505 145.291V168H518V145.291Z" fill="#8CA7BF"/>
<path d="M552 146.038L545.5 143L539 146.038V167H552V146.038Z" fill="#8CA7BF"/>
<path d="M953 176.038L946.5 173L940 176.038V197H953V176.038Z" fill="#8CA7BF"/>
<path d="M1000 171.038L993.5 168L987 171.038V192H1000V171.038Z" fill="#8CA7BF"/>
<path d="M1012 167.671L1005.5 164L999 167.671V193H1012V167.671Z" fill="#8CA7BF"/>
<path d="M564 150.038L557.5 147L551 150.038V171H564V150.038Z" fill="#8CA7BF"/>
<path d="M471 153.038L464.5 150L458 153.038V174H471V153.038Z" fill="#8CA7BF"/>
<path d="M395 166.038L388.5 163L382 166.038V187H395V166.038Z" fill="#8CA7BF"/>
<path d="M349 173.165L342.5 170L336 173.165V195H349V173.165Z" fill="#8CA7BF"/>
<path d="M407.655 160.69L400.827 157L394 160.69V186.155H407.655V160.69Z" fill="#8CA7BF"/>
<rect width="12.5476" height="21.7738" transform="matrix(-1 0 0 1 540.547 142)" fill="#8CA7BF"/>
<rect width="12.5476" height="21.7738" transform="matrix(-1 0 0 1 964.548 173)" fill="#8CA7BF"/>
<path d="M977 172L963 169V191H977L977 172Z" fill="#8CA7BF"/>
<rect width="12" height="18" transform="matrix(-1 0 0 1 988 175)" fill="#8CA7BF"/>
<rect width="9" height="21" transform="matrix(-1 0 0 1 1020 171)" fill="#8CA7BF"/>
<rect width="12" height="18" transform="matrix(-1 0 0 1 1031 177)" fill="#8CA7BF"/>
<rect width="12" height="18" transform="matrix(-1 0 0 1 941 180)" fill="#8CA7BF"/>
<rect width="13" height="20" transform="matrix(-1 0 0 1 530 147)" fill="#8CA7BF"/>
</g>
<defs>
<clipPath id="clip0">
<rect width="1446" height="732" fill="white" transform="translate(0 0.000244141)"/>
</clipPath>
</defs>
</svg>
