<svg width="2880" height="732" viewBox="0 0 2880 732" fill="none" xmlns="http://www.w3.org/2000/svg">
<g clip-path="url(#clip0_800_144)">
<path fill-rule="evenodd" clip-rule="evenodd" d="M2528.87 0H2543.79C2546.74 9.83378 2548.65 25.3623 2548.65 42.8353C2548.65 43.4697 2548.65 44.1015 2548.64 44.7306H2548.65V128.59C2552.45 128.85 2556.26 129.194 2560.07 129.626V85.314H2583.84V76.1404H2608.61V80.9998H2626V145.091C2805.76 193.785 2880 123.718 2880 123.718V731.999H0V122.719C0 122.719 25.7199 125.961 67 132.091V112.028H79.1135V106.394L87.5993 102L96.085 106.394V112.855L102.221 109.328L109.356 113.43V120.184L115.492 116.657L122.628 120.758V140.695C128.327 141.611 134.165 142.561 140.128 143.542V125.628L146.106 121.771L151.085 124.983V121.8H162.656V128.48L169.756 124.885L177.856 128.987V137.595L184.957 134.3L193.057 138.059V152.578C261.394 164.671 339.246 180.153 411.5 198.5C503.904 221.962 608.638 209.54 714 190.063V159H727V167.677L732.5 165L738 167.677V163H750V160H759V153L773 154.966V160.57L778.5 158L784 160.57V155.69L790.827 152L797.654 155.69V160.42L802 158L807 160.785V171.746C820.724 168.977 834.399 166.232 848 163.577V148.038L854.5 145L860 147.57V138H870.333V147.181L878.226 146V157.826C883.834 156.792 889.426 155.781 895 154.799V132.291L901.5 129L908 132.291V134H917.999V129H930.547V132.315L935.5 130L942 133.038V136.57L947.5 134L954 137.038V145.575C978.925 142.273 1003.32 139.929 1027 139C1041.88 138.416 1056.88 138.338 1072 138.688V114.088L1079.5 112L1086 113.81V107L1103 110.234V139.969C1104.67 140.067 1106.33 140.169 1108 140.275V123H1117V119H1128V125.485L1133.5 124L1139 125.485V123H1152V126H1160V121.144L1166.5 115L1173 121.144V124.195L1185 126.536V147.819C1231.29 153.702 1277.93 161.652 1324.22 169.541C1423.13 186.399 1520.4 202.977 1609 198.499C1669.95 195.419 1711.2 183.838 1747.77 173.572C1762.96 169.306 1777.35 165.268 1792 162.16V143.038L1798.5 140L1804 142.57V140H1815V136L1829 139V142H1839V138.038L1845.5 135L1851 137.57V134.671L1857.5 131L1864 134.671V138H1872V144H1883V158.942C1917.25 163.819 1958.59 175.701 2013 198.499C2112.85 240.336 2205.23 217.907 2294.96 187.638V123.843H2318.73V111H2343.5V170.752C2346.25 169.784 2349 168.819 2351.75 167.857V115.587H2376.52V123.843H2400.37V151.574C2402.82 150.808 2405.27 150.054 2407.71 149.312V74.7069H2412.64V69.7791H2437.28V74.7069H2442.21V139.778C2443.72 139.407 2445.23 139.043 2446.74 138.686L2451.18 91.7023V54.3823L2451.09 54.3823L2454.86 52.8729L2457.82 21.6072L2460.78 52.8728L2464.55 54.3823L2464.45 54.3823V91.7019L2468.46 134.074C2473.46 133.142 2478.45 132.301 2483.45 131.564V66.3235H2487.24V65.1862H2492.93V62.5327H2495.2V56.8465H2495.96V46.9905H2497.09V56.8465H2497.85L2497.85 62.5327V65.1862H2501.64L2501.64 62.5327V56.8465H2502.4V46.9905H2503.54V56.8465H2504.3V62.5327H2506.57V65.1862H2512.26V66.3235H2516.05V128.316C2518.7 128.187 2521.35 128.093 2524.01 128.036V44.7306H2524.02C2524.01 44.1015 2524.01 43.4697 2524.01 42.8353C2524.01 25.3623 2525.91 9.83378 2528.87 0Z" fill="#8CA7BF"/>
</g>
<defs>
<clipPath id="clip0_800_144">
<rect width="2880" height="732" fill="white"/>
</clipPath>
</defs>
</svg>
