<svg width="2880" height="688" viewBox="0 0 2880 688" fill="none" xmlns="http://www.w3.org/2000/svg">
<g clip-path="url(#clip0_791_2491)">
<path fill-rule="evenodd" clip-rule="evenodd" d="M2555.58 0H2529.4C2524.22 17.2501 2520.87 44.4899 2520.87 75.1406C2520.87 76.2535 2520.88 77.3619 2520.89 78.4654H2520.87V260H2564.1V78.4654H2564.08C2564.09 77.3619 2564.1 76.2535 2564.1 75.1406C2564.1 44.4899 2560.75 17.2501 2555.58 0ZM2416.4 95.396V160.859L2425.79 260H2383.75L2393.13 160.863V95.396L2392.96 95.396L2399.58 92.7482L2404.77 37.9028L2409.96 92.7483L2416.57 95.396L2416.4 95.396ZM2482.97 82.4296H2484.97V99.7185H2486.3V109.693H2490.29V114.348H2500.26V116.343H2506.91V250H2481.64H2474.99H2449.72V116.343H2456.37V114.348H2466.35V109.693H2470.34V99.7185H2471.67V82.4296H2473.66V99.7185H2474.99V114.348H2474.99H2481.64V109.693H2481.64V99.7185H2482.97V82.4296ZM2325.51 122.404H2368.74V131.049H2377.38V280H2368.74H2325.51H2316.87V131.049H2325.51V122.404Z" fill="#6589AA"/>
<path d="M1268 185.065C1411.5 202.5 1483.5 301.5 1654.5 240.5C1825.5 179.5 1914.5 355 2087.5 355C2260.5 355 2299 207.334 2463 240.5C2627 273.666 2880 309 2880 309V728H0V95C0 95 68.5 191.63 169 185.065C269.5 178.5 466 35.791 569 66.5001C672 97.2091 839.5 262 959.5 262C1079.5 262 1124.5 167.63 1268 185.065Z" fill="#6589AA"/>
<path fill-rule="evenodd" clip-rule="evenodd" d="M500 31.1428H484V79.1428L499.571 79.1429H520.714V39.7143L510.143 34L500 39.4825V31.1428ZM639 74.6L654.333 70V78H672.295V93.5376L678.5 91L685 93.6582V104L701.21 106.848V148.905H685V133H672V124H654.333V113.152H639V74.6ZM2685 104H2643V149H2601V281H2643V286H2677V312H2719V130H2685V104ZM1230.11 140L1248.74 143.273V150H1261.56V156H1273.56V190H1260.56V184H1248.74V191.615H1230.11L1216 191.615V154.351L1223.55 151.833L1230.11 154.018V140ZM908.625 207L891 212.287V256.6H907.625V265.6H927.271V268.6H941.377V278.601H960.009V230.259L941.377 226.986V231.004L934.824 228.819L928.271 231.004V212.727H908.625V207ZM1553 222.734L1560.5 219L1568 222.734V231H1578V217H1595V262H1580V271H1568V278H1554V303H1541V238.376L1553 234.337V222.734ZM1406.47 192L1399 194.328V228.782H1413.94V194.328L1406.47 192ZM1384 196.401L1391.47 194L1398.94 196.401V231.931H1384V196.401ZM1442.47 213L1435 215.401V250.931H1449.94V245.184H1458.29V255.529H1470.93V215.697L1458.29 213V218.747H1449.94V215.401L1442.47 213ZM1281 166.121L1289.62 163.793L1297.24 165.851V162.642L1305.86 156L1314.48 162.642V169H1333.17V162.104L1345.82 165.165V210.379H1333.17V201.184H1314.48V201.402H1297.24V200.575H1281V166.121ZM1171.56 156.044L1155.56 153V159.266L1144.56 153L1132.56 159.835V174.672L1126.36 170.517L1119.12 175.367V169H1102V194.298L1095.55 190L1088 195.036V207H1075V233.689H1088.09V229.781H1103.11V221.874H1119.12V215.517H1134.86V207H1156.56V201H1171.56V156.044ZM1414 207H1427.09V233.689H1414V207ZM1909 229H1953V241H1983V256H2013V356H1981V350H1951V320H1909V229ZM1894 176H1862V296H1894V176ZM1773 152H1799V246H1774V264H1757V241H1738V147H1758V169H1773V152ZM1720 157H1692V167H1673V183H1653V194.237L1633 198.982V265H1654V256H1674V246H1692H1694H1720V157ZM2287 180H2245V155H2203V337H2245V312H2287V180ZM770 167H781.39V190.219H770V167ZM744.571 137.391L738 141.771V172H751V183H765.895V137H751V141.676L744.571 137.391ZM462.286 45L476.572 47.138V78.7143H462.286V45ZM448.857 53L435.429 57.2676V86.7143H462.286V57.2676L448.857 53ZM432.429 62H413V95.7143H432.429V62Z" fill="#6589AA"/>
</g>
<defs>
<clipPath id="clip0_791_2491">
<rect width="2880" height="688" fill="white"/>
</clipPath>
</defs>
</svg>
