<svg width="914" height="301" viewBox="0 0 914 301" fill="none" xmlns="http://www.w3.org/2000/svg">
<path fill-rule="evenodd" clip-rule="evenodd" d="M754.914 115C765.936 115 774.871 123.935 774.871 134.957C774.871 145.979 765.936 154.914 754.914 154.914H730.167C730.167 158.065 729.437 161.045 728.137 163.695H845.12C856.142 163.695 865.077 172.63 865.077 183.652H893.815C904.837 183.652 913.772 192.587 913.772 203.609C913.772 214.631 904.837 223.567 893.815 223.567H852.858C853.534 225.572 853.901 227.719 853.901 229.953C853.901 240.975 844.966 249.91 833.944 249.91H739.747C728.725 249.91 719.79 240.975 719.79 229.953C719.79 218.931 728.725 209.996 739.747 209.996H795.074C794.397 207.991 794.03 205.843 794.03 203.609H694.245C694.245 214.631 685.31 223.567 674.288 223.567H586.042C587.343 226.216 588.073 229.197 588.073 232.348H658.322C669.344 232.348 678.279 241.283 678.279 252.305C678.279 253.672 678.142 255.006 677.88 256.296H701.429C712.451 256.296 721.386 265.231 721.386 276.253C721.386 287.275 712.451 296.21 701.429 296.21H613.618C602.596 296.21 593.661 287.275 593.661 276.253C593.661 274.886 593.798 273.551 594.06 272.262H575.665C576.965 274.912 577.695 277.892 577.695 281.043C577.695 292.065 568.76 301 557.738 301H457.154C446.132 301 437.197 292.065 437.197 281.043C437.197 270.021 446.132 261.086 457.154 261.086H499.099C497.799 258.436 497.069 255.456 497.069 252.305H362.957C351.935 252.305 343 243.37 343 232.348C343 221.326 351.935 212.391 362.957 212.391H515.065C513.765 209.741 513.034 206.76 513.034 203.609C513.034 192.587 521.969 183.652 532.991 183.652H615.215C615.215 180.501 615.945 177.521 617.245 174.871H568.914C559.543 174.871 551.681 168.413 549.536 159.704H519.421C519.421 170.726 510.485 179.661 499.463 179.661H386.107C375.085 179.661 366.15 170.726 366.15 159.704C366.15 148.682 375.085 139.747 386.107 139.747L469.927 139.747C469.927 128.725 478.862 119.79 489.884 119.79H590.468C599.839 119.79 607.701 126.248 609.846 134.957L655.927 134.957C655.927 123.935 664.862 115 675.884 115H754.914Z" fill="white"/>
<path fill-rule="evenodd" clip-rule="evenodd" d="M426.014 0C435.395 0 443 7.60498 443 16.9862C443 26.3674 435.395 33.9724 426.014 33.9724H401.779C402.511 35.8698 402.913 37.9317 402.913 40.0874C402.913 49.4686 395.308 57.0736 385.926 57.0736H233.917C234.239 58.3796 234.41 59.745 234.41 61.1503L247.319 61.1503C256.7 61.1503 264.305 68.7553 264.305 78.1365C264.305 87.5177 256.7 95.1227 247.319 95.1227H221.81C222.917 97.3781 223.538 99.9148 223.538 102.597C223.538 111.978 215.933 119.583 206.552 119.583H120.262C120.262 128.964 112.657 136.569 103.276 136.569H16.9862C7.60498 136.569 0 128.964 0 119.583C0 110.202 7.60499 102.597 16.9862 102.597H38.0491C38.0491 93.2154 45.6541 85.6104 55.0353 85.6104H153.245C152.138 83.3551 151.517 80.8184 151.517 78.1365L133.851 78.1365C124.47 78.1365 116.865 70.5315 116.865 61.1503H80.1748C70.7936 61.1503 63.1886 53.5453 63.1886 44.1641C63.1886 34.7829 70.7936 27.1779 80.1748 27.1779H122.301C131.682 27.1779 139.287 34.7829 139.287 44.1641H183.943C183.622 42.8581 183.451 41.4927 183.451 40.0874C183.451 30.7062 191.056 23.1012 200.437 23.1012H325.231C324.498 21.2038 324.097 19.1419 324.097 16.9862C324.097 7.60498 331.702 0 341.083 0H426.014Z" fill="white"/>
</svg>
