<svg width="1440" height="335" viewBox="0 0 1440 335" fill="none" xmlns="http://www.w3.org/2000/svg">
<path d="M987 101L1005.5 91L1024 101V170H987V101Z" fill="#456684"/>
<path d="M1040 93.3924L1064 82L1088 93.3924V172H1040V93.3924Z" fill="#456684"/>
<path d="M1088 78.6329L1109 68L1130 78.6329V152H1088V78.6329Z" fill="#456684"/>
<path d="M1130 58.3924L1152 47L1174 58.3924V137H1130V58.3924Z" fill="#456684"/>
<path d="M1189 22.6329L1207.5 12L1226 22.6329V96H1189V22.6329Z" fill="#456684"/>
<path d="M1226 10.6329L1244.5 0L1263 10.6329V84H1226V10.6329Z" fill="#456684"/>
<path d="M273 33L235 39.1512V130H273V33Z" fill="#456684"/>
<path d="M437 11L403 16.6439V100H437V11Z" fill="#456684"/>
<path d="M403 25.2785L382.5 13L362 25.2785V110H403V25.2785Z" fill="#456684"/>
<path d="M314 65.3797L293.5 55L273 65.3797V137H314V65.3797Z" fill="#456684"/>
<path d="M235 33.0253L210 21L185 33.0253V116H235V33.0253Z" fill="#456684"/>
<rect width="38" height="70" transform="matrix(-1 0 0 1 352 50)" fill="#456684"/>
<path d="M610 113.5C659 112.5 717.5 39.0001 796.5 86.0001C875.5 133 905 91.5 960 125.5C1015 159.5 1083.5 143 1124.5 125.5C1165.5 108 1215.84 42.4581 1266 37.5001C1352 29 1440 67.0001 1440 67.0001V435H0V75.5001C0 75.5001 74.5 71.5 121.5 57.5C168.5 43.5 212 110.5 263.5 123C315 135.5 402.5 75.5001 462.5 75.5001C522.5 75.5001 561 114.5 610 113.5Z" fill="#456684"/>
</svg>
