<svg width="2880" height="766" viewBox="0 0 2880 766" fill="none" xmlns="http://www.w3.org/2000/svg">
<g clip-path="url(#clip0_791_2391)">
<path fill-rule="evenodd" clip-rule="evenodd" d="M893.367 6.5526V0H899.349V5.27265L899.505 5.27117C899.886 45.1557 902.088 140.065 907.851 218.963C910.679 222.526 913.754 226.731 917.096 231.684L915.807 232.553C913.037 228.448 910.458 224.868 908.057 221.751C908.324 225.331 908.598 228.875 908.879 232.378C916.973 245.041 926.063 262.746 934.99 287H818C827.059 262.389 836.284 244.523 844.467 231.824C844.762 228.14 845.048 224.411 845.327 220.645C842.685 224.014 839.82 227.954 836.718 232.553L835.429 231.684C839.11 226.227 842.468 221.678 845.528 217.896C850.352 151.376 852.658 73.7415 853.485 27.337V0H859.468V6.5526C859.468 7.69219 862.259 9.97136 865.45 9.97136H876.417H876.417H887.385C890.575 9.97136 893.367 7.69219 893.367 6.5526ZM904.436 214.826C903.901 207.28 903.398 199.601 902.925 191.851V213.108C903.42 213.658 903.923 214.231 904.436 214.826ZM902.925 215.456C903.48 216.094 904.046 216.76 904.624 217.455C904.857 220.685 905.096 223.889 905.342 227.063C904.523 225.883 903.717 224.757 902.925 223.682V215.456ZM901.992 212.084V175.785C901.547 167.724 901.133 159.632 900.749 151.574L900.749 210.764C901.156 211.188 901.571 211.628 901.992 212.084ZM900.749 213.029C901.156 213.468 901.571 213.924 901.992 214.396V222.431C901.573 221.876 901.159 221.335 900.749 220.809V213.029ZM899.816 209.811L899.816 130.785C899.654 126.94 899.498 123.117 899.349 119.323V209.346C899.504 209.499 899.659 209.653 899.816 209.811ZM899.349 211.554C899.504 211.713 899.659 211.874 899.816 212.038V219.627C899.66 219.432 899.504 219.238 899.349 219.047V211.554ZM893.367 204.173L893.367 183.074C893.367 180.099 892.885 177.569 892.198 175.576V203.357C892.578 203.611 892.968 203.883 893.367 204.173ZM892.198 205.247C892.577 205.518 892.967 205.808 893.367 206.118L893.367 212.293C892.969 211.887 892.579 211.498 892.198 211.126V205.247ZM891.576 202.952L891.576 175.427C891.528 176.78 891.48 178.093 891.433 179.365C891.271 183.692 891.11 187.545 890.949 190.919H890.954V202.57C891.158 202.692 891.366 202.819 891.576 202.952ZM890.954 204.4C891.158 204.532 891.365 204.669 891.576 204.812V210.527C891.366 210.327 891.158 210.133 890.954 209.944V204.4ZM890.332 202.209V201.393C890.311 201.661 890.291 201.922 890.27 202.175C890.291 202.186 890.311 202.198 890.332 202.209ZM890.119 203.882C890.19 203.924 890.261 203.966 890.332 204.01V209.376C889.99 209.069 889.657 208.777 889.332 208.5L889.334 208.496C889.396 208.377 889.448 208.234 889.495 208.078C889.68 207.466 889.85 206.4 890.013 204.92C890.048 204.596 890.084 204.249 890.119 203.882ZM889.372 201.7C889.437 200.885 889.501 199.995 889.565 199.031C889.88 194.261 890.188 187.684 890.501 179.33C890.581 177.174 890.662 174.899 890.743 172.507C889.899 171.207 889.018 170.51 888.382 170.51H885.792C886.283 179.372 886.733 186.656 887.149 192.388C887.399 195.826 887.636 198.702 887.863 201.022C888.346 201.213 888.849 201.438 889.372 201.7ZM888.045 202.789C888.424 202.961 888.819 203.157 889.23 203.377C889.182 203.898 889.134 204.379 889.085 204.818C888.961 205.945 888.838 206.786 888.716 207.353C888.71 207.327 888.704 207.301 888.698 207.273C888.607 206.878 888.514 206.364 888.417 205.726C888.296 204.929 888.172 203.951 888.045 202.789ZM886.892 200.673C886.873 200.47 886.853 200.264 886.834 200.053V200.654C886.853 200.66 886.873 200.666 886.892 200.673ZM886.834 202.295C886.909 202.322 886.986 202.35 887.063 202.38C887.211 203.779 887.354 204.941 887.495 205.866C887.572 206.374 887.648 206.816 887.725 207.188C887.418 206.95 887.121 206.726 886.834 206.518V202.295ZM886.367 200.515V194.454C886.318 193.81 886.269 193.144 886.219 192.455C886.017 189.681 885.808 186.543 885.59 183.04V200.323C885.842 200.377 886.101 200.44 886.367 200.515ZM885.59 201.918C885.839 201.979 886.099 202.052 886.367 202.137V206.185C886.098 205.997 885.839 205.823 885.59 205.662V201.918ZM885.124 200.234V175.224C885.036 173.706 884.948 172.134 884.858 170.51H884.735V200.176C884.863 200.192 884.992 200.212 885.124 200.234ZM884.735 201.746C884.862 201.766 884.991 201.789 885.124 201.815V205.368C885.04 205.317 884.957 205.268 884.876 205.22C884.829 205.192 884.782 205.164 884.735 205.137V201.746ZM848.75 216.444C848.506 219.846 848.256 223.22 847.999 226.561C848.538 225.79 849.072 225.043 849.599 224.318V215.456C849.319 215.778 849.036 216.107 848.75 216.444ZM849.599 213.108C849.379 213.352 849.158 213.602 848.934 213.855C849.162 210.625 849.383 207.372 849.599 204.1V213.108ZM850.532 214.396V223.052C850.951 222.49 851.365 221.943 851.776 221.41V213.029C851.368 213.469 850.954 213.924 850.532 214.396ZM851.776 210.765C851.368 211.188 850.953 211.628 850.532 212.084V189.282C850.973 181.935 851.387 174.529 851.776 167.117L851.776 210.765ZM852.709 212.038V220.214C852.969 219.883 853.228 219.559 853.485 219.24V211.237C853.229 211.497 852.97 211.764 852.709 212.038ZM853.485 209.041C853.229 209.291 852.97 209.548 852.709 209.811L852.709 148.288C852.983 142.427 853.242 136.59 853.485 130.802V209.041ZM859.468 205.88L859.468 212.452C859.758 212.154 860.045 211.865 860.327 211.584V205.247C860.046 205.447 859.76 205.659 859.468 205.88ZM860.327 203.357C860.045 203.545 859.759 203.742 859.468 203.95L859.468 183.074C859.468 180.571 859.809 178.382 860.327 176.563V203.357ZM860.949 204.813V210.974C861.158 210.771 861.366 210.572 861.57 210.379V204.4C861.366 204.532 861.159 204.669 860.949 204.813ZM861.57 202.57C861.366 202.692 861.159 202.819 860.949 202.952L860.949 175.421C860.996 176.777 861.044 178.092 861.092 179.365C861.253 183.692 861.414 187.545 861.575 190.919H861.57L861.57 202.57ZM862.192 204.01V209.8C862.595 209.43 862.988 209.079 863.369 208.749C863.285 208.665 863.228 208.57 863.19 208.496C863.129 208.377 863.076 208.234 863.029 208.078C862.844 207.466 862.675 206.4 862.512 204.92C862.476 204.596 862.44 204.249 862.405 203.882L862.35 203.915L862.259 203.969L862.192 204.01ZM862.254 202.175L862.192 202.209V201.391C862.213 201.66 862.234 201.921 862.254 202.175ZM863.295 203.377C863.342 203.898 863.391 204.379 863.439 204.818C863.563 205.945 863.687 206.786 863.808 207.353C863.814 207.327 863.82 207.301 863.827 207.273C863.917 206.878 864.011 206.364 864.108 205.726C864.228 204.929 864.352 203.951 864.479 202.789C864.1 202.961 863.705 203.157 863.295 203.377ZM864.662 201.022C864.179 201.213 863.676 201.438 863.152 201.7C863.088 200.885 863.024 199.995 862.96 199.031C862.644 194.261 862.336 187.684 862.024 179.33C861.949 177.318 861.873 175.204 861.797 172.987C862.726 171.379 863.742 170.51 864.453 170.51H866.732C866.241 179.372 865.791 186.656 865.375 192.388C865.126 195.826 864.888 198.702 864.662 201.022ZM865.461 202.38C865.314 203.779 865.17 204.941 865.03 205.866C864.931 206.516 864.834 207.055 864.736 207.482C864.724 207.534 864.712 207.585 864.7 207.635C865.041 207.36 865.371 207.103 865.69 206.863V202.295C865.637 202.314 865.584 202.334 865.53 202.354L865.461 202.38ZM865.69 200.654L865.632 200.673C865.652 200.471 865.671 200.265 865.69 200.055V200.654ZM866.157 202.137V206.517C866.425 206.323 866.684 206.14 866.934 205.971V201.918C866.685 201.979 866.426 202.052 866.157 202.137ZM866.934 200.323C866.682 200.377 866.423 200.44 866.157 200.515L866.157 194.456C866.206 193.812 866.256 193.145 866.306 192.455C866.507 189.682 866.716 186.545 866.934 183.043V200.323ZM867.401 201.815V205.662C867.533 205.576 867.662 205.494 867.789 205.416V201.746C867.663 201.766 867.533 201.789 867.401 201.815ZM867.789 200.176C867.662 200.192 867.532 200.212 867.401 200.234L867.401 175.227C867.488 173.708 867.577 172.135 867.667 170.51H867.789V200.176ZM865.45 155.553H867.526C867.613 153.864 867.7 152.134 867.789 150.362V129.974H869.999V132.431C869.999 132.858 871.031 133.712 872.21 133.712H876.262V129.974H876.262V133.712H880.315C881.494 133.712 882.525 132.858 882.525 132.431V129.974H884.735V150.364C884.824 152.135 884.912 153.865 884.998 155.553H887.385C888.862 155.553 890.253 154.821 891.322 153.864C891.64 142.783 891.971 130.047 892.325 115.686C891.208 112.487 889.451 110.682 888.382 110.682H876.417H876.417H864.453C863.286 110.682 861.301 112.83 860.221 116.593C860.564 130.454 860.885 142.787 861.194 153.563C862.297 154.663 863.821 155.553 865.45 155.553ZM893.367 150.425C893.367 151.076 892.962 151.975 892.284 152.839C892.567 142.935 892.86 131.735 893.17 119.261C893.296 120.184 893.367 121.172 893.367 122.22V150.425ZM859.468 150.425V123.783C859.732 134.275 859.983 143.817 860.228 152.395C859.746 151.675 859.468 150.965 859.468 150.425ZM869.999 204.3H876.262V193.9H871.841C871.227 193.9 869.999 195.68 869.999 198.611L869.999 204.3ZM876.262 204.3H882.525L882.525 198.611C882.525 195.68 881.297 193.9 880.683 193.9H876.262V204.3ZM870.033 155.553H876.262V152.778H871.841C871.287 152.778 870.233 153.813 870.033 155.553ZM876.417 155.553H882.492C882.291 153.813 881.237 152.778 880.683 152.778H876.262V155.553H876.417ZM865.45 95.7251H876.417H876.417H887.385C890.575 95.7251 893.367 93.0661 893.367 91.7365V69.7995C893.367 64.2156 890.044 60.8253 888.382 60.8253H876.417H876.417H864.453C862.791 60.8253 859.468 64.2156 859.468 69.7995V91.7365C859.468 93.0661 862.259 95.7251 865.45 95.7251ZM876.417 49.8568H865.45C862.259 49.8568 859.468 47.5776 859.468 46.4381V27.6349C859.468 22.8487 862.791 19.9427 864.453 19.9427H876.417H876.417H888.382C890.044 19.9427 893.367 22.8487 893.367 27.6349V46.4381C893.367 47.5776 890.575 49.8568 887.385 49.8568H876.417H876.417ZM876.262 137.451V148.666H872.21C871.031 148.666 869.999 147.811 869.999 147.384V140.335C869.999 138.54 871.227 137.451 871.841 137.451H876.262ZM876.262 148.666V137.451H880.683C881.297 137.451 882.525 138.54 882.525 140.335V147.384C882.525 147.811 881.494 148.666 880.315 148.666H876.262ZM876.262 188.293V171.47H880.683C881.297 171.47 882.525 173.104 882.525 175.796V186.37C882.525 187.011 881.494 188.293 880.315 188.293H876.262ZM876.262 171.47V188.293H872.21C871.031 188.293 869.999 187.011 869.999 186.37V175.796C869.999 173.104 871.227 171.47 871.841 171.47H876.262ZM864.039 208.101C864.039 208.101 864.038 208.1 864.036 208.098C864.038 208.1 864.038 208.101 864.039 208.101Z" fill="#8CA7BF"/>
<path d="M1393.5 270.5C1272 230 1257.5 185 1118.5 185C979.5 185 903.5 264.509 836 216.5C768.5 168.491 664.5 188.671 558.5 207C452.5 225.329 290.5 158.5 199 128C107.5 97.5 0 128 0 128V766H2880V299.5C2880 299.5 2843 272.41 2777.5 255.685C2712 238.96 2593.5 379.578 2413 255.685C2232.5 131.792 2041.5 363.5 1807.5 270.5C1573.5 177.5 1515 311 1393.5 270.5Z" fill="#8CA7BF"/>
<path fill-rule="evenodd" clip-rule="evenodd" d="M150.6 89L159.086 93.3942V99.8552L165.222 96.3286L172.357 100.43V107.184L178.493 103.657L185.629 107.758V136.057H171.357V128.729H158.086V123.714H143.114V126.029H130V99.0286H142.115V93.3942L150.6 89ZM209.107 108.771L215.086 112.629V113H225.571V115.524L232.757 111.886L240.857 115.987V124.595L247.957 121.3L255 124.569V121.089L262.5 119L269 120.81V114L286 117.234V165H269V152H255V151H239.857V144.286H224.657V140H214V139.243H203.129V112.629L209.107 108.771ZM309 166H301V168H291V136H300V126H311V142.485L316.5 141L322 142.485V141H335V148H343V146.144L349.5 140L356 146.144V150.195L368 152.537V155H380V193H367V190H355V182H345H343H332V175H322V173H309V166ZM2001 259H2011.33V268.181L2019.23 267V288.774H2011.33V290L2002 290L2001 290L1989 290V269.038L1995.5 266L2001 268.571V259ZM1880 294H1868V290H1856V268.165L1862.5 265L1869 268.165V269H1881V272H1889V269L1903 270.966V272.038L1909.5 269L1915 271.57V269.69L1921.83 266L1928.65 269.69V275.42L1933 273L1938 275.785V295H1928.65V295.155H1915V293H1903V300H1889V297H1880V294ZM2048 257.291L2041.5 254L2035 257.291V280H2048V279H2060L2060 274.774H2072.55V269H2084V266H2097V245.038L2090.5 242L2084 245.038V248.038L2077.5 245L2071 248.038V253H2060L2060 259H2048V257.291ZM1082 171.57L1076.5 169L1070 172.038V176H1059V194H1071V193H1083V190.774H1094.55V187H1106V189H1118V188H1129V189H1142V188H1149V191H1161V173H1150V167H1142V163.671L1135.5 160L1129 163.671V166.571L1123.5 164L1117 167.038V171H1107V168L1093 165V169H1082V171.57Z" fill="#8CA7BF"/>
</g>
<defs>
<clipPath id="clip0_791_2391">
<rect width="2880" height="766" fill="white"/>
</clipPath>
</defs>
</svg>
