<svg width="1440" height="423" viewBox="0 0 1440 423" fill="none" xmlns="http://www.w3.org/2000/svg">
<g clip-path="url(#clip0)">
<path d="M282 82L266.5 72L251 82V151H282V82Z" fill="#456684"/>
<path d="M394 142.747L373 133L352 142.747V210H394V142.747Z" fill="#456684"/>
<path d="M352 116.633L331 106L310 116.633V190H352V116.633Z" fill="#456684"/>
<path d="M139 11.3924L117 0L95 11.3924V90H139V11.3924Z" fill="#456684"/>
<path d="M38 43.5063L19 33L4.76837e-07 43.5063V116H38V43.5063Z" fill="#456684"/>
<path d="M175 29.6329L156.5 19L138 29.6329V103H175V29.6329Z" fill="#456684"/>
<path d="M211 48.6329L192.5 38L174 48.6329V122H211V48.6329Z" fill="#456684"/>
<rect x="281" y="98" width="30" height="70" fill="#456684"/>
<rect x="62" y="26" width="34" height="70" fill="#456684"/>
<path d="M1257 59L1219 64.3902V144H1257V59Z" fill="#456684"/>
<path d="M994 49L956 54.2V131H994V49Z" fill="#456684"/>
<path d="M1312 39L1272 43.9463V117H1312V39Z" fill="#456684"/>
<path d="M1311 28.2785L1331.5 16L1352 28.2785V113H1311V28.2785Z" fill="#456684"/>
<path d="M1179 85.3924L1199.5 74L1220 85.3924V164H1179V85.3924Z" fill="#456684"/>
<path d="M835 96.3924L855.5 85L876 96.3924V175H835V96.3924Z" fill="#456684"/>
<path d="M749 88.3924L769.5 77L790 88.3924V167H749V88.3924Z" fill="#456684"/>
<path d="M717 80.3924L734 69L751 80.3924V159H717V80.3924Z" fill="#456684"/>
<path d="M916 71.6456L936.5 60L957 71.6456V152H916V71.6456Z" fill="#456684"/>
<path d="M1390 55.0253L1415 43L1440 55.0253V138H1390V55.0253Z" fill="#456684"/>
<rect x="1351" y="43" width="40" height="70" fill="#456684"/>
<rect x="789" y="105" width="24" height="75" fill="#456684"/>
<rect x="875" y="83" width="42" height="66" fill="#456684"/>
<path d="M29 50.5L63 39V109H29V50.5Z" fill="#456684"/>
<path d="M830 151.5C781 150.5 722.5 77.0001 643.5 124C564.5 171 535 129.5 480 163.5C425 197.5 356.5 181 315.5 163.5C274.5 146 224.163 80.4581 174 75.5001C88.0005 67 0 105 0 105V423H1440V113.5C1440 113.5 1365.5 109.5 1318.5 95.5C1271.5 81.5 1228 148.5 1176.5 161C1125 173.5 1037.5 113.5 977.5 113.5C917.5 113.5 879 152.5 830 151.5Z" fill="#456684"/>
</g>
<defs>
<clipPath id="clip0">
<rect width="1440" height="423" fill="white" transform="matrix(-1 0 0 1 1440 0)"/>
</clipPath>
</defs>
</svg>
