<svg width="1440" height="504" viewBox="0 0 1440 504" fill="none" xmlns="http://www.w3.org/2000/svg">
<g clip-path="url(#clip0)">
<path d="M122 88.0067C82.5 114.007 0 121.007 0 121.007V504.028H1440V101.028C1440 101.028 1412.5 76.0282 1331 90.5281C1249.5 105.028 1254.5 123.5 1182.5 132C1110.5 140.5 1116.5 178 1052.5 172C988.5 166 965 147.028 908 164.028C851 181.028 818 187.028 760.5 152.528C703 118.028 692.5 101.028 634 121.007C575.5 140.985 530 82.9997 486.5 71.9999C443 61.0001 388 76.5281 358 76.0281C328 75.528 277.5 51.5 228 55.5C178.5 59.5 161.5 62.0068 122 88.0067Z" fill="#507496"/>
<path d="M475.217 44.4398L496.532 38.0454V98.0313H475.217V44.4398Z" fill="#507496"/>
<path d="M204 7.24873L230 0V68H204V7.24873Z" fill="#507496"/>
<path d="M76 66.7157L50 60V123H76V66.7157Z" fill="#507496"/>
<rect x="142.27" y="34" width="24.9687" height="63.9443" fill="#507496"/>
<rect x="275" y="24" width="24.9687" height="63.9443" fill="#507496"/>
<path d="M125 50.8787L134.135 47.8337L143.27 50.8787V95.9442H125V50.8787Z" fill="#507496"/>
<path d="M436.716 12.2141L459.591 26.368V87.7015H436.716V12.2141Z" fill="#507496"/>
<path d="M777.875 106L755 120.154V181.487H777.875V106Z" fill="#507496"/>
<path d="M980 106L952 111.375V165H980V106Z" fill="#507496"/>
<path d="M1125 94L1157 99.375V153H1125V94Z" fill="#507496"/>
<path d="M1380 49L1354 53.7373V101H1380V49Z" fill="#507496"/>
<rect x="496" y="48" width="23.6316" height="44.483" fill="#507496"/>
<path d="M458.591 36.1749L467.741 29.3704L476.891 36.1749V83.1265H458.591V36.1749Z" fill="#507496"/>
<path d="M411.304 29.124L424.51 22.4375L437.716 29.124V75.2611H411.304V29.124Z" fill="#507496"/>
<path d="M852.412 139.687L839.206 133L826 139.687V185.824H852.412V139.687Z" fill="#507496"/>
<path d="M953 113.089L940 106L927 113.089V162H953V113.089Z" fill="#507496"/>
<path d="M1031 129.089L1018 122L1005 129.089V178H1031V129.089Z" fill="#507496"/>
<path d="M1107 127.709L1097.5 121L1088 127.709V174H1107V127.709Z" fill="#507496"/>
<path d="M1440 49.5949L1422.5 42L1405 49.5949V102H1440V49.5949Z" fill="#507496"/>
<path d="M1189 91.0886L1172 84L1155 91.0886V140H1189V91.0886Z" fill="#507496"/>
<path d="M1242 79.7215L1225 72L1208 79.7215V133H1242V79.7215Z" fill="#507496"/>
<path d="M758.412 110.687L745.206 104L732 110.687V156.824H758.412V110.687Z" fill="#507496"/>
<path d="M829 133.595L813 126L797 133.595V186H829V133.595Z" fill="#507496"/>
<path d="M366 35.6865L379.206 29L392.412 35.6865V81.8236H366V35.6865Z" fill="#507496"/>
<path d="M928 125.089L915 118L902 125.089V174H928V125.089Z" fill="#507496"/>
<path d="M0 89.6865L13.2059 83L26.4118 89.6865V135.824H0V89.6865Z" fill="#507496"/>
<path d="M250.241 37.148L263.447 30.4614L276.653 37.148V83.285H250.241V37.148Z" fill="#507496"/>
<path d="M166 23.7342L185.5 15L205 23.7342V84H166V23.7342Z" fill="#507496"/>
<path d="M229 20.3084L240.121 12.3901L251.242 20.3084V74.9444H229V20.3084Z" fill="#507496"/>
<rect x="391.453" y="11" width="20.8514" height="76.4552" fill="#507496"/>
<rect width="20.8514" height="76.4552" transform="matrix(-1 0 0 1 1126.85 108)" fill="#507496"/>
<rect width="26" height="76" transform="matrix(-1 0 0 1 877 126)" fill="#507496"/>
<rect width="27" height="74" transform="matrix(-1 0 0 1 903 133)" fill="#507496"/>
<rect width="27" height="74" transform="matrix(-1 0 0 1 1006 116)" fill="#507496"/>
<rect width="20.8514" height="76.4552" transform="matrix(-1 0 0 1 1208.85 74)" fill="#507496"/>
<rect width="27" height="74" transform="matrix(-1 0 0 1 1406 38)" fill="#507496"/>
<rect width="20.8514" height="76.4552" transform="matrix(-1 0 0 1 797.851 116)" fill="#507496"/>
<path d="M25 69.7215L38 62L51 69.7215V123H25V69.7215Z" fill="#507496"/>
</g>
<defs>
<clipPath id="clip0">
<rect width="1440" height="504.028" fill="white"/>
</clipPath>
</defs>
</svg>
