<svg width="1440" height="727" viewBox="0 0 1440 727" fill="none" xmlns="http://www.w3.org/2000/svg">
<path d="M140.635 432.232L140.635 30.7645M99.7307 74.4536L99.7005 4M99.7307 74.4536H181.538M99.7307 74.4536L140.634 88.6117M99.7307 74.4536H69M99.7307 74.4536L79.2335 66.6778M99.7307 74.4536L140.604 88.6117M99.7307 74.4536L124.378 185.448M181.538 74.4536L181.568 4M181.538 74.4536L140.634 88.6117M181.538 74.4536L140.604 88.6117M181.538 74.4536H211.482M181.538 74.4536L202.005 66.6778M181.538 74.4536L158.465 185.448M140.634 88.6117L122.499 95.4196M140.604 88.6117L158.74 95.4196M158.465 185.448L140.422 192.075L124.378 185.448M158.465 185.448H124.378M158.465 185.448L191.803 396.808M124.378 185.448L87.8926 396.808M140.634 257.977L167.904 248.974H113.365L140.634 257.977ZM141.422 335.752L178.917 320.372H103.927L141.422 335.752Z" stroke="#507496" stroke-width="7.87191" stroke-linecap="round" stroke-linejoin="round"/>
<path d="M122 381.007C82.5 407.007 0 414.007 0 414.007V825.028H1440V394.028C1440 394.028 1412.5 369.028 1331 383.528C1249.5 398.028 1260.5 437.028 1188.5 445.528C1116.5 454.028 1089.5 500.528 1025.5 494.528C961.5 488.528 965 440.028 908 457.028C851 474.028 818 480.028 760.5 445.528C703 411.028 692.5 394.028 634 414.007C575.5 433.985 523.5 339.528 480 328.528C436.5 317.529 388 369.528 358 369.028C328 368.528 273.5 324.528 224 328.528C174.5 332.528 161.5 355.007 122 381.007Z" fill="#507496"/>
<path d="M961.733 436.175L980.369 430.585V483.031H961.733V436.175Z" fill="#507496"/>
<path d="M834.118 425.052L857.21 419.092V475H834.118V425.052Z" fill="#507496"/>
<rect x="796.441" y="419.092" width="21.8306" height="55.9077" fill="#507496"/>
<path d="M818.271 435.598L826.258 432.936L834.245 435.598V475H818.271V435.598Z" fill="#507496"/>
<path d="M942 408L962 420.375V474H942V408Z" fill="#507496"/>
<rect x="864.502" y="434.892" width="20.6615" height="38.8923" fill="#507496"/>
<path d="M885 428.949L893 423L901 428.949V470H885V428.949Z" fill="#507496"/>
<path d="M919.194 422.785L930.74 416.938L942.287 422.785V463.123H919.194V422.785Z" fill="#507496"/>
<path d="M762.41 429.8L773.956 423.954L785.502 429.8V470.138H762.41V429.8Z" fill="#507496"/>
<path d="M742.964 415.077L752.687 408.154L762.41 415.077V462.846H742.964V415.077Z" fill="#507496"/>
<rect x="900.964" y="406.938" width="18.2308" height="66.8462" fill="#507496"/>
</svg>
