<svg width="2880" height="433" viewBox="0 0 2880 433" fill="none" xmlns="http://www.w3.org/2000/svg">
<g clip-path="url(#clip0_800_338)">
<path fill-rule="evenodd" clip-rule="evenodd" d="M257 0L279 11.3924V29.0582L296.5 19L315 29.6329V48.0582L332.5 38L351 48.6329V90.9342C370.262 95.1781 390.452 101.45 411 108.885V52L426.5 42L442 52V68H471V86.1266L491 76L512 86.6329V112.747L533 103L554 112.747V169.23C585.072 182.497 613.556 193.493 637 198.5C693.227 210.509 761.914 202.299 835 184.983V126.392L855.5 115L875 125.837V113H916V101.646L936.5 90L956 101.077V84.2L994 79V145.987C1025.28 143.66 1055.86 146.458 1087.62 149.363C1116.63 152.017 1146.62 154.761 1179 153.769V95.3924L1199.5 84L1219 94.8367V74.3902L1257 69V143.503C1263.72 141.897 1270.55 140.07 1277.5 138C1364.96 111.965 1450.89 141.561 1526.96 167.758C1528.31 168.223 1529.66 168.687 1531 169.15V110.392L1548 99L1565 110.392V117.281L1583.5 107L1604 118.392V135H1627V196.345C1635.58 197.654 1643.92 198.417 1652 198.5C1698.84 198.978 1742.7 181.816 1788.84 163.766C1820.88 151.23 1854.02 138.267 1890 130.485V65.9463L1929 61.1237V50.2785L1949.5 38L1970 50.2785V65H2009V76.5443L2033 65L2058 77.0253V141.988C2078.08 148.582 2097.69 156.233 2116.99 163.767C2170.92 184.814 2222.48 204.939 2275.5 198.5C2277.65 198.239 2279.82 197.934 2282 197.589V138.392L2302.5 127L2323 138.392V187.283C2329.9 185.017 2336.91 182.498 2344 179.778V118.392L2364.5 107L2384 117.837V95.3924L2404.5 84L2423 94.281V75H2464V126.643C2522 101.095 2581.74 79.5746 2638.5 83.4999C2665.63 85.3759 2692.53 90.7924 2718 98.0966V45H2759V111.773C2764.8 113.971 2770.48 116.228 2776 118.519V72.3924L2796.5 61L2817 72.3924V81.8367L2836.5 71L2857 82.3924V107.281L2875.5 97L2896 108.392V187H2880V433H0V114.762C0 114.762 10.3887 111.92 29 107.964V60.5L63 49V101.376C84.3567 97.612 110.409 93.6856 140 90.5196V43.5063L159 33L178 43.5063V87.0798C185.825 86.5006 193.831 85.9883 202 85.5558V26H235V11.3924L257 0Z" fill="#456684"/>
</g>
<defs>
<clipPath id="clip0_800_338">
<rect width="2880" height="433" fill="white" transform="matrix(-1 0 0 1 2880 0)"/>
</clipPath>
</defs>
</svg>
