<svg width="2880" height="546" viewBox="0 0 2880 546" fill="none" xmlns="http://www.w3.org/2000/svg">
<g clip-path="url(#clip0_800_296)">
<path fill-rule="evenodd" clip-rule="evenodd" d="M2658 0H2631V72.5992C2628.01 73.2802 2625.01 74.0001 2622 74.7544V7H2595V17H2575V88.5189C2569.39 90.3178 2563.75 92.153 2558.09 93.997C2487.68 116.92 2413.12 141.193 2332 113.95C2326.55 112.12 2321.22 110.549 2316 109.218V58.5949L2298.5 51L2282 58.1609V47H2255V58.1822L2230 62.7373V107.752C2198.7 114.946 2171.73 129.522 2146.46 143.18C2142.6 145.264 2138.79 147.327 2135 149.339V120.076L2122 114L2109 120.076V128.141L2098 123L2085 129.076V137.141L2074 132L2061 138.076V174.042C2059.34 174.06 2057.67 174.031 2056 173.953C2054.67 173.891 2053.34 173.804 2052 173.694V103H2025V168.663C2002.18 162.314 1978.66 151.156 1953.95 139.432C1901.83 114.701 1844.4 87.4494 1777 97.5002C1760.25 99.9984 1745.44 104.85 1732 111.2V78.7215L1715 71L1698.85 78.3347V73H1678V100.08L1662 89L1645 100.772V126.747L1615 120V139H1596V164.928L1587.5 157L1578 165.861V210.637C1562.22 213.19 1544.57 212.153 1524 205.983C1495.88 197.547 1473.2 189.469 1453.28 182.372C1434.1 175.543 1417.48 169.621 1401 165.159V119.734L1388 111L1376 119.062V103H1350V91L1322 97.6504V99.0623L1310 91L1297 99.7342V114.062L1285 106L1272 114.734V124H1247V116H1221V137.972L1209.21 132L1199 137.168V132.595L1183 125L1167.85 132.191V115H1147.88V105L1128.41 117.043V109.687L1115.21 103L1102 109.687V148.027C1089.78 144.524 1077.8 140.82 1066 137.175C1033.9 127.255 1003.21 117.77 973 113.95C922.607 107.578 866.007 128.887 815.638 147.85L815.637 147.851L815.633 147.852L815.551 147.883C814.396 148.318 813.244 148.751 812.096 149.183C811.273 149.493 810.451 149.802 809.632 150.11V119.955H786.532V110L765.217 116.394V128.559L757.742 123L749.592 129.061V116.154L726.717 102V133.18L714.511 127L701.305 133.687V171.798C698.287 171.154 695.292 170.376 692.305 169.481V94H671.453V118.201L659.206 112L646 118.687V148.835C644.421 148.005 642.827 147.166 641.217 146.318C612.075 130.967 577.75 112.886 528.969 102.307V54H504V66.311L492.447 60.4614L480.242 66.6415V50.3084L469.121 42.3901L459 49.5964V30L433 37.2487V53.2863L414.5 45L395 53.7342V64H371.27V80.5453L363.135 77.8337L354 80.8787V112.039C327.482 120.356 302.533 130.606 278.631 140.425L278.63 140.425C267.545 144.979 256.686 149.44 246 153.573V125.716L220 119V126.128L208 119L195 126.722V137.972L183.206 132L170 138.687V172.649C92.792 180.07 0 162.959 0 162.959V546H2880V142.98C2880 142.98 2798.87 68.5914 2694 65.5931V7H2658V0ZM2658 67V67.6128C2659.61 67.3926 2661.22 67.1881 2662.83 67H2658Z" fill="#507496"/>
</g>
<defs>
<clipPath id="clip0_800_296">
<rect width="2880" height="546" fill="white"/>
</clipPath>
</defs>
</svg>
