<svg width="2880" height="438" viewBox="0 0 2880 438" fill="none" xmlns="http://www.w3.org/2000/svg">
<g clip-path="url(#clip0_791_2674)">
<path d="M1773 286C1656 284.098 1499 111.134 1341 186C1183 260.865 1094.5 87.832 963 102.965C831.5 118.097 804.5 87.832 641 59.5C477.5 31.1679 424 147 280 102.965C136 58.9292 0 102.964 0 102.964V498H2880V116.504C2880 116.504 2773 196.992 2656 144.5C2539 92.008 2482.5 102.965 2417 186C2351.5 269.035 2204.5 247 2080 218C1955.5 189 1890 287.902 1773 286Z" fill="#456684"/>
<path fill-rule="evenodd" clip-rule="evenodd" d="M116 0L141 12.0253V20H179V90H141V95H91V12.0253L116 0ZM697 13.3924L714 2L731 13.3924V20.281L749.5 10L770 21.3924V38H793V113H769V100H729V92H697V13.3924ZM815 29.3924L835.5 18L856 29.3924V108H815V29.3924ZM974 23L936 28.2V45.0775L916.5 34L896 45.6456V126H937V105H974V23ZM2533 47.3902L2571 42V127H2535V135H2495V157H2451V78.3924L2473 67L2491 76.3211V56.3924L2513 45L2533 55.3567V47.3902ZM1099 95.3902L1137 90V124L1155.5 114L1174 124V193H1137V175H1099V95.3902ZM1699 227.946L1738 223.124V212.278L1758.5 200L1779 212.278V227H1818V207.025L1843 195L1868 207.025V290H1818V297H1779H1778H1739V301H1699V227.946ZM1552.5 127L1532 138.392V217H1563V234H1611V155.392L1587 144L1573 150.646V138.392L1552.5 127ZM2283 188H2323V258H2283V253H2239V258H2197V184.633L2218 174L2239 184.633V174.392L2261 163L2283 174.392V188ZM2442 113H2402V208H2442V113ZM678 7H636V73H678V7ZM41 35.5L75 24V94H41V35.5ZM1259 131L1238 141.633V215H1280V210H1324V131.392L1302 120L1280 131.392V141.633L1259 131ZM2803 84L2781 95.3924V174H2825V95.3924L2803 84ZM1339 115.633L1357.5 105L1376 115.633V103.633L1394.5 93L1413 103.633V177H1376V189H1339V115.633ZM293 36L255 42.1512V36.0253L230 24L205 36.0253V119H255V133H293V140H334V123H372V53H334V68.3797L313.5 58L293 68.3797V36ZM423 19.6439L457 14V103H423V113H382V28.2785L402.5 16L423 28.2785V19.6439Z" fill="#456684"/>
</g>
<defs>
<clipPath id="clip0_791_2674">
<rect width="2880" height="438" fill="white"/>
</clipPath>
</defs>
</svg>
