<svg width="24" height="25" viewBox="0 0 24 25" fill="none" xmlns="http://www.w3.org/2000/svg">
<path d="M3 10.0012V6.00122C3 3.79208 4.79086 2.00122 7 2.00122V2.00122C9.20914 2.00122 11 3.79208 11 6.00122V10.0012" stroke="#333333" stroke-width="2" stroke-linecap="round"/>
<path fill-rule="evenodd" clip-rule="evenodd" d="M8.45455 10.0012H21.5455C22.3488 10.0012 23 10.7288 23 11.6262V21.3762C23 22.2737 22.3488 23.0012 21.5455 23.0012H8.45455C7.65122 23.0012 7 22.2737 7 21.3762V11.6262C7 10.7288 7.65122 10.0012 8.45455 10.0012ZM16.5 15.5012C16.5 15.9455 16.3069 16.3446 16 16.6193V18.0012C16 18.5535 15.5523 19.0012 15 19.0012C14.4477 19.0012 14 18.5535 14 18.0012V16.6193C13.6931 16.3446 13.5 15.9455 13.5 15.5012C13.5 14.6728 14.1716 14.0012 15 14.0012C15.8284 14.0012 16.5 14.6728 16.5 15.5012Z" fill="#333333"/>
</svg>
