<svg width="24" height="25" viewBox="0 0 24 25" fill="none" xmlns="http://www.w3.org/2000/svg">
<path d="M17.7273 11.0012H6.27273C5.56982 11.0012 5 11.6168 5 12.3762V20.6262C5 21.3856 5.56982 22.0012 6.27273 22.0012H17.7273C18.4302 22.0012 19 21.3856 19 20.6262V12.3762C19 11.6168 18.4302 11.0012 17.7273 11.0012Z" fill="#333333" stroke="#333333" stroke-width="2" stroke-linecap="round" stroke-linejoin="round"/>
<path d="M8 10.0012V6.00122C8 3.79208 9.79086 2.00122 12 2.00122V2.00122C14.2091 2.00122 16 3.79208 16 6.00122V10.0012" stroke="#333333" stroke-width="2"/>
<path fill-rule="evenodd" clip-rule="evenodd" d="M13 16.6193C13.3069 16.3446 13.5 15.9455 13.5 15.5012C13.5 14.6728 12.8284 14.0012 12 14.0012C11.1716 14.0012 10.5 14.6728 10.5 15.5012C10.5 15.9455 10.6931 16.3446 11 16.6193V18.0012C11 18.5535 11.4477 19.0012 12 19.0012C12.5523 19.0012 13 18.5535 13 18.0012V16.6193Z" fill="white"/>
</svg>
