<svg width="24" height="24" viewBox="0 0 24 24" fill="none" xmlns="http://www.w3.org/2000/svg">
<path fill-rule="evenodd" clip-rule="evenodd" d="M12 2C17.5228 2 22 6.47715 22 12C22 17.5228 17.5228 22 12 22C6.47715 22 2 17.5228 2 12C2 6.47715 6.47715 2 12 2ZM11.4 20.7799V12.6H7.26573L4.74002 16.9747C6.21991 19.1303 8.63492 20.5937 11.4 20.7799ZM16.0415 11.4L12 4.4L7.95855 11.4H16.0415ZM12.6 12.6V20.7799C15.3651 20.5937 17.7801 19.1303 19.26 16.9747L16.7343 12.6H12.6ZM19.9522 15.7735L12.7091 3.22815C17.2376 3.58922 20.8 7.37859 20.8 12C20.8 13.3505 20.4958 14.6299 19.9522 15.7735ZM11.2909 3.22815L4.04785 15.7735C3.50421 14.6299 3.2 13.3505 3.2 12C3.2 7.37859 6.76239 3.58922 11.2909 3.22815Z" fill="#444444" stroke="#444444" stroke-width="0.5"/>
</svg>
