<svg width="1280" height="416" viewBox="0 0 1280 416" fill="none" xmlns="http://www.w3.org/2000/svg">
<g filter="url(#filter0_d_1688_10733)">
<rect x="32" y="32" width="1216" height="352" rx="20" fill="white"/>
<circle cx="256" cy="165" r="32" fill="#AC0017"/>
<g clip-path="url(#clip0_1688_10733)">
<path fill-rule="evenodd" clip-rule="evenodd" d="M156.605 173.003C156.404 173.001 156.202 173 156 173C126.729 173 103 196.729 103 226C103 227.657 104.343 229 106 229C107.657 229 109 227.657 109 226C109 200.043 130.043 179 156 179C181.957 179 203 200.043 203 226C203 227.657 204.343 229 206 229C206.768 229 207.469 228.711 208 228.236C208.531 228.711 209.232 229 210 229C211.657 229 213 227.657 213 226C213 200.043 234.043 179 260 179C285.957 179 307 200.043 307 226C307 227.657 308.343 229 310 229C311.657 229 313 227.657 313 226C313 196.729 289.271 173 260 173C259.798 173 259.596 173.001 259.395 173.003C253.6 150.016 232.787 133 208 133C183.213 133 162.4 150.016 156.605 173.003ZM162.703 173.42C165.731 173.802 168.68 174.44 171.527 175.311C172.236 172.901 173.196 170.526 174.417 168.219C175.192 166.755 177.007 166.196 178.472 166.972C179.936 167.747 180.495 169.562 179.719 171.027C178.624 173.096 177.778 175.231 177.171 177.397C180.045 178.651 182.787 180.153 185.369 181.874C187.313 171.141 196.706 163 208 163C219.294 163 228.687 171.141 230.631 181.874C233.214 180.152 235.956 178.651 238.831 177.397C237.866 173.94 236.3 170.588 234.105 167.493C223.884 153.075 203.91 149.674 189.493 159.895C188.141 160.853 186.269 160.534 185.31 159.182C184.352 157.831 184.671 155.958 186.023 155C203.144 142.862 226.862 146.902 239 164.023C241.506 167.557 243.322 171.373 244.476 175.31C247.322 174.439 250.27 173.802 253.297 173.42C247.797 153.571 229.6 139 208 139C186.4 139 168.203 153.571 162.703 173.42ZM225.006 186.194C225.002 186.13 225 186.065 225 186C225 176.611 217.389 169 208 169C198.611 169 191 176.611 191 186C191 186.065 190.998 186.13 190.994 186.194C199.581 193.749 205.703 204.038 208 215.701C210.297 204.038 216.419 193.749 225.006 186.194ZM156 194C138.327 194 124 208.327 124 226C124 227.657 122.657 229 121 229C119.343 229 118 227.657 118 226C118 205.013 135.013 188 156 188C176.987 188 194 205.013 194 226C194 227.657 192.657 229 191 229C189.343 229 188 227.657 188 226C188 208.327 173.673 194 156 194ZM139 226C139 216.611 146.611 209 156 209C165.389 209 173 216.611 173 226C173 227.657 174.343 229 176 229C177.657 229 179 227.657 179 226C179 213.297 168.703 203 156 203C143.297 203 133 213.297 133 226C133 227.657 134.343 229 136 229C137.657 229 139 227.657 139 226ZM260 194C242.327 194 228 208.327 228 226C228 227.657 226.657 229 225 229C223.343 229 222 227.657 222 226C222 205.013 239.013 188 260 188C280.987 188 298 205.013 298 226C298 227.657 296.657 229 295 229C293.343 229 292 227.657 292 226C292 208.327 277.673 194 260 194ZM243 226C243 216.611 250.611 209 260 209C269.389 209 277 216.611 277 226C277 227.657 278.343 229 280 229C281.657 229 283 227.657 283 226C283 213.297 272.703 203 260 203C247.297 203 237 213.297 237 226C237 227.657 238.343 229 240 229C241.657 229 243 227.657 243 226Z" fill="#243B64"/>
</g>
<path d="M128.827 270.576C130.903 270.576 132.847 270.18 134.659 269.388C136.471 268.596 138.061 267.498 139.429 266.094C140.797 264.678 141.865 263.04 142.633 261.18C143.413 259.308 143.803 257.304 143.803 255.168C143.803 253.032 143.413 251.034 142.633 249.174C141.865 247.302 140.797 245.664 139.429 244.26C138.061 242.844 136.471 241.74 134.659 240.948C132.847 240.156 130.903 239.76 128.827 239.76C126.751 239.76 124.807 240.156 122.995 240.948C121.183 241.74 119.593 242.844 118.225 244.26C116.857 245.664 115.783 247.302 115.003 249.174C114.235 251.034 113.851 253.032 113.851 255.168C113.851 257.304 114.235 259.308 115.003 261.18C115.783 263.04 116.857 264.678 118.225 266.094C119.593 267.498 121.183 268.596 122.995 269.388C124.807 270.18 126.751 270.576 128.827 270.576ZM128.827 263.88C127.351 263.88 126.049 263.514 124.921 262.782C123.793 262.05 122.911 261.03 122.275 259.722C121.639 258.402 121.321 256.884 121.321 255.168C121.321 253.44 121.639 251.922 122.275 250.614C122.911 249.306 123.793 248.286 124.921 247.554C126.049 246.822 127.351 246.456 128.827 246.456C130.315 246.456 131.617 246.822 132.733 247.554C133.861 248.286 134.743 249.306 135.379 250.614C136.015 251.922 136.333 253.44 136.333 255.168C136.333 256.884 136.015 258.402 135.379 259.722C134.743 261.03 133.861 262.05 132.733 262.782C131.617 263.514 130.315 263.88 128.827 263.88ZM149.061 270H155.991V257.778L166.791 270H176.349L162.399 254.43L174.477 240.3H166.017L155.991 252.252V240.3H149.061V270ZM179.577 270H186.507V240.3H179.577V270ZM190.551 270H216.219V263.916H202.665L217.155 240.3H192.657V246.384H205.041L190.551 270ZM221.589 270H238.653V263.916H228.519V258.156H238.221V252.072H228.519V246.384H238.653V240.3H221.589V270ZM244.217 270H251.165L252.479 252.702L258.635 269.658H262.811L268.967 252.702L270.299 270H277.229L274.601 240.3H267.221L260.723 257.184L254.225 240.3H246.845L244.217 270ZM283.499 270H300.563V263.916H290.429V258.156H300.131V252.072H290.429V246.384H300.563V240.3H283.499V270Z" fill="#243B64"/>
<g clip-path="url(#clip1_1688_10733)">
<path fill-rule="evenodd" clip-rule="evenodd" d="M445.674 184.223C445.532 184.221 445.39 184.22 445.248 184.22C424.677 184.22 408 200.897 408 221.469C408 222.633 408.944 223.577 410.108 223.577C411.273 223.577 412.217 222.633 412.217 221.469C412.217 203.226 427.005 188.437 445.248 188.437C463.491 188.437 478.28 203.226 478.28 221.469C478.28 222.633 479.224 223.577 480.388 223.577C480.928 223.577 481.421 223.374 481.794 223.04C482.167 223.374 482.659 223.577 483.199 223.577C484.364 223.577 485.308 222.633 485.308 221.469C485.308 203.226 500.096 188.437 518.339 188.437C536.582 188.437 551.371 203.226 551.371 221.469C551.371 222.633 552.315 223.577 553.479 223.577C554.643 223.577 555.587 222.633 555.587 221.469C555.587 200.897 538.911 184.22 518.339 184.22C518.197 184.22 518.055 184.221 517.914 184.223C513.841 168.067 499.214 156.108 481.794 156.108C464.373 156.108 449.746 168.067 445.674 184.223ZM449.959 184.515C452.087 184.784 454.16 185.232 456.16 185.844C456.659 184.15 457.333 182.481 458.191 180.86C458.736 179.831 460.012 179.439 461.041 179.984C462.07 180.528 462.463 181.804 461.918 182.833C461.148 184.288 460.554 185.788 460.127 187.311C462.147 188.192 464.074 189.247 465.889 190.457C467.255 182.914 473.856 177.192 481.794 177.192C489.731 177.192 496.333 182.914 497.699 190.457C499.514 189.247 501.441 188.191 503.462 187.31C502.784 184.881 501.683 182.525 500.14 180.35C492.957 170.217 478.92 167.826 468.787 175.01C467.837 175.683 466.521 175.459 465.848 174.509C465.174 173.559 465.398 172.243 466.348 171.57C478.381 163.04 495.05 165.879 503.58 177.911C505.341 180.395 506.618 183.077 507.429 185.844C509.429 185.232 511.501 184.784 513.629 184.515C509.763 170.566 496.974 160.325 481.794 160.325C466.613 160.325 453.825 170.566 449.959 184.515ZM493.746 193.493C493.743 193.448 493.741 193.402 493.741 193.357C493.741 186.758 488.392 181.409 481.794 181.409C475.195 181.409 469.846 186.758 469.846 193.357C469.846 193.402 469.845 193.448 469.842 193.493C475.877 198.803 480.18 206.034 481.794 214.23C483.408 206.034 487.711 198.803 493.746 193.493ZM445.248 198.979C432.828 198.979 422.759 209.048 422.759 221.469C422.759 222.633 421.815 223.577 420.65 223.577C419.486 223.577 418.542 222.633 418.542 221.469C418.542 206.719 430.499 194.762 445.248 194.762C459.998 194.762 471.955 206.719 471.955 221.469C471.955 222.633 471.011 223.577 469.846 223.577C468.682 223.577 467.738 222.633 467.738 221.469C467.738 209.048 457.669 198.979 445.248 198.979ZM433.301 221.469C433.301 214.87 438.65 209.521 445.248 209.521C451.847 209.521 457.196 214.87 457.196 221.469C457.196 222.633 458.14 223.577 459.304 223.577C460.469 223.577 461.413 222.633 461.413 221.469C461.413 212.541 454.176 205.304 445.248 205.304C436.321 205.304 429.084 212.541 429.084 221.469C429.084 222.633 430.028 223.577 431.192 223.577C432.357 223.577 433.301 222.633 433.301 221.469ZM518.339 198.979C505.919 198.979 495.85 209.048 495.85 221.469C495.85 222.633 494.906 223.577 493.741 223.577C492.577 223.577 491.633 222.633 491.633 221.469C491.633 206.719 503.59 194.762 518.339 194.762C533.089 194.762 545.045 206.719 545.045 221.469C545.045 222.633 544.101 223.577 542.937 223.577C541.773 223.577 540.829 222.633 540.829 221.469C540.829 209.048 530.76 198.979 518.339 198.979ZM506.392 221.469C506.392 214.87 511.741 209.521 518.339 209.521C524.938 209.521 530.287 214.87 530.287 221.469C530.287 222.633 531.231 223.577 532.395 223.577C533.56 223.577 534.503 222.633 534.503 221.469C534.503 212.541 527.266 205.304 518.339 205.304C509.412 205.304 502.175 212.541 502.175 221.469C502.175 222.633 503.119 223.577 504.283 223.577C505.448 223.577 506.392 222.633 506.392 221.469Z" fill="#243B64"/>
</g>
<path d="M427.019 253.4C428.46 253.4 429.81 253.125 431.069 252.575C432.327 252.025 433.431 251.262 434.381 250.287C435.331 249.304 436.073 248.167 436.606 246.875C437.148 245.575 437.419 244.183 437.419 242.7C437.419 241.217 437.148 239.829 436.606 238.537C436.073 237.237 435.331 236.1 434.381 235.125C433.431 234.142 432.327 233.375 431.069 232.825C429.81 232.275 428.46 232 427.019 232C425.577 232 424.227 232.275 422.969 232.825C421.71 233.375 420.606 234.142 419.656 235.125C418.706 236.1 417.96 237.237 417.419 238.537C416.885 239.829 416.619 241.217 416.619 242.7C416.619 244.183 416.885 245.575 417.419 246.875C417.96 248.167 418.706 249.304 419.656 250.287C420.606 251.262 421.71 252.025 422.969 252.575C424.227 253.125 425.577 253.4 427.019 253.4ZM427.019 248.75C425.994 248.75 425.09 248.496 424.306 247.987C423.523 247.479 422.91 246.771 422.469 245.862C422.027 244.946 421.806 243.892 421.806 242.7C421.806 241.5 422.027 240.446 422.469 239.537C422.91 238.629 423.523 237.921 424.306 237.412C425.09 236.904 425.994 236.65 427.019 236.65C428.052 236.65 428.956 236.904 429.731 237.412C430.515 237.921 431.127 238.629 431.569 239.537C432.01 240.446 432.231 241.5 432.231 242.7C432.231 243.892 432.01 244.946 431.569 245.862C431.127 246.771 430.515 247.479 429.731 247.987C428.956 248.496 428.052 248.75 427.019 248.75ZM441.07 253H445.883V244.512L453.383 253H460.02L450.333 242.187L458.72 232.375H452.845L445.883 240.675V232.375H441.07V253ZM462.262 253H467.074V232.375H462.262V253ZM469.883 253H487.708V248.775H478.295L488.358 232.375H471.345V236.6H479.945L469.883 253ZM491.437 253H503.287V248.775H496.249V244.775H502.987V240.55H496.249V236.6H503.287V232.375H491.437V253ZM507.151 253H511.976L512.888 240.987L517.163 252.762H520.063L524.338 240.987L525.263 253H530.076L528.251 232.375H523.126L518.613 244.1L514.101 232.375H508.976L507.151 253ZM534.43 253H546.28V248.775H539.242V244.775H545.98V240.55H539.242V236.6H546.28V232.375H534.43V253Z" fill="#243B64"/>
<path d="M567.78 198.038H563.832V202.588C563.832 203.764 564.21 204.072 565.512 204.072H567.962C569.152 204.072 569.446 203.554 569.586 201.58C569.292 201.496 568.872 201.342 568.648 201.174C568.592 202.84 568.48 203.12 567.892 203.12H565.61C564.938 203.12 564.84 203.05 564.84 202.588V198.962H567.78V199.312H568.788V194.202H563.692V195.126H567.78V198.038ZM560.766 201.72H563.034V200.796H560.766V198.724H563.174V197.8H560.556V196.022H562.81V195.112H560.556V193.558H559.562V195.112H557.252V196.022H559.562V197.8H556.888V198.724H559.814V204.03C559.226 203.554 558.792 202.854 558.484 201.832C558.526 201.216 558.554 200.572 558.568 199.9L557.588 199.83C557.546 202.308 557.392 204.534 556.594 205.934C556.818 206.046 557.28 206.298 557.448 206.438C557.854 205.654 558.12 204.688 558.288 203.582C559.31 205.5 560.962 205.962 563.93 205.962H569.264C569.334 205.654 569.53 205.178 569.684 204.926C568.844 204.968 564.588 204.968 563.916 204.954C562.614 204.954 561.578 204.856 560.766 204.548V201.72ZM563.188 211.476C563.216 211.588 563.244 211.714 563.286 211.826C561.942 211.896 560.346 211.854 558.666 211.658L558.736 212.68C560.486 212.834 562.194 212.862 563.552 212.778C563.664 213.114 563.79 213.478 563.93 213.87C564.014 214.108 564.112 214.346 564.21 214.598C562.628 214.738 560.5 214.752 558.4 214.528L558.456 215.578C560.612 215.732 562.908 215.704 564.616 215.55C564.924 216.236 565.288 216.922 565.708 217.566C565.26 217.51 564.35 217.412 563.608 217.328L563.51 218.182C564.476 218.294 565.792 218.42 566.576 218.63L567.15 217.776C566.954 217.58 566.786 217.398 566.632 217.174C566.268 216.642 565.946 216.04 565.652 215.438C566.632 215.298 567.514 215.116 568.186 214.934L568.018 213.884C567.36 214.094 566.38 214.346 565.218 214.486C565.106 214.206 564.994 213.912 564.896 213.646C564.798 213.352 564.686 213.03 564.588 212.68C565.554 212.554 566.548 212.344 567.346 212.12L567.192 211.112C566.296 211.406 565.316 211.616 564.322 211.742C564.168 211.182 564.042 210.608 563.986 210.076L562.796 210.23C562.936 210.622 563.076 211.056 563.188 211.476ZM560.43 217.538L559.338 217.314C559.03 217.93 558.778 218.518 558.792 219.316C558.806 221.108 560.346 221.92 563.09 221.92C564.28 221.92 565.386 221.836 566.366 221.682L566.408 220.562C565.4 220.772 564.378 220.856 563.076 220.856C560.878 220.856 559.842 220.282 559.842 219.12C559.842 218.504 560.094 218.028 560.43 217.538ZM562.25 233.342L559.912 233.944V228.288H562.082V227.294H556.846V228.288H558.89V234.196C558.036 234.42 557.266 234.616 556.65 234.756L556.916 235.82C558.4 235.414 560.43 234.826 562.348 234.28L562.25 233.342ZM567.262 229.128C566.912 231.046 566.338 232.614 565.484 233.86C564.658 232.53 564.07 230.906 563.678 229.128H567.262ZM569.53 229.128V228.12H564.042C564.336 227.35 564.574 226.538 564.798 225.726L563.762 225.53C563.202 227.882 562.25 230.178 560.976 231.634C561.228 231.774 561.676 232.096 561.872 232.236C562.292 231.732 562.67 231.116 563.006 230.444C563.454 232.082 564.028 233.524 564.798 234.742C563.734 235.918 562.32 236.786 560.458 237.388C560.64 237.626 560.934 238.102 561.032 238.354C562.88 237.682 564.308 236.786 565.414 235.61C566.338 236.8 567.5 237.71 568.956 238.326C569.124 238.032 569.432 237.626 569.684 237.416C568.214 236.87 567.038 235.96 566.114 234.77C567.178 233.314 567.878 231.48 568.354 229.128H569.53ZM565.526 242.412L564.322 242.3C564.322 242.622 564.28 243.084 564.238 243.364C564.182 243.7 564.098 244.036 564.014 244.386C562.796 244.4 561.606 244.68 560.416 245.38C560.29 244.988 560.164 244.61 560.08 244.288C559.982 243.896 559.87 243.434 559.8 243.042L558.638 243.42C558.806 243.784 558.974 244.246 559.1 244.68C559.226 245.1 559.366 245.534 559.52 245.968C558.246 247.004 557.364 248.698 557.364 250.308C557.364 251.946 558.246 252.828 559.31 252.828C560.36 252.828 561.214 252.128 562.082 251.078C562.292 251.372 562.516 251.638 562.74 251.89L563.622 251.162C563.328 250.882 563.034 250.546 562.754 250.182C563.552 249.034 564.266 247.2 564.798 245.422C566.604 245.73 567.738 247.102 567.738 248.922C567.738 251.078 566.114 252.618 563.188 252.87L563.846 253.864C566.842 253.444 568.844 251.75 568.844 248.964C568.844 246.556 567.304 244.834 565.064 244.47C565.148 244.134 565.218 243.812 565.288 243.504C565.344 243.238 565.428 242.762 565.526 242.412ZM558.372 250.224C558.372 249.132 558.96 247.844 559.884 246.976C560.29 248.04 560.738 249.034 561.144 249.664C561.256 249.846 561.354 250.028 561.466 250.196C560.85 251.022 560.108 251.722 559.422 251.722C558.792 251.722 558.372 251.148 558.372 250.224ZM561.83 248.782C561.494 248.222 561.088 247.284 560.738 246.318C561.662 245.744 562.656 245.408 563.748 245.352C563.314 246.794 562.712 248.25 562.11 249.244C562.012 249.09 561.914 248.936 561.83 248.782Z" fill="#AC0017"/>
<circle cx="554.727" cy="170.867" r="16.8671" fill="#AC0017"/>
<circle cx="496" cy="208" r="108" stroke="#243B64" stroke-width="8"/>
<path fill-rule="evenodd" clip-rule="evenodd" d="M732.605 264.003C732.404 264.001 732.202 264 732 264C702.729 264 679 287.729 679 317C679 318.657 680.343 320 682 320C683.657 320 685 318.657 685 317C685 291.043 706.043 270 732 270C757.957 270 779 291.043 779 317C779 318.657 780.343 320 782 320C782.768 320 783.469 319.711 784 319.236C784.531 319.711 785.232 320 786 320C787.657 320 789 318.657 789 317C789 291.043 810.043 270 836 270C861.957 270 883 291.043 883 317C883 318.657 884.343 320 886 320C887.657 320 889 318.657 889 317C889 287.729 865.271 264 836 264C835.798 264 835.596 264.001 835.395 264.003C829.6 241.016 808.787 224 784 224C759.213 224 738.4 241.016 732.605 264.003ZM738.703 264.42C741.731 264.802 744.68 265.44 747.527 266.311C748.236 263.901 749.196 261.526 750.417 259.219C751.192 257.755 753.007 257.196 754.472 257.972C755.936 258.747 756.495 260.562 755.719 262.027C754.624 264.096 753.778 266.231 753.171 268.397C756.045 269.651 758.787 271.153 761.369 272.874C763.313 262.141 772.706 254 784 254C795.294 254 804.687 262.141 806.631 272.874C809.214 271.152 811.956 269.651 814.831 268.397C813.866 264.94 812.3 261.588 810.105 258.493C799.884 244.075 779.91 240.674 765.493 250.895C764.141 251.853 762.269 251.534 761.31 250.182C760.352 248.831 760.671 246.958 762.023 246C779.144 233.862 802.862 237.902 815 255.023C817.506 258.557 819.322 262.373 820.476 266.31C823.322 265.439 826.27 264.802 829.297 264.42C823.797 244.571 805.6 230 784 230C762.4 230 744.203 244.571 738.703 264.42ZM801.006 277.194C801.002 277.13 801 277.065 801 277C801 267.611 793.389 260 784 260C774.611 260 767 267.611 767 277C767 277.065 766.998 277.13 766.994 277.194C775.581 284.749 781.703 295.038 784 306.701C786.297 295.038 792.419 284.749 801.006 277.194ZM732 285C714.327 285 700 299.327 700 317C700 318.657 698.657 320 697 320C695.343 320 694 318.657 694 317C694 296.013 711.013 279 732 279C752.987 279 770 296.013 770 317C770 318.657 768.657 320 767 320C765.343 320 764 318.657 764 317C764 299.327 749.673 285 732 285ZM715 317C715 307.611 722.611 300 732 300C741.389 300 749 307.611 749 317C749 318.657 750.343 320 752 320C753.657 320 755 318.657 755 317C755 304.297 744.703 294 732 294C719.297 294 709 304.297 709 317C709 318.657 710.343 320 712 320C713.657 320 715 318.657 715 317ZM836 285C818.327 285 804 299.327 804 317C804 318.657 802.657 320 801 320C799.343 320 798 318.657 798 317C798 296.013 815.013 279 836 279C856.987 279 874 296.013 874 317C874 318.657 872.657 320 871 320C869.343 320 868 318.657 868 317C868 299.327 853.673 285 836 285ZM819 317C819 307.611 826.611 300 836 300C845.389 300 853 307.611 853 317C853 318.657 854.343 320 856 320C857.657 320 859 318.657 859 317C859 304.297 848.703 294 836 294C823.297 294 813 304.297 813 317C813 318.657 814.343 320 816 320C817.657 320 819 318.657 819 317Z" fill="black"/>
<path d="M704.827 209.576C706.903 209.576 708.847 209.18 710.659 208.388C712.471 207.596 714.061 206.498 715.429 205.094C716.797 203.678 717.865 202.04 718.633 200.18C719.413 198.308 719.803 196.304 719.803 194.168C719.803 192.032 719.413 190.034 718.633 188.174C717.865 186.302 716.797 184.664 715.429 183.26C714.061 181.844 712.471 180.74 710.659 179.948C708.847 179.156 706.903 178.76 704.827 178.76C702.751 178.76 700.807 179.156 698.995 179.948C697.183 180.74 695.593 181.844 694.225 183.26C692.857 184.664 691.783 186.302 691.003 188.174C690.235 190.034 689.851 192.032 689.851 194.168C689.851 196.304 690.235 198.308 691.003 200.18C691.783 202.04 692.857 203.678 694.225 205.094C695.593 206.498 697.183 207.596 698.995 208.388C700.807 209.18 702.751 209.576 704.827 209.576ZM704.827 202.88C703.351 202.88 702.049 202.514 700.921 201.782C699.793 201.05 698.911 200.03 698.275 198.722C697.639 197.402 697.321 195.884 697.321 194.168C697.321 192.44 697.639 190.922 698.275 189.614C698.911 188.306 699.793 187.286 700.921 186.554C702.049 185.822 703.351 185.456 704.827 185.456C706.315 185.456 707.617 185.822 708.733 186.554C709.861 187.286 710.743 188.306 711.379 189.614C712.015 190.922 712.333 192.44 712.333 194.168C712.333 195.884 712.015 197.402 711.379 198.722C710.743 200.03 709.861 201.05 708.733 201.782C707.617 202.514 706.315 202.88 704.827 202.88ZM725.061 209H731.991V196.778L742.791 209H752.349L738.399 193.43L750.477 179.3H742.017L731.991 191.252V179.3H725.061V209ZM755.577 209H762.507V179.3H755.577V209ZM766.551 209H792.219V202.916H778.665L793.155 179.3H768.657V185.384H781.041L766.551 209ZM797.589 209H814.653V202.916H804.519V197.156H814.221V191.072H804.519V185.384H814.653V179.3H797.589V209ZM820.217 209H827.165L828.479 191.702L834.635 208.658H838.811L844.967 191.702L846.299 209H853.229L850.601 179.3H843.221L836.723 196.184L830.225 179.3H822.845L820.217 209ZM859.499 209H876.563V202.916H866.429V197.156H876.131V191.072H866.429V185.384H876.563V179.3H859.499V209Z" fill="#243B64"/>
<circle cx="784" cy="208" r="108" stroke="#243B64" stroke-width="8"/>
<circle cx="705" cy="122" r="36" fill="#AC0017"/>
<path d="M714.034 71.9483H708.394V78.4483C708.394 80.1283 708.934 80.5683 710.794 80.5683H714.294C715.994 80.5683 716.414 79.8283 716.614 77.0083C716.194 76.8883 715.594 76.6683 715.274 76.4283C715.194 78.8083 715.034 79.2083 714.194 79.2083H710.934C709.974 79.2083 709.834 79.1083 709.834 78.4483V73.2683H714.034V73.7683H715.474V66.4683H708.194V67.7883H714.034V71.9483ZM704.014 77.2083H707.254V75.8883H704.014V72.9283H707.454V71.6083H703.714V69.0683H706.934V67.7683H703.714V65.5483H702.294V67.7683H698.994V69.0683H702.294V71.6083H698.474V72.9283H702.654V80.5083C701.814 79.8283 701.194 78.8283 700.754 77.3683C700.814 76.4883 700.854 75.5683 700.874 74.6083L699.474 74.5083C699.414 78.0483 699.194 81.2283 698.054 83.2283C698.374 83.3883 699.034 83.7483 699.274 83.9483C699.854 82.8283 700.234 81.4483 700.474 79.8683C701.934 82.6083 704.294 83.2683 708.534 83.2683H716.154C716.254 82.8283 716.534 82.1483 716.754 81.7883C715.554 81.8483 709.474 81.8483 708.514 81.8283C706.654 81.8283 705.174 81.6883 704.014 81.2483V77.2083ZM707.474 90.2883C707.514 90.4483 707.554 90.6283 707.614 90.7883C705.694 90.8883 703.414 90.8283 701.014 90.5483L701.114 92.0083C703.614 92.2283 706.054 92.2683 707.994 92.1483C708.154 92.6283 708.334 93.1483 708.534 93.7083C708.654 94.0483 708.794 94.3883 708.934 94.7483C706.674 94.9483 703.634 94.9683 700.634 94.6483L700.714 96.1483C703.794 96.3683 707.074 96.3283 709.514 96.1083C709.954 97.0883 710.474 98.0683 711.074 98.9883C710.434 98.9083 709.134 98.7683 708.074 98.6483L707.934 99.8683C709.314 100.028 711.194 100.208 712.314 100.508L713.134 99.2883C712.854 99.0083 712.614 98.7483 712.394 98.4283C711.874 97.6683 711.414 96.8083 710.994 95.9483C712.394 95.7483 713.654 95.4883 714.614 95.2283L714.374 93.7283C713.434 94.0283 712.034 94.3883 710.374 94.5883C710.214 94.1883 710.054 93.7683 709.914 93.3883C709.774 92.9683 709.614 92.5083 709.474 92.0083C710.854 91.8283 712.274 91.5283 713.414 91.2083L713.194 89.7683C711.914 90.1883 710.514 90.4883 709.094 90.6683C708.874 89.8683 708.694 89.0483 708.614 88.2883L706.914 88.5083C707.114 89.0683 707.314 89.6883 707.474 90.2883ZM703.534 98.9483L701.974 98.6283C701.534 99.5083 701.174 100.348 701.194 101.488C701.214 104.048 703.414 105.208 707.334 105.208C709.034 105.208 710.614 105.088 712.014 104.868L712.074 103.268C710.634 103.568 709.174 103.688 707.314 103.688C704.174 103.688 702.694 102.868 702.694 101.208C702.694 100.328 703.054 99.6483 703.534 98.9483ZM706.134 120.668L702.794 121.528V113.448H705.894V112.028H698.414V113.448H701.334V121.888C700.114 122.208 699.014 122.488 698.134 122.688L698.514 124.208C700.634 123.628 703.534 122.788 706.274 122.008L706.134 120.668ZM713.294 114.648C712.794 117.388 711.974 119.628 710.754 121.408C709.574 119.508 708.734 117.188 708.174 114.648H713.294ZM716.534 114.648V113.208H708.694C709.114 112.108 709.454 110.948 709.774 109.788L708.294 109.508C707.494 112.868 706.134 116.148 704.314 118.228C704.674 118.428 705.314 118.888 705.594 119.088C706.194 118.368 706.734 117.488 707.214 116.528C707.854 118.868 708.674 120.928 709.774 122.668C708.254 124.348 706.234 125.588 703.574 126.448C703.834 126.788 704.254 127.468 704.394 127.828C707.034 126.868 709.074 125.588 710.654 123.908C711.974 125.608 713.634 126.908 715.714 127.788C715.954 127.368 716.394 126.788 716.754 126.488C714.654 125.708 712.974 124.408 711.654 122.708C713.174 120.628 714.174 118.008 714.854 114.648H716.534ZM710.814 132.768L709.094 132.608C709.094 133.068 709.034 133.728 708.974 134.128C708.894 134.608 708.774 135.088 708.654 135.588C706.914 135.608 705.214 136.008 703.514 137.008C703.334 136.448 703.154 135.908 703.034 135.448C702.894 134.888 702.734 134.228 702.634 133.668L700.974 134.208C701.214 134.728 701.454 135.388 701.634 136.008C701.814 136.608 702.014 137.228 702.234 137.848C700.414 139.328 699.154 141.748 699.154 144.048C699.154 146.388 700.414 147.648 701.934 147.648C703.434 147.648 704.654 146.648 705.894 145.148C706.194 145.568 706.514 145.948 706.834 146.308L708.094 145.268C707.674 144.868 707.254 144.388 706.854 143.868C707.994 142.228 709.014 139.608 709.774 137.068C712.354 137.508 713.974 139.468 713.974 142.068C713.974 145.148 711.654 147.348 707.474 147.708L708.414 149.128C712.694 148.528 715.554 146.108 715.554 142.128C715.554 138.688 713.354 136.228 710.154 135.708C710.274 135.228 710.374 134.768 710.474 134.328C710.554 133.948 710.674 133.268 710.814 132.768ZM700.594 143.928C700.594 142.368 701.434 140.528 702.754 139.288C703.334 140.808 703.974 142.228 704.554 143.128C704.714 143.388 704.854 143.648 705.014 143.888C704.134 145.068 703.074 146.068 702.094 146.068C701.194 146.068 700.594 145.248 700.594 143.928ZM705.534 141.868C705.054 141.068 704.474 139.728 703.974 138.348C705.294 137.528 706.714 137.048 708.274 136.968C707.654 139.028 706.794 141.108 705.934 142.528C705.794 142.308 705.654 142.088 705.534 141.868Z" fill="black"/>
<path d="M992.827 270.576C994.903 270.576 996.847 270.18 998.659 269.388C1000.47 268.596 1002.06 267.498 1003.43 266.094C1004.8 264.678 1005.87 263.04 1006.63 261.18C1007.41 259.308 1007.8 257.304 1007.8 255.168C1007.8 253.032 1007.41 251.034 1006.63 249.174C1005.87 247.302 1004.8 245.664 1003.43 244.26C1002.06 242.844 1000.47 241.74 998.659 240.948C996.847 240.156 994.903 239.76 992.827 239.76C990.751 239.76 988.807 240.156 986.995 240.948C985.183 241.74 983.593 242.844 982.225 244.26C980.857 245.664 979.783 247.302 979.003 249.174C978.235 251.034 977.851 253.032 977.851 255.168C977.851 257.304 978.235 259.308 979.003 261.18C979.783 263.04 980.857 264.678 982.225 266.094C983.593 267.498 985.183 268.596 986.995 269.388C988.807 270.18 990.751 270.576 992.827 270.576ZM992.827 263.88C991.351 263.88 990.049 263.514 988.921 262.782C987.793 262.05 986.911 261.03 986.275 259.722C985.639 258.402 985.321 256.884 985.321 255.168C985.321 253.44 985.639 251.922 986.275 250.614C986.911 249.306 987.793 248.286 988.921 247.554C990.049 246.822 991.351 246.456 992.827 246.456C994.315 246.456 995.617 246.822 996.733 247.554C997.861 248.286 998.743 249.306 999.379 250.614C1000.02 251.922 1000.33 253.44 1000.33 255.168C1000.33 256.884 1000.02 258.402 999.379 259.722C998.743 261.03 997.861 262.05 996.733 262.782C995.617 263.514 994.315 263.88 992.827 263.88ZM1013.06 270H1019.99V257.778L1030.79 270H1040.35L1026.4 254.43L1038.48 240.3H1030.02L1019.99 252.252V240.3H1013.06V270ZM1043.58 270H1050.51V240.3H1043.58V270ZM1054.55 270H1080.22V263.916H1066.67L1081.16 240.3H1056.66V246.384H1069.04L1054.55 270ZM1085.59 270H1102.65V263.916H1092.52V258.156H1102.22V252.072H1092.52V246.384H1102.65V240.3H1085.59V270ZM1108.22 270H1115.16L1116.48 252.702L1122.63 269.658H1126.81L1132.97 252.702L1134.3 270H1141.23L1138.6 240.3H1131.22L1124.72 257.184L1118.22 240.3H1110.84L1108.22 270ZM1147.5 270H1164.56V263.916H1154.43V258.156H1164.13V252.072H1154.43V246.384H1164.56V240.3H1147.5V270Z" fill="black"/>
<circle cx="1112" cy="177" r="40" fill="#FF0000"/>
<path fill-rule="evenodd" clip-rule="evenodd" d="M1072 150C1052.53 150 1036.48 164.646 1034.26 183.523C1038.37 184.121 1042.31 185.217 1046.03 186.749C1046.68 172.97 1058.06 162 1072 162C1085.94 162 1097.32 172.97 1097.97 186.749C1101.69 185.217 1105.63 184.121 1109.74 183.523C1107.52 164.646 1091.47 150 1072 150ZM1121.78 183.225C1119.37 157.851 1098 138 1072 138C1046 138 1024.63 157.851 1022.23 183.225C996.851 185.629 977 206.996 977 233H989C989 212.013 1006.01 195 1027 195C1047.99 195 1065 212.013 1065 233H1067H1077H1079C1079 212.013 1096.01 195 1117 195C1137.99 195 1155 212.013 1155 233H1167C1167 206.996 1147.15 185.629 1121.78 183.225ZM1026.7 183.001C1026.8 183 1026.9 183 1027 183C1027 183 1027 183 1027 183M1083.68 195.717C1085.15 193.505 1086 190.852 1086 188C1086 180.268 1079.73 174 1072 174C1064.27 174 1058 180.268 1058 188C1058 190.852 1058.85 193.505 1060.32 195.717C1065.15 200.038 1069.14 205.285 1072 211.179C1074.86 205.285 1078.85 200.038 1083.68 195.717ZM1013 233C1013 225.268 1019.27 219 1027 219C1034.73 219 1041 225.268 1041 233H1053C1053 218.641 1041.36 207 1027 207C1012.64 207 1001 218.641 1001 233H1013ZM1103 233C1103 225.268 1109.27 219 1117 219C1124.73 219 1131 225.268 1131 233H1143C1143 218.641 1131.36 207 1117 207C1102.64 207 1091 218.641 1091 233H1103Z" fill="black"/>
</g>
<defs>
<filter id="filter0_d_1688_10733" x="0" y="0" width="1280" height="416" filterUnits="userSpaceOnUse" color-interpolation-filters="sRGB">
<feFlood flood-opacity="0" result="BackgroundImageFix"/>
<feColorMatrix in="SourceAlpha" type="matrix" values="0 0 0 0 0 0 0 0 0 0 0 0 0 0 0 0 0 0 127 0" result="hardAlpha"/>
<feOffset/>
<feGaussianBlur stdDeviation="16"/>
<feColorMatrix type="matrix" values="0 0 0 0 0 0 0 0 0 0 0 0 0 0 0 0 0 0 0.15 0"/>
<feBlend mode="normal" in2="BackgroundImageFix" result="effect1_dropShadow_1688_10733"/>
<feBlend mode="normal" in="SourceGraphic" in2="effect1_dropShadow_1688_10733" result="shape"/>
</filter>
<clipPath id="clip0_1688_10733">
<rect width="180" height="96" fill="white" transform="translate(118 133)"/>
</clipPath>
<clipPath id="clip1_1688_10733">
<rect width="128" height="67.4685" fill="white" transform="translate(418 156.108)"/>
</clipPath>
</defs>
</svg>
