<svg width="24" height="24" viewBox="0 0 24 24" fill="none" xmlns="http://www.w3.org/2000/svg">
<path d="M13.5 5V10C13.5 11.1046 12.6046 12 11.5 12H6.88059C6.41891 12 5.97144 12.1597 5.61412 12.4521L4.13324 13.6637C3.48031 14.1979 2.5 13.7334 2.5 12.8898V12V5C2.5 3.89543 3.39543 3 4.5 3H11.5C12.6046 3 13.5 3.89543 13.5 5Z" stroke="black" stroke-width="2"/>
<path d="M17 10H18.5C19.6046 10 20.5 10.8954 20.5 12V19V19.8258C20.5 20.6801 19.4979 21.141 18.8492 20.585L17.5617 19.4815C17.1992 19.1708 16.7376 19 16.2602 19H11.5C10.3954 19 9.5 18.1046 9.5 17V15.5" stroke="black" stroke-width="2" stroke-linecap="round" stroke-linejoin="round"/>
</svg>
