<svg width="24" height="24" viewBox="0 0 24 24" fill="none" xmlns="http://www.w3.org/2000/svg">
<path d="M22.5 5.00006C22.5 6.65691 21.1569 8 19.4999 8C17.8431 8 16.5 6.65691 16.5 5.00006C16.5 3.3432 17.8431 2 19.4999 2C21.1569 2 22.5 3.3432 22.5 5.00006Z" fill="#FE006C"/>
<path fill-rule="evenodd" clip-rule="evenodd" d="M22 8.74227V13.5C22 15.1569 20.6569 16.5 19 16.5H13.9715C13.7639 16.5 13.5615 16.5646 13.3923 16.6848L8.36881 20.2541C7.37564 20.9598 6 20.2497 6 19.0314V17.5C6 16.9477 5.55228 16.5 5 16.5C3.34315 16.5 2 15.1569 2 13.5V7C2 5.34315 3.34315 4 5 4H15.1115C15.0385 4.32164 15 4.65636 15 5.00008C15 5.34375 15.0385 5.67842 15.1115 6H5C4.44772 6 4 6.44772 4 7V13.5C4 14.0523 4.44772 14.5 5 14.5C6.65685 14.5 8 15.8431 8 17.5V18.0628L12.2339 15.0545C12.7415 14.6938 13.3488 14.5 13.9715 14.5H19C19.5523 14.5 20 14.0523 20 13.5V9.47253C20.7344 9.39134 21.4156 9.13343 22 8.74227Z" fill="black"/>
</svg>
