<svg width="24" height="24" viewBox="0 0 24 24" fill="none" xmlns="http://www.w3.org/2000/svg">
<path d="M17 10H18.5C19.6046 10 20.5 10.8954 20.5 12V19V19.8258C20.5 20.6801 19.4979 21.141 18.8492 20.585L17.5617 19.4815C17.1992 19.1708 16.7376 19 16.2602 19H11.5C10.3954 19 9.5 18.1046 9.5 17V15.5" stroke="black" stroke-width="2" stroke-linecap="round" stroke-linejoin="round"/>
<path fill-rule="evenodd" clip-rule="evenodd" d="M14.5 8.03226V10C14.5 11.6569 13.1569 13 11.5 13H6.88059C6.64975 13 6.42602 13.0799 6.24736 13.226L4.76648 14.4377C3.46061 15.5061 1.5 14.577 1.5 12.8898V12V5C1.5 3.34315 2.84315 2 4.5 2H8.46777C8.16837 2.60248 8.00001 3.28158 8 4H4.5C3.94772 4 3.5 4.44772 3.5 5V12V12.8898L4.98088 11.6781C5.51687 11.2396 6.18807 11 6.88059 11H11.5C12.0523 11 12.5 10.5523 12.5 10V8.5C13.2184 8.49999 13.8975 8.33165 14.5 8.03226Z" fill="black"/>
<path d="M15.5 4.00006C15.5 5.65691 14.1569 7 12.4999 7C10.8431 7 9.5 5.65691 9.5 4.00006C9.5 2.3432 10.8431 1 12.4999 1C14.1569 1 15.5 2.3432 15.5 4.00006Z" fill="#FE006C"/>
</svg>
