<svg width="24" height="24" viewBox="0 0 24 24" fill="none" xmlns="http://www.w3.org/2000/svg">
<path d="M7.42966 5.55469H11.8056C12.4322 4.15023 13.5342 3.01457 13.5434 2.99609C13.7192 2.83203 13.766 2.58594 13.6723 2.36328C13.5786 2.14063 13.3676 2 13.1333 2C12.0786 2 11.5043 2.375 11.0473 2.67969C10.6372 2.96094 10.3208 3.17188 9.61763 3.17188C8.91451 3.17188 8.5981 2.96094 8.18794 2.67969C7.73091 2.375 7.15669 2 6.10201 2C5.86763 2 5.65669 2.14063 5.56294 2.36328C5.46919 2.58594 5.51607 2.83203 5.69185 2.99609C5.70111 3.01457 6.80302 4.15023 7.42966 5.55469Z" fill="#333333"/>
<path d="M13.7578 20.2422V21.4141C13.7578 21.7377 14.0202 22 14.3438 22H21.4141C21.7377 22 22 21.7377 22 21.4141V20.2422C22 19.9186 21.7377 19.6562 21.4141 19.6562H14.3438C14.0202 19.6562 13.7578 19.9186 13.7578 20.2422Z" fill="#333333"/>
<path d="M22 17.8984V16.7266C22 16.403 21.7377 16.1406 21.4141 16.1406H14.3438C14.0202 16.1406 13.7578 16.403 13.7578 16.7266V17.8984C13.7578 18.222 14.0202 18.4844 14.3438 18.4844H21.4141C21.7377 18.4844 22 18.222 22 17.8984Z" fill="#333333"/>
<path d="M13.6836 11.4766C12.5352 10.3516 11.5977 9.39844 11.4102 7.89844H11.9609C12.2891 7.89844 12.5469 7.64062 12.5469 7.3125C12.5469 6.98438 12.2891 6.72656 11.9609 6.72656H7.27344C6.94531 6.72656 6.6875 6.98438 6.6875 7.3125C6.6875 7.64062 6.94531 7.89844 7.27344 7.89844H7.82422C7.63672 9.39844 6.69922 10.3516 5.55078 11.4766C3.88672 13.1055 2 14.957 2 19.1875C2.02344 20.7344 3.34766 22 4.92969 22H12.6547C12.5891 21.816 12.5469 21.6203 12.5469 21.4141V16.7266C12.5469 15.7574 13.3355 14.9688 14.3047 14.9688H16.4035C15.6945 13.4492 14.643 12.418 13.6836 11.4766ZM9.61719 14.9688C10.5865 14.9688 11.375 15.7573 11.375 16.7266C11.375 17.4895 10.8837 18.1337 10.2031 18.3764V19.0703C10.2031 19.3942 9.94106 19.6562 9.61719 19.6562C9.29332 19.6562 9.03125 19.3942 9.03125 19.0703V18.3764C8.3507 18.1338 7.85938 17.4895 7.85938 16.7266C7.85938 16.4027 8.12145 16.1406 8.44531 16.1406C8.76918 16.1406 9.03125 16.4027 9.03125 16.7266C9.03125 17.0498 9.29391 17.3125 9.61719 17.3125C9.94047 17.3125 10.2031 17.0498 10.2031 16.7266C10.2031 16.4033 9.94047 16.1406 9.61719 16.1406C8.64789 16.1406 7.85938 15.3521 7.85938 14.3828C7.85938 13.6199 8.3507 12.9756 9.03125 12.7329V12.0391C9.03125 11.7152 9.29332 11.4531 9.61719 11.4531C9.94106 11.4531 10.2031 11.7152 10.2031 12.0391V12.7329C10.8837 12.9756 11.375 13.6199 11.375 14.3828C11.375 14.7067 11.1129 14.9688 10.7891 14.9688C10.4652 14.9688 10.2031 14.7067 10.2031 14.3828C10.2031 14.0595 9.94047 13.7969 9.61719 13.7969C9.29391 13.7969 9.03125 14.0595 9.03125 14.3828C9.03125 14.7061 9.29391 14.9688 9.61719 14.9688Z" fill="#333333"/>
</svg>
