<svg width="24" height="24" viewBox="0 0 24 24" fill="none" xmlns="http://www.w3.org/2000/svg">
<path d="M14.9525 10.9937C14.1194 10.5166 13.2337 10.1531 12.3568 9.77596C11.8482 9.55786 11.3615 9.30341 10.9318 8.949C10.0856 8.24927 10.2478 7.11333 11.2388 6.66351C11.5194 6.53628 11.8131 6.49539 12.1113 6.47721C13.26 6.4136 14.3518 6.6317 15.3909 7.14968C15.9083 7.40868 16.0793 7.32689 16.2547 6.76801C16.4388 6.17733 16.5923 5.57755 16.7633 4.98233C16.8773 4.58248 16.737 4.31894 16.3731 4.15082C15.7066 3.84639 15.0226 3.62829 14.3036 3.51016C13.3653 3.36021 13.3653 3.35567 13.3609 2.37877C13.3565 1.00202 13.3565 1.00202 12.0236 1.00202C11.8307 1.00202 11.6377 0.997476 11.4448 1.00202C10.8222 1.02019 10.717 1.13379 10.6995 1.78354C10.6907 2.07434 10.6995 2.36514 10.6951 2.66048C10.6907 3.52379 10.6863 3.51016 9.88831 3.81004C7.9591 4.53704 6.76649 5.90016 6.63934 8.08115C6.52534 10.0122 7.49872 11.3163 9.02893 12.2659C9.97161 12.8521 11.0151 13.1974 12.0148 13.6563C12.405 13.8335 12.7777 14.038 13.1022 14.3197C14.0624 15.1421 13.887 16.5098 12.747 17.0278C12.1376 17.3049 11.4931 17.3731 10.831 17.2867C9.80938 17.155 8.83163 16.8778 7.91087 16.3825C7.37156 16.0917 7.21372 16.169 7.02957 16.7733C6.87172 17.2958 6.73142 17.8229 6.59111 18.35C6.40258 19.0588 6.47273 19.2269 7.12603 19.5586C7.9591 19.9766 8.84916 20.1902 9.75677 20.3401C10.4671 20.4583 10.489 20.4901 10.4978 21.2534C10.5021 21.5987 10.5021 21.9486 10.5065 22.2939C10.5109 22.7301 10.7126 22.9846 11.1467 22.9937C11.6377 23.0028 12.1332 23.0028 12.6243 22.9891C13.0277 22.98 13.2337 22.7528 13.2337 22.3303C13.2337 21.8577 13.2557 21.3806 13.2381 20.9081C13.2162 20.4265 13.4179 20.1811 13.8651 20.0539C14.8955 19.7631 15.7724 19.1906 16.4476 18.3363C18.3242 15.9736 17.6095 12.5158 14.9525 10.9937Z" fill="#333333"/>
</svg>
