<svg width="24" height="25" viewBox="0 0 24 25" fill="none" xmlns="http://www.w3.org/2000/svg">
<path d="M23.9729 7.13856V1.79918C23.9729 1.71745 23.9729 1.60849 23.9458 1.52676C23.8915 1.14538 23.7017 0.76399 23.4305 0.491573C23.1322 0.191913 22.7525 0.0012207 22.3186 0.0012207C22.2373 0.0012207 22.1831 0.00122071 22.1017 0.0284625L9.68136 1.90814C9.22034 1.96263 8.81356 2.18056 8.51525 2.48022C8.21695 2.77988 8.02712 3.18851 8.02712 3.67886V9.04549V17.7629C7.97288 17.7356 7.94576 17.7084 7.91864 17.7084C7.07797 17.0818 5.93898 16.7004 4.69153 16.7004C3.44407 16.7004 2.30508 17.0818 1.46441 17.7084C0.569492 18.3622 0 19.3156 0 20.3508C0 21.386 0.542373 22.3395 1.46441 22.9933C2.30508 23.6198 3.44407 24.0012 4.69153 24.0012C5.93898 24.0012 7.07797 23.6198 7.91864 22.9933C8.81356 22.3395 9.38305 21.386 9.38305 20.3508C9.38305 20.3236 9.38305 20.2691 9.38305 20.2419V9.64481L22.6169 7.92858V15.8832C22.5898 15.8559 22.5627 15.8559 22.5356 15.8287C21.6949 15.2021 20.5559 14.8207 19.3085 14.8207C18.061 14.8207 16.922 15.2021 16.0814 15.8287C15.1864 16.4825 14.617 17.436 14.617 18.4711C14.617 19.5063 15.1593 20.4598 16.0814 21.1136C16.922 21.7402 18.061 22.1215 19.3085 22.1215C20.5559 22.1215 21.6949 21.7402 22.5356 21.1136C23.4305 20.4598 24 19.5063 24 18.4711C24 18.4439 24 18.3894 24 18.3622V7.22029C23.9729 7.19305 23.9729 7.16581 23.9729 7.13856Z" fill="#333333"/>
</svg>
