<svg width="30" height="23" viewBox="0 0 30 23" fill="none" xmlns="http://www.w3.org/2000/svg">
<path d="M0 1.5C0 0.671573 0.671573 0 1.5 0H28.5C29.3284 0 30 0.671573 30 1.5C30 2.32843 29.3284 3 28.5 3H1.5C0.671573 3 0 2.32843 0 1.5Z" fill="black"/>
<path d="M0 11.5C0 10.6716 0.671573 10 1.5 10H28.5C29.3284 10 30 10.6716 30 11.5C30 12.3284 29.3284 13 28.5 13H1.5C0.671573 13 0 12.3284 0 11.5Z" fill="black"/>
<path d="M1.5 20C0.671573 20 0 20.6716 0 21.5C0 22.3284 0.671573 23 1.5 23H28.5C29.3284 23 30 22.3284 30 21.5C30 20.6716 29.3284 20 28.5 20H1.5Z" fill="black"/>
</svg>
