<svg width="24" height="25" viewBox="0 0 24 25" fill="none" xmlns="http://www.w3.org/2000/svg">
<path d="M12 22.0012C13.2692 22.0012 14.3603 21.2088 14.8237 20.0839C14.9439 19.7922 14.7058 19.5012 14.3904 19.5012H9.60965C9.29421 19.5012 9.05616 19.7923 9.17635 20.0839C9.63991 21.2088 10.731 22.0012 12 22.0012Z" fill="#333333"/>
<path d="M18 9.60122C18 8.11601 17.3679 6.69163 16.2426 5.64142C15.1174 4.59122 13.5913 4.00122 12 4.00122C10.4087 4.00122 8.88258 4.59122 7.75736 5.64142C6.63214 6.69163 6 8.11601 6 9.60122C6 13.3166 5.02982 15.5228 4.1929 16.7347C3.90716 17.1485 4.24713 18.0012 4.75 18.0012H19.25C19.7529 18.0012 20.0928 17.1485 19.8071 16.7347C18.9702 15.5228 18 13.3166 18 9.60122Z" fill="#333333"/>
</svg>
