<svg width="24" height="25" viewBox="0 0 24 25" fill="none" xmlns="http://www.w3.org/2000/svg">
<path d="M12 22.0012C13.2692 22.0012 14.3603 21.2088 14.8237 20.0839C14.9439 19.7922 14.7058 19.5012 14.3904 19.5012H9.60965C9.29421 19.5012 9.05616 19.7923 9.17635 20.0839C9.63991 21.2088 10.731 22.0012 12 22.0012Z" fill="#333333"/>
<path fill-rule="evenodd" clip-rule="evenodd" d="M13.8453 4.2723C13.2549 4.09429 12.6332 4.00122 12.0012 4.00122C10.4099 4.00122 8.88374 4.59122 7.75852 5.64142C6.63331 6.69163 6.00116 8.11601 6.00116 9.60122C6.00116 13.3166 5.03099 15.5228 4.19407 16.7347C3.90832 17.1485 4.2483 18.0012 4.75116 18.0012H19.2512C19.754 18.0012 20.094 17.1485 19.8083 16.7347C19.0413 15.624 18.1624 13.6783 18.0208 10.5012C18.0143 10.5012 18.0077 10.5012 18.0011 10.5012C15.5159 10.5012 13.5012 8.48659 13.5012 6.0013C13.5012 5.38867 13.6236 4.80462 13.8453 4.2723Z" fill="#333333"/>
<path d="M21 6.00128C21 7.65813 19.6569 9.00122 17.9999 9.00122C16.3431 9.00122 15 7.65813 15 6.00128C15 4.34442 16.3431 3.00122 17.9999 3.00122C19.6569 3.00122 21 4.34442 21 6.00128Z" fill="#333333"/>
</svg>
