<svg width="2861" height="596" viewBox="0 0 2861 596" fill="none" xmlns="http://www.w3.org/2000/svg">
<g clip-path="url(#clip0)">
<path fill-rule="evenodd" clip-rule="evenodd" d="M825.676 507.191H958.101C976.386 507.191 991.208 522.013 991.208 540.298L1130.26 540.298C1148.54 540.298 1163.36 555.12 1163.36 573.404C1163.36 577.109 1162.75 580.672 1161.63 583.998H1266.65C1284.94 583.998 1299.76 598.82 1299.76 617.105C1299.76 635.389 1284.94 650.211 1266.65 650.211H1188.12C1189.24 653.537 1189.85 657.1 1189.85 660.805C1189.85 679.089 1175.02 693.912 1156.74 693.912H1024.31C1006.03 693.912 991.208 679.089 991.208 660.805C991.208 642.521 1006.03 627.699 1024.31 627.699H1041.94C1040.81 624.373 1040.21 620.81 1040.21 617.105C1040.21 613.4 1040.81 609.837 1041.94 606.511H936.913C918.629 606.511 903.807 591.688 903.807 573.404L825.676 573.404C807.391 573.404 792.569 558.582 792.569 540.298C792.569 522.013 807.391 507.191 825.676 507.191Z" fill="white"/>
<path fill-rule="evenodd" clip-rule="evenodd" d="M1964.42 459.499C1964.42 443.419 1951.38 430.384 1935.3 430.384H1858.44C1842.36 430.384 1829.33 443.419 1829.33 459.499C1829.33 475.578 1842.36 488.613 1858.44 488.613H1901.89C1900.9 491.538 1900.37 494.671 1900.37 497.929C1900.37 514.009 1913.4 527.043 1929.48 527.043H2034.66C2034.42 528.56 2034.29 530.116 2034.29 531.702C2034.29 534.96 2034.83 538.093 2035.81 541.018H1852.62C1836.54 541.018 1823.51 554.053 1823.51 570.133C1823.51 586.212 1836.54 599.247 1852.62 599.247L1866.59 599.247C1866.59 615.326 1879.63 628.361 1895.71 628.361H2033.13C2049.21 628.361 2062.24 615.326 2062.24 599.247L2072.72 599.247C2075.58 599.247 2078.34 598.836 2080.94 598.071C2085.89 607.099 2095.48 613.222 2106.5 613.222H2305.64C2321.72 613.222 2334.75 600.187 2334.75 584.107C2334.75 568.028 2321.72 554.993 2305.64 554.993H2239.26C2246.33 549.681 2250.9 541.226 2250.9 531.702L2281.18 531.702C2297.26 531.702 2310.3 518.667 2310.3 502.588C2310.3 486.508 2297.26 473.473 2281.18 473.473H2204.32C2188.24 473.473 2175.2 486.508 2175.2 502.588L2116.61 502.588C2116.85 501.071 2116.98 499.515 2116.98 497.929C2116.98 481.85 2103.94 468.815 2087.86 468.815H1962.9C1963.88 465.89 1964.42 462.757 1964.42 459.499Z" fill="white"/>
<path fill-rule="evenodd" clip-rule="evenodd" d="M1656.4 559.499H1597.71C1596.26 559.717 1594.77 559.83 1593.25 559.83C1576.7 559.83 1563.29 546.416 1563.29 529.869C1563.29 513.377 1576.61 499.997 1593.08 499.908V499.908H1593.25H1742.34C1743.4 499.796 1744.47 499.738 1745.55 499.738C1762.09 499.738 1775.51 513.152 1775.51 529.699C1775.51 534.43 1774.41 538.904 1772.46 542.882L1818.65 542.882C1818.65 526.335 1832.07 512.921 1848.61 512.921H2051.15C2067.7 512.921 2081.11 526.335 2081.11 542.882C2081.11 559.429 2067.7 572.843 2051.15 572.843L1948.08 572.843C1948.08 577.104 1947.19 581.157 1945.59 584.827H2005.61C2022.16 584.827 2035.57 598.241 2035.57 614.788C2035.57 631.335 2022.16 644.749 2005.61 644.749H1878.57H1878.57C1862.03 644.749 1848.61 631.335 1848.61 614.788C1848.61 610.527 1849.5 606.474 1851.11 602.804H1802.98C1804.58 606.474 1805.47 610.527 1805.47 614.788C1805.47 631.227 1792.23 644.574 1775.83 644.747V644.914H1717.98C1717.89 661.385 1704.52 674.71 1688.02 674.71H1455.53H1455.53C1438.98 674.71 1425.57 661.296 1425.57 644.749C1425.57 628.202 1438.98 614.788 1455.53 614.788H1455.53L1458.01 614.788C1458.01 598.966 1470.28 586.009 1485.82 584.904V584.66H1655.69C1654.13 581.034 1653.27 577.039 1653.27 572.843C1653.27 568.049 1654.39 563.518 1656.4 559.499Z" fill="white"/>
<path fill-rule="evenodd" clip-rule="evenodd" d="M1501.58 493.981C1514.39 493.981 1524.77 483.598 1524.77 470.79C1524.77 457.982 1514.39 447.6 1501.58 447.6H1321.62C1308.82 447.6 1298.43 457.982 1298.43 470.79L1182.48 470.79C1169.67 470.79 1159.29 481.173 1159.29 493.981C1159.29 499.626 1161.31 504.801 1164.66 508.823L1070.24 508.823C1070.24 496.326 1060.35 486.137 1047.98 485.65V485.632H1047.05H942.226H942.226C929.419 485.632 919.036 496.015 919.036 508.823C919.036 521.63 929.419 532.013 942.226 532.013H942.226L986.752 532.013C986.752 544.821 997.135 555.204 1009.94 555.204H1009.94H1133.31C1132.71 557.264 1132.39 559.443 1132.39 561.697C1132.39 574.505 1142.77 584.888 1155.58 584.888L1222.37 584.888C1222.37 587.831 1222.92 590.646 1223.92 593.236H1139.81C1139.81 593.236 1139.81 593.236 1139.81 593.236C1127 593.236 1116.62 603.619 1116.62 616.427C1116.62 629.234 1127 639.617 1139.81 639.617C1139.81 639.617 1139.81 639.617 1139.81 639.617H1281.74C1281.74 639.617 1281.74 639.617 1281.74 639.617C1294.54 639.617 1304.93 629.234 1304.93 616.427C1304.93 613.484 1304.38 610.669 1303.38 608.078H1462.62C1475.43 608.078 1485.81 597.695 1485.81 584.888C1485.81 572.08 1475.43 561.697 1462.62 561.697L1358.73 561.697C1358.73 548.889 1348.35 538.506 1335.54 538.506H1261.33C1261.93 536.446 1262.26 534.267 1262.26 532.013C1262.26 526.368 1260.24 521.193 1256.88 517.171H1411.6C1424.41 517.171 1434.79 506.789 1434.79 493.981L1501.58 493.981Z" fill="white"/>
<path fill-rule="evenodd" clip-rule="evenodd" d="M1085.89 298.62L1085.89 298.62C1076.75 298.62 1069.34 291.209 1069.34 282.067C1069.34 272.925 1076.75 265.514 1085.89 265.514L1085.91 265.514H1152.11C1161.25 265.514 1168.66 272.925 1168.66 282.067L1238.18 282.067C1247.32 282.067 1254.74 289.478 1254.74 298.62C1254.74 300.473 1254.43 302.254 1253.87 303.917H1306.38C1315.52 303.917 1322.93 311.329 1322.93 320.471C1322.93 329.613 1315.52 337.024 1306.38 337.024H1267.11C1267.67 338.687 1267.98 340.468 1267.98 342.321C1267.98 351.463 1260.57 358.874 1251.43 358.874H1185.21H1185.21C1176.07 358.874 1168.66 351.463 1168.66 342.321C1168.66 333.179 1176.07 325.768 1185.21 325.768H1185.21H1194.02C1193.46 324.105 1193.16 322.323 1193.16 320.471C1193.16 318.618 1193.46 316.837 1194.02 315.174H1141.51C1141.51 315.174 1141.51 315.174 1141.51 315.174C1132.37 315.174 1124.96 307.762 1124.96 298.62L1085.89 298.62Z" fill="white"/>
<path fill-rule="evenodd" clip-rule="evenodd" d="M2860.4 609.053V668.089H2423.23C2406.93 668.089 2393.71 654.873 2393.71 638.571C2393.71 635.267 2394.26 632.091 2395.26 629.125H2337.04C2320.74 629.125 2307.52 615.909 2307.52 599.607C2307.52 583.305 2320.74 570.089 2337.04 570.089L2432.68 570.089C2432.68 565.891 2433.55 561.897 2435.13 558.282H2386.63C2370.33 558.282 2357.11 545.066 2357.11 528.764C2357.11 512.461 2370.33 499.246 2386.63 499.246H2508.24C2524.55 499.246 2537.76 512.461 2537.76 528.764C2537.76 532.962 2536.89 536.955 2535.31 540.571H2682.99C2699.29 540.571 2712.51 553.786 2712.51 570.089C2712.51 573.392 2711.97 576.569 2710.97 579.535H2744.75C2743.75 576.569 2743.21 573.392 2743.21 570.089C2743.21 553.786 2756.42 540.571 2772.73 540.571H2807.06C2805.48 536.955 2804.61 532.962 2804.61 528.764C2804.61 512.461 2817.82 499.246 2834.12 499.246H2860.4V599.607H2816.05C2817.05 602.573 2817.59 605.749 2817.59 609.053H2860.4Z" fill="white"/>
<path fill-rule="evenodd" clip-rule="evenodd" d="M1014.91 519.946C1014.91 502.662 1000.9 488.652 983.615 488.652H762.053C744.77 488.652 730.759 502.662 730.759 519.946C730.759 521.65 730.895 523.322 731.158 524.953H621.856C606.277 524.953 593.357 536.337 590.96 551.24H517.959C500.676 551.24 486.665 565.251 486.665 582.534C486.665 599.817 500.676 613.828 517.959 613.828H594.396C591.952 618.287 590.562 623.406 590.562 628.849C590.562 646.132 604.572 660.143 621.856 660.143H788.34C803.919 660.143 816.839 648.759 819.236 633.856H903.503C920.786 633.856 934.797 619.845 934.797 602.562C934.797 585.279 920.786 571.268 903.503 571.268H839.584C842.028 566.809 843.418 561.69 843.418 556.247C843.418 554.543 843.282 552.87 843.02 551.24H983.615C1000.9 551.24 1014.91 537.229 1014.91 519.946Z" fill="white"/>
<path fill-rule="evenodd" clip-rule="evenodd" d="M243.727 599.889C228.699 599.889 216.516 587.707 216.516 572.679C216.516 557.65 228.699 545.468 243.727 545.468H424.476C422.35 541.591 421.142 537.14 421.142 532.407L331.89 532.407C316.862 532.407 304.679 520.224 304.679 505.196C304.679 490.168 316.862 477.985 331.89 477.985H377.244C376.071 474.946 375.428 471.642 375.428 468.189C375.428 453.161 387.61 440.978 402.638 440.978H568.08C583.108 440.978 595.291 453.161 595.291 468.189C595.291 483.217 583.108 495.4 568.08 495.4H477.012C478.185 498.439 478.829 501.743 478.829 505.196L669.304 505.196C684.332 505.196 696.515 517.378 696.515 532.407C696.515 547.435 684.332 559.617 669.304 559.617H566.923C569.048 563.494 570.257 567.945 570.257 572.679C570.257 587.707 558.074 599.889 543.046 599.889H243.727Z" fill="white"/>
<path fill-rule="evenodd" clip-rule="evenodd" d="M0 657V534.324H177.548C175.718 530.595 174.691 526.401 174.691 521.966C174.691 520.043 174.884 518.164 175.252 516.35H96.0534C80.5426 516.35 67.9687 503.776 67.9687 488.265C67.9687 472.754 80.5427 460.18 96.0534 460.18H301.633C317.144 460.18 329.718 472.754 329.718 488.265C329.718 490.188 329.525 492.067 329.156 493.882H408.355C423.866 493.882 436.44 506.456 436.44 521.966C436.44 537.477 423.866 550.051 408.355 550.051H335.848C337.678 553.78 338.705 557.974 338.705 562.409C338.705 564.332 338.512 566.211 338.143 568.025H481.376C496.886 568.025 509.46 580.599 509.46 596.11C509.46 611.621 496.886 624.195 481.376 624.195H351.07C351.797 626.69 352.186 629.329 352.186 632.059C352.186 647.569 339.612 660.143 324.101 660.143H12.9227C8.26298 660.143 3.86832 659.008 0 657Z" fill="white"/>
<path fill-rule="evenodd" clip-rule="evenodd" d="M0 668.089H72.9037C89.206 668.089 102.422 654.873 102.422 638.571C102.422 622.268 89.206 609.053 72.9037 609.053L0 609.053V668.089ZM0 599.607V499.246H229.939C246.242 499.246 259.457 512.461 259.457 528.764C259.457 545.066 246.242 558.282 229.939 558.282H62.1824C63.7622 561.897 64.6385 565.891 64.6385 570.089C64.6385 586.391 51.4229 599.607 35.1205 599.607H0Z" fill="white"/>
<path fill-rule="evenodd" clip-rule="evenodd" d="M2860.4 534.324V657C2851.39 652.323 2845.24 642.909 2845.24 632.059C2845.24 631.302 2845.27 630.553 2845.33 629.812H2707.06C2691.55 629.812 2678.98 617.238 2678.98 601.727C2678.98 586.216 2691.55 573.642 2707.06 573.642H2834.09C2832.59 570.202 2831.76 566.403 2831.76 562.408C2831.76 546.898 2844.33 534.324 2859.84 534.324H2860.4Z" fill="white"/>
<path fill-rule="evenodd" clip-rule="evenodd" d="M0 386.683H43.034C42.6059 385.213 42.3764 383.657 42.3764 382.049C42.3764 372.906 49.7875 365.495 58.9296 365.495H102.841C102.702 364.633 102.63 363.748 102.63 362.847C102.63 361.477 102.796 360.147 103.11 358.874H0V309.214L32.4443 309.214C41.5865 309.214 48.9976 316.625 48.9976 325.768L213.206 325.768C222.348 325.768 229.759 333.179 229.759 342.321C229.759 351.463 222.348 358.874 213.206 358.874H176.971C177.284 360.147 177.451 361.477 177.451 362.847C177.451 371.989 170.04 379.4 160.898 379.4H127.58C127.719 380.262 127.791 381.147 127.791 382.049C127.791 383.657 127.562 385.213 127.133 386.683H154.938C164.08 386.683 171.492 394.095 171.492 403.237C171.492 412.379 164.08 419.79 154.938 419.79H0V386.683ZM0 301.256V268.175C8.83515 268.523 15.8911 275.795 15.8911 284.716C15.8911 293.636 8.83517 300.908 0 301.256Z" fill="white"/>
<path fill-rule="evenodd" clip-rule="evenodd" d="M2860.4 301.256C2860.18 301.265 2859.96 301.269 2859.74 301.269H2808.05C2809.34 303.628 2810.08 306.335 2810.08 309.215L2860.4 309.215V358.874H2837.89C2828.75 358.874 2821.33 351.463 2821.33 342.321L2753.14 342.321C2743.99 342.321 2736.58 334.91 2736.58 325.768L2647.19 325.768C2638.05 325.768 2630.64 318.357 2630.64 309.215C2630.64 300.073 2638.05 292.661 2647.19 292.661H2718.08C2716.79 290.303 2716.06 287.595 2716.06 284.716C2716.06 275.574 2723.47 268.163 2732.61 268.163H2859.74C2859.96 268.163 2860.18 268.167 2860.4 268.176V301.256ZM2860.4 386.684V419.79H2831.93C2822.79 419.79 2815.38 412.379 2815.38 403.237C2815.38 394.095 2822.79 386.684 2831.93 386.684H2860.4Z" fill="white"/>
<path fill-rule="evenodd" clip-rule="evenodd" d="M2225.42 293.986C2225.42 284.844 2218.01 277.432 2208.86 277.432H2104.91C2095.77 277.432 2088.36 284.844 2088.36 293.986C2088.36 303.128 2095.77 310.539 2104.91 310.539H2170.9C2170.19 312.388 2169.8 314.397 2169.8 316.498C2169.8 318.599 2170.19 320.608 2170.9 322.457H2098.29C2092.03 322.457 2086.58 325.935 2083.76 331.065H1946C1936.86 331.065 1929.45 338.476 1929.45 347.618C1929.45 356.76 1936.86 364.171 1946 364.171L2034.06 364.171C2034.06 373.313 2041.47 380.725 2050.62 380.725L2122.79 380.725C2122.79 389.867 2130.2 397.278 2139.34 397.278H2263.16C2272.3 397.278 2279.71 389.867 2279.71 380.725C2279.71 379.355 2279.55 378.025 2279.23 376.752H2318.12C2327.26 376.752 2334.67 369.341 2334.67 360.199C2334.67 351.056 2327.26 343.645 2318.12 343.645H2261.83C2252.69 343.645 2245.28 351.056 2245.28 360.199C2245.28 361.568 2245.45 362.899 2245.76 364.171L2190.99 364.171C2190.99 361.019 2190.11 358.072 2188.58 355.564H2222.11C2231.25 355.564 2238.66 348.153 2238.66 339.01C2238.66 336.91 2238.27 334.9 2237.56 333.051H2300.24C2309.38 333.051 2316.79 325.64 2316.79 316.498C2316.79 307.356 2309.38 299.945 2300.24 299.945H2224.31C2225.03 298.096 2225.42 296.086 2225.42 293.986Z" fill="white"/>
</g>
<defs>
<clipPath id="clip0">
<rect width="2860.4" height="596" fill="white"/>
</clipPath>
</defs>
</svg>
