<svg width="928" height="1152" viewBox="0 0 928 1152" fill="none" xmlns="http://www.w3.org/2000/svg">
<g filter="url(#filter0_d_1692_10876)">
<path d="M48 64C48 55.1635 55.1634 48 64 48H208V432H64C55.1634 432 48 424.837 48 416V64Z" fill="#D6FEF6"/>
<path d="M80.5941 460.664C82.9408 460.664 84.9995 461.123 86.7701 462.04C88.5621 462.957 89.9381 464.269 90.8981 465.976C91.8795 467.661 92.3701 469.624 92.3701 471.864C92.3701 474.104 91.8795 476.067 90.8981 477.752C89.9381 479.416 88.5621 480.707 86.7701 481.624C84.9995 482.541 82.9408 483 80.5941 483H72.7861V460.664H80.5941ZM80.4341 479.192C82.7808 479.192 84.5941 478.552 85.8741 477.272C87.1541 475.992 87.7941 474.189 87.7941 471.864C87.7941 469.539 87.1541 467.725 85.8741 466.424C84.5941 465.101 82.7808 464.44 80.4341 464.44H77.2661V479.192H80.4341ZM107.308 465.496C107.094 464.6 106.721 463.928 106.188 463.48C105.676 463.032 104.929 462.808 103.948 462.808C102.476 462.808 101.388 463.405 100.684 464.6C100.001 465.773 99.649 467.693 99.6276 470.36C100.14 469.507 100.886 468.845 101.868 468.376C102.849 467.885 103.916 467.64 105.068 467.64C106.454 467.64 107.681 467.939 108.748 468.536C109.814 469.133 110.646 470.008 111.244 471.16C111.841 472.291 112.14 473.656 112.14 475.256C112.14 476.771 111.83 478.125 111.212 479.32C110.614 480.493 109.729 481.411 108.556 482.072C107.382 482.733 105.985 483.064 104.364 483.064C102.145 483.064 100.396 482.573 99.1156 481.592C97.857 480.611 96.9716 479.245 96.4596 477.496C95.969 475.725 95.7236 473.549 95.7236 470.968C95.7236 467.064 96.3956 464.12 97.7396 462.136C99.0836 460.131 101.206 459.128 104.108 459.128C106.348 459.128 108.086 459.736 109.324 460.952C110.561 462.168 111.276 463.683 111.468 465.496H107.308ZM104.044 471.32C102.913 471.32 101.964 471.651 101.196 472.312C100.428 472.973 100.044 473.933 100.044 475.192C100.044 476.451 100.396 477.443 101.1 478.168C101.825 478.893 102.838 479.256 104.14 479.256C105.292 479.256 106.198 478.904 106.86 478.2C107.542 477.496 107.884 476.547 107.884 475.352C107.884 474.115 107.553 473.133 106.892 472.408C106.252 471.683 105.302 471.32 104.044 471.32ZM129.984 460.664V464.28H120.672V470.008H127.808V473.56H120.672V483H116.192V460.664H129.984ZM137.641 464.28V469.88H145.161V473.432H137.641V479.352H146.121V483H133.161V460.632H146.121V464.28H137.641ZM163.984 460.664V464.28H154.672V470.008H161.808V473.56H154.672V483H150.192V460.664H163.984ZM178.745 465.496C178.532 464.6 178.158 463.928 177.625 463.48C177.113 463.032 176.366 462.808 175.385 462.808C173.913 462.808 172.825 463.405 172.121 464.6C171.438 465.773 171.086 467.693 171.065 470.36C171.577 469.507 172.324 468.845 173.305 468.376C174.286 467.885 175.353 467.64 176.505 467.64C177.892 467.64 179.118 467.939 180.185 468.536C181.252 469.133 182.084 470.008 182.681 471.16C183.278 472.291 183.577 473.656 183.577 475.256C183.577 476.771 183.268 478.125 182.649 479.32C182.052 480.493 181.166 481.411 179.993 482.072C178.82 482.733 177.422 483.064 175.801 483.064C173.582 483.064 171.833 482.573 170.553 481.592C169.294 480.611 168.409 479.245 167.897 477.496C167.406 475.725 167.161 473.549 167.161 470.968C167.161 467.064 167.833 464.12 169.177 462.136C170.521 460.131 172.644 459.128 175.545 459.128C177.785 459.128 179.524 459.736 180.761 460.952C181.998 462.168 182.713 463.683 182.905 465.496H178.745ZM175.481 471.32C174.35 471.32 173.401 471.651 172.633 472.312C171.865 472.973 171.481 473.933 171.481 475.192C171.481 476.451 171.833 477.443 172.537 478.168C173.262 478.893 174.276 479.256 175.577 479.256C176.729 479.256 177.636 478.904 178.297 478.2C178.98 477.496 179.321 476.547 179.321 475.352C179.321 474.115 178.99 473.133 178.329 472.408C177.689 471.683 176.74 471.32 175.481 471.32Z" fill="#777777"/>
<rect x="208" y="48" width="160" height="384" fill="#231552"/>
<path d="M236.76 477.944C238.808 476.237 240.44 474.819 241.656 473.688C242.872 472.536 243.886 471.341 244.696 470.104C245.507 468.867 245.912 467.651 245.912 466.456C245.912 465.368 245.656 464.515 245.144 463.896C244.632 463.277 243.843 462.968 242.776 462.968C241.71 462.968 240.888 463.331 240.312 464.056C239.736 464.76 239.438 465.731 239.416 466.968H235.064C235.15 464.408 235.907 462.467 237.336 461.144C238.787 459.821 240.622 459.16 242.84 459.16C245.272 459.16 247.139 459.811 248.44 461.112C249.742 462.392 250.392 464.088 250.392 466.2C250.392 467.864 249.944 469.453 249.048 470.968C248.152 472.483 247.128 473.805 245.976 474.936C244.824 476.045 243.32 477.389 241.464 478.968H250.904V482.68H235.096V479.352L236.76 477.944ZM253.791 465.816C253.898 463.683 254.645 462.04 256.031 460.888C257.439 459.715 259.285 459.128 261.567 459.128C263.125 459.128 264.458 459.405 265.567 459.96C266.677 460.493 267.509 461.229 268.063 462.168C268.639 463.085 268.927 464.131 268.927 465.304C268.927 466.648 268.575 467.789 267.871 468.728C267.189 469.645 266.367 470.264 265.407 470.584V470.712C266.645 471.096 267.605 471.779 268.287 472.76C268.991 473.741 269.343 475 269.343 476.536C269.343 477.816 269.045 478.957 268.447 479.96C267.871 480.963 267.007 481.752 265.855 482.328C264.725 482.883 263.359 483.16 261.759 483.16C259.349 483.16 257.386 482.552 255.871 481.336C254.357 480.12 253.557 478.328 253.471 475.96H257.823C257.866 477.005 258.218 477.848 258.879 478.488C259.562 479.107 260.49 479.416 261.663 479.416C262.751 479.416 263.583 479.117 264.159 478.52C264.757 477.901 265.055 477.112 265.055 476.152C265.055 474.872 264.65 473.955 263.839 473.4C263.029 472.845 261.77 472.568 260.063 472.568H259.135V468.888H260.063C263.093 468.888 264.607 467.875 264.607 465.848C264.607 464.931 264.33 464.216 263.775 463.704C263.242 463.192 262.463 462.936 261.439 462.936C260.437 462.936 259.658 463.213 259.103 463.768C258.57 464.301 258.261 464.984 258.175 465.816H253.791ZM272.34 463.8V459.672H280.052V483H275.444V463.8H272.34ZM300.157 463.544H289.789V469.016C290.237 468.461 290.877 468.013 291.709 467.672C292.541 467.309 293.427 467.128 294.365 467.128C296.072 467.128 297.469 467.501 298.557 468.248C299.645 468.995 300.435 469.955 300.925 471.128C301.416 472.28 301.661 473.517 301.661 474.84C301.661 477.293 300.957 479.267 299.549 480.76C298.163 482.253 296.179 483 293.597 483C291.165 483 289.224 482.392 287.773 481.176C286.323 479.96 285.501 478.371 285.309 476.408H289.661C289.853 477.261 290.28 477.944 290.941 478.456C291.624 478.968 292.488 479.224 293.533 479.224C294.792 479.224 295.741 478.829 296.381 478.04C297.021 477.251 297.341 476.205 297.341 474.904C297.341 473.581 297.011 472.579 296.349 471.896C295.709 471.192 294.76 470.84 293.501 470.84C292.605 470.84 291.859 471.064 291.261 471.512C290.664 471.96 290.237 472.557 289.981 473.304H285.693V459.608H300.157V463.544ZM320.751 463.544H310.383V469.016C310.831 468.461 311.471 468.013 312.303 467.672C313.135 467.309 314.02 467.128 314.959 467.128C316.666 467.128 318.063 467.501 319.151 468.248C320.239 468.995 321.028 469.955 321.519 471.128C322.01 472.28 322.255 473.517 322.255 474.84C322.255 477.293 321.551 479.267 320.143 480.76C318.756 482.253 316.772 483 314.191 483C311.759 483 309.818 482.392 308.367 481.176C306.916 479.96 306.095 478.371 305.903 476.408H310.255C310.447 477.261 310.874 477.944 311.535 478.456C312.218 478.968 313.082 479.224 314.127 479.224C315.386 479.224 316.335 478.829 316.975 478.04C317.615 477.251 317.935 476.205 317.935 474.904C317.935 473.581 317.604 472.579 316.943 471.896C316.303 471.192 315.354 470.84 314.095 470.84C313.199 470.84 312.452 471.064 311.855 471.512C311.258 471.96 310.831 472.557 310.575 473.304H306.287V459.608H320.751V463.544ZM327.073 477.944C329.121 476.237 330.753 474.819 331.969 473.688C333.185 472.536 334.198 471.341 335.009 470.104C335.819 468.867 336.225 467.651 336.225 466.456C336.225 465.368 335.969 464.515 335.457 463.896C334.945 463.277 334.155 462.968 333.089 462.968C332.022 462.968 331.201 463.331 330.625 464.056C330.049 464.76 329.75 465.731 329.729 466.968H325.377C325.462 464.408 326.219 462.467 327.649 461.144C329.099 459.821 330.934 459.16 333.153 459.16C335.585 459.16 337.451 459.811 338.753 461.112C340.054 462.392 340.705 464.088 340.705 466.2C340.705 467.864 340.257 469.453 339.361 470.968C338.465 472.483 337.441 473.805 336.289 474.936C335.137 476.045 333.633 477.389 331.777 478.968H341.217V482.68H325.409V479.352L327.073 477.944Z" fill="#777777"/>
<rect x="368" y="48" width="160" height="384" fill="#4DCDBE"/>
<path d="M384.91 478.456V474.936L395.374 459.96H400.59V474.552H403.406V478.456H400.59V483H396.11V478.456H384.91ZM396.398 464.76L389.838 474.552H396.398V464.76ZM414.579 460.664C416.925 460.664 418.984 461.123 420.755 462.04C422.547 462.957 423.923 464.269 424.883 465.976C425.864 467.661 426.355 469.624 426.355 471.864C426.355 474.104 425.864 476.067 424.883 477.752C423.923 479.416 422.547 480.707 420.755 481.624C418.984 482.541 416.925 483 414.579 483H406.771V460.664H414.579ZM414.419 479.192C416.765 479.192 418.579 478.552 419.859 477.272C421.139 475.992 421.779 474.189 421.779 471.864C421.779 469.539 421.139 467.725 419.859 466.424C418.579 465.101 416.765 464.44 414.419 464.44H411.251V479.192H414.419ZM428.62 471.8C428.62 469.603 429.111 467.64 430.092 465.912C431.095 464.163 432.449 462.808 434.156 461.848C435.884 460.867 437.815 460.376 439.948 460.376C442.444 460.376 444.631 461.016 446.508 462.296C448.385 463.576 449.697 465.347 450.444 467.608H445.292C444.78 466.541 444.055 465.741 443.116 465.208C442.199 464.675 441.132 464.408 439.916 464.408C438.615 464.408 437.452 464.717 436.428 465.336C435.425 465.933 434.636 466.787 434.06 467.896C433.505 469.005 433.228 470.307 433.228 471.8C433.228 473.272 433.505 474.573 434.06 475.704C434.636 476.813 435.425 477.677 436.428 478.296C437.452 478.893 438.615 479.192 439.916 479.192C441.132 479.192 442.199 478.925 443.116 478.392C444.055 477.837 444.78 477.027 445.292 475.96H450.444C449.697 478.243 448.385 480.024 446.508 481.304C444.652 482.563 442.465 483.192 439.948 483.192C437.815 483.192 435.884 482.712 434.156 481.752C432.449 480.771 431.095 479.416 430.092 477.688C429.111 475.96 428.62 473.997 428.62 471.8ZM462.079 460.664C464.425 460.664 466.484 461.123 468.255 462.04C470.047 462.957 471.423 464.269 472.383 465.976C473.364 467.661 473.855 469.624 473.855 471.864C473.855 474.104 473.364 476.067 472.383 477.752C471.423 479.416 470.047 480.707 468.255 481.624C466.484 482.541 464.425 483 462.079 483H454.271V460.664H462.079ZM461.919 479.192C464.265 479.192 466.079 478.552 467.359 477.272C468.639 475.992 469.279 474.189 469.279 471.864C469.279 469.539 468.639 467.725 467.359 466.424C466.079 465.101 464.265 464.44 461.919 464.44H458.751V479.192H461.919ZM489.88 471.544C491.139 471.779 492.173 472.408 492.984 473.432C493.795 474.456 494.2 475.629 494.2 476.952C494.2 478.147 493.901 479.203 493.304 480.12C492.728 481.016 491.885 481.72 490.776 482.232C489.667 482.744 488.355 483 486.84 483H477.208V460.664H486.424C487.939 460.664 489.24 460.909 490.328 461.4C491.437 461.891 492.269 462.573 492.824 463.448C493.4 464.323 493.688 465.315 493.688 466.424C493.688 467.725 493.336 468.813 492.632 469.688C491.949 470.563 491.032 471.181 489.88 471.544ZM481.688 469.88H485.784C486.851 469.88 487.672 469.645 488.248 469.176C488.824 468.685 489.112 467.992 489.112 467.096C489.112 466.2 488.824 465.507 488.248 465.016C487.672 464.525 486.851 464.28 485.784 464.28H481.688V469.88ZM486.2 479.352C487.288 479.352 488.131 479.096 488.728 478.584C489.347 478.072 489.656 477.347 489.656 476.408C489.656 475.448 489.336 474.701 488.696 474.168C488.056 473.613 487.192 473.336 486.104 473.336H481.688V479.352H486.2ZM502.251 464.28V469.88H509.771V473.432H502.251V479.352H510.731V483H497.771V460.632H510.731V464.28H502.251Z" fill="#777777"/>
<rect x="528" y="48" width="160" height="384" fill="#2774AC"/>
<path d="M550.073 477.944C552.121 476.237 553.753 474.819 554.969 473.688C556.185 472.536 557.198 471.341 558.009 470.104C558.819 468.867 559.225 467.651 559.225 466.456C559.225 465.368 558.969 464.515 558.457 463.896C557.945 463.277 557.155 462.968 556.089 462.968C555.022 462.968 554.201 463.331 553.625 464.056C553.049 464.76 552.75 465.731 552.729 466.968H548.377C548.462 464.408 549.219 462.467 550.649 461.144C552.099 459.821 553.934 459.16 556.153 459.16C558.585 459.16 560.451 459.811 561.753 461.112C563.054 462.392 563.705 464.088 563.705 466.2C563.705 467.864 563.257 469.453 562.361 470.968C561.465 472.483 560.441 473.805 559.289 474.936C558.137 476.045 556.633 477.389 554.777 478.968H564.217V482.68H548.409V479.352L550.073 477.944ZM581.888 463.064L573.376 483H568.832L577.408 463.576H566.464V459.736H581.888V463.064ZM599.419 463.064L590.907 483H586.363L594.939 463.576H583.995V459.736H599.419V463.064ZM601.91 478.456V474.936L612.374 459.96H617.59V474.552H620.406V478.456H617.59V483H613.11V478.456H601.91ZM613.398 464.76L606.838 474.552H613.398V464.76ZM637.467 478.744H628.571L627.099 483H622.395L630.427 460.632H635.643L643.675 483H638.939L637.467 478.744ZM636.251 475.16L633.019 465.816L629.786 475.16H636.251ZM645.589 471.8C645.589 469.603 646.079 467.64 647.061 465.912C648.063 464.163 649.418 462.808 651.125 461.848C652.853 460.867 654.783 460.376 656.917 460.376C659.413 460.376 661.599 461.016 663.477 462.296C665.354 463.576 666.666 465.347 667.413 467.608H662.261C661.749 466.541 661.023 465.741 660.085 465.208C659.167 464.675 658.101 464.408 656.885 464.408C655.583 464.408 654.421 464.717 653.397 465.336C652.394 465.933 651.605 466.787 651.029 467.896C650.474 469.005 650.197 470.307 650.197 471.8C650.197 473.272 650.474 474.573 651.029 475.704C651.605 476.813 652.394 477.677 653.397 478.296C654.421 478.893 655.583 479.192 656.885 479.192C658.101 479.192 659.167 478.925 660.085 478.392C661.023 477.837 661.749 477.027 662.261 475.96H667.413C666.666 478.243 665.354 480.024 663.477 481.304C661.621 482.563 659.434 483.192 656.917 483.192C654.783 483.192 652.853 482.712 651.125 481.752C649.418 480.771 648.063 479.416 647.061 477.688C646.079 475.96 645.589 473.997 645.589 471.8Z" fill="#777777"/>
<path d="M688 48H832C840.837 48 848 55.1634 848 64V416C848 424.837 840.837 432 832 432H688V48Z" fill="#FF8383"/>
<path d="M727.312 460.664V464.28H718.001V470.008H725.137V473.56H718.001V483H713.521V460.664H727.312ZM744.281 460.664V464.28H734.969V470.008H742.105V473.56H734.969V483H730.489V460.664H744.281ZM750.85 470.648C748.717 469.539 747.65 467.821 747.65 465.496C747.65 464.344 747.938 463.299 748.514 462.36C749.111 461.4 749.997 460.643 751.17 460.088C752.365 459.512 753.815 459.224 755.522 459.224C757.229 459.224 758.669 459.512 759.842 460.088C761.037 460.643 761.922 461.4 762.498 462.36C763.095 463.299 763.394 464.344 763.394 465.496C763.394 466.669 763.106 467.704 762.53 468.6C761.954 469.475 761.186 470.157 760.226 470.648C761.399 471.16 762.317 471.907 762.978 472.888C763.639 473.869 763.97 475.032 763.97 476.376C763.97 477.827 763.597 479.096 762.85 480.184C762.125 481.251 761.122 482.072 759.842 482.648C758.562 483.224 757.122 483.512 755.522 483.512C753.922 483.512 752.482 483.224 751.202 482.648C749.943 482.072 748.941 481.251 748.194 480.184C747.469 479.096 747.106 477.827 747.106 476.376C747.106 475.032 747.437 473.869 748.098 472.888C748.759 471.885 749.677 471.139 750.85 470.648ZM759.042 466.136C759.042 465.091 758.722 464.28 758.082 463.704C757.463 463.128 756.61 462.84 755.522 462.84C754.455 462.84 753.602 463.128 752.962 463.704C752.343 464.28 752.034 465.101 752.034 466.168C752.034 467.128 752.354 467.896 752.994 468.472C753.655 469.048 754.498 469.336 755.522 469.336C756.546 469.336 757.389 469.048 758.05 468.472C758.711 467.875 759.042 467.096 759.042 466.136ZM755.522 472.6C754.306 472.6 753.314 472.909 752.546 473.528C751.799 474.147 751.426 475.032 751.426 476.184C751.426 477.251 751.789 478.125 752.514 478.808C753.261 479.469 754.263 479.8 755.522 479.8C756.781 479.8 757.773 479.459 758.498 478.776C759.223 478.093 759.586 477.229 759.586 476.184C759.586 475.053 759.213 474.179 758.466 473.56C757.719 472.92 756.738 472.6 755.522 472.6ZM767.573 465.816C767.679 463.683 768.426 462.04 769.812 460.888C771.221 459.715 773.066 459.128 775.349 459.128C776.906 459.128 778.239 459.405 779.349 459.96C780.458 460.493 781.29 461.229 781.845 462.168C782.421 463.085 782.708 464.131 782.708 465.304C782.708 466.648 782.357 467.789 781.653 468.728C780.97 469.645 780.149 470.264 779.189 470.584V470.712C780.426 471.096 781.386 471.779 782.069 472.76C782.773 473.741 783.125 475 783.125 476.536C783.125 477.816 782.826 478.957 782.229 479.96C781.653 480.963 780.789 481.752 779.637 482.328C778.506 482.883 777.141 483.16 775.541 483.16C773.13 483.16 771.167 482.552 769.653 481.336C768.138 480.12 767.338 478.328 767.253 475.96H771.605C771.647 477.005 771.999 477.848 772.661 478.488C773.343 479.107 774.271 479.416 775.445 479.416C776.533 479.416 777.365 479.117 777.941 478.52C778.538 477.901 778.837 477.112 778.837 476.152C778.837 474.872 778.431 473.955 777.621 473.4C776.81 472.845 775.551 472.568 773.845 472.568H772.917V468.888H773.845C776.874 468.888 778.389 467.875 778.389 465.848C778.389 464.931 778.111 464.216 777.557 463.704C777.023 463.192 776.245 462.936 775.22 462.936C774.218 462.936 773.439 463.213 772.885 463.768C772.351 464.301 772.042 464.984 771.957 465.816H767.573ZM790.569 470.648C788.435 469.539 787.369 467.821 787.369 465.496C787.369 464.344 787.657 463.299 788.233 462.36C788.83 461.4 789.715 460.643 790.889 460.088C792.083 459.512 793.534 459.224 795.241 459.224C796.947 459.224 798.387 459.512 799.561 460.088C800.755 460.643 801.641 461.4 802.217 462.36C802.814 463.299 803.113 464.344 803.113 465.496C803.113 466.669 802.825 467.704 802.249 468.6C801.673 469.475 800.905 470.157 799.945 470.648C801.118 471.16 802.035 471.907 802.697 472.888C803.358 473.869 803.689 475.032 803.689 476.376C803.689 477.827 803.315 479.096 802.569 480.184C801.843 481.251 800.841 482.072 799.561 482.648C798.281 483.224 796.841 483.512 795.241 483.512C793.641 483.512 792.201 483.224 790.921 482.648C789.662 482.072 788.659 481.251 787.913 480.184C787.187 479.096 786.825 477.827 786.825 476.376C786.825 475.032 787.155 473.869 787.817 472.888C788.478 471.885 789.395 471.139 790.569 470.648ZM798.761 466.136C798.761 465.091 798.441 464.28 797.801 463.704C797.182 463.128 796.329 462.84 795.241 462.84C794.174 462.84 793.321 463.128 792.681 463.704C792.062 464.28 791.753 465.101 791.753 466.168C791.753 467.128 792.073 467.896 792.713 468.472C793.374 469.048 794.217 469.336 795.241 469.336C796.265 469.336 797.107 469.048 797.769 468.472C798.43 467.875 798.761 467.096 798.761 466.136ZM795.241 472.6C794.025 472.6 793.033 472.909 792.265 473.528C791.518 474.147 791.145 475.032 791.145 476.184C791.145 477.251 791.507 478.125 792.233 478.808C792.979 479.469 793.982 479.8 795.241 479.8C796.499 479.8 797.491 479.459 798.217 478.776C798.942 478.093 799.305 477.229 799.305 476.184C799.305 475.053 798.931 474.179 798.185 473.56C797.438 472.92 796.457 472.6 795.241 472.6ZM807.291 465.816C807.398 463.683 808.145 462.04 809.531 460.888C810.939 459.715 812.785 459.128 815.067 459.128C816.625 459.128 817.958 459.405 819.067 459.96C820.177 460.493 821.009 461.229 821.563 462.168C822.139 463.085 822.427 464.131 822.427 465.304C822.427 466.648 822.075 467.789 821.371 468.728C820.689 469.645 819.867 470.264 818.907 470.584V470.712C820.145 471.096 821.105 471.779 821.787 472.76C822.491 473.741 822.843 475 822.843 476.536C822.843 477.816 822.545 478.957 821.947 479.96C821.371 480.963 820.507 481.752 819.355 482.328C818.225 482.883 816.859 483.16 815.259 483.16C812.849 483.16 810.886 482.552 809.371 481.336C807.857 480.12 807.057 478.328 806.971 475.96H811.323C811.366 477.005 811.718 477.848 812.379 478.488C813.062 479.107 813.99 479.416 815.163 479.416C816.251 479.416 817.083 479.117 817.659 478.52C818.257 477.901 818.555 477.112 818.555 476.152C818.555 474.872 818.15 473.955 817.339 473.4C816.529 472.845 815.27 472.568 813.563 472.568H812.635V468.888H813.563C816.593 468.888 818.107 467.875 818.107 465.848C818.107 464.931 817.83 464.216 817.275 463.704C816.742 463.192 815.963 462.936 814.939 462.936C813.937 462.936 813.158 463.213 812.603 463.768C812.07 464.301 811.761 464.984 811.675 465.816H807.291Z" fill="#777777"/>
</g>
<g filter="url(#filter1_d_1692_10876)">
<path d="M48 640C48 631.163 55.1634 624 64 624H208V1008H64C55.1634 1008 48 1000.84 48 992V640Z" fill="#171739"/>
<path d="M80.4333 1039.8V1035.67H88.1453V1059H83.5373V1039.8H80.4333ZM107.419 1039.06L98.907 1059H94.363L102.939 1039.58H91.995V1035.74H107.419V1039.06ZM109.558 1039.8V1035.67H117.27V1059H112.662V1039.8H109.558ZM136.544 1039.06L128.032 1059H123.488L132.064 1039.58H121.12V1035.74H136.544V1039.06ZM139.291 1041.82C139.398 1039.68 140.145 1038.04 141.531 1036.89C142.939 1035.71 144.785 1035.13 147.067 1035.13C148.625 1035.13 149.958 1035.41 151.067 1035.96C152.177 1036.49 153.009 1037.23 153.563 1038.17C154.139 1039.09 154.427 1040.13 154.427 1041.3C154.427 1042.65 154.075 1043.79 153.371 1044.73C152.689 1045.65 151.867 1046.26 150.907 1046.58V1046.71C152.145 1047.1 153.105 1047.78 153.787 1048.76C154.491 1049.74 154.843 1051 154.843 1052.54C154.843 1053.82 154.545 1054.96 153.947 1055.96C153.371 1056.96 152.507 1057.75 151.355 1058.33C150.225 1058.88 148.859 1059.16 147.259 1059.16C144.849 1059.16 142.886 1058.55 141.371 1057.34C139.857 1056.12 139.057 1054.33 138.971 1051.96H143.323C143.366 1053.01 143.718 1053.85 144.379 1054.49C145.062 1055.11 145.99 1055.42 147.163 1055.42C148.251 1055.42 149.083 1055.12 149.659 1054.52C150.257 1053.9 150.555 1053.11 150.555 1052.15C150.555 1050.87 150.15 1049.95 149.339 1049.4C148.529 1048.85 147.27 1048.57 145.563 1048.57H144.635V1044.89H145.563C148.593 1044.89 150.107 1043.87 150.107 1041.85C150.107 1040.93 149.83 1040.22 149.275 1039.7C148.742 1039.19 147.963 1038.94 146.939 1038.94C145.937 1038.94 145.158 1039.21 144.603 1039.77C144.07 1040.3 143.761 1040.98 143.675 1041.82H139.291ZM163.568 1052.44C163.738 1053.38 164.122 1054.1 164.72 1054.62C165.338 1055.11 166.16 1055.35 167.184 1055.35C168.506 1055.35 169.466 1054.81 170.064 1053.72C170.661 1052.61 170.96 1050.75 170.96 1048.15C170.469 1048.83 169.776 1049.37 168.88 1049.75C168.005 1050.14 167.056 1050.33 166.032 1050.33C164.666 1050.33 163.429 1050.05 162.32 1049.5C161.232 1048.92 160.368 1048.08 159.728 1046.97C159.088 1045.84 158.768 1044.47 158.768 1042.87C158.768 1040.5 159.472 1038.63 160.88 1037.24C162.288 1035.83 164.208 1035.13 166.64 1035.13C169.669 1035.13 171.802 1036.1 173.04 1038.04C174.298 1039.98 174.928 1042.9 174.928 1046.81C174.928 1049.58 174.682 1051.85 174.192 1053.62C173.722 1055.39 172.901 1056.74 171.728 1057.66C170.576 1058.57 168.997 1059.03 166.992 1059.03C165.413 1059.03 164.069 1058.73 162.96 1058.14C161.85 1057.52 160.997 1056.72 160.4 1055.74C159.824 1054.73 159.493 1053.63 159.408 1052.44H163.568ZM166.96 1046.68C168.069 1046.68 168.944 1046.34 169.584 1045.66C170.224 1044.97 170.544 1044.06 170.544 1042.9C170.544 1041.65 170.202 1040.67 169.52 1039.99C168.858 1039.29 167.952 1038.94 166.8 1038.94C165.648 1038.94 164.73 1039.3 164.048 1040.02C163.386 1040.73 163.056 1041.67 163.056 1042.84C163.056 1043.97 163.376 1044.9 164.016 1045.62C164.677 1046.33 165.658 1046.68 166.96 1046.68Z" fill="#777777"/>
<rect x="208" y="624" width="160" height="384" fill="#2E1660"/>
<path d="M236.792 1053.94C238.84 1052.24 240.472 1050.82 241.688 1049.69C242.904 1048.54 243.917 1047.34 244.728 1046.1C245.538 1044.87 245.944 1043.65 245.944 1042.46C245.944 1041.37 245.688 1040.51 245.176 1039.9C244.664 1039.28 243.874 1038.97 242.808 1038.97C241.741 1038.97 240.92 1039.33 240.344 1040.06C239.768 1040.76 239.469 1041.73 239.448 1042.97H235.096C235.181 1040.41 235.938 1038.47 237.368 1037.14C238.818 1035.82 240.653 1035.16 242.872 1035.16C245.304 1035.16 247.17 1035.81 248.472 1037.11C249.773 1038.39 250.424 1040.09 250.424 1042.2C250.424 1043.86 249.976 1045.45 249.08 1046.97C248.184 1048.48 247.16 1049.81 246.008 1050.94C244.856 1052.05 243.352 1053.39 241.496 1054.97H250.936V1058.68H235.128V1055.35L236.792 1053.94ZM258.751 1040.28V1045.88H266.271V1049.43H258.751V1055.35H267.231V1059H254.271V1036.63H267.231V1040.28H258.751ZM270.246 1039.8V1035.67H277.958V1059H273.35V1039.8H270.246ZM294.48 1041.5C294.266 1040.6 293.893 1039.93 293.36 1039.48C292.848 1039.03 292.101 1038.81 291.12 1038.81C289.648 1038.81 288.56 1039.41 287.856 1040.6C287.173 1041.77 286.821 1043.69 286.8 1046.36C287.312 1045.51 288.058 1044.85 289.04 1044.38C290.021 1043.89 291.088 1043.64 292.24 1043.64C293.626 1043.64 294.853 1043.94 295.92 1044.54C296.986 1045.13 297.818 1046.01 298.416 1047.16C299.013 1048.29 299.312 1049.66 299.312 1051.26C299.312 1052.77 299.002 1054.13 298.384 1055.32C297.786 1056.49 296.901 1057.41 295.728 1058.07C294.554 1058.73 293.157 1059.06 291.536 1059.06C289.317 1059.06 287.568 1058.57 286.288 1057.59C285.029 1056.61 284.144 1055.25 283.632 1053.5C283.141 1051.73 282.896 1049.55 282.896 1046.97C282.896 1043.06 283.568 1040.12 284.911 1038.14C286.256 1036.13 288.378 1035.13 291.28 1035.13C293.52 1035.13 295.258 1035.74 296.496 1036.95C297.733 1038.17 298.448 1039.68 298.64 1041.5H294.48ZM291.216 1047.32C290.085 1047.32 289.136 1047.65 288.368 1048.31C287.6 1048.97 287.216 1049.93 287.216 1051.19C287.216 1052.45 287.568 1053.44 288.272 1054.17C288.997 1054.89 290.01 1055.26 291.312 1055.26C292.464 1055.26 293.37 1054.9 294.032 1054.2C294.714 1053.5 295.056 1052.55 295.056 1051.35C295.056 1050.11 294.725 1049.13 294.064 1048.41C293.424 1047.68 292.474 1047.32 291.216 1047.32ZM314.948 1041.5C314.735 1040.6 314.362 1039.93 313.828 1039.48C313.316 1039.03 312.57 1038.81 311.588 1038.81C310.116 1038.81 309.028 1039.41 308.324 1040.6C307.642 1041.77 307.29 1043.69 307.268 1046.36C307.78 1045.51 308.527 1044.85 309.508 1044.38C310.49 1043.89 311.556 1043.64 312.708 1043.64C314.095 1043.64 315.322 1043.94 316.388 1044.54C317.455 1045.13 318.287 1046.01 318.884 1047.16C319.482 1048.29 319.78 1049.66 319.78 1051.26C319.78 1052.77 319.471 1054.13 318.852 1055.32C318.255 1056.49 317.37 1057.41 316.196 1058.07C315.023 1058.73 313.626 1059.06 312.004 1059.06C309.786 1059.06 308.036 1058.57 306.756 1057.59C305.498 1056.61 304.612 1055.25 304.1 1053.5C303.61 1051.73 303.364 1049.55 303.364 1046.97C303.364 1043.06 304.036 1040.12 305.38 1038.14C306.724 1036.13 308.847 1035.13 311.748 1035.13C313.988 1035.13 315.727 1035.74 316.964 1036.95C318.202 1038.17 318.916 1039.68 319.108 1041.5H314.948ZM311.684 1047.32C310.554 1047.32 309.604 1047.65 308.836 1048.31C308.068 1048.97 307.684 1049.93 307.684 1051.19C307.684 1052.45 308.036 1053.44 308.74 1054.17C309.466 1054.89 310.479 1055.26 311.78 1055.26C312.932 1055.26 313.839 1054.9 314.5 1054.2C315.183 1053.5 315.524 1052.55 315.524 1051.35C315.524 1050.11 315.194 1049.13 314.532 1048.41C313.892 1047.68 312.943 1047.32 311.684 1047.32ZM323.321 1047.03C323.321 1043.34 323.982 1040.45 325.305 1038.36C326.649 1036.27 328.868 1035.22 331.961 1035.22C335.054 1035.22 337.262 1036.27 338.585 1038.36C339.929 1040.45 340.601 1043.34 340.601 1047.03C340.601 1050.74 339.929 1053.66 338.585 1055.77C337.262 1057.88 335.054 1058.94 331.961 1058.94C328.868 1058.94 326.649 1057.88 325.305 1055.77C323.982 1053.66 323.321 1050.74 323.321 1047.03ZM336.185 1047.03C336.185 1045.45 336.078 1044.13 335.865 1043.06C335.673 1041.98 335.268 1041.09 334.649 1040.41C334.052 1039.73 333.156 1039.38 331.961 1039.38C330.766 1039.38 329.86 1039.73 329.241 1040.41C328.644 1041.09 328.238 1041.98 328.025 1043.06C327.833 1044.13 327.737 1045.45 327.737 1047.03C327.737 1048.65 327.833 1050.02 328.025 1051.13C328.217 1052.22 328.622 1053.1 329.241 1053.78C329.86 1054.45 330.766 1054.78 331.961 1054.78C333.156 1054.78 334.062 1054.45 334.681 1053.78C335.3 1053.1 335.705 1052.22 335.897 1051.13C336.089 1050.02 336.185 1048.65 336.185 1047.03Z" fill="#777777"/>
<rect x="368" y="624" width="160" height="384" fill="#3423A5"/>
<path d="M389.088 1041.82C389.195 1039.68 389.941 1038.04 391.328 1036.89C392.736 1035.71 394.581 1035.13 396.864 1035.13C398.421 1035.13 399.755 1035.41 400.864 1035.96C401.973 1036.49 402.805 1037.23 403.36 1038.17C403.936 1039.09 404.224 1040.13 404.224 1041.3C404.224 1042.65 403.872 1043.79 403.168 1044.73C402.485 1045.65 401.664 1046.26 400.704 1046.58V1046.71C401.941 1047.1 402.901 1047.78 403.584 1048.76C404.288 1049.74 404.64 1051 404.64 1052.54C404.64 1053.82 404.341 1054.96 403.744 1055.96C403.168 1056.96 402.304 1057.75 401.152 1058.33C400.021 1058.88 398.656 1059.16 397.056 1059.16C394.645 1059.16 392.683 1058.55 391.168 1057.34C389.653 1056.12 388.853 1054.33 388.768 1051.96H393.12C393.163 1053.01 393.515 1053.85 394.176 1054.49C394.859 1055.11 395.787 1055.42 396.96 1055.42C398.048 1055.42 398.88 1055.12 399.456 1054.52C400.053 1053.9 400.352 1053.11 400.352 1052.15C400.352 1050.87 399.947 1049.95 399.136 1049.4C398.325 1048.85 397.067 1048.57 395.36 1048.57H394.432V1044.89H395.36C398.389 1044.89 399.904 1043.87 399.904 1041.85C399.904 1040.93 399.627 1040.22 399.072 1039.7C398.539 1039.19 397.76 1038.94 396.736 1038.94C395.733 1038.94 394.955 1039.21 394.4 1039.77C393.867 1040.3 393.557 1040.98 393.472 1041.82H389.088ZM407.988 1054.46V1050.94L418.452 1035.96H423.668V1050.55H426.484V1054.46H423.668V1059H419.188V1054.46H407.988ZM419.476 1040.76L412.916 1050.55H419.476V1040.76ZM430.745 1053.94C432.793 1052.24 434.425 1050.82 435.641 1049.69C436.857 1048.54 437.87 1047.34 438.681 1046.1C439.491 1044.87 439.897 1043.65 439.897 1042.46C439.897 1041.37 439.641 1040.51 439.129 1039.9C438.617 1039.28 437.827 1038.97 436.761 1038.97C435.694 1038.97 434.873 1039.33 434.297 1040.06C433.721 1040.76 433.422 1041.73 433.401 1042.97H429.049C429.134 1040.41 429.891 1038.47 431.321 1037.14C432.771 1035.82 434.606 1035.16 436.825 1035.16C439.257 1035.16 441.123 1035.81 442.425 1037.11C443.726 1038.39 444.377 1040.09 444.377 1042.2C444.377 1043.86 443.929 1045.45 443.033 1046.97C442.137 1048.48 441.113 1049.81 439.961 1050.94C438.809 1052.05 437.305 1053.39 435.449 1054.97H444.889V1058.68H429.081V1055.35L430.745 1053.94ZM447.776 1041.82C447.882 1039.68 448.629 1038.04 450.016 1036.89C451.424 1035.71 453.269 1035.13 455.552 1035.13C457.109 1035.13 458.442 1035.41 459.552 1035.96C460.661 1036.49 461.493 1037.23 462.048 1038.17C462.624 1039.09 462.912 1040.13 462.912 1041.3C462.912 1042.65 462.56 1043.79 461.856 1044.73C461.173 1045.65 460.352 1046.26 459.392 1046.58V1046.71C460.629 1047.1 461.589 1047.78 462.272 1048.76C462.976 1049.74 463.328 1051 463.328 1052.54C463.328 1053.82 463.029 1054.96 462.432 1055.96C461.856 1056.96 460.992 1057.75 459.84 1058.33C458.709 1058.88 457.344 1059.16 455.744 1059.16C453.333 1059.16 451.37 1058.55 449.856 1057.34C448.341 1056.12 447.541 1054.33 447.456 1051.96H451.808C451.85 1053.01 452.202 1053.85 452.864 1054.49C453.546 1055.11 454.474 1055.42 455.648 1055.42C456.736 1055.42 457.568 1055.12 458.144 1054.52C458.741 1053.9 459.04 1053.11 459.04 1052.15C459.04 1050.87 458.634 1049.95 457.824 1049.4C457.013 1048.85 455.754 1048.57 454.048 1048.57H453.12V1044.89H454.048C457.077 1044.89 458.592 1043.87 458.592 1041.85C458.592 1040.93 458.314 1040.22 457.76 1039.7C457.226 1039.19 456.448 1038.94 455.424 1038.94C454.421 1038.94 453.642 1039.21 453.088 1039.77C452.554 1040.3 452.245 1040.98 452.16 1041.82H447.776ZM481.076 1054.74H472.18L470.708 1059H466.004L474.036 1036.63H479.252L487.284 1059H482.548L481.076 1054.74ZM479.86 1051.16L476.628 1041.82L473.396 1051.16H479.86ZM505.454 1039.54H495.086V1045.02C495.534 1044.46 496.174 1044.01 497.006 1043.67C497.838 1043.31 498.723 1043.13 499.662 1043.13C501.369 1043.13 502.766 1043.5 503.854 1044.25C504.942 1044.99 505.731 1045.95 506.222 1047.13C506.713 1048.28 506.958 1049.52 506.958 1050.84C506.958 1053.29 506.254 1055.27 504.846 1056.76C503.459 1058.25 501.475 1059 498.894 1059C496.462 1059 494.521 1058.39 493.07 1057.18C491.619 1055.96 490.798 1054.37 490.606 1052.41H494.958C495.15 1053.26 495.577 1053.94 496.238 1054.46C496.921 1054.97 497.785 1055.22 498.83 1055.22C500.089 1055.22 501.038 1054.83 501.678 1054.04C502.318 1053.25 502.638 1052.21 502.638 1050.9C502.638 1049.58 502.307 1048.58 501.646 1047.9C501.006 1047.19 500.057 1046.84 498.798 1046.84C497.902 1046.84 497.155 1047.06 496.558 1047.51C495.961 1047.96 495.534 1048.56 495.278 1049.3H490.99V1035.61H505.454V1039.54Z" fill="#777777"/>
<rect x="528" y="624" width="160" height="384" fill="#7180B9"/>
<path d="M569.06 1039.06L560.548 1059H556.004L564.58 1039.58H553.636V1035.74H569.06V1039.06ZM571.199 1039.8V1035.67H578.911V1059H574.303V1039.8H571.199ZM587.241 1046.65C585.107 1045.54 584.041 1043.82 584.041 1041.5C584.041 1040.34 584.329 1039.3 584.905 1038.36C585.502 1037.4 586.387 1036.64 587.561 1036.09C588.755 1035.51 590.206 1035.22 591.913 1035.22C593.619 1035.22 595.059 1035.51 596.233 1036.09C597.427 1036.64 598.313 1037.4 598.889 1038.36C599.486 1039.3 599.785 1040.34 599.785 1041.5C599.785 1042.67 599.497 1043.7 598.921 1044.6C598.345 1045.47 597.577 1046.16 596.617 1046.65C597.79 1047.16 598.707 1047.91 599.369 1048.89C600.03 1049.87 600.361 1051.03 600.361 1052.38C600.361 1053.83 599.987 1055.1 599.241 1056.18C598.515 1057.25 597.513 1058.07 596.233 1058.65C594.953 1059.22 593.513 1059.51 591.913 1059.51C590.313 1059.51 588.873 1059.22 587.593 1058.65C586.334 1058.07 585.331 1057.25 584.585 1056.18C583.859 1055.1 583.497 1053.83 583.497 1052.38C583.497 1051.03 583.827 1049.87 584.489 1048.89C585.15 1047.89 586.067 1047.14 587.241 1046.65ZM595.433 1042.14C595.433 1041.09 595.113 1040.28 594.473 1039.7C593.854 1039.13 593.001 1038.84 591.913 1038.84C590.846 1038.84 589.993 1039.13 589.353 1039.7C588.734 1040.28 588.425 1041.1 588.425 1042.17C588.425 1043.13 588.745 1043.9 589.385 1044.47C590.046 1045.05 590.889 1045.34 591.913 1045.34C592.937 1045.34 593.779 1045.05 594.441 1044.47C595.102 1043.87 595.433 1043.1 595.433 1042.14ZM591.913 1048.6C590.697 1048.6 589.705 1048.91 588.937 1049.53C588.19 1050.15 587.817 1051.03 587.817 1052.18C587.817 1053.25 588.179 1054.13 588.905 1054.81C589.651 1055.47 590.654 1055.8 591.913 1055.8C593.171 1055.8 594.163 1055.46 594.889 1054.78C595.614 1054.09 595.977 1053.23 595.977 1052.18C595.977 1051.05 595.603 1050.18 594.857 1049.56C594.11 1048.92 593.129 1048.6 591.913 1048.6ZM603.899 1047.03C603.899 1043.34 604.56 1040.45 605.883 1038.36C607.227 1036.27 609.446 1035.22 612.539 1035.22C615.632 1035.22 617.84 1036.27 619.163 1038.36C620.507 1040.45 621.179 1043.34 621.179 1047.03C621.179 1050.74 620.507 1053.66 619.163 1055.77C617.84 1057.88 615.632 1058.94 612.539 1058.94C609.446 1058.94 607.227 1057.88 605.883 1055.77C604.56 1053.66 603.899 1050.74 603.899 1047.03ZM616.763 1047.03C616.763 1045.45 616.656 1044.13 616.443 1043.06C616.251 1041.98 615.846 1041.09 615.227 1040.41C614.63 1039.73 613.734 1039.38 612.539 1039.38C611.344 1039.38 610.438 1039.73 609.819 1040.41C609.222 1041.09 608.816 1041.98 608.603 1043.06C608.411 1044.13 608.315 1045.45 608.315 1047.03C608.315 1048.65 608.411 1050.02 608.603 1051.13C608.795 1052.22 609.2 1053.1 609.819 1053.78C610.438 1054.45 611.344 1054.78 612.539 1054.78C613.734 1054.78 614.64 1054.45 615.259 1053.78C615.878 1053.1 616.283 1052.22 616.475 1051.13C616.667 1050.02 616.763 1048.65 616.763 1047.03ZM637.771 1047.54C639.029 1047.78 640.064 1048.41 640.875 1049.43C641.685 1050.46 642.091 1051.63 642.091 1052.95C642.091 1054.15 641.792 1055.2 641.195 1056.12C640.619 1057.02 639.776 1057.72 638.667 1058.23C637.557 1058.74 636.245 1059 634.731 1059H625.099V1036.66H634.315C635.829 1036.66 637.131 1036.91 638.219 1037.4C639.328 1037.89 640.16 1038.57 640.715 1039.45C641.291 1040.32 641.579 1041.31 641.579 1042.42C641.579 1043.73 641.227 1044.81 640.523 1045.69C639.84 1046.56 638.923 1047.18 637.771 1047.54ZM629.579 1045.88H633.675C634.741 1045.88 635.563 1045.65 636.139 1045.18C636.715 1044.69 637.003 1043.99 637.003 1043.1C637.003 1042.2 636.715 1041.51 636.139 1041.02C635.563 1040.53 634.741 1040.28 633.675 1040.28H629.579V1045.88ZM634.091 1055.35C635.179 1055.35 636.021 1055.1 636.619 1054.58C637.237 1054.07 637.547 1053.35 637.547 1052.41C637.547 1051.45 637.227 1050.7 636.587 1050.17C635.947 1049.61 635.083 1049.34 633.995 1049.34H629.579V1055.35H634.091ZM650.333 1052.44C650.504 1053.38 650.888 1054.1 651.485 1054.62C652.104 1055.11 652.925 1055.35 653.949 1055.35C655.272 1055.35 656.232 1054.81 656.829 1053.72C657.426 1052.61 657.725 1050.75 657.725 1048.15C657.234 1048.83 656.541 1049.37 655.645 1049.75C654.77 1050.14 653.821 1050.33 652.797 1050.33C651.432 1050.33 650.194 1050.05 649.085 1049.5C647.997 1048.92 647.133 1048.08 646.493 1046.97C645.853 1045.84 645.533 1044.47 645.533 1042.87C645.533 1040.5 646.237 1038.63 647.645 1037.24C649.053 1035.83 650.973 1035.13 653.405 1035.13C656.434 1035.13 658.568 1036.1 659.805 1038.04C661.064 1039.98 661.693 1042.9 661.693 1046.81C661.693 1049.58 661.448 1051.85 660.957 1053.62C660.488 1055.39 659.666 1056.74 658.493 1057.66C657.341 1058.57 655.762 1059.03 653.757 1059.03C652.178 1059.03 650.834 1058.73 649.725 1058.14C648.616 1057.52 647.762 1056.72 647.165 1055.74C646.589 1054.73 646.258 1053.63 646.173 1052.44H650.333ZM653.725 1046.68C654.834 1046.68 655.709 1046.34 656.349 1045.66C656.989 1044.97 657.309 1044.06 657.309 1042.9C657.309 1041.65 656.968 1040.67 656.285 1039.99C655.624 1039.29 654.717 1038.94 653.565 1038.94C652.413 1038.94 651.496 1039.3 650.813 1040.02C650.152 1040.73 649.821 1041.67 649.821 1042.84C649.821 1043.97 650.141 1044.9 650.781 1045.62C651.442 1046.33 652.424 1046.68 653.725 1046.68Z" fill="#777777"/>
<path d="M688 624H832C840.837 624 848 631.163 848 640V992C848 1000.84 840.837 1008 832 1008H688V624Z" fill="#DEF3E4"/>
<path d="M720.875 1036.66C723.222 1036.66 725.281 1037.12 727.051 1038.04C728.843 1038.96 730.219 1040.27 731.179 1041.98C732.161 1043.66 732.651 1045.62 732.651 1047.86C732.651 1050.1 732.161 1052.07 731.179 1053.75C730.219 1055.42 728.843 1056.71 727.051 1057.62C725.281 1058.54 723.222 1059 720.875 1059H713.067V1036.66H720.875ZM720.715 1055.19C723.062 1055.19 724.875 1054.55 726.155 1053.27C727.435 1051.99 728.075 1050.19 728.075 1047.86C728.075 1045.54 727.435 1043.73 726.155 1042.42C724.875 1041.1 723.062 1040.44 720.715 1040.44H717.547V1055.19H720.715ZM740.485 1040.28V1045.88H748.005V1049.43H740.485V1055.35H748.965V1059H736.005V1036.63H748.965V1040.28H740.485ZM766.828 1036.66V1040.28H757.516V1046.01H764.652V1049.56H757.516V1059H753.036V1036.66H766.828ZM769.557 1041.82C769.664 1039.68 770.41 1038.04 771.797 1036.89C773.205 1035.71 775.05 1035.13 777.333 1035.13C778.89 1035.13 780.224 1035.41 781.333 1035.96C782.442 1036.49 783.274 1037.23 783.829 1038.17C784.405 1039.09 784.693 1040.13 784.693 1041.3C784.693 1042.65 784.341 1043.79 783.637 1044.73C782.954 1045.65 782.133 1046.26 781.173 1046.58V1046.71C782.41 1047.1 783.37 1047.78 784.053 1048.76C784.757 1049.74 785.109 1051 785.109 1052.54C785.109 1053.82 784.81 1054.96 784.213 1055.96C783.637 1056.96 782.773 1057.75 781.621 1058.33C780.49 1058.88 779.125 1059.16 777.525 1059.16C775.114 1059.16 773.152 1058.55 771.637 1057.34C770.122 1056.12 769.322 1054.33 769.237 1051.96H773.589C773.632 1053.01 773.984 1053.85 774.645 1054.49C775.328 1055.11 776.256 1055.42 777.429 1055.42C778.517 1055.42 779.349 1055.12 779.925 1054.52C780.522 1053.9 780.821 1053.11 780.821 1052.15C780.821 1050.87 780.416 1049.95 779.605 1049.4C778.794 1048.85 777.536 1048.57 775.829 1048.57H774.901V1044.89H775.829C778.858 1044.89 780.373 1043.87 780.373 1041.85C780.373 1040.93 780.096 1040.22 779.541 1039.7C779.008 1039.19 778.229 1038.94 777.205 1038.94C776.202 1038.94 775.424 1039.21 774.869 1039.77C774.336 1040.3 774.026 1040.98 773.941 1041.82H769.557ZM793.641 1040.28V1045.88H801.161V1049.43H793.641V1055.35H802.121V1059H789.161V1036.63H802.121V1040.28H793.641ZM805.488 1054.46V1050.94L815.952 1035.96H821.168V1050.55H823.984V1054.46H821.168V1059H816.688V1054.46H805.488ZM816.976 1040.76L810.416 1050.55H816.976V1040.76Z" fill="#777777"/>
</g>
<defs>
<filter id="filter0_d_1692_10876" x="0" y="0" width="928" height="576" filterUnits="userSpaceOnUse" color-interpolation-filters="sRGB">
<feFlood flood-opacity="0" result="BackgroundImageFix"/>
<feColorMatrix in="SourceAlpha" type="matrix" values="0 0 0 0 0 0 0 0 0 0 0 0 0 0 0 0 0 0 127 0" result="hardAlpha"/>
<feOffset dx="16" dy="16"/>
<feGaussianBlur stdDeviation="32"/>
<feColorMatrix type="matrix" values="0 0 0 0 0 0 0 0 0 0 0 0 0 0 0 0 0 0 0.25 0"/>
<feBlend mode="normal" in2="BackgroundImageFix" result="effect1_dropShadow_1692_10876"/>
<feBlend mode="normal" in="SourceGraphic" in2="effect1_dropShadow_1692_10876" result="shape"/>
</filter>
<filter id="filter1_d_1692_10876" x="0" y="576" width="928" height="576" filterUnits="userSpaceOnUse" color-interpolation-filters="sRGB">
<feFlood flood-opacity="0" result="BackgroundImageFix"/>
<feColorMatrix in="SourceAlpha" type="matrix" values="0 0 0 0 0 0 0 0 0 0 0 0 0 0 0 0 0 0 127 0" result="hardAlpha"/>
<feOffset dx="16" dy="16"/>
<feGaussianBlur stdDeviation="32"/>
<feColorMatrix type="matrix" values="0 0 0 0 0 0 0 0 0 0 0 0 0 0 0 0 0 0 0.25 0"/>
<feBlend mode="normal" in2="BackgroundImageFix" result="effect1_dropShadow_1692_10876"/>
<feBlend mode="normal" in="SourceGraphic" in2="effect1_dropShadow_1692_10876" result="shape"/>
</filter>
</defs>
</svg>
