<svg width="1856" height="576" viewBox="0 0 1856 576" fill="none" xmlns="http://www.w3.org/2000/svg">
<g filter="url(#filter0_d_1692_10875)">
<path d="M48 64C48 55.1635 55.1634 48 64 48H208V432H64C55.1634 432 48 424.837 48 416V64Z" fill="#D6FEF6"/>
<path d="M80.5941 460.664C82.9408 460.664 84.9995 461.123 86.7701 462.04C88.5621 462.957 89.9381 464.269 90.8981 465.976C91.8795 467.661 92.3701 469.624 92.3701 471.864C92.3701 474.104 91.8795 476.067 90.8981 477.752C89.9381 479.416 88.5621 480.707 86.7701 481.624C84.9995 482.541 82.9408 483 80.5941 483H72.7861V460.664H80.5941ZM80.4341 479.192C82.7808 479.192 84.5941 478.552 85.8741 477.272C87.1541 475.992 87.7941 474.189 87.7941 471.864C87.7941 469.539 87.1541 467.725 85.8741 466.424C84.5941 465.101 82.7808 464.44 80.4341 464.44H77.2661V479.192H80.4341ZM107.308 465.496C107.094 464.6 106.721 463.928 106.188 463.48C105.676 463.032 104.929 462.808 103.948 462.808C102.476 462.808 101.388 463.405 100.684 464.6C100.001 465.773 99.649 467.693 99.6276 470.36C100.14 469.507 100.886 468.845 101.868 468.376C102.849 467.885 103.916 467.64 105.068 467.64C106.454 467.64 107.681 467.939 108.748 468.536C109.814 469.133 110.646 470.008 111.244 471.16C111.841 472.291 112.14 473.656 112.14 475.256C112.14 476.771 111.83 478.125 111.212 479.32C110.614 480.493 109.729 481.411 108.556 482.072C107.382 482.733 105.985 483.064 104.364 483.064C102.145 483.064 100.396 482.573 99.1156 481.592C97.857 480.611 96.9716 479.245 96.4596 477.496C95.969 475.725 95.7236 473.549 95.7236 470.968C95.7236 467.064 96.3956 464.12 97.7396 462.136C99.0836 460.131 101.206 459.128 104.108 459.128C106.348 459.128 108.086 459.736 109.324 460.952C110.561 462.168 111.276 463.683 111.468 465.496H107.308ZM104.044 471.32C102.913 471.32 101.964 471.651 101.196 472.312C100.428 472.973 100.044 473.933 100.044 475.192C100.044 476.451 100.396 477.443 101.1 478.168C101.825 478.893 102.838 479.256 104.14 479.256C105.292 479.256 106.198 478.904 106.86 478.2C107.542 477.496 107.884 476.547 107.884 475.352C107.884 474.115 107.553 473.133 106.892 472.408C106.252 471.683 105.302 471.32 104.044 471.32ZM129.984 460.664V464.28H120.672V470.008H127.808V473.56H120.672V483H116.192V460.664H129.984ZM137.641 464.28V469.88H145.161V473.432H137.641V479.352H146.121V483H133.161V460.632H146.121V464.28H137.641ZM163.984 460.664V464.28H154.672V470.008H161.808V473.56H154.672V483H150.192V460.664H163.984ZM178.745 465.496C178.532 464.6 178.158 463.928 177.625 463.48C177.113 463.032 176.366 462.808 175.385 462.808C173.913 462.808 172.825 463.405 172.121 464.6C171.438 465.773 171.086 467.693 171.065 470.36C171.577 469.507 172.324 468.845 173.305 468.376C174.286 467.885 175.353 467.64 176.505 467.64C177.892 467.64 179.118 467.939 180.185 468.536C181.252 469.133 182.084 470.008 182.681 471.16C183.278 472.291 183.577 473.656 183.577 475.256C183.577 476.771 183.268 478.125 182.649 479.32C182.052 480.493 181.166 481.411 179.993 482.072C178.82 482.733 177.422 483.064 175.801 483.064C173.582 483.064 171.833 482.573 170.553 481.592C169.294 480.611 168.409 479.245 167.897 477.496C167.406 475.725 167.161 473.549 167.161 470.968C167.161 467.064 167.833 464.12 169.177 462.136C170.521 460.131 172.644 459.128 175.545 459.128C177.785 459.128 179.524 459.736 180.761 460.952C181.998 462.168 182.713 463.683 182.905 465.496H178.745ZM175.481 471.32C174.35 471.32 173.401 471.651 172.633 472.312C171.865 472.973 171.481 473.933 171.481 475.192C171.481 476.451 171.833 477.443 172.537 478.168C173.262 478.893 174.276 479.256 175.577 479.256C176.729 479.256 177.636 478.904 178.297 478.2C178.98 477.496 179.321 476.547 179.321 475.352C179.321 474.115 178.99 473.133 178.329 472.408C177.689 471.683 176.74 471.32 175.481 471.32Z" fill="#777777"/>
<rect x="208" y="48" width="160" height="384" fill="#231552"/>
<path d="M236.76 477.944C238.808 476.237 240.44 474.819 241.656 473.688C242.872 472.536 243.886 471.341 244.696 470.104C245.507 468.867 245.912 467.651 245.912 466.456C245.912 465.368 245.656 464.515 245.144 463.896C244.632 463.277 243.843 462.968 242.776 462.968C241.71 462.968 240.888 463.331 240.312 464.056C239.736 464.76 239.438 465.731 239.416 466.968H235.064C235.15 464.408 235.907 462.467 237.336 461.144C238.787 459.821 240.622 459.16 242.84 459.16C245.272 459.16 247.139 459.811 248.44 461.112C249.742 462.392 250.392 464.088 250.392 466.2C250.392 467.864 249.944 469.453 249.048 470.968C248.152 472.483 247.128 473.805 245.976 474.936C244.824 476.045 243.32 477.389 241.464 478.968H250.904V482.68H235.096V479.352L236.76 477.944ZM253.791 465.816C253.898 463.683 254.645 462.04 256.031 460.888C257.439 459.715 259.285 459.128 261.567 459.128C263.125 459.128 264.458 459.405 265.567 459.96C266.677 460.493 267.509 461.229 268.063 462.168C268.639 463.085 268.927 464.131 268.927 465.304C268.927 466.648 268.575 467.789 267.871 468.728C267.189 469.645 266.367 470.264 265.407 470.584V470.712C266.645 471.096 267.605 471.779 268.287 472.76C268.991 473.741 269.343 475 269.343 476.536C269.343 477.816 269.045 478.957 268.447 479.96C267.871 480.963 267.007 481.752 265.855 482.328C264.725 482.883 263.359 483.16 261.759 483.16C259.349 483.16 257.386 482.552 255.871 481.336C254.357 480.12 253.557 478.328 253.471 475.96H257.823C257.866 477.005 258.218 477.848 258.879 478.488C259.562 479.107 260.49 479.416 261.663 479.416C262.751 479.416 263.583 479.117 264.159 478.52C264.757 477.901 265.055 477.112 265.055 476.152C265.055 474.872 264.65 473.955 263.839 473.4C263.029 472.845 261.77 472.568 260.063 472.568H259.135V468.888H260.063C263.093 468.888 264.607 467.875 264.607 465.848C264.607 464.931 264.33 464.216 263.775 463.704C263.242 463.192 262.463 462.936 261.439 462.936C260.437 462.936 259.658 463.213 259.103 463.768C258.57 464.301 258.261 464.984 258.175 465.816H253.791ZM272.34 463.8V459.672H280.052V483H275.444V463.8H272.34ZM300.157 463.544H289.789V469.016C290.237 468.461 290.877 468.013 291.709 467.672C292.541 467.309 293.427 467.128 294.365 467.128C296.072 467.128 297.469 467.501 298.557 468.248C299.645 468.995 300.435 469.955 300.925 471.128C301.416 472.28 301.661 473.517 301.661 474.84C301.661 477.293 300.957 479.267 299.549 480.76C298.163 482.253 296.179 483 293.597 483C291.165 483 289.224 482.392 287.773 481.176C286.323 479.96 285.501 478.371 285.309 476.408H289.661C289.853 477.261 290.28 477.944 290.941 478.456C291.624 478.968 292.488 479.224 293.533 479.224C294.792 479.224 295.741 478.829 296.381 478.04C297.021 477.251 297.341 476.205 297.341 474.904C297.341 473.581 297.011 472.579 296.349 471.896C295.709 471.192 294.76 470.84 293.501 470.84C292.605 470.84 291.859 471.064 291.261 471.512C290.664 471.96 290.237 472.557 289.981 473.304H285.693V459.608H300.157V463.544ZM320.751 463.544H310.383V469.016C310.831 468.461 311.471 468.013 312.303 467.672C313.135 467.309 314.02 467.128 314.959 467.128C316.666 467.128 318.063 467.501 319.151 468.248C320.239 468.995 321.028 469.955 321.519 471.128C322.01 472.28 322.255 473.517 322.255 474.84C322.255 477.293 321.551 479.267 320.143 480.76C318.756 482.253 316.772 483 314.191 483C311.759 483 309.818 482.392 308.367 481.176C306.916 479.96 306.095 478.371 305.903 476.408H310.255C310.447 477.261 310.874 477.944 311.535 478.456C312.218 478.968 313.082 479.224 314.127 479.224C315.386 479.224 316.335 478.829 316.975 478.04C317.615 477.251 317.935 476.205 317.935 474.904C317.935 473.581 317.604 472.579 316.943 471.896C316.303 471.192 315.354 470.84 314.095 470.84C313.199 470.84 312.452 471.064 311.855 471.512C311.258 471.96 310.831 472.557 310.575 473.304H306.287V459.608H320.751V463.544ZM327.073 477.944C329.121 476.237 330.753 474.819 331.969 473.688C333.185 472.536 334.198 471.341 335.009 470.104C335.819 468.867 336.225 467.651 336.225 466.456C336.225 465.368 335.969 464.515 335.457 463.896C334.945 463.277 334.155 462.968 333.089 462.968C332.022 462.968 331.201 463.331 330.625 464.056C330.049 464.76 329.75 465.731 329.729 466.968H325.377C325.462 464.408 326.219 462.467 327.649 461.144C329.099 459.821 330.934 459.16 333.153 459.16C335.585 459.16 337.451 459.811 338.753 461.112C340.054 462.392 340.705 464.088 340.705 466.2C340.705 467.864 340.257 469.453 339.361 470.968C338.465 472.483 337.441 473.805 336.289 474.936C335.137 476.045 333.633 477.389 331.777 478.968H341.217V482.68H325.409V479.352L327.073 477.944Z" fill="#777777"/>
<rect x="368" y="48" width="160" height="384" fill="#4DCDBE"/>
<path d="M384.91 478.456V474.936L395.374 459.96H400.59V474.552H403.406V478.456H400.59V483H396.11V478.456H384.91ZM396.398 464.76L389.838 474.552H396.398V464.76ZM414.579 460.664C416.925 460.664 418.984 461.123 420.755 462.04C422.547 462.957 423.923 464.269 424.883 465.976C425.864 467.661 426.355 469.624 426.355 471.864C426.355 474.104 425.864 476.067 424.883 477.752C423.923 479.416 422.547 480.707 420.755 481.624C418.984 482.541 416.925 483 414.579 483H406.771V460.664H414.579ZM414.419 479.192C416.765 479.192 418.579 478.552 419.859 477.272C421.139 475.992 421.779 474.189 421.779 471.864C421.779 469.539 421.139 467.725 419.859 466.424C418.579 465.101 416.765 464.44 414.419 464.44H411.251V479.192H414.419ZM428.62 471.8C428.62 469.603 429.111 467.64 430.092 465.912C431.095 464.163 432.449 462.808 434.156 461.848C435.884 460.867 437.815 460.376 439.948 460.376C442.444 460.376 444.631 461.016 446.508 462.296C448.385 463.576 449.697 465.347 450.444 467.608H445.292C444.78 466.541 444.055 465.741 443.116 465.208C442.199 464.675 441.132 464.408 439.916 464.408C438.615 464.408 437.452 464.717 436.428 465.336C435.425 465.933 434.636 466.787 434.06 467.896C433.505 469.005 433.228 470.307 433.228 471.8C433.228 473.272 433.505 474.573 434.06 475.704C434.636 476.813 435.425 477.677 436.428 478.296C437.452 478.893 438.615 479.192 439.916 479.192C441.132 479.192 442.199 478.925 443.116 478.392C444.055 477.837 444.78 477.027 445.292 475.96H450.444C449.697 478.243 448.385 480.024 446.508 481.304C444.652 482.563 442.465 483.192 439.948 483.192C437.815 483.192 435.884 482.712 434.156 481.752C432.449 480.771 431.095 479.416 430.092 477.688C429.111 475.96 428.62 473.997 428.62 471.8ZM462.079 460.664C464.425 460.664 466.484 461.123 468.255 462.04C470.047 462.957 471.423 464.269 472.383 465.976C473.364 467.661 473.855 469.624 473.855 471.864C473.855 474.104 473.364 476.067 472.383 477.752C471.423 479.416 470.047 480.707 468.255 481.624C466.484 482.541 464.425 483 462.079 483H454.271V460.664H462.079ZM461.919 479.192C464.265 479.192 466.079 478.552 467.359 477.272C468.639 475.992 469.279 474.189 469.279 471.864C469.279 469.539 468.639 467.725 467.359 466.424C466.079 465.101 464.265 464.44 461.919 464.44H458.751V479.192H461.919ZM489.88 471.544C491.139 471.779 492.173 472.408 492.984 473.432C493.795 474.456 494.2 475.629 494.2 476.952C494.2 478.147 493.901 479.203 493.304 480.12C492.728 481.016 491.885 481.72 490.776 482.232C489.667 482.744 488.355 483 486.84 483H477.208V460.664H486.424C487.939 460.664 489.24 460.909 490.328 461.4C491.437 461.891 492.269 462.573 492.824 463.448C493.4 464.323 493.688 465.315 493.688 466.424C493.688 467.725 493.336 468.813 492.632 469.688C491.949 470.563 491.032 471.181 489.88 471.544ZM481.688 469.88H485.784C486.851 469.88 487.672 469.645 488.248 469.176C488.824 468.685 489.112 467.992 489.112 467.096C489.112 466.2 488.824 465.507 488.248 465.016C487.672 464.525 486.851 464.28 485.784 464.28H481.688V469.88ZM486.2 479.352C487.288 479.352 488.131 479.096 488.728 478.584C489.347 478.072 489.656 477.347 489.656 476.408C489.656 475.448 489.336 474.701 488.696 474.168C488.056 473.613 487.192 473.336 486.104 473.336H481.688V479.352H486.2ZM502.251 464.28V469.88H509.771V473.432H502.251V479.352H510.731V483H497.771V460.632H510.731V464.28H502.251Z" fill="#777777"/>
<rect x="528" y="48" width="160" height="384" fill="#2774AC"/>
<path d="M550.073 477.944C552.121 476.237 553.753 474.819 554.969 473.688C556.185 472.536 557.198 471.341 558.009 470.104C558.819 468.867 559.225 467.651 559.225 466.456C559.225 465.368 558.969 464.515 558.457 463.896C557.945 463.277 557.155 462.968 556.089 462.968C555.022 462.968 554.201 463.331 553.625 464.056C553.049 464.76 552.75 465.731 552.729 466.968H548.377C548.462 464.408 549.219 462.467 550.649 461.144C552.099 459.821 553.934 459.16 556.153 459.16C558.585 459.16 560.451 459.811 561.753 461.112C563.054 462.392 563.705 464.088 563.705 466.2C563.705 467.864 563.257 469.453 562.361 470.968C561.465 472.483 560.441 473.805 559.289 474.936C558.137 476.045 556.633 477.389 554.777 478.968H564.217V482.68H548.409V479.352L550.073 477.944ZM581.888 463.064L573.376 483H568.832L577.408 463.576H566.464V459.736H581.888V463.064ZM599.419 463.064L590.907 483H586.363L594.939 463.576H583.995V459.736H599.419V463.064ZM601.91 478.456V474.936L612.374 459.96H617.59V474.552H620.406V478.456H617.59V483H613.11V478.456H601.91ZM613.398 464.76L606.838 474.552H613.398V464.76ZM637.467 478.744H628.571L627.099 483H622.395L630.427 460.632H635.643L643.675 483H638.939L637.467 478.744ZM636.251 475.16L633.019 465.816L629.786 475.16H636.251ZM645.589 471.8C645.589 469.603 646.079 467.64 647.061 465.912C648.063 464.163 649.418 462.808 651.125 461.848C652.853 460.867 654.783 460.376 656.917 460.376C659.413 460.376 661.599 461.016 663.477 462.296C665.354 463.576 666.666 465.347 667.413 467.608H662.261C661.749 466.541 661.023 465.741 660.085 465.208C659.167 464.675 658.101 464.408 656.885 464.408C655.583 464.408 654.421 464.717 653.397 465.336C652.394 465.933 651.605 466.787 651.029 467.896C650.474 469.005 650.197 470.307 650.197 471.8C650.197 473.272 650.474 474.573 651.029 475.704C651.605 476.813 652.394 477.677 653.397 478.296C654.421 478.893 655.583 479.192 656.885 479.192C658.101 479.192 659.167 478.925 660.085 478.392C661.023 477.837 661.749 477.027 662.261 475.96H667.413C666.666 478.243 665.354 480.024 663.477 481.304C661.621 482.563 659.434 483.192 656.917 483.192C654.783 483.192 652.853 482.712 651.125 481.752C649.418 480.771 648.063 479.416 647.061 477.688C646.079 475.96 645.589 473.997 645.589 471.8Z" fill="#777777"/>
<path d="M688 48H832C840.837 48 848 55.1634 848 64V416C848 424.837 840.837 432 832 432H688V48Z" fill="#FF8383"/>
<path d="M727.312 460.664V464.28H718.001V470.008H725.137V473.56H718.001V483H713.521V460.664H727.312ZM744.281 460.664V464.28H734.969V470.008H742.105V473.56H734.969V483H730.489V460.664H744.281ZM750.85 470.648C748.717 469.539 747.65 467.821 747.65 465.496C747.65 464.344 747.938 463.299 748.514 462.36C749.111 461.4 749.997 460.643 751.17 460.088C752.365 459.512 753.815 459.224 755.522 459.224C757.229 459.224 758.669 459.512 759.842 460.088C761.037 460.643 761.922 461.4 762.498 462.36C763.095 463.299 763.394 464.344 763.394 465.496C763.394 466.669 763.106 467.704 762.53 468.6C761.954 469.475 761.186 470.157 760.226 470.648C761.399 471.16 762.317 471.907 762.978 472.888C763.639 473.869 763.97 475.032 763.97 476.376C763.97 477.827 763.597 479.096 762.85 480.184C762.125 481.251 761.122 482.072 759.842 482.648C758.562 483.224 757.122 483.512 755.522 483.512C753.922 483.512 752.482 483.224 751.202 482.648C749.943 482.072 748.941 481.251 748.194 480.184C747.469 479.096 747.106 477.827 747.106 476.376C747.106 475.032 747.437 473.869 748.098 472.888C748.759 471.885 749.677 471.139 750.85 470.648ZM759.042 466.136C759.042 465.091 758.722 464.28 758.082 463.704C757.463 463.128 756.61 462.84 755.522 462.84C754.455 462.84 753.602 463.128 752.962 463.704C752.343 464.28 752.034 465.101 752.034 466.168C752.034 467.128 752.354 467.896 752.994 468.472C753.655 469.048 754.498 469.336 755.522 469.336C756.546 469.336 757.389 469.048 758.05 468.472C758.711 467.875 759.042 467.096 759.042 466.136ZM755.522 472.6C754.306 472.6 753.314 472.909 752.546 473.528C751.799 474.147 751.426 475.032 751.426 476.184C751.426 477.251 751.789 478.125 752.514 478.808C753.261 479.469 754.263 479.8 755.522 479.8C756.781 479.8 757.773 479.459 758.498 478.776C759.223 478.093 759.586 477.229 759.586 476.184C759.586 475.053 759.213 474.179 758.466 473.56C757.719 472.92 756.738 472.6 755.522 472.6ZM767.573 465.816C767.679 463.683 768.426 462.04 769.812 460.888C771.221 459.715 773.066 459.128 775.349 459.128C776.906 459.128 778.239 459.405 779.349 459.96C780.458 460.493 781.29 461.229 781.845 462.168C782.421 463.085 782.708 464.131 782.708 465.304C782.708 466.648 782.357 467.789 781.653 468.728C780.97 469.645 780.149 470.264 779.189 470.584V470.712C780.426 471.096 781.386 471.779 782.069 472.76C782.773 473.741 783.125 475 783.125 476.536C783.125 477.816 782.826 478.957 782.229 479.96C781.653 480.963 780.789 481.752 779.637 482.328C778.506 482.883 777.141 483.16 775.541 483.16C773.13 483.16 771.167 482.552 769.653 481.336C768.138 480.12 767.338 478.328 767.253 475.96H771.605C771.647 477.005 771.999 477.848 772.661 478.488C773.343 479.107 774.271 479.416 775.445 479.416C776.533 479.416 777.365 479.117 777.941 478.52C778.538 477.901 778.837 477.112 778.837 476.152C778.837 474.872 778.431 473.955 777.621 473.4C776.81 472.845 775.551 472.568 773.845 472.568H772.917V468.888H773.845C776.874 468.888 778.389 467.875 778.389 465.848C778.389 464.931 778.111 464.216 777.557 463.704C777.023 463.192 776.245 462.936 775.22 462.936C774.218 462.936 773.439 463.213 772.885 463.768C772.351 464.301 772.042 464.984 771.957 465.816H767.573ZM790.569 470.648C788.435 469.539 787.369 467.821 787.369 465.496C787.369 464.344 787.657 463.299 788.233 462.36C788.83 461.4 789.715 460.643 790.889 460.088C792.083 459.512 793.534 459.224 795.241 459.224C796.947 459.224 798.387 459.512 799.561 460.088C800.755 460.643 801.641 461.4 802.217 462.36C802.814 463.299 803.113 464.344 803.113 465.496C803.113 466.669 802.825 467.704 802.249 468.6C801.673 469.475 800.905 470.157 799.945 470.648C801.118 471.16 802.035 471.907 802.697 472.888C803.358 473.869 803.689 475.032 803.689 476.376C803.689 477.827 803.315 479.096 802.569 480.184C801.843 481.251 800.841 482.072 799.561 482.648C798.281 483.224 796.841 483.512 795.241 483.512C793.641 483.512 792.201 483.224 790.921 482.648C789.662 482.072 788.659 481.251 787.913 480.184C787.187 479.096 786.825 477.827 786.825 476.376C786.825 475.032 787.155 473.869 787.817 472.888C788.478 471.885 789.395 471.139 790.569 470.648ZM798.761 466.136C798.761 465.091 798.441 464.28 797.801 463.704C797.182 463.128 796.329 462.84 795.241 462.84C794.174 462.84 793.321 463.128 792.681 463.704C792.062 464.28 791.753 465.101 791.753 466.168C791.753 467.128 792.073 467.896 792.713 468.472C793.374 469.048 794.217 469.336 795.241 469.336C796.265 469.336 797.107 469.048 797.769 468.472C798.43 467.875 798.761 467.096 798.761 466.136ZM795.241 472.6C794.025 472.6 793.033 472.909 792.265 473.528C791.518 474.147 791.145 475.032 791.145 476.184C791.145 477.251 791.507 478.125 792.233 478.808C792.979 479.469 793.982 479.8 795.241 479.8C796.499 479.8 797.491 479.459 798.217 478.776C798.942 478.093 799.305 477.229 799.305 476.184C799.305 475.053 798.931 474.179 798.185 473.56C797.438 472.92 796.457 472.6 795.241 472.6ZM807.291 465.816C807.398 463.683 808.145 462.04 809.531 460.888C810.939 459.715 812.785 459.128 815.067 459.128C816.625 459.128 817.958 459.405 819.067 459.96C820.177 460.493 821.009 461.229 821.563 462.168C822.139 463.085 822.427 464.131 822.427 465.304C822.427 466.648 822.075 467.789 821.371 468.728C820.689 469.645 819.867 470.264 818.907 470.584V470.712C820.145 471.096 821.105 471.779 821.787 472.76C822.491 473.741 822.843 475 822.843 476.536C822.843 477.816 822.545 478.957 821.947 479.96C821.371 480.963 820.507 481.752 819.355 482.328C818.225 482.883 816.859 483.16 815.259 483.16C812.849 483.16 810.886 482.552 809.371 481.336C807.857 480.12 807.057 478.328 806.971 475.96H811.323C811.366 477.005 811.718 477.848 812.379 478.488C813.062 479.107 813.99 479.416 815.163 479.416C816.251 479.416 817.083 479.117 817.659 478.52C818.257 477.901 818.555 477.112 818.555 476.152C818.555 474.872 818.15 473.955 817.339 473.4C816.529 472.845 815.27 472.568 813.563 472.568H812.635V468.888H813.563C816.593 468.888 818.107 467.875 818.107 465.848C818.107 464.931 817.83 464.216 817.275 463.704C816.742 463.192 815.963 462.936 814.939 462.936C813.937 462.936 813.158 463.213 812.603 463.768C812.07 464.301 811.761 464.984 811.675 465.816H807.291Z" fill="#777777"/>
</g>
<g filter="url(#filter1_d_1692_10875)">
<path d="M976 64C976 55.1635 983.163 48 992 48H1136V432H992C983.163 432 976 424.837 976 416V64Z" fill="#171739"/>
<path d="M1008.43 463.8V459.672H1016.15V483H1011.54V463.8H1008.43ZM1035.42 463.064L1026.91 483H1022.36L1030.94 463.576H1020V459.736H1035.42V463.064ZM1037.56 463.8V459.672H1045.27V483H1040.66V463.8H1037.56ZM1064.54 463.064L1056.03 483H1051.49L1060.06 463.576H1049.12V459.736H1064.54V463.064ZM1067.29 465.816C1067.4 463.683 1068.14 462.04 1069.53 460.888C1070.94 459.715 1072.78 459.128 1075.07 459.128C1076.62 459.128 1077.96 459.405 1079.07 459.96C1080.18 460.493 1081.01 461.229 1081.56 462.168C1082.14 463.085 1082.43 464.131 1082.43 465.304C1082.43 466.648 1082.08 467.789 1081.37 468.728C1080.69 469.645 1079.87 470.264 1078.91 470.584V470.712C1080.14 471.096 1081.1 471.779 1081.79 472.76C1082.49 473.741 1082.84 475 1082.84 476.536C1082.84 477.816 1082.54 478.957 1081.95 479.96C1081.37 480.963 1080.51 481.752 1079.36 482.328C1078.22 482.883 1076.86 483.16 1075.26 483.16C1072.85 483.16 1070.89 482.552 1069.37 481.336C1067.86 480.12 1067.06 478.328 1066.97 475.96H1071.32C1071.37 477.005 1071.72 477.848 1072.38 478.488C1073.06 479.107 1073.99 479.416 1075.16 479.416C1076.25 479.416 1077.08 479.117 1077.66 478.52C1078.26 477.901 1078.56 477.112 1078.56 476.152C1078.56 474.872 1078.15 473.955 1077.34 473.4C1076.53 472.845 1075.27 472.568 1073.56 472.568H1072.64V468.888H1073.56C1076.59 468.888 1078.11 467.875 1078.11 465.848C1078.11 464.931 1077.83 464.216 1077.28 463.704C1076.74 463.192 1075.96 462.936 1074.94 462.936C1073.94 462.936 1073.16 463.213 1072.6 463.768C1072.07 464.301 1071.76 464.984 1071.68 465.816H1067.29ZM1091.57 476.44C1091.74 477.379 1092.12 478.104 1092.72 478.616C1093.34 479.107 1094.16 479.352 1095.18 479.352C1096.51 479.352 1097.47 478.808 1098.06 477.72C1098.66 476.611 1098.96 474.755 1098.96 472.152C1098.47 472.835 1097.78 473.368 1096.88 473.752C1096 474.136 1095.06 474.328 1094.03 474.328C1092.67 474.328 1091.43 474.051 1090.32 473.496C1089.23 472.92 1088.37 472.077 1087.73 470.968C1087.09 469.837 1086.77 468.472 1086.77 466.872C1086.77 464.504 1087.47 462.627 1088.88 461.24C1090.29 459.832 1092.21 459.128 1094.64 459.128C1097.67 459.128 1099.8 460.099 1101.04 462.04C1102.3 463.981 1102.93 466.904 1102.93 470.808C1102.93 473.581 1102.68 475.853 1102.19 477.624C1101.72 479.395 1100.9 480.739 1099.73 481.656C1098.58 482.573 1097 483.032 1094.99 483.032C1093.41 483.032 1092.07 482.733 1090.96 482.136C1089.85 481.517 1089 480.717 1088.4 479.736C1087.82 478.733 1087.49 477.635 1087.41 476.44H1091.57ZM1094.96 470.68C1096.07 470.68 1096.94 470.339 1097.58 469.656C1098.22 468.973 1098.54 468.056 1098.54 466.904C1098.54 465.645 1098.2 464.675 1097.52 463.992C1096.86 463.288 1095.95 462.936 1094.8 462.936C1093.65 462.936 1092.73 463.299 1092.05 464.024C1091.39 464.728 1091.06 465.667 1091.06 466.84C1091.06 467.971 1091.38 468.899 1092.02 469.624C1092.68 470.328 1093.66 470.68 1094.96 470.68Z" fill="#777777"/>
<rect x="1136" y="48" width="160" height="384" fill="#2E1660"/>
<path d="M1164.79 477.944C1166.84 476.237 1168.47 474.819 1169.69 473.688C1170.9 472.536 1171.92 471.341 1172.73 470.104C1173.54 468.867 1173.94 467.651 1173.94 466.456C1173.94 465.368 1173.69 464.515 1173.18 463.896C1172.66 463.277 1171.87 462.968 1170.81 462.968C1169.74 462.968 1168.92 463.331 1168.34 464.056C1167.77 464.76 1167.47 465.731 1167.45 466.968H1163.1C1163.18 464.408 1163.94 462.467 1165.37 461.144C1166.82 459.821 1168.65 459.16 1170.87 459.16C1173.3 459.16 1175.17 459.811 1176.47 461.112C1177.77 462.392 1178.42 464.088 1178.42 466.2C1178.42 467.864 1177.98 469.453 1177.08 470.968C1176.18 472.483 1175.16 473.805 1174.01 474.936C1172.86 476.045 1171.35 477.389 1169.5 478.968H1178.94V482.68H1163.13V479.352L1164.79 477.944ZM1186.75 464.28V469.88H1194.27V473.432H1186.75V479.352H1195.23V483H1182.27V460.632H1195.23V464.28H1186.75ZM1198.25 463.8V459.672H1205.96V483H1201.35V463.8H1198.25ZM1222.48 465.496C1222.27 464.6 1221.89 463.928 1221.36 463.48C1220.85 463.032 1220.1 462.808 1219.12 462.808C1217.65 462.808 1216.56 463.405 1215.86 464.6C1215.17 465.773 1214.82 467.693 1214.8 470.36C1215.31 469.507 1216.06 468.845 1217.04 468.376C1218.02 467.885 1219.09 467.64 1220.24 467.64C1221.63 467.64 1222.85 467.939 1223.92 468.536C1224.99 469.133 1225.82 470.008 1226.42 471.16C1227.01 472.291 1227.31 473.656 1227.31 475.256C1227.31 476.771 1227 478.125 1226.38 479.32C1225.79 480.493 1224.9 481.411 1223.73 482.072C1222.55 482.733 1221.16 483.064 1219.54 483.064C1217.32 483.064 1215.57 482.573 1214.29 481.592C1213.03 480.611 1212.14 479.245 1211.63 477.496C1211.14 475.725 1210.9 473.549 1210.9 470.968C1210.9 467.064 1211.57 464.12 1212.91 462.136C1214.26 460.131 1216.38 459.128 1219.28 459.128C1221.52 459.128 1223.26 459.736 1224.5 460.952C1225.73 462.168 1226.45 463.683 1226.64 465.496H1222.48ZM1219.22 471.32C1218.08 471.32 1217.14 471.651 1216.37 472.312C1215.6 472.973 1215.22 473.933 1215.22 475.192C1215.22 476.451 1215.57 477.443 1216.27 478.168C1217 478.893 1218.01 479.256 1219.31 479.256C1220.46 479.256 1221.37 478.904 1222.03 478.2C1222.71 477.496 1223.06 476.547 1223.06 475.352C1223.06 474.115 1222.72 473.133 1222.06 472.408C1221.42 471.683 1220.47 471.32 1219.22 471.32ZM1242.95 465.496C1242.73 464.6 1242.36 463.928 1241.83 463.48C1241.32 463.032 1240.57 462.808 1239.59 462.808C1238.12 462.808 1237.03 463.405 1236.32 464.6C1235.64 465.773 1235.29 467.693 1235.27 470.36C1235.78 469.507 1236.53 468.845 1237.51 468.376C1238.49 467.885 1239.56 467.64 1240.71 467.64C1242.09 467.64 1243.32 467.939 1244.39 468.536C1245.45 469.133 1246.29 470.008 1246.88 471.16C1247.48 472.291 1247.78 473.656 1247.78 475.256C1247.78 476.771 1247.47 478.125 1246.85 479.32C1246.25 480.493 1245.37 481.411 1244.2 482.072C1243.02 482.733 1241.63 483.064 1240 483.064C1237.79 483.064 1236.04 482.573 1234.76 481.592C1233.5 480.611 1232.61 479.245 1232.1 477.496C1231.61 475.725 1231.36 473.549 1231.36 470.968C1231.36 467.064 1232.04 464.12 1233.38 462.136C1234.72 460.131 1236.85 459.128 1239.75 459.128C1241.99 459.128 1243.73 459.736 1244.96 460.952C1246.2 462.168 1246.92 463.683 1247.11 465.496H1242.95ZM1239.68 471.32C1238.55 471.32 1237.6 471.651 1236.84 472.312C1236.07 472.973 1235.68 473.933 1235.68 475.192C1235.68 476.451 1236.04 477.443 1236.74 478.168C1237.47 478.893 1238.48 479.256 1239.78 479.256C1240.93 479.256 1241.84 478.904 1242.5 478.2C1243.18 477.496 1243.52 476.547 1243.52 475.352C1243.52 474.115 1243.19 473.133 1242.53 472.408C1241.89 471.683 1240.94 471.32 1239.68 471.32ZM1251.32 471.032C1251.32 467.341 1251.98 464.451 1253.31 462.36C1254.65 460.269 1256.87 459.224 1259.96 459.224C1263.05 459.224 1265.26 460.269 1266.59 462.36C1267.93 464.451 1268.6 467.341 1268.6 471.032C1268.6 474.744 1267.93 477.656 1266.59 479.768C1265.26 481.88 1263.05 482.936 1259.96 482.936C1256.87 482.936 1254.65 481.88 1253.31 479.768C1251.98 477.656 1251.32 474.744 1251.32 471.032ZM1264.19 471.032C1264.19 469.453 1264.08 468.131 1263.87 467.064C1263.67 465.976 1263.27 465.091 1262.65 464.408C1262.05 463.725 1261.16 463.384 1259.96 463.384C1258.77 463.384 1257.86 463.725 1257.24 464.408C1256.64 465.091 1256.24 465.976 1256.03 467.064C1255.83 468.131 1255.74 469.453 1255.74 471.032C1255.74 472.653 1255.83 474.019 1256.03 475.128C1256.22 476.216 1256.62 477.101 1257.24 477.784C1257.86 478.445 1258.77 478.776 1259.96 478.776C1261.16 478.776 1262.06 478.445 1262.68 477.784C1263.3 477.101 1263.71 476.216 1263.9 475.128C1264.09 474.019 1264.19 472.653 1264.19 471.032Z" fill="#777777"/>
<rect x="1296" y="48" width="160" height="384" fill="#3423A5"/>
<path d="M1317.09 465.816C1317.19 463.683 1317.94 462.04 1319.33 460.888C1320.74 459.715 1322.58 459.128 1324.86 459.128C1326.42 459.128 1327.75 459.405 1328.86 459.96C1329.97 460.493 1330.81 461.229 1331.36 462.168C1331.94 463.085 1332.22 464.131 1332.22 465.304C1332.22 466.648 1331.87 467.789 1331.17 468.728C1330.49 469.645 1329.66 470.264 1328.7 470.584V470.712C1329.94 471.096 1330.9 471.779 1331.58 472.76C1332.29 473.741 1332.64 475 1332.64 476.536C1332.64 477.816 1332.34 478.957 1331.74 479.96C1331.17 480.963 1330.3 481.752 1329.15 482.328C1328.02 482.883 1326.66 483.16 1325.06 483.16C1322.65 483.16 1320.68 482.552 1319.17 481.336C1317.65 480.12 1316.85 478.328 1316.77 475.96H1321.12C1321.16 477.005 1321.51 477.848 1322.18 478.488C1322.86 479.107 1323.79 479.416 1324.96 479.416C1326.05 479.416 1326.88 479.117 1327.46 478.52C1328.05 477.901 1328.35 477.112 1328.35 476.152C1328.35 474.872 1327.95 473.955 1327.14 473.4C1326.33 472.845 1325.07 472.568 1323.36 472.568H1322.43V468.888H1323.36C1326.39 468.888 1327.9 467.875 1327.9 465.848C1327.9 464.931 1327.63 464.216 1327.07 463.704C1326.54 463.192 1325.76 462.936 1324.74 462.936C1323.73 462.936 1322.95 463.213 1322.4 463.768C1321.87 464.301 1321.56 464.984 1321.47 465.816H1317.09ZM1335.99 478.456V474.936L1346.45 459.96H1351.67V474.552H1354.48V478.456H1351.67V483H1347.19V478.456H1335.99ZM1347.48 464.76L1340.92 474.552H1347.48V464.76ZM1358.74 477.944C1360.79 476.237 1362.42 474.819 1363.64 473.688C1364.86 472.536 1365.87 471.341 1366.68 470.104C1367.49 468.867 1367.9 467.651 1367.9 466.456C1367.9 465.368 1367.64 464.515 1367.13 463.896C1366.62 463.277 1365.83 462.968 1364.76 462.968C1363.69 462.968 1362.87 463.331 1362.3 464.056C1361.72 464.76 1361.42 465.731 1361.4 466.968H1357.05C1357.13 464.408 1357.89 462.467 1359.32 461.144C1360.77 459.821 1362.61 459.16 1364.82 459.16C1367.26 459.16 1369.12 459.811 1370.42 461.112C1371.73 462.392 1372.38 464.088 1372.38 466.2C1372.38 467.864 1371.93 469.453 1371.03 470.968C1370.14 472.483 1369.11 473.805 1367.96 474.936C1366.81 476.045 1365.3 477.389 1363.45 478.968H1372.89V482.68H1357.08V479.352L1358.74 477.944ZM1375.78 465.816C1375.88 463.683 1376.63 462.04 1378.02 460.888C1379.42 459.715 1381.27 459.128 1383.55 459.128C1385.11 459.128 1386.44 459.405 1387.55 459.96C1388.66 460.493 1389.49 461.229 1390.05 462.168C1390.62 463.085 1390.91 464.131 1390.91 465.304C1390.91 466.648 1390.56 467.789 1389.86 468.728C1389.17 469.645 1388.35 470.264 1387.39 470.584V470.712C1388.63 471.096 1389.59 471.779 1390.27 472.76C1390.98 473.741 1391.33 475 1391.33 476.536C1391.33 477.816 1391.03 478.957 1390.43 479.96C1389.86 480.963 1388.99 481.752 1387.84 482.328C1386.71 482.883 1385.34 483.16 1383.74 483.16C1381.33 483.16 1379.37 482.552 1377.86 481.336C1376.34 480.12 1375.54 478.328 1375.46 475.96H1379.81C1379.85 477.005 1380.2 477.848 1380.86 478.488C1381.55 479.107 1382.47 479.416 1383.65 479.416C1384.74 479.416 1385.57 479.117 1386.14 478.52C1386.74 477.901 1387.04 477.112 1387.04 476.152C1387.04 474.872 1386.63 473.955 1385.82 473.4C1385.01 472.845 1383.75 472.568 1382.05 472.568H1381.12V468.888H1382.05C1385.08 468.888 1386.59 467.875 1386.59 465.848C1386.59 464.931 1386.31 464.216 1385.76 463.704C1385.23 463.192 1384.45 462.936 1383.42 462.936C1382.42 462.936 1381.64 463.213 1381.09 463.768C1380.55 464.301 1380.24 464.984 1380.16 465.816H1375.78ZM1409.08 478.744H1400.18L1398.71 483H1394L1402.04 460.632H1407.25L1415.28 483H1410.55L1409.08 478.744ZM1407.86 475.16L1404.63 465.816L1401.4 475.16H1407.86ZM1433.45 463.544H1423.09V469.016C1423.53 468.461 1424.17 468.013 1425.01 467.672C1425.84 467.309 1426.72 467.128 1427.66 467.128C1429.37 467.128 1430.77 467.501 1431.85 468.248C1432.94 468.995 1433.73 469.955 1434.22 471.128C1434.71 472.28 1434.96 473.517 1434.96 474.84C1434.96 477.293 1434.25 479.267 1432.85 480.76C1431.46 482.253 1429.48 483 1426.89 483C1424.46 483 1422.52 482.392 1421.07 481.176C1419.62 479.96 1418.8 478.371 1418.61 476.408H1422.96C1423.15 477.261 1423.58 477.944 1424.24 478.456C1424.92 478.968 1425.78 479.224 1426.83 479.224C1428.09 479.224 1429.04 478.829 1429.68 478.04C1430.32 477.251 1430.64 476.205 1430.64 474.904C1430.64 473.581 1430.31 472.579 1429.65 471.896C1429.01 471.192 1428.06 470.84 1426.8 470.84C1425.9 470.84 1425.16 471.064 1424.56 471.512C1423.96 471.96 1423.53 472.557 1423.28 473.304H1418.99V459.608H1433.45V463.544Z" fill="#777777"/>
<rect x="1456" y="48" width="160" height="384" fill="#7180B9"/>
<path d="M1497.06 463.064L1488.55 483H1484L1492.58 463.576H1481.64V459.736H1497.06V463.064ZM1499.2 463.8V459.672H1506.91V483H1502.3V463.8H1499.2ZM1515.24 470.648C1513.11 469.539 1512.04 467.821 1512.04 465.496C1512.04 464.344 1512.33 463.299 1512.9 462.36C1513.5 461.4 1514.39 460.643 1515.56 460.088C1516.76 459.512 1518.21 459.224 1519.91 459.224C1521.62 459.224 1523.06 459.512 1524.23 460.088C1525.43 460.643 1526.31 461.4 1526.89 462.36C1527.49 463.299 1527.78 464.344 1527.78 465.496C1527.78 466.669 1527.5 467.704 1526.92 468.6C1526.34 469.475 1525.58 470.157 1524.62 470.648C1525.79 471.16 1526.71 471.907 1527.37 472.888C1528.03 473.869 1528.36 475.032 1528.36 476.376C1528.36 477.827 1527.99 479.096 1527.24 480.184C1526.52 481.251 1525.51 482.072 1524.23 482.648C1522.95 483.224 1521.51 483.512 1519.91 483.512C1518.31 483.512 1516.87 483.224 1515.59 482.648C1514.33 482.072 1513.33 481.251 1512.58 480.184C1511.86 479.096 1511.5 477.827 1511.5 476.376C1511.5 475.032 1511.83 473.869 1512.49 472.888C1513.15 471.885 1514.07 471.139 1515.24 470.648ZM1523.43 466.136C1523.43 465.091 1523.11 464.28 1522.47 463.704C1521.85 463.128 1521 462.84 1519.91 462.84C1518.85 462.84 1517.99 463.128 1517.35 463.704C1516.73 464.28 1516.42 465.101 1516.42 466.168C1516.42 467.128 1516.74 467.896 1517.38 468.472C1518.05 469.048 1518.89 469.336 1519.91 469.336C1520.94 469.336 1521.78 469.048 1522.44 468.472C1523.1 467.875 1523.43 467.096 1523.43 466.136ZM1519.91 472.6C1518.7 472.6 1517.7 472.909 1516.94 473.528C1516.19 474.147 1515.82 475.032 1515.82 476.184C1515.82 477.251 1516.18 478.125 1516.9 478.808C1517.65 479.469 1518.65 479.8 1519.91 479.8C1521.17 479.8 1522.16 479.459 1522.89 478.776C1523.61 478.093 1523.98 477.229 1523.98 476.184C1523.98 475.053 1523.6 474.179 1522.86 473.56C1522.11 472.92 1521.13 472.6 1519.91 472.6ZM1531.9 471.032C1531.9 467.341 1532.56 464.451 1533.88 462.36C1535.23 460.269 1537.45 459.224 1540.54 459.224C1543.63 459.224 1545.84 460.269 1547.16 462.36C1548.51 464.451 1549.18 467.341 1549.18 471.032C1549.18 474.744 1548.51 477.656 1547.16 479.768C1545.84 481.88 1543.63 482.936 1540.54 482.936C1537.45 482.936 1535.23 481.88 1533.88 479.768C1532.56 477.656 1531.9 474.744 1531.9 471.032ZM1544.76 471.032C1544.76 469.453 1544.66 468.131 1544.44 467.064C1544.25 465.976 1543.85 465.091 1543.23 464.408C1542.63 463.725 1541.73 463.384 1540.54 463.384C1539.34 463.384 1538.44 463.725 1537.82 464.408C1537.22 465.091 1536.82 465.976 1536.6 467.064C1536.41 468.131 1536.32 469.453 1536.32 471.032C1536.32 472.653 1536.41 474.019 1536.6 475.128C1536.8 476.216 1537.2 477.101 1537.82 477.784C1538.44 478.445 1539.34 478.776 1540.54 478.776C1541.73 478.776 1542.64 478.445 1543.26 477.784C1543.88 477.101 1544.28 476.216 1544.48 475.128C1544.67 474.019 1544.76 472.653 1544.76 471.032ZM1565.77 471.544C1567.03 471.779 1568.06 472.408 1568.87 473.432C1569.69 474.456 1570.09 475.629 1570.09 476.952C1570.09 478.147 1569.79 479.203 1569.19 480.12C1568.62 481.016 1567.78 481.72 1566.67 482.232C1565.56 482.744 1564.25 483 1562.73 483H1553.1V460.664H1562.31C1563.83 460.664 1565.13 460.909 1566.22 461.4C1567.33 461.891 1568.16 462.573 1568.71 463.448C1569.29 464.323 1569.58 465.315 1569.58 466.424C1569.58 467.725 1569.23 468.813 1568.52 469.688C1567.84 470.563 1566.92 471.181 1565.77 471.544ZM1557.58 469.88H1561.67C1562.74 469.88 1563.56 469.645 1564.14 469.176C1564.71 468.685 1565 467.992 1565 467.096C1565 466.2 1564.71 465.507 1564.14 465.016C1563.56 464.525 1562.74 464.28 1561.67 464.28H1557.58V469.88ZM1562.09 479.352C1563.18 479.352 1564.02 479.096 1564.62 478.584C1565.24 478.072 1565.55 477.347 1565.55 476.408C1565.55 475.448 1565.23 474.701 1564.59 474.168C1563.95 473.613 1563.08 473.336 1561.99 473.336H1557.58V479.352H1562.09ZM1578.33 476.44C1578.5 477.379 1578.89 478.104 1579.49 478.616C1580.1 479.107 1580.93 479.352 1581.95 479.352C1583.27 479.352 1584.23 478.808 1584.83 477.72C1585.43 476.611 1585.73 474.755 1585.73 472.152C1585.23 472.835 1584.54 473.368 1583.65 473.752C1582.77 474.136 1581.82 474.328 1580.8 474.328C1579.43 474.328 1578.19 474.051 1577.09 473.496C1576 472.92 1575.13 472.077 1574.49 470.968C1573.85 469.837 1573.53 468.472 1573.53 466.872C1573.53 464.504 1574.24 462.627 1575.65 461.24C1577.05 459.832 1578.97 459.128 1581.41 459.128C1584.43 459.128 1586.57 460.099 1587.81 462.04C1589.06 463.981 1589.69 466.904 1589.69 470.808C1589.69 473.581 1589.45 475.853 1588.96 477.624C1588.49 479.395 1587.67 480.739 1586.49 481.656C1585.34 482.573 1583.76 483.032 1581.76 483.032C1580.18 483.032 1578.83 482.733 1577.73 482.136C1576.62 481.517 1575.76 480.717 1575.17 479.736C1574.59 478.733 1574.26 477.635 1574.17 476.44H1578.33ZM1581.73 470.68C1582.83 470.68 1583.71 470.339 1584.35 469.656C1584.99 468.973 1585.31 468.056 1585.31 466.904C1585.31 465.645 1584.97 464.675 1584.29 463.992C1583.62 463.288 1582.72 462.936 1581.57 462.936C1580.41 462.936 1579.5 463.299 1578.81 464.024C1578.15 464.728 1577.82 465.667 1577.82 466.84C1577.82 467.971 1578.14 468.899 1578.78 469.624C1579.44 470.328 1580.42 470.68 1581.73 470.68Z" fill="#777777"/>
<path d="M1616 48H1760C1768.84 48 1776 55.1634 1776 64V416C1776 424.837 1768.84 432 1760 432H1616V48Z" fill="#DEF3E4"/>
<path d="M1648.88 460.664C1651.22 460.664 1653.28 461.123 1655.05 462.04C1656.84 462.957 1658.22 464.269 1659.18 465.976C1660.16 467.661 1660.65 469.624 1660.65 471.864C1660.65 474.104 1660.16 476.067 1659.18 477.752C1658.22 479.416 1656.84 480.707 1655.05 481.624C1653.28 482.541 1651.22 483 1648.88 483H1641.07V460.664H1648.88ZM1648.72 479.192C1651.06 479.192 1652.88 478.552 1654.16 477.272C1655.44 475.992 1656.08 474.189 1656.08 471.864C1656.08 469.539 1655.44 467.725 1654.16 466.424C1652.88 465.101 1651.06 464.44 1648.72 464.44H1645.55V479.192H1648.72ZM1668.48 464.28V469.88H1676V473.432H1668.48V479.352H1676.96V483H1664V460.632H1676.96V464.28H1668.48ZM1694.83 460.664V464.28H1685.52V470.008H1692.65V473.56H1685.52V483H1681.04V460.664H1694.83ZM1697.56 465.816C1697.66 463.683 1698.41 462.04 1699.8 460.888C1701.2 459.715 1703.05 459.128 1705.33 459.128C1706.89 459.128 1708.22 459.405 1709.33 459.96C1710.44 460.493 1711.27 461.229 1711.83 462.168C1712.4 463.085 1712.69 464.131 1712.69 465.304C1712.69 466.648 1712.34 467.789 1711.64 468.728C1710.95 469.645 1710.13 470.264 1709.17 470.584V470.712C1710.41 471.096 1711.37 471.779 1712.05 472.76C1712.76 473.741 1713.11 475 1713.11 476.536C1713.11 477.816 1712.81 478.957 1712.21 479.96C1711.64 480.963 1710.77 481.752 1709.62 482.328C1708.49 482.883 1707.12 483.16 1705.52 483.16C1703.11 483.16 1701.15 482.552 1699.64 481.336C1698.12 480.12 1697.32 478.328 1697.24 475.96H1701.59C1701.63 477.005 1701.98 477.848 1702.64 478.488C1703.33 479.107 1704.26 479.416 1705.43 479.416C1706.52 479.416 1707.35 479.117 1707.92 478.52C1708.52 477.901 1708.82 477.112 1708.82 476.152C1708.82 474.872 1708.42 473.955 1707.6 473.4C1706.79 472.845 1705.54 472.568 1703.83 472.568H1702.9V468.888H1703.83C1706.86 468.888 1708.37 467.875 1708.37 465.848C1708.37 464.931 1708.1 464.216 1707.54 463.704C1707.01 463.192 1706.23 462.936 1705.2 462.936C1704.2 462.936 1703.42 463.213 1702.87 463.768C1702.34 464.301 1702.03 464.984 1701.94 465.816H1697.56ZM1721.64 464.28V469.88H1729.16V473.432H1721.64V479.352H1730.12V483H1717.16V460.632H1730.12V464.28H1721.64ZM1733.49 478.456V474.936L1743.95 459.96H1749.17V474.552H1751.98V478.456H1749.17V483H1744.69V478.456H1733.49ZM1744.98 464.76L1738.42 474.552H1744.98V464.76Z" fill="#777777"/>
</g>
<defs>
<filter id="filter0_d_1692_10875" x="0" y="0" width="928" height="576" filterUnits="userSpaceOnUse" color-interpolation-filters="sRGB">
<feFlood flood-opacity="0" result="BackgroundImageFix"/>
<feColorMatrix in="SourceAlpha" type="matrix" values="0 0 0 0 0 0 0 0 0 0 0 0 0 0 0 0 0 0 127 0" result="hardAlpha"/>
<feOffset dx="16" dy="16"/>
<feGaussianBlur stdDeviation="32"/>
<feColorMatrix type="matrix" values="0 0 0 0 0 0 0 0 0 0 0 0 0 0 0 0 0 0 0.25 0"/>
<feBlend mode="normal" in2="BackgroundImageFix" result="effect1_dropShadow_1692_10875"/>
<feBlend mode="normal" in="SourceGraphic" in2="effect1_dropShadow_1692_10875" result="shape"/>
</filter>
<filter id="filter1_d_1692_10875" x="928" y="0" width="928" height="576" filterUnits="userSpaceOnUse" color-interpolation-filters="sRGB">
<feFlood flood-opacity="0" result="BackgroundImageFix"/>
<feColorMatrix in="SourceAlpha" type="matrix" values="0 0 0 0 0 0 0 0 0 0 0 0 0 0 0 0 0 0 127 0" result="hardAlpha"/>
<feOffset dx="16" dy="16"/>
<feGaussianBlur stdDeviation="32"/>
<feColorMatrix type="matrix" values="0 0 0 0 0 0 0 0 0 0 0 0 0 0 0 0 0 0 0.25 0"/>
<feBlend mode="normal" in2="BackgroundImageFix" result="effect1_dropShadow_1692_10875"/>
<feBlend mode="normal" in="SourceGraphic" in2="effect1_dropShadow_1692_10875" result="shape"/>
</filter>
</defs>
</svg>
