<svg width="24" height="25" viewBox="0 0 24 25" fill="none" xmlns="http://www.w3.org/2000/svg">
<path d="M3 5.00122C3 4.72508 3.22386 4.50122 3.5 4.50122H5.5C5.77614 4.50122 6 4.72508 6 5.00122V5.30122C6 5.41168 5.91046 5.50122 5.8 5.50122H3.2C3.08954 5.50122 3 5.41168 3 5.30122V5.00122Z" fill="#333333"/>
<path fill-rule="evenodd" clip-rule="evenodd" d="M23 8.00122C23 6.89665 22.1046 6.00122 21 6.00122H19.118C18.4328 6.00122 17.8064 5.61409 17.5 5.00122C17.1936 4.38835 16.5672 4.00122 15.882 4.00122H12.118C11.4328 4.00122 10.8064 4.38835 10.5 5.00122C10.1936 5.61409 9.56717 6.00122 8.88197 6.00122H3C1.89543 6.00122 1 6.89665 1 8.00122V18.0012C1 19.1058 1.89543 20.0012 3 20.0012H21C22.1046 20.0012 23 19.1058 23 18.0012V8.00122ZM17 13.0012C17 14.6581 15.6569 16.0012 14 16.0012C12.3431 16.0012 11 14.6581 11 13.0012C11 11.3444 12.3431 10.0012 14 10.0012C15.6569 10.0012 17 11.3444 17 13.0012ZM19 13.0012C19 15.7626 16.7614 18.0012 14 18.0012C11.2386 18.0012 9 15.7626 9 13.0012C9 10.2398 11.2386 8.00122 14 8.00122C16.7614 8.00122 19 10.2398 19 13.0012ZM4 8.75122C4.41421 8.75122 4.75 9.08701 4.75 9.50122V16.5012C4.75 16.9154 4.41421 17.2512 4 17.2512C3.58579 17.2512 3.25 16.9154 3.25 16.5012V9.50122C3.25 9.08701 3.58579 8.75122 4 8.75122ZM20.5 9.50122C21.0523 9.50122 21.5 9.05351 21.5 8.50122C21.5 7.94894 21.0523 7.50122 20.5 7.50122C19.9477 7.50122 19.5 7.94894 19.5 8.50122C19.5 9.05351 19.9477 9.50122 20.5 9.50122Z" fill="#333333"/>
</svg>
