<svg width="24" height="25" viewBox="0 0 24 25" fill="none" xmlns="http://www.w3.org/2000/svg">
<path d="M12.5 2.00122C8.36448 2.00122 5 5.3657 5 9.50118C5 14.6334 11.7118 22.1679 11.9975 22.4861C12.2659 22.7851 12.7346 22.7846 13.0025 22.4861C13.2882 22.1679 20 14.6334 20 9.50118C19.9999 5.3657 16.6355 2.00122 12.5 2.00122ZM12.5 13.2746C10.4193 13.2746 8.7266 11.5819 8.7266 9.50118C8.7266 7.4205 10.4194 5.72778 12.5 5.72778C14.5806 5.72778 16.2734 7.42054 16.2734 9.50122C16.2734 11.5819 14.5806 13.2746 12.5 13.2746Z" fill="#333333"/>
</svg>
