<svg width="24" height="25" viewBox="0 0 24 25" fill="none" xmlns="http://www.w3.org/2000/svg">
<path d="M14.6508 8.636L17.8693 11.8546C18.0871 12.0724 18.4572 11.8911 18.4186 11.5855L18.0208 8.4321C18.0083 8.333 18.0423 8.23368 18.113 8.16305L20.4228 5.8532C20.4573 5.81875 20.4991 5.79253 20.5451 5.7765L21.8235 5.33114C22.0486 5.25271 22.1143 4.96586 21.9457 4.79727L18.4895 1.34102C18.3209 1.17243 18.034 1.23812 17.9556 1.46326L17.5103 2.74169C17.4942 2.7877 17.468 2.82949 17.4336 2.86394L15.1237 5.17379C15.0531 5.24442 14.9538 5.27844 14.8547 5.26593L11.7012 4.86811C11.3957 4.82956 11.2144 5.19965 11.4322 5.41743L14.6508 8.636ZM14.6508 8.636L9.70245 13.5843" stroke="black" stroke-width="2" stroke-linecap="round"/>
<path d="M8.34308 6.89655H6.03273C5.57546 6.89655 5.13692 7.0782 4.81358 7.40153C4.49024 7.72487 4.30859 8.16341 4.30859 8.62068V22.4138L10.3431 18.1034L16.3776 22.4138V14.931" stroke="black" stroke-width="2" stroke-linecap="round" stroke-linejoin="round"/>
</svg>
