<svg width="24" height="24" viewBox="0 0 24 24" fill="none" xmlns="http://www.w3.org/2000/svg">
<path fill-rule="evenodd" clip-rule="evenodd" d="M15 6C15 5.44772 14.5523 5 14 5H5C4.44772 5 4 5.44772 4 6V12C4 12.5523 4.44772 13 5 13C5.27614 13 5.5 13.2239 5.5 13.5V14.5C5.5 14.7761 5.27614 15 5 15C3.34315 15 2 13.6569 2 12V6C2 4.34315 3.34315 3 5 3H14C15.6569 3 17 4.34315 17 6V7C17 7.27614 16.7761 7.5 16.5 7.5H15.5C15.2239 7.5 15 7.27614 15 7V6Z" fill="black"/>
<path d="M10 20H19C20.1046 20 21 19.1046 21 18V12C21 10.8954 20.1046 10 19 10H10C8.89543 10 8 10.8954 8 12V18C8 19.1046 8.89543 20 10 20Z" stroke="black" stroke-width="2.06667"/>
</svg>
