<svg width="24" height="24" viewBox="0 0 24 24" fill="none" xmlns="http://www.w3.org/2000/svg">
<path d="M12 2.99998C13.9006 2.99998 15.7524 3.60167 17.2901 4.71882C18.8277 5.83597 19.9722 7.41123 20.5595 9.21882C21.1468 11.0264 21.1468 12.9735 20.5595 14.7811C19.9722 16.5887 18.8277 18.164 17.2901 19.2811M12 2.99998L13.5 5.5M12 2.99998L14.5 1" stroke="black" stroke-width="2" stroke-linecap="round" stroke-linejoin="round"/>
<path d="M12 21C10.0994 21 8.24756 20.3983 6.70993 19.2812C5.1723 18.164 4.02781 16.5888 3.44049 14.7812C2.85317 12.9736 2.85317 11.0265 3.44049 9.21887C4.02781 7.41128 5.1723 5.83602 6.70993 4.71887M12 21L10.5 18.5M12 21L9.5 23" stroke="black" stroke-width="2" stroke-linecap="round" stroke-linejoin="round"/>
<path fill-rule="evenodd" clip-rule="evenodd" d="M12.5191 17.9779C15.5898 17.7147 18 15.1388 18 12C18 9.78418 16.7989 7.84891 15.0122 6.80976C14.8771 6.96564 14.7155 7.10311 14.529 7.21499C13.5818 7.78328 12.3533 7.47614 11.785 6.52898L11.4809 6.02214C8.41024 6.28528 6 8.86117 6 12C6 14.2158 7.20113 16.1511 8.98782 17.1902C9.12288 17.0344 9.28454 16.8969 9.47102 16.785C10.4182 16.2167 11.6467 16.5239 12.215 17.471L12.5191 17.9779ZM12 16C14.2091 16 16 14.2091 16 12C16 9.79086 14.2091 8 12 8C9.79086 8 8 9.79086 8 12C8 14.2091 9.79086 16 12 16Z" fill="black"/>
<path d="M11.908 14.096C11.556 14.096 11.216 14.056 10.888 13.976C10.56 13.896 10.29 13.792 10.078 13.664L10.534 12.632C10.734 12.748 10.956 12.842 11.2 12.914C11.448 12.982 11.688 13.016 11.92 13.016C12.056 13.016 12.162 13.008 12.238 12.992C12.318 12.972 12.376 12.946 12.412 12.914C12.448 12.878 12.466 12.836 12.466 12.788C12.466 12.712 12.424 12.652 12.34 12.608C12.256 12.564 12.144 12.528 12.004 12.5C11.868 12.468 11.718 12.436 11.554 12.404C11.39 12.368 11.224 12.322 11.056 12.266C10.892 12.21 10.74 12.136 10.6 12.044C10.464 11.952 10.354 11.832 10.27 11.684C10.186 11.532 10.144 11.344 10.144 11.12C10.144 10.86 10.216 10.624 10.36 10.412C10.508 10.196 10.726 10.024 11.014 9.896C11.306 9.768 11.668 9.704 12.1 9.704C12.384 9.704 12.664 9.734 12.94 9.794C13.216 9.854 13.464 9.946 13.684 10.07L13.258 11.096C13.05 10.992 12.848 10.914 12.652 10.862C12.46 10.81 12.272 10.784 12.088 10.784C11.952 10.784 11.844 10.796 11.764 10.82C11.684 10.844 11.626 10.876 11.59 10.916C11.558 10.956 11.542 11 11.542 11.048C11.542 11.12 11.584 11.178 11.668 11.222C11.752 11.262 11.862 11.296 11.998 11.324C12.138 11.352 12.29 11.382 12.454 11.414C12.622 11.446 12.788 11.49 12.952 11.546C13.116 11.602 13.266 11.676 13.402 11.768C13.542 11.86 13.654 11.98 13.738 12.128C13.822 12.276 13.864 12.46 13.864 12.68C13.864 12.936 13.79 13.172 13.642 13.388C13.498 13.6 13.282 13.772 12.994 13.904C12.706 14.032 12.344 14.096 11.908 14.096ZM11.62 14.72V13.94H12.466V14.72H11.62ZM11.62 9.86V9.08H12.466V9.86H11.62Z" fill="black"/>
</svg>
