<svg width="24" height="24" viewBox="0 0 24 24" fill="none" xmlns="http://www.w3.org/2000/svg">
<rect x="3" y="3" width="7" height="7" rx="2" stroke="black" stroke-width="2"/>
<rect x="14" y="3" width="7" height="7" rx="2" stroke="black" stroke-width="2"/>
<rect x="16.5" y="5.5" width="2" height="2" rx="0.5" fill="black" stroke="black"/>
<rect x="5.5" y="5.5" width="2" height="2" rx="0.5" fill="black" stroke="black"/>
<rect x="5.5" y="16.5" width="2" height="2" rx="0.5" fill="black" stroke="black"/>
<rect x="13.5" y="13.5" width="2" height="2" rx="0.5" fill="black" stroke="black"/>
<rect x="3" y="14" width="7" height="7" rx="2" stroke="black" stroke-width="2"/>
<path d="M18 14V17C18 17.5523 17.5523 18 17 18H15C14.4477 18 14 18.4477 14 19V21" stroke="black" stroke-width="2" stroke-linecap="round"/>
<path d="M17 21H20C20.5523 21 21 20.5523 21 20V18" stroke="black" stroke-width="2" stroke-linecap="round"/>
<path d="M21 14V15" stroke="black" stroke-width="2" stroke-linecap="round"/>
</svg>
