<svg width="24" height="24" viewBox="0 0 24 24" fill="none" xmlns="http://www.w3.org/2000/svg">
<path d="M3 8V5C3 3.89543 3.89543 3 5 3H8C9.10457 3 10 3.89543 10 5V8" stroke="black" stroke-width="2" stroke-linecap="round"/>
<path d="M14 8V5C14 3.89543 14.8954 3 16 3H19C20.1046 3 21 3.89543 21 5V8" stroke="black" stroke-width="2" stroke-linecap="round"/>
<path d="M3 16V19C3 20.1046 3.89543 21 5 21H8C9.10457 21 10 20.1046 10 19V16" stroke="black" stroke-width="2" stroke-linecap="round"/>
<path d="M2 12H22" stroke="black" stroke-width="2" stroke-linecap="round"/>
<rect x="5.5" y="5.5" width="2" height="2" rx="0.5" fill="black" stroke="black"/>
<rect x="5.5" y="16.5" width="2" height="2" rx="0.5" fill="black" stroke="black"/>
<rect x="16.5" y="5.5" width="2" height="2" rx="0.5" fill="black" stroke="black"/>
<path d="M18 16V17C18 17.5523 17.5523 18 17 18H15C14.4477 18 14 18.4477 14 19V21" stroke="black" stroke-width="2" stroke-linecap="round"/>
<path d="M17 21H20C20.5523 21 21 20.5523 21 20V16" stroke="black" stroke-width="2" stroke-linecap="round"/>
</svg>
