<svg width="24" height="24" viewBox="0 0 24 24" fill="none" xmlns="http://www.w3.org/2000/svg">
<g clip-path="url(#clip0_1771_9961)">
<path d="M23 19.5C21.0994 19.5 24 19.5 20 19.5C16 19.5 18 12 14 12M23 19.5L21 17M23 19.5L21 22" stroke="black" stroke-width="2" stroke-linecap="round" stroke-linejoin="round"/>
<path fill-rule="evenodd" clip-rule="evenodd" d="M23.7799 3.87528C24.072 4.2405 24.072 4.75945 23.7799 5.12467L21.7799 7.6247C21.4349 8.05596 20.8056 8.12589 20.3743 7.78088C19.943 7.43587 19.8731 6.80658 20.2181 6.37531L20.9184 5.5L19.999 5.50001C19.6637 5.5 19.4413 5.57603 19.2779 5.67579C19.1077 5.77969 18.9447 5.94446 18.7856 6.20017C18.4428 6.75098 18.2265 7.52789 17.9652 8.50766L17.9449 8.58389L17.9449 8.58389C17.7264 9.40415 17.4664 10.3803 17.0139 11.182C16.8009 10.9758 16.5588 10.7834 16.2833 10.6152C15.9691 10.4234 15.6352 10.2777 15.2852 10.1763C15.5868 9.63513 15.7905 8.90097 16.0328 7.99233L16.0531 7.91611C16.2877 7.03535 16.5702 5.97488 17.0874 5.14357C17.3658 4.69616 17.7341 4.275 18.2358 3.96874C18.7442 3.65835 19.3343 3.5 19.999 3.50001L20.9184 3.50001L20.2181 2.6247C19.8731 2.19344 19.943 1.56415 20.3743 1.21914C20.8056 0.874129 21.4349 0.944047 21.7799 1.37531L23.7799 3.87528Z" fill="black"/>
<path fill-rule="evenodd" clip-rule="evenodd" d="M11 12C11 14.2091 9.20914 16 7 16C4.79086 16 3 14.2091 3 12C3 9.79086 4.79086 8 7 8C9.20914 8 11 9.79086 11 12ZM12.787 13.5903C12.09 16.1322 9.76315 18 7 18C3.68629 18 1 15.3137 1 12C1 8.68629 3.68629 6 7 6C9.76315 6 12.09 7.86781 12.787 10.4097C12.3086 10.7752 12 11.3515 12 12C12 12.6485 12.3086 13.2248 12.787 13.5903Z" fill="black"/>
<path d="M6.908 14.096C6.556 14.096 6.216 14.056 5.888 13.976C5.56 13.896 5.29 13.792 5.078 13.664L5.534 12.632C5.734 12.748 5.956 12.842 6.2 12.914C6.448 12.982 6.688 13.016 6.92 13.016C7.056 13.016 7.162 13.008 7.238 12.992C7.318 12.972 7.376 12.946 7.412 12.914C7.448 12.878 7.466 12.836 7.466 12.788C7.466 12.712 7.424 12.652 7.34 12.608C7.256 12.564 7.144 12.528 7.004 12.5C6.868 12.468 6.718 12.436 6.554 12.404C6.39 12.368 6.224 12.322 6.056 12.266C5.892 12.21 5.74 12.136 5.6 12.044C5.464 11.952 5.354 11.832 5.27 11.684C5.186 11.532 5.144 11.344 5.144 11.12C5.144 10.86 5.216 10.624 5.36 10.412C5.508 10.196 5.726 10.024 6.014 9.896C6.306 9.768 6.668 9.704 7.1 9.704C7.384 9.704 7.664 9.734 7.94 9.794C8.216 9.854 8.464 9.946 8.684 10.07L8.258 11.096C8.05 10.992 7.848 10.914 7.652 10.862C7.46 10.81 7.272 10.784 7.088 10.784C6.952 10.784 6.844 10.796 6.764 10.82C6.684 10.844 6.626 10.876 6.59 10.916C6.558 10.956 6.542 11 6.542 11.048C6.542 11.12 6.584 11.178 6.668 11.222C6.752 11.262 6.862 11.296 6.998 11.324C7.138 11.352 7.29 11.382 7.454 11.414C7.622 11.446 7.788 11.49 7.952 11.546C8.116 11.602 8.266 11.676 8.402 11.768C8.542 11.86 8.654 11.98 8.738 12.128C8.822 12.276 8.864 12.46 8.864 12.68C8.864 12.936 8.79 13.172 8.642 13.388C8.498 13.6 8.282 13.772 7.994 13.904C7.706 14.032 7.344 14.096 6.908 14.096ZM6.62 14.72V13.94H7.466V14.72H6.62ZM6.62 9.86V9.08H7.466V9.86H6.62Z" fill="black"/>
</g>
<defs>
<clipPath id="clip0_1771_9961">
<rect width="24" height="24" fill="white"/>
</clipPath>
</defs>
</svg>
