<svg width="24" height="24" viewBox="0 0 24 24" fill="none" xmlns="http://www.w3.org/2000/svg">
<path d="M12 15.1429C13.6543 15.1429 15 16.2963 15 17.7143C15 18.8303 14.1615 19.7728 13 20.1278V21.1429C13 21.6166 12.5527 22 12 22C11.4473 22 11 21.6166 11 21.1429V20.1278C9.83853 19.7729 9 18.8303 9 17.7143C9 17.2405 9.44727 16.8571 10 16.8571C10.5527 16.8571 11 17.2405 11 17.7143C11 18.1872 11.4483 18.5714 12 18.5714C12.5517 18.5714 13 18.1872 13 17.7143C13 17.2414 12.5517 16.8571 12 16.8571C10.3457 16.8571 9 15.7037 9 14.2857C9 13.1697 9.83853 12.2272 11 11.8722V10.8571C11 10.3834 11.4473 10 12 10C12.5527 10 13 10.3834 13 10.8571V11.8722C14.1615 12.2271 15 13.1697 15 14.2857C15 14.7595 14.5527 15.1429 14 15.1429C13.4473 15.1429 13 14.7595 13 14.2857C13 13.8128 12.5517 13.4286 12 13.4286C11.4483 13.4286 11 13.8128 11 14.2857C11 14.7586 11.4483 15.1429 12 15.1429Z" fill="black"/>
<path d="M13.1505 2.82073C12.5508 2.1011 11.4455 2.1011 10.8458 2.82073L7.05239 7.37286C6.8946 7.5622 6.62237 7.60832 6.41103 7.48151L3.54774 5.76354C2.40183 5.07599 0.996669 6.11712 1.32078 7.41358L2.93333 13.8638C3.10027 14.5315 3.70025 15 4.38855 15H6.68947C6.92727 15 7.12955 14.8316 7.19586 14.6032C7.27098 14.3445 7.36645 14.0944 7.48041 13.8548C7.65747 13.4826 7.40908 13 6.99689 13H5.16932C4.93989 13 4.7399 12.8438 4.68425 12.6212L3.8466 9.27064C3.73856 8.83849 4.20695 8.49144 4.58892 8.72063L6.11646 9.63715C6.75049 10.0176 7.56717 9.87922 8.04053 9.31119L11.614 5.02296C11.8139 4.78309 12.1824 4.78309 12.3823 5.02296L15.9558 9.31119C16.4291 9.87922 17.2458 10.0176 17.8799 9.63715L19.4074 8.72063C19.7894 8.49145 20.2578 8.83849 20.1497 9.27064L19.3121 12.6212C19.2564 12.8438 19.0564 13 18.827 13H16.9994C16.5872 13 16.3388 13.4826 16.5159 13.8548C16.6299 14.0944 16.7253 14.3445 16.8004 14.6032C16.8668 14.8316 17.069 15 17.3068 15H19.6078C20.2961 15 20.896 14.5315 21.063 13.8638L22.6755 7.41358C22.9997 6.11712 21.5945 5.07599 20.4486 5.76354L17.5853 7.48151C17.3739 7.60832 17.1017 7.5622 16.9439 7.37286L13.1505 2.82073Z" fill="black"/>
<path d="M18 18L20 18" stroke="black" stroke-width="2" stroke-linecap="round"/>
<path d="M4 18H6" stroke="black" stroke-width="2" stroke-linecap="round"/>
</svg>
