<svg width="24" height="24" viewBox="0 0 24 24" fill="none" xmlns="http://www.w3.org/2000/svg">
<rect x="13" y="1" width="4" height="4" rx="2" stroke="black" stroke-width="2"/>
<path d="M13.5 16C13.5 16 14.5 16.5 15 17C15.379 17.379 17.1944 19.4817 18.0509 20.4772C18.3173 20.7868 18.3435 21.2348 18.1169 21.5747V21.5747C17.7978 22.0534 17.1203 22.1224 16.7057 21.7235C15.7445 20.7985 14.1714 19.3357 13.5 19C12.5 18.5 12 18.5 12 18.5M10.5 6C10.5 6 9.5 5 8 5C6.99272 5 5.30902 5.90188 4.31159 6.49438C3.85694 6.76445 3.73779 7.35669 4.03113 7.79669V7.79669C4.29899 8.19848 4.82411 8.33824 5.26796 8.14802C5.93996 7.86001 6.89999 7.5 7.5 7.5C8.5 7.5 8.5 8 8.5 8M9.50001 18.5C8.76115 19.2389 6.1116 21.0695 4.77817 21.9753C4.3485 22.2672 3.76644 22.1496 3.47831 21.7175V21.7175C3.2077 21.3115 3.29077 20.7659 3.66031 20.4474C4.47261 19.7473 5.82651 18.5102 6.50001 17.5C7.5 16 7.5 15.5 8 13.5C8.5 11.5 9.5 10.5 10.5 9C11.5 7.5 12.5 7 12.5 7L14.5 8C14.5 8 15.5 10 16.5 10C17.1232 10 18.329 9.41743 19.1492 8.97841C19.631 8.72047 20.2384 8.8576 20.5416 9.31238V9.31238C20.8091 9.71361 20.7592 10.2463 20.3958 10.5632C19.4405 11.3963 17.5325 12.8256 16 12.5C14.8863 12.2634 13.5 11 13.5 11L11.5 14.2778C11.5 14.2778 11.2895 15 11 16C10.7105 17 10.5 17.5 9.50001 18.5Z" stroke="black" stroke-width="2" stroke-linecap="round" stroke-linejoin="round"/>
</svg>
