<svg width="24" height="24" viewBox="0 0 24 24" fill="none" xmlns="http://www.w3.org/2000/svg">
<path fill-rule="evenodd" clip-rule="evenodd" d="M0 5C0 3.34315 1.34315 2 3 2H21C22.6569 2 24 3.34315 24 5V13C24 14.6569 22.6569 16 21 16H16.2091C16.2556 15.3378 16.0257 14.6598 15.5194 14.1535C14.5921 13.2262 13.0887 13.2262 12.1614 14.1535L11.5466 14.7683L11.4127 14.6879C10.2208 13.9728 8.67951 14.2933 7.87161 15.4244L7.46047 16H3C1.34315 16 0 14.6569 0 13V5ZM14.6988 16C14.7524 15.7243 14.6723 15.4277 14.4588 15.2142C14.1173 14.8727 13.5636 14.8727 13.222 15.2142L12.4362 16H14.6988ZM10.6841 16H9.3996C9.76395 15.7602 10.2463 15.7373 10.641 15.9741L10.6841 16ZM6.0905 12.056C5.67983 12.056 5.31183 11.9893 4.9865 11.856C4.66117 11.7227 4.39983 11.5253 4.2025 11.264C4.0105 11.0027 3.90917 10.688 3.8985 10.32H5.3545C5.37583 10.528 5.44783 10.688 5.5705 10.8C5.69317 10.9067 5.85317 10.96 6.0505 10.96C6.25317 10.96 6.41317 10.9147 6.5305 10.824C6.64783 10.728 6.7065 10.5973 6.7065 10.432C6.7065 10.2933 6.6585 10.1787 6.5625 10.088C6.47183 9.99733 6.35717 9.92267 6.2185 9.864C6.08517 9.80533 5.89317 9.73867 5.6425 9.664C5.27983 9.552 4.98383 9.44 4.7545 9.328C4.52517 9.216 4.32783 9.05067 4.1625 8.832C3.99717 8.61333 3.9145 8.328 3.9145 7.976C3.9145 7.45333 4.10383 7.04533 4.4825 6.752C4.86117 6.45333 5.3545 6.304 5.9625 6.304C6.58117 6.304 7.07983 6.45333 7.4585 6.752C7.83717 7.04533 8.03983 7.456 8.0665 7.984H6.5865C6.57583 7.80267 6.50917 7.66133 6.3865 7.56C6.26383 7.45333 6.1065 7.4 5.9145 7.4C5.74917 7.4 5.61583 7.44533 5.5145 7.536C5.41317 7.62133 5.3625 7.74667 5.3625 7.912C5.3625 8.09333 5.44783 8.23467 5.6185 8.336C5.78917 8.43733 6.05583 8.54667 6.4185 8.664C6.78117 8.78667 7.0745 8.904 7.2985 9.016C7.52783 9.128 7.72517 9.29067 7.8905 9.504C8.05583 9.71733 8.1385 9.992 8.1385 10.328C8.1385 10.648 8.05583 10.9387 7.8905 11.2C7.7305 11.4613 7.49583 11.6693 7.1865 11.824C6.87717 11.9787 6.51183 12.056 6.0905 12.056ZM10.3484 7.48V8.616H12.1804V9.672H10.3484V10.904H12.4204V12H8.98038V6.384H12.4204V7.48H10.3484ZM14.6765 10.944H16.4685V12H13.3085V6.384H14.6765V10.944ZM18.489 10.944H20.281V12H17.121V6.384H18.489V10.944Z" fill="#333333"/>
<path fill-rule="evenodd" clip-rule="evenodd" d="M9.71862 21.1958C9.9452 21.4224 9.9452 21.7898 9.71862 22.0164C9.49094 22.244 9.12179 22.244 8.89411 22.0164L6.83285 19.9551C6.60517 19.7274 6.60517 19.3583 6.83286 19.1306C7.05944 18.904 7.4268 18.904 7.65338 19.1306L9.71862 21.1958ZM11.1929 21.1919C11.0383 21.1919 10.89 21.1304 10.7806 21.0211L8.1767 18.4172C7.97518 18.2156 7.94889 17.898 8.11454 17.666L9.09293 16.2963C9.44628 15.8016 10.1204 15.6614 10.6417 15.9742L11.3895 16.4229C11.6189 16.5605 11.9126 16.5244 12.1018 16.3352L13.2228 15.2142C13.5643 14.8727 14.118 14.8727 14.4595 15.2142C14.801 15.5557 14.801 16.1094 14.4595 16.451L12.2523 18.6582C11.9829 18.9276 12.1586 19.3899 12.5381 19.4244C13.1588 19.4808 13.54 20.1452 13.2612 20.7026C13.1113 21.0025 12.8049 21.1919 12.4697 21.1919L11.1929 21.1919Z" fill="#333333"/>
</svg>
