<svg width="24" height="24" viewBox="0 0 24 24" fill="none" xmlns="http://www.w3.org/2000/svg">
<path fill-rule="evenodd" clip-rule="evenodd" d="M12.1518 10.2368C12.2319 10.5518 12.0371 10.8871 11.7136 10.9183C11.1581 10.9719 10.5844 11 9.9976 11C5.02703 11 0.997597 8.98528 0.997597 6.5C0.997597 4.01472 5.02703 2 9.9976 2C10.7105 2 11.404 2.04144 12.0691 2.11977C12.4296 2.16224 12.6098 2.57342 12.4573 2.90292C12.3692 3.0933 12.2928 3.29015 12.2289 3.49256C12.1503 3.7414 11.911 3.91137 11.6514 3.88442C11.1231 3.82954 10.57 3.8 9.9976 3.8C7.73116 3.8 5.76829 4.26316 4.43862 4.92799C3.00129 5.64665 2.7976 6.30645 2.7976 6.5C2.7976 6.69355 3.00129 7.35335 4.43862 8.07201C5.76829 8.73684 7.73116 9.2 9.9976 9.2C10.4949 9.2 10.9776 9.1777 11.4422 9.13587C11.7392 9.10912 11.9999 9.3373 12.0373 9.63319C12.0633 9.83854 12.1017 10.04 12.1518 10.2368Z" fill="black"/>
<path fill-rule="evenodd" clip-rule="evenodd" d="M13.8416 12.8777C14.2067 13.1753 14.1358 13.8407 13.673 13.9288C12.4855 14.1547 11.229 14.2625 9.9982 14.2625C7.01004 14.2625 3.87087 13.6273 1.93254 12.208C1.25993 11.7156 0.998194 10.9416 0.998194 10.2544V7C0.998194 6.72386 1.22205 6.5 1.49819 6.5H2.29819C2.57434 6.5 2.79819 6.72386 2.79819 7V10.2544C2.79819 10.5221 2.89816 10.6841 2.99591 10.7557C4.48223 11.844 7.16472 12.4625 9.9982 12.4625C10.987 12.4625 11.9575 12.3872 12.8651 12.2428C13.0426 12.2146 13.2212 12.2813 13.3439 12.4126C13.499 12.5786 13.6653 12.7341 13.8416 12.8777Z" fill="black"/>
<path fill-rule="evenodd" clip-rule="evenodd" d="M20.8655 12.1716C21.0397 11.9595 21.3476 11.893 21.5647 12.061C22.4728 12.7637 23 13.6011 23 14.5C23 16.9853 18.9706 19 14 19C10.3141 19 7.14578 17.8922 5.75421 16.3061C5.48486 15.9991 5.7798 15.6015 6.18384 15.661C6.73922 15.7429 7.31022 15.7999 7.88732 15.8318C7.9688 15.8363 8.0479 15.8604 8.11889 15.9007C8.21871 15.9573 8.32591 16.0145 8.44102 16.072C9.77069 16.7369 11.7336 17.2 14 17.2C16.2664 17.2 18.2293 16.7369 19.559 16.072C20.9963 15.3534 21.2 14.6936 21.2 14.5C21.2 14.3631 21.0981 13.9928 20.5295 13.5334C20.2436 13.3025 20.2169 12.8454 20.4807 12.5895C20.6167 12.4577 20.7452 12.3181 20.8655 12.1716Z" fill="black"/>
<path fill-rule="evenodd" clip-rule="evenodd" d="M5 16.2184C5 15.911 5.27468 15.6768 5.57967 15.7149C5.82753 15.7458 6.07799 15.7718 6.33023 15.793C6.59385 15.8152 6.8 16.0332 6.8 16.2978V18.2544C6.8 18.5221 6.89997 18.6841 6.99772 18.7557C8.48404 19.844 11.1665 20.4625 14 20.4625C16.8335 20.4625 19.516 19.844 21.0023 18.7557C21.1 18.6841 21.2 18.5221 21.2 18.2544V15C21.2 14.7239 21.4239 14.5 21.7 14.5H22.5C22.7761 14.5 23 14.7239 23 15V18.2544C23 18.9416 22.7383 19.7156 22.0657 20.208C20.1273 21.6273 16.9882 22.2625 14 22.2625C11.0118 22.2625 7.87267 21.6273 5.93435 20.208C5.26174 19.7156 5 18.9416 5 18.2544V16.2184Z" fill="black"/>
<path d="M17 6.14286C18.6543 6.14286 20 7.29634 20 8.71429C20 9.83029 19.1615 10.7728 18 11.1278V12.1429C18 12.6166 17.5527 13 17 13C16.4473 13 16 12.6166 16 12.1429V11.1278C14.8385 10.7729 14 9.83029 14 8.71429C14 8.24051 14.4473 7.85714 15 7.85714C15.5527 7.85714 16 8.24051 16 8.71429C16 9.1872 16.4483 9.57143 17 9.57143C17.5517 9.57143 18 9.1872 18 8.71429C18 8.24137 17.5517 7.85714 17 7.85714C15.3457 7.85714 14 6.70366 14 5.28571C14 4.16971 14.8385 3.2272 16 2.87217V1.85714C16 1.38337 16.4473 1 17 1C17.5527 1 18 1.38337 18 1.85714V2.87217C19.1615 3.22714 20 4.16971 20 5.28571C20 5.75949 19.5527 6.14286 19 6.14286C18.4473 6.14286 18 5.75949 18 5.28571C18 4.8128 17.5517 4.42857 17 4.42857C16.4483 4.42857 16 4.8128 16 5.28571C16 5.75863 16.4483 6.14286 17 6.14286Z" fill="black"/>
</svg>
