<svg width="24" height="24" viewBox="0 0 24 24" fill="none" xmlns="http://www.w3.org/2000/svg">
<path d="M18.2429 3.70834C18.4661 3.57944 18.6547 3.40249 18.7965 3.19298C18.9707 2.93574 19.2724 2.74886 19.5725 2.82927L21.5526 3.35985C22.1928 3.53138 22.5727 4.18938 22.4011 4.82954L17.8459 21.8298C17.6744 22.47 17.0164 22.8499 16.3762 22.6784L14.3961 22.1478C14.096 22.0674 13.9281 21.7547 13.9059 21.4448C13.8878 21.1925 13.8131 20.945 13.6842 20.7217C13.4604 20.3341 13.0918 20.0513 12.6595 19.9354C12.2272 19.8196 11.7666 19.8802 11.379 20.104C11.1557 20.2329 10.9672 20.4099 10.8254 20.6194C10.6512 20.8766 10.3495 21.0635 10.0494 20.9831L8.06927 20.4525C7.42911 20.281 7.04921 19.623 7.22074 18.9828L11.776 1.98253C11.9475 1.34237 12.6055 0.962473 13.2456 1.134L15.2258 1.66458C15.5259 1.74499 15.6937 2.05769 15.7159 2.36755C15.734 2.61991 15.8088 2.86741 15.9377 3.09067C16.1615 3.47827 16.5301 3.76109 16.9624 3.87692C17.3947 3.99276 17.8553 3.93212 18.2429 3.70834Z" stroke="black" stroke-width="2"/>
<path d="M12.4297 9.19788L18.2252 10.7508" stroke="black" stroke-width="1.5" stroke-linecap="round" stroke-dasharray="1 2"/>
<path d="M4.97101 14.3654C5.15079 14.8104 5.79335 14.7711 5.91756 14.3075L6.21773 13.1873C6.33013 12.7678 6.30293 12.3231 6.14024 11.9204L3.51905 5.43274C3.47767 5.33032 3.52715 5.21376 3.62957 5.17238L5.30357 4.49604C5.55282 4.75553 5.85408 4.96491 6.19176 5.10825C6.84787 5.38675 7.58774 5.3932 8.24861 5.12619C8.3426 5.08822 8.41001 5.00556 8.43624 4.90764L9.41113 1.2693C9.48405 0.997172 9.21462 0.758802 8.95341 0.86434C8.10967 1.20523 7.9015 2.06721 7.92847 2.59958C7.93369 2.7026 7.91573 2.80634 7.8747 2.90302C7.80345 3.07086 7.66845 3.20352 7.49939 3.27183C7.33033 3.34013 7.14106 3.33848 6.97322 3.26723C6.87655 3.2262 6.79157 3.16404 6.72376 3.08631C6.37334 2.68463 5.62482 2.20918 4.78108 2.55007L2.88035 3.31801C1.7538 3.77317 1.20953 5.0554 1.66468 6.18195L4.97101 14.3654Z" fill="black"/>
</svg>
