<svg width="24" height="24" viewBox="0 0 24 24" fill="none" xmlns="http://www.w3.org/2000/svg">
<path d="M20.8068 16.6932C20.9891 16.8755 21.2088 17.0118 21.4478 17.0946C21.7414 17.1963 22 17.4393 22 17.75V19.8C22 20.4627 21.4627 21 20.8 21H3.2C2.53726 21 2 20.4627 2 19.8V17.75C2 17.4393 2.2586 17.1963 2.55216 17.0946C2.79123 17.0118 3.01095 16.8755 3.19324 16.6932C3.50971 16.3768 3.6875 15.9476 3.6875 15.5C3.6875 15.0524 3.50971 14.6232 3.19324 14.3068C3.01095 14.1245 2.79123 13.9882 2.55216 13.9054C2.2586 13.8037 2 13.5607 2 13.25V11.2C2 10.5373 2.53726 10 3.2 10H20.8C21.4627 10 22 10.5373 22 11.2V13.25C22 13.5607 21.7414 13.8037 21.4478 13.9054C21.2088 13.9882 20.9891 14.1245 20.8068 14.3068C20.4903 14.6232 20.3125 15.0524 20.3125 15.5C20.3125 15.9476 20.4903 16.3768 20.8068 16.6932Z" stroke="black" stroke-width="2"/>
<path d="M14 12.5V18.5" stroke="black" stroke-width="1.5" stroke-linecap="round" stroke-dasharray="1 2"/>
<path fill-rule="evenodd" clip-rule="evenodd" d="M2.51953 7.50001H7.85847L18.4738 3.21113C18.5762 3.16975 18.6928 3.21923 18.7342 3.32165L19.4105 4.99565C19.151 5.24489 18.9417 5.54616 18.7983 5.88384C18.5804 6.39727 18.529 6.96199 18.645 7.50001H20.882C20.772 7.42417 20.6856 7.31725 20.6347 7.19147C20.5664 7.02241 20.5681 6.83314 20.6393 6.6653C20.6804 6.56863 20.7425 6.48364 20.8202 6.41583C21.2219 6.06542 21.6974 5.3169 21.3565 4.47316L20.5885 2.57243C20.1334 1.44588 18.8512 0.901605 17.7246 1.35676L2.51953 7.50001Z" fill="black"/>
</svg>
