<svg width="24" height="24" viewBox="0 0 24 24" fill="none" xmlns="http://www.w3.org/2000/svg">
<path d="M20.8162 10.3732C21.0395 10.5021 21.287 10.5769 21.5394 10.595C21.8492 10.6172 22.1619 10.7851 22.2423 11.0851L22.7729 13.0653C22.9444 13.7055 22.5645 14.3635 21.9244 14.535L4.92409 19.0902C4.28393 19.2617 3.62593 18.8818 3.4544 18.2417L2.92382 16.2615C2.84341 15.9615 3.03029 15.6597 3.28753 15.4856C3.49703 15.3437 3.67399 15.1552 3.80289 14.9319C4.02667 14.5444 4.08731 14.0837 3.97147 13.6514C3.85564 13.2191 3.57282 12.8506 3.18522 12.6268C2.96196 12.4979 2.71446 12.4231 2.4621 12.405C2.15223 12.3828 1.83954 12.2149 1.75913 11.9149L1.22855 9.93472C1.05702 9.29456 1.43692 8.63655 2.07708 8.46502L19.0774 3.90981C19.7175 3.73828 20.3755 4.11818 20.5471 4.75833L21.0776 6.73848C21.1581 7.03856 20.9712 7.34028 20.7139 7.51445C20.5044 7.65629 20.3275 7.8448 20.1986 8.06807C19.9748 8.45566 19.9142 8.91627 20.03 9.34857C20.1458 9.78088 20.4286 10.1495 20.8162 10.3732Z" stroke="black" stroke-width="2"/>
<path d="M15.0898 7.56696L16.6428 13.3625" stroke="black" stroke-width="1.5" stroke-linecap="round" stroke-dasharray="1 2"/>
<path d="M11.3555 9.08521L7.81993 15.2089" stroke="black" stroke-linecap="round"/>
<circle cx="7.1379" cy="10.7328" r="1" transform="rotate(-15 7.1379 10.7328)" stroke="black"/>
<circle cx="12.0363" cy="13.5613" r="1" transform="rotate(-15 12.0363 13.5613)" stroke="black"/>
</svg>
