<svg width="24" height="25" viewBox="0 0 24 25" fill="none" xmlns="http://www.w3.org/2000/svg">
<g clip-path="url(#clip0_1771_8937)">
<path d="M21.159 12.0039C21.0518 12.5423 20.5741 12.9344 20.0015 12.9588C19.8212 12.9661 19.6676 13.0976 19.6335 13.2754C19.597 13.4532 19.6871 13.6335 19.8504 13.709C20.3694 13.9526 20.6594 14.4982 20.5497 15.0365L20.4474 15.5481C20.3134 16.2228 19.5677 16.6442 18.9146 16.4834C18.7319 16.4396 18.5443 16.4055 18.3591 16.3689C18.0861 16.3154 17.8132 16.2593 17.5403 16.2057C17.1796 16.1327 16.819 16.0621 16.4583 15.989C16.0295 15.9037 15.5981 15.816 15.1693 15.7308C14.6892 15.6333 14.2092 15.5383 13.7291 15.4409C13.2174 15.3386 12.7032 15.2363 12.1915 15.1316C11.6651 15.0268 11.1388 14.9196 10.6149 14.8149C10.0934 14.7102 9.57434 14.6054 9.05284 14.5007C8.55576 14.4008 8.05862 14.3009 7.56154 14.2011C7.10585 14.1109 6.65261 14.0184 6.19692 13.9283C5.80216 13.8503 5.40739 13.7699 5.01507 13.692C4.70072 13.6286 4.38637 13.5653 4.06958 13.502C3.85271 13.4581 3.63581 13.4143 3.41895 13.3705C3.31902 13.351 3.21914 13.3291 3.11923 13.3096C3.11435 13.3096 3.10948 13.3071 3.10458 13.3071C3.15819 13.5604 3.13382 13.8308 3.01686 14.0841C2.77071 14.6152 2.19806 14.8928 1.64737 14.7857C1.4841 14.754 1.30621 14.8149 1.23555 14.9659L1.01623 15.4409C0.945589 15.5919 1.01623 15.7673 1.14541 15.872C1.16978 15.8915 18.7343 23.9859 18.7635 23.9931C18.9268 24.0248 19.1047 23.9639 19.1754 23.8129L19.3947 23.3379C19.4653 23.1869 19.3947 23.0115 19.2655 22.9068C18.8269 22.5584 18.666 21.9422 18.9122 21.4112C19.1583 20.8802 19.731 20.6025 20.2817 20.7096C20.4449 20.7413 20.6228 20.6804 20.6935 20.5294L20.9128 20.0544C20.9835 19.9034 20.9128 19.728 20.7836 19.6233C20.345 19.2749 20.1842 18.6587 20.4303 18.1277C20.6764 17.5967 21.2491 17.319 21.7998 17.4262C21.9631 17.4578 22.1409 17.3969 22.2116 17.2459L22.4309 16.7709C22.5016 16.6199 22.4309 16.4445 22.3017 16.3398C21.8631 15.9914 21.7023 15.3752 21.9484 14.8442C22.1945 14.3131 22.7672 14.0355 23.3179 14.1426C23.4812 14.1743 23.659 14.1134 23.7297 13.9624L23.9709 13.4362C24.0416 13.2852 23.9758 13.1074 23.8247 13.0368L21.2003 11.8262L21.159 12.0039Z" fill="#333333"/>
<path d="M0.230531 11.8358C0.259772 11.8504 19.2206 15.6527 19.2523 15.6527C19.418 15.6454 19.5788 15.5431 19.6105 15.3824L19.7128 14.8708C19.7445 14.7076 19.6373 14.5517 19.4862 14.4811C18.9794 14.2424 18.6796 13.6821 18.7942 13.1073C18.9087 12.5324 19.4034 12.1305 19.9638 12.1061C20.1295 12.0988 20.2904 11.9965 20.3221 11.8358L20.3976 11.4606L20.4244 11.3218C20.4561 11.1586 20.3489 11.0027 20.1978 10.9321C19.6909 10.6934 19.3912 10.1331 19.5057 9.55827C19.6203 8.98339 20.1149 8.58148 20.6754 8.55712C20.8411 8.54981 21.0019 8.4475 21.0336 8.28674L21.136 7.77521C21.1676 7.61201 21.0604 7.45612 20.9093 7.38548C20.4025 7.14677 20.1027 6.58652 20.2173 6.01166C20.3318 5.4368 20.8265 5.03489 21.387 5.01053C21.5527 5.00322 21.7135 4.90092 21.7452 4.74015L21.8597 4.1726C21.8914 4.0094 21.7866 3.85107 21.6233 3.8194C21.6233 3.8194 2.5699 0 2.5504 0C2.40907 0 2.28479 0.0998696 2.25555 0.241149L2.14102 0.8087C2.10934 0.971902 2.21656 1.1278 2.36764 1.19843C2.8745 1.43715 3.17422 1.99739 3.05969 2.57225C2.94516 3.14711 2.45049 3.54902 1.89002 3.57338C1.7243 3.58069 1.56349 3.683 1.53181 3.84376L1.42947 4.35529C1.39779 4.51849 1.50501 4.67438 1.65609 4.74502C2.16295 4.98374 2.4627 5.54398 2.34815 6.11884C2.23361 6.6937 1.73894 7.09561 1.17848 7.11997C1.01277 7.12728 0.851942 7.22958 0.820264 7.39035L0.717918 7.90188C0.686239 8.06508 0.793483 8.22097 0.944541 8.29161C1.45142 8.53032 1.75115 9.09057 1.6366 9.66543C1.52207 10.2403 1.02739 10.6422 0.466926 10.6666C0.301223 10.6739 0.140393 10.7762 0.108714 10.937L0.00636823 11.4485C-0.0277715 11.6117 0.0794239 11.7651 0.230531 11.8358ZM16.4719 5.59272C16.5377 5.26388 16.8593 5.04953 17.1883 5.1153C17.5173 5.18106 17.7317 5.50259 17.6659 5.83143L16.8618 9.83109L16.3671 12.2962C16.3086 12.586 16.0552 12.7858 15.7701 12.7858C15.7311 12.7858 15.6897 12.7809 15.6507 12.7736C15.3217 12.7078 15.1073 12.3863 15.1731 12.0575L15.7262 9.30741L16.4719 5.59272ZM5.48674 3.38828C5.55253 3.05944 5.87419 2.84509 6.20316 2.91086C6.53213 2.97662 6.74657 3.29816 6.68077 3.627L6.40298 5.00812L6.08865 6.57437L5.83522 7.83613L5.38441 10.0917C5.32595 10.3816 5.0725 10.5814 4.78739 10.5814C4.74841 10.5814 4.70698 10.5765 4.66802 10.5692C4.65096 10.5667 4.6339 10.5618 4.61928 10.557C4.31711 10.4693 4.12946 10.1648 4.19284 9.85304L4.28297 9.39753L4.51935 8.21859L5.48674 3.38828Z" fill="#333333"/>
</g>
<defs>
<clipPath id="clip0_1771_8937">
<rect width="24" height="24.0012" fill="white"/>
</clipPath>
</defs>
</svg>
