<svg width="24" height="24" viewBox="0 0 24 24" fill="none" xmlns="http://www.w3.org/2000/svg">
<path d="M12 17L11 12H20L19 17H12Z" stroke="black" stroke-width="2" stroke-linejoin="round"/>
<circle cx="12" cy="22.5" r="1" fill="black"/>
<circle cx="19" cy="22.5" r="1" fill="black"/>
<path d="M19 17L20 20H11" stroke="black" stroke-width="1.5" stroke-linecap="round" stroke-linejoin="round"/>
<path d="M20 12L21 10H22" stroke="black" stroke-width="1.5" stroke-linecap="round" stroke-linejoin="round"/>
<path d="M14.1891 8.5L12.4428 1.98256C12.2713 1.3424 11.6133 0.962503 10.9731 1.13403L8.99295 1.66461C8.69288 1.74502 8.52502 2.05772 8.5028 2.36758C8.48471 2.61994 8.40994 2.86744 8.28104 3.09071C8.05726 3.4783 7.68868 3.76112 7.25638 3.87695C6.82407 3.99279 6.36346 3.93215 5.97587 3.70837C5.7526 3.57947 5.5641 3.40252 5.42225 3.19301C5.24808 2.93577 4.94636 2.74889 4.64629 2.8293L2.66614 3.35988C2.02598 3.53141 1.64608 4.18941 1.81761 4.82957L6.37283 21.8299C6.54436 22.47 7.20236 22.8499 7.84252 22.6784L8.52471 22.4956" stroke="black" stroke-width="2" stroke-linecap="round"/>
<path d="M11.5 8.19788L5.70444 9.75079" stroke="black" stroke-width="1.5" stroke-linecap="round" stroke-dasharray="1 2"/>
<path fill-rule="evenodd" clip-rule="evenodd" d="M22.2703 6.87461C22.1176 7.25256 21.7508 7.5 21.3431 7.5H20.1571C20.0153 7.5 19.9185 7.35654 19.9716 7.22508L20.6958 5.43274C20.7372 5.33032 20.6877 5.21376 20.5853 5.17238L18.9113 4.49604C18.662 4.75553 18.3608 4.96491 18.0231 5.10825C17.367 5.38675 16.6271 5.3932 15.9662 5.12619C15.8722 5.08822 15.8048 5.00556 15.7786 4.90764L14.8037 1.2693C14.7308 0.997173 15.0002 0.758802 15.2614 0.86434C16.1052 1.20523 16.3133 2.06721 16.2864 2.59958C16.2812 2.7026 16.2991 2.80634 16.3401 2.90302C16.4114 3.07086 16.5464 3.20352 16.7155 3.27183C16.8845 3.34013 17.0738 3.33848 17.2416 3.26723C17.3383 3.2262 17.4233 3.16404 17.4911 3.08631C17.8415 2.68463 18.59 2.20918 19.4338 2.55007L21.3345 3.31801C22.461 3.77317 23.0053 5.0554 22.5502 6.18195L22.2703 6.87461Z" fill="black"/>
</svg>
