<svg width="24" height="24" viewBox="0 0 24 24" fill="none" xmlns="http://www.w3.org/2000/svg">
<path d="M22.1 6.5C22.1 7.2181 21.4945 8.11049 19.9615 8.877C18.4823 9.61658 16.3759 10.1 14 10.1C11.6241 10.1 9.5177 9.61658 8.03853 8.877C6.50553 8.11049 5.9 7.2181 5.9 6.5C5.9 5.7819 6.50553 4.88951 8.03853 4.123C9.5177 3.38342 11.6241 2.9 14 2.9C16.3759 2.9 18.4823 3.38342 19.9615 4.123C21.4945 4.88951 22.1 5.7819 22.1 6.5Z" stroke="black" stroke-width="1.8"/>
<path d="M5.89844 6.5V10.2544C5.89844 10.7318 6.07929 11.1998 6.46447 11.4819C9.8891 13.9894 18.1078 13.9894 21.5324 11.4819C21.9176 11.1998 22.0984 10.7318 22.0984 10.2544V6.5" stroke="black" stroke-width="1.8"/>
<path fill-rule="evenodd" clip-rule="evenodd" d="M3.12668 11.5948C3.24878 11.5227 3.40002 11.6126 3.40002 11.7544C3.40002 12.2318 3.58088 12.6998 3.96605 12.9819C4.03901 13.0353 4.03381 13.1476 3.9566 13.1947C2.95582 13.8048 2.8 14.3307 2.8 14.5C2.8 14.6936 3.00369 15.3534 4.44102 16.072C5.77069 16.7368 7.73357 17.2 10 17.2C12.2664 17.2 14.2293 16.7368 15.559 16.072C15.6741 16.0145 15.7813 15.9573 15.8811 15.9007C15.9521 15.8604 16.0312 15.8363 16.1127 15.8318C16.6898 15.7999 17.2608 15.7429 17.8162 15.661C18.2202 15.6014 18.5151 15.9991 18.2458 16.3061C16.8542 17.8922 13.6859 19 10 19C5.02944 19 1 16.9853 1 14.5C1 13.3927 1.79995 12.3787 3.12668 11.5948Z" fill="black"/>
<path fill-rule="evenodd" clip-rule="evenodd" d="M19 16.2184C19 15.911 18.7253 15.6768 18.4203 15.7149C18.1725 15.7458 17.922 15.7718 17.6698 15.793C17.4061 15.8152 17.2 16.0332 17.2 16.2978V18.2544C17.2 18.5221 17.1 18.6841 17.0023 18.7557C15.516 19.844 12.8335 20.4625 9.99999 20.4625C7.16651 20.4625 4.48403 19.844 2.99772 18.7557C2.89996 18.6841 2.8 18.5221 2.8 18.2544V15C2.8 14.7239 2.57614 14.5 2.3 14.5H1.5C1.22386 14.5 1 14.7239 1 15V18.2544C1 18.9416 1.26174 19.7156 1.93434 20.208C3.87266 21.6273 7.01183 22.2625 9.99999 22.2625C12.9882 22.2625 16.1273 21.6273 18.0657 20.208C18.7383 19.7156 19 18.9416 19 18.2544V16.2184Z" fill="black"/>
</svg>
