<svg width="24" height="24" viewBox="0 0 24 24" fill="none" xmlns="http://www.w3.org/2000/svg">
<path d="M22.1 6.5C22.1 7.2181 21.4945 8.11049 19.9615 8.877C18.4823 9.61658 16.3759 10.1 14 10.1C11.6241 10.1 9.5177 9.61658 8.03853 8.877C6.50553 8.11049 5.9 7.2181 5.9 6.5C5.9 5.7819 6.50553 4.88951 8.03853 4.123C9.5177 3.38342 11.6241 2.9 14 2.9C16.3759 2.9 18.4823 3.38342 19.9615 4.123C21.4945 4.88951 22.1 5.7819 22.1 6.5Z" fill="#333333" stroke="#333333" stroke-width="1.8"/>
<path d="M5.89844 6.5V10.2544C5.89844 10.7318 6.07929 11.1998 6.46447 11.4819C9.8891 13.9894 18.1078 13.9894 21.5324 11.4819C21.9176 11.1998 22.0984 10.7318 22.0984 10.2544V6.5" stroke="#333333" stroke-width="1.8"/>
<path fill-rule="evenodd" clip-rule="evenodd" d="M2.30738 12.163C2.60239 11.9207 3.04034 12.1547 3.24651 12.476C3.29393 12.5499 3.34843 12.6197 3.41021 12.6843C6.41443 15.8263 12.9534 16.7352 18.0028 15.4112C18.3911 15.3094 18.7262 15.66 18.4958 15.9887C17.2667 17.7424 13.9271 19 10 19C5.02944 19 1 16.9853 1 14.5C1 13.6442 1.47783 12.8441 2.30738 12.163Z" fill="#333333"/>
<path fill-rule="evenodd" clip-rule="evenodd" d="M19 16.2184C19 15.911 18.7253 15.6768 18.4203 15.7149C18.1725 15.7458 17.922 15.7718 17.6698 15.793C17.4061 15.8152 17.2 16.0332 17.2 16.2978V18.2544C17.2 18.5221 17.1 18.6841 17.0023 18.7557C15.516 19.844 12.8335 20.4625 9.99999 20.4625C7.16651 20.4625 4.48403 19.844 2.99772 18.7557C2.89996 18.6841 2.8 18.5221 2.8 18.2544V15C2.8 14.7239 2.57614 14.5 2.3 14.5H1.5C1.22386 14.5 1 14.7239 1 15V18.2544C1 18.9416 1.26174 19.7156 1.93434 20.208C3.87266 21.6273 7.01183 22.2625 9.99999 22.2625C12.9882 22.2625 16.1273 21.6273 18.0657 20.208C18.7383 19.7156 19 18.9416 19 18.2544V16.2184Z" fill="#333333"/>
</svg>
