<svg width="24" height="24" viewBox="0 0 24 24" fill="none" xmlns="http://www.w3.org/2000/svg">
<path fill-rule="evenodd" clip-rule="evenodd" d="M10.6075 10.3105C10.3975 10.3933 10.5108 10.6508 10.7324 10.694C11.7457 10.8916 12.8481 11 14.0012 11C18.9718 11 23.0012 8.98528 23.0012 6.5C23.0012 4.01472 18.9718 2 14.0012 2C12.7614 2 11.5802 2.12534 10.5054 2.35207C10.2103 2.41432 10.0494 2.72877 10.1601 3.00932L10.3117 3.39377C10.3651 3.52908 10.4722 3.63618 10.6075 3.68954L11.2911 3.95918C11.3758 3.99258 11.468 4.00202 11.5579 3.98775C12.316 3.86742 13.1365 3.8 14.0012 3.8C16.2677 3.8 18.2305 4.26316 19.5602 4.92799C20.9975 5.64665 21.2012 6.30645 21.2012 6.5C21.2012 6.69355 20.9975 7.35335 19.5602 8.07201C18.2305 8.73684 16.2677 9.2 14.0012 9.2C13.8496 9.2 13.6993 9.19793 13.5504 9.19386C13.482 9.19199 13.4138 9.20365 13.3501 9.22877L10.6075 10.3105Z" fill="black"/>
<path fill-rule="evenodd" clip-rule="evenodd" d="M9.31631 13.1304C9.20719 13.407 9.36212 13.7178 9.65167 13.7857C11.0314 14.1094 12.5346 14.2625 14.0014 14.2625C16.9896 14.2625 20.1287 13.6273 22.0671 12.208C22.7397 11.7156 23.0014 10.9416 23.0014 10.2544V7C23.0014 6.72386 22.7775 6.5 22.5014 6.5H21.7014C21.4253 6.5 21.2014 6.72386 21.2014 7V10.2544C21.2014 10.5221 21.1014 10.6841 21.0037 10.7557C19.5174 11.844 16.8349 12.4625 14.0014 12.4625C12.6664 12.4625 11.365 12.3252 10.2064 12.0662C9.96004 12.0111 9.70722 12.1392 9.61462 12.374L9.31631 13.1304Z" fill="black"/>
<path fill-rule="evenodd" clip-rule="evenodd" d="M3.02789 11.6542C3.28163 11.499 3.60229 11.6349 3.81058 11.8472C3.85811 11.8957 3.90991 11.9408 3.96605 11.9819C4.12192 12.096 4.28771 12.2049 4.46252 12.3087C4.69384 12.4459 4.6816 12.8077 4.44102 12.928C3.00369 13.6467 2.8 14.3065 2.8 14.5C2.8 14.6936 3.00369 15.3533 4.44102 16.072C5.77069 16.7368 7.73357 17.2 10 17.2C12.2664 17.2 14.2293 16.7368 15.559 16.072C15.6741 16.0145 15.7813 15.9573 15.8811 15.9007C15.9521 15.8604 16.0312 15.8363 16.1127 15.8318C16.6898 15.7999 17.2608 15.7429 17.8162 15.661C18.2202 15.6014 18.5151 15.9991 18.2458 16.3061C16.8542 17.8922 13.6859 19 10 19C5.02944 19 1 16.9853 1 14.5C1 13.4204 1.76034 12.4296 3.02789 11.6542Z" fill="black"/>
<path fill-rule="evenodd" clip-rule="evenodd" d="M19 16.2184C19 15.911 18.7253 15.6768 18.4203 15.7149C18.1725 15.7458 17.922 15.7718 17.6698 15.793C17.4061 15.8152 17.2 16.0332 17.2 16.2978V18.2544C17.2 18.5221 17.1 18.6841 17.0023 18.7557C15.516 19.844 12.8335 20.4625 9.99999 20.4625C7.16651 20.4625 4.48403 19.844 2.99772 18.7557C2.89996 18.6841 2.8 18.5221 2.8 18.2544V15C2.8 14.7239 2.57614 14.5 2.3 14.5H1.5C1.22386 14.5 1 14.7239 1 15V18.2544C1 18.9416 1.26174 19.7156 1.93434 20.208C3.87266 21.6273 7.01183 22.2625 9.99999 22.2625C12.9882 22.2625 16.1273 21.6273 18.0657 20.208C18.7383 19.7156 19 18.9416 19 18.2544V16.2184Z" fill="black"/>
<path d="M6.51161 3.23833C6.6864 2.79515 7.3136 2.79515 7.48839 3.23833L8.33056 5.37367C8.38392 5.50898 8.49102 5.61608 8.62633 5.66944L10.7617 6.51161C11.2049 6.6864 11.2049 7.3136 10.7617 7.48839L8.62633 8.33056C8.49102 8.38392 8.38392 8.49102 8.33056 8.62633L7.48839 10.7617C7.3136 11.2049 6.6864 11.2049 6.51161 10.7617L5.66944 8.62633C5.61608 8.49102 5.50898 8.38392 5.37367 8.33056L3.23833 7.48839C2.79515 7.3136 2.79515 6.6864 3.23833 6.51161L5.37367 5.66944C5.50898 5.61608 5.61608 5.50898 5.66944 5.37367L6.51161 3.23833Z" stroke="black" stroke-width="1.5"/>
</svg>
