<svg width="1440" height="596" viewBox="0 0 1440 596" fill="none" xmlns="http://www.w3.org/2000/svg">
<g clip-path="url(#clip0)">
<path fill-rule="evenodd" clip-rule="evenodd" d="M1304.32 88.8086L1171.9 88.8086C1153.61 88.8086 1138.79 73.9863 1138.79 55.7021L999.745 55.7021C981.46 55.7021 966.638 40.8798 966.638 22.5956C966.638 18.8906 967.247 15.3277 968.369 12.0015L863.346 12.0015C845.062 12.0015 830.239 -2.82073 830.239 -21.1049C830.239 -39.3891 845.062 -54.2114 863.346 -54.2114H941.884C940.761 -57.5376 940.153 -61.1005 940.153 -64.8055C940.153 -83.0897 954.975 -97.912 973.259 -97.912L1105.69 -97.912C1123.97 -97.912 1138.79 -83.0897 1138.79 -64.8055C1138.79 -46.5213 1123.97 -31.699 1105.69 -31.699H1088.06C1089.19 -28.3728 1089.79 -24.81 1089.79 -21.1049C1089.79 -17.3999 1089.19 -13.8371 1088.06 -10.5109L1193.09 -10.5109C1211.37 -10.5109 1226.19 4.31141 1226.19 22.5956L1304.32 22.5956C1322.61 22.5956 1337.43 37.4179 1337.43 55.7021C1337.43 73.9863 1322.61 88.8086 1304.32 88.8086Z" fill="white"/>
<path fill-rule="evenodd" clip-rule="evenodd" d="M165.582 136.501C165.582 152.581 178.617 165.616 194.696 165.616H271.558C287.637 165.616 300.672 152.581 300.672 136.501C300.672 120.422 287.637 107.387 271.558 107.387H228.111C229.098 104.462 229.633 101.329 229.633 98.0707C229.633 81.9914 216.598 68.9565 200.519 68.9565L95.3372 68.9565C95.5812 67.4397 95.7079 65.8838 95.7079 64.2982C95.7079 61.04 95.1727 57.9067 94.1853 54.9816L277.381 54.9816C293.46 54.9816 306.495 41.9468 306.495 25.8674C306.495 9.78806 293.46 -3.24683 277.381 -3.24683L263.406 -3.2468C263.406 -19.3262 250.371 -32.361 234.291 -32.361L96.8723 -32.361C80.793 -32.361 67.7581 -19.3262 67.7581 -3.2468L57.277 -3.24683C54.4229 -3.24683 51.6646 -2.83612 49.0581 -2.07057C44.1141 -11.0993 34.5243 -17.2216 23.5045 -17.2216L-175.637 -17.2216C-191.716 -17.2216 -204.751 -4.18678 -204.751 11.8926C-204.751 27.9719 -191.716 41.0068 -175.637 41.0068H-109.259C-116.329 46.3186 -120.902 54.7744 -120.902 64.2982L-151.181 64.2982C-167.26 64.2982 -180.295 77.3331 -180.295 93.4125C-180.295 109.492 -167.26 122.527 -151.181 122.527H-74.3192C-58.2399 122.527 -45.205 109.492 -45.205 93.4125L13.3941 93.4125C13.1502 94.9292 13.0234 96.4852 13.0234 98.0707C13.0234 114.15 26.0583 127.185 42.1376 127.185L167.104 127.185C166.117 130.11 165.582 133.243 165.582 136.501Z" fill="white"/>
<path fill-rule="evenodd" clip-rule="evenodd" d="M473.603 36.5006L532.288 36.5006C533.744 36.2831 535.234 36.1705 536.751 36.1705C553.298 36.1705 566.712 49.5844 566.712 66.1314C566.712 82.6233 553.387 96.003 536.916 96.0918V96.0923H536.751L387.657 96.0923C386.604 96.2043 385.535 96.2617 384.452 96.2617C367.905 96.2617 354.491 82.8478 354.491 66.3008C354.491 61.5704 355.587 57.0961 357.54 53.118L311.347 53.118C311.347 69.6649 297.933 83.0789 281.386 83.0789L78.8507 83.0789C62.3037 83.0789 48.8897 69.6649 48.8897 53.118C48.8897 36.571 62.3037 23.1571 78.8507 23.1571L181.916 23.1571C181.916 18.896 182.806 14.8427 184.409 11.1727L124.391 11.1727C107.844 11.1727 94.4302 -2.24124 94.4302 -18.7882C94.4302 -35.3351 107.844 -48.7491 124.391 -48.7491H251.425H251.426C267.973 -48.7489 281.386 -35.335 281.386 -18.7882C281.386 -14.5271 280.497 -10.4738 278.893 -6.80379L327.023 -6.80379C325.42 -10.4738 324.53 -14.5271 324.53 -18.7882C324.53 -35.2272 337.77 -48.574 354.168 -48.7474V-48.9141L412.016 -48.9141C412.105 -65.3851 425.485 -78.71 441.977 -78.71L674.473 -78.71H674.474C691.021 -78.71 704.435 -65.2961 704.435 -48.7491C704.435 -32.2021 691.021 -18.7882 674.474 -18.7882H674.473L671.986 -18.7882C671.986 -2.96617 659.721 9.99135 644.181 11.0963V11.3397L474.311 11.3397C475.869 14.9655 476.731 18.9606 476.731 23.1571C476.731 27.9513 475.605 32.4825 473.603 36.5006Z" fill="white"/>
<path fill-rule="evenodd" clip-rule="evenodd" d="M628.418 102.019C615.61 102.019 605.227 112.402 605.227 125.21C605.227 138.018 615.61 148.4 628.418 148.4L808.376 148.4C821.184 148.4 831.567 138.018 831.567 125.21L947.52 125.21C960.327 125.21 970.71 114.827 970.71 102.019C970.71 96.3735 968.693 91.199 965.339 87.1773L1059.76 87.1773C1059.76 99.6744 1069.65 109.863 1082.02 110.35V110.368H1082.95L1187.77 110.368H1187.77C1200.58 110.368 1210.96 99.985 1210.96 87.1773C1210.96 74.3696 1200.58 63.9868 1187.77 63.9868H1187.77L1143.25 63.9868C1143.25 51.179 1132.86 40.7962 1120.06 40.7962H1120.06L996.69 40.7962C997.289 38.7358 997.611 36.557 997.611 34.303C997.611 21.4952 987.228 11.1125 974.42 11.1125L907.632 11.1124C907.632 8.16931 907.084 5.35428 906.084 2.76385H990.19C990.19 2.76385 990.19 2.76385 990.19 2.76385C1003 2.76385 1013.38 -7.6189 1013.38 -20.4267C1013.38 -33.2345 1003 -43.6172 990.19 -43.6172C990.19 -43.6172 990.19 -43.6172 990.19 -43.6172L848.264 -43.6172C848.264 -43.6172 848.264 -43.6172 848.264 -43.6172C835.456 -43.617 825.074 -33.2343 825.074 -20.4267C825.074 -17.4836 825.622 -14.6686 826.622 -12.0782H667.378C654.57 -12.0782 644.187 -1.69539 644.187 11.1124C644.187 23.9202 654.57 34.3029 667.378 34.3029L771.271 34.303C771.271 47.1108 781.654 57.4935 794.462 57.4935L868.665 57.4935C868.066 59.5539 867.744 61.7328 867.744 63.9868C867.744 69.6325 869.762 74.807 873.115 78.8287L718.397 78.8287C705.589 78.8287 695.207 89.2115 695.207 102.019L628.418 102.019Z" fill="white"/>
<path fill-rule="evenodd" clip-rule="evenodd" d="M1044.11 297.379L1044.11 297.379C1053.25 297.379 1060.66 304.79 1060.66 313.933C1060.66 323.075 1053.25 330.486 1044.11 330.486L1044.09 330.486H977.894C968.752 330.486 961.341 323.075 961.341 313.933L891.818 313.933C882.675 313.933 875.264 306.521 875.264 297.379C875.264 295.527 875.569 293.745 876.13 292.082H823.618C814.476 292.082 807.065 284.671 807.065 275.529C807.065 266.387 814.476 258.976 823.618 258.976H862.887C862.326 257.313 862.022 255.531 862.022 253.679C862.022 244.537 869.433 237.126 878.575 237.126L944.788 237.126H944.788C953.93 237.126 961.341 244.537 961.341 253.679C961.341 262.821 953.93 270.232 944.788 270.232H944.788H935.977C936.538 271.895 936.842 273.677 936.842 275.529C936.842 277.382 936.538 279.163 935.977 280.826H988.488C988.489 280.826 988.489 280.826 988.489 280.826C997.631 280.826 1005.04 288.237 1005.04 297.379L1044.11 297.379Z" fill="white"/>
<path fill-rule="evenodd" clip-rule="evenodd" d="M1115.09 76.0546C1115.09 93.3378 1129.1 107.349 1146.38 107.349L1367.95 107.349C1385.23 107.349 1399.24 93.3378 1399.24 76.0546C1399.24 74.3503 1399.1 72.6778 1398.84 71.0475L1508.14 71.0475C1523.72 71.0475 1536.64 59.6636 1539.04 44.7604L1612.04 44.7604C1629.32 44.7604 1643.33 30.7496 1643.33 13.4663C1643.33 -3.81689 1629.32 -17.8277 1612.04 -17.8277L1535.6 -17.8277C1538.05 -22.2865 1539.44 -27.4054 1539.44 -32.8489C1539.44 -50.1321 1525.43 -64.143 1508.14 -64.143H1341.66C1326.08 -64.143 1313.16 -52.7591 1310.76 -37.856L1226.5 -37.856C1209.21 -37.856 1195.2 -23.8451 1195.2 -6.56188C1195.2 10.7214 1209.21 24.7322 1226.5 24.7322L1290.42 24.7322C1287.97 29.191 1286.58 34.3099 1286.58 39.7534C1286.58 41.4577 1286.72 43.1301 1286.98 44.7605L1146.38 44.7605C1129.1 44.7605 1115.09 58.7713 1115.09 76.0546Z" fill="white"/>
<path fill-rule="evenodd" clip-rule="evenodd" d="M1886.27 -3.88965C1901.3 -3.88965 1913.48 8.29304 1913.48 23.3212C1913.48 38.3493 1901.3 50.532 1886.27 50.532L1705.52 50.532C1707.65 54.4089 1708.86 58.8599 1708.86 63.5932L1798.11 63.5931C1813.14 63.5931 1825.32 75.7758 1825.32 90.8039C1825.32 105.832 1813.14 118.015 1798.11 118.015H1752.76C1753.93 121.054 1754.57 124.357 1754.57 127.811C1754.57 142.839 1742.39 155.021 1727.36 155.021H1561.92C1546.89 155.021 1534.71 142.839 1534.71 127.811C1534.71 112.782 1546.89 100.6 1561.92 100.6L1652.99 100.6C1651.81 97.5603 1651.17 94.2572 1651.17 90.8039L1460.7 90.804C1445.67 90.804 1433.48 78.6213 1433.48 63.5932C1433.48 48.5651 1445.67 36.3824 1460.7 36.3824L1563.08 36.3824C1560.95 32.5054 1559.74 28.0544 1559.74 23.3212C1559.74 8.29304 1571.93 -3.88965 1586.95 -3.88965L1886.27 -3.88965Z" fill="white"/>
<path fill-rule="evenodd" clip-rule="evenodd" d="M-95.418 302.015C-95.418 311.157 -88.0068 318.568 -78.8647 318.568L25.0896 318.568C34.2317 318.568 41.6429 311.157 41.6429 302.015C41.6429 292.873 34.2317 285.461 25.0896 285.461H-40.9042C-40.1904 283.612 -39.7991 281.603 -39.7991 279.502C-39.7991 277.401 -40.1904 275.392 -40.9042 273.543H31.7111C37.9738 273.543 43.4241 270.065 46.2362 264.935H184.001C193.143 264.935 200.554 257.524 200.554 248.382C200.554 239.24 193.143 231.829 184.001 231.829L95.9377 231.829C95.9377 222.687 88.5266 215.276 79.3845 215.276L7.21236 215.276C7.21236 206.134 -0.198792 198.722 -9.3409 198.722L-133.159 198.722C-142.301 198.722 -149.712 206.134 -149.712 215.276C-149.712 216.645 -149.546 217.976 -149.233 219.248H-188.116C-197.258 219.248 -204.669 226.66 -204.669 235.802C-204.669 244.944 -197.258 252.355 -188.116 252.355H-131.835C-122.693 252.355 -115.282 244.944 -115.282 235.802C-115.282 234.432 -115.448 233.102 -115.762 231.829L-60.987 231.829C-60.987 234.982 -60.1056 237.928 -58.5758 240.437L-92.1072 240.437C-101.249 240.437 -108.66 247.848 -108.66 256.99C-108.66 259.091 -108.269 261.1 -107.555 262.949H-170.239C-179.381 262.949 -186.792 270.36 -186.792 279.502C-186.792 288.644 -179.381 296.055 -170.239 296.055H-94.3129C-95.0266 297.905 -95.418 299.914 -95.418 302.015Z" fill="white"/>
</g>
<defs>
<clipPath id="clip0">
<rect width="2860.4" height="596" fill="white" transform="translate(2130 596) rotate(-180)"/>
</clipPath>
</defs>
</svg>
