<svg width="24" height="24" viewBox="0 0 24 24" fill="none" xmlns="http://www.w3.org/2000/svg">
<path d="M11.4286 22H3.04762C2.46904 22 2 21.531 2 20.9524V15.7143C2 15.1357 2.46904 14.6667 3.04762 14.6667H4.09524H11.4286C11.7179 14.6667 11.9524 14.9012 11.9524 15.1905V16.2381C11.9524 16.5274 11.7179 16.7619 11.4286 16.7619H9.07143C8.20355 16.7619 7.5 17.4654 7.5 18.3333C7.5 19.2012 8.20355 19.9048 9.07143 19.9048H11.4286C11.7179 19.9048 11.9524 20.1393 11.9524 20.4286V21.4762C11.9524 21.7655 11.7179 22 11.4286 22Z" fill="#333333"/>
<path d="M9.59824 11.9158L6.0649 13.6825C5.96602 13.7319 6.0012 13.881 6.11175 13.881H10.493C10.5661 13.881 10.6168 13.8079 10.5911 13.7394L9.96059 12.0581C9.906 11.9125 9.73731 11.8463 9.59824 11.9158Z" fill="#333333"/>
<path d="M4.31025 11.2508L3.85449 13.7574C3.84279 13.8218 3.8922 13.881 3.95756 13.881H4.03211C4.07277 13.881 4.11287 13.8715 4.14924 13.8533L7.61583 12.12C7.70455 12.0756 7.7606 11.985 7.7606 11.8858V11.7485C7.7606 11.6192 7.66629 11.5093 7.53852 11.4896L4.60775 11.0388C4.46753 11.0172 4.33563 11.1112 4.31025 11.2508Z" fill="#333333"/>
<path d="M12.2137 17.5476H9.07087C8.63693 17.5476 8.28516 17.8994 8.28516 18.3333C8.28516 18.7673 8.63693 19.119 9.07087 19.119H12.2137C12.3584 19.119 12.4756 19.0018 12.4756 18.8571V17.8095C12.4756 17.6649 12.3584 17.5476 12.2137 17.5476Z" fill="#333333"/>
<path d="M21.3633 4.82843L2.99931 4.82845M2.99931 4.82845L5.82775 7.65686M2.99931 4.82845L5.82774 2.00003" stroke="#333333" stroke-width="2" stroke-linecap="round" stroke-linejoin="round"/>
<path d="M14 11.8284L21.364 11.8285M21.364 11.8285L18.5355 14.6569M21.364 11.8285L18.5355 9.00003" stroke="#333333" stroke-width="2" stroke-linecap="round" stroke-linejoin="round"/>
</svg>
