<svg width="24" height="24" viewBox="0 0 24 24" fill="none" xmlns="http://www.w3.org/2000/svg">
<path d="M15.5 9V5C15.5 3.89543 14.6046 3 13.5 3H4C2.89543 3 2 3.89543 2 5V19C2 20.1046 2.89502 21 3.99959 21C5.11775 21 6.40338 21 7 21" stroke="black" stroke-width="2" stroke-linecap="round"/>
<path d="M5.5 8H12" stroke="black" stroke-width="2" stroke-linecap="round"/>
<path d="M5.5 12H7" stroke="black" stroke-width="2" stroke-linecap="round"/>
<path d="M5.5 16H7" stroke="black" stroke-width="2" stroke-linecap="round"/>
<path d="M21 13H12C11.4477 13 11 13.4477 11 14V20C11 20.5523 11.4477 21 12 21H21C21.5523 21 22 20.5523 22 20V14C22 13.4477 21.5523 13 21 13Z" stroke="black" stroke-width="2" stroke-linecap="round" stroke-linejoin="round"/>
<path d="M11 16L22 16" stroke="black" stroke-width="1.5" stroke-linecap="round" stroke-linejoin="round"/>
</svg>
