<svg width="24" height="25" viewBox="0 0 24 25" fill="none" xmlns="http://www.w3.org/2000/svg">
<rect x="4.5" y="4.50122" width="15" height="1" rx="0.5" fill="#333333" stroke="#333333"/>
<mask id="path-2-inside-1_1771_8732" fill="white">
<path fill-rule="evenodd" clip-rule="evenodd" d="M18.5 7.00122H5.5V21.0012C5.5 22.1058 6.39543 23.0012 7.5 23.0012H16.5C17.6046 23.0012 18.5 22.1058 18.5 21.0012V7.00122ZM7.25 20.2512C7.25 20.6654 7.58579 21.0012 8 21.0012C8.41421 21.0012 8.75 20.6654 8.75 20.2512V9.75122C8.75 9.33701 8.41421 9.00122 8 9.00122C7.58579 9.00122 7.25 9.33701 7.25 9.75122V20.2512ZM12 21.0012C11.5858 21.0012 11.25 20.6654 11.25 20.2512V9.75122C11.25 9.33701 11.5858 9.00122 12 9.00122C12.4142 9.00122 12.75 9.33701 12.75 9.75122V20.2512C12.75 20.6654 12.4142 21.0012 12 21.0012ZM15.25 20.2512C15.25 20.6654 15.5858 21.0012 16 21.0012C16.4142 21.0012 16.75 20.6654 16.75 20.2512V9.75122C16.75 9.33701 16.4142 9.00122 16 9.00122C15.5858 9.00122 15.25 9.33701 15.25 9.75122V20.2512Z"/>
</mask>
<path fill-rule="evenodd" clip-rule="evenodd" d="M18.5 7.00122H5.5V21.0012C5.5 22.1058 6.39543 23.0012 7.5 23.0012H16.5C17.6046 23.0012 18.5 22.1058 18.5 21.0012V7.00122ZM7.25 20.2512C7.25 20.6654 7.58579 21.0012 8 21.0012C8.41421 21.0012 8.75 20.6654 8.75 20.2512V9.75122C8.75 9.33701 8.41421 9.00122 8 9.00122C7.58579 9.00122 7.25 9.33701 7.25 9.75122V20.2512ZM12 21.0012C11.5858 21.0012 11.25 20.6654 11.25 20.2512V9.75122C11.25 9.33701 11.5858 9.00122 12 9.00122C12.4142 9.00122 12.75 9.33701 12.75 9.75122V20.2512C12.75 20.6654 12.4142 21.0012 12 21.0012ZM15.25 20.2512C15.25 20.6654 15.5858 21.0012 16 21.0012C16.4142 21.0012 16.75 20.6654 16.75 20.2512V9.75122C16.75 9.33701 16.4142 9.00122 16 9.00122C15.5858 9.00122 15.25 9.33701 15.25 9.75122V20.2512Z" fill="#333333"/>
<path d="M5.5 7.00122V6.00122H4.5V7.00122H5.5ZM18.5 7.00122H19.5V6.00122H18.5V7.00122ZM5.5 8.00122H18.5V6.00122H5.5V8.00122ZM6.5 21.0012V7.00122H4.5V21.0012H6.5ZM7.5 22.0012C6.94772 22.0012 6.5 21.5535 6.5 21.0012H4.5C4.5 22.6581 5.84315 24.0012 7.5 24.0012V22.0012ZM16.5 22.0012H7.5V24.0012H16.5V22.0012ZM17.5 21.0012C17.5 21.5535 17.0523 22.0012 16.5 22.0012V24.0012C18.1569 24.0012 19.5 22.6581 19.5 21.0012H17.5ZM17.5 7.00122V21.0012H19.5V7.00122H17.5ZM8 20.0012C8.13807 20.0012 8.25 20.1131 8.25 20.2512H6.25C6.25 21.2177 7.0335 22.0012 8 22.0012V20.0012ZM7.75 20.2512C7.75 20.1131 7.86193 20.0012 8 20.0012V22.0012C8.9665 22.0012 9.75 21.2177 9.75 20.2512H7.75ZM7.75 9.75122V20.2512H9.75V9.75122H7.75ZM8 10.0012C7.86193 10.0012 7.75 9.88929 7.75 9.75122H9.75C9.75 8.78472 8.9665 8.00122 8 8.00122V10.0012ZM8.25 9.75122C8.25 9.88929 8.13807 10.0012 8 10.0012V8.00122C7.0335 8.00122 6.25 8.78472 6.25 9.75122H8.25ZM8.25 20.2512V9.75122H6.25V20.2512H8.25ZM10.25 20.2512C10.25 21.2177 11.0335 22.0012 12 22.0012V20.0012C12.1381 20.0012 12.25 20.1131 12.25 20.2512H10.25ZM10.25 9.75122V20.2512H12.25V9.75122H10.25ZM12 8.00122C11.0335 8.00122 10.25 8.78472 10.25 9.75122H12.25C12.25 9.88929 12.1381 10.0012 12 10.0012V8.00122ZM13.75 9.75122C13.75 8.78472 12.9665 8.00122 12 8.00122V10.0012C11.8619 10.0012 11.75 9.88929 11.75 9.75122H13.75ZM13.75 20.2512V9.75122H11.75V20.2512H13.75ZM12 22.0012C12.9665 22.0012 13.75 21.2177 13.75 20.2512H11.75C11.75 20.1131 11.8619 20.0012 12 20.0012V22.0012ZM16 20.0012C16.1381 20.0012 16.25 20.1131 16.25 20.2512H14.25C14.25 21.2177 15.0335 22.0012 16 22.0012V20.0012ZM15.75 20.2512C15.75 20.1131 15.8619 20.0012 16 20.0012V22.0012C16.9665 22.0012 17.75 21.2177 17.75 20.2512H15.75ZM15.75 9.75122V20.2512H17.75V9.75122H15.75ZM16 10.0012C15.8619 10.0012 15.75 9.88929 15.75 9.75122H17.75C17.75 8.78472 16.9665 8.00122 16 8.00122V10.0012ZM16.25 9.75122C16.25 9.88929 16.1381 10.0012 16 10.0012V8.00122C15.0335 8.00122 14.25 8.78472 14.25 9.75122H16.25ZM16.25 20.2512V9.75122H14.25V20.2512H16.25Z" fill="#333333" mask="url(#path-2-inside-1_1771_8732)"/>
<path d="M9 4.00122V3.00122C9 2.44894 9.44772 2.00122 10 2.00122H14C14.5523 2.00122 15 2.44894 15 3.00122V4.00122" stroke="#333333" stroke-width="2"/>
</svg>
