<svg width="5997" height="932" viewBox="0 0 5997 932" fill="none" xmlns="http://www.w3.org/2000/svg">
<path fill-rule="evenodd" clip-rule="evenodd" d="M1852.18 20.4287C1859.71 20.4287 1865.8 26.5286 1865.8 34.0531C1865.8 41.5776 1859.71 47.6775 1852.18 47.6775H1838.75C1840.01 49.7418 1840.74 52.1672 1840.74 54.7621L1879.43 54.7621C1886.95 54.7621 1893.05 60.8619 1893.05 68.3865C1893.05 75.911 1886.95 82.0109 1879.43 82.0109H1812.4C1804.87 82.0109 1798.77 75.911 1798.77 68.3865L1738.01 68.3865C1736.75 74.6053 1731.25 79.2861 1724.66 79.2861H1657.62C1650.1 79.2861 1644 73.1862 1644 65.6617C1644 58.1371 1650.1 52.0373 1657.62 52.0373H1711.85C1713.11 45.8184 1718.61 41.1377 1725.2 41.1377H1773.51C1772.25 39.0734 1771.52 36.648 1771.52 34.0531C1771.52 26.5286 1777.62 20.4287 1785.15 20.4287H1852.18Z" fill="white"/>
<path fill-rule="evenodd" clip-rule="evenodd" d="M2749.21 126.699C2756.74 126.699 2762.84 132.799 2762.84 140.323L2779.73 140.323C2787.26 140.323 2793.36 146.423 2793.36 153.948C2793.36 161.472 2787.26 167.572 2779.73 167.572H2724.69C2717.16 167.572 2711.06 161.472 2711.06 153.948H2681.09C2681.09 160.772 2676.07 166.424 2669.53 167.417C2670.64 169.394 2671.28 171.678 2671.28 174.112L2763.38 174.112C2770.91 174.112 2777.01 180.211 2777.01 187.736C2777.01 195.261 2770.91 201.36 2763.38 201.36H2650.57C2643.05 201.36 2636.95 195.261 2636.95 187.736L2590.62 187.736C2583.1 187.736 2577 181.636 2577 174.112C2577 166.587 2583.1 160.487 2590.62 160.487H2609.73C2608.67 158.546 2608.06 156.317 2608.06 153.948C2608.06 146.423 2614.16 140.323 2621.69 140.323L2644.58 140.323C2644.58 132.799 2650.68 126.699 2658.2 126.699H2749.21Z" fill="white"/>
<path fill-rule="evenodd" clip-rule="evenodd" d="M2912.16 34.0527C2919.68 34.0527 2925.78 40.1526 2925.78 47.6771L2951.4 47.6771C2958.92 47.6771 2965.02 53.777 2965.02 61.3015L2972.65 61.3016C2980.18 61.3016 2986.28 67.4014 2986.28 74.9259C2986.28 82.4505 2980.18 88.5503 2972.65 88.5503H2911.62C2911.03 88.5503 2910.46 88.5139 2909.9 88.4431C2907.46 92.1205 2903.28 94.5451 2898.54 94.5451H2836.95C2829.43 94.5451 2823.33 88.4452 2823.33 80.9207L2806.98 80.9206C2799.46 80.9206 2793.36 74.8208 2793.36 67.2963C2793.36 59.7717 2799.46 53.6719 2806.98 53.6719H2838.34C2837.45 51.8629 2836.95 49.8282 2836.95 47.6771C2836.95 40.1526 2843.05 34.0527 2850.58 34.0527H2912.16Z" fill="white"/>
<path fill-rule="evenodd" clip-rule="evenodd" d="M1286.43 56.9421C1293.96 56.9421 1300.06 50.8423 1300.06 43.3177C1300.06 35.7932 1293.96 29.6934 1286.43 29.6934H1180.71H1180.71C1173.18 29.6934 1167.08 35.7932 1167.08 43.3177L1098.96 43.3178H1098.96C1091.44 43.3179 1085.34 49.4177 1085.34 56.9422C1085.34 60.259 1086.52 63.299 1088.49 65.6617L1033.02 65.6617C1033.02 58.3197 1027.21 52.3341 1019.94 52.048V52.0373H1019.39H957.811H957.811C950.286 52.0373 944.187 58.1371 944.187 65.6617C944.187 73.1862 950.286 79.2861 957.811 79.2861H957.811L983.97 79.2861C983.97 86.8106 990.07 92.9105 997.594 92.9105H997.594H1070.07C1069.72 94.121 1069.53 95.4011 1069.53 96.7253C1069.53 104.25 1075.63 110.35 1083.16 110.35H1083.16L1122.39 110.35C1122.39 112.079 1122.72 113.733 1123.3 115.254H1073.89C1073.89 115.254 1073.89 115.254 1073.89 115.254C1066.37 115.254 1060.27 121.354 1060.27 128.879C1060.27 136.403 1066.37 142.503 1073.89 142.503C1073.89 142.503 1073.89 142.503 1073.89 142.503H1157.27C1157.27 142.503 1157.27 142.503 1157.27 142.503C1164.8 142.503 1170.9 136.403 1170.9 128.879C1170.9 127.15 1170.57 125.496 1169.99 123.974H1263.54H1263.54C1271.07 123.974 1277.17 117.874 1277.17 110.35C1277.17 102.825 1271.07 96.7256 1263.54 96.7254H1263.54L1202.5 96.7253C1202.5 89.2008 1196.4 83.101 1188.88 83.101H1145.29C1145.64 81.8904 1145.83 80.6103 1145.83 79.2861C1145.83 75.9693 1144.64 72.9293 1142.67 70.5665H1233.57C1241.09 70.5665 1247.19 64.4667 1247.19 56.9422L1286.43 56.9421Z" fill="white"/>
<path fill-rule="evenodd" clip-rule="evenodd" d="M1455.7 173.593H1394.36C1394.36 173.593 1394.36 173.593 1394.36 173.593C1386.84 173.593 1380.74 167.493 1380.74 159.969C1380.74 152.444 1386.84 146.344 1394.36 146.344C1394.36 146.344 1394.36 146.344 1394.36 146.344H1496.27H1496.82V146.355C1504.09 146.641 1509.9 152.627 1509.9 159.969C1509.9 162.12 1509.4 164.154 1508.51 165.963L1529.52 165.963C1529.52 158.439 1535.62 152.339 1543.14 152.339H1635.24C1642.77 152.339 1648.87 158.439 1648.87 165.963C1648.87 173.488 1642.77 179.588 1635.24 179.588L1588.37 179.588C1588.37 181.525 1587.97 183.369 1587.24 185.038H1614.53C1622.06 185.038 1628.16 191.137 1628.16 198.662C1628.16 206.187 1622.06 212.286 1614.53 212.286H1556.77H1556.77C1549.24 212.286 1543.14 206.187 1543.14 198.662C1543.14 196.724 1543.55 194.881 1544.27 193.212H1522.39C1523.12 194.881 1523.52 196.724 1523.52 198.662C1523.52 206.187 1517.42 212.286 1509.9 212.286H1509.9L1483.74 212.286C1483.74 219.811 1477.64 225.911 1470.11 225.911H1470.11H1364.39H1364.39C1356.86 225.911 1350.76 219.811 1350.76 212.286C1350.76 204.762 1356.86 198.662 1364.39 198.662H1364.39L1416.71 198.662C1416.71 191.137 1422.81 185.038 1430.33 185.038H1430.33H1455.44C1454.71 183.369 1454.31 181.525 1454.31 179.588C1454.31 177.437 1454.81 175.402 1455.7 173.593Z" fill="white"/>
<path fill-rule="evenodd" clip-rule="evenodd" d="M2185.78 335.425L2153.63 335.425C2153.63 342.949 2147.53 349.049 2140 349.049C2140 349.049 2140 349.049 2140 349.049H2096.78C2097.24 350.418 2097.49 351.884 2097.49 353.409C2097.49 354.933 2097.24 356.4 2096.78 357.769H2104.03H2104.03C2111.56 357.769 2117.66 363.868 2117.66 371.393C2117.66 378.917 2111.56 385.017 2104.03 385.017H2104.03H2049.54H2049.54C2042.01 385.017 2035.91 378.917 2035.91 371.393C2035.91 369.868 2036.16 368.402 2036.62 367.033H2004.3H2004.3C1996.78 367.033 1990.68 360.933 1990.68 353.409C1990.68 345.884 1996.78 339.785 2004.3 339.784H2004.3H2047.52C2047.06 338.416 2046.81 336.949 2046.81 335.425C2046.81 327.9 2052.91 321.8 2060.44 321.8C2060.44 321.8 2060.44 321.8 2060.44 321.8L2117.66 321.8C2117.66 314.276 2123.76 308.176 2131.28 308.176H2131.28H2185.78H2185.78C2193.31 308.176 2199.41 314.276 2199.41 321.8C2199.41 329.325 2193.31 335.425 2185.78 335.425H2185.78Z" fill="white"/>
<path fill-rule="evenodd" clip-rule="evenodd" d="M1645.32 271.663H1553.33H1553.33C1540.63 271.663 1530.33 281.959 1530.33 294.66C1530.33 294.66 1530.33 294.66 1530.33 294.66H1433.75C1421.04 294.66 1410.75 304.956 1410.75 317.657C1410.75 320.231 1411.17 322.706 1411.95 325.016H1339C1326.3 325.016 1316 335.312 1316 348.013C1316 360.714 1326.3 371.01 1339 371.01H1393.55C1392.77 373.321 1392.35 375.796 1392.35 378.369C1392.35 391.07 1402.65 401.366 1415.35 401.367H1415.35H1507.34C1520.04 401.367 1530.33 391.07 1530.33 378.369C1530.33 365.668 1520.04 355.372 1507.34 355.372H1507.34H1495.1C1495.88 353.062 1496.3 350.587 1496.3 348.013C1496.3 345.44 1495.88 342.965 1495.1 340.654H1568.05C1568.05 340.654 1568.05 340.654 1568.05 340.654C1580.75 340.654 1591.05 330.358 1591.05 317.657L1645.32 317.657C1658.02 317.657 1668.32 307.361 1668.32 294.66C1668.32 281.959 1658.02 271.663 1645.32 271.663Z" fill="white"/>
<path fill-rule="evenodd" clip-rule="evenodd" d="M195.83 48.767C195.83 41.2424 189.73 35.1426 182.206 35.1426H106.454C101.08 35.1426 96.4335 38.2533 94.2158 42.7723H13.808C6.28345 42.7723 0.183594 48.8721 0.183594 56.3967C0.183594 63.9212 6.28344 70.021 13.808 70.021H45.6895C46.9518 76.2399 52.4499 80.9207 59.0414 80.9207H170.761C170.761 83.5155 171.487 85.941 172.746 88.0053H140.788C133.263 88.0053 127.163 94.1051 127.163 101.63C127.163 103.154 127.414 104.621 127.876 105.989H45.9616C38.4371 105.989 32.3372 112.089 32.3372 119.614C32.3372 127.138 38.4371 133.238 45.9616 133.238H105.36C105.008 134.449 104.819 135.729 104.819 137.053C104.819 139.204 105.318 141.239 106.205 143.048H96.6445C89.1199 143.048 83.0201 149.147 83.0201 156.672C83.0201 164.197 89.1199 170.296 96.6444 170.296H148.962C156.487 170.296 162.586 164.197 162.586 156.672C162.586 154.521 162.088 152.486 161.2 150.677H188.741C190.391 156.345 195.624 160.487 201.825 160.487H269.402C276.926 160.487 283.026 154.387 283.026 146.863C283.026 139.338 276.926 133.238 269.402 133.238H218.178C216.528 127.57 211.295 123.429 205.095 123.429H179.484C179.837 122.218 180.026 120.938 180.026 119.614C180.026 118.089 179.775 116.623 179.313 115.254H233.978C241.503 115.254 247.603 109.154 247.603 101.63C247.603 99.0347 246.877 96.6092 245.618 94.5449H260.137C267.662 94.5449 273.761 88.445 273.761 80.9205C273.761 73.3959 267.662 67.2961 260.137 67.2961H232.344C232.343 59.7716 226.244 53.6719 218.719 53.6719H194.92C195.508 52.15 195.83 50.4961 195.83 48.767Z" fill="white"/>
<path fill-rule="evenodd" clip-rule="evenodd" d="M1071.21 258C1078.73 258 1084.83 264.1 1084.83 271.624C1084.83 279.149 1078.73 285.249 1071.21 285.249L1054.31 285.249C1054.31 287.4 1053.81 289.435 1052.93 291.244H1132.79C1140.31 291.244 1146.41 297.343 1146.41 304.868L1166.03 304.868C1173.56 304.868 1179.66 310.968 1179.66 318.492C1179.66 326.017 1173.56 332.117 1166.03 332.117H1138.07C1138.53 333.486 1138.78 334.952 1138.78 336.477C1138.78 344.001 1132.68 350.101 1125.16 350.101H1060.85C1053.33 350.101 1047.23 344.001 1047.23 336.477C1047.23 328.952 1053.33 322.852 1060.85 322.852H1098.62C1098.16 321.483 1097.91 320.017 1097.91 318.492H1029.79C1029.79 326.017 1023.69 332.117 1016.17 332.117H955.921C956.809 333.926 957.307 335.96 957.307 338.111H1005.27C1012.79 338.111 1018.89 344.211 1018.89 351.736C1018.89 352.669 1018.8 353.58 1018.62 354.461H1034.69C1042.22 354.461 1048.32 360.561 1048.32 368.085C1048.32 375.61 1042.22 381.709 1034.69 381.709H974.747C967.222 381.709 961.122 375.61 961.122 368.085C961.122 367.152 961.216 366.241 961.395 365.36H948.836C949.724 367.169 950.223 369.204 950.223 371.355C950.223 378.879 944.123 384.979 936.598 384.979H867.931C860.407 384.979 854.307 378.879 854.307 371.355C854.307 363.83 860.407 357.73 867.931 357.73H896.567C895.679 355.921 895.18 353.887 895.18 351.736H803.624C796.1 351.736 790 345.636 790 338.111C790 330.587 796.1 324.487 803.624 324.487H907.466C906.579 322.678 906.08 320.643 906.08 318.492C906.08 310.968 912.18 304.868 919.704 304.868L975.837 304.868C975.837 302.717 976.335 300.682 977.223 298.873H944.228C937.831 298.873 932.463 294.464 930.999 288.519L910.44 288.519C910.44 296.043 904.34 302.143 896.815 302.143H819.429C811.904 302.143 805.804 296.043 805.804 288.519C805.804 280.994 811.904 274.894 819.429 274.894L876.651 274.894C876.651 267.37 882.751 261.27 890.276 261.27H958.942C965.34 261.27 970.707 265.679 972.172 271.624L1003.63 271.624C1003.63 264.1 1009.73 258 1017.25 258H1071.21Z" fill="white"/>
<path fill-rule="evenodd" clip-rule="evenodd" d="M531.535 53.1273C531.535 45.6028 525.435 39.5029 517.911 39.5029H416C408.476 39.5029 402.376 45.6028 402.376 53.1273C402.376 60.6519 408.476 66.7517 416 66.7517L439.434 66.7517C439.434 69.1216 440.039 71.3502 441.103 73.2914H387.117C379.592 73.2914 373.492 79.3912 373.492 86.9158C373.492 94.4403 379.592 100.54 387.117 100.54H503.196C510.721 100.54 516.821 94.4403 516.821 86.9158C516.821 84.5459 516.216 82.3173 515.152 80.3761H568.048C575.573 80.3761 581.673 74.2763 581.673 66.7517C581.673 59.2272 575.573 53.1273 568.048 53.1273L531.535 53.1273Z" fill="white"/>
<path fill-rule="evenodd" clip-rule="evenodd" d="M808.382 100.54C815.906 100.54 822.006 106.64 822.006 114.164C822.006 121.689 815.906 127.789 808.382 127.789H717.881C718.946 129.73 719.551 131.959 719.551 134.328L764.239 134.329C771.763 134.329 777.863 140.428 777.863 147.953C777.863 155.477 771.763 161.577 764.239 161.577H741.53C742.118 163.099 742.44 164.753 742.44 166.482C742.44 174.007 736.34 180.107 728.815 180.107H645.979C638.455 180.107 632.355 174.007 632.355 166.482C632.355 158.958 638.455 152.858 645.979 152.858H691.577C690.989 151.336 690.667 149.682 690.667 147.953L595.296 147.953C587.772 147.953 581.672 141.853 581.672 134.328C581.672 126.804 587.772 120.704 595.296 120.704H646.558C645.494 118.763 644.889 116.534 644.889 114.164C644.889 106.64 650.989 100.54 658.514 100.54H808.382Z" fill="white"/>
<path fill-rule="evenodd" clip-rule="evenodd" d="M2354.7 46.0425C2362.22 46.0425 2368.32 52.1423 2368.32 59.6669C2368.32 67.1914 2362.22 73.2913 2354.7 73.2913H2335.26C2335.85 74.8131 2336.17 76.4669 2336.17 78.196C2336.17 85.7205 2330.07 91.8203 2322.55 91.8203H2200.62C2200.88 92.8679 2201.02 93.9631 2201.02 95.0903L2211.37 95.0903C2218.9 95.0903 2225 101.19 2225 108.715C2225 116.239 2218.9 122.339 2211.37 122.339H2190.91C2191.8 124.148 2192.3 126.183 2192.3 128.334C2192.3 135.858 2186.2 141.958 2178.67 141.958L2109.46 141.958C2109.46 149.483 2103.36 155.583 2095.84 155.583H2026.62C2019.1 155.583 2013 149.483 2013 141.958C2013 134.434 2019.1 128.334 2026.62 128.334L2043.52 128.334C2043.52 120.809 2049.62 114.709 2057.14 114.709H2135.92C2135.03 112.9 2134.53 110.866 2134.53 108.715L2120.36 108.715C2112.84 108.715 2106.74 102.615 2106.74 95.0903L2077.31 95.0903C2069.78 95.0903 2063.68 88.9904 2063.68 81.4659C2063.68 73.9413 2069.78 67.8415 2077.31 67.8415H2111.1C2118.62 67.8415 2124.72 73.9413 2124.72 81.4659L2160.54 81.4659C2160.28 80.4184 2160.14 79.3231 2160.14 78.196C2160.14 70.6714 2166.24 64.5716 2173.77 64.5716H2273.86C2273.28 63.0497 2272.95 61.3959 2272.95 59.6669C2272.95 52.1423 2279.05 46.0425 2286.58 46.0425H2354.7Z" fill="white"/>
<path fill-rule="evenodd" clip-rule="evenodd" d="M370.222 418.806C377.747 418.806 383.847 412.706 383.847 405.181C383.847 397.657 377.747 391.557 370.222 391.557H350.784C351.371 390.035 351.693 388.381 351.693 386.652C351.693 379.128 345.593 373.028 338.069 373.028H216.144C216.403 371.98 216.539 370.885 216.539 369.758L226.894 369.758C234.418 369.758 240.518 363.658 240.518 356.133C240.518 348.609 234.418 342.509 226.894 342.509H206.433C207.321 340.7 207.82 338.665 207.82 336.514C207.82 328.99 201.72 322.89 194.195 322.89H124.983C124.983 315.365 118.883 309.266 111.359 309.266H42.1468C34.6223 309.266 28.5225 315.365 28.5225 322.89C28.5225 330.414 34.6223 336.514 42.1468 336.514H59.0415C59.0415 344.039 65.1413 350.139 72.6659 350.139H151.439C150.551 351.948 150.052 353.982 150.052 356.133L135.883 356.133C128.358 356.133 122.259 362.233 122.259 369.758L92.8297 369.758C85.3051 369.758 79.2053 375.858 79.2053 383.382C79.2053 390.907 85.3051 397.007 92.8297 397.007H126.618C134.143 397.007 140.243 390.907 140.243 383.382L176.061 383.382C175.803 384.43 175.666 385.525 175.666 386.652C175.666 394.177 181.766 400.277 189.291 400.277H289.385C288.798 401.798 288.476 403.452 288.476 405.181C288.476 412.706 294.576 418.806 302.1 418.806H370.222Z" fill="white"/>
<path fill-rule="evenodd" clip-rule="evenodd" d="M2286.4 378.018C2293.16 378.018 2298.65 383.505 2298.65 390.273L2321.69 390.273C2328.46 390.273 2333.94 395.76 2333.94 402.528L2340.81 402.528C2347.58 402.528 2353.06 408.015 2353.06 414.783C2353.06 421.551 2347.58 427.038 2340.81 427.038H2285.9C2285.38 427.038 2284.87 427.005 2284.36 426.942C2282.16 430.249 2278.41 432.43 2274.14 432.43H2218.75C2211.98 432.43 2206.49 426.944 2206.49 420.175V420.175H2191.79C2185.02 420.175 2179.53 414.688 2179.53 407.92C2179.53 401.152 2185.02 395.665 2191.79 395.665H2219.99C2219.2 394.038 2218.75 392.208 2218.75 390.273C2218.75 383.505 2224.23 378.018 2231 378.018H2286.4Z" fill="white"/>
<path fill-rule="evenodd" clip-rule="evenodd" d="M4862.18 412.43C4869.71 412.43 4875.8 406.33 4875.8 398.806C4875.8 391.281 4869.71 385.181 4862.18 385.181H4848.75C4850.01 383.117 4850.74 380.692 4850.74 378.097L4889.43 378.097C4896.95 378.097 4903.05 371.997 4903.05 364.472C4903.05 356.948 4896.95 350.848 4889.43 350.848H4822.4C4814.87 350.848 4808.77 356.948 4808.77 364.472L4748.01 364.472C4746.75 358.254 4741.25 353.573 4734.66 353.573H4667.62C4660.1 353.573 4654 359.673 4654 367.197C4654 374.722 4660.1 380.822 4667.62 380.822H4721.85C4723.11 387.04 4728.61 391.721 4735.2 391.721H4783.51C4782.25 393.785 4781.52 396.211 4781.52 398.806C4781.52 406.33 4787.62 412.43 4795.15 412.43H4862.18Z" fill="white"/>
<path fill-rule="evenodd" clip-rule="evenodd" d="M5759.21 306.16C5766.74 306.16 5772.84 300.06 5772.84 292.536L5789.73 292.536C5797.26 292.536 5803.36 286.436 5803.36 278.911C5803.36 271.387 5797.26 265.287 5789.73 265.287H5734.69C5727.16 265.287 5721.06 271.387 5721.06 278.911H5691.09C5691.09 272.087 5686.07 266.434 5679.53 265.442C5680.64 263.465 5681.28 261.18 5681.28 258.747L5773.38 258.747C5780.91 258.747 5787.01 252.647 5787.01 245.123C5787.01 237.598 5780.91 231.499 5773.38 231.499H5660.57C5653.05 231.499 5646.95 237.598 5646.95 245.123L5600.62 245.123C5593.1 245.123 5587 251.223 5587 258.747C5587 266.272 5593.1 272.372 5600.62 272.372H5619.73C5618.67 274.313 5618.06 276.541 5618.06 278.911C5618.06 286.436 5624.16 292.536 5631.69 292.536L5654.58 292.536C5654.58 300.06 5660.68 306.16 5668.2 306.16H5759.21Z" fill="white"/>
<path fill-rule="evenodd" clip-rule="evenodd" d="M5922.16 398.806C5929.68 398.806 5935.78 392.706 5935.78 385.182L5961.4 385.182C5968.92 385.182 5975.02 379.082 5975.02 371.557L5982.65 371.557C5990.18 371.557 5996.28 365.457 5996.28 357.933C5996.28 350.408 5990.18 344.309 5982.65 344.309H5921.62C5921.03 344.309 5920.46 344.345 5919.9 344.416C5917.46 340.738 5913.28 338.314 5908.54 338.314H5846.95C5839.43 338.314 5833.33 344.414 5833.33 351.938L5816.98 351.938C5809.46 351.938 5803.36 358.038 5803.36 365.563C5803.36 373.087 5809.46 379.187 5816.98 379.187H5848.34C5847.45 380.996 5846.95 383.031 5846.95 385.182C5846.95 392.706 5853.05 398.806 5860.58 398.806H5922.16Z" fill="white"/>
<path fill-rule="evenodd" clip-rule="evenodd" d="M4296.43 375.917C4303.96 375.917 4310.06 382.017 4310.06 389.541C4310.06 397.066 4303.96 403.166 4296.43 403.166H4190.71H4190.71C4183.18 403.166 4177.08 397.066 4177.08 389.541L4108.96 389.541H4108.96C4101.44 389.541 4095.34 383.441 4095.34 375.917C4095.34 372.6 4096.52 369.56 4098.49 367.197L4043.02 367.197C4043.02 374.539 4037.21 380.525 4029.94 380.811V380.822H4029.39H3967.81H3967.81C3960.29 380.822 3954.19 374.722 3954.19 367.197C3954.19 359.673 3960.29 353.573 3967.81 353.573H3967.81L3993.97 353.573C3993.97 346.048 4000.07 339.948 4007.59 339.948H4007.59H4080.07C4079.72 338.738 4079.53 337.458 4079.53 336.134C4079.53 328.609 4085.63 322.509 4093.16 322.509H4093.16L4132.39 322.509C4132.39 320.78 4132.72 319.126 4133.3 317.604H4083.89C4083.89 317.604 4083.89 317.604 4083.89 317.604C4076.37 317.604 4070.27 311.505 4070.27 303.98C4070.27 296.455 4076.37 290.356 4083.89 290.356C4083.89 290.356 4083.89 290.356 4083.89 290.356H4167.27C4167.27 290.356 4167.27 290.356 4167.27 290.356C4174.8 290.356 4180.9 296.456 4180.9 303.98C4180.9 305.709 4180.57 307.363 4179.99 308.885H4273.54H4273.54C4281.07 308.885 4287.17 314.985 4287.17 322.509C4287.17 330.034 4281.07 336.133 4273.54 336.134H4273.54L4212.5 336.134C4212.5 343.658 4206.4 349.758 4198.88 349.758H4155.29C4155.64 350.968 4155.83 352.249 4155.83 353.573C4155.83 356.89 4154.64 359.93 4152.67 362.292H4243.57C4251.09 362.292 4257.19 368.392 4257.19 375.917L4296.43 375.917Z" fill="white"/>
<path fill-rule="evenodd" clip-rule="evenodd" d="M4465.7 259.266H4404.36C4404.36 259.266 4404.36 259.266 4404.36 259.266C4396.84 259.266 4390.74 265.366 4390.74 272.89C4390.74 280.415 4396.84 286.515 4404.36 286.515C4404.36 286.515 4404.36 286.515 4404.36 286.515H4506.27H4506.82V286.504C4514.09 286.218 4519.9 280.232 4519.9 272.89C4519.9 270.739 4519.4 268.705 4518.51 266.896L4539.52 266.896C4539.52 274.42 4545.62 280.52 4553.14 280.52H4645.24C4652.77 280.52 4658.87 274.42 4658.87 266.896C4658.87 259.371 4652.77 253.271 4645.24 253.271L4598.37 253.271C4598.37 251.333 4597.97 249.49 4597.24 247.821H4624.53C4632.06 247.821 4638.16 241.721 4638.16 234.197C4638.16 226.672 4632.06 220.573 4624.53 220.573H4566.77H4566.77C4559.24 220.573 4553.14 226.672 4553.14 234.197C4553.14 236.135 4553.55 237.978 4554.27 239.647H4532.39C4533.12 237.978 4533.52 236.135 4533.52 234.197C4533.52 226.672 4527.42 220.573 4519.9 220.573H4519.9L4493.74 220.573C4493.74 213.048 4487.64 206.948 4480.11 206.948H4480.11H4374.39H4374.39C4366.86 206.948 4360.76 213.048 4360.76 220.573C4360.76 228.097 4366.86 234.197 4374.39 234.197H4374.39L4426.71 234.197C4426.71 241.721 4432.81 247.821 4440.33 247.821H4440.33H4465.44C4464.71 249.49 4464.31 251.333 4464.31 253.271C4464.31 255.422 4464.81 257.457 4465.7 259.266Z" fill="white"/>
<path fill-rule="evenodd" clip-rule="evenodd" d="M5195.78 97.4343L5163.63 97.4343C5163.63 89.9098 5157.53 83.81 5150 83.8099C5150 83.8099 5150 83.8099 5150 83.8099H5106.78C5107.24 82.4411 5107.49 80.9749 5107.49 79.4501C5107.49 77.9254 5107.24 76.4592 5106.78 75.0903H5114.03H5114.03C5121.56 75.0902 5127.66 68.9904 5127.66 61.4659C5127.66 53.9415 5121.56 47.8417 5114.03 47.8416H5114.03H5059.54H5059.54C5052.01 47.8416 5045.91 53.9414 5045.91 61.4659C5045.91 62.9907 5046.16 64.4569 5046.62 65.8257H5014.3H5014.3C5006.78 65.8259 5000.68 71.9257 5000.68 79.4501C5000.68 86.9746 5006.78 93.0744 5014.3 93.0745H5014.3H5057.52C5057.06 94.4434 5056.81 95.9096 5056.81 97.4343C5056.81 104.959 5062.91 111.059 5070.44 111.059C5070.44 111.059 5070.44 111.059 5070.44 111.059L5127.66 111.059C5127.66 118.583 5133.76 124.683 5141.28 124.683H5141.28H5195.78H5195.78C5203.31 124.683 5209.41 118.583 5209.41 111.059C5209.41 103.534 5203.31 97.4343 5195.78 97.4343H5195.78Z" fill="white"/>
<path fill-rule="evenodd" clip-rule="evenodd" d="M4655.32 161.196H4563.33H4563.33C4550.63 161.196 4540.33 150.9 4540.33 138.199C4540.33 138.199 4540.33 138.199 4540.33 138.199H4443.75C4431.04 138.199 4420.75 127.903 4420.75 115.202C4420.75 112.628 4421.17 110.153 4421.95 107.843H4349C4336.3 107.843 4326 97.5467 4326 84.8457C4326 72.1447 4336.3 61.8485 4349 61.8485H4403.55C4402.77 59.538 4402.35 57.0631 4402.35 54.4895C4402.35 41.7886 4412.65 31.4924 4425.35 31.4923H4425.35H4517.34C4530.04 31.4923 4540.33 41.7885 4540.33 54.4895C4540.33 67.1904 4530.04 77.4866 4517.34 77.4867H4517.34H4505.1C4505.88 79.7972 4506.3 82.2721 4506.3 84.8457C4506.3 87.4193 4505.88 89.8941 4505.1 92.2046H4578.05C4578.05 92.2046 4578.05 92.2046 4578.05 92.2046C4590.75 92.2046 4601.05 102.501 4601.05 115.202L4655.32 115.202C4668.02 115.202 4678.32 125.498 4678.32 138.199C4678.32 150.9 4668.02 161.196 4655.32 161.196Z" fill="white"/>
<path fill-rule="evenodd" clip-rule="evenodd" d="M3045.83 384.092C3045.83 391.616 3039.73 397.716 3032.21 397.716H2956.45C2951.08 397.716 2946.43 394.606 2944.22 390.087H2863.81C2856.28 390.087 2850.18 383.987 2850.18 376.462C2850.18 368.938 2856.28 362.838 2863.81 362.838H2895.69C2896.95 356.619 2902.45 351.938 2909.04 351.938H3020.76C3020.76 349.343 3021.49 346.918 3022.75 344.854H2990.79C2983.26 344.854 2977.16 338.754 2977.16 331.229C2977.16 329.705 2977.41 328.238 2977.88 326.869H2895.96C2888.44 326.869 2882.34 320.77 2882.34 313.245C2882.34 305.721 2888.44 299.621 2895.96 299.621H2955.36C2955.01 298.41 2954.82 297.13 2954.82 295.806C2954.82 293.655 2955.32 291.62 2956.21 289.811H2946.64C2939.12 289.811 2933.02 283.711 2933.02 276.187C2933.02 268.662 2939.12 262.562 2946.64 262.562H2998.96C3006.49 262.562 3012.59 268.662 3012.59 276.187C3012.59 278.338 3012.09 280.372 3011.2 282.181H3038.74C3040.39 276.514 3045.62 272.372 3051.82 272.372H3119.4C3126.93 272.372 3133.03 278.472 3133.03 285.996C3133.03 293.521 3126.93 299.621 3119.4 299.621H3068.18C3066.53 305.288 3061.29 309.43 3055.09 309.43H3029.48C3029.84 310.641 3030.03 311.921 3030.03 313.245C3030.03 314.77 3029.78 316.236 3029.31 317.605H3083.98C3091.5 317.605 3097.6 323.705 3097.6 331.229C3097.6 333.824 3096.88 336.25 3095.62 338.314H3110.14C3117.66 338.314 3123.76 344.414 3123.76 351.938C3123.76 359.463 3117.66 365.563 3110.14 365.563H3082.34C3082.34 373.087 3076.24 379.187 3068.72 379.187H3044.92C3045.51 380.709 3045.83 382.363 3045.83 384.092Z" fill="white"/>
<path fill-rule="evenodd" clip-rule="evenodd" d="M4081.21 174.859C4088.73 174.859 4094.83 168.759 4094.83 161.234C4094.83 153.71 4088.73 147.61 4081.21 147.61L4064.31 147.61C4064.31 145.459 4063.81 143.424 4062.93 141.615H4142.79C4150.31 141.615 4156.41 135.515 4156.41 127.991L4176.03 127.991C4183.56 127.991 4189.66 121.891 4189.66 114.367C4189.66 106.842 4183.56 100.742 4176.03 100.742H4148.07C4148.53 99.3733 4148.78 97.9071 4148.78 96.3824C4148.78 88.8578 4142.68 82.758 4135.16 82.758H4070.85C4063.33 82.758 4057.23 88.8578 4057.23 96.3824C4057.23 103.907 4063.33 110.007 4070.85 110.007H4108.62C4108.16 111.376 4107.91 112.842 4107.91 114.367H4039.79C4039.79 106.842 4033.69 100.742 4026.17 100.742H3965.92C3966.81 98.9332 3967.31 96.8986 3967.31 94.7476H4015.27C4022.79 94.7476 4028.89 88.6477 4028.89 81.1232C4028.89 80.19 4028.8 79.2787 4028.62 78.3982H4044.69C4052.22 78.3982 4058.32 72.2983 4058.32 64.7738C4058.32 57.2493 4052.22 51.1494 4044.69 51.1494H3984.75C3977.22 51.1494 3971.12 57.2493 3971.12 64.7738C3971.12 65.707 3971.22 66.6183 3971.39 67.4988H3958.84C3959.72 65.6898 3960.22 63.6552 3960.22 61.5041C3960.22 53.9795 3954.12 47.8797 3946.6 47.8797H3877.93C3870.41 47.8797 3864.31 53.9795 3864.31 61.5041C3864.31 69.0286 3870.41 75.1285 3877.93 75.1285H3906.57C3905.68 76.9374 3905.18 78.972 3905.18 81.123H3813.62C3806.1 81.123 3800 87.2229 3800 94.7474C3800 102.272 3806.1 108.372 3813.62 108.372H3917.47C3916.58 110.181 3916.08 112.215 3916.08 114.367C3916.08 121.891 3922.18 127.991 3929.7 127.991L3985.84 127.991C3985.84 130.142 3986.34 132.177 3987.22 133.986H3954.23C3947.83 133.986 3942.46 138.395 3941 144.34L3920.44 144.34C3920.44 136.816 3914.34 130.716 3906.82 130.716H3829.43C3821.9 130.716 3815.8 136.816 3815.8 144.34C3815.8 151.865 3821.9 157.965 3829.43 157.965L3886.65 157.965C3886.65 165.489 3892.75 171.589 3900.28 171.589H3968.94C3975.34 171.589 3980.71 167.18 3982.17 161.234L4013.63 161.234C4013.63 168.759 4019.73 174.859 4027.25 174.859H4081.21Z" fill="white"/>
<path fill-rule="evenodd" clip-rule="evenodd" d="M3431.54 289.732C3431.54 297.256 3425.44 303.356 3417.91 303.356H3316C3308.48 303.356 3302.38 297.256 3302.38 289.732C3302.38 282.207 3308.48 276.107 3316 276.107L3339.43 276.107C3339.43 273.737 3340.04 271.509 3341.1 269.567H3287.12C3279.59 269.567 3273.49 263.468 3273.49 255.943C3273.49 248.419 3279.59 242.319 3287.12 242.319H3403.2C3410.72 242.319 3416.82 248.419 3416.82 255.943C3416.82 258.313 3416.22 260.542 3415.15 262.483H3468.05C3475.57 262.483 3481.67 268.583 3481.67 276.107C3481.67 283.632 3475.57 289.732 3468.05 289.732L3431.54 289.732Z" fill="white"/>
<path fill-rule="evenodd" clip-rule="evenodd" d="M3818.38 332.319C3825.91 332.319 3832.01 326.219 3832.01 318.694C3832.01 311.17 3825.91 305.07 3818.38 305.07H3727.88C3728.95 303.129 3729.55 300.9 3729.55 298.53L3774.24 298.53C3781.76 298.53 3787.86 292.431 3787.86 284.906C3787.86 277.381 3781.76 271.282 3774.24 271.282H3751.53C3752.12 269.76 3752.44 268.106 3752.44 266.377C3752.44 258.852 3746.34 252.752 3738.82 252.752H3655.98C3648.45 252.752 3642.35 258.852 3642.35 266.377C3642.35 273.901 3648.45 280.001 3655.98 280.001H3701.58C3700.99 281.523 3700.67 283.177 3700.67 284.906L3605.3 284.906C3597.77 284.906 3591.67 291.006 3591.67 298.53C3591.67 306.055 3597.77 312.155 3605.3 312.155H3656.56C3655.49 314.096 3654.89 316.325 3654.89 318.694C3654.89 326.219 3660.99 332.319 3668.51 332.319H3818.38Z" fill="white"/>
<path fill-rule="evenodd" clip-rule="evenodd" d="M5364.7 386.816C5372.22 386.816 5378.32 380.717 5378.32 373.192C5378.32 365.667 5372.22 359.568 5364.7 359.568H5345.26C5345.85 358.046 5346.17 356.392 5346.17 354.663C5346.17 347.138 5340.07 341.039 5332.55 341.039H5210.62C5210.88 339.991 5211.02 338.896 5211.02 337.769L5221.37 337.769C5228.9 337.769 5235 331.669 5235 324.144C5235 316.62 5228.9 310.52 5221.37 310.52H5200.91C5201.8 308.711 5202.3 306.676 5202.3 304.525C5202.3 297 5196.2 290.901 5188.67 290.901L5119.46 290.901C5119.46 283.376 5113.36 277.276 5105.84 277.276H5036.62C5029.1 277.276 5023 283.376 5023 290.901C5023 298.425 5029.1 304.525 5036.62 304.525L5053.52 304.525C5053.52 312.05 5059.62 318.149 5067.14 318.149H5145.92C5145.03 319.958 5144.53 321.993 5144.53 324.144L5130.36 324.144C5122.84 324.144 5116.74 330.244 5116.74 337.769L5087.31 337.769C5079.78 337.769 5073.68 343.868 5073.68 351.393C5073.68 358.918 5079.78 365.017 5087.31 365.017H5121.1C5128.62 365.017 5134.72 358.918 5134.72 351.393L5170.54 351.393C5170.28 352.441 5170.14 353.536 5170.14 354.663C5170.14 362.187 5176.24 368.287 5183.77 368.287H5283.86C5283.28 369.809 5282.95 371.463 5282.95 373.192C5282.95 380.717 5289.05 386.816 5296.58 386.816H5364.7Z" fill="white"/>
<path fill-rule="evenodd" clip-rule="evenodd" d="M3540.22 14.0532C3547.75 14.0532 3553.85 20.1531 3553.85 27.6776C3553.85 35.2022 3547.75 41.302 3540.22 41.302H3520.78C3521.37 42.8239 3521.69 44.4777 3521.69 46.2067C3521.69 53.7312 3515.59 59.8311 3508.07 59.8311H3386.14C3386.4 60.8786 3386.54 61.9738 3386.54 63.101L3396.89 63.1011C3404.42 63.1011 3410.52 69.2009 3410.52 76.7255C3410.52 84.25 3404.42 90.3499 3396.89 90.3499H3376.43C3377.32 92.1589 3377.82 94.1935 3377.82 96.3446C3377.82 103.869 3371.72 109.969 3364.2 109.969H3294.98C3294.98 117.494 3288.88 123.593 3281.36 123.593H3212.15C3204.62 123.593 3198.52 117.494 3198.52 109.969C3198.52 102.444 3204.62 96.3446 3212.15 96.3446H3229.04C3229.04 88.8201 3235.14 82.7202 3242.67 82.7202H3321.44C3320.55 80.9112 3320.05 78.8766 3320.05 76.7255L3305.88 76.7254C3298.36 76.7254 3292.26 70.6256 3292.26 63.101L3262.83 63.101C3255.31 63.101 3249.21 57.0012 3249.21 49.4766C3249.21 41.9521 3255.31 35.8522 3262.83 35.8522H3296.62C3304.14 35.8522 3310.24 41.9521 3310.24 49.4766L3346.06 49.4767C3345.8 48.4291 3345.67 47.3339 3345.67 46.2067C3345.67 38.6822 3351.77 32.5823 3359.29 32.5823H3459.39C3458.8 31.0604 3458.48 29.4066 3458.48 27.6776C3458.48 20.1531 3464.58 14.0532 3472.1 14.0532H3540.22Z" fill="white"/>
<path fill-rule="evenodd" clip-rule="evenodd" d="M5296.4 54.8413C5303.16 54.8413 5308.65 49.3545 5308.65 42.5863L5331.69 42.5862C5338.46 42.5862 5343.94 37.0994 5343.94 30.3312L5350.81 30.3311C5357.58 30.3311 5363.06 24.8443 5363.06 18.076C5363.06 11.3078 5357.58 5.821 5350.81 5.821H5295.9C5295.38 5.821 5294.87 5.85381 5294.36 5.91751C5292.16 2.60965 5288.41 0.428844 5284.14 0.428844H5228.75C5221.98 0.428844 5216.49 5.91562 5216.49 12.6839V12.6839H5201.79C5195.02 12.6839 5189.53 18.1707 5189.53 24.939C5189.53 31.7073 5195.02 37.194 5201.79 37.194H5229.99C5229.2 38.8212 5228.75 40.6514 5228.75 42.5863C5228.75 49.3545 5234.23 54.8413 5241 54.8413H5296.4Z" fill="white"/>
</svg>
