<svg width="24" height="24" viewBox="0 0 24 24" fill="none" xmlns="http://www.w3.org/2000/svg">
<path d="M9 13.3478L12 11L15 13.3478" stroke="black" stroke-width="2" stroke-linecap="round" stroke-linejoin="round"/>
<path d="M12 11V21" stroke="black" stroke-width="2" stroke-linecap="round" stroke-linejoin="round"/>
<path d="M8 18H5.5C3.01472 18 1 15.9853 1 13.5C1 11.8302 1.90951 10.3728 3.26018 9.59615C3.09145 9.0949 3 8.55813 3 8C3 5.23858 5.23858 3 8 3C9.49325 3 10.8336 3.6546 11.7498 4.69249C12.3909 4.25548 13.1656 4 14 4C15.8684 4 17.4376 5.28105 17.8772 7.01274C20.7388 7.20658 23 9.58923 23 12.5C23 15.5376 20.5376 18 17.5 18H16" stroke="black" stroke-width="2" stroke-miterlimit="3.07467" stroke-linecap="round" stroke-linejoin="round"/>
</svg>
