<svg width="24" height="24" viewBox="0 0 24 24" fill="none" xmlns="http://www.w3.org/2000/svg">
<path fill-rule="evenodd" clip-rule="evenodd" d="M8 2C4.68629 2 2 4.68629 2 8C2 8.33496 2.02754 8.664 2.08059 8.98484C2.09903 9.09634 2.05689 9.20947 1.97026 9.28205C0.767067 10.29 0 11.805 0 13.5C0 16.5376 2.46243 19 5.5 19H6.89261C7.01506 19 7.12394 18.9249 7.17726 18.8147C7.27801 18.6064 7.40426 18.4074 7.556 18.2222C7.66103 18.0941 7.66103 17.9059 7.556 17.7778C7.40426 17.5926 7.27801 17.3936 7.17726 17.1853C7.12394 17.0751 7.01506 17 6.89261 17H5.5C3.567 17 2 15.433 2 13.5C2 12.2025 2.70552 11.0686 3.75864 10.4631C4.17197 10.2254 4.36003 9.72899 4.20792 9.27712C4.07335 8.87735 4 8.44826 4 8C4 5.79086 5.79086 4 8 4C9.19446 4 10.2657 4.5223 11.0001 5.35427C11.3337 5.7322 11.8965 5.80272 12.313 5.51878C12.7934 5.19136 13.3728 5 14 5C15.4 5 16.5782 5.95985 16.908 7.25879C17.0144 7.67795 17.3782 7.98122 17.8097 8.01045C20.15 8.16898 22 10.1189 22 12.5C22 14.9853 19.9853 17 17.5 17H17.1074C16.9849 17 16.8761 17.0751 16.8227 17.1853C16.722 17.3936 16.5957 17.5926 16.444 17.7778C16.339 17.9059 16.339 18.0941 16.444 18.2222C16.5957 18.4074 16.722 18.6064 16.8227 18.8147C16.8761 18.9249 16.9849 19 17.1074 19H17.5C21.0898 19 24 16.0899 24 12.5C24 9.35086 21.761 6.72537 18.7875 6.12765C18.6867 6.10737 18.6017 6.03909 18.5593 5.94529C17.7756 4.20901 16.03 3 14 3C13.3254 3 12.6808 3.13407 12.0925 3.37703C11.984 3.42184 11.8593 3.40433 11.768 3.33057C10.7386 2.49908 9.42717 2 8 2Z" fill="black"/>
<path d="M9.87913 15.8787L14.1218 20.1213M9.87913 20.1213L14.1218 15.8787" stroke="black" stroke-width="2" stroke-linecap="round"/>
</svg>
