<svg width="24" height="24" viewBox="0 0 24 24" fill="none" xmlns="http://www.w3.org/2000/svg">
<path d="M6 17H12C14.2091 17 16 18.7909 16 21V22H2V21C2 18.7909 3.79086 17 6 17Z" stroke="black" stroke-width="2"/>
<rect x="5" y="5" width="8" height="8" rx="4" stroke="black" stroke-width="2"/>
<path fill-rule="evenodd" clip-rule="evenodd" d="M13.6497 3.32057C13.4562 3.41831 13.2216 3.41128 13.0448 3.28588C12.773 3.09312 12.4868 2.91927 12.1881 2.76626C11.8644 2.60037 11.7752 2.16194 12.0698 1.94849C12.8932 1.35179 13.9058 1 15.0005 1C17.7619 1 20.0005 3.23858 20.0005 6C20.0005 8.2456 18.5201 10.1454 16.482 10.7769C16.1348 10.8844 15.8379 10.5503 15.8994 10.1921C15.9658 9.80465 16.0005 9.40637 16.0005 9C16.0005 8.89861 16.0636 8.80803 16.1571 8.7689C17.2397 8.31612 18.0005 7.2469 18.0005 6C18.0005 4.34315 16.6573 3 15.0005 3C14.5146 3 14.0557 3.11551 13.6497 3.32057Z" fill="black"/>
<path fill-rule="evenodd" clip-rule="evenodd" d="M19.118 18C18.7507 18 18.5061 18.3848 18.6251 18.7323C18.7185 19.0053 18.7955 19.2859 18.855 19.573C18.9055 19.8166 19.1145 20 19.3632 20H22.0006C22.5528 20 23.0006 19.5523 23.0006 19V18C23.0006 15.2386 20.762 13 18.0006 13H15.0067C14.8433 13 14.6911 13.0806 14.5927 13.2111C14.5113 13.319 14.4269 13.4245 14.3395 13.5274C14.0799 13.8332 14.2076 14.3429 14.5805 14.4908C14.895 14.6155 15.1982 14.7624 15.4884 14.9295C15.5672 14.9748 15.6562 15 15.7471 15H18.0006C19.4878 15 20.7223 16.0822 20.9594 17.5021C21.0049 17.7745 20.7767 18 20.5006 18H19.118Z" fill="black"/>
</svg>
