<svg width="24" height="24" viewBox="0 0 24 24" fill="none" xmlns="http://www.w3.org/2000/svg">
<rect x="6.5" y="6.5" width="11" height="11" rx="1.5" stroke="black" stroke-width="2"/>
<circle cx="12" cy="12" r="2.25" stroke="black" stroke-width="1.5"/>
<path d="M2 15H6" stroke="black" stroke-width="1.5" stroke-linecap="round"/>
<path d="M2 9H6" stroke="black" stroke-width="1.5" stroke-linecap="round"/>
<path fill-rule="evenodd" clip-rule="evenodd" d="M2 5C2 3.34315 3.34315 2 5 2H19C20.6569 2 22 3.34315 22 5V19C22 20.6569 20.6569 22 19 22H5C3.34315 22 2 20.6569 2 19V17C2 16.7239 2.22386 16.5 2.5 16.5H3.5C3.77614 16.5 4 16.7239 4 17V19C4 19.5523 4.44772 20 5 20H19C19.5523 20 20 19.5523 20 19V5C20 4.44772 19.5523 4 19 4H5C4.44772 4 4 4.44772 4 5V7C4 7.27614 3.77614 7.5 3.5 7.5H2.5C2.22386 7.5 2 7.27614 2 7V5ZM2.5 10.5C2.22386 10.5 2 10.7239 2 11V13C2 13.2761 2.22386 13.5 2.5 13.5H3.5C3.77614 13.5 4 13.2761 4 13V11C4 10.7239 3.77614 10.5 3.5 10.5H2.5Z" fill="black"/>
<path d="M8.5 12H9.5" stroke="black" stroke-linecap="round"/>
<path d="M15.5 12H14.5" stroke="black" stroke-linecap="round"/>
<path d="M12 8.5L12 9.5" stroke="black" stroke-linecap="round"/>
<path d="M12 14.5L12 15.5" stroke="black" stroke-linecap="round"/>
<path d="M9.52344 9.52512L10.2305 10.2322" stroke="black" stroke-linecap="round"/>
<path d="M14.4766 14.4749L13.7695 13.7677" stroke="black" stroke-linecap="round"/>
<path d="M14.4766 9.52512L13.7695 10.2322" stroke="black" stroke-linecap="round"/>
<path d="M10.2305 13.7678L9.52336 14.4749" stroke="black" stroke-linecap="round"/>
</svg>
