<svg width="24" height="24" viewBox="0 0 24 24" fill="none" xmlns="http://www.w3.org/2000/svg">
<rect x="6" y="6" width="12" height="10" rx="1" stroke="black" stroke-width="1.5"/>
<circle cx="13" cy="11" r="2.25" stroke="black" stroke-width="1.5"/>
<path d="M6 21.5H8" stroke="black" stroke-width="1.5" stroke-linecap="round"/>
<path d="M16 21.5H18" stroke="black" stroke-width="1.5" stroke-linecap="round"/>
<path d="M2 14H6" stroke="black" stroke-width="1.5" stroke-linecap="round"/>
<path d="M2 8L6 8" stroke="black" stroke-width="1.5" stroke-linecap="round"/>
<path fill-rule="evenodd" clip-rule="evenodd" d="M2 5C2 3.34315 3.34315 2 5 2H19C20.6569 2 22 3.34315 22 5V17C22 18.6569 20.6569 20 19 20H5C3.34315 20 2 18.6569 2 17V16C2 15.7239 2.22386 15.5 2.5 15.5H3.5C3.77614 15.5 4 15.7239 4 16V17C4 17.5523 4.44772 18 5 18H19C19.5523 18 20 17.5523 20 17V5C20 4.44772 19.5523 4 19 4H5C4.44772 4 4 4.44772 4 5V6C4 6.27614 3.77614 6.5 3.5 6.5H2.5C2.22386 6.5 2 6.27614 2 6V5ZM2.5 9.5C2.22386 9.5 2 9.72386 2 10V12C2 12.2761 2.22386 12.5 2.5 12.5H3.5C3.77614 12.5 4 12.2761 4 12V10C4 9.72386 3.77614 9.5 3.5 9.5H2.5Z" fill="black"/>
<path d="M9.5 11H10.5" stroke="black" stroke-linecap="round"/>
<path d="M16.5 11H15.5" stroke="black" stroke-linecap="round"/>
<path d="M13 7.5L13 8.5" stroke="black" stroke-linecap="round"/>
<path d="M13 13.5L13 14.5" stroke="black" stroke-linecap="round"/>
<path d="M10.5234 8.52509L11.2305 9.23219" stroke="black" stroke-linecap="round"/>
<path d="M15.4766 13.4749L14.7695 12.7677" stroke="black" stroke-linecap="round"/>
<path d="M15.4766 8.52509L14.7695 9.23219" stroke="black" stroke-linecap="round"/>
<path d="M11.2305 12.7678L10.5234 13.4749" stroke="black" stroke-linecap="round"/>
</svg>
