<svg width="24" height="24" viewBox="0 0 24 24" fill="none" xmlns="http://www.w3.org/2000/svg">
<circle cx="12" cy="12" r="2.25" stroke="black" stroke-width="1.5"/>
<path d="M2 15H6" stroke="black" stroke-width="1.5" stroke-linecap="round"/>
<path d="M2 9H6" stroke="black" stroke-width="1.5" stroke-linecap="round"/>
<path fill-rule="evenodd" clip-rule="evenodd" d="M22 9.67861C22 9.27884 21.5445 9.02984 21.1734 9.17857C20.9387 9.27266 20.6942 9.34753 20.4419 9.40127C20.1926 9.45436 20 9.66542 20 9.9203V19C20 19.5523 19.5523 20 19 20H5C4.44772 20 4 19.5523 4 19V17C4 16.7239 3.77614 16.5 3.5 16.5H2.5C2.22386 16.5 2 16.7239 2 17V19C2 20.6569 3.34315 22 5 22H19C20.6569 22 22 20.6569 22 19V9.67861ZM15.5102 2.91685C15.7105 2.53387 15.4596 2 15.0273 2H5C3.34315 2 2 3.34315 2 5V7C2 7.27614 2.22386 7.5 2.5 7.5H3.5C3.77614 7.5 4 7.27614 4 7V5C4 4.44772 4.44772 4 5 4H14.7123C14.9458 4 15.1453 3.83729 15.2171 3.61509C15.2955 3.3727 15.3938 3.13931 15.5102 2.91685ZM2.5 13.5C2.22386 13.5 2 13.2761 2 13V11C2 10.7239 2.22386 10.5 2.5 10.5H3.5C3.77614 10.5 4 10.7239 4 11V13C4 13.2761 3.77614 13.5 3.5 13.5H2.5Z" fill="black"/>
<path d="M8.5 12H9.5" stroke="black" stroke-linecap="round"/>
<path d="M15.5 12H14.5" stroke="black" stroke-linecap="round"/>
<path d="M12 8.5L12 9.5" stroke="black" stroke-linecap="round"/>
<path d="M12 14.5L12 15.5" stroke="black" stroke-linecap="round"/>
<path d="M9.52344 9.52512L10.2305 10.2322" stroke="black" stroke-linecap="round"/>
<path d="M14.4766 14.4749L13.7695 13.7677" stroke="black" stroke-linecap="round"/>
<path d="M14.4766 9.52512L13.7695 10.2322" stroke="black" stroke-linecap="round"/>
<path d="M10.2305 13.7678L9.52336 14.4749" stroke="black" stroke-linecap="round"/>
<path d="M22.5 5.00006C22.5 6.65691 21.1569 8 19.4999 8C17.8431 8 16.5 6.65691 16.5 5.00006C16.5 3.3432 17.8431 2 19.4999 2C21.1569 2 22.5 3.3432 22.5 5.00006Z" fill="#FE006C"/>
<path d="M15.0987 5.94191C15.0456 5.69262 14.8346 5.5 14.5797 5.5H8C6.61929 5.5 5.5 6.61929 5.5 8V16C5.5 17.3807 6.61929 18.5 8 18.5H16C17.3807 18.5 18.5 17.3807 18.5 16V9.78778C18.5 9.55426 18.3373 9.35469 18.1151 9.2829C17.7283 9.15793 17.3644 8.98204 17.0314 8.76312C16.8147 8.62067 16.5 8.76601 16.5 9.02535V16C16.5 16.2761 16.2761 16.5 16 16.5H8C7.72386 16.5 7.5 16.2761 7.5 16V8C7.5 7.72386 7.72386 7.5 8 7.5H15.1959C15.4358 7.5 15.5827 7.22926 15.4751 7.01486C15.3067 6.67905 15.1791 6.31923 15.0987 5.94191Z" fill="black"/>
</svg>
