<svg width="24" height="25" viewBox="0 0 24 25" fill="none" xmlns="http://www.w3.org/2000/svg">
<g clip-path="url(#clip0_1771_8566)">
<path fill-rule="evenodd" clip-rule="evenodd" d="M13.6578 0.523518C13.1779 0.1747 12.599 -0.00836777 12.0075 0.00160779C11.4165 -0.0073696 10.8384 0.176374 10.3592 0.525488C10.0858 0.700448 9.79901 0.946954 9.49026 1.21238C9.06916 1.57439 8.60713 1.97159 8.08203 2.27044C7.59799 2.54969 6.95536 2.57362 6.27955 2.59879C5.19661 2.63912 4.02851 2.68263 3.29135 3.78497C2.61299 4.80247 2.56321 5.6037 2.51425 6.39183C2.51288 6.41374 2.51152 6.43564 2.51015 6.45754C2.45351 7.33002 2.30118 8.13356 1.41648 9.31525C-0.0502187 11.2709 -0.356838 12.5728 0.398969 13.9297C0.675807 14.4183 1.11 14.7911 1.49463 15.1214C1.8372 15.4156 2.14045 15.676 2.25821 15.9543C2.50409 16.5272 2.51206 17.0351 2.52026 17.5577C2.52991 18.1724 2.53988 18.8074 2.93785 19.592C3.16664 20.069 3.49008 20.4936 3.88816 20.8395C4.28624 21.1853 4.75048 21.4452 5.25215 21.6028C5.69242 21.7468 6.13368 21.7149 6.55309 21.6846C6.97086 21.6544 7.36694 21.6257 7.71877 21.7741C8.33538 22.036 8.87353 22.4698 9.37904 22.8773C9.88863 23.288 10.3651 23.6721 10.8553 23.8263C11.5953 24.0601 12.3885 24.0601 13.1286 23.8263C13.6269 23.6714 14.1053 23.2846 14.616 22.8717C15.1181 22.4659 15.6512 22.0348 16.2651 21.7741C16.6189 21.6257 17.0151 21.6544 17.4324 21.6846C17.8513 21.7149 18.2915 21.7468 18.7317 21.6028C19.2387 21.4487 19.7086 21.1905 20.112 20.8445C20.5153 20.4984 20.8432 20.072 21.0753 19.592C21.4706 18.8084 21.4801 18.1741 21.4893 17.5601C21.4971 17.0367 21.5047 16.528 21.751 15.9543C21.8679 15.6798 22.1678 15.4212 22.5064 15.1292C22.8916 14.7969 23.3271 14.4213 23.6005 13.9297C24.3563 12.5728 24.0516 11.2709 22.5849 9.31525C21.7002 8.13356 21.5479 7.33002 21.4913 6.45754C21.4895 6.4311 21.4878 6.40466 21.4861 6.3782C21.4358 5.59446 21.3845 4.7966 20.7101 3.78497C19.9767 2.68298 18.8142 2.63915 17.7327 2.59837C17.0572 2.5729 16.4133 2.54862 15.9252 2.26847C15.4082 1.97102 14.9498 1.57615 14.5311 1.21551C14.2207 0.948148 13.9322 0.6996 13.6578 0.523518ZM16.762 4.87423C15.3525 3.93239 13.6953 3.42969 12 3.42969C9.7267 3.42969 7.54653 4.33275 5.93907 5.9402C4.33162 7.54765 3.42856 9.72783 3.42856 12.0011C3.42856 13.6964 3.93126 15.3536 4.8731 16.7631C5.81495 18.1727 7.15362 19.2713 8.71984 19.9201C10.2861 20.5688 12.0095 20.7386 13.6722 20.4078C15.3349 20.0771 16.8622 19.2608 18.0609 18.062C19.2596 16.8633 20.076 15.336 20.4067 13.6733C20.7374 12.0106 20.5677 10.2872 19.919 8.72097C19.2702 7.15475 18.1716 5.81607 16.762 4.87423Z" fill="#333333"/>
<path d="M8.12614 13.7254L9.94441 15.5437C10.2791 15.8784 10.8186 15.8752 11.1493 15.5365L16.1392 10.4256" stroke="#333333" stroke-width="2" stroke-linecap="round"/>
</g>
<defs>
<clipPath id="clip0_1771_8566">
<rect width="24" height="24" fill="white" transform="translate(0 0.0012207)"/>
</clipPath>
</defs>
</svg>
