<svg width="24" height="24" viewBox="0 0 24 24" fill="none" xmlns="http://www.w3.org/2000/svg">
<g clip-path="url(#clip0_1771_10281)">
<path d="M8.12614 13.7242L9.94441 15.5425C10.2791 15.8772 10.8186 15.874 11.1493 15.5353L16.1392 10.4244" stroke="black" stroke-width="2" stroke-linecap="round"/>
<path d="M10.3785 2.38187C11.3129 1.58558 12.6871 1.58558 13.6215 2.38187L14.7517 3.34495C15.1521 3.68617 15.6499 3.89239 16.1743 3.93424L17.6544 4.05235C18.8782 4.15001 19.85 5.12179 19.9477 6.34556L20.0658 7.82567C20.1076 8.35008 20.3138 8.84793 20.6551 9.24834L21.6181 10.3785C22.4144 11.3129 22.4144 12.6871 21.6181 13.6215L20.6551 14.7517C20.3138 15.1521 20.1076 15.6499 20.0658 16.1743L19.9477 17.6544C19.85 18.8782 18.8782 19.85 17.6544 19.9477L16.1743 20.0658C15.6499 20.1076 15.1521 20.3138 14.7517 20.6551L13.6215 21.6181C12.6871 22.4144 11.3129 22.4144 10.3785 21.6181L9.24834 20.6551C8.84793 20.3138 8.35008 20.1076 7.82567 20.0658L6.34556 19.9477C5.12178 19.85 4.15001 18.8782 4.05235 17.6544L3.93424 16.1743C3.89239 15.6499 3.68617 15.1521 3.34495 14.7517L2.38187 13.6215C1.58558 12.6871 1.58558 11.3129 2.38187 10.3785L3.34495 9.24834C3.68617 8.84793 3.89239 8.35008 3.93424 7.82567L4.05235 6.34556C4.15001 5.12178 5.12179 4.15001 6.34556 4.05235L7.82567 3.93424C8.35008 3.89239 8.84793 3.68617 9.24834 3.34495L10.3785 2.38187Z" stroke="black" stroke-width="2"/>
</g>
<defs>
<clipPath id="clip0_1771_10281">
<rect width="24" height="24" fill="white"/>
</clipPath>
</defs>
</svg>
