<svg width="24" height="25" viewBox="0 0 24 25" fill="none" xmlns="http://www.w3.org/2000/svg">
<path d="M13.576 5.00128H2.62591C1.18166 5.00128 0 6.18294 0 7.62719V16.4765C0 17.9208 1.18166 19.1024 2.62591 19.1024H13.576C15.0202 19.1024 16.2019 17.9208 16.2019 16.4765V7.62719C16.2019 6.15668 15.0202 5.00128 13.576 5.00128Z" fill="#333333"/>
<path d="M22.0585 6.44556C21.9009 6.47181 21.7433 6.55059 21.612 6.62937L17.5156 8.99269V15.0848L21.6383 17.4481C22.3998 17.8945 23.3452 17.6319 23.7916 16.8704C23.9229 16.6341 24.0016 16.3715 24.0016 16.0827V7.96858C24.0016 6.997 23.0826 6.20922 22.0585 6.44556Z" fill="#333333"/>
</svg>
