<svg width="24" height="25" viewBox="0 0 24 25" fill="none" xmlns="http://www.w3.org/2000/svg">
<rect x="4.01562" y="4.93018" width="2" height="22" rx="1" transform="rotate(-45 4.01562 4.93018)" fill="#333333"/>
<path fill-rule="evenodd" clip-rule="evenodd" d="M6 10.0974V15.0012H10L14.519 18.6164L6 10.0974ZM15 9.90503V5.00122L12.2757 7.18069L15 9.90503Z" fill="#333333"/>
<path d="M6 10.0974L6.70711 9.39031C6.42111 9.10431 5.99099 9.01875 5.61732 9.17354C5.24364 9.32832 5 9.69295 5 10.0974H6ZM6 15.0012H5C5 15.5535 5.44772 16.0012 6 16.0012V15.0012ZM10 15.0012L10.6247 14.2204C10.4474 14.0785 10.2271 14.0012 10 14.0012V15.0012ZM14.519 18.6164L13.8943 19.3973C14.3088 19.7289 14.9102 19.6789 15.2642 19.2834C15.6182 18.8878 15.6015 18.2847 15.2261 17.9093L14.519 18.6164ZM15 9.90503L14.2929 10.6121C14.5789 10.8981 15.009 10.9837 15.3827 10.8289C15.7564 10.6741 16 10.3095 16 9.90503H15ZM15 5.00122H16C16 4.61682 15.7797 4.26644 15.4332 4.09992C15.0867 3.9334 14.6755 3.98022 14.3753 4.22035L15 5.00122ZM12.2757 7.18069L11.651 6.39982C11.4289 6.57751 11.2929 6.84138 11.2772 7.12539C11.2615 7.4094 11.3674 7.68667 11.5686 7.8878L12.2757 7.18069ZM5 10.0974V15.0012H7V10.0974H5ZM6 16.0012H10V14.0012H6V16.0012ZM9.3753 15.7821L13.8943 19.3973L15.1437 17.8356L10.6247 14.2204L9.3753 15.7821ZM15.2261 17.9093L6.70711 9.39031L5.29289 10.8045L13.8119 19.3235L15.2261 17.9093ZM16 9.90503V5.00122H14V9.90503H16ZM14.3753 4.22035L11.651 6.39982L12.9004 7.96156L15.6247 5.78209L14.3753 4.22035ZM11.5686 7.8878L14.2929 10.6121L15.7071 9.19792L12.9828 6.47358L11.5686 7.8878Z" fill="#333333"/>
</svg>
