<svg width="24" height="25" viewBox="0 0 24 25" fill="none" xmlns="http://www.w3.org/2000/svg">
<path d="M2.5 11.0012C2.5 11.0012 2.5 4.00122 12 4.00122C21.5 4.00122 21.5 11.0012 21.5 11.0012" stroke="#333333" stroke-linecap="round"/>
<path fill-rule="evenodd" clip-rule="evenodd" d="M5 8.00122C3.89543 8.00122 3 8.89665 3 10.0012L3 14.0012C3 16.2104 4.79086 18.0012 7 18.0012H10L11.2929 16.7083C11.6834 16.3178 12.3166 16.3178 12.7071 16.7083L14 18.0012H17C19.2091 18.0012 21 16.2104 21 14.0012V10.0012C21 8.89665 20.1046 8.00122 19 8.00122L5 8.00122ZM15 15.5012C16.1046 15.5012 17 14.6058 17 13.5012C17 12.3967 16.1046 11.5012 15 11.5012C13.8954 11.5012 13 12.3967 13 13.5012C13 14.6058 13.8954 15.5012 15 15.5012ZM11 13.5012C11 14.6058 10.1046 15.5012 9 15.5012C7.89543 15.5012 7 14.6058 7 13.5012C7 12.3967 7.89543 11.5012 9 11.5012C10.1046 11.5012 11 12.3967 11 13.5012Z" fill="#333333"/>
<rect x="1.5" y="11.0012" width="2" height="3" rx="0.5" fill="#333333"/>
<rect x="20.5" y="11.0012" width="2" height="3" rx="0.5" fill="#333333"/>
<rect x="10" y="6.50122" width="4" height="2" rx="0.5" fill="#333333"/>
<path d="M11.2238 3.97349C11.2385 3.70853 11.4576 3.50122 11.723 3.50122H12.277C12.5424 3.50122 12.7615 3.70853 12.7762 3.97349L12.9707 7.47349C12.9866 7.76009 12.7585 8.00122 12.4715 8.00122H11.5285C11.2415 8.00122 11.0134 7.76009 11.0293 7.47349L11.2238 3.97349Z" fill="#333333"/>
</svg>
