<svg width="24" height="24" viewBox="0 0 24 24" fill="none" xmlns="http://www.w3.org/2000/svg">
<path d="M19 11.5H20C20.5523 11.5 21 11.9477 21 12.5V14.5C21 15.0523 20.5523 15.5 20 15.5H19M19 11.5H16C14.8954 11.5 14 12.3954 14 13.5V13.5C14 14.6046 14.8954 15.5 16 15.5H19M19 11.5V9.5V9.5C19 8.39543 18.1046 7.5 17 7.5H16.5M19 15.5V17.5V17.5C19 18.6046 18.1046 19.5 17 19.5H5C3.89543 19.5 3 18.6046 3 17.5V6.5C3 5.39543 3.89543 4.5 5 4.5H7M6 7.5H8M16.5 7.5L14.5569 4.00234C14.2624 3.4723 13.5678 3.32418 13.0827 3.68798L8 7.5M16.5 7.5H8" stroke="black" stroke-width="2" stroke-linecap="round"/>
</svg>
