<svg width="24" height="25" viewBox="0 0 24 25" fill="none" xmlns="http://www.w3.org/2000/svg">
<path fill-rule="evenodd" clip-rule="evenodd" d="M21 6.50122V6.24284C21 5.70462 20.7831 5.18911 20.3982 4.81283L17.0829 1.57121C16.7092 1.20581 16.2074 1.00122 15.6847 1.00122H15.5V6.00122C15.5 6.27736 15.7239 6.50122 16 6.50122H21ZM21 8.00122H16C14.8954 8.00122 14 7.10579 14 6.00122V1.00122H5C3.89543 1.00122 3 1.89665 3 3.00122V21.0012C3 22.1058 3.89543 23.0012 5 23.0012H19C20.1046 23.0012 21 22.1058 21 21.0012V8.00122ZM6.25 11.0012C6.25 10.587 6.58579 10.2512 7 10.2512H17C17.4142 10.2512 17.75 10.587 17.75 11.0012C17.75 11.4154 17.4142 11.7512 17 11.7512H7C6.58579 11.7512 6.25 11.4154 6.25 11.0012ZM7 14.2512C6.58579 14.2512 6.25 14.587 6.25 15.0012C6.25 15.4154 6.58579 15.7512 7 15.7512H17C17.4142 15.7512 17.75 15.4154 17.75 15.0012C17.75 14.587 17.4142 14.2512 17 14.2512H7ZM6.25 19.0012C6.25 18.587 6.58579 18.2512 7 18.2512H17C17.4142 18.2512 17.75 18.587 17.75 19.0012C17.75 19.4154 17.4142 19.7512 17 19.7512H7C6.58579 19.7512 6.25 19.4154 6.25 19.0012ZM7 6.25122C6.58579 6.25122 6.25 6.58701 6.25 7.00122C6.25 7.41543 6.58579 7.75122 7 7.75122H11.5C11.9142 7.75122 12.25 7.41543 12.25 7.00122C12.25 6.58701 11.9142 6.25122 11.5 6.25122H7Z" fill="#333333"/>
</svg>
