<svg width="2880" height="483" viewBox="0 0 2880 483" fill="none" xmlns="http://www.w3.org/2000/svg">
<path fill-rule="evenodd" clip-rule="evenodd" d="M2600.55 37.4376C2600.55 26.2193 2591.46 17.1251 2580.24 17.1251H2428.3C2417.09 17.1251 2407.99 26.2193 2407.99 37.4376C2407.99 48.6559 2417.09 57.7501 2428.3 57.7501L2463.24 57.7501C2463.24 61.2834 2464.14 64.606 2465.73 67.5001H2385.24C2374.02 67.5001 2364.93 76.5944 2364.93 87.8126C2364.93 99.0309 2374.02 108.125 2385.24 108.125H2558.3C2569.52 108.125 2578.62 99.0309 2578.62 87.8126C2578.62 84.2793 2577.71 80.9568 2576.13 78.0626H2654.99C2666.21 78.0626 2675.3 68.9684 2675.3 57.7501C2675.3 46.5319 2666.21 37.4376 2654.99 37.4376L2600.55 37.4376Z" fill="white"/>
<path fill-rule="evenodd" clip-rule="evenodd" d="M1485.78 0C1496.4 0 1505 8.60406 1505 19.2177C1505 29.8314 1496.4 38.4354 1485.78 38.4354H1358.13C1359.63 41.1735 1360.48 44.317 1360.48 47.6599L1423.52 47.6599C1434.13 47.6599 1442.74 56.2639 1442.74 66.8776C1442.74 77.4912 1434.13 86.0953 1423.52 86.0953H1391.49C1392.31 88.242 1392.77 90.5749 1392.77 93.0139C1392.77 103.628 1384.16 112.232 1373.55 112.232H1256.71C1246.09 112.232 1237.49 103.628 1237.49 93.0139C1237.49 82.4002 1246.09 73.7962 1256.71 73.7962H1321.02C1320.2 71.6495 1319.74 69.3166 1319.74 66.8776L1185.22 66.8776C1174.6 66.8776 1166 58.2735 1166 47.6599C1166 37.0462 1174.6 28.4422 1185.22 28.4422H1257.52C1256.02 25.704 1255.17 22.5606 1255.17 19.2177C1255.17 8.60406 1263.77 0 1274.39 0H1485.78Z" fill="white"/>
</svg>
