<svg width="2880" height="345" viewBox="0 0 2880 345" fill="none" xmlns="http://www.w3.org/2000/svg">
<g clip-path="url(#clip0_791_2713)">
<path d="M2438.5 148C2688 107.599 2880 200.401 2880 200.401V663H0V200.401C0 200.401 67 199.129 206.5 220.5C346 241.871 385 169.001 474 148C563 127 673 62.599 853 103C1033 143.401 1102.5 237.773 1324 245.5C1443.57 249.671 1631.5 58.2712 1856 194.636C2080.5 331 2189 188.401 2438.5 148Z" fill="#405E7A"/>
<path fill-rule="evenodd" clip-rule="evenodd" d="M699.5 0L676 14.6835V116H722V129H764V36.278L723 30.1495V14.6835L699.5 0ZM604 19.7975L633.5 6L663 19.7975V115H605V150H555V34.7089L580 18L604 34.0405V19.7975ZM2271.75 97.5673L2225 90V209.331H2271.75V205.486H2331.51V121.675L2300.76 88L2271.75 119.761V97.5673ZM1175.75 123.567L1129 116V132.437L1103.97 119.763L1080.75 131.519V116.072H1034V202.187H1078.75V220.64H1129V235.331H1175.75V123.567ZM2649 155H2609V176H2567V163H2524V179H2465V83.7975L2494.5 70L2521 82.3943V61.6835L2544.5 47L2568 61.6835V77.1495L2602 82.2317V57H2649V155ZM130 139.105L155.219 124L180.439 139.105V159.19L202.5 146L225 159.453V147.962L251.5 131L277 147.322V134.709L302 118L326 134.041V119.797L355.5 106L385 119.797V215H327V250H278V265H225V257H179V243.331H130V139.105ZM-22 140.899L7.5 129L36 140.495V106H83V209H37V223H-22V140.899ZM1273 169.776L1303.76 154.982L1334.51 169.776V178.653L1364.27 146.072L1395.02 179.746V138.756L1420.86 115L1446.69 138.756V264.471H1395.02V263.558H1334.51V271.852H1273V169.776ZM1528.14 198.798V193.262H1593.57V184.036H1654.08V104.524L1623.32 93L1592.57 104.524V120.754L1560.35 104.072L1528.14 120.754V107.762H1490V198.798H1528.14ZM1965 258H1917V244H1852V147.948L1885 125L1918 147.948V157.124L1966 149V170.692L1998 149L2031 171.37V186H2078V284H2031V265H1965V258ZM2716 79.3696L2749 57L2782 79.3696V173H2716V79.3696ZM2845 88H2798V186H2845V88Z" fill="#405E7A"/>
</g>
<defs>
<clipPath id="clip0_791_2713">
<rect width="2880" height="345" fill="white"/>
</clipPath>
</defs>
</svg>
