<svg width="2880" height="618" viewBox="0 0 2880 618" fill="none" xmlns="http://www.w3.org/2000/svg">
<path fill-rule="evenodd" clip-rule="evenodd" d="M785.914 115C796.936 115 805.871 123.935 805.871 134.957C805.871 145.979 796.936 154.914 785.914 154.914H761.167C761.167 158.065 760.437 161.045 759.137 163.695H876.12C887.142 163.695 896.077 172.63 896.077 183.652H924.815C935.837 183.652 944.772 192.587 944.772 203.609C944.772 214.631 935.837 223.567 924.815 223.567H883.858C884.534 225.572 884.901 227.719 884.901 229.953C884.901 240.975 875.966 249.91 864.944 249.91H770.747C759.725 249.91 750.79 240.975 750.79 229.953C750.79 218.931 759.725 209.996 770.747 209.996H826.074C825.397 207.991 825.03 205.843 825.03 203.609H725.245C725.245 214.631 716.31 223.567 705.288 223.567H617.042C618.343 226.216 619.073 229.197 619.073 232.348H689.322C700.344 232.348 709.279 241.283 709.279 252.305C709.279 253.672 709.142 255.006 708.88 256.296H732.429C743.451 256.296 752.386 265.231 752.386 276.253C752.386 287.275 743.451 296.21 732.429 296.21H644.618C633.596 296.21 624.661 287.275 624.661 276.253C624.661 274.886 624.798 273.551 625.06 272.262H606.665C607.965 274.912 608.695 277.892 608.695 281.043C608.695 292.065 599.76 301 588.738 301H488.154C477.132 301 468.197 292.065 468.197 281.043C468.197 270.021 477.132 261.086 488.154 261.086H530.099C528.799 258.436 528.069 255.456 528.069 252.305H393.957C382.935 252.305 374 243.37 374 232.348C374 221.326 382.935 212.391 393.957 212.391H546.065C544.764 209.741 544.034 206.76 544.034 203.609C544.034 192.587 552.969 183.652 563.991 183.652H646.214C646.214 180.501 646.945 177.521 648.245 174.871H599.914C590.543 174.871 582.681 168.413 580.536 159.704H550.421C550.421 170.726 541.485 179.661 530.463 179.661H417.107C406.085 179.661 397.15 170.726 397.15 159.704C397.15 148.682 406.085 139.747 417.107 139.747L500.927 139.747C500.927 128.725 509.862 119.79 520.884 119.79H621.468C630.839 119.79 638.701 126.248 640.846 134.957L686.927 134.957C686.927 123.935 695.862 115 706.884 115H785.914Z" fill="white"/>
<path fill-rule="evenodd" clip-rule="evenodd" d="M457.014 0C466.395 0 474 7.60498 474 16.9862C474 26.3674 466.395 33.9724 457.014 33.9724H432.779C433.511 35.8698 433.913 37.9317 433.913 40.0874C433.913 49.4686 426.308 57.0736 416.926 57.0736H264.917C265.239 58.3796 265.41 59.745 265.41 61.1503H278.319C287.7 61.1503 295.305 68.7553 295.305 78.1365C295.305 87.5177 287.7 95.1227 278.319 95.1227H252.81C253.917 97.3781 254.538 99.9148 254.538 102.597C254.538 111.978 246.933 119.583 237.552 119.583H151.262C151.262 128.964 143.657 136.569 134.276 136.569H47.9862C38.605 136.569 31 128.964 31 119.583C31 110.202 38.605 102.597 47.9862 102.597H69.0491C69.0491 93.2154 76.6541 85.6104 86.0353 85.6104H184.245C183.138 83.3551 182.517 80.8184 182.517 78.1365H164.851C155.47 78.1365 147.865 70.5315 147.865 61.1503H111.175C101.794 61.1503 94.1886 53.5453 94.1886 44.1641C94.1886 34.7829 101.794 27.1779 111.175 27.1779H153.301C162.682 27.1779 170.287 34.7829 170.287 44.1641H214.943C214.622 42.8581 214.451 41.4927 214.451 40.0874C214.451 30.7062 222.056 23.1012 231.437 23.1012H356.231C355.498 21.2038 355.097 19.1419 355.097 16.9862C355.097 7.60498 362.702 0 372.083 0H457.014Z" fill="white"/>
</svg>
