<svg width="2880" height="596" viewBox="0 0 2880 596" fill="none" xmlns="http://www.w3.org/2000/svg">
<g clip-path="url(#clip0_793_894)">
<path fill-rule="evenodd" clip-rule="evenodd" d="M825.676 507.191H958.102C976.386 507.191 991.208 522.014 991.208 540.298L1130.26 540.298C1148.54 540.298 1163.36 555.12 1163.36 573.404C1163.36 577.109 1162.75 580.672 1161.63 583.998H1266.65C1284.94 583.998 1299.76 598.821 1299.76 617.105C1299.76 635.389 1284.94 650.211 1266.65 650.211H1188.12C1189.24 653.538 1189.85 657.1 1189.85 660.805C1189.85 679.09 1175.02 693.912 1156.74 693.912H1024.31C1006.03 693.912 991.208 679.09 991.208 660.805C991.208 642.521 1006.03 627.699 1024.31 627.699H1041.94C1040.81 624.373 1040.21 620.81 1040.21 617.105C1040.21 613.4 1040.81 609.837 1041.94 606.511H936.914C918.629 606.511 903.807 591.689 903.807 573.404L825.676 573.404C807.392 573.404 792.569 558.582 792.569 540.298C792.569 522.014 807.392 507.191 825.676 507.191Z" fill="white"/>
<path fill-rule="evenodd" clip-rule="evenodd" d="M1964.42 459.499C1964.42 443.419 1951.38 430.384 1935.3 430.384H1858.44C1842.36 430.384 1829.33 443.419 1829.33 459.499C1829.33 475.578 1842.36 488.613 1858.44 488.613H1901.89C1900.9 491.538 1900.37 494.671 1900.37 497.929C1900.37 514.009 1913.4 527.043 1929.48 527.043H2034.66C2034.42 528.56 2034.29 530.116 2034.29 531.702C2034.29 534.96 2034.83 538.093 2035.81 541.018H1852.62C1836.54 541.018 1823.5 554.053 1823.5 570.133C1823.5 586.212 1836.54 599.247 1852.62 599.247L1866.59 599.247C1866.59 615.326 1879.63 628.361 1895.71 628.361H2033.13C2049.21 628.361 2062.24 615.326 2062.24 599.247L2072.72 599.247C2075.58 599.247 2078.34 598.836 2080.94 598.071C2085.89 607.099 2095.48 613.222 2106.5 613.222H2305.64C2321.72 613.222 2334.75 600.187 2334.75 584.107C2334.75 568.028 2321.72 554.993 2305.64 554.993H2239.26C2246.33 549.681 2250.9 541.226 2250.9 531.702L2281.18 531.702C2297.26 531.702 2310.29 518.667 2310.29 502.588C2310.29 486.508 2297.26 473.473 2281.18 473.473H2204.32C2188.24 473.473 2175.2 486.508 2175.2 502.588L2116.61 502.588C2116.85 501.071 2116.98 499.515 2116.98 497.929C2116.98 481.85 2103.94 468.815 2087.86 468.815H1962.9C1963.88 465.89 1964.42 462.757 1964.42 459.499Z" fill="white"/>
<path fill-rule="evenodd" clip-rule="evenodd" d="M1568 546C1565.02 541.343 1563.29 535.808 1563.29 529.869C1563.29 513.377 1576.61 499.997 1593.08 499.908V499.908H1593.25H1742.34C1743.4 499.796 1744.46 499.738 1745.55 499.738C1762.09 499.738 1775.51 513.152 1775.51 529.699C1775.51 534.43 1774.41 538.904 1772.46 542.882L1818.65 542.882C1818.65 526.335 1832.07 512.921 1848.61 512.921H2051.15C2067.7 512.921 2081.11 526.335 2081.11 542.882C2081.11 559.429 2067.7 572.843 2051.15 572.843L1948.08 572.843C1948.08 577.104 1947.19 581.157 1945.59 584.827H2005.61C2022.16 584.827 2035.57 598.241 2035.57 614.788C2035.57 631.335 2022.16 644.749 2005.61 644.749H1878.57H1878.57C1862.03 644.749 1848.61 631.335 1848.61 614.788C1848.61 610.527 1849.5 606.474 1851.11 602.804H1802.98C1804.58 606.474 1805.47 610.527 1805.47 614.788C1805.47 631.227 1792.23 644.574 1775.83 644.747V644.914H1717.98C1717.89 661.385 1704.51 674.71 1688.02 674.71H1455.53H1455.53C1438.98 674.71 1425.56 661.296 1425.56 644.749C1425.56 628.202 1438.98 614.788 1455.53 614.788H1455.53L1458.01 614.788C1458.01 610.912 1458.75 607.208 1460.09 603.808C1456.73 605.113 1453.07 605.83 1449.25 605.83C1432.7 605.83 1419.29 592.416 1419.29 575.869C1419.29 559.322 1432.7 545.908 1449.25 545.908C1450.05 545.908 1450.84 545.939 1451.62 546H1568Z" fill="white"/>
<path fill-rule="evenodd" clip-rule="evenodd" d="M1501.58 493.981C1514.39 493.981 1524.77 483.598 1524.77 470.79C1524.77 457.982 1514.39 447.6 1501.58 447.6H1321.62C1308.82 447.6 1298.43 457.982 1298.43 470.79L1182.48 470.79C1169.67 470.79 1159.29 481.173 1159.29 493.981C1159.29 499.626 1161.31 504.801 1164.66 508.823L1070.24 508.823C1070.24 496.326 1060.35 486.137 1047.98 485.65V485.632H1047.05H942.227H942.227C929.419 485.632 919.036 496.015 919.036 508.823C919.036 521.63 929.419 532.013 942.227 532.013H942.227L986.752 532.013C986.752 544.821 997.135 555.204 1009.94 555.204H1009.94H1133.31C1132.71 557.264 1132.39 559.443 1132.39 561.697C1132.39 574.505 1142.77 584.888 1155.58 584.888L1222.37 584.888C1222.37 587.831 1222.92 590.646 1223.92 593.236H1139.81C1139.81 593.236 1139.81 593.236 1139.81 593.236C1127 593.236 1116.62 603.619 1116.62 616.427C1116.62 629.234 1127 639.617 1139.81 639.617C1139.81 639.617 1139.81 639.617 1139.81 639.617H1281.74C1281.74 639.617 1281.74 639.617 1281.74 639.617C1294.54 639.617 1304.93 629.234 1304.93 616.427C1304.93 613.484 1304.38 610.669 1303.38 608.078H1462.62C1475.43 608.078 1485.81 597.695 1485.81 584.888C1485.81 572.08 1475.43 561.697 1462.62 561.697L1358.73 561.697C1358.73 548.889 1348.35 538.506 1335.54 538.506H1261.33C1261.93 536.446 1262.26 534.267 1262.26 532.013C1262.26 526.368 1260.24 521.193 1256.89 517.171H1411.6C1424.41 517.171 1434.79 506.789 1434.79 493.981L1501.58 493.981Z" fill="white"/>
<path fill-rule="evenodd" clip-rule="evenodd" d="M1586.55 310.106L1586.55 310.106C1577.41 310.106 1570 302.695 1570 293.553C1570 284.411 1577.41 277 1586.55 277L1586.57 277H1652.77C1661.91 277 1669.32 284.411 1669.32 293.553L1738.84 293.553C1747.99 293.553 1755.4 300.964 1755.4 310.106C1755.4 311.959 1755.09 313.74 1754.53 315.404H1807.04C1816.18 315.404 1823.6 322.815 1823.6 331.957C1823.6 341.099 1816.18 348.51 1807.04 348.51H1767.77C1768.33 350.173 1768.64 351.955 1768.64 353.807C1768.64 362.949 1761.23 370.36 1752.09 370.36H1685.87H1685.87C1676.73 370.36 1669.32 362.949 1669.32 353.807C1669.32 344.665 1676.73 337.254 1685.87 337.254H1685.87H1694.68C1694.12 335.591 1693.82 333.809 1693.82 331.957C1693.82 330.104 1694.12 328.323 1694.68 326.66H1642.17C1642.17 326.66 1642.17 326.66 1642.17 326.66C1633.03 326.66 1625.62 319.249 1625.62 310.106L1586.55 310.106Z" fill="white"/>
<path fill-rule="evenodd" clip-rule="evenodd" d="M2557.24 528.764C2557.24 512.461 2544.03 499.246 2527.72 499.246H2406.11C2389.81 499.246 2376.59 512.461 2376.59 528.764C2376.59 545.066 2389.81 558.282 2406.11 558.282H2454.61C2453.03 561.897 2452.16 565.891 2452.16 570.089L2356.52 570.089C2340.22 570.089 2327 583.305 2327 599.607C2327 615.909 2340.22 629.125 2356.52 629.125H2414.74C2413.73 632.091 2413.19 635.267 2413.19 638.571C2413.19 654.873 2426.41 668.089 2442.71 668.089H2952.78C2969.08 668.089 2982.3 654.873 2982.3 638.571C2982.3 622.268 2969.08 609.053 2952.78 609.053L2837.07 609.053C2837.07 605.749 2836.53 602.573 2835.53 599.607H2915C2931.3 599.607 2944.52 586.391 2944.52 570.089C2944.52 565.891 2943.64 561.897 2942.06 558.282H3109.82C3126.12 558.282 3139.34 545.066 3139.34 528.764C3139.34 512.461 3126.12 499.246 3109.82 499.246H2853.6C2837.3 499.246 2824.08 512.461 2824.08 528.764C2824.08 532.962 2824.96 536.955 2826.54 540.571H2792.2C2775.9 540.571 2762.69 553.786 2762.69 570.089C2762.69 573.392 2763.23 576.569 2764.23 579.535H2730.44C2731.44 576.569 2731.99 573.392 2731.99 570.089C2731.99 553.786 2718.77 540.571 2702.47 540.571H2554.78C2556.36 536.955 2557.24 532.962 2557.24 528.764Z" fill="white"/>
<path fill-rule="evenodd" clip-rule="evenodd" d="M1014.91 519.945C1014.91 502.662 1000.9 488.651 983.615 488.651H762.053C744.77 488.651 730.759 502.662 730.759 519.945C730.759 521.65 730.895 523.322 731.157 524.953H621.856C606.277 524.953 593.356 536.336 590.96 551.24H517.959C500.676 551.24 486.665 565.25 486.665 582.534C486.665 599.817 500.676 613.828 517.959 613.828H594.395C591.951 618.287 590.561 623.405 590.561 628.849C590.561 646.132 604.572 660.143 621.855 660.143H788.34C803.919 660.143 816.839 648.759 819.236 633.856H903.502C920.786 633.856 934.796 619.845 934.796 602.562C934.796 585.279 920.786 571.268 903.502 571.268H839.584C842.028 566.809 843.418 561.69 843.418 556.247C843.418 554.542 843.281 552.87 843.019 551.24H983.615C1000.9 551.24 1014.91 537.229 1014.91 519.945Z" fill="white"/>
<path fill-rule="evenodd" clip-rule="evenodd" d="M243.728 599.889C228.7 599.889 216.517 587.707 216.517 572.679C216.517 557.65 228.7 545.468 243.728 545.468H424.476C422.351 541.591 421.142 537.14 421.142 532.407L331.891 532.407C316.863 532.407 304.68 520.224 304.68 505.196C304.68 490.168 316.863 477.985 331.891 477.985H377.245C376.071 474.946 375.428 471.642 375.428 468.189C375.428 453.161 387.611 440.978 402.639 440.978H568.081C583.109 440.978 595.291 453.161 595.291 468.189C595.291 483.217 583.109 495.4 568.081 495.4H477.013C478.186 498.439 478.829 501.743 478.829 505.196L669.305 505.196C684.333 505.196 696.516 517.378 696.516 532.407C696.516 547.435 684.333 559.617 669.305 559.617H566.924C569.049 563.494 570.257 567.945 570.257 572.679C570.257 587.707 558.075 599.889 543.047 599.889H243.728Z" fill="white"/>
<path fill-rule="evenodd" clip-rule="evenodd" d="M0 657V534.324H177.548C175.718 530.595 174.691 526.401 174.691 521.967C174.691 520.043 174.884 518.164 175.252 516.35H96.0534C80.5426 516.35 67.9687 503.776 67.9687 488.265C67.9687 472.754 80.5427 460.18 96.0534 460.18H301.633C317.144 460.18 329.718 472.754 329.718 488.265C329.718 490.188 329.525 492.067 329.156 493.882H408.355C423.866 493.882 436.44 506.456 436.44 521.967C436.44 537.477 423.866 550.051 408.355 550.051H335.848C337.678 553.78 338.705 557.974 338.705 562.409C338.705 564.332 338.512 566.211 338.143 568.025H481.376C496.886 568.025 509.46 580.599 509.46 596.11C509.46 611.621 496.886 624.195 481.376 624.195H351.07C351.797 626.69 352.186 629.329 352.186 632.059C352.186 647.569 339.612 660.143 324.101 660.143H12.9227C8.26298 660.143 3.86832 659.008 0 657Z" fill="white"/>
<path fill-rule="evenodd" clip-rule="evenodd" d="M-322.637 528.764C-322.637 512.461 -335.853 499.246 -352.155 499.246H-473.77C-490.072 499.246 -503.288 512.461 -503.288 528.764C-503.288 545.066 -490.072 558.282 -473.77 558.282H-425.265C-426.845 561.897 -427.722 565.891 -427.722 570.089L-523.36 570.089C-539.662 570.089 -552.878 583.305 -552.878 599.607C-552.878 615.909 -539.662 629.125 -523.36 629.125H-465.142C-466.143 632.091 -466.685 635.267 -466.685 638.571C-466.685 654.873 -453.47 668.089 -437.167 668.089H72.904C89.2064 668.089 102.422 654.873 102.422 638.571C102.422 622.268 89.2064 609.053 72.904 609.053L-42.8066 609.053C-42.8066 605.749 -43.3493 602.573 -44.3503 599.607H35.1209C51.4232 599.607 64.6389 586.391 64.6389 570.089C64.6389 565.891 63.7625 561.897 62.1828 558.282H229.94C246.242 558.282 259.458 545.066 259.458 528.764C259.458 512.461 246.242 499.246 229.94 499.246H-26.2766C-42.5789 499.246 -55.7946 512.461 -55.7946 528.764C-55.7946 532.962 -54.9182 536.955 -53.3385 540.571H-87.6741C-103.976 540.571 -117.192 553.786 -117.192 570.089C-117.192 573.392 -116.649 576.569 -115.648 579.535H-149.434C-148.433 576.569 -147.891 573.392 -147.891 570.089C-147.891 553.786 -161.106 540.571 -177.409 540.571H-325.094C-323.514 536.955 -322.637 532.962 -322.637 528.764Z" fill="white"/>
<path fill-rule="evenodd" clip-rule="evenodd" d="M3162.03 460.18C3177.54 460.18 3190.12 472.754 3190.12 488.265C3190.12 490.188 3189.93 492.067 3189.56 493.882H3268.76C3284.27 493.882 3296.84 506.456 3296.84 521.967C3296.84 537.477 3284.27 550.051 3268.76 550.051H3196.25C3198.08 553.78 3199.11 557.974 3199.11 562.409C3199.11 564.332 3198.91 566.211 3198.54 568.025H3341.78C3357.29 568.025 3369.86 580.599 3369.86 596.11C3369.86 611.621 3357.29 624.195 3341.78 624.195H3211.47C3212.2 626.69 3212.59 629.329 3212.59 632.059C3212.59 647.569 3200.01 660.143 3184.5 660.143H2873.32C2857.81 660.143 2845.24 647.569 2845.24 632.059C2845.24 631.302 2845.27 630.553 2845.33 629.812H2707.06C2691.55 629.812 2678.98 617.238 2678.98 601.727C2678.98 586.216 2691.55 573.642 2707.06 573.642H2834.09C2832.59 570.202 2831.76 566.403 2831.76 562.409C2831.76 546.898 2844.33 534.324 2859.84 534.324H3037.95C3036.12 530.595 3035.09 526.401 3035.09 521.967C3035.09 520.043 3035.28 518.164 3035.65 516.35H2956.45C2940.94 516.35 2928.37 503.776 2928.37 488.265C2928.37 472.754 2940.94 460.18 2956.45 460.18H3162.03Z" fill="white"/>
<path fill-rule="evenodd" clip-rule="evenodd" d="M15.8913 284.716C15.8913 275.573 8.48018 268.162 -0.661911 268.162H-127.791C-136.933 268.162 -144.344 275.573 -144.344 284.716C-144.344 287.595 -143.609 290.303 -142.316 292.661H-213.206C-222.348 292.661 -229.759 300.072 -229.759 309.214C-229.759 318.356 -222.348 325.768 -213.206 325.768L-123.818 325.768C-123.818 334.91 -116.407 342.321 -107.265 342.321L-39.0654 342.321C-39.0654 351.463 -31.6543 358.874 -22.5122 358.874H103.11C102.797 360.147 102.63 361.477 102.63 362.847C102.63 363.748 102.702 364.633 102.841 365.495H58.9298C49.7876 365.495 42.3765 372.907 42.3765 382.049C42.3765 383.658 42.6061 385.213 43.0342 386.684H-28.4714C-37.6135 386.684 -45.0246 394.095 -45.0246 403.237C-45.0246 412.379 -37.6135 419.79 -28.4714 419.79H154.939C164.081 419.79 171.492 412.379 171.492 403.237C171.492 394.095 164.081 386.684 154.939 386.684H127.134C127.562 385.213 127.791 383.658 127.791 382.049C127.791 381.147 127.719 380.263 127.581 379.4H160.898C170.04 379.4 177.451 371.989 177.451 362.847C177.451 361.477 177.285 360.147 176.971 358.874H213.206C222.348 358.874 229.759 351.463 229.759 342.321C229.759 333.179 222.348 325.768 213.206 325.768L48.9978 325.768C48.9978 316.625 41.5867 309.214 32.4445 309.214L-50.3217 309.214C-50.3217 306.335 -51.0568 303.627 -52.3497 301.269H-0.661911C8.48019 301.269 15.8913 293.858 15.8913 284.716Z" fill="white"/>
<path fill-rule="evenodd" clip-rule="evenodd" d="M2895.65 284.716C2895.65 275.574 2888.24 268.163 2879.1 268.163H2751.97C2742.83 268.163 2735.41 275.574 2735.41 284.716C2735.41 287.595 2736.15 290.303 2737.44 292.661H2666.55C2657.41 292.661 2650 300.073 2650 309.215C2650 318.357 2657.41 325.768 2666.55 325.768L2755.94 325.768C2755.94 334.91 2763.35 342.321 2772.49 342.321L2840.69 342.321C2840.69 351.463 2848.1 358.874 2857.25 358.874H2982.87C2982.56 360.147 2982.39 361.478 2982.39 362.847C2982.39 363.749 2982.46 364.633 2982.6 365.496H2938.69C2929.55 365.496 2922.14 372.907 2922.14 382.049C2922.14 383.658 2922.37 385.213 2922.79 386.684H2851.29C2842.15 386.684 2834.73 394.095 2834.73 403.237C2834.73 412.379 2842.15 419.79 2851.29 419.79H3034.7C3043.84 419.79 3051.25 412.379 3051.25 403.237C3051.25 394.095 3043.84 386.684 3034.7 386.684H3006.89C3007.32 385.213 3007.55 383.658 3007.55 382.049C3007.55 381.147 3007.48 380.263 3007.34 379.4H3040.66C3049.8 379.4 3057.21 371.989 3057.21 362.847C3057.21 361.478 3057.04 360.147 3056.73 358.874H3092.96C3102.11 358.874 3109.52 351.463 3109.52 342.321C3109.52 333.179 3102.11 325.768 3092.96 325.768L2928.76 325.768C2928.76 316.626 2921.35 309.215 2912.2 309.215L2829.44 309.215C2829.44 306.335 2828.7 303.628 2827.41 301.269H2879.1C2888.24 301.269 2895.65 293.858 2895.65 284.716Z" fill="white"/>
<path fill-rule="evenodd" clip-rule="evenodd" d="M2225.42 293.986C2225.42 284.844 2218.01 277.432 2208.86 277.432H2104.91C2095.77 277.432 2088.36 284.844 2088.36 293.986C2088.36 303.128 2095.77 310.539 2104.91 310.539H2170.9C2170.19 312.388 2169.8 314.397 2169.8 316.498C2169.8 318.599 2170.19 320.608 2170.9 322.457H2098.29C2092.03 322.457 2086.58 325.935 2083.76 331.065H1946C1936.86 331.065 1929.45 338.476 1929.45 347.618C1929.45 356.76 1936.86 364.171 1946 364.171L2034.06 364.171C2034.06 373.313 2041.47 380.725 2050.62 380.725L2122.79 380.725C2122.79 389.867 2130.2 397.278 2139.34 397.278H2263.16C2272.3 397.278 2279.71 389.867 2279.71 380.725C2279.71 379.355 2279.55 378.025 2279.23 376.752H2318.12C2327.26 376.752 2334.67 369.341 2334.67 360.199C2334.67 351.056 2327.26 343.645 2318.12 343.645H2261.83C2252.69 343.645 2245.28 351.056 2245.28 360.199C2245.28 361.568 2245.45 362.899 2245.76 364.171L2190.99 364.171C2190.99 361.019 2190.11 358.072 2188.58 355.564H2222.11C2231.25 355.564 2238.66 348.153 2238.66 339.01C2238.66 336.91 2238.27 334.9 2237.55 333.051H2300.24C2309.38 333.051 2316.79 325.64 2316.79 316.498C2316.79 307.356 2309.38 299.945 2300.24 299.945H2224.31C2225.03 298.096 2225.42 296.086 2225.42 293.986Z" fill="white"/>
</g>
<defs>
<clipPath id="clip0_793_894">
<rect width="2880" height="596" fill="white"/>
</clipPath>
</defs>
</svg>
