<svg width="704" height="704" viewBox="0 0 704 704" fill="none" xmlns="http://www.w3.org/2000/svg">
<g filter="url(#filter0_d_1692_10909)">
<rect x="32" y="32" width="640" height="640" rx="20" fill="white"/>
<circle cx="256" cy="165" r="32" fill="#AC0017"/>
<g clip-path="url(#clip0_1692_10909)">
<path fill-rule="evenodd" clip-rule="evenodd" d="M156.605 173.003C156.404 173.001 156.202 173 156 173C126.729 173 103 196.729 103 226C103 227.657 104.343 229 106 229C107.657 229 109 227.657 109 226C109 200.043 130.043 179 156 179C181.957 179 203 200.043 203 226C203 227.657 204.343 229 206 229C206.768 229 207.469 228.711 208 228.236C208.531 228.711 209.232 229 210 229C211.657 229 213 227.657 213 226C213 200.043 234.043 179 260 179C285.957 179 307 200.043 307 226C307 227.657 308.343 229 310 229C311.657 229 313 227.657 313 226C313 196.729 289.271 173 260 173C259.798 173 259.596 173.001 259.395 173.003C253.6 150.016 232.787 133 208 133C183.213 133 162.4 150.016 156.605 173.003ZM162.703 173.42C165.731 173.802 168.68 174.44 171.527 175.311C172.236 172.901 173.196 170.526 174.417 168.219C175.192 166.755 177.007 166.196 178.472 166.972C179.936 167.747 180.495 169.562 179.719 171.027C178.624 173.096 177.778 175.231 177.171 177.397C180.045 178.651 182.787 180.153 185.369 181.874C187.313 171.141 196.706 163 208 163C219.294 163 228.687 171.141 230.631 181.874C233.214 180.152 235.956 178.651 238.831 177.397C237.866 173.94 236.3 170.588 234.105 167.493C223.884 153.075 203.91 149.674 189.493 159.895C188.141 160.853 186.269 160.534 185.31 159.182C184.352 157.831 184.671 155.958 186.023 155C203.144 142.862 226.862 146.902 239 164.023C241.506 167.557 243.322 171.373 244.476 175.31C247.322 174.439 250.27 173.802 253.297 173.42C247.797 153.571 229.6 139 208 139C186.4 139 168.203 153.571 162.703 173.42ZM225.006 186.194C225.002 186.13 225 186.065 225 186C225 176.611 217.389 169 208 169C198.611 169 191 176.611 191 186C191 186.065 190.998 186.13 190.994 186.194C199.581 193.749 205.703 204.038 208 215.701C210.297 204.038 216.419 193.749 225.006 186.194ZM156 194C138.327 194 124 208.327 124 226C124 227.657 122.657 229 121 229C119.343 229 118 227.657 118 226C118 205.013 135.013 188 156 188C176.987 188 194 205.013 194 226C194 227.657 192.657 229 191 229C189.343 229 188 227.657 188 226C188 208.327 173.673 194 156 194ZM139 226C139 216.611 146.611 209 156 209C165.389 209 173 216.611 173 226C173 227.657 174.343 229 176 229C177.657 229 179 227.657 179 226C179 213.297 168.703 203 156 203C143.297 203 133 213.297 133 226C133 227.657 134.343 229 136 229C137.657 229 139 227.657 139 226ZM260 194C242.327 194 228 208.327 228 226C228 227.657 226.657 229 225 229C223.343 229 222 227.657 222 226C222 205.013 239.013 188 260 188C280.987 188 298 205.013 298 226C298 227.657 296.657 229 295 229C293.343 229 292 227.657 292 226C292 208.327 277.673 194 260 194ZM243 226C243 216.611 250.611 209 260 209C269.389 209 277 216.611 277 226C277 227.657 278.343 229 280 229C281.657 229 283 227.657 283 226C283 213.297 272.703 203 260 203C247.297 203 237 213.297 237 226C237 227.657 238.343 229 240 229C241.657 229 243 227.657 243 226Z" fill="#243B64"/>
</g>
<path d="M128.827 270.576C130.903 270.576 132.847 270.18 134.659 269.388C136.471 268.596 138.061 267.498 139.429 266.094C140.797 264.678 141.865 263.04 142.633 261.18C143.413 259.308 143.803 257.304 143.803 255.168C143.803 253.032 143.413 251.034 142.633 249.174C141.865 247.302 140.797 245.664 139.429 244.26C138.061 242.844 136.471 241.74 134.659 240.948C132.847 240.156 130.903 239.76 128.827 239.76C126.751 239.76 124.807 240.156 122.995 240.948C121.183 241.74 119.593 242.844 118.225 244.26C116.857 245.664 115.783 247.302 115.003 249.174C114.235 251.034 113.851 253.032 113.851 255.168C113.851 257.304 114.235 259.308 115.003 261.18C115.783 263.04 116.857 264.678 118.225 266.094C119.593 267.498 121.183 268.596 122.995 269.388C124.807 270.18 126.751 270.576 128.827 270.576ZM128.827 263.88C127.351 263.88 126.049 263.514 124.921 262.782C123.793 262.05 122.911 261.03 122.275 259.722C121.639 258.402 121.321 256.884 121.321 255.168C121.321 253.44 121.639 251.922 122.275 250.614C122.911 249.306 123.793 248.286 124.921 247.554C126.049 246.822 127.351 246.456 128.827 246.456C130.315 246.456 131.617 246.822 132.733 247.554C133.861 248.286 134.743 249.306 135.379 250.614C136.015 251.922 136.333 253.44 136.333 255.168C136.333 256.884 136.015 258.402 135.379 259.722C134.743 261.03 133.861 262.05 132.733 262.782C131.617 263.514 130.315 263.88 128.827 263.88ZM149.061 270H155.991V257.778L166.791 270H176.349L162.399 254.43L174.477 240.3H166.017L155.991 252.252V240.3H149.061V270ZM179.577 270H186.507V240.3H179.577V270ZM190.551 270H216.219V263.916H202.665L217.155 240.3H192.657V246.384H205.041L190.551 270ZM221.589 270H238.653V263.916H228.519V258.156H238.221V252.072H228.519V246.384H238.653V240.3H221.589V270ZM244.217 270H251.165L252.479 252.702L258.635 269.658H262.811L268.967 252.702L270.299 270H277.229L274.601 240.3H267.221L260.723 257.184L254.225 240.3H246.845L244.217 270ZM283.499 270H300.563V263.916H290.429V258.156H300.131V252.072H290.429V246.384H300.563V240.3H283.499V270Z" fill="#243B64"/>
<g clip-path="url(#clip1_1692_10909)">
<path fill-rule="evenodd" clip-rule="evenodd" d="M157.674 472.223C157.532 472.221 157.39 472.22 157.248 472.22C136.677 472.22 120 488.897 120 509.469C120 510.633 120.944 511.577 122.108 511.577C123.273 511.577 124.217 510.633 124.217 509.469C124.217 491.226 139.005 476.437 157.248 476.437C175.491 476.437 190.28 491.226 190.28 509.469C190.28 510.633 191.224 511.577 192.388 511.577C192.928 511.577 193.421 511.374 193.794 511.04C194.167 511.374 194.659 511.577 195.199 511.577C196.364 511.577 197.308 510.633 197.308 509.469C197.308 491.226 212.096 476.437 230.339 476.437C248.582 476.437 263.371 491.226 263.371 509.469C263.371 510.633 264.315 511.577 265.479 511.577C266.643 511.577 267.587 510.633 267.587 509.469C267.587 488.897 250.911 472.22 230.339 472.22C230.197 472.22 230.055 472.221 229.914 472.223C225.841 456.067 211.214 444.108 193.794 444.108C176.373 444.108 161.746 456.067 157.674 472.223ZM161.959 472.515C164.087 472.784 166.16 473.232 168.16 473.844C168.659 472.15 169.333 470.481 170.191 468.86C170.736 467.831 172.012 467.439 173.041 467.984C174.07 468.528 174.463 469.804 173.918 470.833C173.148 472.288 172.554 473.788 172.127 475.311C174.147 476.192 176.074 477.247 177.889 478.457C179.255 470.914 185.856 465.192 193.794 465.192C201.731 465.192 208.333 470.914 209.699 478.457C211.514 477.247 213.441 476.192 215.462 475.31C214.784 472.881 213.683 470.525 212.14 468.35C204.957 458.217 190.92 455.826 180.787 463.01C179.837 463.683 178.521 463.459 177.848 462.509C177.174 461.559 177.398 460.243 178.348 459.57C190.381 451.04 207.05 453.879 215.58 465.911C217.341 468.395 218.618 471.077 219.429 473.844C221.429 473.232 223.501 472.784 225.629 472.515C221.763 458.566 208.974 448.325 193.794 448.325C178.613 448.325 165.825 458.566 161.959 472.515ZM205.746 481.493C205.743 481.448 205.741 481.402 205.741 481.357C205.741 474.758 200.392 469.409 193.794 469.409C187.195 469.409 181.846 474.758 181.846 481.357C181.846 481.402 181.845 481.448 181.842 481.493C187.877 486.803 192.18 494.034 193.794 502.23C195.408 494.034 199.711 486.803 205.746 481.493ZM157.248 486.979C144.828 486.979 134.759 497.048 134.759 509.469C134.759 510.633 133.815 511.577 132.65 511.577C131.486 511.577 130.542 510.633 130.542 509.469C130.542 494.719 142.499 482.762 157.248 482.762C171.998 482.762 183.955 494.719 183.955 509.469C183.955 510.633 183.011 511.577 181.846 511.577C180.682 511.577 179.738 510.633 179.738 509.469C179.738 497.048 169.669 486.979 157.248 486.979ZM145.301 509.469C145.301 502.87 150.65 497.521 157.248 497.521C163.847 497.521 169.196 502.87 169.196 509.469C169.196 510.633 170.14 511.577 171.304 511.577C172.469 511.577 173.413 510.633 173.413 509.469C173.413 500.541 166.176 493.304 157.248 493.304C148.321 493.304 141.084 500.541 141.084 509.469C141.084 510.633 142.028 511.577 143.192 511.577C144.357 511.577 145.301 510.633 145.301 509.469ZM230.339 486.979C217.919 486.979 207.85 497.048 207.85 509.469C207.85 510.633 206.906 511.577 205.741 511.577C204.577 511.577 203.633 510.633 203.633 509.469C203.633 494.719 215.59 482.762 230.339 482.762C245.089 482.762 257.045 494.719 257.045 509.469C257.045 510.633 256.101 511.577 254.937 511.577C253.773 511.577 252.829 510.633 252.829 509.469C252.829 497.048 242.76 486.979 230.339 486.979ZM218.392 509.469C218.392 502.87 223.741 497.521 230.339 497.521C236.938 497.521 242.287 502.87 242.287 509.469C242.287 510.633 243.231 511.577 244.395 511.577C245.56 511.577 246.503 510.633 246.503 509.469C246.503 500.541 239.266 493.304 230.339 493.304C221.412 493.304 214.175 500.541 214.175 509.469C214.175 510.633 215.119 511.577 216.283 511.577C217.448 511.577 218.392 510.633 218.392 509.469Z" fill="#243B64"/>
</g>
<path d="M139.019 541.4C140.46 541.4 141.81 541.125 143.069 540.575C144.327 540.025 145.431 539.262 146.381 538.287C147.331 537.304 148.073 536.167 148.606 534.875C149.148 533.575 149.419 532.183 149.419 530.7C149.419 529.217 149.148 527.829 148.606 526.537C148.073 525.237 147.331 524.1 146.381 523.125C145.431 522.142 144.327 521.375 143.069 520.825C141.81 520.275 140.46 520 139.019 520C137.577 520 136.227 520.275 134.969 520.825C133.71 521.375 132.606 522.142 131.656 523.125C130.706 524.1 129.96 525.237 129.419 526.537C128.885 527.829 128.619 529.217 128.619 530.7C128.619 532.183 128.885 533.575 129.419 534.875C129.96 536.167 130.706 537.304 131.656 538.287C132.606 539.262 133.71 540.025 134.969 540.575C136.227 541.125 137.577 541.4 139.019 541.4ZM139.019 536.75C137.994 536.75 137.09 536.496 136.306 535.987C135.523 535.479 134.91 534.771 134.469 533.862C134.027 532.946 133.806 531.892 133.806 530.7C133.806 529.5 134.027 528.446 134.469 527.537C134.91 526.629 135.523 525.921 136.306 525.412C137.09 524.904 137.994 524.65 139.019 524.65C140.052 524.65 140.956 524.904 141.731 525.412C142.515 525.921 143.127 526.629 143.569 527.537C144.01 528.446 144.231 529.5 144.231 530.7C144.231 531.892 144.01 532.946 143.569 533.862C143.127 534.771 142.515 535.479 141.731 535.987C140.956 536.496 140.052 536.75 139.019 536.75ZM153.07 541H157.883V532.512L165.383 541H172.02L162.333 530.187L170.72 520.375H164.845L157.883 528.675V520.375H153.07V541ZM174.262 541H179.074V520.375H174.262V541ZM181.883 541H199.708V536.775H190.295L200.358 520.375H183.345V524.6H191.945L181.883 541ZM203.437 541H215.287V536.775H208.249V532.775H214.987V528.55H208.249V524.6H215.287V520.375H203.437V541ZM219.151 541H223.976L224.888 528.987L229.163 540.762H232.063L236.338 528.987L237.263 541H242.076L240.251 520.375H235.126L230.613 532.1L226.101 520.375H220.976L219.151 541ZM246.43 541H258.28V536.775H251.242V532.775H257.98V528.55H251.242V524.6H258.28V520.375H246.43V541Z" fill="#243B64"/>
<path d="M279.78 486.038H275.832V490.588C275.832 491.764 276.21 492.072 277.512 492.072H279.962C281.152 492.072 281.446 491.554 281.586 489.58C281.292 489.496 280.872 489.342 280.648 489.174C280.592 490.84 280.48 491.12 279.892 491.12H277.61C276.938 491.12 276.84 491.05 276.84 490.588V486.962H279.78V487.312H280.788V482.202H275.692V483.126H279.78V486.038ZM272.766 489.72H275.034V488.796H272.766V486.724H275.174V485.8H272.556V484.022H274.81V483.112H272.556V481.558H271.562V483.112H269.252V484.022H271.562V485.8H268.888V486.724H271.814V492.03C271.226 491.554 270.792 490.854 270.484 489.832C270.526 489.216 270.554 488.572 270.568 487.9L269.588 487.83C269.546 490.308 269.392 492.534 268.594 493.934C268.818 494.046 269.28 494.298 269.448 494.438C269.854 493.654 270.12 492.688 270.288 491.582C271.31 493.5 272.962 493.962 275.93 493.962H281.264C281.334 493.654 281.53 493.178 281.684 492.926C280.844 492.968 276.588 492.968 275.916 492.954C274.614 492.954 273.578 492.856 272.766 492.548V489.72ZM275.188 499.476C275.216 499.588 275.244 499.714 275.286 499.826C273.942 499.896 272.346 499.854 270.666 499.658L270.736 500.68C272.486 500.834 274.194 500.862 275.552 500.778C275.664 501.114 275.79 501.478 275.93 501.87C276.014 502.108 276.112 502.346 276.21 502.598C274.628 502.738 272.5 502.752 270.4 502.528L270.456 503.578C272.612 503.732 274.908 503.704 276.616 503.55C276.924 504.236 277.288 504.922 277.708 505.566C277.26 505.51 276.35 505.412 275.608 505.328L275.51 506.182C276.476 506.294 277.792 506.42 278.576 506.63L279.15 505.776C278.954 505.58 278.786 505.398 278.632 505.174C278.268 504.642 277.946 504.04 277.652 503.438C278.632 503.298 279.514 503.116 280.186 502.934L280.018 501.884C279.36 502.094 278.38 502.346 277.218 502.486C277.106 502.206 276.994 501.912 276.896 501.646C276.798 501.352 276.686 501.03 276.588 500.68C277.554 500.554 278.548 500.344 279.346 500.12L279.192 499.112C278.296 499.406 277.316 499.616 276.322 499.742C276.168 499.182 276.042 498.608 275.986 498.076L274.796 498.23C274.936 498.622 275.076 499.056 275.188 499.476ZM272.43 505.538L271.338 505.314C271.03 505.93 270.778 506.518 270.792 507.316C270.806 509.108 272.346 509.92 275.09 509.92C276.28 509.92 277.386 509.836 278.366 509.682L278.408 508.562C277.4 508.772 276.378 508.856 275.076 508.856C272.878 508.856 271.842 508.282 271.842 507.12C271.842 506.504 272.094 506.028 272.43 505.538ZM274.25 521.342L271.912 521.944V516.288H274.082V515.294H268.846V516.288H270.89V522.196C270.036 522.42 269.266 522.616 268.65 522.756L268.916 523.82C270.4 523.414 272.43 522.826 274.348 522.28L274.25 521.342ZM279.262 517.128C278.912 519.046 278.338 520.614 277.484 521.86C276.658 520.53 276.07 518.906 275.678 517.128H279.262ZM281.53 517.128V516.12H276.042C276.336 515.35 276.574 514.538 276.798 513.726L275.762 513.53C275.202 515.882 274.25 518.178 272.976 519.634C273.228 519.774 273.676 520.096 273.872 520.236C274.292 519.732 274.67 519.116 275.006 518.444C275.454 520.082 276.028 521.524 276.798 522.742C275.734 523.918 274.32 524.786 272.458 525.388C272.64 525.626 272.934 526.102 273.032 526.354C274.88 525.682 276.308 524.786 277.414 523.61C278.338 524.8 279.5 525.71 280.956 526.326C281.124 526.032 281.432 525.626 281.684 525.416C280.214 524.87 279.038 523.96 278.114 522.77C279.178 521.314 279.878 519.48 280.354 517.128H281.53ZM277.526 530.412L276.322 530.3C276.322 530.622 276.28 531.084 276.238 531.364C276.182 531.7 276.098 532.036 276.014 532.386C274.796 532.4 273.606 532.68 272.416 533.38C272.29 532.988 272.164 532.61 272.08 532.288C271.982 531.896 271.87 531.434 271.8 531.042L270.638 531.42C270.806 531.784 270.974 532.246 271.1 532.68C271.226 533.1 271.366 533.534 271.52 533.968C270.246 535.004 269.364 536.698 269.364 538.308C269.364 539.946 270.246 540.828 271.31 540.828C272.36 540.828 273.214 540.128 274.082 539.078C274.292 539.372 274.516 539.638 274.74 539.89L275.622 539.162C275.328 538.882 275.034 538.546 274.754 538.182C275.552 537.034 276.266 535.2 276.798 533.422C278.604 533.73 279.738 535.102 279.738 536.922C279.738 539.078 278.114 540.618 275.188 540.87L275.846 541.864C278.842 541.444 280.844 539.75 280.844 536.964C280.844 534.556 279.304 532.834 277.064 532.47C277.148 532.134 277.218 531.812 277.288 531.504C277.344 531.238 277.428 530.762 277.526 530.412ZM270.372 538.224C270.372 537.132 270.96 535.844 271.884 534.976C272.29 536.04 272.738 537.034 273.144 537.664C273.256 537.846 273.354 538.028 273.466 538.196C272.85 539.022 272.108 539.722 271.422 539.722C270.792 539.722 270.372 539.148 270.372 538.224ZM273.83 536.782C273.494 536.222 273.088 535.284 272.738 534.318C273.662 533.744 274.656 533.408 275.748 533.352C275.314 534.794 274.712 536.25 274.11 537.244C274.012 537.09 273.914 536.936 273.83 536.782Z" fill="#AC0017"/>
<circle cx="266.727" cy="458.867" r="16.8671" fill="#AC0017"/>
<circle cx="208" cy="496" r="108" stroke="#243B64" stroke-width="8"/>
<path fill-rule="evenodd" clip-rule="evenodd" d="M444.605 264.003C444.404 264.001 444.202 264 444 264C414.729 264 391 287.729 391 317C391 318.657 392.343 320 394 320C395.657 320 397 318.657 397 317C397 291.043 418.043 270 444 270C469.957 270 491 291.043 491 317C491 318.657 492.343 320 494 320C494.768 320 495.469 319.711 496 319.236C496.531 319.711 497.232 320 498 320C499.657 320 501 318.657 501 317C501 291.043 522.043 270 548 270C573.957 270 595 291.043 595 317C595 318.657 596.343 320 598 320C599.657 320 601 318.657 601 317C601 287.729 577.271 264 548 264C547.798 264 547.596 264.001 547.395 264.003C541.6 241.016 520.787 224 496 224C471.213 224 450.4 241.016 444.605 264.003ZM450.703 264.42C453.731 264.802 456.68 265.44 459.527 266.311C460.236 263.901 461.196 261.526 462.417 259.219C463.192 257.755 465.007 257.196 466.472 257.972C467.936 258.747 468.495 260.562 467.719 262.027C466.624 264.096 465.778 266.231 465.171 268.397C468.045 269.651 470.787 271.153 473.369 272.874C475.313 262.141 484.706 254 496 254C507.294 254 516.687 262.141 518.631 272.874C521.214 271.152 523.956 269.651 526.831 268.397C525.866 264.94 524.3 261.588 522.105 258.493C511.884 244.075 491.91 240.674 477.493 250.895C476.141 251.853 474.269 251.534 473.31 250.182C472.352 248.831 472.671 246.958 474.023 246C491.144 233.862 514.862 237.902 527 255.023C529.506 258.557 531.322 262.373 532.476 266.31C535.322 265.439 538.27 264.802 541.297 264.42C535.797 244.571 517.6 230 496 230C474.4 230 456.203 244.571 450.703 264.42ZM513.006 277.194C513.002 277.13 513 277.065 513 277C513 267.611 505.389 260 496 260C486.611 260 479 267.611 479 277C479 277.065 478.998 277.13 478.994 277.194C487.581 284.749 493.703 295.038 496 306.701C498.297 295.038 504.419 284.749 513.006 277.194ZM444 285C426.327 285 412 299.327 412 317C412 318.657 410.657 320 409 320C407.343 320 406 318.657 406 317C406 296.013 423.013 279 444 279C464.987 279 482 296.013 482 317C482 318.657 480.657 320 479 320C477.343 320 476 318.657 476 317C476 299.327 461.673 285 444 285ZM427 317C427 307.611 434.611 300 444 300C453.389 300 461 307.611 461 317C461 318.657 462.343 320 464 320C465.657 320 467 318.657 467 317C467 304.297 456.703 294 444 294C431.297 294 421 304.297 421 317C421 318.657 422.343 320 424 320C425.657 320 427 318.657 427 317ZM548 285C530.327 285 516 299.327 516 317C516 318.657 514.657 320 513 320C511.343 320 510 318.657 510 317C510 296.013 527.013 279 548 279C568.987 279 586 296.013 586 317C586 318.657 584.657 320 583 320C581.343 320 580 318.657 580 317C580 299.327 565.673 285 548 285ZM531 317C531 307.611 538.611 300 548 300C557.389 300 565 307.611 565 317C565 318.657 566.343 320 568 320C569.657 320 571 318.657 571 317C571 304.297 560.703 294 548 294C535.297 294 525 304.297 525 317C525 318.657 526.343 320 528 320C529.657 320 531 318.657 531 317Z" fill="black"/>
<path d="M416.827 209.576C418.903 209.576 420.847 209.18 422.659 208.388C424.471 207.596 426.061 206.498 427.429 205.094C428.797 203.678 429.865 202.04 430.633 200.18C431.413 198.308 431.803 196.304 431.803 194.168C431.803 192.032 431.413 190.034 430.633 188.174C429.865 186.302 428.797 184.664 427.429 183.26C426.061 181.844 424.471 180.74 422.659 179.948C420.847 179.156 418.903 178.76 416.827 178.76C414.751 178.76 412.807 179.156 410.995 179.948C409.183 180.74 407.593 181.844 406.225 183.26C404.857 184.664 403.783 186.302 403.003 188.174C402.235 190.034 401.851 192.032 401.851 194.168C401.851 196.304 402.235 198.308 403.003 200.18C403.783 202.04 404.857 203.678 406.225 205.094C407.593 206.498 409.183 207.596 410.995 208.388C412.807 209.18 414.751 209.576 416.827 209.576ZM416.827 202.88C415.351 202.88 414.049 202.514 412.921 201.782C411.793 201.05 410.911 200.03 410.275 198.722C409.639 197.402 409.321 195.884 409.321 194.168C409.321 192.44 409.639 190.922 410.275 189.614C410.911 188.306 411.793 187.286 412.921 186.554C414.049 185.822 415.351 185.456 416.827 185.456C418.315 185.456 419.617 185.822 420.733 186.554C421.861 187.286 422.743 188.306 423.379 189.614C424.015 190.922 424.333 192.44 424.333 194.168C424.333 195.884 424.015 197.402 423.379 198.722C422.743 200.03 421.861 201.05 420.733 201.782C419.617 202.514 418.315 202.88 416.827 202.88ZM437.061 209H443.991V196.778L454.791 209H464.349L450.399 193.43L462.477 179.3H454.017L443.991 191.252V179.3H437.061V209ZM467.577 209H474.507V179.3H467.577V209ZM478.551 209H504.219V202.916H490.665L505.155 179.3H480.657V185.384H493.041L478.551 209ZM509.589 209H526.653V202.916H516.519V197.156H526.221V191.072H516.519V185.384H526.653V179.3H509.589V209ZM532.217 209H539.165L540.479 191.702L546.635 208.658H550.811L556.967 191.702L558.299 209H565.229L562.601 179.3H555.221L548.723 196.184L542.225 179.3H534.845L532.217 209ZM571.499 209H588.563V202.916H578.429V197.156H588.131V191.072H578.429V185.384H588.563V179.3H571.499V209Z" fill="#243B64"/>
<circle cx="496" cy="208" r="108" stroke="#243B64" stroke-width="8"/>
<circle cx="417" cy="122" r="36" fill="#AC0017"/>
<path d="M426.034 71.9483H420.394V78.4483C420.394 80.1283 420.934 80.5683 422.794 80.5683H426.294C427.994 80.5683 428.414 79.8283 428.614 77.0083C428.194 76.8883 427.594 76.6683 427.274 76.4283C427.194 78.8083 427.034 79.2083 426.194 79.2083H422.934C421.974 79.2083 421.834 79.1083 421.834 78.4483V73.2683H426.034V73.7683H427.474V66.4683H420.194V67.7883H426.034V71.9483ZM416.014 77.2083H419.254V75.8883H416.014V72.9283H419.454V71.6083H415.714V69.0683H418.934V67.7683H415.714V65.5483H414.294V67.7683H410.994V69.0683H414.294V71.6083H410.474V72.9283H414.654V80.5083C413.814 79.8283 413.194 78.8283 412.754 77.3683C412.814 76.4883 412.854 75.5683 412.874 74.6083L411.474 74.5083C411.414 78.0483 411.194 81.2283 410.054 83.2283C410.374 83.3883 411.034 83.7483 411.274 83.9483C411.854 82.8283 412.234 81.4483 412.474 79.8683C413.934 82.6083 416.294 83.2683 420.534 83.2683H428.154C428.254 82.8283 428.534 82.1483 428.754 81.7883C427.554 81.8483 421.474 81.8483 420.514 81.8283C418.654 81.8283 417.174 81.6883 416.014 81.2483V77.2083ZM419.474 90.2883C419.514 90.4483 419.554 90.6283 419.614 90.7883C417.694 90.8883 415.414 90.8283 413.014 90.5483L413.114 92.0083C415.614 92.2283 418.054 92.2683 419.994 92.1483C420.154 92.6283 420.334 93.1483 420.534 93.7083C420.654 94.0483 420.794 94.3883 420.934 94.7483C418.674 94.9483 415.634 94.9683 412.634 94.6483L412.714 96.1483C415.794 96.3683 419.074 96.3283 421.514 96.1083C421.954 97.0883 422.474 98.0683 423.074 98.9883C422.434 98.9083 421.134 98.7683 420.074 98.6483L419.934 99.8683C421.314 100.028 423.194 100.208 424.314 100.508L425.134 99.2883C424.854 99.0083 424.614 98.7483 424.394 98.4283C423.874 97.6683 423.414 96.8083 422.994 95.9483C424.394 95.7483 425.654 95.4883 426.614 95.2283L426.374 93.7283C425.434 94.0283 424.034 94.3883 422.374 94.5883C422.214 94.1883 422.054 93.7683 421.914 93.3883C421.774 92.9683 421.614 92.5083 421.474 92.0083C422.854 91.8283 424.274 91.5283 425.414 91.2083L425.194 89.7683C423.914 90.1883 422.514 90.4883 421.094 90.6683C420.874 89.8683 420.694 89.0483 420.614 88.2883L418.914 88.5083C419.114 89.0683 419.314 89.6883 419.474 90.2883ZM415.534 98.9483L413.974 98.6283C413.534 99.5083 413.174 100.348 413.194 101.488C413.214 104.048 415.414 105.208 419.334 105.208C421.034 105.208 422.614 105.088 424.014 104.868L424.074 103.268C422.634 103.568 421.174 103.688 419.314 103.688C416.174 103.688 414.694 102.868 414.694 101.208C414.694 100.328 415.054 99.6483 415.534 98.9483ZM418.134 120.668L414.794 121.528V113.448H417.894V112.028H410.414V113.448H413.334V121.888C412.114 122.208 411.014 122.488 410.134 122.688L410.514 124.208C412.634 123.628 415.534 122.788 418.274 122.008L418.134 120.668ZM425.294 114.648C424.794 117.388 423.974 119.628 422.754 121.408C421.574 119.508 420.734 117.188 420.174 114.648H425.294ZM428.534 114.648V113.208H420.694C421.114 112.108 421.454 110.948 421.774 109.788L420.294 109.508C419.494 112.868 418.134 116.148 416.314 118.228C416.674 118.428 417.314 118.888 417.594 119.088C418.194 118.368 418.734 117.488 419.214 116.528C419.854 118.868 420.674 120.928 421.774 122.668C420.254 124.348 418.234 125.588 415.574 126.448C415.834 126.788 416.254 127.468 416.394 127.828C419.034 126.868 421.074 125.588 422.654 123.908C423.974 125.608 425.634 126.908 427.714 127.788C427.954 127.368 428.394 126.788 428.754 126.488C426.654 125.708 424.974 124.408 423.654 122.708C425.174 120.628 426.174 118.008 426.854 114.648H428.534ZM422.814 132.768L421.094 132.608C421.094 133.068 421.034 133.728 420.974 134.128C420.894 134.608 420.774 135.088 420.654 135.588C418.914 135.608 417.214 136.008 415.514 137.008C415.334 136.448 415.154 135.908 415.034 135.448C414.894 134.888 414.734 134.228 414.634 133.668L412.974 134.208C413.214 134.728 413.454 135.388 413.634 136.008C413.814 136.608 414.014 137.228 414.234 137.848C412.414 139.328 411.154 141.748 411.154 144.048C411.154 146.388 412.414 147.648 413.934 147.648C415.434 147.648 416.654 146.648 417.894 145.148C418.194 145.568 418.514 145.948 418.834 146.308L420.094 145.268C419.674 144.868 419.254 144.388 418.854 143.868C419.994 142.228 421.014 139.608 421.774 137.068C424.354 137.508 425.974 139.468 425.974 142.068C425.974 145.148 423.654 147.348 419.474 147.708L420.414 149.128C424.694 148.528 427.554 146.108 427.554 142.128C427.554 138.688 425.354 136.228 422.154 135.708C422.274 135.228 422.374 134.768 422.474 134.328C422.554 133.948 422.674 133.268 422.814 132.768ZM412.594 143.928C412.594 142.368 413.434 140.528 414.754 139.288C415.334 140.808 415.974 142.228 416.554 143.128C416.714 143.388 416.854 143.648 417.014 143.888C416.134 145.068 415.074 146.068 414.094 146.068C413.194 146.068 412.594 145.248 412.594 143.928ZM417.534 141.868C417.054 141.068 416.474 139.728 415.974 138.348C417.294 137.528 418.714 137.048 420.274 136.968C419.654 139.028 418.794 141.108 417.934 142.528C417.794 142.308 417.654 142.088 417.534 141.868Z" fill="black"/>
<path d="M416.827 558.576C418.903 558.576 420.847 558.18 422.659 557.388C424.471 556.596 426.061 555.498 427.429 554.094C428.797 552.678 429.865 551.04 430.633 549.18C431.413 547.308 431.803 545.304 431.803 543.168C431.803 541.032 431.413 539.034 430.633 537.174C429.865 535.302 428.797 533.664 427.429 532.26C426.061 530.844 424.471 529.74 422.659 528.948C420.847 528.156 418.903 527.76 416.827 527.76C414.751 527.76 412.807 528.156 410.995 528.948C409.183 529.74 407.593 530.844 406.225 532.26C404.857 533.664 403.783 535.302 403.003 537.174C402.235 539.034 401.851 541.032 401.851 543.168C401.851 545.304 402.235 547.308 403.003 549.18C403.783 551.04 404.857 552.678 406.225 554.094C407.593 555.498 409.183 556.596 410.995 557.388C412.807 558.18 414.751 558.576 416.827 558.576ZM416.827 551.88C415.351 551.88 414.049 551.514 412.921 550.782C411.793 550.05 410.911 549.03 410.275 547.722C409.639 546.402 409.321 544.884 409.321 543.168C409.321 541.44 409.639 539.922 410.275 538.614C410.911 537.306 411.793 536.286 412.921 535.554C414.049 534.822 415.351 534.456 416.827 534.456C418.315 534.456 419.617 534.822 420.733 535.554C421.861 536.286 422.743 537.306 423.379 538.614C424.015 539.922 424.333 541.44 424.333 543.168C424.333 544.884 424.015 546.402 423.379 547.722C422.743 549.03 421.861 550.05 420.733 550.782C419.617 551.514 418.315 551.88 416.827 551.88ZM437.061 558H443.991V545.778L454.791 558H464.349L450.399 542.43L462.477 528.3H454.017L443.991 540.252V528.3H437.061V558ZM467.577 558H474.507V528.3H467.577V558ZM478.551 558H504.219V551.916H490.665L505.155 528.3H480.657V534.384H493.041L478.551 558ZM509.589 558H526.653V551.916H516.519V546.156H526.221V540.072H516.519V534.384H526.653V528.3H509.589V558ZM532.217 558H539.165L540.479 540.702L546.635 557.658H550.811L556.967 540.702L558.299 558H565.229L562.601 528.3H555.221L548.723 545.184L542.225 528.3H534.845L532.217 558ZM571.499 558H588.563V551.916H578.429V546.156H588.131V540.072H578.429V534.384H588.563V528.3H571.499V558Z" fill="black"/>
<circle cx="536" cy="465" r="40" fill="#FF0000"/>
<path fill-rule="evenodd" clip-rule="evenodd" d="M496 438C476.528 438 460.476 452.646 458.261 471.523C462.367 472.121 466.311 473.217 470.03 474.749C470.683 460.97 482.06 450 496 450C509.94 450 521.318 460.97 521.97 474.749C525.689 473.217 529.633 472.121 533.739 471.523C531.524 452.646 515.472 438 496 438ZM545.775 471.225C543.371 445.851 522.004 426 496 426C469.996 426 448.629 445.851 446.225 471.225C420.851 473.629 401 494.996 401 521H413C413 500.013 430.013 483 451 483C471.987 483 489 500.013 489 521H491H501H503C503 500.013 520.013 483 541 483C561.987 483 579 500.013 579 521H591C591 494.996 571.149 473.629 545.775 471.225ZM450.698 471.001C450.799 471 450.899 471 451 471C451 471 451 471 451 471M507.683 483.717C509.147 481.505 510 478.852 510 476C510 468.268 503.732 462 496 462C488.268 462 482 468.268 482 476C482 478.852 482.853 481.505 484.317 483.717C489.15 488.038 493.137 493.285 496 499.179C498.863 493.285 502.851 488.038 507.683 483.717ZM437 521C437 513.268 443.268 507 451 507C458.732 507 465 513.268 465 521H477C477 506.641 465.359 495 451 495C436.641 495 425 506.641 425 521H437ZM527 521C527 513.268 533.268 507 541 507C548.732 507 555 513.268 555 521H567C567 506.641 555.359 495 541 495C526.641 495 515 506.641 515 521H527Z" fill="black"/>
</g>
<defs>
<filter id="filter0_d_1692_10909" x="0" y="0" width="704" height="704" filterUnits="userSpaceOnUse" color-interpolation-filters="sRGB">
<feFlood flood-opacity="0" result="BackgroundImageFix"/>
<feColorMatrix in="SourceAlpha" type="matrix" values="0 0 0 0 0 0 0 0 0 0 0 0 0 0 0 0 0 0 127 0" result="hardAlpha"/>
<feOffset/>
<feGaussianBlur stdDeviation="16"/>
<feColorMatrix type="matrix" values="0 0 0 0 0 0 0 0 0 0 0 0 0 0 0 0 0 0 0.15 0"/>
<feBlend mode="normal" in2="BackgroundImageFix" result="effect1_dropShadow_1692_10909"/>
<feBlend mode="normal" in="SourceGraphic" in2="effect1_dropShadow_1692_10909" result="shape"/>
</filter>
<clipPath id="clip0_1692_10909">
<rect width="180" height="96" fill="white" transform="translate(118 133)"/>
</clipPath>
<clipPath id="clip1_1692_10909">
<rect width="128" height="67.4685" fill="white" transform="translate(130 444.108)"/>
</clipPath>
</defs>
</svg>
