<svg width="1248" height="416" viewBox="0 0 1248 416" fill="none" xmlns="http://www.w3.org/2000/svg">
<g filter="url(#filter0_d_1688_10802)">
<path d="M48 64C48 55.1634 55.1634 48 64 48H272V272H64C55.1634 272 48 264.837 48 256V64Z" fill="#D6FEF6"/>
<path d="M112.594 300.664C114.941 300.664 116.999 301.123 118.77 302.04C120.562 302.957 121.938 304.269 122.898 305.976C123.879 307.661 124.37 309.624 124.37 311.864C124.37 314.104 123.879 316.067 122.898 317.752C121.938 319.416 120.562 320.707 118.77 321.624C116.999 322.541 114.941 323 112.594 323H104.786V300.664H112.594ZM112.434 319.192C114.781 319.192 116.594 318.552 117.874 317.272C119.154 315.992 119.794 314.189 119.794 311.864C119.794 309.539 119.154 307.725 117.874 306.424C116.594 305.101 114.781 304.44 112.434 304.44H109.266V319.192H112.434ZM139.308 305.496C139.094 304.6 138.721 303.928 138.188 303.48C137.676 303.032 136.929 302.808 135.948 302.808C134.476 302.808 133.388 303.405 132.684 304.6C132.001 305.773 131.649 307.693 131.628 310.36C132.14 309.507 132.886 308.845 133.868 308.376C134.849 307.885 135.916 307.64 137.068 307.64C138.454 307.64 139.681 307.939 140.748 308.536C141.814 309.133 142.646 310.008 143.244 311.16C143.841 312.291 144.14 313.656 144.14 315.256C144.14 316.771 143.83 318.125 143.212 319.32C142.614 320.493 141.729 321.411 140.556 322.072C139.382 322.733 137.985 323.064 136.364 323.064C134.145 323.064 132.396 322.573 131.116 321.592C129.857 320.611 128.972 319.245 128.46 317.496C127.969 315.725 127.724 313.549 127.724 310.968C127.724 307.064 128.396 304.12 129.74 302.136C131.084 300.131 133.206 299.128 136.108 299.128C138.348 299.128 140.086 299.736 141.324 300.952C142.561 302.168 143.276 303.683 143.468 305.496H139.308ZM136.044 311.32C134.913 311.32 133.964 311.651 133.196 312.312C132.428 312.973 132.044 313.933 132.044 315.192C132.044 316.451 132.396 317.443 133.1 318.168C133.825 318.893 134.838 319.256 136.14 319.256C137.292 319.256 138.198 318.904 138.86 318.2C139.542 317.496 139.884 316.547 139.884 315.352C139.884 314.115 139.553 313.133 138.892 312.408C138.252 311.683 137.302 311.32 136.044 311.32ZM161.984 300.664V304.28H152.672V310.008H159.808V313.56H152.672V323H148.192V300.664H161.984ZM169.641 304.28V309.88H177.161V313.432H169.641V319.352H178.121V323H165.161V300.632H178.121V304.28H169.641ZM195.984 300.664V304.28H186.672V310.008H193.808V313.56H186.672V323H182.192V300.664H195.984ZM210.745 305.496C210.532 304.6 210.158 303.928 209.625 303.48C209.113 303.032 208.366 302.808 207.385 302.808C205.913 302.808 204.825 303.405 204.121 304.6C203.438 305.773 203.086 307.693 203.065 310.36C203.577 309.507 204.324 308.845 205.305 308.376C206.286 307.885 207.353 307.64 208.505 307.64C209.892 307.64 211.118 307.939 212.185 308.536C213.252 309.133 214.084 310.008 214.681 311.16C215.278 312.291 215.577 313.656 215.577 315.256C215.577 316.771 215.268 318.125 214.649 319.32C214.052 320.493 213.166 321.411 211.993 322.072C210.82 322.733 209.422 323.064 207.801 323.064C205.582 323.064 203.833 322.573 202.553 321.592C201.294 320.611 200.409 319.245 199.897 317.496C199.406 315.725 199.161 313.549 199.161 310.968C199.161 307.064 199.833 304.12 201.177 302.136C202.521 300.131 204.644 299.128 207.545 299.128C209.785 299.128 211.524 299.736 212.761 300.952C213.998 302.168 214.713 303.683 214.905 305.496H210.745ZM207.481 311.32C206.35 311.32 205.401 311.651 204.633 312.312C203.865 312.973 203.481 313.933 203.481 315.192C203.481 316.451 203.833 317.443 204.537 318.168C205.262 318.893 206.276 319.256 207.577 319.256C208.729 319.256 209.636 318.904 210.297 318.2C210.98 317.496 211.321 316.547 211.321 315.352C211.321 314.115 210.99 313.133 210.329 312.408C209.689 311.683 208.74 311.32 207.481 311.32Z" fill="#777777"/>
<rect x="272" y="48" width="224" height="224" fill="#231552"/>
<path d="M332.76 317.944C334.808 316.237 336.44 314.819 337.656 313.688C338.872 312.536 339.886 311.341 340.696 310.104C341.507 308.867 341.912 307.651 341.912 306.456C341.912 305.368 341.656 304.515 341.144 303.896C340.632 303.277 339.843 302.968 338.776 302.968C337.71 302.968 336.888 303.331 336.312 304.056C335.736 304.76 335.438 305.731 335.416 306.968H331.064C331.15 304.408 331.907 302.467 333.336 301.144C334.787 299.821 336.622 299.16 338.84 299.16C341.272 299.16 343.139 299.811 344.44 301.112C345.742 302.392 346.392 304.088 346.392 306.2C346.392 307.864 345.944 309.453 345.048 310.968C344.152 312.483 343.128 313.805 341.976 314.936C340.824 316.045 339.32 317.389 337.464 318.968H346.904V322.68H331.096V319.352L332.76 317.944ZM349.791 305.816C349.898 303.683 350.645 302.04 352.031 300.888C353.439 299.715 355.285 299.128 357.567 299.128C359.125 299.128 360.458 299.405 361.567 299.96C362.677 300.493 363.509 301.229 364.063 302.168C364.639 303.085 364.927 304.131 364.927 305.304C364.927 306.648 364.575 307.789 363.871 308.728C363.189 309.645 362.367 310.264 361.407 310.584V310.712C362.645 311.096 363.605 311.779 364.287 312.76C364.991 313.741 365.343 315 365.343 316.536C365.343 317.816 365.045 318.957 364.447 319.96C363.871 320.963 363.007 321.752 361.855 322.328C360.725 322.883 359.359 323.16 357.759 323.16C355.349 323.16 353.386 322.552 351.871 321.336C350.357 320.12 349.557 318.328 349.471 315.96H353.823C353.866 317.005 354.218 317.848 354.879 318.488C355.562 319.107 356.49 319.416 357.663 319.416C358.751 319.416 359.583 319.117 360.159 318.52C360.757 317.901 361.055 317.112 361.055 316.152C361.055 314.872 360.65 313.955 359.839 313.4C359.029 312.845 357.77 312.568 356.063 312.568H355.135V308.888H356.063C359.093 308.888 360.607 307.875 360.607 305.848C360.607 304.931 360.33 304.216 359.775 303.704C359.242 303.192 358.463 302.936 357.439 302.936C356.437 302.936 355.658 303.213 355.103 303.768C354.57 304.301 354.261 304.984 354.175 305.816H349.791ZM368.34 303.8V299.672H376.052V323H371.444V303.8H368.34ZM396.157 303.544H385.789V309.016C386.237 308.461 386.877 308.013 387.709 307.672C388.541 307.309 389.427 307.128 390.365 307.128C392.072 307.128 393.469 307.501 394.557 308.248C395.645 308.995 396.435 309.955 396.925 311.128C397.416 312.28 397.661 313.517 397.661 314.84C397.661 317.293 396.957 319.267 395.549 320.76C394.163 322.253 392.179 323 389.597 323C387.165 323 385.224 322.392 383.773 321.176C382.323 319.96 381.501 318.371 381.309 316.408H385.661C385.853 317.261 386.28 317.944 386.941 318.456C387.624 318.968 388.488 319.224 389.533 319.224C390.792 319.224 391.741 318.829 392.381 318.04C393.021 317.251 393.341 316.205 393.341 314.904C393.341 313.581 393.011 312.579 392.349 311.896C391.709 311.192 390.76 310.84 389.501 310.84C388.605 310.84 387.859 311.064 387.261 311.512C386.664 311.96 386.237 312.557 385.981 313.304H381.693V299.608H396.157V303.544ZM416.751 303.544H406.383V309.016C406.831 308.461 407.471 308.013 408.303 307.672C409.135 307.309 410.02 307.128 410.959 307.128C412.666 307.128 414.063 307.501 415.151 308.248C416.239 308.995 417.028 309.955 417.519 311.128C418.01 312.28 418.255 313.517 418.255 314.84C418.255 317.293 417.551 319.267 416.143 320.76C414.756 322.253 412.772 323 410.191 323C407.759 323 405.818 322.392 404.367 321.176C402.916 319.96 402.095 318.371 401.903 316.408H406.255C406.447 317.261 406.874 317.944 407.535 318.456C408.218 318.968 409.082 319.224 410.127 319.224C411.386 319.224 412.335 318.829 412.975 318.04C413.615 317.251 413.935 316.205 413.935 314.904C413.935 313.581 413.604 312.579 412.943 311.896C412.303 311.192 411.354 310.84 410.095 310.84C409.199 310.84 408.452 311.064 407.855 311.512C407.258 311.96 406.831 312.557 406.575 313.304H402.287V299.608H416.751V303.544ZM423.073 317.944C425.121 316.237 426.753 314.819 427.969 313.688C429.185 312.536 430.198 311.341 431.009 310.104C431.819 308.867 432.225 307.651 432.225 306.456C432.225 305.368 431.969 304.515 431.457 303.896C430.945 303.277 430.155 302.968 429.089 302.968C428.022 302.968 427.201 303.331 426.625 304.056C426.049 304.76 425.75 305.731 425.729 306.968H421.377C421.462 304.408 422.219 302.467 423.649 301.144C425.099 299.821 426.934 299.16 429.153 299.16C431.585 299.16 433.451 299.811 434.753 301.112C436.054 302.392 436.705 304.088 436.705 306.2C436.705 307.864 436.257 309.453 435.361 310.968C434.465 312.483 433.441 313.805 432.289 314.936C431.137 316.045 429.633 317.389 427.777 318.968H437.217V322.68H421.409V319.352L423.073 317.944Z" fill="#777777"/>
<rect x="496" y="48" width="224" height="224" fill="#4DCDBE"/>
<path d="M544.91 318.456V314.936L555.374 299.96H560.59V314.552H563.406V318.456H560.59V323H556.11V318.456H544.91ZM556.398 304.76L549.838 314.552H556.398V304.76ZM574.579 300.664C576.925 300.664 578.984 301.123 580.755 302.04C582.547 302.957 583.923 304.269 584.883 305.976C585.864 307.661 586.355 309.624 586.355 311.864C586.355 314.104 585.864 316.067 584.883 317.752C583.923 319.416 582.547 320.707 580.755 321.624C578.984 322.541 576.925 323 574.579 323H566.771V300.664H574.579ZM574.419 319.192C576.765 319.192 578.579 318.552 579.859 317.272C581.139 315.992 581.779 314.189 581.779 311.864C581.779 309.539 581.139 307.725 579.859 306.424C578.579 305.101 576.765 304.44 574.419 304.44H571.251V319.192H574.419ZM588.62 311.8C588.62 309.603 589.111 307.64 590.092 305.912C591.095 304.163 592.449 302.808 594.156 301.848C595.884 300.867 597.815 300.376 599.948 300.376C602.444 300.376 604.631 301.016 606.508 302.296C608.385 303.576 609.697 305.347 610.444 307.608H605.292C604.78 306.541 604.055 305.741 603.116 305.208C602.199 304.675 601.132 304.408 599.916 304.408C598.615 304.408 597.452 304.717 596.428 305.336C595.425 305.933 594.636 306.787 594.06 307.896C593.505 309.005 593.228 310.307 593.228 311.8C593.228 313.272 593.505 314.573 594.06 315.704C594.636 316.813 595.425 317.677 596.428 318.296C597.452 318.893 598.615 319.192 599.916 319.192C601.132 319.192 602.199 318.925 603.116 318.392C604.055 317.837 604.78 317.027 605.292 315.96H610.444C609.697 318.243 608.385 320.024 606.508 321.304C604.652 322.563 602.465 323.192 599.948 323.192C597.815 323.192 595.884 322.712 594.156 321.752C592.449 320.771 591.095 319.416 590.092 317.688C589.111 315.96 588.62 313.997 588.62 311.8ZM622.079 300.664C624.425 300.664 626.484 301.123 628.255 302.04C630.047 302.957 631.423 304.269 632.383 305.976C633.364 307.661 633.855 309.624 633.855 311.864C633.855 314.104 633.364 316.067 632.383 317.752C631.423 319.416 630.047 320.707 628.255 321.624C626.484 322.541 624.425 323 622.079 323H614.271V300.664H622.079ZM621.919 319.192C624.265 319.192 626.079 318.552 627.359 317.272C628.639 315.992 629.279 314.189 629.279 311.864C629.279 309.539 628.639 307.725 627.359 306.424C626.079 305.101 624.265 304.44 621.919 304.44H618.751V319.192H621.919ZM649.88 311.544C651.139 311.779 652.173 312.408 652.984 313.432C653.795 314.456 654.2 315.629 654.2 316.952C654.2 318.147 653.901 319.203 653.304 320.12C652.728 321.016 651.885 321.72 650.776 322.232C649.667 322.744 648.355 323 646.84 323H637.208V300.664H646.424C647.939 300.664 649.24 300.909 650.328 301.4C651.437 301.891 652.269 302.573 652.824 303.448C653.4 304.323 653.688 305.315 653.688 306.424C653.688 307.725 653.336 308.813 652.632 309.688C651.949 310.563 651.032 311.181 649.88 311.544ZM641.688 309.88H645.784C646.851 309.88 647.672 309.645 648.248 309.176C648.824 308.685 649.112 307.992 649.112 307.096C649.112 306.2 648.824 305.507 648.248 305.016C647.672 304.525 646.851 304.28 645.784 304.28H641.688V309.88ZM646.2 319.352C647.288 319.352 648.131 319.096 648.728 318.584C649.347 318.072 649.656 317.347 649.656 316.408C649.656 315.448 649.336 314.701 648.696 314.168C648.056 313.613 647.192 313.336 646.104 313.336H641.688V319.352H646.2ZM662.251 304.28V309.88H669.771V313.432H662.251V319.352H670.731V323H657.771V300.632H670.731V304.28H662.251Z" fill="#777777"/>
<rect x="720" y="48" width="224" height="224" fill="#2774AC"/>
<path d="M774.073 317.944C776.121 316.237 777.753 314.819 778.969 313.688C780.185 312.536 781.198 311.341 782.009 310.104C782.819 308.867 783.225 307.651 783.225 306.456C783.225 305.368 782.969 304.515 782.457 303.896C781.945 303.277 781.155 302.968 780.089 302.968C779.022 302.968 778.201 303.331 777.625 304.056C777.049 304.76 776.75 305.731 776.729 306.968H772.377C772.462 304.408 773.219 302.467 774.649 301.144C776.099 299.821 777.934 299.16 780.153 299.16C782.585 299.16 784.451 299.811 785.753 301.112C787.054 302.392 787.705 304.088 787.705 306.2C787.705 307.864 787.257 309.453 786.361 310.968C785.465 312.483 784.441 313.805 783.289 314.936C782.137 316.045 780.633 317.389 778.777 318.968H788.217V322.68H772.409V319.352L774.073 317.944ZM805.888 303.064L797.376 323H792.832L801.408 303.576H790.464V299.736H805.888V303.064ZM823.419 303.064L814.907 323H810.363L818.939 303.576H807.995V299.736H823.419V303.064ZM825.91 318.456V314.936L836.374 299.96H841.59V314.552H844.406V318.456H841.59V323H837.11V318.456H825.91ZM837.398 304.76L830.838 314.552H837.398V304.76ZM861.467 318.744H852.571L851.099 323H846.395L854.427 300.632H859.643L867.675 323H862.939L861.467 318.744ZM860.251 315.16L857.019 305.816L853.786 315.16H860.251ZM869.589 311.8C869.589 309.603 870.079 307.64 871.061 305.912C872.063 304.163 873.418 302.808 875.125 301.848C876.853 300.867 878.783 300.376 880.917 300.376C883.413 300.376 885.599 301.016 887.477 302.296C889.354 303.576 890.666 305.347 891.413 307.608H886.261C885.749 306.541 885.023 305.741 884.085 305.208C883.167 304.675 882.101 304.408 880.885 304.408C879.583 304.408 878.421 304.717 877.397 305.336C876.394 305.933 875.605 306.787 875.029 307.896C874.474 309.005 874.197 310.307 874.197 311.8C874.197 313.272 874.474 314.573 875.029 315.704C875.605 316.813 876.394 317.677 877.397 318.296C878.421 318.893 879.583 319.192 880.885 319.192C882.101 319.192 883.167 318.925 884.085 318.392C885.023 317.837 885.749 317.027 886.261 315.96H891.413C890.666 318.243 889.354 320.024 887.477 321.304C885.621 322.563 883.434 323.192 880.917 323.192C878.783 323.192 876.853 322.712 875.125 321.752C873.418 320.771 872.063 319.416 871.061 317.688C870.079 315.96 869.589 313.997 869.589 311.8Z" fill="#777777"/>
<path d="M944 48H1152C1160.84 48 1168 55.1634 1168 64V256C1168 264.837 1160.84 272 1152 272H944V48Z" fill="#FF8383"/>
<path d="M1015.31 300.664V304.28H1006V310.008H1013.14V313.56H1006V323H1001.52V300.664H1015.31ZM1032.28 300.664V304.28H1022.97V310.008H1030.11V313.56H1022.97V323H1018.49V300.664H1032.28ZM1038.85 310.648C1036.72 309.539 1035.65 307.821 1035.65 305.496C1035.65 304.344 1035.94 303.299 1036.51 302.36C1037.11 301.4 1038 300.643 1039.17 300.088C1040.36 299.512 1041.82 299.224 1043.52 299.224C1045.23 299.224 1046.67 299.512 1047.84 300.088C1049.04 300.643 1049.92 301.4 1050.5 302.36C1051.1 303.299 1051.39 304.344 1051.39 305.496C1051.39 306.669 1051.11 307.704 1050.53 308.6C1049.95 309.475 1049.19 310.157 1048.23 310.648C1049.4 311.16 1050.32 311.907 1050.98 312.888C1051.64 313.869 1051.97 315.032 1051.97 316.376C1051.97 317.827 1051.6 319.096 1050.85 320.184C1050.12 321.251 1049.12 322.072 1047.84 322.648C1046.56 323.224 1045.12 323.512 1043.52 323.512C1041.92 323.512 1040.48 323.224 1039.2 322.648C1037.94 322.072 1036.94 321.251 1036.19 320.184C1035.47 319.096 1035.11 317.827 1035.11 316.376C1035.11 315.032 1035.44 313.869 1036.1 312.888C1036.76 311.885 1037.68 311.139 1038.85 310.648ZM1047.04 306.136C1047.04 305.091 1046.72 304.28 1046.08 303.704C1045.46 303.128 1044.61 302.84 1043.52 302.84C1042.46 302.84 1041.6 303.128 1040.96 303.704C1040.34 304.28 1040.03 305.101 1040.03 306.168C1040.03 307.128 1040.35 307.896 1040.99 308.472C1041.66 309.048 1042.5 309.336 1043.52 309.336C1044.55 309.336 1045.39 309.048 1046.05 308.472C1046.71 307.875 1047.04 307.096 1047.04 306.136ZM1043.52 312.6C1042.31 312.6 1041.31 312.909 1040.55 313.528C1039.8 314.147 1039.43 315.032 1039.43 316.184C1039.43 317.251 1039.79 318.125 1040.51 318.808C1041.26 319.469 1042.26 319.8 1043.52 319.8C1044.78 319.8 1045.77 319.459 1046.5 318.776C1047.22 318.093 1047.59 317.229 1047.59 316.184C1047.59 315.053 1047.21 314.179 1046.47 313.56C1045.72 312.92 1044.74 312.6 1043.52 312.6ZM1055.57 305.816C1055.68 303.683 1056.43 302.04 1057.81 300.888C1059.22 299.715 1061.07 299.128 1063.35 299.128C1064.91 299.128 1066.24 299.405 1067.35 299.96C1068.46 300.493 1069.29 301.229 1069.84 302.168C1070.42 303.085 1070.71 304.131 1070.71 305.304C1070.71 306.648 1070.36 307.789 1069.65 308.728C1068.97 309.645 1068.15 310.264 1067.19 310.584V310.712C1068.43 311.096 1069.39 311.779 1070.07 312.76C1070.77 313.741 1071.12 315 1071.12 316.536C1071.12 317.816 1070.83 318.957 1070.23 319.96C1069.65 320.963 1068.79 321.752 1067.64 322.328C1066.51 322.883 1065.14 323.16 1063.54 323.16C1061.13 323.16 1059.17 322.552 1057.65 321.336C1056.14 320.12 1055.34 318.328 1055.25 315.96H1059.6C1059.65 317.005 1060 317.848 1060.66 318.488C1061.34 319.107 1062.27 319.416 1063.44 319.416C1064.53 319.416 1065.36 319.117 1065.94 318.52C1066.54 317.901 1066.84 317.112 1066.84 316.152C1066.84 314.872 1066.43 313.955 1065.62 313.4C1064.81 312.845 1063.55 312.568 1061.84 312.568H1060.92V308.888H1061.84C1064.87 308.888 1066.39 307.875 1066.39 305.848C1066.39 304.931 1066.11 304.216 1065.56 303.704C1065.02 303.192 1064.24 302.936 1063.22 302.936C1062.22 302.936 1061.44 303.213 1060.88 303.768C1060.35 304.301 1060.04 304.984 1059.96 305.816H1055.57ZM1078.57 310.648C1076.44 309.539 1075.37 307.821 1075.37 305.496C1075.37 304.344 1075.66 303.299 1076.23 302.36C1076.83 301.4 1077.72 300.643 1078.89 300.088C1080.08 299.512 1081.53 299.224 1083.24 299.224C1084.95 299.224 1086.39 299.512 1087.56 300.088C1088.76 300.643 1089.64 301.4 1090.22 302.36C1090.81 303.299 1091.11 304.344 1091.11 305.496C1091.11 306.669 1090.82 307.704 1090.25 308.6C1089.67 309.475 1088.9 310.157 1087.94 310.648C1089.12 311.16 1090.04 311.907 1090.7 312.888C1091.36 313.869 1091.69 315.032 1091.69 316.376C1091.69 317.827 1091.32 319.096 1090.57 320.184C1089.84 321.251 1088.84 322.072 1087.56 322.648C1086.28 323.224 1084.84 323.512 1083.24 323.512C1081.64 323.512 1080.2 323.224 1078.92 322.648C1077.66 322.072 1076.66 321.251 1075.91 320.184C1075.19 319.096 1074.82 317.827 1074.82 316.376C1074.82 315.032 1075.16 313.869 1075.82 312.888C1076.48 311.885 1077.4 311.139 1078.57 310.648ZM1086.76 306.136C1086.76 305.091 1086.44 304.28 1085.8 303.704C1085.18 303.128 1084.33 302.84 1083.24 302.84C1082.17 302.84 1081.32 303.128 1080.68 303.704C1080.06 304.28 1079.75 305.101 1079.75 306.168C1079.75 307.128 1080.07 307.896 1080.71 308.472C1081.37 309.048 1082.22 309.336 1083.24 309.336C1084.26 309.336 1085.11 309.048 1085.77 308.472C1086.43 307.875 1086.76 307.096 1086.76 306.136ZM1083.24 312.6C1082.02 312.6 1081.03 312.909 1080.26 313.528C1079.52 314.147 1079.14 315.032 1079.14 316.184C1079.14 317.251 1079.51 318.125 1080.23 318.808C1080.98 319.469 1081.98 319.8 1083.24 319.8C1084.5 319.8 1085.49 319.459 1086.22 318.776C1086.94 318.093 1087.3 317.229 1087.3 316.184C1087.3 315.053 1086.93 314.179 1086.18 313.56C1085.44 312.92 1084.46 312.6 1083.24 312.6ZM1095.29 305.816C1095.4 303.683 1096.14 302.04 1097.53 300.888C1098.94 299.715 1100.78 299.128 1103.07 299.128C1104.62 299.128 1105.96 299.405 1107.07 299.96C1108.18 300.493 1109.01 301.229 1109.56 302.168C1110.14 303.085 1110.43 304.131 1110.43 305.304C1110.43 306.648 1110.08 307.789 1109.37 308.728C1108.69 309.645 1107.87 310.264 1106.91 310.584V310.712C1108.14 311.096 1109.1 311.779 1109.79 312.76C1110.49 313.741 1110.84 315 1110.84 316.536C1110.84 317.816 1110.54 318.957 1109.95 319.96C1109.37 320.963 1108.51 321.752 1107.36 322.328C1106.22 322.883 1104.86 323.16 1103.26 323.16C1100.85 323.16 1098.89 322.552 1097.37 321.336C1095.86 320.12 1095.06 318.328 1094.97 315.96H1099.32C1099.37 317.005 1099.72 317.848 1100.38 318.488C1101.06 319.107 1101.99 319.416 1103.16 319.416C1104.25 319.416 1105.08 319.117 1105.66 318.52C1106.26 317.901 1106.56 317.112 1106.56 316.152C1106.56 314.872 1106.15 313.955 1105.34 313.4C1104.53 312.845 1103.27 312.568 1101.56 312.568H1100.64V308.888H1101.56C1104.59 308.888 1106.11 307.875 1106.11 305.848C1106.11 304.931 1105.83 304.216 1105.28 303.704C1104.74 303.192 1103.96 302.936 1102.94 302.936C1101.94 302.936 1101.16 303.213 1100.6 303.768C1100.07 304.301 1099.76 304.984 1099.68 305.816H1095.29Z" fill="#777777"/>
</g>
<defs>
<filter id="filter0_d_1688_10802" x="0" y="0" width="1248" height="416" filterUnits="userSpaceOnUse" color-interpolation-filters="sRGB">
<feFlood flood-opacity="0" result="BackgroundImageFix"/>
<feColorMatrix in="SourceAlpha" type="matrix" values="0 0 0 0 0 0 0 0 0 0 0 0 0 0 0 0 0 0 127 0" result="hardAlpha"/>
<feOffset dx="16" dy="16"/>
<feGaussianBlur stdDeviation="32"/>
<feColorMatrix type="matrix" values="0 0 0 0 0 0 0 0 0 0 0 0 0 0 0 0 0 0 0.25 0"/>
<feBlend mode="normal" in2="BackgroundImageFix" result="effect1_dropShadow_1688_10802"/>
<feBlend mode="normal" in="SourceGraphic" in2="effect1_dropShadow_1688_10802" result="shape"/>
</filter>
</defs>
</svg>
