<svg width="1248" height="416" viewBox="0 0 1248 416" fill="none" xmlns="http://www.w3.org/2000/svg">
<g filter="url(#filter0_d_1688_10819)">
<path d="M48 64C48 55.1634 55.1634 48 64 48H272V272H64C55.1634 272 48 264.837 48 256V64Z" fill="#171739"/>
<path d="M112.433 303.8V299.672H120.145V323H115.537V303.8H112.433ZM139.419 303.064L130.907 323H126.363L134.939 303.576H123.995V299.736H139.419V303.064ZM141.558 303.8V299.672H149.27V323H144.662V303.8H141.558ZM168.544 303.064L160.032 323H155.488L164.064 303.576H153.12V299.736H168.544V303.064ZM171.291 305.816C171.398 303.683 172.145 302.04 173.531 300.888C174.939 299.715 176.785 299.128 179.067 299.128C180.625 299.128 181.958 299.405 183.067 299.96C184.177 300.493 185.009 301.229 185.563 302.168C186.139 303.085 186.427 304.131 186.427 305.304C186.427 306.648 186.075 307.789 185.371 308.728C184.689 309.645 183.867 310.264 182.907 310.584V310.712C184.145 311.096 185.105 311.779 185.787 312.76C186.491 313.741 186.843 315 186.843 316.536C186.843 317.816 186.545 318.957 185.947 319.96C185.371 320.963 184.507 321.752 183.355 322.328C182.225 322.883 180.859 323.16 179.259 323.16C176.849 323.16 174.886 322.552 173.371 321.336C171.857 320.12 171.057 318.328 170.971 315.96H175.323C175.366 317.005 175.718 317.848 176.379 318.488C177.062 319.107 177.99 319.416 179.163 319.416C180.251 319.416 181.083 319.117 181.659 318.52C182.257 317.901 182.555 317.112 182.555 316.152C182.555 314.872 182.15 313.955 181.339 313.4C180.529 312.845 179.27 312.568 177.563 312.568H176.635V308.888H177.563C180.593 308.888 182.107 307.875 182.107 305.848C182.107 304.931 181.83 304.216 181.275 303.704C180.742 303.192 179.963 302.936 178.939 302.936C177.937 302.936 177.158 303.213 176.603 303.768C176.07 304.301 175.761 304.984 175.675 305.816H171.291ZM195.568 316.44C195.738 317.379 196.122 318.104 196.72 318.616C197.338 319.107 198.16 319.352 199.184 319.352C200.506 319.352 201.466 318.808 202.064 317.72C202.661 316.611 202.96 314.755 202.96 312.152C202.469 312.835 201.776 313.368 200.88 313.752C200.005 314.136 199.056 314.328 198.032 314.328C196.666 314.328 195.429 314.051 194.32 313.496C193.232 312.92 192.368 312.077 191.728 310.968C191.088 309.837 190.768 308.472 190.768 306.872C190.768 304.504 191.472 302.627 192.88 301.24C194.288 299.832 196.208 299.128 198.64 299.128C201.669 299.128 203.802 300.099 205.04 302.04C206.298 303.981 206.928 306.904 206.928 310.808C206.928 313.581 206.682 315.853 206.192 317.624C205.722 319.395 204.901 320.739 203.728 321.656C202.576 322.573 200.997 323.032 198.992 323.032C197.413 323.032 196.069 322.733 194.96 322.136C193.85 321.517 192.997 320.717 192.4 319.736C191.824 318.733 191.493 317.635 191.408 316.44H195.568ZM198.96 310.68C200.069 310.68 200.944 310.339 201.584 309.656C202.224 308.973 202.544 308.056 202.544 306.904C202.544 305.645 202.202 304.675 201.52 303.992C200.858 303.288 199.952 302.936 198.8 302.936C197.648 302.936 196.73 303.299 196.048 304.024C195.386 304.728 195.056 305.667 195.056 306.84C195.056 307.971 195.376 308.899 196.016 309.624C196.677 310.328 197.658 310.68 198.96 310.68Z" fill="#777777"/>
<rect x="272" y="48" width="224" height="224" fill="#2E1660"/>
<path d="M332.792 317.944C334.84 316.237 336.472 314.819 337.688 313.688C338.904 312.536 339.917 311.341 340.728 310.104C341.538 308.867 341.944 307.651 341.944 306.456C341.944 305.368 341.688 304.515 341.176 303.896C340.664 303.277 339.874 302.968 338.808 302.968C337.741 302.968 336.92 303.331 336.344 304.056C335.768 304.76 335.469 305.731 335.448 306.968H331.096C331.181 304.408 331.938 302.467 333.368 301.144C334.818 299.821 336.653 299.16 338.872 299.16C341.304 299.16 343.17 299.811 344.472 301.112C345.773 302.392 346.424 304.088 346.424 306.2C346.424 307.864 345.976 309.453 345.08 310.968C344.184 312.483 343.16 313.805 342.008 314.936C340.856 316.045 339.352 317.389 337.496 318.968H346.936V322.68H331.128V319.352L332.792 317.944ZM354.751 304.28V309.88H362.271V313.432H354.751V319.352H363.231V323H350.271V300.632H363.231V304.28H354.751ZM366.246 303.8V299.672H373.958V323H369.35V303.8H366.246ZM390.48 305.496C390.266 304.6 389.893 303.928 389.36 303.48C388.848 303.032 388.101 302.808 387.12 302.808C385.648 302.808 384.56 303.405 383.856 304.6C383.173 305.773 382.821 307.693 382.8 310.36C383.312 309.507 384.058 308.845 385.04 308.376C386.021 307.885 387.088 307.64 388.24 307.64C389.626 307.64 390.853 307.939 391.92 308.536C392.986 309.133 393.818 310.008 394.416 311.16C395.013 312.291 395.312 313.656 395.312 315.256C395.312 316.771 395.002 318.125 394.384 319.32C393.786 320.493 392.901 321.411 391.728 322.072C390.554 322.733 389.157 323.064 387.536 323.064C385.317 323.064 383.568 322.573 382.288 321.592C381.029 320.611 380.144 319.245 379.632 317.496C379.141 315.725 378.896 313.549 378.896 310.968C378.896 307.064 379.568 304.12 380.911 302.136C382.256 300.131 384.378 299.128 387.28 299.128C389.52 299.128 391.258 299.736 392.496 300.952C393.733 302.168 394.448 303.683 394.64 305.496H390.48ZM387.216 311.32C386.085 311.32 385.136 311.651 384.368 312.312C383.6 312.973 383.216 313.933 383.216 315.192C383.216 316.451 383.568 317.443 384.272 318.168C384.997 318.893 386.01 319.256 387.312 319.256C388.464 319.256 389.37 318.904 390.032 318.2C390.714 317.496 391.056 316.547 391.056 315.352C391.056 314.115 390.725 313.133 390.064 312.408C389.424 311.683 388.474 311.32 387.216 311.32ZM410.948 305.496C410.735 304.6 410.362 303.928 409.828 303.48C409.316 303.032 408.57 302.808 407.588 302.808C406.116 302.808 405.028 303.405 404.324 304.6C403.642 305.773 403.29 307.693 403.268 310.36C403.78 309.507 404.527 308.845 405.508 308.376C406.49 307.885 407.556 307.64 408.708 307.64C410.095 307.64 411.322 307.939 412.388 308.536C413.455 309.133 414.287 310.008 414.884 311.16C415.482 312.291 415.78 313.656 415.78 315.256C415.78 316.771 415.471 318.125 414.852 319.32C414.255 320.493 413.37 321.411 412.196 322.072C411.023 322.733 409.626 323.064 408.004 323.064C405.786 323.064 404.036 322.573 402.756 321.592C401.498 320.611 400.612 319.245 400.1 317.496C399.61 315.725 399.364 313.549 399.364 310.968C399.364 307.064 400.036 304.12 401.38 302.136C402.724 300.131 404.847 299.128 407.748 299.128C409.988 299.128 411.727 299.736 412.964 300.952C414.202 302.168 414.916 303.683 415.108 305.496H410.948ZM407.684 311.32C406.554 311.32 405.604 311.651 404.836 312.312C404.068 312.973 403.684 313.933 403.684 315.192C403.684 316.451 404.036 317.443 404.74 318.168C405.466 318.893 406.479 319.256 407.78 319.256C408.932 319.256 409.839 318.904 410.5 318.2C411.183 317.496 411.524 316.547 411.524 315.352C411.524 314.115 411.194 313.133 410.532 312.408C409.892 311.683 408.943 311.32 407.684 311.32ZM419.321 311.032C419.321 307.341 419.982 304.451 421.305 302.36C422.649 300.269 424.868 299.224 427.961 299.224C431.054 299.224 433.262 300.269 434.585 302.36C435.929 304.451 436.601 307.341 436.601 311.032C436.601 314.744 435.929 317.656 434.585 319.768C433.262 321.88 431.054 322.936 427.961 322.936C424.868 322.936 422.649 321.88 421.305 319.768C419.982 317.656 419.321 314.744 419.321 311.032ZM432.185 311.032C432.185 309.453 432.078 308.131 431.865 307.064C431.673 305.976 431.268 305.091 430.649 304.408C430.052 303.725 429.156 303.384 427.961 303.384C426.766 303.384 425.86 303.725 425.241 304.408C424.644 305.091 424.238 305.976 424.025 307.064C423.833 308.131 423.737 309.453 423.737 311.032C423.737 312.653 423.833 314.019 424.025 315.128C424.217 316.216 424.622 317.101 425.241 317.784C425.86 318.445 426.766 318.776 427.961 318.776C429.156 318.776 430.062 318.445 430.681 317.784C431.3 317.101 431.705 316.216 431.897 315.128C432.089 314.019 432.185 312.653 432.185 311.032Z" fill="#777777"/>
<rect x="496" y="48" width="224" height="224" fill="#3423A5"/>
<path d="M549.088 305.816C549.195 303.683 549.941 302.04 551.328 300.888C552.736 299.715 554.581 299.128 556.864 299.128C558.421 299.128 559.755 299.405 560.864 299.96C561.973 300.493 562.805 301.229 563.36 302.168C563.936 303.085 564.224 304.131 564.224 305.304C564.224 306.648 563.872 307.789 563.168 308.728C562.485 309.645 561.664 310.264 560.704 310.584V310.712C561.941 311.096 562.901 311.779 563.584 312.76C564.288 313.741 564.64 315 564.64 316.536C564.64 317.816 564.341 318.957 563.744 319.96C563.168 320.963 562.304 321.752 561.152 322.328C560.021 322.883 558.656 323.16 557.056 323.16C554.645 323.16 552.683 322.552 551.168 321.336C549.653 320.12 548.853 318.328 548.768 315.96H553.12C553.163 317.005 553.515 317.848 554.176 318.488C554.859 319.107 555.787 319.416 556.96 319.416C558.048 319.416 558.88 319.117 559.456 318.52C560.053 317.901 560.352 317.112 560.352 316.152C560.352 314.872 559.947 313.955 559.136 313.4C558.325 312.845 557.067 312.568 555.36 312.568H554.432V308.888H555.36C558.389 308.888 559.904 307.875 559.904 305.848C559.904 304.931 559.627 304.216 559.072 303.704C558.539 303.192 557.76 302.936 556.736 302.936C555.733 302.936 554.955 303.213 554.4 303.768C553.867 304.301 553.557 304.984 553.472 305.816H549.088ZM567.988 318.456V314.936L578.452 299.96H583.668V314.552H586.484V318.456H583.668V323H579.188V318.456H567.988ZM579.476 304.76L572.916 314.552H579.476V304.76ZM590.745 317.944C592.793 316.237 594.425 314.819 595.641 313.688C596.857 312.536 597.87 311.341 598.681 310.104C599.491 308.867 599.897 307.651 599.897 306.456C599.897 305.368 599.641 304.515 599.129 303.896C598.617 303.277 597.827 302.968 596.761 302.968C595.694 302.968 594.873 303.331 594.297 304.056C593.721 304.76 593.422 305.731 593.401 306.968H589.049C589.134 304.408 589.891 302.467 591.321 301.144C592.771 299.821 594.606 299.16 596.825 299.16C599.257 299.16 601.123 299.811 602.425 301.112C603.726 302.392 604.377 304.088 604.377 306.2C604.377 307.864 603.929 309.453 603.033 310.968C602.137 312.483 601.113 313.805 599.961 314.936C598.809 316.045 597.305 317.389 595.449 318.968H604.889V322.68H589.081V319.352L590.745 317.944ZM607.776 305.816C607.882 303.683 608.629 302.04 610.016 300.888C611.424 299.715 613.269 299.128 615.552 299.128C617.109 299.128 618.442 299.405 619.552 299.96C620.661 300.493 621.493 301.229 622.048 302.168C622.624 303.085 622.912 304.131 622.912 305.304C622.912 306.648 622.56 307.789 621.856 308.728C621.173 309.645 620.352 310.264 619.392 310.584V310.712C620.629 311.096 621.589 311.779 622.272 312.76C622.976 313.741 623.328 315 623.328 316.536C623.328 317.816 623.029 318.957 622.432 319.96C621.856 320.963 620.992 321.752 619.84 322.328C618.709 322.883 617.344 323.16 615.744 323.16C613.333 323.16 611.37 322.552 609.856 321.336C608.341 320.12 607.541 318.328 607.456 315.96H611.808C611.85 317.005 612.202 317.848 612.864 318.488C613.546 319.107 614.474 319.416 615.648 319.416C616.736 319.416 617.568 319.117 618.144 318.52C618.741 317.901 619.04 317.112 619.04 316.152C619.04 314.872 618.634 313.955 617.824 313.4C617.013 312.845 615.754 312.568 614.048 312.568H613.12V308.888H614.048C617.077 308.888 618.592 307.875 618.592 305.848C618.592 304.931 618.314 304.216 617.76 303.704C617.226 303.192 616.448 302.936 615.424 302.936C614.421 302.936 613.642 303.213 613.088 303.768C612.554 304.301 612.245 304.984 612.16 305.816H607.776ZM641.076 318.744H632.18L630.708 323H626.004L634.036 300.632H639.252L647.284 323H642.548L641.076 318.744ZM639.86 315.16L636.628 305.816L633.396 315.16H639.86ZM665.454 303.544H655.086V309.016C655.534 308.461 656.174 308.013 657.006 307.672C657.838 307.309 658.723 307.128 659.662 307.128C661.369 307.128 662.766 307.501 663.854 308.248C664.942 308.995 665.731 309.955 666.222 311.128C666.713 312.28 666.958 313.517 666.958 314.84C666.958 317.293 666.254 319.267 664.846 320.76C663.459 322.253 661.475 323 658.894 323C656.462 323 654.521 322.392 653.07 321.176C651.619 319.96 650.798 318.371 650.606 316.408H654.958C655.15 317.261 655.577 317.944 656.238 318.456C656.921 318.968 657.785 319.224 658.83 319.224C660.089 319.224 661.038 318.829 661.678 318.04C662.318 317.251 662.638 316.205 662.638 314.904C662.638 313.581 662.307 312.579 661.646 311.896C661.006 311.192 660.057 310.84 658.798 310.84C657.902 310.84 657.155 311.064 656.558 311.512C655.961 311.96 655.534 312.557 655.278 313.304H650.99V299.608H665.454V303.544Z" fill="#777777"/>
<rect x="720" y="48" width="224" height="224" fill="#7180B9"/>
<path d="M793.06 303.064L784.548 323H780.004L788.58 303.576H777.636V299.736H793.06V303.064ZM795.199 303.8V299.672H802.911V323H798.303V303.8H795.199ZM811.241 310.648C809.107 309.539 808.041 307.821 808.041 305.496C808.041 304.344 808.329 303.299 808.905 302.36C809.502 301.4 810.387 300.643 811.561 300.088C812.755 299.512 814.206 299.224 815.913 299.224C817.619 299.224 819.059 299.512 820.233 300.088C821.427 300.643 822.313 301.4 822.889 302.36C823.486 303.299 823.785 304.344 823.785 305.496C823.785 306.669 823.497 307.704 822.921 308.6C822.345 309.475 821.577 310.157 820.617 310.648C821.79 311.16 822.707 311.907 823.369 312.888C824.03 313.869 824.361 315.032 824.361 316.376C824.361 317.827 823.987 319.096 823.241 320.184C822.515 321.251 821.513 322.072 820.233 322.648C818.953 323.224 817.513 323.512 815.913 323.512C814.313 323.512 812.873 323.224 811.593 322.648C810.334 322.072 809.331 321.251 808.585 320.184C807.859 319.096 807.497 317.827 807.497 316.376C807.497 315.032 807.827 313.869 808.489 312.888C809.15 311.885 810.067 311.139 811.241 310.648ZM819.433 306.136C819.433 305.091 819.113 304.28 818.473 303.704C817.854 303.128 817.001 302.84 815.913 302.84C814.846 302.84 813.993 303.128 813.353 303.704C812.734 304.28 812.425 305.101 812.425 306.168C812.425 307.128 812.745 307.896 813.385 308.472C814.046 309.048 814.889 309.336 815.913 309.336C816.937 309.336 817.779 309.048 818.441 308.472C819.102 307.875 819.433 307.096 819.433 306.136ZM815.913 312.6C814.697 312.6 813.705 312.909 812.937 313.528C812.19 314.147 811.817 315.032 811.817 316.184C811.817 317.251 812.179 318.125 812.905 318.808C813.651 319.469 814.654 319.8 815.913 319.8C817.171 319.8 818.163 319.459 818.889 318.776C819.614 318.093 819.977 317.229 819.977 316.184C819.977 315.053 819.603 314.179 818.857 313.56C818.11 312.92 817.129 312.6 815.913 312.6ZM827.899 311.032C827.899 307.341 828.56 304.451 829.883 302.36C831.227 300.269 833.446 299.224 836.539 299.224C839.632 299.224 841.84 300.269 843.163 302.36C844.507 304.451 845.179 307.341 845.179 311.032C845.179 314.744 844.507 317.656 843.163 319.768C841.84 321.88 839.632 322.936 836.539 322.936C833.446 322.936 831.227 321.88 829.883 319.768C828.56 317.656 827.899 314.744 827.899 311.032ZM840.763 311.032C840.763 309.453 840.656 308.131 840.443 307.064C840.251 305.976 839.846 305.091 839.227 304.408C838.63 303.725 837.734 303.384 836.539 303.384C835.344 303.384 834.438 303.725 833.819 304.408C833.222 305.091 832.816 305.976 832.603 307.064C832.411 308.131 832.315 309.453 832.315 311.032C832.315 312.653 832.411 314.019 832.603 315.128C832.795 316.216 833.2 317.101 833.819 317.784C834.438 318.445 835.344 318.776 836.539 318.776C837.734 318.776 838.64 318.445 839.259 317.784C839.878 317.101 840.283 316.216 840.475 315.128C840.667 314.019 840.763 312.653 840.763 311.032ZM861.771 311.544C863.029 311.779 864.064 312.408 864.875 313.432C865.685 314.456 866.091 315.629 866.091 316.952C866.091 318.147 865.792 319.203 865.195 320.12C864.619 321.016 863.776 321.72 862.667 322.232C861.557 322.744 860.245 323 858.731 323H849.099V300.664H858.315C859.829 300.664 861.131 300.909 862.219 301.4C863.328 301.891 864.16 302.573 864.715 303.448C865.291 304.323 865.579 305.315 865.579 306.424C865.579 307.725 865.227 308.813 864.523 309.688C863.84 310.563 862.923 311.181 861.771 311.544ZM853.579 309.88H857.675C858.741 309.88 859.563 309.645 860.139 309.176C860.715 308.685 861.003 307.992 861.003 307.096C861.003 306.2 860.715 305.507 860.139 305.016C859.563 304.525 858.741 304.28 857.675 304.28H853.579V309.88ZM858.091 319.352C859.179 319.352 860.021 319.096 860.619 318.584C861.237 318.072 861.547 317.347 861.547 316.408C861.547 315.448 861.227 314.701 860.587 314.168C859.947 313.613 859.083 313.336 857.995 313.336H853.579V319.352H858.091ZM874.333 316.44C874.504 317.379 874.888 318.104 875.485 318.616C876.104 319.107 876.925 319.352 877.949 319.352C879.272 319.352 880.232 318.808 880.829 317.72C881.426 316.611 881.725 314.755 881.725 312.152C881.234 312.835 880.541 313.368 879.645 313.752C878.77 314.136 877.821 314.328 876.797 314.328C875.432 314.328 874.194 314.051 873.085 313.496C871.997 312.92 871.133 312.077 870.493 310.968C869.853 309.837 869.533 308.472 869.533 306.872C869.533 304.504 870.237 302.627 871.645 301.24C873.053 299.832 874.973 299.128 877.405 299.128C880.434 299.128 882.568 300.099 883.805 302.04C885.064 303.981 885.693 306.904 885.693 310.808C885.693 313.581 885.448 315.853 884.957 317.624C884.488 319.395 883.666 320.739 882.493 321.656C881.341 322.573 879.762 323.032 877.757 323.032C876.178 323.032 874.834 322.733 873.725 322.136C872.616 321.517 871.762 320.717 871.165 319.736C870.589 318.733 870.258 317.635 870.173 316.44H874.333ZM877.725 310.68C878.834 310.68 879.709 310.339 880.349 309.656C880.989 308.973 881.309 308.056 881.309 306.904C881.309 305.645 880.968 304.675 880.285 303.992C879.624 303.288 878.717 302.936 877.565 302.936C876.413 302.936 875.496 303.299 874.813 304.024C874.152 304.728 873.821 305.667 873.821 306.84C873.821 307.971 874.141 308.899 874.781 309.624C875.442 310.328 876.424 310.68 877.725 310.68Z" fill="#777777"/>
<path d="M944 48H1152C1160.84 48 1168 55.1634 1168 64V256C1168 264.837 1160.84 272 1152 272H944V48Z" fill="#DEF3E4"/>
<path d="M1008.88 300.664C1011.22 300.664 1013.28 301.123 1015.05 302.04C1016.84 302.957 1018.22 304.269 1019.18 305.976C1020.16 307.661 1020.65 309.624 1020.65 311.864C1020.65 314.104 1020.16 316.067 1019.18 317.752C1018.22 319.416 1016.84 320.707 1015.05 321.624C1013.28 322.541 1011.22 323 1008.88 323H1001.07V300.664H1008.88ZM1008.72 319.192C1011.06 319.192 1012.88 318.552 1014.16 317.272C1015.44 315.992 1016.08 314.189 1016.08 311.864C1016.08 309.539 1015.44 307.725 1014.16 306.424C1012.88 305.101 1011.06 304.44 1008.72 304.44H1005.55V319.192H1008.72ZM1028.48 304.28V309.88H1036V313.432H1028.48V319.352H1036.96V323H1024V300.632H1036.96V304.28H1028.48ZM1054.83 300.664V304.28H1045.52V310.008H1052.65V313.56H1045.52V323H1041.04V300.664H1054.83ZM1057.56 305.816C1057.66 303.683 1058.41 302.04 1059.8 300.888C1061.2 299.715 1063.05 299.128 1065.33 299.128C1066.89 299.128 1068.22 299.405 1069.33 299.96C1070.44 300.493 1071.27 301.229 1071.83 302.168C1072.4 303.085 1072.69 304.131 1072.69 305.304C1072.69 306.648 1072.34 307.789 1071.64 308.728C1070.95 309.645 1070.13 310.264 1069.17 310.584V310.712C1070.41 311.096 1071.37 311.779 1072.05 312.76C1072.76 313.741 1073.11 315 1073.11 316.536C1073.11 317.816 1072.81 318.957 1072.21 319.96C1071.64 320.963 1070.77 321.752 1069.62 322.328C1068.49 322.883 1067.12 323.16 1065.52 323.16C1063.11 323.16 1061.15 322.552 1059.64 321.336C1058.12 320.12 1057.32 318.328 1057.24 315.96H1061.59C1061.63 317.005 1061.98 317.848 1062.64 318.488C1063.33 319.107 1064.26 319.416 1065.43 319.416C1066.52 319.416 1067.35 319.117 1067.92 318.52C1068.52 317.901 1068.82 317.112 1068.82 316.152C1068.82 314.872 1068.42 313.955 1067.6 313.4C1066.79 312.845 1065.54 312.568 1063.83 312.568H1062.9V308.888H1063.83C1066.86 308.888 1068.37 307.875 1068.37 305.848C1068.37 304.931 1068.1 304.216 1067.54 303.704C1067.01 303.192 1066.23 302.936 1065.2 302.936C1064.2 302.936 1063.42 303.213 1062.87 303.768C1062.34 304.301 1062.03 304.984 1061.94 305.816H1057.56ZM1081.64 304.28V309.88H1089.16V313.432H1081.64V319.352H1090.12V323H1077.16V300.632H1090.12V304.28H1081.64ZM1093.49 318.456V314.936L1103.95 299.96H1109.17V314.552H1111.98V318.456H1109.17V323H1104.69V318.456H1093.49ZM1104.98 304.76L1098.42 314.552H1104.98V304.76Z" fill="#777777"/>
</g>
<defs>
<filter id="filter0_d_1688_10819" x="0" y="0" width="1248" height="416" filterUnits="userSpaceOnUse" color-interpolation-filters="sRGB">
<feFlood flood-opacity="0" result="BackgroundImageFix"/>
<feColorMatrix in="SourceAlpha" type="matrix" values="0 0 0 0 0 0 0 0 0 0 0 0 0 0 0 0 0 0 127 0" result="hardAlpha"/>
<feOffset dx="16" dy="16"/>
<feGaussianBlur stdDeviation="32"/>
<feColorMatrix type="matrix" values="0 0 0 0 0 0 0 0 0 0 0 0 0 0 0 0 0 0 0.25 0"/>
<feBlend mode="normal" in2="BackgroundImageFix" result="effect1_dropShadow_1688_10819"/>
<feBlend mode="normal" in="SourceGraphic" in2="effect1_dropShadow_1688_10819" result="shape"/>
</filter>
</defs>
</svg>
